G04 #@! TF.GenerationSoftware,KiCad,Pcbnew,(5.1.5)-3*
G04 #@! TF.CreationDate,2020-05-10T18:01:22+09:00*
G04 #@! TF.ProjectId,Current_Controller,43757272-656e-4745-9f43-6f6e74726f6c,rev?*
G04 #@! TF.SameCoordinates,Original*
G04 #@! TF.FileFunction,Legend,Bot*
G04 #@! TF.FilePolarity,Positive*
%FSLAX46Y46*%
G04 Gerber Fmt 4.6, Leading zero omitted, Abs format (unit mm)*
G04 Created by KiCad (PCBNEW (5.1.5)-3) date 2020-05-10 18:01:22*
%MOMM*%
%LPD*%
G04 APERTURE LIST*
%ADD10C,0.150000*%
G04 APERTURE END LIST*
D10*
X111844057Y-48331380D02*
X112177390Y-47855190D01*
X112415485Y-48331380D02*
X112415485Y-47331380D01*
X112034533Y-47331380D01*
X111939295Y-47379000D01*
X111891676Y-47426619D01*
X111844057Y-47521857D01*
X111844057Y-47664714D01*
X111891676Y-47759952D01*
X111939295Y-47807571D01*
X112034533Y-47855190D01*
X112415485Y-47855190D01*
X110891676Y-48331380D02*
X111463104Y-48331380D01*
X111177390Y-48331380D02*
X111177390Y-47331380D01*
X111272628Y-47474238D01*
X111367866Y-47569476D01*
X111463104Y-47617095D01*
X110558342Y-47331380D02*
X109939295Y-47331380D01*
X110272628Y-47712333D01*
X110129771Y-47712333D01*
X110034533Y-47759952D01*
X109986914Y-47807571D01*
X109939295Y-47902809D01*
X109939295Y-48140904D01*
X109986914Y-48236142D01*
X110034533Y-48283761D01*
X110129771Y-48331380D01*
X110415485Y-48331380D01*
X110510723Y-48283761D01*
X110558342Y-48236142D01*
X115538095Y-47331380D02*
X115442857Y-47331380D01*
X115347619Y-47379000D01*
X115300000Y-47426619D01*
X115252380Y-47521857D01*
X115204761Y-47712333D01*
X115204761Y-47950428D01*
X115252380Y-48140904D01*
X115300000Y-48236142D01*
X115347619Y-48283761D01*
X115442857Y-48331380D01*
X115538095Y-48331380D01*
X115633333Y-48283761D01*
X115680952Y-48236142D01*
X115728571Y-48140904D01*
X115776190Y-47950428D01*
X115776190Y-47712333D01*
X115728571Y-47521857D01*
X115680952Y-47426619D01*
X115633333Y-47379000D01*
X115538095Y-47331380D01*
X114776190Y-48236142D02*
X114728571Y-48283761D01*
X114776190Y-48331380D01*
X114823809Y-48283761D01*
X114776190Y-48236142D01*
X114776190Y-48331380D01*
X114109523Y-47331380D02*
X114014285Y-47331380D01*
X113919047Y-47379000D01*
X113871428Y-47426619D01*
X113823809Y-47521857D01*
X113776190Y-47712333D01*
X113776190Y-47950428D01*
X113823809Y-48140904D01*
X113871428Y-48236142D01*
X113919047Y-48283761D01*
X114014285Y-48331380D01*
X114109523Y-48331380D01*
X114204761Y-48283761D01*
X114252380Y-48236142D01*
X114300000Y-48140904D01*
X114347619Y-47950428D01*
X114347619Y-47712333D01*
X114300000Y-47521857D01*
X114252380Y-47426619D01*
X114204761Y-47379000D01*
X114109523Y-47331380D01*
X112823809Y-48331380D02*
X113395238Y-48331380D01*
X113109523Y-48331380D02*
X113109523Y-47331380D01*
X113204761Y-47474238D01*
X113300000Y-47569476D01*
X113395238Y-47617095D01*
M02*
