M48
; DRILL file {KiCad (5.1.5)-3} date 2020/05/10 18:01:27
; FORMAT={-:-/ absolute / inch / decimal}
; #@! TF.CreationDate,2020-05-10T18:01:27+09:00
; #@! TF.GenerationSoftware,Kicad,Pcbnew,(5.1.5)-3
FMAT,2
INCH
T1C0.0157
T2C0.0197
T3C0.0320
T4C0.0374
T5C0.0394
T6C0.0630
T7C0.0732
T8C0.0748
T9C0.0787
T10C0.1260
T11C0.0472
%
G90
G05
T1
X2.4Y-2.5
X2.4Y-3.35
X2.5Y-2.5
X2.5Y-3.35
X2.55Y-2.65
X2.55Y-2.7
X2.55Y-2.75
X2.55Y-2.8
X2.55Y-2.85
X2.55Y-2.9
X2.55Y-2.95
X2.55Y-3.0
X2.55Y-3.05
X2.55Y-3.1
X2.55Y-3.15
X2.6Y-2.5
X2.6Y-3.35
X2.7Y-2.5
X2.7Y-3.3
X2.71Y-3.41
X2.75Y-2.65
X2.75Y-2.7
X2.75Y-2.75
X2.75Y-2.8
X2.75Y-2.85
X2.75Y-2.9
X2.75Y-2.95
X2.75Y-3.0
X2.75Y-3.05
X2.75Y-3.1
X2.75Y-3.15
X2.775Y-3.525
X2.775Y-3.625
X2.775Y-3.725
X2.775Y-3.775
X2.8Y-2.2
X2.8Y-2.3
X2.8Y-2.4
X2.8Y-2.5
X2.8Y-2.65
X2.8Y-2.7
X2.8Y-2.8
X2.8Y-2.85
X2.8Y-2.9
X2.8Y-2.95
X2.8Y-3.0
X2.8Y-3.05
X2.8Y-3.15
X2.8Y-3.3
X2.8Y-3.4
X2.85Y-2.9
X2.85Y-2.95
X2.875Y-3.775
X2.9Y-2.2
X2.9Y-2.3
X2.9Y-2.4
X2.9Y-2.5
X2.9Y-2.9
X2.9Y-2.95
X2.9Y-3.3
X2.9Y-3.4
X2.95Y-2.9
X2.95Y-2.95
X2.975Y-3.775
X3.0Y-2.2
X3.0Y-2.3
X3.0Y-2.4
X3.0Y-2.5
X3.0Y-2.6
X3.0Y-2.9
X3.0Y-2.95
X3.0Y-3.2
X3.0Y-3.3
X3.0Y-3.4
X3.05Y-2.85
X3.05Y-2.9
X3.05Y-2.95
X3.05Y-3.0
X3.075Y-3.775
X3.1Y-2.2
X3.1Y-2.3
X3.1Y-2.4
X3.1Y-2.5
X3.1Y-2.6
X3.1Y-2.7
X3.1Y-2.85
X3.1Y-2.9
X3.1Y-2.95
X3.1Y-3.0
X3.1Y-3.1
X3.1Y-3.2
X3.1Y-3.3
X3.1Y-3.4
X3.175Y-3.775
X3.2Y-2.2
X3.2Y-2.3
X3.2Y-2.4
X3.2Y-2.5
X3.2Y-2.6
X3.2Y-3.3
X3.2Y-3.4
X3.275Y-3.775
X3.2875Y-2.95
X3.3Y-2.2
X3.3Y-2.3
X3.3Y-2.4
X3.3Y-2.5
X3.3Y-2.6
X3.3Y-2.7
X3.3Y-3.1
X3.3Y-3.2
X3.3Y-3.3
X3.3Y-3.4
X3.325Y-2.95
X3.375Y-3.775
X3.4Y-2.73
X3.4Y-3.2
X3.4Y-3.3
X3.4Y-3.4
X3.44Y-2.73
X3.44Y-3.02
X3.445Y-2.79
X3.445Y-2.83
X3.45Y-2.425
X3.45Y-2.5
X3.475Y-2.615
X3.475Y-3.775
X3.48Y-2.98
X3.48Y-3.02
X3.5Y-3.2
X3.5Y-3.3
X3.5Y-3.4
X3.515Y-2.615
X3.515Y-2.65
X3.515Y-2.6875
X3.52Y-2.825
X3.525Y-2.425
X3.525Y-2.775
X3.53Y-2.9825
X3.575Y-3.775
X3.58Y-2.36
X3.58Y-2.51
X3.58Y-2.55
X3.6Y-2.2
X3.6Y-2.3
X3.6Y-3.2
X3.6Y-3.3
X3.6Y-3.4
X3.62Y-2.51
X3.6275Y-2.73
X3.66Y-2.51
X3.66Y-2.92
X3.66Y-2.96
X3.6625Y-2.73
X3.675Y-3.775
X3.69Y-2.82
X3.69Y-2.86
X3.7Y-2.2
X3.72Y-2.73
X3.725Y-3.0625
X3.73Y-2.82
X3.73Y-3.12
X3.76Y-2.73
X3.7625Y-3.0625
X3.765Y-3.12
X3.765Y-3.155
X3.775Y-3.775
X3.8Y-2.2
X3.8Y-2.46
X3.8Y-3.12
X3.8Y-3.155
X3.8Y-3.19
X3.81Y-2.73
X3.81Y-2.77
X3.85Y-2.77
X3.875Y-3.775
X3.88Y-2.7125
X3.9Y-2.2
X3.9Y-3.2
X3.93Y-3.025
X3.975Y-3.775
X3.9925Y-2.665
X3.9925Y-2.7
X4.0Y-2.2
X4.0Y-2.3
X4.0Y-3.3
X4.0125Y-2.495
X4.0125Y-2.53
X4.013Y-2.397
X4.013Y-2.432
X4.0425Y-2.76
X4.0625Y-3.215
X4.075Y-3.775
X4.0975Y-3.215
X4.1Y-2.2
X4.1Y-2.3
X4.1Y-3.3
X4.1Y-3.4
X4.1Y-3.5
X4.1Y-3.6
X4.1Y-3.7
X4.12Y-2.34
X4.14Y-2.29
X4.15Y-3.05
X4.15Y-3.09
X4.15Y-3.13
X4.155Y-2.875
X4.175Y-3.775
X4.18Y-2.27
X4.19Y-3.09
X4.19Y-3.13
X4.2Y-2.2
X4.2Y-3.3
X4.2Y-3.4
X4.2Y-3.5
X4.2Y-3.6
X4.2Y-3.7
X4.22Y-2.36
X4.225Y-2.84
X4.225Y-2.8825
X4.23Y-2.27
X4.2375Y-2.8
X4.26Y-2.8825
X4.27Y-2.36
X4.275Y-3.775
X4.28Y-2.2
X4.28Y-2.27
X4.2875Y-3.215
X4.3Y-3.3
X4.3Y-3.4
X4.3Y-3.5
X4.3Y-3.6
X4.3Y-3.7
X4.32Y-2.36
X4.325Y-3.215
X4.33Y-2.22
X4.33Y-2.265
X4.33Y-2.68
X4.33Y-2.7175
X4.36Y-3.15
X4.37Y-2.34
X4.375Y-3.775
X4.3975Y-2.08
X4.3975Y-2.1275
X4.4Y-2.31
X4.4Y-3.15
X4.4Y-3.19
X4.4Y-3.5
X4.4Y-3.6
X4.4Y-3.7
X4.42Y-2.22
X4.42Y-2.27
X4.425Y-2.9575
X4.425Y-2.995
X4.44Y-3.15
X4.44Y-3.19
X4.44Y-3.23
X4.45Y-2.775
X4.47Y-2.2
X4.475Y-3.775
X4.4975Y-3.2125
X4.4975Y-3.245
X4.5Y-2.675
X4.5Y-3.5
X4.5Y-3.6
X4.5Y-3.7
X4.55Y-2.2
X4.55Y-2.625
X4.575Y-2.725
X4.575Y-3.775
X4.576Y-2.8
X4.6Y-2.575
X4.6Y-3.6
X4.6Y-3.7
X4.625Y-2.275
X4.625Y-2.325
X4.625Y-2.375
X4.625Y-2.425
X4.625Y-2.475
X4.625Y-2.525
X4.625Y-2.675
X4.625Y-3.0025
X4.644Y-2.858
X4.653Y-2.806
X4.6575Y-3.0025
X4.672Y-2.942
X4.675Y-2.625
X4.675Y-3.775
X4.7Y-2.7
X4.7Y-3.6
X4.7Y-3.7
X4.725Y-2.375
X4.725Y-2.425
X4.725Y-2.475
X4.725Y-2.525
X4.725Y-2.575
X4.775Y-2.6
X4.775Y-3.775
X4.8Y-2.7
X4.8Y-3.6
X4.8Y-3.7
X4.809Y-2.801
X4.815Y-3.105
X4.825Y-2.65
X4.8375Y-3.37
X4.8375Y-3.405
X4.85Y-3.105
X4.875Y-2.65
X4.9Y-2.7
X4.9Y-2.8
X4.9Y-2.9
X4.9Y-3.3
X4.9Y-3.4
X4.9Y-3.5
X4.9Y-3.6
X4.9Y-3.675
X4.9Y-3.775
X4.95Y-2.65
X4.95Y-3.55
X5.0Y-3.4
X5.0Y-3.5
X5.025Y-2.65
X5.05Y-3.0
X5.075Y-3.5
X5.1Y-2.65
X5.1Y-2.7
X5.1Y-3.4
X5.175Y-2.65
X5.175Y-2.7
X5.175Y-2.8
X5.175Y-2.9
X5.175Y-3.0
X5.175Y-3.1
X5.175Y-3.2
X5.175Y-3.3
X5.175Y-3.4
X5.175Y-3.5
T2
X2.4805Y-2.275
X2.5082Y-2.2082
X2.5082Y-2.3418
X2.575Y-2.1805
X2.575Y-2.3695
X2.6418Y-2.2082
X2.6418Y-2.3418
X2.6695Y-2.275
X4.5805Y-0.7
X4.6082Y-0.6332
X4.6082Y-0.7668
X4.675Y-0.6055
X4.675Y-0.7945
X4.7418Y-0.6332
X4.7418Y-0.7668
X4.7695Y-0.7
X0.8055Y-0.7
X0.8332Y-0.6332
X0.8332Y-0.7668
X0.9Y-0.6055
X0.9Y-0.7945
X0.9668Y-0.6332
X0.9668Y-0.7668
X0.9945Y-0.7
X4.9805Y-3.675
X5.0082Y-3.6082
X5.0082Y-3.7418
X5.075Y-3.5805
X5.075Y-3.7695
X5.1418Y-3.6082
X5.1418Y-3.7418
X5.1695Y-3.675
X0.8055Y-2.275
X0.8332Y-2.2082
X0.8332Y-2.3418
X0.9Y-2.1805
X0.9Y-2.3695
X0.9668Y-2.2082
X0.9668Y-2.3418
X0.9945Y-2.275
X0.8055Y-3.6668
X0.8332Y-3.6
X0.8332Y-3.7336
X0.9Y-3.5723
X0.9Y-3.7613
X0.9668Y-3.6
X0.9668Y-3.7336
X0.9945Y-3.6668
X2.4805Y-3.6668
X2.5082Y-3.6
X2.5082Y-3.7336
X2.575Y-3.5723
X2.575Y-3.7613
X2.6418Y-3.6
X2.6418Y-3.7336
X2.6695Y-3.6668
T3
X1.28Y-2.625
X1.28Y-3.225
X1.38Y-2.625
X1.38Y-3.225
X1.98Y-2.625
X1.98Y-3.225
X2.18Y-2.625
X2.18Y-3.225
T4
X5.044Y-3.09
X5.044Y-3.1884
X5.044Y-3.2869
X3.6016Y-3.62
X3.7Y-3.62
X3.7984Y-3.62
X3.8969Y-3.62
X3.9953Y-3.62
T5
X5.043Y-2.76
X5.043Y-2.8584
X3.715Y-2.6525
X3.815Y-2.6525
X4.5Y-2.47
X4.5Y-2.5684
X0.95Y-3.125
X0.95Y-3.2234
X3.2516Y-3.62
X3.35Y-3.62
X2.93Y-3.62
X3.0284Y-3.62
X2.25Y-1.7
X2.25Y-1.9953
T6
X0.9031Y-1.9878
X1.1Y-1.9878
X4.9031Y-1.0756
X5.1Y-1.0756
X4.9031Y-1.6006
X5.1Y-1.6006
X4.9031Y-2.0256
X5.1Y-2.0256
X0.9031Y-1.3
X1.1Y-1.3
X4.9031Y-2.5256
X5.1Y-2.5256
T7
X0.9031Y-1.0244
X1.1Y-1.0244
X0.9031Y-1.7122
X1.1Y-1.7122
X4.9031Y-2.25
X5.1Y-2.25
X4.9031Y-0.8
X5.1Y-0.8
X4.9031Y-1.325
X5.1Y-1.325
X4.9031Y-1.75
X5.1Y-1.75
T8
X1.245Y-1.475
X2.025Y-1.475
T9
X4.125Y-1.05
X4.125Y-1.4437
X2.845Y-1.05
X2.845Y-1.4437
T10
X0.9Y-0.7
X5.075Y-3.675
X0.9Y-2.275
X0.9Y-3.6668
X2.575Y-3.6668
X2.575Y-2.275
X4.675Y-0.7
T11
X4.4213Y-2.407
X0.8713Y-3.062
X3.1886Y-3.6987
X2.867Y-3.6987
X4.9653Y-3.027
X3.5386Y-3.6987
X4.9643Y-2.697
T0
M30
