G04 #@! TF.GenerationSoftware,KiCad,Pcbnew,(5.1.5)-3*
G04 #@! TF.CreationDate,2020-02-06T00:19:04+09:00*
G04 #@! TF.ProjectId,GradientDriver,47726164-6965-46e7-9444-72697665722e,rev?*
G04 #@! TF.SameCoordinates,Original*
G04 #@! TF.FileFunction,Paste,Top*
G04 #@! TF.FilePolarity,Positive*
%FSLAX46Y46*%
G04 Gerber Fmt 4.6, Leading zero omitted, Abs format (unit mm)*
G04 Created by KiCad (PCBNEW (5.1.5)-3) date 2020-02-06 00:19:04*
%MOMM*%
%LPD*%
G04 APERTURE LIST*
%ADD10R,3.600000X1.270000*%
%ADD11R,4.200000X1.350000*%
%ADD12R,3.400000X1.800000*%
%ADD13R,3.200000X1.800000*%
%ADD14R,1.220000X0.650000*%
%ADD15R,1.000000X1.000000*%
%ADD16R,2.790000X1.190000*%
%ADD17C,0.100000*%
%ADD18R,2.000000X4.000000*%
%ADD19R,1.000000X2.500000*%
%ADD20R,2.000000X1.600000*%
%ADD21R,2.000000X2.600000*%
%ADD22R,3.050000X2.750000*%
%ADD23R,2.200000X1.200000*%
G04 APERTURE END LIST*
D10*
X54918000Y-87122000D03*
D11*
X55118000Y-89947000D03*
X55118000Y-84297000D03*
D10*
X124460000Y-74676000D03*
D11*
X124260000Y-71851000D03*
X124260000Y-77501000D03*
D12*
X105410000Y-38735000D03*
X105664000Y-58674000D03*
X69596000Y-41148000D03*
X116332000Y-72136000D03*
X95504000Y-101600000D03*
X83312000Y-83820000D03*
X72898000Y-84074000D03*
D13*
X105410000Y-83312000D03*
X105410000Y-78312000D03*
X105410000Y-71294000D03*
X105410000Y-66294000D03*
D14*
X90948500Y-94617500D03*
X90948500Y-96517500D03*
X88328500Y-96517500D03*
X88328500Y-95567500D03*
X88328500Y-94617500D03*
D15*
X83439000Y-73660000D03*
X80939000Y-73660000D03*
D16*
X77531500Y-92835000D03*
X82361500Y-95375000D03*
X77531500Y-97915000D03*
D17*
G36*
X111027005Y-76050204D02*
G01*
X111051273Y-76053804D01*
X111075072Y-76059765D01*
X111098171Y-76068030D01*
X111120350Y-76078520D01*
X111141393Y-76091132D01*
X111161099Y-76105747D01*
X111179277Y-76122223D01*
X111195753Y-76140401D01*
X111210368Y-76160107D01*
X111222980Y-76181150D01*
X111233470Y-76203329D01*
X111241735Y-76226428D01*
X111247696Y-76250227D01*
X111251296Y-76274495D01*
X111252500Y-76298999D01*
X111252500Y-79149001D01*
X111251296Y-79173505D01*
X111247696Y-79197773D01*
X111241735Y-79221572D01*
X111233470Y-79244671D01*
X111222980Y-79266850D01*
X111210368Y-79287893D01*
X111195753Y-79307599D01*
X111179277Y-79325777D01*
X111161099Y-79342253D01*
X111141393Y-79356868D01*
X111120350Y-79369480D01*
X111098171Y-79379970D01*
X111075072Y-79388235D01*
X111051273Y-79394196D01*
X111027005Y-79397796D01*
X111002501Y-79399000D01*
X109977499Y-79399000D01*
X109952995Y-79397796D01*
X109928727Y-79394196D01*
X109904928Y-79388235D01*
X109881829Y-79379970D01*
X109859650Y-79369480D01*
X109838607Y-79356868D01*
X109818901Y-79342253D01*
X109800723Y-79325777D01*
X109784247Y-79307599D01*
X109769632Y-79287893D01*
X109757020Y-79266850D01*
X109746530Y-79244671D01*
X109738265Y-79221572D01*
X109732304Y-79197773D01*
X109728704Y-79173505D01*
X109727500Y-79149001D01*
X109727500Y-76298999D01*
X109728704Y-76274495D01*
X109732304Y-76250227D01*
X109738265Y-76226428D01*
X109746530Y-76203329D01*
X109757020Y-76181150D01*
X109769632Y-76160107D01*
X109784247Y-76140401D01*
X109800723Y-76122223D01*
X109818901Y-76105747D01*
X109838607Y-76091132D01*
X109859650Y-76078520D01*
X109881829Y-76068030D01*
X109904928Y-76059765D01*
X109928727Y-76053804D01*
X109952995Y-76050204D01*
X109977499Y-76049000D01*
X111002501Y-76049000D01*
X111027005Y-76050204D01*
G37*
G36*
X117002005Y-76050204D02*
G01*
X117026273Y-76053804D01*
X117050072Y-76059765D01*
X117073171Y-76068030D01*
X117095350Y-76078520D01*
X117116393Y-76091132D01*
X117136099Y-76105747D01*
X117154277Y-76122223D01*
X117170753Y-76140401D01*
X117185368Y-76160107D01*
X117197980Y-76181150D01*
X117208470Y-76203329D01*
X117216735Y-76226428D01*
X117222696Y-76250227D01*
X117226296Y-76274495D01*
X117227500Y-76298999D01*
X117227500Y-79149001D01*
X117226296Y-79173505D01*
X117222696Y-79197773D01*
X117216735Y-79221572D01*
X117208470Y-79244671D01*
X117197980Y-79266850D01*
X117185368Y-79287893D01*
X117170753Y-79307599D01*
X117154277Y-79325777D01*
X117136099Y-79342253D01*
X117116393Y-79356868D01*
X117095350Y-79369480D01*
X117073171Y-79379970D01*
X117050072Y-79388235D01*
X117026273Y-79394196D01*
X117002005Y-79397796D01*
X116977501Y-79399000D01*
X115952499Y-79399000D01*
X115927995Y-79397796D01*
X115903727Y-79394196D01*
X115879928Y-79388235D01*
X115856829Y-79379970D01*
X115834650Y-79369480D01*
X115813607Y-79356868D01*
X115793901Y-79342253D01*
X115775723Y-79325777D01*
X115759247Y-79307599D01*
X115744632Y-79287893D01*
X115732020Y-79266850D01*
X115721530Y-79244671D01*
X115713265Y-79221572D01*
X115707304Y-79197773D01*
X115703704Y-79173505D01*
X115702500Y-79149001D01*
X115702500Y-76298999D01*
X115703704Y-76274495D01*
X115707304Y-76250227D01*
X115713265Y-76226428D01*
X115721530Y-76203329D01*
X115732020Y-76181150D01*
X115744632Y-76160107D01*
X115759247Y-76140401D01*
X115775723Y-76122223D01*
X115793901Y-76105747D01*
X115813607Y-76091132D01*
X115834650Y-76078520D01*
X115856829Y-76068030D01*
X115879928Y-76059765D01*
X115903727Y-76053804D01*
X115927995Y-76050204D01*
X115952499Y-76049000D01*
X116977501Y-76049000D01*
X117002005Y-76050204D01*
G37*
G36*
X90408000Y-79243000D02*
G01*
X89908000Y-79993000D01*
X88908000Y-79993000D01*
X88408000Y-79243000D01*
X90408000Y-79243000D01*
G37*
D18*
X89408000Y-77268000D03*
D19*
X90908000Y-81228000D03*
X89408000Y-81228000D03*
X87908000Y-81228000D03*
D17*
G36*
X90408000Y-68575000D02*
G01*
X89908000Y-69325000D01*
X88908000Y-69325000D01*
X88408000Y-68575000D01*
X90408000Y-68575000D01*
G37*
D18*
X89408000Y-66600000D03*
D19*
X90908000Y-70560000D03*
X89408000Y-70560000D03*
X87908000Y-70560000D03*
D17*
G36*
X82026000Y-79243000D02*
G01*
X81526000Y-79993000D01*
X80526000Y-79993000D01*
X80026000Y-79243000D01*
X82026000Y-79243000D01*
G37*
D18*
X81026000Y-77268000D03*
D19*
X82526000Y-81228000D03*
X81026000Y-81228000D03*
X79526000Y-81228000D03*
D17*
G36*
X82026000Y-68575000D02*
G01*
X81526000Y-69325000D01*
X80526000Y-69325000D01*
X80026000Y-68575000D01*
X82026000Y-68575000D01*
G37*
D18*
X81026000Y-66600000D03*
D19*
X82526000Y-70560000D03*
X81026000Y-70560000D03*
X79526000Y-70560000D03*
D17*
G36*
X95570504Y-77607704D02*
G01*
X95594773Y-77611304D01*
X95618571Y-77617265D01*
X95641671Y-77625530D01*
X95663849Y-77636020D01*
X95684893Y-77648633D01*
X95704598Y-77663247D01*
X95722777Y-77679723D01*
X95739253Y-77697902D01*
X95753867Y-77717607D01*
X95766480Y-77738651D01*
X95776970Y-77760829D01*
X95785235Y-77783929D01*
X95791196Y-77807727D01*
X95794796Y-77831996D01*
X95796000Y-77856500D01*
X95796000Y-80131500D01*
X95794796Y-80156004D01*
X95791196Y-80180273D01*
X95785235Y-80204071D01*
X95776970Y-80227171D01*
X95766480Y-80249349D01*
X95753867Y-80270393D01*
X95739253Y-80290098D01*
X95722777Y-80308277D01*
X95704598Y-80324753D01*
X95684893Y-80339367D01*
X95663849Y-80351980D01*
X95641671Y-80362470D01*
X95618571Y-80370735D01*
X95594773Y-80376696D01*
X95570504Y-80380296D01*
X95546000Y-80381500D01*
X94446000Y-80381500D01*
X94421496Y-80380296D01*
X94397227Y-80376696D01*
X94373429Y-80370735D01*
X94350329Y-80362470D01*
X94328151Y-80351980D01*
X94307107Y-80339367D01*
X94287402Y-80324753D01*
X94269223Y-80308277D01*
X94252747Y-80290098D01*
X94238133Y-80270393D01*
X94225520Y-80249349D01*
X94215030Y-80227171D01*
X94206765Y-80204071D01*
X94200804Y-80180273D01*
X94197204Y-80156004D01*
X94196000Y-80131500D01*
X94196000Y-77856500D01*
X94197204Y-77831996D01*
X94200804Y-77807727D01*
X94206765Y-77783929D01*
X94215030Y-77760829D01*
X94225520Y-77738651D01*
X94238133Y-77717607D01*
X94252747Y-77697902D01*
X94269223Y-77679723D01*
X94287402Y-77663247D01*
X94307107Y-77648633D01*
X94328151Y-77636020D01*
X94350329Y-77625530D01*
X94373429Y-77617265D01*
X94397227Y-77611304D01*
X94421496Y-77607704D01*
X94446000Y-77606500D01*
X95546000Y-77606500D01*
X95570504Y-77607704D01*
G37*
G36*
X95570504Y-81732704D02*
G01*
X95594773Y-81736304D01*
X95618571Y-81742265D01*
X95641671Y-81750530D01*
X95663849Y-81761020D01*
X95684893Y-81773633D01*
X95704598Y-81788247D01*
X95722777Y-81804723D01*
X95739253Y-81822902D01*
X95753867Y-81842607D01*
X95766480Y-81863651D01*
X95776970Y-81885829D01*
X95785235Y-81908929D01*
X95791196Y-81932727D01*
X95794796Y-81956996D01*
X95796000Y-81981500D01*
X95796000Y-84256500D01*
X95794796Y-84281004D01*
X95791196Y-84305273D01*
X95785235Y-84329071D01*
X95776970Y-84352171D01*
X95766480Y-84374349D01*
X95753867Y-84395393D01*
X95739253Y-84415098D01*
X95722777Y-84433277D01*
X95704598Y-84449753D01*
X95684893Y-84464367D01*
X95663849Y-84476980D01*
X95641671Y-84487470D01*
X95618571Y-84495735D01*
X95594773Y-84501696D01*
X95570504Y-84505296D01*
X95546000Y-84506500D01*
X94446000Y-84506500D01*
X94421496Y-84505296D01*
X94397227Y-84501696D01*
X94373429Y-84495735D01*
X94350329Y-84487470D01*
X94328151Y-84476980D01*
X94307107Y-84464367D01*
X94287402Y-84449753D01*
X94269223Y-84433277D01*
X94252747Y-84415098D01*
X94238133Y-84395393D01*
X94225520Y-84374349D01*
X94215030Y-84352171D01*
X94206765Y-84329071D01*
X94200804Y-84305273D01*
X94197204Y-84281004D01*
X94196000Y-84256500D01*
X94196000Y-81981500D01*
X94197204Y-81956996D01*
X94200804Y-81932727D01*
X94206765Y-81908929D01*
X94215030Y-81885829D01*
X94225520Y-81863651D01*
X94238133Y-81842607D01*
X94252747Y-81822902D01*
X94269223Y-81804723D01*
X94287402Y-81788247D01*
X94307107Y-81773633D01*
X94328151Y-81761020D01*
X94350329Y-81750530D01*
X94373429Y-81742265D01*
X94397227Y-81736304D01*
X94421496Y-81732704D01*
X94446000Y-81731500D01*
X95546000Y-81731500D01*
X95570504Y-81732704D01*
G37*
G36*
X102545779Y-98713144D02*
G01*
X102568834Y-98716563D01*
X102591443Y-98722227D01*
X102613387Y-98730079D01*
X102634457Y-98740044D01*
X102654448Y-98752026D01*
X102673168Y-98765910D01*
X102690438Y-98781562D01*
X102706090Y-98798832D01*
X102719974Y-98817552D01*
X102731956Y-98837543D01*
X102741921Y-98858613D01*
X102749773Y-98880557D01*
X102755437Y-98903166D01*
X102758856Y-98926221D01*
X102760000Y-98949500D01*
X102760000Y-99424500D01*
X102758856Y-99447779D01*
X102755437Y-99470834D01*
X102749773Y-99493443D01*
X102741921Y-99515387D01*
X102731956Y-99536457D01*
X102719974Y-99556448D01*
X102706090Y-99575168D01*
X102690438Y-99592438D01*
X102673168Y-99608090D01*
X102654448Y-99621974D01*
X102634457Y-99633956D01*
X102613387Y-99643921D01*
X102591443Y-99651773D01*
X102568834Y-99657437D01*
X102545779Y-99660856D01*
X102522500Y-99662000D01*
X101947500Y-99662000D01*
X101924221Y-99660856D01*
X101901166Y-99657437D01*
X101878557Y-99651773D01*
X101856613Y-99643921D01*
X101835543Y-99633956D01*
X101815552Y-99621974D01*
X101796832Y-99608090D01*
X101779562Y-99592438D01*
X101763910Y-99575168D01*
X101750026Y-99556448D01*
X101738044Y-99536457D01*
X101728079Y-99515387D01*
X101720227Y-99493443D01*
X101714563Y-99470834D01*
X101711144Y-99447779D01*
X101710000Y-99424500D01*
X101710000Y-98949500D01*
X101711144Y-98926221D01*
X101714563Y-98903166D01*
X101720227Y-98880557D01*
X101728079Y-98858613D01*
X101738044Y-98837543D01*
X101750026Y-98817552D01*
X101763910Y-98798832D01*
X101779562Y-98781562D01*
X101796832Y-98765910D01*
X101815552Y-98752026D01*
X101835543Y-98740044D01*
X101856613Y-98730079D01*
X101878557Y-98722227D01*
X101901166Y-98716563D01*
X101924221Y-98713144D01*
X101947500Y-98712000D01*
X102522500Y-98712000D01*
X102545779Y-98713144D01*
G37*
G36*
X100795779Y-98713144D02*
G01*
X100818834Y-98716563D01*
X100841443Y-98722227D01*
X100863387Y-98730079D01*
X100884457Y-98740044D01*
X100904448Y-98752026D01*
X100923168Y-98765910D01*
X100940438Y-98781562D01*
X100956090Y-98798832D01*
X100969974Y-98817552D01*
X100981956Y-98837543D01*
X100991921Y-98858613D01*
X100999773Y-98880557D01*
X101005437Y-98903166D01*
X101008856Y-98926221D01*
X101010000Y-98949500D01*
X101010000Y-99424500D01*
X101008856Y-99447779D01*
X101005437Y-99470834D01*
X100999773Y-99493443D01*
X100991921Y-99515387D01*
X100981956Y-99536457D01*
X100969974Y-99556448D01*
X100956090Y-99575168D01*
X100940438Y-99592438D01*
X100923168Y-99608090D01*
X100904448Y-99621974D01*
X100884457Y-99633956D01*
X100863387Y-99643921D01*
X100841443Y-99651773D01*
X100818834Y-99657437D01*
X100795779Y-99660856D01*
X100772500Y-99662000D01*
X100197500Y-99662000D01*
X100174221Y-99660856D01*
X100151166Y-99657437D01*
X100128557Y-99651773D01*
X100106613Y-99643921D01*
X100085543Y-99633956D01*
X100065552Y-99621974D01*
X100046832Y-99608090D01*
X100029562Y-99592438D01*
X100013910Y-99575168D01*
X100000026Y-99556448D01*
X99988044Y-99536457D01*
X99978079Y-99515387D01*
X99970227Y-99493443D01*
X99964563Y-99470834D01*
X99961144Y-99447779D01*
X99960000Y-99424500D01*
X99960000Y-98949500D01*
X99961144Y-98926221D01*
X99964563Y-98903166D01*
X99970227Y-98880557D01*
X99978079Y-98858613D01*
X99988044Y-98837543D01*
X100000026Y-98817552D01*
X100013910Y-98798832D01*
X100029562Y-98781562D01*
X100046832Y-98765910D01*
X100065552Y-98752026D01*
X100085543Y-98740044D01*
X100106613Y-98730079D01*
X100128557Y-98722227D01*
X100151166Y-98716563D01*
X100174221Y-98713144D01*
X100197500Y-98712000D01*
X100772500Y-98712000D01*
X100795779Y-98713144D01*
G37*
G36*
X102263779Y-91220144D02*
G01*
X102286834Y-91223563D01*
X102309443Y-91229227D01*
X102331387Y-91237079D01*
X102352457Y-91247044D01*
X102372448Y-91259026D01*
X102391168Y-91272910D01*
X102408438Y-91288562D01*
X102424090Y-91305832D01*
X102437974Y-91324552D01*
X102449956Y-91344543D01*
X102459921Y-91365613D01*
X102467773Y-91387557D01*
X102473437Y-91410166D01*
X102476856Y-91433221D01*
X102478000Y-91456500D01*
X102478000Y-91931500D01*
X102476856Y-91954779D01*
X102473437Y-91977834D01*
X102467773Y-92000443D01*
X102459921Y-92022387D01*
X102449956Y-92043457D01*
X102437974Y-92063448D01*
X102424090Y-92082168D01*
X102408438Y-92099438D01*
X102391168Y-92115090D01*
X102372448Y-92128974D01*
X102352457Y-92140956D01*
X102331387Y-92150921D01*
X102309443Y-92158773D01*
X102286834Y-92164437D01*
X102263779Y-92167856D01*
X102240500Y-92169000D01*
X101665500Y-92169000D01*
X101642221Y-92167856D01*
X101619166Y-92164437D01*
X101596557Y-92158773D01*
X101574613Y-92150921D01*
X101553543Y-92140956D01*
X101533552Y-92128974D01*
X101514832Y-92115090D01*
X101497562Y-92099438D01*
X101481910Y-92082168D01*
X101468026Y-92063448D01*
X101456044Y-92043457D01*
X101446079Y-92022387D01*
X101438227Y-92000443D01*
X101432563Y-91977834D01*
X101429144Y-91954779D01*
X101428000Y-91931500D01*
X101428000Y-91456500D01*
X101429144Y-91433221D01*
X101432563Y-91410166D01*
X101438227Y-91387557D01*
X101446079Y-91365613D01*
X101456044Y-91344543D01*
X101468026Y-91324552D01*
X101481910Y-91305832D01*
X101497562Y-91288562D01*
X101514832Y-91272910D01*
X101533552Y-91259026D01*
X101553543Y-91247044D01*
X101574613Y-91237079D01*
X101596557Y-91229227D01*
X101619166Y-91223563D01*
X101642221Y-91220144D01*
X101665500Y-91219000D01*
X102240500Y-91219000D01*
X102263779Y-91220144D01*
G37*
G36*
X100513779Y-91220144D02*
G01*
X100536834Y-91223563D01*
X100559443Y-91229227D01*
X100581387Y-91237079D01*
X100602457Y-91247044D01*
X100622448Y-91259026D01*
X100641168Y-91272910D01*
X100658438Y-91288562D01*
X100674090Y-91305832D01*
X100687974Y-91324552D01*
X100699956Y-91344543D01*
X100709921Y-91365613D01*
X100717773Y-91387557D01*
X100723437Y-91410166D01*
X100726856Y-91433221D01*
X100728000Y-91456500D01*
X100728000Y-91931500D01*
X100726856Y-91954779D01*
X100723437Y-91977834D01*
X100717773Y-92000443D01*
X100709921Y-92022387D01*
X100699956Y-92043457D01*
X100687974Y-92063448D01*
X100674090Y-92082168D01*
X100658438Y-92099438D01*
X100641168Y-92115090D01*
X100622448Y-92128974D01*
X100602457Y-92140956D01*
X100581387Y-92150921D01*
X100559443Y-92158773D01*
X100536834Y-92164437D01*
X100513779Y-92167856D01*
X100490500Y-92169000D01*
X99915500Y-92169000D01*
X99892221Y-92167856D01*
X99869166Y-92164437D01*
X99846557Y-92158773D01*
X99824613Y-92150921D01*
X99803543Y-92140956D01*
X99783552Y-92128974D01*
X99764832Y-92115090D01*
X99747562Y-92099438D01*
X99731910Y-92082168D01*
X99718026Y-92063448D01*
X99706044Y-92043457D01*
X99696079Y-92022387D01*
X99688227Y-92000443D01*
X99682563Y-91977834D01*
X99679144Y-91954779D01*
X99678000Y-91931500D01*
X99678000Y-91456500D01*
X99679144Y-91433221D01*
X99682563Y-91410166D01*
X99688227Y-91387557D01*
X99696079Y-91365613D01*
X99706044Y-91344543D01*
X99718026Y-91324552D01*
X99731910Y-91305832D01*
X99747562Y-91288562D01*
X99764832Y-91272910D01*
X99783552Y-91259026D01*
X99803543Y-91247044D01*
X99824613Y-91237079D01*
X99846557Y-91229227D01*
X99869166Y-91223563D01*
X99892221Y-91220144D01*
X99915500Y-91219000D01*
X100490500Y-91219000D01*
X100513779Y-91220144D01*
G37*
G36*
X108083779Y-95968144D02*
G01*
X108106834Y-95971563D01*
X108129443Y-95977227D01*
X108151387Y-95985079D01*
X108172457Y-95995044D01*
X108192448Y-96007026D01*
X108211168Y-96020910D01*
X108228438Y-96036562D01*
X108244090Y-96053832D01*
X108257974Y-96072552D01*
X108269956Y-96092543D01*
X108279921Y-96113613D01*
X108287773Y-96135557D01*
X108293437Y-96158166D01*
X108296856Y-96181221D01*
X108298000Y-96204500D01*
X108298000Y-96779500D01*
X108296856Y-96802779D01*
X108293437Y-96825834D01*
X108287773Y-96848443D01*
X108279921Y-96870387D01*
X108269956Y-96891457D01*
X108257974Y-96911448D01*
X108244090Y-96930168D01*
X108228438Y-96947438D01*
X108211168Y-96963090D01*
X108192448Y-96976974D01*
X108172457Y-96988956D01*
X108151387Y-96998921D01*
X108129443Y-97006773D01*
X108106834Y-97012437D01*
X108083779Y-97015856D01*
X108060500Y-97017000D01*
X107585500Y-97017000D01*
X107562221Y-97015856D01*
X107539166Y-97012437D01*
X107516557Y-97006773D01*
X107494613Y-96998921D01*
X107473543Y-96988956D01*
X107453552Y-96976974D01*
X107434832Y-96963090D01*
X107417562Y-96947438D01*
X107401910Y-96930168D01*
X107388026Y-96911448D01*
X107376044Y-96891457D01*
X107366079Y-96870387D01*
X107358227Y-96848443D01*
X107352563Y-96825834D01*
X107349144Y-96802779D01*
X107348000Y-96779500D01*
X107348000Y-96204500D01*
X107349144Y-96181221D01*
X107352563Y-96158166D01*
X107358227Y-96135557D01*
X107366079Y-96113613D01*
X107376044Y-96092543D01*
X107388026Y-96072552D01*
X107401910Y-96053832D01*
X107417562Y-96036562D01*
X107434832Y-96020910D01*
X107453552Y-96007026D01*
X107473543Y-95995044D01*
X107494613Y-95985079D01*
X107516557Y-95977227D01*
X107539166Y-95971563D01*
X107562221Y-95968144D01*
X107585500Y-95967000D01*
X108060500Y-95967000D01*
X108083779Y-95968144D01*
G37*
G36*
X108083779Y-94218144D02*
G01*
X108106834Y-94221563D01*
X108129443Y-94227227D01*
X108151387Y-94235079D01*
X108172457Y-94245044D01*
X108192448Y-94257026D01*
X108211168Y-94270910D01*
X108228438Y-94286562D01*
X108244090Y-94303832D01*
X108257974Y-94322552D01*
X108269956Y-94342543D01*
X108279921Y-94363613D01*
X108287773Y-94385557D01*
X108293437Y-94408166D01*
X108296856Y-94431221D01*
X108298000Y-94454500D01*
X108298000Y-95029500D01*
X108296856Y-95052779D01*
X108293437Y-95075834D01*
X108287773Y-95098443D01*
X108279921Y-95120387D01*
X108269956Y-95141457D01*
X108257974Y-95161448D01*
X108244090Y-95180168D01*
X108228438Y-95197438D01*
X108211168Y-95213090D01*
X108192448Y-95226974D01*
X108172457Y-95238956D01*
X108151387Y-95248921D01*
X108129443Y-95256773D01*
X108106834Y-95262437D01*
X108083779Y-95265856D01*
X108060500Y-95267000D01*
X107585500Y-95267000D01*
X107562221Y-95265856D01*
X107539166Y-95262437D01*
X107516557Y-95256773D01*
X107494613Y-95248921D01*
X107473543Y-95238956D01*
X107453552Y-95226974D01*
X107434832Y-95213090D01*
X107417562Y-95197438D01*
X107401910Y-95180168D01*
X107388026Y-95161448D01*
X107376044Y-95141457D01*
X107366079Y-95120387D01*
X107358227Y-95098443D01*
X107352563Y-95075834D01*
X107349144Y-95052779D01*
X107348000Y-95029500D01*
X107348000Y-94454500D01*
X107349144Y-94431221D01*
X107352563Y-94408166D01*
X107358227Y-94385557D01*
X107366079Y-94363613D01*
X107376044Y-94342543D01*
X107388026Y-94322552D01*
X107401910Y-94303832D01*
X107417562Y-94286562D01*
X107434832Y-94270910D01*
X107453552Y-94257026D01*
X107473543Y-94245044D01*
X107494613Y-94235079D01*
X107516557Y-94227227D01*
X107539166Y-94221563D01*
X107562221Y-94218144D01*
X107585500Y-94217000D01*
X108060500Y-94217000D01*
X108083779Y-94218144D01*
G37*
G36*
X103819544Y-95650108D02*
G01*
X103841871Y-95653419D01*
X103863765Y-95658904D01*
X103885017Y-95666508D01*
X103905421Y-95676158D01*
X103924781Y-95687762D01*
X103942910Y-95701208D01*
X103959635Y-95716365D01*
X103974792Y-95733090D01*
X103988238Y-95751219D01*
X103999842Y-95770579D01*
X104009492Y-95790983D01*
X104017096Y-95812235D01*
X104022581Y-95834129D01*
X104025892Y-95856456D01*
X104027000Y-95879000D01*
X104027000Y-96629000D01*
X104025892Y-96651544D01*
X104022581Y-96673871D01*
X104017096Y-96695765D01*
X104009492Y-96717017D01*
X103999842Y-96737421D01*
X103988238Y-96756781D01*
X103974792Y-96774910D01*
X103959635Y-96791635D01*
X103942910Y-96806792D01*
X103924781Y-96820238D01*
X103905421Y-96831842D01*
X103885017Y-96841492D01*
X103863765Y-96849096D01*
X103841871Y-96854581D01*
X103819544Y-96857892D01*
X103797000Y-96859000D01*
X103337000Y-96859000D01*
X103314456Y-96857892D01*
X103292129Y-96854581D01*
X103270235Y-96849096D01*
X103248983Y-96841492D01*
X103228579Y-96831842D01*
X103209219Y-96820238D01*
X103191090Y-96806792D01*
X103174365Y-96791635D01*
X103159208Y-96774910D01*
X103145762Y-96756781D01*
X103134158Y-96737421D01*
X103124508Y-96717017D01*
X103116904Y-96695765D01*
X103111419Y-96673871D01*
X103108108Y-96651544D01*
X103107000Y-96629000D01*
X103107000Y-95879000D01*
X103108108Y-95856456D01*
X103111419Y-95834129D01*
X103116904Y-95812235D01*
X103124508Y-95790983D01*
X103134158Y-95770579D01*
X103145762Y-95751219D01*
X103159208Y-95733090D01*
X103174365Y-95716365D01*
X103191090Y-95701208D01*
X103209219Y-95687762D01*
X103228579Y-95676158D01*
X103248983Y-95666508D01*
X103270235Y-95658904D01*
X103292129Y-95653419D01*
X103314456Y-95650108D01*
X103337000Y-95649000D01*
X103797000Y-95649000D01*
X103819544Y-95650108D01*
G37*
G36*
X103819544Y-94150108D02*
G01*
X103841871Y-94153419D01*
X103863765Y-94158904D01*
X103885017Y-94166508D01*
X103905421Y-94176158D01*
X103924781Y-94187762D01*
X103942910Y-94201208D01*
X103959635Y-94216365D01*
X103974792Y-94233090D01*
X103988238Y-94251219D01*
X103999842Y-94270579D01*
X104009492Y-94290983D01*
X104017096Y-94312235D01*
X104022581Y-94334129D01*
X104025892Y-94356456D01*
X104027000Y-94379000D01*
X104027000Y-95129000D01*
X104025892Y-95151544D01*
X104022581Y-95173871D01*
X104017096Y-95195765D01*
X104009492Y-95217017D01*
X103999842Y-95237421D01*
X103988238Y-95256781D01*
X103974792Y-95274910D01*
X103959635Y-95291635D01*
X103942910Y-95306792D01*
X103924781Y-95320238D01*
X103905421Y-95331842D01*
X103885017Y-95341492D01*
X103863765Y-95349096D01*
X103841871Y-95354581D01*
X103819544Y-95357892D01*
X103797000Y-95359000D01*
X103337000Y-95359000D01*
X103314456Y-95357892D01*
X103292129Y-95354581D01*
X103270235Y-95349096D01*
X103248983Y-95341492D01*
X103228579Y-95331842D01*
X103209219Y-95320238D01*
X103191090Y-95306792D01*
X103174365Y-95291635D01*
X103159208Y-95274910D01*
X103145762Y-95256781D01*
X103134158Y-95237421D01*
X103124508Y-95217017D01*
X103116904Y-95195765D01*
X103111419Y-95173871D01*
X103108108Y-95151544D01*
X103107000Y-95129000D01*
X103107000Y-94379000D01*
X103108108Y-94356456D01*
X103111419Y-94334129D01*
X103116904Y-94312235D01*
X103124508Y-94290983D01*
X103134158Y-94270579D01*
X103145762Y-94251219D01*
X103159208Y-94233090D01*
X103174365Y-94216365D01*
X103191090Y-94201208D01*
X103209219Y-94187762D01*
X103228579Y-94176158D01*
X103248983Y-94166508D01*
X103270235Y-94158904D01*
X103292129Y-94153419D01*
X103314456Y-94150108D01*
X103337000Y-94149000D01*
X103797000Y-94149000D01*
X103819544Y-94150108D01*
G37*
G36*
X102679544Y-95650108D02*
G01*
X102701871Y-95653419D01*
X102723765Y-95658904D01*
X102745017Y-95666508D01*
X102765421Y-95676158D01*
X102784781Y-95687762D01*
X102802910Y-95701208D01*
X102819635Y-95716365D01*
X102834792Y-95733090D01*
X102848238Y-95751219D01*
X102859842Y-95770579D01*
X102869492Y-95790983D01*
X102877096Y-95812235D01*
X102882581Y-95834129D01*
X102885892Y-95856456D01*
X102887000Y-95879000D01*
X102887000Y-96629000D01*
X102885892Y-96651544D01*
X102882581Y-96673871D01*
X102877096Y-96695765D01*
X102869492Y-96717017D01*
X102859842Y-96737421D01*
X102848238Y-96756781D01*
X102834792Y-96774910D01*
X102819635Y-96791635D01*
X102802910Y-96806792D01*
X102784781Y-96820238D01*
X102765421Y-96831842D01*
X102745017Y-96841492D01*
X102723765Y-96849096D01*
X102701871Y-96854581D01*
X102679544Y-96857892D01*
X102657000Y-96859000D01*
X102197000Y-96859000D01*
X102174456Y-96857892D01*
X102152129Y-96854581D01*
X102130235Y-96849096D01*
X102108983Y-96841492D01*
X102088579Y-96831842D01*
X102069219Y-96820238D01*
X102051090Y-96806792D01*
X102034365Y-96791635D01*
X102019208Y-96774910D01*
X102005762Y-96756781D01*
X101994158Y-96737421D01*
X101984508Y-96717017D01*
X101976904Y-96695765D01*
X101971419Y-96673871D01*
X101968108Y-96651544D01*
X101967000Y-96629000D01*
X101967000Y-95879000D01*
X101968108Y-95856456D01*
X101971419Y-95834129D01*
X101976904Y-95812235D01*
X101984508Y-95790983D01*
X101994158Y-95770579D01*
X102005762Y-95751219D01*
X102019208Y-95733090D01*
X102034365Y-95716365D01*
X102051090Y-95701208D01*
X102069219Y-95687762D01*
X102088579Y-95676158D01*
X102108983Y-95666508D01*
X102130235Y-95658904D01*
X102152129Y-95653419D01*
X102174456Y-95650108D01*
X102197000Y-95649000D01*
X102657000Y-95649000D01*
X102679544Y-95650108D01*
G37*
G36*
X102679544Y-94150108D02*
G01*
X102701871Y-94153419D01*
X102723765Y-94158904D01*
X102745017Y-94166508D01*
X102765421Y-94176158D01*
X102784781Y-94187762D01*
X102802910Y-94201208D01*
X102819635Y-94216365D01*
X102834792Y-94233090D01*
X102848238Y-94251219D01*
X102859842Y-94270579D01*
X102869492Y-94290983D01*
X102877096Y-94312235D01*
X102882581Y-94334129D01*
X102885892Y-94356456D01*
X102887000Y-94379000D01*
X102887000Y-95129000D01*
X102885892Y-95151544D01*
X102882581Y-95173871D01*
X102877096Y-95195765D01*
X102869492Y-95217017D01*
X102859842Y-95237421D01*
X102848238Y-95256781D01*
X102834792Y-95274910D01*
X102819635Y-95291635D01*
X102802910Y-95306792D01*
X102784781Y-95320238D01*
X102765421Y-95331842D01*
X102745017Y-95341492D01*
X102723765Y-95349096D01*
X102701871Y-95354581D01*
X102679544Y-95357892D01*
X102657000Y-95359000D01*
X102197000Y-95359000D01*
X102174456Y-95357892D01*
X102152129Y-95354581D01*
X102130235Y-95349096D01*
X102108983Y-95341492D01*
X102088579Y-95331842D01*
X102069219Y-95320238D01*
X102051090Y-95306792D01*
X102034365Y-95291635D01*
X102019208Y-95274910D01*
X102005762Y-95256781D01*
X101994158Y-95237421D01*
X101984508Y-95217017D01*
X101976904Y-95195765D01*
X101971419Y-95173871D01*
X101968108Y-95151544D01*
X101967000Y-95129000D01*
X101967000Y-94379000D01*
X101968108Y-94356456D01*
X101971419Y-94334129D01*
X101976904Y-94312235D01*
X101984508Y-94290983D01*
X101994158Y-94270579D01*
X102005762Y-94251219D01*
X102019208Y-94233090D01*
X102034365Y-94216365D01*
X102051090Y-94201208D01*
X102069219Y-94187762D01*
X102088579Y-94176158D01*
X102108983Y-94166508D01*
X102130235Y-94158904D01*
X102152129Y-94153419D01*
X102174456Y-94150108D01*
X102197000Y-94149000D01*
X102657000Y-94149000D01*
X102679544Y-94150108D01*
G37*
G36*
X106311703Y-97109722D02*
G01*
X106326264Y-97111882D01*
X106340543Y-97115459D01*
X106354403Y-97120418D01*
X106367710Y-97126712D01*
X106380336Y-97134280D01*
X106392159Y-97143048D01*
X106403066Y-97152934D01*
X106412952Y-97163841D01*
X106421720Y-97175664D01*
X106429288Y-97188290D01*
X106435582Y-97201597D01*
X106440541Y-97215457D01*
X106444118Y-97229736D01*
X106446278Y-97244297D01*
X106447000Y-97259000D01*
X106447000Y-97559000D01*
X106446278Y-97573703D01*
X106444118Y-97588264D01*
X106440541Y-97602543D01*
X106435582Y-97616403D01*
X106429288Y-97629710D01*
X106421720Y-97642336D01*
X106412952Y-97654159D01*
X106403066Y-97665066D01*
X106392159Y-97674952D01*
X106380336Y-97683720D01*
X106367710Y-97691288D01*
X106354403Y-97697582D01*
X106340543Y-97702541D01*
X106326264Y-97706118D01*
X106311703Y-97708278D01*
X106297000Y-97709000D01*
X104647000Y-97709000D01*
X104632297Y-97708278D01*
X104617736Y-97706118D01*
X104603457Y-97702541D01*
X104589597Y-97697582D01*
X104576290Y-97691288D01*
X104563664Y-97683720D01*
X104551841Y-97674952D01*
X104540934Y-97665066D01*
X104531048Y-97654159D01*
X104522280Y-97642336D01*
X104514712Y-97629710D01*
X104508418Y-97616403D01*
X104503459Y-97602543D01*
X104499882Y-97588264D01*
X104497722Y-97573703D01*
X104497000Y-97559000D01*
X104497000Y-97259000D01*
X104497722Y-97244297D01*
X104499882Y-97229736D01*
X104503459Y-97215457D01*
X104508418Y-97201597D01*
X104514712Y-97188290D01*
X104522280Y-97175664D01*
X104531048Y-97163841D01*
X104540934Y-97152934D01*
X104551841Y-97143048D01*
X104563664Y-97134280D01*
X104576290Y-97126712D01*
X104589597Y-97120418D01*
X104603457Y-97115459D01*
X104617736Y-97111882D01*
X104632297Y-97109722D01*
X104647000Y-97109000D01*
X106297000Y-97109000D01*
X106311703Y-97109722D01*
G37*
G36*
X106311703Y-95839722D02*
G01*
X106326264Y-95841882D01*
X106340543Y-95845459D01*
X106354403Y-95850418D01*
X106367710Y-95856712D01*
X106380336Y-95864280D01*
X106392159Y-95873048D01*
X106403066Y-95882934D01*
X106412952Y-95893841D01*
X106421720Y-95905664D01*
X106429288Y-95918290D01*
X106435582Y-95931597D01*
X106440541Y-95945457D01*
X106444118Y-95959736D01*
X106446278Y-95974297D01*
X106447000Y-95989000D01*
X106447000Y-96289000D01*
X106446278Y-96303703D01*
X106444118Y-96318264D01*
X106440541Y-96332543D01*
X106435582Y-96346403D01*
X106429288Y-96359710D01*
X106421720Y-96372336D01*
X106412952Y-96384159D01*
X106403066Y-96395066D01*
X106392159Y-96404952D01*
X106380336Y-96413720D01*
X106367710Y-96421288D01*
X106354403Y-96427582D01*
X106340543Y-96432541D01*
X106326264Y-96436118D01*
X106311703Y-96438278D01*
X106297000Y-96439000D01*
X104647000Y-96439000D01*
X104632297Y-96438278D01*
X104617736Y-96436118D01*
X104603457Y-96432541D01*
X104589597Y-96427582D01*
X104576290Y-96421288D01*
X104563664Y-96413720D01*
X104551841Y-96404952D01*
X104540934Y-96395066D01*
X104531048Y-96384159D01*
X104522280Y-96372336D01*
X104514712Y-96359710D01*
X104508418Y-96346403D01*
X104503459Y-96332543D01*
X104499882Y-96318264D01*
X104497722Y-96303703D01*
X104497000Y-96289000D01*
X104497000Y-95989000D01*
X104497722Y-95974297D01*
X104499882Y-95959736D01*
X104503459Y-95945457D01*
X104508418Y-95931597D01*
X104514712Y-95918290D01*
X104522280Y-95905664D01*
X104531048Y-95893841D01*
X104540934Y-95882934D01*
X104551841Y-95873048D01*
X104563664Y-95864280D01*
X104576290Y-95856712D01*
X104589597Y-95850418D01*
X104603457Y-95845459D01*
X104617736Y-95841882D01*
X104632297Y-95839722D01*
X104647000Y-95839000D01*
X106297000Y-95839000D01*
X106311703Y-95839722D01*
G37*
G36*
X106311703Y-94569722D02*
G01*
X106326264Y-94571882D01*
X106340543Y-94575459D01*
X106354403Y-94580418D01*
X106367710Y-94586712D01*
X106380336Y-94594280D01*
X106392159Y-94603048D01*
X106403066Y-94612934D01*
X106412952Y-94623841D01*
X106421720Y-94635664D01*
X106429288Y-94648290D01*
X106435582Y-94661597D01*
X106440541Y-94675457D01*
X106444118Y-94689736D01*
X106446278Y-94704297D01*
X106447000Y-94719000D01*
X106447000Y-95019000D01*
X106446278Y-95033703D01*
X106444118Y-95048264D01*
X106440541Y-95062543D01*
X106435582Y-95076403D01*
X106429288Y-95089710D01*
X106421720Y-95102336D01*
X106412952Y-95114159D01*
X106403066Y-95125066D01*
X106392159Y-95134952D01*
X106380336Y-95143720D01*
X106367710Y-95151288D01*
X106354403Y-95157582D01*
X106340543Y-95162541D01*
X106326264Y-95166118D01*
X106311703Y-95168278D01*
X106297000Y-95169000D01*
X104647000Y-95169000D01*
X104632297Y-95168278D01*
X104617736Y-95166118D01*
X104603457Y-95162541D01*
X104589597Y-95157582D01*
X104576290Y-95151288D01*
X104563664Y-95143720D01*
X104551841Y-95134952D01*
X104540934Y-95125066D01*
X104531048Y-95114159D01*
X104522280Y-95102336D01*
X104514712Y-95089710D01*
X104508418Y-95076403D01*
X104503459Y-95062543D01*
X104499882Y-95048264D01*
X104497722Y-95033703D01*
X104497000Y-95019000D01*
X104497000Y-94719000D01*
X104497722Y-94704297D01*
X104499882Y-94689736D01*
X104503459Y-94675457D01*
X104508418Y-94661597D01*
X104514712Y-94648290D01*
X104522280Y-94635664D01*
X104531048Y-94623841D01*
X104540934Y-94612934D01*
X104551841Y-94603048D01*
X104563664Y-94594280D01*
X104576290Y-94586712D01*
X104589597Y-94580418D01*
X104603457Y-94575459D01*
X104617736Y-94571882D01*
X104632297Y-94569722D01*
X104647000Y-94569000D01*
X106297000Y-94569000D01*
X106311703Y-94569722D01*
G37*
G36*
X106311703Y-93299722D02*
G01*
X106326264Y-93301882D01*
X106340543Y-93305459D01*
X106354403Y-93310418D01*
X106367710Y-93316712D01*
X106380336Y-93324280D01*
X106392159Y-93333048D01*
X106403066Y-93342934D01*
X106412952Y-93353841D01*
X106421720Y-93365664D01*
X106429288Y-93378290D01*
X106435582Y-93391597D01*
X106440541Y-93405457D01*
X106444118Y-93419736D01*
X106446278Y-93434297D01*
X106447000Y-93449000D01*
X106447000Y-93749000D01*
X106446278Y-93763703D01*
X106444118Y-93778264D01*
X106440541Y-93792543D01*
X106435582Y-93806403D01*
X106429288Y-93819710D01*
X106421720Y-93832336D01*
X106412952Y-93844159D01*
X106403066Y-93855066D01*
X106392159Y-93864952D01*
X106380336Y-93873720D01*
X106367710Y-93881288D01*
X106354403Y-93887582D01*
X106340543Y-93892541D01*
X106326264Y-93896118D01*
X106311703Y-93898278D01*
X106297000Y-93899000D01*
X104647000Y-93899000D01*
X104632297Y-93898278D01*
X104617736Y-93896118D01*
X104603457Y-93892541D01*
X104589597Y-93887582D01*
X104576290Y-93881288D01*
X104563664Y-93873720D01*
X104551841Y-93864952D01*
X104540934Y-93855066D01*
X104531048Y-93844159D01*
X104522280Y-93832336D01*
X104514712Y-93819710D01*
X104508418Y-93806403D01*
X104503459Y-93792543D01*
X104499882Y-93778264D01*
X104497722Y-93763703D01*
X104497000Y-93749000D01*
X104497000Y-93449000D01*
X104497722Y-93434297D01*
X104499882Y-93419736D01*
X104503459Y-93405457D01*
X104508418Y-93391597D01*
X104514712Y-93378290D01*
X104522280Y-93365664D01*
X104531048Y-93353841D01*
X104540934Y-93342934D01*
X104551841Y-93333048D01*
X104563664Y-93324280D01*
X104576290Y-93316712D01*
X104589597Y-93310418D01*
X104603457Y-93305459D01*
X104617736Y-93301882D01*
X104632297Y-93299722D01*
X104647000Y-93299000D01*
X106297000Y-93299000D01*
X106311703Y-93299722D01*
G37*
G36*
X101361703Y-93299722D02*
G01*
X101376264Y-93301882D01*
X101390543Y-93305459D01*
X101404403Y-93310418D01*
X101417710Y-93316712D01*
X101430336Y-93324280D01*
X101442159Y-93333048D01*
X101453066Y-93342934D01*
X101462952Y-93353841D01*
X101471720Y-93365664D01*
X101479288Y-93378290D01*
X101485582Y-93391597D01*
X101490541Y-93405457D01*
X101494118Y-93419736D01*
X101496278Y-93434297D01*
X101497000Y-93449000D01*
X101497000Y-93749000D01*
X101496278Y-93763703D01*
X101494118Y-93778264D01*
X101490541Y-93792543D01*
X101485582Y-93806403D01*
X101479288Y-93819710D01*
X101471720Y-93832336D01*
X101462952Y-93844159D01*
X101453066Y-93855066D01*
X101442159Y-93864952D01*
X101430336Y-93873720D01*
X101417710Y-93881288D01*
X101404403Y-93887582D01*
X101390543Y-93892541D01*
X101376264Y-93896118D01*
X101361703Y-93898278D01*
X101347000Y-93899000D01*
X99697000Y-93899000D01*
X99682297Y-93898278D01*
X99667736Y-93896118D01*
X99653457Y-93892541D01*
X99639597Y-93887582D01*
X99626290Y-93881288D01*
X99613664Y-93873720D01*
X99601841Y-93864952D01*
X99590934Y-93855066D01*
X99581048Y-93844159D01*
X99572280Y-93832336D01*
X99564712Y-93819710D01*
X99558418Y-93806403D01*
X99553459Y-93792543D01*
X99549882Y-93778264D01*
X99547722Y-93763703D01*
X99547000Y-93749000D01*
X99547000Y-93449000D01*
X99547722Y-93434297D01*
X99549882Y-93419736D01*
X99553459Y-93405457D01*
X99558418Y-93391597D01*
X99564712Y-93378290D01*
X99572280Y-93365664D01*
X99581048Y-93353841D01*
X99590934Y-93342934D01*
X99601841Y-93333048D01*
X99613664Y-93324280D01*
X99626290Y-93316712D01*
X99639597Y-93310418D01*
X99653457Y-93305459D01*
X99667736Y-93301882D01*
X99682297Y-93299722D01*
X99697000Y-93299000D01*
X101347000Y-93299000D01*
X101361703Y-93299722D01*
G37*
G36*
X101361703Y-94569722D02*
G01*
X101376264Y-94571882D01*
X101390543Y-94575459D01*
X101404403Y-94580418D01*
X101417710Y-94586712D01*
X101430336Y-94594280D01*
X101442159Y-94603048D01*
X101453066Y-94612934D01*
X101462952Y-94623841D01*
X101471720Y-94635664D01*
X101479288Y-94648290D01*
X101485582Y-94661597D01*
X101490541Y-94675457D01*
X101494118Y-94689736D01*
X101496278Y-94704297D01*
X101497000Y-94719000D01*
X101497000Y-95019000D01*
X101496278Y-95033703D01*
X101494118Y-95048264D01*
X101490541Y-95062543D01*
X101485582Y-95076403D01*
X101479288Y-95089710D01*
X101471720Y-95102336D01*
X101462952Y-95114159D01*
X101453066Y-95125066D01*
X101442159Y-95134952D01*
X101430336Y-95143720D01*
X101417710Y-95151288D01*
X101404403Y-95157582D01*
X101390543Y-95162541D01*
X101376264Y-95166118D01*
X101361703Y-95168278D01*
X101347000Y-95169000D01*
X99697000Y-95169000D01*
X99682297Y-95168278D01*
X99667736Y-95166118D01*
X99653457Y-95162541D01*
X99639597Y-95157582D01*
X99626290Y-95151288D01*
X99613664Y-95143720D01*
X99601841Y-95134952D01*
X99590934Y-95125066D01*
X99581048Y-95114159D01*
X99572280Y-95102336D01*
X99564712Y-95089710D01*
X99558418Y-95076403D01*
X99553459Y-95062543D01*
X99549882Y-95048264D01*
X99547722Y-95033703D01*
X99547000Y-95019000D01*
X99547000Y-94719000D01*
X99547722Y-94704297D01*
X99549882Y-94689736D01*
X99553459Y-94675457D01*
X99558418Y-94661597D01*
X99564712Y-94648290D01*
X99572280Y-94635664D01*
X99581048Y-94623841D01*
X99590934Y-94612934D01*
X99601841Y-94603048D01*
X99613664Y-94594280D01*
X99626290Y-94586712D01*
X99639597Y-94580418D01*
X99653457Y-94575459D01*
X99667736Y-94571882D01*
X99682297Y-94569722D01*
X99697000Y-94569000D01*
X101347000Y-94569000D01*
X101361703Y-94569722D01*
G37*
G36*
X101361703Y-95839722D02*
G01*
X101376264Y-95841882D01*
X101390543Y-95845459D01*
X101404403Y-95850418D01*
X101417710Y-95856712D01*
X101430336Y-95864280D01*
X101442159Y-95873048D01*
X101453066Y-95882934D01*
X101462952Y-95893841D01*
X101471720Y-95905664D01*
X101479288Y-95918290D01*
X101485582Y-95931597D01*
X101490541Y-95945457D01*
X101494118Y-95959736D01*
X101496278Y-95974297D01*
X101497000Y-95989000D01*
X101497000Y-96289000D01*
X101496278Y-96303703D01*
X101494118Y-96318264D01*
X101490541Y-96332543D01*
X101485582Y-96346403D01*
X101479288Y-96359710D01*
X101471720Y-96372336D01*
X101462952Y-96384159D01*
X101453066Y-96395066D01*
X101442159Y-96404952D01*
X101430336Y-96413720D01*
X101417710Y-96421288D01*
X101404403Y-96427582D01*
X101390543Y-96432541D01*
X101376264Y-96436118D01*
X101361703Y-96438278D01*
X101347000Y-96439000D01*
X99697000Y-96439000D01*
X99682297Y-96438278D01*
X99667736Y-96436118D01*
X99653457Y-96432541D01*
X99639597Y-96427582D01*
X99626290Y-96421288D01*
X99613664Y-96413720D01*
X99601841Y-96404952D01*
X99590934Y-96395066D01*
X99581048Y-96384159D01*
X99572280Y-96372336D01*
X99564712Y-96359710D01*
X99558418Y-96346403D01*
X99553459Y-96332543D01*
X99549882Y-96318264D01*
X99547722Y-96303703D01*
X99547000Y-96289000D01*
X99547000Y-95989000D01*
X99547722Y-95974297D01*
X99549882Y-95959736D01*
X99553459Y-95945457D01*
X99558418Y-95931597D01*
X99564712Y-95918290D01*
X99572280Y-95905664D01*
X99581048Y-95893841D01*
X99590934Y-95882934D01*
X99601841Y-95873048D01*
X99613664Y-95864280D01*
X99626290Y-95856712D01*
X99639597Y-95850418D01*
X99653457Y-95845459D01*
X99667736Y-95841882D01*
X99682297Y-95839722D01*
X99697000Y-95839000D01*
X101347000Y-95839000D01*
X101361703Y-95839722D01*
G37*
G36*
X101361703Y-97109722D02*
G01*
X101376264Y-97111882D01*
X101390543Y-97115459D01*
X101404403Y-97120418D01*
X101417710Y-97126712D01*
X101430336Y-97134280D01*
X101442159Y-97143048D01*
X101453066Y-97152934D01*
X101462952Y-97163841D01*
X101471720Y-97175664D01*
X101479288Y-97188290D01*
X101485582Y-97201597D01*
X101490541Y-97215457D01*
X101494118Y-97229736D01*
X101496278Y-97244297D01*
X101497000Y-97259000D01*
X101497000Y-97559000D01*
X101496278Y-97573703D01*
X101494118Y-97588264D01*
X101490541Y-97602543D01*
X101485582Y-97616403D01*
X101479288Y-97629710D01*
X101471720Y-97642336D01*
X101462952Y-97654159D01*
X101453066Y-97665066D01*
X101442159Y-97674952D01*
X101430336Y-97683720D01*
X101417710Y-97691288D01*
X101404403Y-97697582D01*
X101390543Y-97702541D01*
X101376264Y-97706118D01*
X101361703Y-97708278D01*
X101347000Y-97709000D01*
X99697000Y-97709000D01*
X99682297Y-97708278D01*
X99667736Y-97706118D01*
X99653457Y-97702541D01*
X99639597Y-97697582D01*
X99626290Y-97691288D01*
X99613664Y-97683720D01*
X99601841Y-97674952D01*
X99590934Y-97665066D01*
X99581048Y-97654159D01*
X99572280Y-97642336D01*
X99564712Y-97629710D01*
X99558418Y-97616403D01*
X99553459Y-97602543D01*
X99549882Y-97588264D01*
X99547722Y-97573703D01*
X99547000Y-97559000D01*
X99547000Y-97259000D01*
X99547722Y-97244297D01*
X99549882Y-97229736D01*
X99553459Y-97215457D01*
X99558418Y-97201597D01*
X99564712Y-97188290D01*
X99572280Y-97175664D01*
X99581048Y-97163841D01*
X99590934Y-97152934D01*
X99601841Y-97143048D01*
X99613664Y-97134280D01*
X99626290Y-97126712D01*
X99639597Y-97120418D01*
X99653457Y-97115459D01*
X99667736Y-97111882D01*
X99682297Y-97109722D01*
X99697000Y-97109000D01*
X101347000Y-97109000D01*
X101361703Y-97109722D01*
G37*
G36*
X88639279Y-98014644D02*
G01*
X88662334Y-98018063D01*
X88684943Y-98023727D01*
X88706887Y-98031579D01*
X88727957Y-98041544D01*
X88747948Y-98053526D01*
X88766668Y-98067410D01*
X88783938Y-98083062D01*
X88799590Y-98100332D01*
X88813474Y-98119052D01*
X88825456Y-98139043D01*
X88835421Y-98160113D01*
X88843273Y-98182057D01*
X88848937Y-98204666D01*
X88852356Y-98227721D01*
X88853500Y-98251000D01*
X88853500Y-98726000D01*
X88852356Y-98749279D01*
X88848937Y-98772334D01*
X88843273Y-98794943D01*
X88835421Y-98816887D01*
X88825456Y-98837957D01*
X88813474Y-98857948D01*
X88799590Y-98876668D01*
X88783938Y-98893938D01*
X88766668Y-98909590D01*
X88747948Y-98923474D01*
X88727957Y-98935456D01*
X88706887Y-98945421D01*
X88684943Y-98953273D01*
X88662334Y-98958937D01*
X88639279Y-98962356D01*
X88616000Y-98963500D01*
X88041000Y-98963500D01*
X88017721Y-98962356D01*
X87994666Y-98958937D01*
X87972057Y-98953273D01*
X87950113Y-98945421D01*
X87929043Y-98935456D01*
X87909052Y-98923474D01*
X87890332Y-98909590D01*
X87873062Y-98893938D01*
X87857410Y-98876668D01*
X87843526Y-98857948D01*
X87831544Y-98837957D01*
X87821579Y-98816887D01*
X87813727Y-98794943D01*
X87808063Y-98772334D01*
X87804644Y-98749279D01*
X87803500Y-98726000D01*
X87803500Y-98251000D01*
X87804644Y-98227721D01*
X87808063Y-98204666D01*
X87813727Y-98182057D01*
X87821579Y-98160113D01*
X87831544Y-98139043D01*
X87843526Y-98119052D01*
X87857410Y-98100332D01*
X87873062Y-98083062D01*
X87890332Y-98067410D01*
X87909052Y-98053526D01*
X87929043Y-98041544D01*
X87950113Y-98031579D01*
X87972057Y-98023727D01*
X87994666Y-98018063D01*
X88017721Y-98014644D01*
X88041000Y-98013500D01*
X88616000Y-98013500D01*
X88639279Y-98014644D01*
G37*
G36*
X90389279Y-98014644D02*
G01*
X90412334Y-98018063D01*
X90434943Y-98023727D01*
X90456887Y-98031579D01*
X90477957Y-98041544D01*
X90497948Y-98053526D01*
X90516668Y-98067410D01*
X90533938Y-98083062D01*
X90549590Y-98100332D01*
X90563474Y-98119052D01*
X90575456Y-98139043D01*
X90585421Y-98160113D01*
X90593273Y-98182057D01*
X90598937Y-98204666D01*
X90602356Y-98227721D01*
X90603500Y-98251000D01*
X90603500Y-98726000D01*
X90602356Y-98749279D01*
X90598937Y-98772334D01*
X90593273Y-98794943D01*
X90585421Y-98816887D01*
X90575456Y-98837957D01*
X90563474Y-98857948D01*
X90549590Y-98876668D01*
X90533938Y-98893938D01*
X90516668Y-98909590D01*
X90497948Y-98923474D01*
X90477957Y-98935456D01*
X90456887Y-98945421D01*
X90434943Y-98953273D01*
X90412334Y-98958937D01*
X90389279Y-98962356D01*
X90366000Y-98963500D01*
X89791000Y-98963500D01*
X89767721Y-98962356D01*
X89744666Y-98958937D01*
X89722057Y-98953273D01*
X89700113Y-98945421D01*
X89679043Y-98935456D01*
X89659052Y-98923474D01*
X89640332Y-98909590D01*
X89623062Y-98893938D01*
X89607410Y-98876668D01*
X89593526Y-98857948D01*
X89581544Y-98837957D01*
X89571579Y-98816887D01*
X89563727Y-98794943D01*
X89558063Y-98772334D01*
X89554644Y-98749279D01*
X89553500Y-98726000D01*
X89553500Y-98251000D01*
X89554644Y-98227721D01*
X89558063Y-98204666D01*
X89563727Y-98182057D01*
X89571579Y-98160113D01*
X89581544Y-98139043D01*
X89593526Y-98119052D01*
X89607410Y-98100332D01*
X89623062Y-98083062D01*
X89640332Y-98067410D01*
X89659052Y-98053526D01*
X89679043Y-98041544D01*
X89700113Y-98031579D01*
X89722057Y-98023727D01*
X89744666Y-98018063D01*
X89767721Y-98014644D01*
X89791000Y-98013500D01*
X90366000Y-98013500D01*
X90389279Y-98014644D01*
G37*
D20*
X64212000Y-45720000D03*
X70612000Y-45720000D03*
D21*
X67412000Y-45720000D03*
D20*
X64262000Y-50546000D03*
X70662000Y-50546000D03*
D21*
X67462000Y-50546000D03*
D17*
G36*
X75494779Y-89188144D02*
G01*
X75517834Y-89191563D01*
X75540443Y-89197227D01*
X75562387Y-89205079D01*
X75583457Y-89215044D01*
X75603448Y-89227026D01*
X75622168Y-89240910D01*
X75639438Y-89256562D01*
X75655090Y-89273832D01*
X75668974Y-89292552D01*
X75680956Y-89312543D01*
X75690921Y-89333613D01*
X75698773Y-89355557D01*
X75704437Y-89378166D01*
X75707856Y-89401221D01*
X75709000Y-89424500D01*
X75709000Y-89899500D01*
X75707856Y-89922779D01*
X75704437Y-89945834D01*
X75698773Y-89968443D01*
X75690921Y-89990387D01*
X75680956Y-90011457D01*
X75668974Y-90031448D01*
X75655090Y-90050168D01*
X75639438Y-90067438D01*
X75622168Y-90083090D01*
X75603448Y-90096974D01*
X75583457Y-90108956D01*
X75562387Y-90118921D01*
X75540443Y-90126773D01*
X75517834Y-90132437D01*
X75494779Y-90135856D01*
X75471500Y-90137000D01*
X74896500Y-90137000D01*
X74873221Y-90135856D01*
X74850166Y-90132437D01*
X74827557Y-90126773D01*
X74805613Y-90118921D01*
X74784543Y-90108956D01*
X74764552Y-90096974D01*
X74745832Y-90083090D01*
X74728562Y-90067438D01*
X74712910Y-90050168D01*
X74699026Y-90031448D01*
X74687044Y-90011457D01*
X74677079Y-89990387D01*
X74669227Y-89968443D01*
X74663563Y-89945834D01*
X74660144Y-89922779D01*
X74659000Y-89899500D01*
X74659000Y-89424500D01*
X74660144Y-89401221D01*
X74663563Y-89378166D01*
X74669227Y-89355557D01*
X74677079Y-89333613D01*
X74687044Y-89312543D01*
X74699026Y-89292552D01*
X74712910Y-89273832D01*
X74728562Y-89256562D01*
X74745832Y-89240910D01*
X74764552Y-89227026D01*
X74784543Y-89215044D01*
X74805613Y-89205079D01*
X74827557Y-89197227D01*
X74850166Y-89191563D01*
X74873221Y-89188144D01*
X74896500Y-89187000D01*
X75471500Y-89187000D01*
X75494779Y-89188144D01*
G37*
G36*
X73744779Y-89188144D02*
G01*
X73767834Y-89191563D01*
X73790443Y-89197227D01*
X73812387Y-89205079D01*
X73833457Y-89215044D01*
X73853448Y-89227026D01*
X73872168Y-89240910D01*
X73889438Y-89256562D01*
X73905090Y-89273832D01*
X73918974Y-89292552D01*
X73930956Y-89312543D01*
X73940921Y-89333613D01*
X73948773Y-89355557D01*
X73954437Y-89378166D01*
X73957856Y-89401221D01*
X73959000Y-89424500D01*
X73959000Y-89899500D01*
X73957856Y-89922779D01*
X73954437Y-89945834D01*
X73948773Y-89968443D01*
X73940921Y-89990387D01*
X73930956Y-90011457D01*
X73918974Y-90031448D01*
X73905090Y-90050168D01*
X73889438Y-90067438D01*
X73872168Y-90083090D01*
X73853448Y-90096974D01*
X73833457Y-90108956D01*
X73812387Y-90118921D01*
X73790443Y-90126773D01*
X73767834Y-90132437D01*
X73744779Y-90135856D01*
X73721500Y-90137000D01*
X73146500Y-90137000D01*
X73123221Y-90135856D01*
X73100166Y-90132437D01*
X73077557Y-90126773D01*
X73055613Y-90118921D01*
X73034543Y-90108956D01*
X73014552Y-90096974D01*
X72995832Y-90083090D01*
X72978562Y-90067438D01*
X72962910Y-90050168D01*
X72949026Y-90031448D01*
X72937044Y-90011457D01*
X72927079Y-89990387D01*
X72919227Y-89968443D01*
X72913563Y-89945834D01*
X72910144Y-89922779D01*
X72909000Y-89899500D01*
X72909000Y-89424500D01*
X72910144Y-89401221D01*
X72913563Y-89378166D01*
X72919227Y-89355557D01*
X72927079Y-89333613D01*
X72937044Y-89312543D01*
X72949026Y-89292552D01*
X72962910Y-89273832D01*
X72978562Y-89256562D01*
X72995832Y-89240910D01*
X73014552Y-89227026D01*
X73034543Y-89215044D01*
X73055613Y-89205079D01*
X73077557Y-89197227D01*
X73100166Y-89191563D01*
X73123221Y-89188144D01*
X73146500Y-89187000D01*
X73721500Y-89187000D01*
X73744779Y-89188144D01*
G37*
G36*
X81110779Y-85378144D02*
G01*
X81133834Y-85381563D01*
X81156443Y-85387227D01*
X81178387Y-85395079D01*
X81199457Y-85405044D01*
X81219448Y-85417026D01*
X81238168Y-85430910D01*
X81255438Y-85446562D01*
X81271090Y-85463832D01*
X81284974Y-85482552D01*
X81296956Y-85502543D01*
X81306921Y-85523613D01*
X81314773Y-85545557D01*
X81320437Y-85568166D01*
X81323856Y-85591221D01*
X81325000Y-85614500D01*
X81325000Y-86089500D01*
X81323856Y-86112779D01*
X81320437Y-86135834D01*
X81314773Y-86158443D01*
X81306921Y-86180387D01*
X81296956Y-86201457D01*
X81284974Y-86221448D01*
X81271090Y-86240168D01*
X81255438Y-86257438D01*
X81238168Y-86273090D01*
X81219448Y-86286974D01*
X81199457Y-86298956D01*
X81178387Y-86308921D01*
X81156443Y-86316773D01*
X81133834Y-86322437D01*
X81110779Y-86325856D01*
X81087500Y-86327000D01*
X80512500Y-86327000D01*
X80489221Y-86325856D01*
X80466166Y-86322437D01*
X80443557Y-86316773D01*
X80421613Y-86308921D01*
X80400543Y-86298956D01*
X80380552Y-86286974D01*
X80361832Y-86273090D01*
X80344562Y-86257438D01*
X80328910Y-86240168D01*
X80315026Y-86221448D01*
X80303044Y-86201457D01*
X80293079Y-86180387D01*
X80285227Y-86158443D01*
X80279563Y-86135834D01*
X80276144Y-86112779D01*
X80275000Y-86089500D01*
X80275000Y-85614500D01*
X80276144Y-85591221D01*
X80279563Y-85568166D01*
X80285227Y-85545557D01*
X80293079Y-85523613D01*
X80303044Y-85502543D01*
X80315026Y-85482552D01*
X80328910Y-85463832D01*
X80344562Y-85446562D01*
X80361832Y-85430910D01*
X80380552Y-85417026D01*
X80400543Y-85405044D01*
X80421613Y-85395079D01*
X80443557Y-85387227D01*
X80466166Y-85381563D01*
X80489221Y-85378144D01*
X80512500Y-85377000D01*
X81087500Y-85377000D01*
X81110779Y-85378144D01*
G37*
G36*
X82860779Y-85378144D02*
G01*
X82883834Y-85381563D01*
X82906443Y-85387227D01*
X82928387Y-85395079D01*
X82949457Y-85405044D01*
X82969448Y-85417026D01*
X82988168Y-85430910D01*
X83005438Y-85446562D01*
X83021090Y-85463832D01*
X83034974Y-85482552D01*
X83046956Y-85502543D01*
X83056921Y-85523613D01*
X83064773Y-85545557D01*
X83070437Y-85568166D01*
X83073856Y-85591221D01*
X83075000Y-85614500D01*
X83075000Y-86089500D01*
X83073856Y-86112779D01*
X83070437Y-86135834D01*
X83064773Y-86158443D01*
X83056921Y-86180387D01*
X83046956Y-86201457D01*
X83034974Y-86221448D01*
X83021090Y-86240168D01*
X83005438Y-86257438D01*
X82988168Y-86273090D01*
X82969448Y-86286974D01*
X82949457Y-86298956D01*
X82928387Y-86308921D01*
X82906443Y-86316773D01*
X82883834Y-86322437D01*
X82860779Y-86325856D01*
X82837500Y-86327000D01*
X82262500Y-86327000D01*
X82239221Y-86325856D01*
X82216166Y-86322437D01*
X82193557Y-86316773D01*
X82171613Y-86308921D01*
X82150543Y-86298956D01*
X82130552Y-86286974D01*
X82111832Y-86273090D01*
X82094562Y-86257438D01*
X82078910Y-86240168D01*
X82065026Y-86221448D01*
X82053044Y-86201457D01*
X82043079Y-86180387D01*
X82035227Y-86158443D01*
X82029563Y-86135834D01*
X82026144Y-86112779D01*
X82025000Y-86089500D01*
X82025000Y-85614500D01*
X82026144Y-85591221D01*
X82029563Y-85568166D01*
X82035227Y-85545557D01*
X82043079Y-85523613D01*
X82053044Y-85502543D01*
X82065026Y-85482552D01*
X82078910Y-85463832D01*
X82094562Y-85446562D01*
X82111832Y-85430910D01*
X82130552Y-85417026D01*
X82150543Y-85405044D01*
X82171613Y-85395079D01*
X82193557Y-85387227D01*
X82216166Y-85381563D01*
X82239221Y-85378144D01*
X82262500Y-85377000D01*
X82837500Y-85377000D01*
X82860779Y-85378144D01*
G37*
G36*
X78044504Y-52268704D02*
G01*
X78068773Y-52272304D01*
X78092571Y-52278265D01*
X78115671Y-52286530D01*
X78137849Y-52297020D01*
X78158893Y-52309633D01*
X78178598Y-52324247D01*
X78196777Y-52340723D01*
X78213253Y-52358902D01*
X78227867Y-52378607D01*
X78240480Y-52399651D01*
X78250970Y-52421829D01*
X78259235Y-52444929D01*
X78265196Y-52468727D01*
X78268796Y-52492996D01*
X78270000Y-52517500D01*
X78270000Y-54792500D01*
X78268796Y-54817004D01*
X78265196Y-54841273D01*
X78259235Y-54865071D01*
X78250970Y-54888171D01*
X78240480Y-54910349D01*
X78227867Y-54931393D01*
X78213253Y-54951098D01*
X78196777Y-54969277D01*
X78178598Y-54985753D01*
X78158893Y-55000367D01*
X78137849Y-55012980D01*
X78115671Y-55023470D01*
X78092571Y-55031735D01*
X78068773Y-55037696D01*
X78044504Y-55041296D01*
X78020000Y-55042500D01*
X76920000Y-55042500D01*
X76895496Y-55041296D01*
X76871227Y-55037696D01*
X76847429Y-55031735D01*
X76824329Y-55023470D01*
X76802151Y-55012980D01*
X76781107Y-55000367D01*
X76761402Y-54985753D01*
X76743223Y-54969277D01*
X76726747Y-54951098D01*
X76712133Y-54931393D01*
X76699520Y-54910349D01*
X76689030Y-54888171D01*
X76680765Y-54865071D01*
X76674804Y-54841273D01*
X76671204Y-54817004D01*
X76670000Y-54792500D01*
X76670000Y-52517500D01*
X76671204Y-52492996D01*
X76674804Y-52468727D01*
X76680765Y-52444929D01*
X76689030Y-52421829D01*
X76699520Y-52399651D01*
X76712133Y-52378607D01*
X76726747Y-52358902D01*
X76743223Y-52340723D01*
X76761402Y-52324247D01*
X76781107Y-52309633D01*
X76802151Y-52297020D01*
X76824329Y-52286530D01*
X76847429Y-52278265D01*
X76871227Y-52272304D01*
X76895496Y-52268704D01*
X76920000Y-52267500D01*
X78020000Y-52267500D01*
X78044504Y-52268704D01*
G37*
G36*
X78044504Y-48143704D02*
G01*
X78068773Y-48147304D01*
X78092571Y-48153265D01*
X78115671Y-48161530D01*
X78137849Y-48172020D01*
X78158893Y-48184633D01*
X78178598Y-48199247D01*
X78196777Y-48215723D01*
X78213253Y-48233902D01*
X78227867Y-48253607D01*
X78240480Y-48274651D01*
X78250970Y-48296829D01*
X78259235Y-48319929D01*
X78265196Y-48343727D01*
X78268796Y-48367996D01*
X78270000Y-48392500D01*
X78270000Y-50667500D01*
X78268796Y-50692004D01*
X78265196Y-50716273D01*
X78259235Y-50740071D01*
X78250970Y-50763171D01*
X78240480Y-50785349D01*
X78227867Y-50806393D01*
X78213253Y-50826098D01*
X78196777Y-50844277D01*
X78178598Y-50860753D01*
X78158893Y-50875367D01*
X78137849Y-50887980D01*
X78115671Y-50898470D01*
X78092571Y-50906735D01*
X78068773Y-50912696D01*
X78044504Y-50916296D01*
X78020000Y-50917500D01*
X76920000Y-50917500D01*
X76895496Y-50916296D01*
X76871227Y-50912696D01*
X76847429Y-50906735D01*
X76824329Y-50898470D01*
X76802151Y-50887980D01*
X76781107Y-50875367D01*
X76761402Y-50860753D01*
X76743223Y-50844277D01*
X76726747Y-50826098D01*
X76712133Y-50806393D01*
X76699520Y-50785349D01*
X76689030Y-50763171D01*
X76680765Y-50740071D01*
X76674804Y-50716273D01*
X76671204Y-50692004D01*
X76670000Y-50667500D01*
X76670000Y-48392500D01*
X76671204Y-48367996D01*
X76674804Y-48343727D01*
X76680765Y-48319929D01*
X76689030Y-48296829D01*
X76699520Y-48274651D01*
X76712133Y-48253607D01*
X76726747Y-48233902D01*
X76743223Y-48215723D01*
X76761402Y-48199247D01*
X76781107Y-48184633D01*
X76802151Y-48172020D01*
X76824329Y-48161530D01*
X76847429Y-48153265D01*
X76871227Y-48147304D01*
X76895496Y-48143704D01*
X76920000Y-48142500D01*
X78020000Y-48142500D01*
X78044504Y-48143704D01*
G37*
G36*
X78044504Y-40523704D02*
G01*
X78068773Y-40527304D01*
X78092571Y-40533265D01*
X78115671Y-40541530D01*
X78137849Y-40552020D01*
X78158893Y-40564633D01*
X78178598Y-40579247D01*
X78196777Y-40595723D01*
X78213253Y-40613902D01*
X78227867Y-40633607D01*
X78240480Y-40654651D01*
X78250970Y-40676829D01*
X78259235Y-40699929D01*
X78265196Y-40723727D01*
X78268796Y-40747996D01*
X78270000Y-40772500D01*
X78270000Y-43047500D01*
X78268796Y-43072004D01*
X78265196Y-43096273D01*
X78259235Y-43120071D01*
X78250970Y-43143171D01*
X78240480Y-43165349D01*
X78227867Y-43186393D01*
X78213253Y-43206098D01*
X78196777Y-43224277D01*
X78178598Y-43240753D01*
X78158893Y-43255367D01*
X78137849Y-43267980D01*
X78115671Y-43278470D01*
X78092571Y-43286735D01*
X78068773Y-43292696D01*
X78044504Y-43296296D01*
X78020000Y-43297500D01*
X76920000Y-43297500D01*
X76895496Y-43296296D01*
X76871227Y-43292696D01*
X76847429Y-43286735D01*
X76824329Y-43278470D01*
X76802151Y-43267980D01*
X76781107Y-43255367D01*
X76761402Y-43240753D01*
X76743223Y-43224277D01*
X76726747Y-43206098D01*
X76712133Y-43186393D01*
X76699520Y-43165349D01*
X76689030Y-43143171D01*
X76680765Y-43120071D01*
X76674804Y-43096273D01*
X76671204Y-43072004D01*
X76670000Y-43047500D01*
X76670000Y-40772500D01*
X76671204Y-40747996D01*
X76674804Y-40723727D01*
X76680765Y-40699929D01*
X76689030Y-40676829D01*
X76699520Y-40654651D01*
X76712133Y-40633607D01*
X76726747Y-40613902D01*
X76743223Y-40595723D01*
X76761402Y-40579247D01*
X76781107Y-40564633D01*
X76802151Y-40552020D01*
X76824329Y-40541530D01*
X76847429Y-40533265D01*
X76871227Y-40527304D01*
X76895496Y-40523704D01*
X76920000Y-40522500D01*
X78020000Y-40522500D01*
X78044504Y-40523704D01*
G37*
G36*
X78044504Y-44648704D02*
G01*
X78068773Y-44652304D01*
X78092571Y-44658265D01*
X78115671Y-44666530D01*
X78137849Y-44677020D01*
X78158893Y-44689633D01*
X78178598Y-44704247D01*
X78196777Y-44720723D01*
X78213253Y-44738902D01*
X78227867Y-44758607D01*
X78240480Y-44779651D01*
X78250970Y-44801829D01*
X78259235Y-44824929D01*
X78265196Y-44848727D01*
X78268796Y-44872996D01*
X78270000Y-44897500D01*
X78270000Y-47172500D01*
X78268796Y-47197004D01*
X78265196Y-47221273D01*
X78259235Y-47245071D01*
X78250970Y-47268171D01*
X78240480Y-47290349D01*
X78227867Y-47311393D01*
X78213253Y-47331098D01*
X78196777Y-47349277D01*
X78178598Y-47365753D01*
X78158893Y-47380367D01*
X78137849Y-47392980D01*
X78115671Y-47403470D01*
X78092571Y-47411735D01*
X78068773Y-47417696D01*
X78044504Y-47421296D01*
X78020000Y-47422500D01*
X76920000Y-47422500D01*
X76895496Y-47421296D01*
X76871227Y-47417696D01*
X76847429Y-47411735D01*
X76824329Y-47403470D01*
X76802151Y-47392980D01*
X76781107Y-47380367D01*
X76761402Y-47365753D01*
X76743223Y-47349277D01*
X76726747Y-47331098D01*
X76712133Y-47311393D01*
X76699520Y-47290349D01*
X76689030Y-47268171D01*
X76680765Y-47245071D01*
X76674804Y-47221273D01*
X76671204Y-47197004D01*
X76670000Y-47172500D01*
X76670000Y-44897500D01*
X76671204Y-44872996D01*
X76674804Y-44848727D01*
X76680765Y-44824929D01*
X76689030Y-44801829D01*
X76699520Y-44779651D01*
X76712133Y-44758607D01*
X76726747Y-44738902D01*
X76743223Y-44720723D01*
X76761402Y-44704247D01*
X76781107Y-44689633D01*
X76802151Y-44677020D01*
X76824329Y-44666530D01*
X76847429Y-44658265D01*
X76871227Y-44652304D01*
X76895496Y-44648704D01*
X76920000Y-44647500D01*
X78020000Y-44647500D01*
X78044504Y-44648704D01*
G37*
G36*
X85664504Y-48143704D02*
G01*
X85688773Y-48147304D01*
X85712571Y-48153265D01*
X85735671Y-48161530D01*
X85757849Y-48172020D01*
X85778893Y-48184633D01*
X85798598Y-48199247D01*
X85816777Y-48215723D01*
X85833253Y-48233902D01*
X85847867Y-48253607D01*
X85860480Y-48274651D01*
X85870970Y-48296829D01*
X85879235Y-48319929D01*
X85885196Y-48343727D01*
X85888796Y-48367996D01*
X85890000Y-48392500D01*
X85890000Y-50667500D01*
X85888796Y-50692004D01*
X85885196Y-50716273D01*
X85879235Y-50740071D01*
X85870970Y-50763171D01*
X85860480Y-50785349D01*
X85847867Y-50806393D01*
X85833253Y-50826098D01*
X85816777Y-50844277D01*
X85798598Y-50860753D01*
X85778893Y-50875367D01*
X85757849Y-50887980D01*
X85735671Y-50898470D01*
X85712571Y-50906735D01*
X85688773Y-50912696D01*
X85664504Y-50916296D01*
X85640000Y-50917500D01*
X84540000Y-50917500D01*
X84515496Y-50916296D01*
X84491227Y-50912696D01*
X84467429Y-50906735D01*
X84444329Y-50898470D01*
X84422151Y-50887980D01*
X84401107Y-50875367D01*
X84381402Y-50860753D01*
X84363223Y-50844277D01*
X84346747Y-50826098D01*
X84332133Y-50806393D01*
X84319520Y-50785349D01*
X84309030Y-50763171D01*
X84300765Y-50740071D01*
X84294804Y-50716273D01*
X84291204Y-50692004D01*
X84290000Y-50667500D01*
X84290000Y-48392500D01*
X84291204Y-48367996D01*
X84294804Y-48343727D01*
X84300765Y-48319929D01*
X84309030Y-48296829D01*
X84319520Y-48274651D01*
X84332133Y-48253607D01*
X84346747Y-48233902D01*
X84363223Y-48215723D01*
X84381402Y-48199247D01*
X84401107Y-48184633D01*
X84422151Y-48172020D01*
X84444329Y-48161530D01*
X84467429Y-48153265D01*
X84491227Y-48147304D01*
X84515496Y-48143704D01*
X84540000Y-48142500D01*
X85640000Y-48142500D01*
X85664504Y-48143704D01*
G37*
G36*
X85664504Y-52268704D02*
G01*
X85688773Y-52272304D01*
X85712571Y-52278265D01*
X85735671Y-52286530D01*
X85757849Y-52297020D01*
X85778893Y-52309633D01*
X85798598Y-52324247D01*
X85816777Y-52340723D01*
X85833253Y-52358902D01*
X85847867Y-52378607D01*
X85860480Y-52399651D01*
X85870970Y-52421829D01*
X85879235Y-52444929D01*
X85885196Y-52468727D01*
X85888796Y-52492996D01*
X85890000Y-52517500D01*
X85890000Y-54792500D01*
X85888796Y-54817004D01*
X85885196Y-54841273D01*
X85879235Y-54865071D01*
X85870970Y-54888171D01*
X85860480Y-54910349D01*
X85847867Y-54931393D01*
X85833253Y-54951098D01*
X85816777Y-54969277D01*
X85798598Y-54985753D01*
X85778893Y-55000367D01*
X85757849Y-55012980D01*
X85735671Y-55023470D01*
X85712571Y-55031735D01*
X85688773Y-55037696D01*
X85664504Y-55041296D01*
X85640000Y-55042500D01*
X84540000Y-55042500D01*
X84515496Y-55041296D01*
X84491227Y-55037696D01*
X84467429Y-55031735D01*
X84444329Y-55023470D01*
X84422151Y-55012980D01*
X84401107Y-55000367D01*
X84381402Y-54985753D01*
X84363223Y-54969277D01*
X84346747Y-54951098D01*
X84332133Y-54931393D01*
X84319520Y-54910349D01*
X84309030Y-54888171D01*
X84300765Y-54865071D01*
X84294804Y-54841273D01*
X84291204Y-54817004D01*
X84290000Y-54792500D01*
X84290000Y-52517500D01*
X84291204Y-52492996D01*
X84294804Y-52468727D01*
X84300765Y-52444929D01*
X84309030Y-52421829D01*
X84319520Y-52399651D01*
X84332133Y-52378607D01*
X84346747Y-52358902D01*
X84363223Y-52340723D01*
X84381402Y-52324247D01*
X84401107Y-52309633D01*
X84422151Y-52297020D01*
X84444329Y-52286530D01*
X84467429Y-52278265D01*
X84491227Y-52272304D01*
X84515496Y-52268704D01*
X84540000Y-52267500D01*
X85640000Y-52267500D01*
X85664504Y-52268704D01*
G37*
G36*
X85664504Y-44648704D02*
G01*
X85688773Y-44652304D01*
X85712571Y-44658265D01*
X85735671Y-44666530D01*
X85757849Y-44677020D01*
X85778893Y-44689633D01*
X85798598Y-44704247D01*
X85816777Y-44720723D01*
X85833253Y-44738902D01*
X85847867Y-44758607D01*
X85860480Y-44779651D01*
X85870970Y-44801829D01*
X85879235Y-44824929D01*
X85885196Y-44848727D01*
X85888796Y-44872996D01*
X85890000Y-44897500D01*
X85890000Y-47172500D01*
X85888796Y-47197004D01*
X85885196Y-47221273D01*
X85879235Y-47245071D01*
X85870970Y-47268171D01*
X85860480Y-47290349D01*
X85847867Y-47311393D01*
X85833253Y-47331098D01*
X85816777Y-47349277D01*
X85798598Y-47365753D01*
X85778893Y-47380367D01*
X85757849Y-47392980D01*
X85735671Y-47403470D01*
X85712571Y-47411735D01*
X85688773Y-47417696D01*
X85664504Y-47421296D01*
X85640000Y-47422500D01*
X84540000Y-47422500D01*
X84515496Y-47421296D01*
X84491227Y-47417696D01*
X84467429Y-47411735D01*
X84444329Y-47403470D01*
X84422151Y-47392980D01*
X84401107Y-47380367D01*
X84381402Y-47365753D01*
X84363223Y-47349277D01*
X84346747Y-47331098D01*
X84332133Y-47311393D01*
X84319520Y-47290349D01*
X84309030Y-47268171D01*
X84300765Y-47245071D01*
X84294804Y-47221273D01*
X84291204Y-47197004D01*
X84290000Y-47172500D01*
X84290000Y-44897500D01*
X84291204Y-44872996D01*
X84294804Y-44848727D01*
X84300765Y-44824929D01*
X84309030Y-44801829D01*
X84319520Y-44779651D01*
X84332133Y-44758607D01*
X84346747Y-44738902D01*
X84363223Y-44720723D01*
X84381402Y-44704247D01*
X84401107Y-44689633D01*
X84422151Y-44677020D01*
X84444329Y-44666530D01*
X84467429Y-44658265D01*
X84491227Y-44652304D01*
X84515496Y-44648704D01*
X84540000Y-44647500D01*
X85640000Y-44647500D01*
X85664504Y-44648704D01*
G37*
G36*
X85664504Y-40523704D02*
G01*
X85688773Y-40527304D01*
X85712571Y-40533265D01*
X85735671Y-40541530D01*
X85757849Y-40552020D01*
X85778893Y-40564633D01*
X85798598Y-40579247D01*
X85816777Y-40595723D01*
X85833253Y-40613902D01*
X85847867Y-40633607D01*
X85860480Y-40654651D01*
X85870970Y-40676829D01*
X85879235Y-40699929D01*
X85885196Y-40723727D01*
X85888796Y-40747996D01*
X85890000Y-40772500D01*
X85890000Y-43047500D01*
X85888796Y-43072004D01*
X85885196Y-43096273D01*
X85879235Y-43120071D01*
X85870970Y-43143171D01*
X85860480Y-43165349D01*
X85847867Y-43186393D01*
X85833253Y-43206098D01*
X85816777Y-43224277D01*
X85798598Y-43240753D01*
X85778893Y-43255367D01*
X85757849Y-43267980D01*
X85735671Y-43278470D01*
X85712571Y-43286735D01*
X85688773Y-43292696D01*
X85664504Y-43296296D01*
X85640000Y-43297500D01*
X84540000Y-43297500D01*
X84515496Y-43296296D01*
X84491227Y-43292696D01*
X84467429Y-43286735D01*
X84444329Y-43278470D01*
X84422151Y-43267980D01*
X84401107Y-43255367D01*
X84381402Y-43240753D01*
X84363223Y-43224277D01*
X84346747Y-43206098D01*
X84332133Y-43186393D01*
X84319520Y-43165349D01*
X84309030Y-43143171D01*
X84300765Y-43120071D01*
X84294804Y-43096273D01*
X84291204Y-43072004D01*
X84290000Y-43047500D01*
X84290000Y-40772500D01*
X84291204Y-40747996D01*
X84294804Y-40723727D01*
X84300765Y-40699929D01*
X84309030Y-40676829D01*
X84319520Y-40654651D01*
X84332133Y-40633607D01*
X84346747Y-40613902D01*
X84363223Y-40595723D01*
X84381402Y-40579247D01*
X84401107Y-40564633D01*
X84422151Y-40552020D01*
X84444329Y-40541530D01*
X84467429Y-40533265D01*
X84491227Y-40527304D01*
X84515496Y-40523704D01*
X84540000Y-40522500D01*
X85640000Y-40522500D01*
X85664504Y-40523704D01*
G37*
G36*
X93284504Y-48143704D02*
G01*
X93308773Y-48147304D01*
X93332571Y-48153265D01*
X93355671Y-48161530D01*
X93377849Y-48172020D01*
X93398893Y-48184633D01*
X93418598Y-48199247D01*
X93436777Y-48215723D01*
X93453253Y-48233902D01*
X93467867Y-48253607D01*
X93480480Y-48274651D01*
X93490970Y-48296829D01*
X93499235Y-48319929D01*
X93505196Y-48343727D01*
X93508796Y-48367996D01*
X93510000Y-48392500D01*
X93510000Y-50667500D01*
X93508796Y-50692004D01*
X93505196Y-50716273D01*
X93499235Y-50740071D01*
X93490970Y-50763171D01*
X93480480Y-50785349D01*
X93467867Y-50806393D01*
X93453253Y-50826098D01*
X93436777Y-50844277D01*
X93418598Y-50860753D01*
X93398893Y-50875367D01*
X93377849Y-50887980D01*
X93355671Y-50898470D01*
X93332571Y-50906735D01*
X93308773Y-50912696D01*
X93284504Y-50916296D01*
X93260000Y-50917500D01*
X92160000Y-50917500D01*
X92135496Y-50916296D01*
X92111227Y-50912696D01*
X92087429Y-50906735D01*
X92064329Y-50898470D01*
X92042151Y-50887980D01*
X92021107Y-50875367D01*
X92001402Y-50860753D01*
X91983223Y-50844277D01*
X91966747Y-50826098D01*
X91952133Y-50806393D01*
X91939520Y-50785349D01*
X91929030Y-50763171D01*
X91920765Y-50740071D01*
X91914804Y-50716273D01*
X91911204Y-50692004D01*
X91910000Y-50667500D01*
X91910000Y-48392500D01*
X91911204Y-48367996D01*
X91914804Y-48343727D01*
X91920765Y-48319929D01*
X91929030Y-48296829D01*
X91939520Y-48274651D01*
X91952133Y-48253607D01*
X91966747Y-48233902D01*
X91983223Y-48215723D01*
X92001402Y-48199247D01*
X92021107Y-48184633D01*
X92042151Y-48172020D01*
X92064329Y-48161530D01*
X92087429Y-48153265D01*
X92111227Y-48147304D01*
X92135496Y-48143704D01*
X92160000Y-48142500D01*
X93260000Y-48142500D01*
X93284504Y-48143704D01*
G37*
G36*
X93284504Y-52268704D02*
G01*
X93308773Y-52272304D01*
X93332571Y-52278265D01*
X93355671Y-52286530D01*
X93377849Y-52297020D01*
X93398893Y-52309633D01*
X93418598Y-52324247D01*
X93436777Y-52340723D01*
X93453253Y-52358902D01*
X93467867Y-52378607D01*
X93480480Y-52399651D01*
X93490970Y-52421829D01*
X93499235Y-52444929D01*
X93505196Y-52468727D01*
X93508796Y-52492996D01*
X93510000Y-52517500D01*
X93510000Y-54792500D01*
X93508796Y-54817004D01*
X93505196Y-54841273D01*
X93499235Y-54865071D01*
X93490970Y-54888171D01*
X93480480Y-54910349D01*
X93467867Y-54931393D01*
X93453253Y-54951098D01*
X93436777Y-54969277D01*
X93418598Y-54985753D01*
X93398893Y-55000367D01*
X93377849Y-55012980D01*
X93355671Y-55023470D01*
X93332571Y-55031735D01*
X93308773Y-55037696D01*
X93284504Y-55041296D01*
X93260000Y-55042500D01*
X92160000Y-55042500D01*
X92135496Y-55041296D01*
X92111227Y-55037696D01*
X92087429Y-55031735D01*
X92064329Y-55023470D01*
X92042151Y-55012980D01*
X92021107Y-55000367D01*
X92001402Y-54985753D01*
X91983223Y-54969277D01*
X91966747Y-54951098D01*
X91952133Y-54931393D01*
X91939520Y-54910349D01*
X91929030Y-54888171D01*
X91920765Y-54865071D01*
X91914804Y-54841273D01*
X91911204Y-54817004D01*
X91910000Y-54792500D01*
X91910000Y-52517500D01*
X91911204Y-52492996D01*
X91914804Y-52468727D01*
X91920765Y-52444929D01*
X91929030Y-52421829D01*
X91939520Y-52399651D01*
X91952133Y-52378607D01*
X91966747Y-52358902D01*
X91983223Y-52340723D01*
X92001402Y-52324247D01*
X92021107Y-52309633D01*
X92042151Y-52297020D01*
X92064329Y-52286530D01*
X92087429Y-52278265D01*
X92111227Y-52272304D01*
X92135496Y-52268704D01*
X92160000Y-52267500D01*
X93260000Y-52267500D01*
X93284504Y-52268704D01*
G37*
G36*
X93284504Y-44648704D02*
G01*
X93308773Y-44652304D01*
X93332571Y-44658265D01*
X93355671Y-44666530D01*
X93377849Y-44677020D01*
X93398893Y-44689633D01*
X93418598Y-44704247D01*
X93436777Y-44720723D01*
X93453253Y-44738902D01*
X93467867Y-44758607D01*
X93480480Y-44779651D01*
X93490970Y-44801829D01*
X93499235Y-44824929D01*
X93505196Y-44848727D01*
X93508796Y-44872996D01*
X93510000Y-44897500D01*
X93510000Y-47172500D01*
X93508796Y-47197004D01*
X93505196Y-47221273D01*
X93499235Y-47245071D01*
X93490970Y-47268171D01*
X93480480Y-47290349D01*
X93467867Y-47311393D01*
X93453253Y-47331098D01*
X93436777Y-47349277D01*
X93418598Y-47365753D01*
X93398893Y-47380367D01*
X93377849Y-47392980D01*
X93355671Y-47403470D01*
X93332571Y-47411735D01*
X93308773Y-47417696D01*
X93284504Y-47421296D01*
X93260000Y-47422500D01*
X92160000Y-47422500D01*
X92135496Y-47421296D01*
X92111227Y-47417696D01*
X92087429Y-47411735D01*
X92064329Y-47403470D01*
X92042151Y-47392980D01*
X92021107Y-47380367D01*
X92001402Y-47365753D01*
X91983223Y-47349277D01*
X91966747Y-47331098D01*
X91952133Y-47311393D01*
X91939520Y-47290349D01*
X91929030Y-47268171D01*
X91920765Y-47245071D01*
X91914804Y-47221273D01*
X91911204Y-47197004D01*
X91910000Y-47172500D01*
X91910000Y-44897500D01*
X91911204Y-44872996D01*
X91914804Y-44848727D01*
X91920765Y-44824929D01*
X91929030Y-44801829D01*
X91939520Y-44779651D01*
X91952133Y-44758607D01*
X91966747Y-44738902D01*
X91983223Y-44720723D01*
X92001402Y-44704247D01*
X92021107Y-44689633D01*
X92042151Y-44677020D01*
X92064329Y-44666530D01*
X92087429Y-44658265D01*
X92111227Y-44652304D01*
X92135496Y-44648704D01*
X92160000Y-44647500D01*
X93260000Y-44647500D01*
X93284504Y-44648704D01*
G37*
G36*
X93284504Y-40523704D02*
G01*
X93308773Y-40527304D01*
X93332571Y-40533265D01*
X93355671Y-40541530D01*
X93377849Y-40552020D01*
X93398893Y-40564633D01*
X93418598Y-40579247D01*
X93436777Y-40595723D01*
X93453253Y-40613902D01*
X93467867Y-40633607D01*
X93480480Y-40654651D01*
X93490970Y-40676829D01*
X93499235Y-40699929D01*
X93505196Y-40723727D01*
X93508796Y-40747996D01*
X93510000Y-40772500D01*
X93510000Y-43047500D01*
X93508796Y-43072004D01*
X93505196Y-43096273D01*
X93499235Y-43120071D01*
X93490970Y-43143171D01*
X93480480Y-43165349D01*
X93467867Y-43186393D01*
X93453253Y-43206098D01*
X93436777Y-43224277D01*
X93418598Y-43240753D01*
X93398893Y-43255367D01*
X93377849Y-43267980D01*
X93355671Y-43278470D01*
X93332571Y-43286735D01*
X93308773Y-43292696D01*
X93284504Y-43296296D01*
X93260000Y-43297500D01*
X92160000Y-43297500D01*
X92135496Y-43296296D01*
X92111227Y-43292696D01*
X92087429Y-43286735D01*
X92064329Y-43278470D01*
X92042151Y-43267980D01*
X92021107Y-43255367D01*
X92001402Y-43240753D01*
X91983223Y-43224277D01*
X91966747Y-43206098D01*
X91952133Y-43186393D01*
X91939520Y-43165349D01*
X91929030Y-43143171D01*
X91920765Y-43120071D01*
X91914804Y-43096273D01*
X91911204Y-43072004D01*
X91910000Y-43047500D01*
X91910000Y-40772500D01*
X91911204Y-40747996D01*
X91914804Y-40723727D01*
X91920765Y-40699929D01*
X91929030Y-40676829D01*
X91939520Y-40654651D01*
X91952133Y-40633607D01*
X91966747Y-40613902D01*
X91983223Y-40595723D01*
X92001402Y-40579247D01*
X92021107Y-40564633D01*
X92042151Y-40552020D01*
X92064329Y-40541530D01*
X92087429Y-40533265D01*
X92111227Y-40527304D01*
X92135496Y-40523704D01*
X92160000Y-40522500D01*
X93260000Y-40522500D01*
X93284504Y-40523704D01*
G37*
G36*
X95824504Y-66939704D02*
G01*
X95848773Y-66943304D01*
X95872571Y-66949265D01*
X95895671Y-66957530D01*
X95917849Y-66968020D01*
X95938893Y-66980633D01*
X95958598Y-66995247D01*
X95976777Y-67011723D01*
X95993253Y-67029902D01*
X96007867Y-67049607D01*
X96020480Y-67070651D01*
X96030970Y-67092829D01*
X96039235Y-67115929D01*
X96045196Y-67139727D01*
X96048796Y-67163996D01*
X96050000Y-67188500D01*
X96050000Y-69463500D01*
X96048796Y-69488004D01*
X96045196Y-69512273D01*
X96039235Y-69536071D01*
X96030970Y-69559171D01*
X96020480Y-69581349D01*
X96007867Y-69602393D01*
X95993253Y-69622098D01*
X95976777Y-69640277D01*
X95958598Y-69656753D01*
X95938893Y-69671367D01*
X95917849Y-69683980D01*
X95895671Y-69694470D01*
X95872571Y-69702735D01*
X95848773Y-69708696D01*
X95824504Y-69712296D01*
X95800000Y-69713500D01*
X94700000Y-69713500D01*
X94675496Y-69712296D01*
X94651227Y-69708696D01*
X94627429Y-69702735D01*
X94604329Y-69694470D01*
X94582151Y-69683980D01*
X94561107Y-69671367D01*
X94541402Y-69656753D01*
X94523223Y-69640277D01*
X94506747Y-69622098D01*
X94492133Y-69602393D01*
X94479520Y-69581349D01*
X94469030Y-69559171D01*
X94460765Y-69536071D01*
X94454804Y-69512273D01*
X94451204Y-69488004D01*
X94450000Y-69463500D01*
X94450000Y-67188500D01*
X94451204Y-67163996D01*
X94454804Y-67139727D01*
X94460765Y-67115929D01*
X94469030Y-67092829D01*
X94479520Y-67070651D01*
X94492133Y-67049607D01*
X94506747Y-67029902D01*
X94523223Y-67011723D01*
X94541402Y-66995247D01*
X94561107Y-66980633D01*
X94582151Y-66968020D01*
X94604329Y-66957530D01*
X94627429Y-66949265D01*
X94651227Y-66943304D01*
X94675496Y-66939704D01*
X94700000Y-66938500D01*
X95800000Y-66938500D01*
X95824504Y-66939704D01*
G37*
G36*
X95824504Y-62814704D02*
G01*
X95848773Y-62818304D01*
X95872571Y-62824265D01*
X95895671Y-62832530D01*
X95917849Y-62843020D01*
X95938893Y-62855633D01*
X95958598Y-62870247D01*
X95976777Y-62886723D01*
X95993253Y-62904902D01*
X96007867Y-62924607D01*
X96020480Y-62945651D01*
X96030970Y-62967829D01*
X96039235Y-62990929D01*
X96045196Y-63014727D01*
X96048796Y-63038996D01*
X96050000Y-63063500D01*
X96050000Y-65338500D01*
X96048796Y-65363004D01*
X96045196Y-65387273D01*
X96039235Y-65411071D01*
X96030970Y-65434171D01*
X96020480Y-65456349D01*
X96007867Y-65477393D01*
X95993253Y-65497098D01*
X95976777Y-65515277D01*
X95958598Y-65531753D01*
X95938893Y-65546367D01*
X95917849Y-65558980D01*
X95895671Y-65569470D01*
X95872571Y-65577735D01*
X95848773Y-65583696D01*
X95824504Y-65587296D01*
X95800000Y-65588500D01*
X94700000Y-65588500D01*
X94675496Y-65587296D01*
X94651227Y-65583696D01*
X94627429Y-65577735D01*
X94604329Y-65569470D01*
X94582151Y-65558980D01*
X94561107Y-65546367D01*
X94541402Y-65531753D01*
X94523223Y-65515277D01*
X94506747Y-65497098D01*
X94492133Y-65477393D01*
X94479520Y-65456349D01*
X94469030Y-65434171D01*
X94460765Y-65411071D01*
X94454804Y-65387273D01*
X94451204Y-65363004D01*
X94450000Y-65338500D01*
X94450000Y-63063500D01*
X94451204Y-63038996D01*
X94454804Y-63014727D01*
X94460765Y-62990929D01*
X94469030Y-62967829D01*
X94479520Y-62945651D01*
X94492133Y-62924607D01*
X94506747Y-62904902D01*
X94523223Y-62886723D01*
X94541402Y-62870247D01*
X94561107Y-62855633D01*
X94582151Y-62843020D01*
X94604329Y-62832530D01*
X94627429Y-62824265D01*
X94651227Y-62818304D01*
X94675496Y-62814704D01*
X94700000Y-62813500D01*
X95800000Y-62813500D01*
X95824504Y-62814704D01*
G37*
G36*
X73666779Y-50756144D02*
G01*
X73689834Y-50759563D01*
X73712443Y-50765227D01*
X73734387Y-50773079D01*
X73755457Y-50783044D01*
X73775448Y-50795026D01*
X73794168Y-50808910D01*
X73811438Y-50824562D01*
X73827090Y-50841832D01*
X73840974Y-50860552D01*
X73852956Y-50880543D01*
X73862921Y-50901613D01*
X73870773Y-50923557D01*
X73876437Y-50946166D01*
X73879856Y-50969221D01*
X73881000Y-50992500D01*
X73881000Y-51567500D01*
X73879856Y-51590779D01*
X73876437Y-51613834D01*
X73870773Y-51636443D01*
X73862921Y-51658387D01*
X73852956Y-51679457D01*
X73840974Y-51699448D01*
X73827090Y-51718168D01*
X73811438Y-51735438D01*
X73794168Y-51751090D01*
X73775448Y-51764974D01*
X73755457Y-51776956D01*
X73734387Y-51786921D01*
X73712443Y-51794773D01*
X73689834Y-51800437D01*
X73666779Y-51803856D01*
X73643500Y-51805000D01*
X73168500Y-51805000D01*
X73145221Y-51803856D01*
X73122166Y-51800437D01*
X73099557Y-51794773D01*
X73077613Y-51786921D01*
X73056543Y-51776956D01*
X73036552Y-51764974D01*
X73017832Y-51751090D01*
X73000562Y-51735438D01*
X72984910Y-51718168D01*
X72971026Y-51699448D01*
X72959044Y-51679457D01*
X72949079Y-51658387D01*
X72941227Y-51636443D01*
X72935563Y-51613834D01*
X72932144Y-51590779D01*
X72931000Y-51567500D01*
X72931000Y-50992500D01*
X72932144Y-50969221D01*
X72935563Y-50946166D01*
X72941227Y-50923557D01*
X72949079Y-50901613D01*
X72959044Y-50880543D01*
X72971026Y-50860552D01*
X72984910Y-50841832D01*
X73000562Y-50824562D01*
X73017832Y-50808910D01*
X73036552Y-50795026D01*
X73056543Y-50783044D01*
X73077613Y-50773079D01*
X73099557Y-50765227D01*
X73122166Y-50759563D01*
X73145221Y-50756144D01*
X73168500Y-50755000D01*
X73643500Y-50755000D01*
X73666779Y-50756144D01*
G37*
G36*
X73666779Y-49006144D02*
G01*
X73689834Y-49009563D01*
X73712443Y-49015227D01*
X73734387Y-49023079D01*
X73755457Y-49033044D01*
X73775448Y-49045026D01*
X73794168Y-49058910D01*
X73811438Y-49074562D01*
X73827090Y-49091832D01*
X73840974Y-49110552D01*
X73852956Y-49130543D01*
X73862921Y-49151613D01*
X73870773Y-49173557D01*
X73876437Y-49196166D01*
X73879856Y-49219221D01*
X73881000Y-49242500D01*
X73881000Y-49817500D01*
X73879856Y-49840779D01*
X73876437Y-49863834D01*
X73870773Y-49886443D01*
X73862921Y-49908387D01*
X73852956Y-49929457D01*
X73840974Y-49949448D01*
X73827090Y-49968168D01*
X73811438Y-49985438D01*
X73794168Y-50001090D01*
X73775448Y-50014974D01*
X73755457Y-50026956D01*
X73734387Y-50036921D01*
X73712443Y-50044773D01*
X73689834Y-50050437D01*
X73666779Y-50053856D01*
X73643500Y-50055000D01*
X73168500Y-50055000D01*
X73145221Y-50053856D01*
X73122166Y-50050437D01*
X73099557Y-50044773D01*
X73077613Y-50036921D01*
X73056543Y-50026956D01*
X73036552Y-50014974D01*
X73017832Y-50001090D01*
X73000562Y-49985438D01*
X72984910Y-49968168D01*
X72971026Y-49949448D01*
X72959044Y-49929457D01*
X72949079Y-49908387D01*
X72941227Y-49886443D01*
X72935563Y-49863834D01*
X72932144Y-49840779D01*
X72931000Y-49817500D01*
X72931000Y-49242500D01*
X72932144Y-49219221D01*
X72935563Y-49196166D01*
X72941227Y-49173557D01*
X72949079Y-49151613D01*
X72959044Y-49130543D01*
X72971026Y-49110552D01*
X72984910Y-49091832D01*
X73000562Y-49074562D01*
X73017832Y-49058910D01*
X73036552Y-49045026D01*
X73056543Y-49033044D01*
X73077613Y-49023079D01*
X73099557Y-49015227D01*
X73122166Y-49009563D01*
X73145221Y-49006144D01*
X73168500Y-49005000D01*
X73643500Y-49005000D01*
X73666779Y-49006144D01*
G37*
G36*
X73666779Y-43926144D02*
G01*
X73689834Y-43929563D01*
X73712443Y-43935227D01*
X73734387Y-43943079D01*
X73755457Y-43953044D01*
X73775448Y-43965026D01*
X73794168Y-43978910D01*
X73811438Y-43994562D01*
X73827090Y-44011832D01*
X73840974Y-44030552D01*
X73852956Y-44050543D01*
X73862921Y-44071613D01*
X73870773Y-44093557D01*
X73876437Y-44116166D01*
X73879856Y-44139221D01*
X73881000Y-44162500D01*
X73881000Y-44737500D01*
X73879856Y-44760779D01*
X73876437Y-44783834D01*
X73870773Y-44806443D01*
X73862921Y-44828387D01*
X73852956Y-44849457D01*
X73840974Y-44869448D01*
X73827090Y-44888168D01*
X73811438Y-44905438D01*
X73794168Y-44921090D01*
X73775448Y-44934974D01*
X73755457Y-44946956D01*
X73734387Y-44956921D01*
X73712443Y-44964773D01*
X73689834Y-44970437D01*
X73666779Y-44973856D01*
X73643500Y-44975000D01*
X73168500Y-44975000D01*
X73145221Y-44973856D01*
X73122166Y-44970437D01*
X73099557Y-44964773D01*
X73077613Y-44956921D01*
X73056543Y-44946956D01*
X73036552Y-44934974D01*
X73017832Y-44921090D01*
X73000562Y-44905438D01*
X72984910Y-44888168D01*
X72971026Y-44869448D01*
X72959044Y-44849457D01*
X72949079Y-44828387D01*
X72941227Y-44806443D01*
X72935563Y-44783834D01*
X72932144Y-44760779D01*
X72931000Y-44737500D01*
X72931000Y-44162500D01*
X72932144Y-44139221D01*
X72935563Y-44116166D01*
X72941227Y-44093557D01*
X72949079Y-44071613D01*
X72959044Y-44050543D01*
X72971026Y-44030552D01*
X72984910Y-44011832D01*
X73000562Y-43994562D01*
X73017832Y-43978910D01*
X73036552Y-43965026D01*
X73056543Y-43953044D01*
X73077613Y-43943079D01*
X73099557Y-43935227D01*
X73122166Y-43929563D01*
X73145221Y-43926144D01*
X73168500Y-43925000D01*
X73643500Y-43925000D01*
X73666779Y-43926144D01*
G37*
G36*
X73666779Y-45676144D02*
G01*
X73689834Y-45679563D01*
X73712443Y-45685227D01*
X73734387Y-45693079D01*
X73755457Y-45703044D01*
X73775448Y-45715026D01*
X73794168Y-45728910D01*
X73811438Y-45744562D01*
X73827090Y-45761832D01*
X73840974Y-45780552D01*
X73852956Y-45800543D01*
X73862921Y-45821613D01*
X73870773Y-45843557D01*
X73876437Y-45866166D01*
X73879856Y-45889221D01*
X73881000Y-45912500D01*
X73881000Y-46487500D01*
X73879856Y-46510779D01*
X73876437Y-46533834D01*
X73870773Y-46556443D01*
X73862921Y-46578387D01*
X73852956Y-46599457D01*
X73840974Y-46619448D01*
X73827090Y-46638168D01*
X73811438Y-46655438D01*
X73794168Y-46671090D01*
X73775448Y-46684974D01*
X73755457Y-46696956D01*
X73734387Y-46706921D01*
X73712443Y-46714773D01*
X73689834Y-46720437D01*
X73666779Y-46723856D01*
X73643500Y-46725000D01*
X73168500Y-46725000D01*
X73145221Y-46723856D01*
X73122166Y-46720437D01*
X73099557Y-46714773D01*
X73077613Y-46706921D01*
X73056543Y-46696956D01*
X73036552Y-46684974D01*
X73017832Y-46671090D01*
X73000562Y-46655438D01*
X72984910Y-46638168D01*
X72971026Y-46619448D01*
X72959044Y-46599457D01*
X72949079Y-46578387D01*
X72941227Y-46556443D01*
X72935563Y-46533834D01*
X72932144Y-46510779D01*
X72931000Y-46487500D01*
X72931000Y-45912500D01*
X72932144Y-45889221D01*
X72935563Y-45866166D01*
X72941227Y-45843557D01*
X72949079Y-45821613D01*
X72959044Y-45800543D01*
X72971026Y-45780552D01*
X72984910Y-45761832D01*
X73000562Y-45744562D01*
X73017832Y-45728910D01*
X73036552Y-45715026D01*
X73056543Y-45703044D01*
X73077613Y-45693079D01*
X73099557Y-45685227D01*
X73122166Y-45679563D01*
X73145221Y-45676144D01*
X73168500Y-45675000D01*
X73643500Y-45675000D01*
X73666779Y-45676144D01*
G37*
G36*
X115890504Y-52776704D02*
G01*
X115914773Y-52780304D01*
X115938571Y-52786265D01*
X115961671Y-52794530D01*
X115983849Y-52805020D01*
X116004893Y-52817633D01*
X116024598Y-52832247D01*
X116042777Y-52848723D01*
X116059253Y-52866902D01*
X116073867Y-52886607D01*
X116086480Y-52907651D01*
X116096970Y-52929829D01*
X116105235Y-52952929D01*
X116111196Y-52976727D01*
X116114796Y-53000996D01*
X116116000Y-53025500D01*
X116116000Y-55300500D01*
X116114796Y-55325004D01*
X116111196Y-55349273D01*
X116105235Y-55373071D01*
X116096970Y-55396171D01*
X116086480Y-55418349D01*
X116073867Y-55439393D01*
X116059253Y-55459098D01*
X116042777Y-55477277D01*
X116024598Y-55493753D01*
X116004893Y-55508367D01*
X115983849Y-55520980D01*
X115961671Y-55531470D01*
X115938571Y-55539735D01*
X115914773Y-55545696D01*
X115890504Y-55549296D01*
X115866000Y-55550500D01*
X114766000Y-55550500D01*
X114741496Y-55549296D01*
X114717227Y-55545696D01*
X114693429Y-55539735D01*
X114670329Y-55531470D01*
X114648151Y-55520980D01*
X114627107Y-55508367D01*
X114607402Y-55493753D01*
X114589223Y-55477277D01*
X114572747Y-55459098D01*
X114558133Y-55439393D01*
X114545520Y-55418349D01*
X114535030Y-55396171D01*
X114526765Y-55373071D01*
X114520804Y-55349273D01*
X114517204Y-55325004D01*
X114516000Y-55300500D01*
X114516000Y-53025500D01*
X114517204Y-53000996D01*
X114520804Y-52976727D01*
X114526765Y-52952929D01*
X114535030Y-52929829D01*
X114545520Y-52907651D01*
X114558133Y-52886607D01*
X114572747Y-52866902D01*
X114589223Y-52848723D01*
X114607402Y-52832247D01*
X114627107Y-52817633D01*
X114648151Y-52805020D01*
X114670329Y-52794530D01*
X114693429Y-52786265D01*
X114717227Y-52780304D01*
X114741496Y-52776704D01*
X114766000Y-52775500D01*
X115866000Y-52775500D01*
X115890504Y-52776704D01*
G37*
G36*
X115890504Y-48651704D02*
G01*
X115914773Y-48655304D01*
X115938571Y-48661265D01*
X115961671Y-48669530D01*
X115983849Y-48680020D01*
X116004893Y-48692633D01*
X116024598Y-48707247D01*
X116042777Y-48723723D01*
X116059253Y-48741902D01*
X116073867Y-48761607D01*
X116086480Y-48782651D01*
X116096970Y-48804829D01*
X116105235Y-48827929D01*
X116111196Y-48851727D01*
X116114796Y-48875996D01*
X116116000Y-48900500D01*
X116116000Y-51175500D01*
X116114796Y-51200004D01*
X116111196Y-51224273D01*
X116105235Y-51248071D01*
X116096970Y-51271171D01*
X116086480Y-51293349D01*
X116073867Y-51314393D01*
X116059253Y-51334098D01*
X116042777Y-51352277D01*
X116024598Y-51368753D01*
X116004893Y-51383367D01*
X115983849Y-51395980D01*
X115961671Y-51406470D01*
X115938571Y-51414735D01*
X115914773Y-51420696D01*
X115890504Y-51424296D01*
X115866000Y-51425500D01*
X114766000Y-51425500D01*
X114741496Y-51424296D01*
X114717227Y-51420696D01*
X114693429Y-51414735D01*
X114670329Y-51406470D01*
X114648151Y-51395980D01*
X114627107Y-51383367D01*
X114607402Y-51368753D01*
X114589223Y-51352277D01*
X114572747Y-51334098D01*
X114558133Y-51314393D01*
X114545520Y-51293349D01*
X114535030Y-51271171D01*
X114526765Y-51248071D01*
X114520804Y-51224273D01*
X114517204Y-51200004D01*
X114516000Y-51175500D01*
X114516000Y-48900500D01*
X114517204Y-48875996D01*
X114520804Y-48851727D01*
X114526765Y-48827929D01*
X114535030Y-48804829D01*
X114545520Y-48782651D01*
X114558133Y-48761607D01*
X114572747Y-48741902D01*
X114589223Y-48723723D01*
X114607402Y-48707247D01*
X114627107Y-48692633D01*
X114648151Y-48680020D01*
X114670329Y-48669530D01*
X114693429Y-48661265D01*
X114717227Y-48655304D01*
X114741496Y-48651704D01*
X114766000Y-48650500D01*
X115866000Y-48650500D01*
X115890504Y-48651704D01*
G37*
G36*
X115890504Y-39954704D02*
G01*
X115914773Y-39958304D01*
X115938571Y-39964265D01*
X115961671Y-39972530D01*
X115983849Y-39983020D01*
X116004893Y-39995633D01*
X116024598Y-40010247D01*
X116042777Y-40026723D01*
X116059253Y-40044902D01*
X116073867Y-40064607D01*
X116086480Y-40085651D01*
X116096970Y-40107829D01*
X116105235Y-40130929D01*
X116111196Y-40154727D01*
X116114796Y-40178996D01*
X116116000Y-40203500D01*
X116116000Y-42478500D01*
X116114796Y-42503004D01*
X116111196Y-42527273D01*
X116105235Y-42551071D01*
X116096970Y-42574171D01*
X116086480Y-42596349D01*
X116073867Y-42617393D01*
X116059253Y-42637098D01*
X116042777Y-42655277D01*
X116024598Y-42671753D01*
X116004893Y-42686367D01*
X115983849Y-42698980D01*
X115961671Y-42709470D01*
X115938571Y-42717735D01*
X115914773Y-42723696D01*
X115890504Y-42727296D01*
X115866000Y-42728500D01*
X114766000Y-42728500D01*
X114741496Y-42727296D01*
X114717227Y-42723696D01*
X114693429Y-42717735D01*
X114670329Y-42709470D01*
X114648151Y-42698980D01*
X114627107Y-42686367D01*
X114607402Y-42671753D01*
X114589223Y-42655277D01*
X114572747Y-42637098D01*
X114558133Y-42617393D01*
X114545520Y-42596349D01*
X114535030Y-42574171D01*
X114526765Y-42551071D01*
X114520804Y-42527273D01*
X114517204Y-42503004D01*
X114516000Y-42478500D01*
X114516000Y-40203500D01*
X114517204Y-40178996D01*
X114520804Y-40154727D01*
X114526765Y-40130929D01*
X114535030Y-40107829D01*
X114545520Y-40085651D01*
X114558133Y-40064607D01*
X114572747Y-40044902D01*
X114589223Y-40026723D01*
X114607402Y-40010247D01*
X114627107Y-39995633D01*
X114648151Y-39983020D01*
X114670329Y-39972530D01*
X114693429Y-39964265D01*
X114717227Y-39958304D01*
X114741496Y-39954704D01*
X114766000Y-39953500D01*
X115866000Y-39953500D01*
X115890504Y-39954704D01*
G37*
G36*
X115890504Y-44079704D02*
G01*
X115914773Y-44083304D01*
X115938571Y-44089265D01*
X115961671Y-44097530D01*
X115983849Y-44108020D01*
X116004893Y-44120633D01*
X116024598Y-44135247D01*
X116042777Y-44151723D01*
X116059253Y-44169902D01*
X116073867Y-44189607D01*
X116086480Y-44210651D01*
X116096970Y-44232829D01*
X116105235Y-44255929D01*
X116111196Y-44279727D01*
X116114796Y-44303996D01*
X116116000Y-44328500D01*
X116116000Y-46603500D01*
X116114796Y-46628004D01*
X116111196Y-46652273D01*
X116105235Y-46676071D01*
X116096970Y-46699171D01*
X116086480Y-46721349D01*
X116073867Y-46742393D01*
X116059253Y-46762098D01*
X116042777Y-46780277D01*
X116024598Y-46796753D01*
X116004893Y-46811367D01*
X115983849Y-46823980D01*
X115961671Y-46834470D01*
X115938571Y-46842735D01*
X115914773Y-46848696D01*
X115890504Y-46852296D01*
X115866000Y-46853500D01*
X114766000Y-46853500D01*
X114741496Y-46852296D01*
X114717227Y-46848696D01*
X114693429Y-46842735D01*
X114670329Y-46834470D01*
X114648151Y-46823980D01*
X114627107Y-46811367D01*
X114607402Y-46796753D01*
X114589223Y-46780277D01*
X114572747Y-46762098D01*
X114558133Y-46742393D01*
X114545520Y-46721349D01*
X114535030Y-46699171D01*
X114526765Y-46676071D01*
X114520804Y-46652273D01*
X114517204Y-46628004D01*
X114516000Y-46603500D01*
X114516000Y-44328500D01*
X114517204Y-44303996D01*
X114520804Y-44279727D01*
X114526765Y-44255929D01*
X114535030Y-44232829D01*
X114545520Y-44210651D01*
X114558133Y-44189607D01*
X114572747Y-44169902D01*
X114589223Y-44151723D01*
X114607402Y-44135247D01*
X114627107Y-44120633D01*
X114648151Y-44108020D01*
X114670329Y-44097530D01*
X114693429Y-44089265D01*
X114717227Y-44083304D01*
X114741496Y-44079704D01*
X114766000Y-44078500D01*
X115866000Y-44078500D01*
X115890504Y-44079704D01*
G37*
G36*
X85654779Y-87410144D02*
G01*
X85677834Y-87413563D01*
X85700443Y-87419227D01*
X85722387Y-87427079D01*
X85743457Y-87437044D01*
X85763448Y-87449026D01*
X85782168Y-87462910D01*
X85799438Y-87478562D01*
X85815090Y-87495832D01*
X85828974Y-87514552D01*
X85840956Y-87534543D01*
X85850921Y-87555613D01*
X85858773Y-87577557D01*
X85864437Y-87600166D01*
X85867856Y-87623221D01*
X85869000Y-87646500D01*
X85869000Y-88121500D01*
X85867856Y-88144779D01*
X85864437Y-88167834D01*
X85858773Y-88190443D01*
X85850921Y-88212387D01*
X85840956Y-88233457D01*
X85828974Y-88253448D01*
X85815090Y-88272168D01*
X85799438Y-88289438D01*
X85782168Y-88305090D01*
X85763448Y-88318974D01*
X85743457Y-88330956D01*
X85722387Y-88340921D01*
X85700443Y-88348773D01*
X85677834Y-88354437D01*
X85654779Y-88357856D01*
X85631500Y-88359000D01*
X85056500Y-88359000D01*
X85033221Y-88357856D01*
X85010166Y-88354437D01*
X84987557Y-88348773D01*
X84965613Y-88340921D01*
X84944543Y-88330956D01*
X84924552Y-88318974D01*
X84905832Y-88305090D01*
X84888562Y-88289438D01*
X84872910Y-88272168D01*
X84859026Y-88253448D01*
X84847044Y-88233457D01*
X84837079Y-88212387D01*
X84829227Y-88190443D01*
X84823563Y-88167834D01*
X84820144Y-88144779D01*
X84819000Y-88121500D01*
X84819000Y-87646500D01*
X84820144Y-87623221D01*
X84823563Y-87600166D01*
X84829227Y-87577557D01*
X84837079Y-87555613D01*
X84847044Y-87534543D01*
X84859026Y-87514552D01*
X84872910Y-87495832D01*
X84888562Y-87478562D01*
X84905832Y-87462910D01*
X84924552Y-87449026D01*
X84944543Y-87437044D01*
X84965613Y-87427079D01*
X84987557Y-87419227D01*
X85010166Y-87413563D01*
X85033221Y-87410144D01*
X85056500Y-87409000D01*
X85631500Y-87409000D01*
X85654779Y-87410144D01*
G37*
G36*
X87404779Y-87410144D02*
G01*
X87427834Y-87413563D01*
X87450443Y-87419227D01*
X87472387Y-87427079D01*
X87493457Y-87437044D01*
X87513448Y-87449026D01*
X87532168Y-87462910D01*
X87549438Y-87478562D01*
X87565090Y-87495832D01*
X87578974Y-87514552D01*
X87590956Y-87534543D01*
X87600921Y-87555613D01*
X87608773Y-87577557D01*
X87614437Y-87600166D01*
X87617856Y-87623221D01*
X87619000Y-87646500D01*
X87619000Y-88121500D01*
X87617856Y-88144779D01*
X87614437Y-88167834D01*
X87608773Y-88190443D01*
X87600921Y-88212387D01*
X87590956Y-88233457D01*
X87578974Y-88253448D01*
X87565090Y-88272168D01*
X87549438Y-88289438D01*
X87532168Y-88305090D01*
X87513448Y-88318974D01*
X87493457Y-88330956D01*
X87472387Y-88340921D01*
X87450443Y-88348773D01*
X87427834Y-88354437D01*
X87404779Y-88357856D01*
X87381500Y-88359000D01*
X86806500Y-88359000D01*
X86783221Y-88357856D01*
X86760166Y-88354437D01*
X86737557Y-88348773D01*
X86715613Y-88340921D01*
X86694543Y-88330956D01*
X86674552Y-88318974D01*
X86655832Y-88305090D01*
X86638562Y-88289438D01*
X86622910Y-88272168D01*
X86609026Y-88253448D01*
X86597044Y-88233457D01*
X86587079Y-88212387D01*
X86579227Y-88190443D01*
X86573563Y-88167834D01*
X86570144Y-88144779D01*
X86569000Y-88121500D01*
X86569000Y-87646500D01*
X86570144Y-87623221D01*
X86573563Y-87600166D01*
X86579227Y-87577557D01*
X86587079Y-87555613D01*
X86597044Y-87534543D01*
X86609026Y-87514552D01*
X86622910Y-87495832D01*
X86638562Y-87478562D01*
X86655832Y-87462910D01*
X86674552Y-87449026D01*
X86694543Y-87437044D01*
X86715613Y-87427079D01*
X86737557Y-87419227D01*
X86760166Y-87413563D01*
X86783221Y-87410144D01*
X86806500Y-87409000D01*
X87381500Y-87409000D01*
X87404779Y-87410144D01*
G37*
G36*
X79149779Y-88426144D02*
G01*
X79172834Y-88429563D01*
X79195443Y-88435227D01*
X79217387Y-88443079D01*
X79238457Y-88453044D01*
X79258448Y-88465026D01*
X79277168Y-88478910D01*
X79294438Y-88494562D01*
X79310090Y-88511832D01*
X79323974Y-88530552D01*
X79335956Y-88550543D01*
X79345921Y-88571613D01*
X79353773Y-88593557D01*
X79359437Y-88616166D01*
X79362856Y-88639221D01*
X79364000Y-88662500D01*
X79364000Y-89137500D01*
X79362856Y-89160779D01*
X79359437Y-89183834D01*
X79353773Y-89206443D01*
X79345921Y-89228387D01*
X79335956Y-89249457D01*
X79323974Y-89269448D01*
X79310090Y-89288168D01*
X79294438Y-89305438D01*
X79277168Y-89321090D01*
X79258448Y-89334974D01*
X79238457Y-89346956D01*
X79217387Y-89356921D01*
X79195443Y-89364773D01*
X79172834Y-89370437D01*
X79149779Y-89373856D01*
X79126500Y-89375000D01*
X78551500Y-89375000D01*
X78528221Y-89373856D01*
X78505166Y-89370437D01*
X78482557Y-89364773D01*
X78460613Y-89356921D01*
X78439543Y-89346956D01*
X78419552Y-89334974D01*
X78400832Y-89321090D01*
X78383562Y-89305438D01*
X78367910Y-89288168D01*
X78354026Y-89269448D01*
X78342044Y-89249457D01*
X78332079Y-89228387D01*
X78324227Y-89206443D01*
X78318563Y-89183834D01*
X78315144Y-89160779D01*
X78314000Y-89137500D01*
X78314000Y-88662500D01*
X78315144Y-88639221D01*
X78318563Y-88616166D01*
X78324227Y-88593557D01*
X78332079Y-88571613D01*
X78342044Y-88550543D01*
X78354026Y-88530552D01*
X78367910Y-88511832D01*
X78383562Y-88494562D01*
X78400832Y-88478910D01*
X78419552Y-88465026D01*
X78439543Y-88453044D01*
X78460613Y-88443079D01*
X78482557Y-88435227D01*
X78505166Y-88429563D01*
X78528221Y-88426144D01*
X78551500Y-88425000D01*
X79126500Y-88425000D01*
X79149779Y-88426144D01*
G37*
G36*
X77399779Y-88426144D02*
G01*
X77422834Y-88429563D01*
X77445443Y-88435227D01*
X77467387Y-88443079D01*
X77488457Y-88453044D01*
X77508448Y-88465026D01*
X77527168Y-88478910D01*
X77544438Y-88494562D01*
X77560090Y-88511832D01*
X77573974Y-88530552D01*
X77585956Y-88550543D01*
X77595921Y-88571613D01*
X77603773Y-88593557D01*
X77609437Y-88616166D01*
X77612856Y-88639221D01*
X77614000Y-88662500D01*
X77614000Y-89137500D01*
X77612856Y-89160779D01*
X77609437Y-89183834D01*
X77603773Y-89206443D01*
X77595921Y-89228387D01*
X77585956Y-89249457D01*
X77573974Y-89269448D01*
X77560090Y-89288168D01*
X77544438Y-89305438D01*
X77527168Y-89321090D01*
X77508448Y-89334974D01*
X77488457Y-89346956D01*
X77467387Y-89356921D01*
X77445443Y-89364773D01*
X77422834Y-89370437D01*
X77399779Y-89373856D01*
X77376500Y-89375000D01*
X76801500Y-89375000D01*
X76778221Y-89373856D01*
X76755166Y-89370437D01*
X76732557Y-89364773D01*
X76710613Y-89356921D01*
X76689543Y-89346956D01*
X76669552Y-89334974D01*
X76650832Y-89321090D01*
X76633562Y-89305438D01*
X76617910Y-89288168D01*
X76604026Y-89269448D01*
X76592044Y-89249457D01*
X76582079Y-89228387D01*
X76574227Y-89206443D01*
X76568563Y-89183834D01*
X76565144Y-89160779D01*
X76564000Y-89137500D01*
X76564000Y-88662500D01*
X76565144Y-88639221D01*
X76568563Y-88616166D01*
X76574227Y-88593557D01*
X76582079Y-88571613D01*
X76592044Y-88550543D01*
X76604026Y-88530552D01*
X76617910Y-88511832D01*
X76633562Y-88494562D01*
X76650832Y-88478910D01*
X76669552Y-88465026D01*
X76689543Y-88453044D01*
X76710613Y-88443079D01*
X76732557Y-88435227D01*
X76755166Y-88429563D01*
X76778221Y-88426144D01*
X76801500Y-88425000D01*
X77376500Y-88425000D01*
X77399779Y-88426144D01*
G37*
G36*
X94989279Y-94141144D02*
G01*
X95012334Y-94144563D01*
X95034943Y-94150227D01*
X95056887Y-94158079D01*
X95077957Y-94168044D01*
X95097948Y-94180026D01*
X95116668Y-94193910D01*
X95133938Y-94209562D01*
X95149590Y-94226832D01*
X95163474Y-94245552D01*
X95175456Y-94265543D01*
X95185421Y-94286613D01*
X95193273Y-94308557D01*
X95198937Y-94331166D01*
X95202356Y-94354221D01*
X95203500Y-94377500D01*
X95203500Y-94852500D01*
X95202356Y-94875779D01*
X95198937Y-94898834D01*
X95193273Y-94921443D01*
X95185421Y-94943387D01*
X95175456Y-94964457D01*
X95163474Y-94984448D01*
X95149590Y-95003168D01*
X95133938Y-95020438D01*
X95116668Y-95036090D01*
X95097948Y-95049974D01*
X95077957Y-95061956D01*
X95056887Y-95071921D01*
X95034943Y-95079773D01*
X95012334Y-95085437D01*
X94989279Y-95088856D01*
X94966000Y-95090000D01*
X94391000Y-95090000D01*
X94367721Y-95088856D01*
X94344666Y-95085437D01*
X94322057Y-95079773D01*
X94300113Y-95071921D01*
X94279043Y-95061956D01*
X94259052Y-95049974D01*
X94240332Y-95036090D01*
X94223062Y-95020438D01*
X94207410Y-95003168D01*
X94193526Y-94984448D01*
X94181544Y-94964457D01*
X94171579Y-94943387D01*
X94163727Y-94921443D01*
X94158063Y-94898834D01*
X94154644Y-94875779D01*
X94153500Y-94852500D01*
X94153500Y-94377500D01*
X94154644Y-94354221D01*
X94158063Y-94331166D01*
X94163727Y-94308557D01*
X94171579Y-94286613D01*
X94181544Y-94265543D01*
X94193526Y-94245552D01*
X94207410Y-94226832D01*
X94223062Y-94209562D01*
X94240332Y-94193910D01*
X94259052Y-94180026D01*
X94279043Y-94168044D01*
X94300113Y-94158079D01*
X94322057Y-94150227D01*
X94344666Y-94144563D01*
X94367721Y-94141144D01*
X94391000Y-94140000D01*
X94966000Y-94140000D01*
X94989279Y-94141144D01*
G37*
G36*
X93239279Y-94141144D02*
G01*
X93262334Y-94144563D01*
X93284943Y-94150227D01*
X93306887Y-94158079D01*
X93327957Y-94168044D01*
X93347948Y-94180026D01*
X93366668Y-94193910D01*
X93383938Y-94209562D01*
X93399590Y-94226832D01*
X93413474Y-94245552D01*
X93425456Y-94265543D01*
X93435421Y-94286613D01*
X93443273Y-94308557D01*
X93448937Y-94331166D01*
X93452356Y-94354221D01*
X93453500Y-94377500D01*
X93453500Y-94852500D01*
X93452356Y-94875779D01*
X93448937Y-94898834D01*
X93443273Y-94921443D01*
X93435421Y-94943387D01*
X93425456Y-94964457D01*
X93413474Y-94984448D01*
X93399590Y-95003168D01*
X93383938Y-95020438D01*
X93366668Y-95036090D01*
X93347948Y-95049974D01*
X93327957Y-95061956D01*
X93306887Y-95071921D01*
X93284943Y-95079773D01*
X93262334Y-95085437D01*
X93239279Y-95088856D01*
X93216000Y-95090000D01*
X92641000Y-95090000D01*
X92617721Y-95088856D01*
X92594666Y-95085437D01*
X92572057Y-95079773D01*
X92550113Y-95071921D01*
X92529043Y-95061956D01*
X92509052Y-95049974D01*
X92490332Y-95036090D01*
X92473062Y-95020438D01*
X92457410Y-95003168D01*
X92443526Y-94984448D01*
X92431544Y-94964457D01*
X92421579Y-94943387D01*
X92413727Y-94921443D01*
X92408063Y-94898834D01*
X92404644Y-94875779D01*
X92403500Y-94852500D01*
X92403500Y-94377500D01*
X92404644Y-94354221D01*
X92408063Y-94331166D01*
X92413727Y-94308557D01*
X92421579Y-94286613D01*
X92431544Y-94265543D01*
X92443526Y-94245552D01*
X92457410Y-94226832D01*
X92473062Y-94209562D01*
X92490332Y-94193910D01*
X92509052Y-94180026D01*
X92529043Y-94168044D01*
X92550113Y-94158079D01*
X92572057Y-94150227D01*
X92594666Y-94144563D01*
X92617721Y-94141144D01*
X92641000Y-94140000D01*
X93216000Y-94140000D01*
X93239279Y-94141144D01*
G37*
G36*
X85858779Y-96504144D02*
G01*
X85881834Y-96507563D01*
X85904443Y-96513227D01*
X85926387Y-96521079D01*
X85947457Y-96531044D01*
X85967448Y-96543026D01*
X85986168Y-96556910D01*
X86003438Y-96572562D01*
X86019090Y-96589832D01*
X86032974Y-96608552D01*
X86044956Y-96628543D01*
X86054921Y-96649613D01*
X86062773Y-96671557D01*
X86068437Y-96694166D01*
X86071856Y-96717221D01*
X86073000Y-96740500D01*
X86073000Y-97315500D01*
X86071856Y-97338779D01*
X86068437Y-97361834D01*
X86062773Y-97384443D01*
X86054921Y-97406387D01*
X86044956Y-97427457D01*
X86032974Y-97447448D01*
X86019090Y-97466168D01*
X86003438Y-97483438D01*
X85986168Y-97499090D01*
X85967448Y-97512974D01*
X85947457Y-97524956D01*
X85926387Y-97534921D01*
X85904443Y-97542773D01*
X85881834Y-97548437D01*
X85858779Y-97551856D01*
X85835500Y-97553000D01*
X85360500Y-97553000D01*
X85337221Y-97551856D01*
X85314166Y-97548437D01*
X85291557Y-97542773D01*
X85269613Y-97534921D01*
X85248543Y-97524956D01*
X85228552Y-97512974D01*
X85209832Y-97499090D01*
X85192562Y-97483438D01*
X85176910Y-97466168D01*
X85163026Y-97447448D01*
X85151044Y-97427457D01*
X85141079Y-97406387D01*
X85133227Y-97384443D01*
X85127563Y-97361834D01*
X85124144Y-97338779D01*
X85123000Y-97315500D01*
X85123000Y-96740500D01*
X85124144Y-96717221D01*
X85127563Y-96694166D01*
X85133227Y-96671557D01*
X85141079Y-96649613D01*
X85151044Y-96628543D01*
X85163026Y-96608552D01*
X85176910Y-96589832D01*
X85192562Y-96572562D01*
X85209832Y-96556910D01*
X85228552Y-96543026D01*
X85248543Y-96531044D01*
X85269613Y-96521079D01*
X85291557Y-96513227D01*
X85314166Y-96507563D01*
X85337221Y-96504144D01*
X85360500Y-96503000D01*
X85835500Y-96503000D01*
X85858779Y-96504144D01*
G37*
G36*
X85858779Y-94754144D02*
G01*
X85881834Y-94757563D01*
X85904443Y-94763227D01*
X85926387Y-94771079D01*
X85947457Y-94781044D01*
X85967448Y-94793026D01*
X85986168Y-94806910D01*
X86003438Y-94822562D01*
X86019090Y-94839832D01*
X86032974Y-94858552D01*
X86044956Y-94878543D01*
X86054921Y-94899613D01*
X86062773Y-94921557D01*
X86068437Y-94944166D01*
X86071856Y-94967221D01*
X86073000Y-94990500D01*
X86073000Y-95565500D01*
X86071856Y-95588779D01*
X86068437Y-95611834D01*
X86062773Y-95634443D01*
X86054921Y-95656387D01*
X86044956Y-95677457D01*
X86032974Y-95697448D01*
X86019090Y-95716168D01*
X86003438Y-95733438D01*
X85986168Y-95749090D01*
X85967448Y-95762974D01*
X85947457Y-95774956D01*
X85926387Y-95784921D01*
X85904443Y-95792773D01*
X85881834Y-95798437D01*
X85858779Y-95801856D01*
X85835500Y-95803000D01*
X85360500Y-95803000D01*
X85337221Y-95801856D01*
X85314166Y-95798437D01*
X85291557Y-95792773D01*
X85269613Y-95784921D01*
X85248543Y-95774956D01*
X85228552Y-95762974D01*
X85209832Y-95749090D01*
X85192562Y-95733438D01*
X85176910Y-95716168D01*
X85163026Y-95697448D01*
X85151044Y-95677457D01*
X85141079Y-95656387D01*
X85133227Y-95634443D01*
X85127563Y-95611834D01*
X85124144Y-95588779D01*
X85123000Y-95565500D01*
X85123000Y-94990500D01*
X85124144Y-94967221D01*
X85127563Y-94944166D01*
X85133227Y-94921557D01*
X85141079Y-94899613D01*
X85151044Y-94878543D01*
X85163026Y-94858552D01*
X85176910Y-94839832D01*
X85192562Y-94822562D01*
X85209832Y-94806910D01*
X85228552Y-94793026D01*
X85248543Y-94781044D01*
X85269613Y-94771079D01*
X85291557Y-94763227D01*
X85314166Y-94757563D01*
X85337221Y-94754144D01*
X85360500Y-94753000D01*
X85835500Y-94753000D01*
X85858779Y-94754144D01*
G37*
G36*
X75494779Y-86648144D02*
G01*
X75517834Y-86651563D01*
X75540443Y-86657227D01*
X75562387Y-86665079D01*
X75583457Y-86675044D01*
X75603448Y-86687026D01*
X75622168Y-86700910D01*
X75639438Y-86716562D01*
X75655090Y-86733832D01*
X75668974Y-86752552D01*
X75680956Y-86772543D01*
X75690921Y-86793613D01*
X75698773Y-86815557D01*
X75704437Y-86838166D01*
X75707856Y-86861221D01*
X75709000Y-86884500D01*
X75709000Y-87359500D01*
X75707856Y-87382779D01*
X75704437Y-87405834D01*
X75698773Y-87428443D01*
X75690921Y-87450387D01*
X75680956Y-87471457D01*
X75668974Y-87491448D01*
X75655090Y-87510168D01*
X75639438Y-87527438D01*
X75622168Y-87543090D01*
X75603448Y-87556974D01*
X75583457Y-87568956D01*
X75562387Y-87578921D01*
X75540443Y-87586773D01*
X75517834Y-87592437D01*
X75494779Y-87595856D01*
X75471500Y-87597000D01*
X74896500Y-87597000D01*
X74873221Y-87595856D01*
X74850166Y-87592437D01*
X74827557Y-87586773D01*
X74805613Y-87578921D01*
X74784543Y-87568956D01*
X74764552Y-87556974D01*
X74745832Y-87543090D01*
X74728562Y-87527438D01*
X74712910Y-87510168D01*
X74699026Y-87491448D01*
X74687044Y-87471457D01*
X74677079Y-87450387D01*
X74669227Y-87428443D01*
X74663563Y-87405834D01*
X74660144Y-87382779D01*
X74659000Y-87359500D01*
X74659000Y-86884500D01*
X74660144Y-86861221D01*
X74663563Y-86838166D01*
X74669227Y-86815557D01*
X74677079Y-86793613D01*
X74687044Y-86772543D01*
X74699026Y-86752552D01*
X74712910Y-86733832D01*
X74728562Y-86716562D01*
X74745832Y-86700910D01*
X74764552Y-86687026D01*
X74784543Y-86675044D01*
X74805613Y-86665079D01*
X74827557Y-86657227D01*
X74850166Y-86651563D01*
X74873221Y-86648144D01*
X74896500Y-86647000D01*
X75471500Y-86647000D01*
X75494779Y-86648144D01*
G37*
G36*
X73744779Y-86648144D02*
G01*
X73767834Y-86651563D01*
X73790443Y-86657227D01*
X73812387Y-86665079D01*
X73833457Y-86675044D01*
X73853448Y-86687026D01*
X73872168Y-86700910D01*
X73889438Y-86716562D01*
X73905090Y-86733832D01*
X73918974Y-86752552D01*
X73930956Y-86772543D01*
X73940921Y-86793613D01*
X73948773Y-86815557D01*
X73954437Y-86838166D01*
X73957856Y-86861221D01*
X73959000Y-86884500D01*
X73959000Y-87359500D01*
X73957856Y-87382779D01*
X73954437Y-87405834D01*
X73948773Y-87428443D01*
X73940921Y-87450387D01*
X73930956Y-87471457D01*
X73918974Y-87491448D01*
X73905090Y-87510168D01*
X73889438Y-87527438D01*
X73872168Y-87543090D01*
X73853448Y-87556974D01*
X73833457Y-87568956D01*
X73812387Y-87578921D01*
X73790443Y-87586773D01*
X73767834Y-87592437D01*
X73744779Y-87595856D01*
X73721500Y-87597000D01*
X73146500Y-87597000D01*
X73123221Y-87595856D01*
X73100166Y-87592437D01*
X73077557Y-87586773D01*
X73055613Y-87578921D01*
X73034543Y-87568956D01*
X73014552Y-87556974D01*
X72995832Y-87543090D01*
X72978562Y-87527438D01*
X72962910Y-87510168D01*
X72949026Y-87491448D01*
X72937044Y-87471457D01*
X72927079Y-87450387D01*
X72919227Y-87428443D01*
X72913563Y-87405834D01*
X72910144Y-87382779D01*
X72909000Y-87359500D01*
X72909000Y-86884500D01*
X72910144Y-86861221D01*
X72913563Y-86838166D01*
X72919227Y-86815557D01*
X72927079Y-86793613D01*
X72937044Y-86772543D01*
X72949026Y-86752552D01*
X72962910Y-86733832D01*
X72978562Y-86716562D01*
X72995832Y-86700910D01*
X73014552Y-86687026D01*
X73034543Y-86675044D01*
X73055613Y-86665079D01*
X73077557Y-86657227D01*
X73100166Y-86651563D01*
X73123221Y-86648144D01*
X73146500Y-86647000D01*
X73721500Y-86647000D01*
X73744779Y-86648144D01*
G37*
G36*
X76891779Y-83346144D02*
G01*
X76914834Y-83349563D01*
X76937443Y-83355227D01*
X76959387Y-83363079D01*
X76980457Y-83373044D01*
X77000448Y-83385026D01*
X77019168Y-83398910D01*
X77036438Y-83414562D01*
X77052090Y-83431832D01*
X77065974Y-83450552D01*
X77077956Y-83470543D01*
X77087921Y-83491613D01*
X77095773Y-83513557D01*
X77101437Y-83536166D01*
X77104856Y-83559221D01*
X77106000Y-83582500D01*
X77106000Y-84057500D01*
X77104856Y-84080779D01*
X77101437Y-84103834D01*
X77095773Y-84126443D01*
X77087921Y-84148387D01*
X77077956Y-84169457D01*
X77065974Y-84189448D01*
X77052090Y-84208168D01*
X77036438Y-84225438D01*
X77019168Y-84241090D01*
X77000448Y-84254974D01*
X76980457Y-84266956D01*
X76959387Y-84276921D01*
X76937443Y-84284773D01*
X76914834Y-84290437D01*
X76891779Y-84293856D01*
X76868500Y-84295000D01*
X76293500Y-84295000D01*
X76270221Y-84293856D01*
X76247166Y-84290437D01*
X76224557Y-84284773D01*
X76202613Y-84276921D01*
X76181543Y-84266956D01*
X76161552Y-84254974D01*
X76142832Y-84241090D01*
X76125562Y-84225438D01*
X76109910Y-84208168D01*
X76096026Y-84189448D01*
X76084044Y-84169457D01*
X76074079Y-84148387D01*
X76066227Y-84126443D01*
X76060563Y-84103834D01*
X76057144Y-84080779D01*
X76056000Y-84057500D01*
X76056000Y-83582500D01*
X76057144Y-83559221D01*
X76060563Y-83536166D01*
X76066227Y-83513557D01*
X76074079Y-83491613D01*
X76084044Y-83470543D01*
X76096026Y-83450552D01*
X76109910Y-83431832D01*
X76125562Y-83414562D01*
X76142832Y-83398910D01*
X76161552Y-83385026D01*
X76181543Y-83373044D01*
X76202613Y-83363079D01*
X76224557Y-83355227D01*
X76247166Y-83349563D01*
X76270221Y-83346144D01*
X76293500Y-83345000D01*
X76868500Y-83345000D01*
X76891779Y-83346144D01*
G37*
G36*
X78641779Y-83346144D02*
G01*
X78664834Y-83349563D01*
X78687443Y-83355227D01*
X78709387Y-83363079D01*
X78730457Y-83373044D01*
X78750448Y-83385026D01*
X78769168Y-83398910D01*
X78786438Y-83414562D01*
X78802090Y-83431832D01*
X78815974Y-83450552D01*
X78827956Y-83470543D01*
X78837921Y-83491613D01*
X78845773Y-83513557D01*
X78851437Y-83536166D01*
X78854856Y-83559221D01*
X78856000Y-83582500D01*
X78856000Y-84057500D01*
X78854856Y-84080779D01*
X78851437Y-84103834D01*
X78845773Y-84126443D01*
X78837921Y-84148387D01*
X78827956Y-84169457D01*
X78815974Y-84189448D01*
X78802090Y-84208168D01*
X78786438Y-84225438D01*
X78769168Y-84241090D01*
X78750448Y-84254974D01*
X78730457Y-84266956D01*
X78709387Y-84276921D01*
X78687443Y-84284773D01*
X78664834Y-84290437D01*
X78641779Y-84293856D01*
X78618500Y-84295000D01*
X78043500Y-84295000D01*
X78020221Y-84293856D01*
X77997166Y-84290437D01*
X77974557Y-84284773D01*
X77952613Y-84276921D01*
X77931543Y-84266956D01*
X77911552Y-84254974D01*
X77892832Y-84241090D01*
X77875562Y-84225438D01*
X77859910Y-84208168D01*
X77846026Y-84189448D01*
X77834044Y-84169457D01*
X77824079Y-84148387D01*
X77816227Y-84126443D01*
X77810563Y-84103834D01*
X77807144Y-84080779D01*
X77806000Y-84057500D01*
X77806000Y-83582500D01*
X77807144Y-83559221D01*
X77810563Y-83536166D01*
X77816227Y-83513557D01*
X77824079Y-83491613D01*
X77834044Y-83470543D01*
X77846026Y-83450552D01*
X77859910Y-83431832D01*
X77875562Y-83414562D01*
X77892832Y-83398910D01*
X77911552Y-83385026D01*
X77931543Y-83373044D01*
X77952613Y-83363079D01*
X77974557Y-83355227D01*
X77997166Y-83349563D01*
X78020221Y-83346144D01*
X78043500Y-83345000D01*
X78618500Y-83345000D01*
X78641779Y-83346144D01*
G37*
G36*
X85809779Y-92363144D02*
G01*
X85832834Y-92366563D01*
X85855443Y-92372227D01*
X85877387Y-92380079D01*
X85898457Y-92390044D01*
X85918448Y-92402026D01*
X85937168Y-92415910D01*
X85954438Y-92431562D01*
X85970090Y-92448832D01*
X85983974Y-92467552D01*
X85995956Y-92487543D01*
X86005921Y-92508613D01*
X86013773Y-92530557D01*
X86019437Y-92553166D01*
X86022856Y-92576221D01*
X86024000Y-92599500D01*
X86024000Y-93074500D01*
X86022856Y-93097779D01*
X86019437Y-93120834D01*
X86013773Y-93143443D01*
X86005921Y-93165387D01*
X85995956Y-93186457D01*
X85983974Y-93206448D01*
X85970090Y-93225168D01*
X85954438Y-93242438D01*
X85937168Y-93258090D01*
X85918448Y-93271974D01*
X85898457Y-93283956D01*
X85877387Y-93293921D01*
X85855443Y-93301773D01*
X85832834Y-93307437D01*
X85809779Y-93310856D01*
X85786500Y-93312000D01*
X85211500Y-93312000D01*
X85188221Y-93310856D01*
X85165166Y-93307437D01*
X85142557Y-93301773D01*
X85120613Y-93293921D01*
X85099543Y-93283956D01*
X85079552Y-93271974D01*
X85060832Y-93258090D01*
X85043562Y-93242438D01*
X85027910Y-93225168D01*
X85014026Y-93206448D01*
X85002044Y-93186457D01*
X84992079Y-93165387D01*
X84984227Y-93143443D01*
X84978563Y-93120834D01*
X84975144Y-93097779D01*
X84974000Y-93074500D01*
X84974000Y-92599500D01*
X84975144Y-92576221D01*
X84978563Y-92553166D01*
X84984227Y-92530557D01*
X84992079Y-92508613D01*
X85002044Y-92487543D01*
X85014026Y-92467552D01*
X85027910Y-92448832D01*
X85043562Y-92431562D01*
X85060832Y-92415910D01*
X85079552Y-92402026D01*
X85099543Y-92390044D01*
X85120613Y-92380079D01*
X85142557Y-92372227D01*
X85165166Y-92366563D01*
X85188221Y-92363144D01*
X85211500Y-92362000D01*
X85786500Y-92362000D01*
X85809779Y-92363144D01*
G37*
G36*
X87559779Y-92363144D02*
G01*
X87582834Y-92366563D01*
X87605443Y-92372227D01*
X87627387Y-92380079D01*
X87648457Y-92390044D01*
X87668448Y-92402026D01*
X87687168Y-92415910D01*
X87704438Y-92431562D01*
X87720090Y-92448832D01*
X87733974Y-92467552D01*
X87745956Y-92487543D01*
X87755921Y-92508613D01*
X87763773Y-92530557D01*
X87769437Y-92553166D01*
X87772856Y-92576221D01*
X87774000Y-92599500D01*
X87774000Y-93074500D01*
X87772856Y-93097779D01*
X87769437Y-93120834D01*
X87763773Y-93143443D01*
X87755921Y-93165387D01*
X87745956Y-93186457D01*
X87733974Y-93206448D01*
X87720090Y-93225168D01*
X87704438Y-93242438D01*
X87687168Y-93258090D01*
X87668448Y-93271974D01*
X87648457Y-93283956D01*
X87627387Y-93293921D01*
X87605443Y-93301773D01*
X87582834Y-93307437D01*
X87559779Y-93310856D01*
X87536500Y-93312000D01*
X86961500Y-93312000D01*
X86938221Y-93310856D01*
X86915166Y-93307437D01*
X86892557Y-93301773D01*
X86870613Y-93293921D01*
X86849543Y-93283956D01*
X86829552Y-93271974D01*
X86810832Y-93258090D01*
X86793562Y-93242438D01*
X86777910Y-93225168D01*
X86764026Y-93206448D01*
X86752044Y-93186457D01*
X86742079Y-93165387D01*
X86734227Y-93143443D01*
X86728563Y-93120834D01*
X86725144Y-93097779D01*
X86724000Y-93074500D01*
X86724000Y-92599500D01*
X86725144Y-92576221D01*
X86728563Y-92553166D01*
X86734227Y-92530557D01*
X86742079Y-92508613D01*
X86752044Y-92487543D01*
X86764026Y-92467552D01*
X86777910Y-92448832D01*
X86793562Y-92431562D01*
X86810832Y-92415910D01*
X86829552Y-92402026D01*
X86849543Y-92390044D01*
X86870613Y-92380079D01*
X86892557Y-92372227D01*
X86915166Y-92366563D01*
X86938221Y-92363144D01*
X86961500Y-92362000D01*
X87536500Y-92362000D01*
X87559779Y-92363144D01*
G37*
G36*
X74936779Y-93964144D02*
G01*
X74959834Y-93967563D01*
X74982443Y-93973227D01*
X75004387Y-93981079D01*
X75025457Y-93991044D01*
X75045448Y-94003026D01*
X75064168Y-94016910D01*
X75081438Y-94032562D01*
X75097090Y-94049832D01*
X75110974Y-94068552D01*
X75122956Y-94088543D01*
X75132921Y-94109613D01*
X75140773Y-94131557D01*
X75146437Y-94154166D01*
X75149856Y-94177221D01*
X75151000Y-94200500D01*
X75151000Y-94775500D01*
X75149856Y-94798779D01*
X75146437Y-94821834D01*
X75140773Y-94844443D01*
X75132921Y-94866387D01*
X75122956Y-94887457D01*
X75110974Y-94907448D01*
X75097090Y-94926168D01*
X75081438Y-94943438D01*
X75064168Y-94959090D01*
X75045448Y-94972974D01*
X75025457Y-94984956D01*
X75004387Y-94994921D01*
X74982443Y-95002773D01*
X74959834Y-95008437D01*
X74936779Y-95011856D01*
X74913500Y-95013000D01*
X74438500Y-95013000D01*
X74415221Y-95011856D01*
X74392166Y-95008437D01*
X74369557Y-95002773D01*
X74347613Y-94994921D01*
X74326543Y-94984956D01*
X74306552Y-94972974D01*
X74287832Y-94959090D01*
X74270562Y-94943438D01*
X74254910Y-94926168D01*
X74241026Y-94907448D01*
X74229044Y-94887457D01*
X74219079Y-94866387D01*
X74211227Y-94844443D01*
X74205563Y-94821834D01*
X74202144Y-94798779D01*
X74201000Y-94775500D01*
X74201000Y-94200500D01*
X74202144Y-94177221D01*
X74205563Y-94154166D01*
X74211227Y-94131557D01*
X74219079Y-94109613D01*
X74229044Y-94088543D01*
X74241026Y-94068552D01*
X74254910Y-94049832D01*
X74270562Y-94032562D01*
X74287832Y-94016910D01*
X74306552Y-94003026D01*
X74326543Y-93991044D01*
X74347613Y-93981079D01*
X74369557Y-93973227D01*
X74392166Y-93967563D01*
X74415221Y-93964144D01*
X74438500Y-93963000D01*
X74913500Y-93963000D01*
X74936779Y-93964144D01*
G37*
G36*
X74936779Y-92214144D02*
G01*
X74959834Y-92217563D01*
X74982443Y-92223227D01*
X75004387Y-92231079D01*
X75025457Y-92241044D01*
X75045448Y-92253026D01*
X75064168Y-92266910D01*
X75081438Y-92282562D01*
X75097090Y-92299832D01*
X75110974Y-92318552D01*
X75122956Y-92338543D01*
X75132921Y-92359613D01*
X75140773Y-92381557D01*
X75146437Y-92404166D01*
X75149856Y-92427221D01*
X75151000Y-92450500D01*
X75151000Y-93025500D01*
X75149856Y-93048779D01*
X75146437Y-93071834D01*
X75140773Y-93094443D01*
X75132921Y-93116387D01*
X75122956Y-93137457D01*
X75110974Y-93157448D01*
X75097090Y-93176168D01*
X75081438Y-93193438D01*
X75064168Y-93209090D01*
X75045448Y-93222974D01*
X75025457Y-93234956D01*
X75004387Y-93244921D01*
X74982443Y-93252773D01*
X74959834Y-93258437D01*
X74936779Y-93261856D01*
X74913500Y-93263000D01*
X74438500Y-93263000D01*
X74415221Y-93261856D01*
X74392166Y-93258437D01*
X74369557Y-93252773D01*
X74347613Y-93244921D01*
X74326543Y-93234956D01*
X74306552Y-93222974D01*
X74287832Y-93209090D01*
X74270562Y-93193438D01*
X74254910Y-93176168D01*
X74241026Y-93157448D01*
X74229044Y-93137457D01*
X74219079Y-93116387D01*
X74211227Y-93094443D01*
X74205563Y-93071834D01*
X74202144Y-93048779D01*
X74201000Y-93025500D01*
X74201000Y-92450500D01*
X74202144Y-92427221D01*
X74205563Y-92404166D01*
X74211227Y-92381557D01*
X74219079Y-92359613D01*
X74229044Y-92338543D01*
X74241026Y-92318552D01*
X74254910Y-92299832D01*
X74270562Y-92282562D01*
X74287832Y-92266910D01*
X74306552Y-92253026D01*
X74326543Y-92241044D01*
X74347613Y-92231079D01*
X74369557Y-92223227D01*
X74392166Y-92217563D01*
X74415221Y-92214144D01*
X74438500Y-92213000D01*
X74913500Y-92213000D01*
X74936779Y-92214144D01*
G37*
G36*
X89845779Y-72678144D02*
G01*
X89868834Y-72681563D01*
X89891443Y-72687227D01*
X89913387Y-72695079D01*
X89934457Y-72705044D01*
X89954448Y-72717026D01*
X89973168Y-72730910D01*
X89990438Y-72746562D01*
X90006090Y-72763832D01*
X90019974Y-72782552D01*
X90031956Y-72802543D01*
X90041921Y-72823613D01*
X90049773Y-72845557D01*
X90055437Y-72868166D01*
X90058856Y-72891221D01*
X90060000Y-72914500D01*
X90060000Y-73389500D01*
X90058856Y-73412779D01*
X90055437Y-73435834D01*
X90049773Y-73458443D01*
X90041921Y-73480387D01*
X90031956Y-73501457D01*
X90019974Y-73521448D01*
X90006090Y-73540168D01*
X89990438Y-73557438D01*
X89973168Y-73573090D01*
X89954448Y-73586974D01*
X89934457Y-73598956D01*
X89913387Y-73608921D01*
X89891443Y-73616773D01*
X89868834Y-73622437D01*
X89845779Y-73625856D01*
X89822500Y-73627000D01*
X89247500Y-73627000D01*
X89224221Y-73625856D01*
X89201166Y-73622437D01*
X89178557Y-73616773D01*
X89156613Y-73608921D01*
X89135543Y-73598956D01*
X89115552Y-73586974D01*
X89096832Y-73573090D01*
X89079562Y-73557438D01*
X89063910Y-73540168D01*
X89050026Y-73521448D01*
X89038044Y-73501457D01*
X89028079Y-73480387D01*
X89020227Y-73458443D01*
X89014563Y-73435834D01*
X89011144Y-73412779D01*
X89010000Y-73389500D01*
X89010000Y-72914500D01*
X89011144Y-72891221D01*
X89014563Y-72868166D01*
X89020227Y-72845557D01*
X89028079Y-72823613D01*
X89038044Y-72802543D01*
X89050026Y-72782552D01*
X89063910Y-72763832D01*
X89079562Y-72746562D01*
X89096832Y-72730910D01*
X89115552Y-72717026D01*
X89135543Y-72705044D01*
X89156613Y-72695079D01*
X89178557Y-72687227D01*
X89201166Y-72681563D01*
X89224221Y-72678144D01*
X89247500Y-72677000D01*
X89822500Y-72677000D01*
X89845779Y-72678144D01*
G37*
G36*
X88095779Y-72678144D02*
G01*
X88118834Y-72681563D01*
X88141443Y-72687227D01*
X88163387Y-72695079D01*
X88184457Y-72705044D01*
X88204448Y-72717026D01*
X88223168Y-72730910D01*
X88240438Y-72746562D01*
X88256090Y-72763832D01*
X88269974Y-72782552D01*
X88281956Y-72802543D01*
X88291921Y-72823613D01*
X88299773Y-72845557D01*
X88305437Y-72868166D01*
X88308856Y-72891221D01*
X88310000Y-72914500D01*
X88310000Y-73389500D01*
X88308856Y-73412779D01*
X88305437Y-73435834D01*
X88299773Y-73458443D01*
X88291921Y-73480387D01*
X88281956Y-73501457D01*
X88269974Y-73521448D01*
X88256090Y-73540168D01*
X88240438Y-73557438D01*
X88223168Y-73573090D01*
X88204448Y-73586974D01*
X88184457Y-73598956D01*
X88163387Y-73608921D01*
X88141443Y-73616773D01*
X88118834Y-73622437D01*
X88095779Y-73625856D01*
X88072500Y-73627000D01*
X87497500Y-73627000D01*
X87474221Y-73625856D01*
X87451166Y-73622437D01*
X87428557Y-73616773D01*
X87406613Y-73608921D01*
X87385543Y-73598956D01*
X87365552Y-73586974D01*
X87346832Y-73573090D01*
X87329562Y-73557438D01*
X87313910Y-73540168D01*
X87300026Y-73521448D01*
X87288044Y-73501457D01*
X87278079Y-73480387D01*
X87270227Y-73458443D01*
X87264563Y-73435834D01*
X87261144Y-73412779D01*
X87260000Y-73389500D01*
X87260000Y-72914500D01*
X87261144Y-72891221D01*
X87264563Y-72868166D01*
X87270227Y-72845557D01*
X87278079Y-72823613D01*
X87288044Y-72802543D01*
X87300026Y-72782552D01*
X87313910Y-72763832D01*
X87329562Y-72746562D01*
X87346832Y-72730910D01*
X87365552Y-72717026D01*
X87385543Y-72705044D01*
X87406613Y-72695079D01*
X87428557Y-72687227D01*
X87451166Y-72681563D01*
X87474221Y-72678144D01*
X87497500Y-72677000D01*
X88072500Y-72677000D01*
X88095779Y-72678144D01*
G37*
G36*
X89944779Y-83346144D02*
G01*
X89967834Y-83349563D01*
X89990443Y-83355227D01*
X90012387Y-83363079D01*
X90033457Y-83373044D01*
X90053448Y-83385026D01*
X90072168Y-83398910D01*
X90089438Y-83414562D01*
X90105090Y-83431832D01*
X90118974Y-83450552D01*
X90130956Y-83470543D01*
X90140921Y-83491613D01*
X90148773Y-83513557D01*
X90154437Y-83536166D01*
X90157856Y-83559221D01*
X90159000Y-83582500D01*
X90159000Y-84057500D01*
X90157856Y-84080779D01*
X90154437Y-84103834D01*
X90148773Y-84126443D01*
X90140921Y-84148387D01*
X90130956Y-84169457D01*
X90118974Y-84189448D01*
X90105090Y-84208168D01*
X90089438Y-84225438D01*
X90072168Y-84241090D01*
X90053448Y-84254974D01*
X90033457Y-84266956D01*
X90012387Y-84276921D01*
X89990443Y-84284773D01*
X89967834Y-84290437D01*
X89944779Y-84293856D01*
X89921500Y-84295000D01*
X89346500Y-84295000D01*
X89323221Y-84293856D01*
X89300166Y-84290437D01*
X89277557Y-84284773D01*
X89255613Y-84276921D01*
X89234543Y-84266956D01*
X89214552Y-84254974D01*
X89195832Y-84241090D01*
X89178562Y-84225438D01*
X89162910Y-84208168D01*
X89149026Y-84189448D01*
X89137044Y-84169457D01*
X89127079Y-84148387D01*
X89119227Y-84126443D01*
X89113563Y-84103834D01*
X89110144Y-84080779D01*
X89109000Y-84057500D01*
X89109000Y-83582500D01*
X89110144Y-83559221D01*
X89113563Y-83536166D01*
X89119227Y-83513557D01*
X89127079Y-83491613D01*
X89137044Y-83470543D01*
X89149026Y-83450552D01*
X89162910Y-83431832D01*
X89178562Y-83414562D01*
X89195832Y-83398910D01*
X89214552Y-83385026D01*
X89234543Y-83373044D01*
X89255613Y-83363079D01*
X89277557Y-83355227D01*
X89300166Y-83349563D01*
X89323221Y-83346144D01*
X89346500Y-83345000D01*
X89921500Y-83345000D01*
X89944779Y-83346144D01*
G37*
G36*
X88194779Y-83346144D02*
G01*
X88217834Y-83349563D01*
X88240443Y-83355227D01*
X88262387Y-83363079D01*
X88283457Y-83373044D01*
X88303448Y-83385026D01*
X88322168Y-83398910D01*
X88339438Y-83414562D01*
X88355090Y-83431832D01*
X88368974Y-83450552D01*
X88380956Y-83470543D01*
X88390921Y-83491613D01*
X88398773Y-83513557D01*
X88404437Y-83536166D01*
X88407856Y-83559221D01*
X88409000Y-83582500D01*
X88409000Y-84057500D01*
X88407856Y-84080779D01*
X88404437Y-84103834D01*
X88398773Y-84126443D01*
X88390921Y-84148387D01*
X88380956Y-84169457D01*
X88368974Y-84189448D01*
X88355090Y-84208168D01*
X88339438Y-84225438D01*
X88322168Y-84241090D01*
X88303448Y-84254974D01*
X88283457Y-84266956D01*
X88262387Y-84276921D01*
X88240443Y-84284773D01*
X88217834Y-84290437D01*
X88194779Y-84293856D01*
X88171500Y-84295000D01*
X87596500Y-84295000D01*
X87573221Y-84293856D01*
X87550166Y-84290437D01*
X87527557Y-84284773D01*
X87505613Y-84276921D01*
X87484543Y-84266956D01*
X87464552Y-84254974D01*
X87445832Y-84241090D01*
X87428562Y-84225438D01*
X87412910Y-84208168D01*
X87399026Y-84189448D01*
X87387044Y-84169457D01*
X87377079Y-84148387D01*
X87369227Y-84126443D01*
X87363563Y-84103834D01*
X87360144Y-84080779D01*
X87359000Y-84057500D01*
X87359000Y-83582500D01*
X87360144Y-83559221D01*
X87363563Y-83536166D01*
X87369227Y-83513557D01*
X87377079Y-83491613D01*
X87387044Y-83470543D01*
X87399026Y-83450552D01*
X87412910Y-83431832D01*
X87428562Y-83414562D01*
X87445832Y-83398910D01*
X87464552Y-83385026D01*
X87484543Y-83373044D01*
X87505613Y-83363079D01*
X87527557Y-83355227D01*
X87550166Y-83349563D01*
X87573221Y-83346144D01*
X87596500Y-83345000D01*
X88171500Y-83345000D01*
X88194779Y-83346144D01*
G37*
G36*
X85654779Y-89442144D02*
G01*
X85677834Y-89445563D01*
X85700443Y-89451227D01*
X85722387Y-89459079D01*
X85743457Y-89469044D01*
X85763448Y-89481026D01*
X85782168Y-89494910D01*
X85799438Y-89510562D01*
X85815090Y-89527832D01*
X85828974Y-89546552D01*
X85840956Y-89566543D01*
X85850921Y-89587613D01*
X85858773Y-89609557D01*
X85864437Y-89632166D01*
X85867856Y-89655221D01*
X85869000Y-89678500D01*
X85869000Y-90153500D01*
X85867856Y-90176779D01*
X85864437Y-90199834D01*
X85858773Y-90222443D01*
X85850921Y-90244387D01*
X85840956Y-90265457D01*
X85828974Y-90285448D01*
X85815090Y-90304168D01*
X85799438Y-90321438D01*
X85782168Y-90337090D01*
X85763448Y-90350974D01*
X85743457Y-90362956D01*
X85722387Y-90372921D01*
X85700443Y-90380773D01*
X85677834Y-90386437D01*
X85654779Y-90389856D01*
X85631500Y-90391000D01*
X85056500Y-90391000D01*
X85033221Y-90389856D01*
X85010166Y-90386437D01*
X84987557Y-90380773D01*
X84965613Y-90372921D01*
X84944543Y-90362956D01*
X84924552Y-90350974D01*
X84905832Y-90337090D01*
X84888562Y-90321438D01*
X84872910Y-90304168D01*
X84859026Y-90285448D01*
X84847044Y-90265457D01*
X84837079Y-90244387D01*
X84829227Y-90222443D01*
X84823563Y-90199834D01*
X84820144Y-90176779D01*
X84819000Y-90153500D01*
X84819000Y-89678500D01*
X84820144Y-89655221D01*
X84823563Y-89632166D01*
X84829227Y-89609557D01*
X84837079Y-89587613D01*
X84847044Y-89566543D01*
X84859026Y-89546552D01*
X84872910Y-89527832D01*
X84888562Y-89510562D01*
X84905832Y-89494910D01*
X84924552Y-89481026D01*
X84944543Y-89469044D01*
X84965613Y-89459079D01*
X84987557Y-89451227D01*
X85010166Y-89445563D01*
X85033221Y-89442144D01*
X85056500Y-89441000D01*
X85631500Y-89441000D01*
X85654779Y-89442144D01*
G37*
G36*
X87404779Y-89442144D02*
G01*
X87427834Y-89445563D01*
X87450443Y-89451227D01*
X87472387Y-89459079D01*
X87493457Y-89469044D01*
X87513448Y-89481026D01*
X87532168Y-89494910D01*
X87549438Y-89510562D01*
X87565090Y-89527832D01*
X87578974Y-89546552D01*
X87590956Y-89566543D01*
X87600921Y-89587613D01*
X87608773Y-89609557D01*
X87614437Y-89632166D01*
X87617856Y-89655221D01*
X87619000Y-89678500D01*
X87619000Y-90153500D01*
X87617856Y-90176779D01*
X87614437Y-90199834D01*
X87608773Y-90222443D01*
X87600921Y-90244387D01*
X87590956Y-90265457D01*
X87578974Y-90285448D01*
X87565090Y-90304168D01*
X87549438Y-90321438D01*
X87532168Y-90337090D01*
X87513448Y-90350974D01*
X87493457Y-90362956D01*
X87472387Y-90372921D01*
X87450443Y-90380773D01*
X87427834Y-90386437D01*
X87404779Y-90389856D01*
X87381500Y-90391000D01*
X86806500Y-90391000D01*
X86783221Y-90389856D01*
X86760166Y-90386437D01*
X86737557Y-90380773D01*
X86715613Y-90372921D01*
X86694543Y-90362956D01*
X86674552Y-90350974D01*
X86655832Y-90337090D01*
X86638562Y-90321438D01*
X86622910Y-90304168D01*
X86609026Y-90285448D01*
X86597044Y-90265457D01*
X86587079Y-90244387D01*
X86579227Y-90222443D01*
X86573563Y-90199834D01*
X86570144Y-90176779D01*
X86569000Y-90153500D01*
X86569000Y-89678500D01*
X86570144Y-89655221D01*
X86573563Y-89632166D01*
X86579227Y-89609557D01*
X86587079Y-89587613D01*
X86597044Y-89566543D01*
X86609026Y-89546552D01*
X86622910Y-89527832D01*
X86638562Y-89510562D01*
X86655832Y-89494910D01*
X86674552Y-89481026D01*
X86694543Y-89469044D01*
X86715613Y-89459079D01*
X86737557Y-89451227D01*
X86760166Y-89445563D01*
X86783221Y-89442144D01*
X86806500Y-89441000D01*
X87381500Y-89441000D01*
X87404779Y-89442144D01*
G37*
D14*
X80732000Y-87950000D03*
X80732000Y-88900000D03*
X80732000Y-89850000D03*
X83352000Y-89850000D03*
X83352000Y-87950000D03*
D22*
X103680000Y-50799000D03*
X100330000Y-53849000D03*
X103680000Y-53849000D03*
X100330000Y-50799000D03*
D23*
X108305000Y-50044000D03*
X108305000Y-52324000D03*
X108305000Y-54604000D03*
X108154000Y-45206000D03*
X108154000Y-42926000D03*
X108154000Y-40646000D03*
D22*
X100179000Y-41401000D03*
X103529000Y-44451000D03*
X100179000Y-44451000D03*
X103529000Y-41401000D03*
M02*
