G04 #@! TF.GenerationSoftware,KiCad,Pcbnew,(5.1.5)-3*
G04 #@! TF.CreationDate,2020-02-06T00:19:04+09:00*
G04 #@! TF.ProjectId,GradientDriver,47726164-6965-46e7-9444-72697665722e,rev?*
G04 #@! TF.SameCoordinates,Original*
G04 #@! TF.FileFunction,Soldermask,Top*
G04 #@! TF.FilePolarity,Negative*
%FSLAX46Y46*%
G04 Gerber Fmt 4.6, Leading zero omitted, Abs format (unit mm)*
G04 Created by KiCad (PCBNEW (5.1.5)-3) date 2020-02-06 00:19:04*
%MOMM*%
%LPD*%
G04 APERTURE LIST*
%ADD10C,0.100000*%
G04 APERTURE END LIST*
D10*
G36*
X122487583Y-96523796D02*
G01*
X122859531Y-96597781D01*
X123445716Y-96840587D01*
X123973268Y-97193086D01*
X124421914Y-97641732D01*
X124774413Y-98169284D01*
X125017219Y-98755469D01*
X125054462Y-98942704D01*
X125141000Y-99377758D01*
X125141000Y-100012242D01*
X125129892Y-100068085D01*
X125017219Y-100634531D01*
X124774413Y-101220716D01*
X124421914Y-101748268D01*
X123973268Y-102196914D01*
X123445716Y-102549413D01*
X122859531Y-102792219D01*
X122548386Y-102854110D01*
X122237242Y-102916000D01*
X121602758Y-102916000D01*
X121291614Y-102854110D01*
X120980469Y-102792219D01*
X120394284Y-102549413D01*
X119866732Y-102196914D01*
X119418086Y-101748268D01*
X119065587Y-101220716D01*
X118822781Y-100634531D01*
X118710108Y-100068085D01*
X118699000Y-100012242D01*
X118699000Y-99377758D01*
X118785538Y-98942704D01*
X118822781Y-98755469D01*
X119065587Y-98169284D01*
X119418086Y-97641732D01*
X119866732Y-97193086D01*
X120394284Y-96840587D01*
X120980469Y-96597781D01*
X121352417Y-96523796D01*
X121602758Y-96474000D01*
X122237242Y-96474000D01*
X122487583Y-96523796D01*
G37*
G36*
X58352583Y-96523796D02*
G01*
X58724531Y-96597781D01*
X59310716Y-96840587D01*
X59838268Y-97193086D01*
X60286914Y-97641732D01*
X60639413Y-98169284D01*
X60882219Y-98755469D01*
X60919462Y-98942704D01*
X61006000Y-99377758D01*
X61006000Y-100012242D01*
X60994892Y-100068085D01*
X60882219Y-100634531D01*
X60639413Y-101220716D01*
X60286914Y-101748268D01*
X59838268Y-102196914D01*
X59310716Y-102549413D01*
X58724531Y-102792219D01*
X58413386Y-102854110D01*
X58102242Y-102916000D01*
X57467758Y-102916000D01*
X57156614Y-102854110D01*
X56845469Y-102792219D01*
X56259284Y-102549413D01*
X55731732Y-102196914D01*
X55283086Y-101748268D01*
X54930587Y-101220716D01*
X54687781Y-100634531D01*
X54575108Y-100068085D01*
X54564000Y-100012242D01*
X54564000Y-99377758D01*
X54650538Y-98942704D01*
X54687781Y-98755469D01*
X54930587Y-98169284D01*
X55283086Y-97641732D01*
X55731732Y-97193086D01*
X56259284Y-96840587D01*
X56845469Y-96597781D01*
X57217417Y-96523796D01*
X57467758Y-96474000D01*
X58102242Y-96474000D01*
X58352583Y-96523796D01*
G37*
G36*
X97225000Y-102521000D02*
G01*
X93783000Y-102521000D01*
X93783000Y-100679000D01*
X97225000Y-100679000D01*
X97225000Y-102521000D01*
G37*
G36*
X102631569Y-98695157D02*
G01*
X102666254Y-98705679D01*
X102698224Y-98722767D01*
X102726241Y-98745759D01*
X102749233Y-98773776D01*
X102766321Y-98805746D01*
X102776843Y-98840431D01*
X102781000Y-98882640D01*
X102781000Y-99491360D01*
X102776843Y-99533569D01*
X102766321Y-99568254D01*
X102749233Y-99600224D01*
X102726241Y-99628241D01*
X102698224Y-99651233D01*
X102666254Y-99668321D01*
X102631569Y-99678843D01*
X102589360Y-99683000D01*
X101880640Y-99683000D01*
X101838431Y-99678843D01*
X101803746Y-99668321D01*
X101771776Y-99651233D01*
X101743759Y-99628241D01*
X101720767Y-99600224D01*
X101703679Y-99568254D01*
X101693157Y-99533569D01*
X101689000Y-99491360D01*
X101689000Y-98882640D01*
X101693157Y-98840431D01*
X101703679Y-98805746D01*
X101720767Y-98773776D01*
X101743759Y-98745759D01*
X101771776Y-98722767D01*
X101803746Y-98705679D01*
X101838431Y-98695157D01*
X101880640Y-98691000D01*
X102589360Y-98691000D01*
X102631569Y-98695157D01*
G37*
G36*
X100881569Y-98695157D02*
G01*
X100916254Y-98705679D01*
X100948224Y-98722767D01*
X100976241Y-98745759D01*
X100999233Y-98773776D01*
X101016321Y-98805746D01*
X101026843Y-98840431D01*
X101031000Y-98882640D01*
X101031000Y-99491360D01*
X101026843Y-99533569D01*
X101016321Y-99568254D01*
X100999233Y-99600224D01*
X100976241Y-99628241D01*
X100948224Y-99651233D01*
X100916254Y-99668321D01*
X100881569Y-99678843D01*
X100839360Y-99683000D01*
X100130640Y-99683000D01*
X100088431Y-99678843D01*
X100053746Y-99668321D01*
X100021776Y-99651233D01*
X99993759Y-99628241D01*
X99970767Y-99600224D01*
X99953679Y-99568254D01*
X99943157Y-99533569D01*
X99939000Y-99491360D01*
X99939000Y-98882640D01*
X99943157Y-98840431D01*
X99953679Y-98805746D01*
X99970767Y-98773776D01*
X99993759Y-98745759D01*
X100021776Y-98722767D01*
X100053746Y-98705679D01*
X100088431Y-98695157D01*
X100130640Y-98691000D01*
X100839360Y-98691000D01*
X100881569Y-98695157D01*
G37*
G36*
X88725069Y-97996657D02*
G01*
X88759754Y-98007179D01*
X88791724Y-98024267D01*
X88819741Y-98047259D01*
X88842733Y-98075276D01*
X88859821Y-98107246D01*
X88870343Y-98141931D01*
X88874500Y-98184140D01*
X88874500Y-98792860D01*
X88870343Y-98835069D01*
X88859821Y-98869754D01*
X88842733Y-98901724D01*
X88819741Y-98929741D01*
X88791724Y-98952733D01*
X88759754Y-98969821D01*
X88725069Y-98980343D01*
X88682860Y-98984500D01*
X87974140Y-98984500D01*
X87931931Y-98980343D01*
X87897246Y-98969821D01*
X87865276Y-98952733D01*
X87837259Y-98929741D01*
X87814267Y-98901724D01*
X87797179Y-98869754D01*
X87786657Y-98835069D01*
X87782500Y-98792860D01*
X87782500Y-98184140D01*
X87786657Y-98141931D01*
X87797179Y-98107246D01*
X87814267Y-98075276D01*
X87837259Y-98047259D01*
X87865276Y-98024267D01*
X87897246Y-98007179D01*
X87931931Y-97996657D01*
X87974140Y-97992500D01*
X88682860Y-97992500D01*
X88725069Y-97996657D01*
G37*
G36*
X90475069Y-97996657D02*
G01*
X90509754Y-98007179D01*
X90541724Y-98024267D01*
X90569741Y-98047259D01*
X90592733Y-98075276D01*
X90609821Y-98107246D01*
X90620343Y-98141931D01*
X90624500Y-98184140D01*
X90624500Y-98792860D01*
X90620343Y-98835069D01*
X90609821Y-98869754D01*
X90592733Y-98901724D01*
X90569741Y-98929741D01*
X90541724Y-98952733D01*
X90509754Y-98969821D01*
X90475069Y-98980343D01*
X90432860Y-98984500D01*
X89724140Y-98984500D01*
X89681931Y-98980343D01*
X89647246Y-98969821D01*
X89615276Y-98952733D01*
X89587259Y-98929741D01*
X89564267Y-98901724D01*
X89547179Y-98869754D01*
X89536657Y-98835069D01*
X89532500Y-98792860D01*
X89532500Y-98184140D01*
X89536657Y-98141931D01*
X89547179Y-98107246D01*
X89564267Y-98075276D01*
X89587259Y-98047259D01*
X89615276Y-98024267D01*
X89647246Y-98007179D01*
X89681931Y-97996657D01*
X89724140Y-97992500D01*
X90432860Y-97992500D01*
X90475069Y-97996657D01*
G37*
G36*
X78947500Y-98531000D02*
G01*
X76115500Y-98531000D01*
X76115500Y-97299000D01*
X78947500Y-97299000D01*
X78947500Y-98531000D01*
G37*
G36*
X101438997Y-97090476D02*
G01*
X101457274Y-97096020D01*
X101474108Y-97105018D01*
X101488868Y-97117132D01*
X101500982Y-97131892D01*
X101509980Y-97148726D01*
X101515524Y-97167003D01*
X101518000Y-97192140D01*
X101518000Y-97625860D01*
X101515524Y-97650997D01*
X101509980Y-97669274D01*
X101500982Y-97686108D01*
X101488868Y-97700868D01*
X101474108Y-97712982D01*
X101457274Y-97721980D01*
X101438997Y-97727524D01*
X101413860Y-97730000D01*
X99630140Y-97730000D01*
X99605003Y-97727524D01*
X99586726Y-97721980D01*
X99569892Y-97712982D01*
X99555132Y-97700868D01*
X99543018Y-97686108D01*
X99534020Y-97669274D01*
X99528476Y-97650997D01*
X99526000Y-97625860D01*
X99526000Y-97192140D01*
X99528476Y-97167003D01*
X99534020Y-97148726D01*
X99543018Y-97131892D01*
X99555132Y-97117132D01*
X99569892Y-97105018D01*
X99586726Y-97096020D01*
X99605003Y-97090476D01*
X99630140Y-97088000D01*
X101413860Y-97088000D01*
X101438997Y-97090476D01*
G37*
G36*
X106388997Y-97090476D02*
G01*
X106407274Y-97096020D01*
X106424108Y-97105018D01*
X106438868Y-97117132D01*
X106450982Y-97131892D01*
X106459980Y-97148726D01*
X106465524Y-97167003D01*
X106468000Y-97192140D01*
X106468000Y-97625860D01*
X106465524Y-97650997D01*
X106459980Y-97669274D01*
X106450982Y-97686108D01*
X106438868Y-97700868D01*
X106424108Y-97712982D01*
X106407274Y-97721980D01*
X106388997Y-97727524D01*
X106363860Y-97730000D01*
X104580140Y-97730000D01*
X104555003Y-97727524D01*
X104536726Y-97721980D01*
X104519892Y-97712982D01*
X104505132Y-97700868D01*
X104493018Y-97686108D01*
X104484020Y-97669274D01*
X104478476Y-97650997D01*
X104476000Y-97625860D01*
X104476000Y-97192140D01*
X104478476Y-97167003D01*
X104484020Y-97148726D01*
X104493018Y-97131892D01*
X104505132Y-97117132D01*
X104519892Y-97105018D01*
X104536726Y-97096020D01*
X104555003Y-97090476D01*
X104580140Y-97088000D01*
X106363860Y-97088000D01*
X106388997Y-97090476D01*
G37*
G36*
X85944569Y-96486157D02*
G01*
X85979254Y-96496679D01*
X86011224Y-96513767D01*
X86039241Y-96536759D01*
X86062233Y-96564776D01*
X86079321Y-96596746D01*
X86089843Y-96631431D01*
X86094000Y-96673640D01*
X86094000Y-97382360D01*
X86089843Y-97424569D01*
X86079321Y-97459254D01*
X86062233Y-97491224D01*
X86039241Y-97519241D01*
X86011224Y-97542233D01*
X85979254Y-97559321D01*
X85944569Y-97569843D01*
X85902360Y-97574000D01*
X85293640Y-97574000D01*
X85251431Y-97569843D01*
X85216746Y-97559321D01*
X85184776Y-97542233D01*
X85156759Y-97519241D01*
X85133767Y-97491224D01*
X85116679Y-97459254D01*
X85106157Y-97424569D01*
X85102000Y-97382360D01*
X85102000Y-96673640D01*
X85106157Y-96631431D01*
X85116679Y-96596746D01*
X85133767Y-96564776D01*
X85156759Y-96536759D01*
X85184776Y-96513767D01*
X85216746Y-96496679D01*
X85251431Y-96486157D01*
X85293640Y-96482000D01*
X85902360Y-96482000D01*
X85944569Y-96486157D01*
G37*
G36*
X108169569Y-95950157D02*
G01*
X108204254Y-95960679D01*
X108236224Y-95977767D01*
X108264241Y-96000759D01*
X108287233Y-96028776D01*
X108304321Y-96060746D01*
X108314843Y-96095431D01*
X108319000Y-96137640D01*
X108319000Y-96846360D01*
X108314843Y-96888569D01*
X108304321Y-96923254D01*
X108287233Y-96955224D01*
X108264241Y-96983241D01*
X108236224Y-97006233D01*
X108204254Y-97023321D01*
X108169569Y-97033843D01*
X108127360Y-97038000D01*
X107518640Y-97038000D01*
X107476431Y-97033843D01*
X107441746Y-97023321D01*
X107409776Y-97006233D01*
X107381759Y-96983241D01*
X107358767Y-96955224D01*
X107341679Y-96923254D01*
X107331157Y-96888569D01*
X107327000Y-96846360D01*
X107327000Y-96137640D01*
X107331157Y-96095431D01*
X107341679Y-96060746D01*
X107358767Y-96028776D01*
X107381759Y-96000759D01*
X107409776Y-95977767D01*
X107441746Y-95960679D01*
X107476431Y-95950157D01*
X107518640Y-95946000D01*
X108127360Y-95946000D01*
X108169569Y-95950157D01*
G37*
G36*
X104036609Y-93986607D02*
G01*
X104065922Y-93995500D01*
X104092946Y-94009944D01*
X104116624Y-94029376D01*
X104136056Y-94053054D01*
X104150500Y-94080078D01*
X104159393Y-94109391D01*
X104163000Y-94146017D01*
X104163000Y-96861983D01*
X104159393Y-96898609D01*
X104150500Y-96927922D01*
X104136056Y-96954946D01*
X104116624Y-96978624D01*
X104092946Y-96998056D01*
X104065922Y-97012500D01*
X104036609Y-97021393D01*
X103999983Y-97025000D01*
X101994017Y-97025000D01*
X101957391Y-97021393D01*
X101928078Y-97012500D01*
X101901054Y-96998056D01*
X101877376Y-96978624D01*
X101857944Y-96954946D01*
X101843500Y-96927922D01*
X101834607Y-96898609D01*
X101831000Y-96861983D01*
X101831000Y-94146017D01*
X101834607Y-94109391D01*
X101843500Y-94080078D01*
X101857944Y-94053054D01*
X101877376Y-94029376D01*
X101901054Y-94009944D01*
X101928078Y-93995500D01*
X101957391Y-93986607D01*
X101994017Y-93983000D01*
X103999983Y-93983000D01*
X104036609Y-93986607D01*
G37*
G36*
X91579500Y-96863500D02*
G01*
X90317500Y-96863500D01*
X90317500Y-96171500D01*
X91579500Y-96171500D01*
X91579500Y-96863500D01*
G37*
G36*
X88959500Y-96863500D02*
G01*
X87697500Y-96863500D01*
X87697500Y-96171500D01*
X88959500Y-96171500D01*
X88959500Y-96863500D01*
G37*
G36*
X101438997Y-95820476D02*
G01*
X101457274Y-95826020D01*
X101474108Y-95835018D01*
X101488868Y-95847132D01*
X101500982Y-95861892D01*
X101509980Y-95878726D01*
X101515524Y-95897003D01*
X101518000Y-95922140D01*
X101518000Y-96355860D01*
X101515524Y-96380997D01*
X101509980Y-96399274D01*
X101500982Y-96416108D01*
X101488868Y-96430868D01*
X101474108Y-96442982D01*
X101457274Y-96451980D01*
X101438997Y-96457524D01*
X101413860Y-96460000D01*
X99630140Y-96460000D01*
X99605003Y-96457524D01*
X99586726Y-96451980D01*
X99569892Y-96442982D01*
X99555132Y-96430868D01*
X99543018Y-96416108D01*
X99534020Y-96399274D01*
X99528476Y-96380997D01*
X99526000Y-96355860D01*
X99526000Y-95922140D01*
X99528476Y-95897003D01*
X99534020Y-95878726D01*
X99543018Y-95861892D01*
X99555132Y-95847132D01*
X99569892Y-95835018D01*
X99586726Y-95826020D01*
X99605003Y-95820476D01*
X99630140Y-95818000D01*
X101413860Y-95818000D01*
X101438997Y-95820476D01*
G37*
G36*
X106388997Y-95820476D02*
G01*
X106407274Y-95826020D01*
X106424108Y-95835018D01*
X106438868Y-95847132D01*
X106450982Y-95861892D01*
X106459980Y-95878726D01*
X106465524Y-95897003D01*
X106468000Y-95922140D01*
X106468000Y-96355860D01*
X106465524Y-96380997D01*
X106459980Y-96399274D01*
X106450982Y-96416108D01*
X106438868Y-96430868D01*
X106424108Y-96442982D01*
X106407274Y-96451980D01*
X106388997Y-96457524D01*
X106363860Y-96460000D01*
X104580140Y-96460000D01*
X104555003Y-96457524D01*
X104536726Y-96451980D01*
X104519892Y-96442982D01*
X104505132Y-96430868D01*
X104493018Y-96416108D01*
X104484020Y-96399274D01*
X104478476Y-96380997D01*
X104476000Y-96355860D01*
X104476000Y-95922140D01*
X104478476Y-95897003D01*
X104484020Y-95878726D01*
X104493018Y-95861892D01*
X104505132Y-95847132D01*
X104519892Y-95835018D01*
X104536726Y-95826020D01*
X104555003Y-95820476D01*
X104580140Y-95818000D01*
X106363860Y-95818000D01*
X106388997Y-95820476D01*
G37*
G36*
X83777500Y-95991000D02*
G01*
X80945500Y-95991000D01*
X80945500Y-94759000D01*
X83777500Y-94759000D01*
X83777500Y-95991000D01*
G37*
G36*
X88959500Y-95913500D02*
G01*
X87697500Y-95913500D01*
X87697500Y-95221500D01*
X88959500Y-95221500D01*
X88959500Y-95913500D01*
G37*
G36*
X85944569Y-94736157D02*
G01*
X85979254Y-94746679D01*
X86011224Y-94763767D01*
X86039241Y-94786759D01*
X86062233Y-94814776D01*
X86079321Y-94846746D01*
X86089843Y-94881431D01*
X86094000Y-94923640D01*
X86094000Y-95632360D01*
X86089843Y-95674569D01*
X86079321Y-95709254D01*
X86062233Y-95741224D01*
X86039241Y-95769241D01*
X86011224Y-95792233D01*
X85979254Y-95809321D01*
X85944569Y-95819843D01*
X85902360Y-95824000D01*
X85293640Y-95824000D01*
X85251431Y-95819843D01*
X85216746Y-95809321D01*
X85184776Y-95792233D01*
X85156759Y-95769241D01*
X85133767Y-95741224D01*
X85116679Y-95709254D01*
X85106157Y-95674569D01*
X85102000Y-95632360D01*
X85102000Y-94923640D01*
X85106157Y-94881431D01*
X85116679Y-94846746D01*
X85133767Y-94814776D01*
X85156759Y-94786759D01*
X85184776Y-94763767D01*
X85216746Y-94746679D01*
X85251431Y-94736157D01*
X85293640Y-94732000D01*
X85902360Y-94732000D01*
X85944569Y-94736157D01*
G37*
G36*
X108169569Y-94200157D02*
G01*
X108204254Y-94210679D01*
X108236224Y-94227767D01*
X108264241Y-94250759D01*
X108287233Y-94278776D01*
X108304321Y-94310746D01*
X108314843Y-94345431D01*
X108319000Y-94387640D01*
X108319000Y-95096360D01*
X108314843Y-95138569D01*
X108304321Y-95173254D01*
X108287233Y-95205224D01*
X108264241Y-95233241D01*
X108236224Y-95256233D01*
X108204254Y-95273321D01*
X108169569Y-95283843D01*
X108127360Y-95288000D01*
X107518640Y-95288000D01*
X107476431Y-95283843D01*
X107441746Y-95273321D01*
X107409776Y-95256233D01*
X107381759Y-95233241D01*
X107358767Y-95205224D01*
X107341679Y-95173254D01*
X107331157Y-95138569D01*
X107327000Y-95096360D01*
X107327000Y-94387640D01*
X107331157Y-94345431D01*
X107341679Y-94310746D01*
X107358767Y-94278776D01*
X107381759Y-94250759D01*
X107409776Y-94227767D01*
X107441746Y-94210679D01*
X107476431Y-94200157D01*
X107518640Y-94196000D01*
X108127360Y-94196000D01*
X108169569Y-94200157D01*
G37*
G36*
X101438997Y-94550476D02*
G01*
X101457274Y-94556020D01*
X101474108Y-94565018D01*
X101488868Y-94577132D01*
X101500982Y-94591892D01*
X101509980Y-94608726D01*
X101515524Y-94627003D01*
X101518000Y-94652140D01*
X101518000Y-95085860D01*
X101515524Y-95110997D01*
X101509980Y-95129274D01*
X101500982Y-95146108D01*
X101488868Y-95160868D01*
X101474108Y-95172982D01*
X101457274Y-95181980D01*
X101438997Y-95187524D01*
X101413860Y-95190000D01*
X99630140Y-95190000D01*
X99605003Y-95187524D01*
X99586726Y-95181980D01*
X99569892Y-95172982D01*
X99555132Y-95160868D01*
X99543018Y-95146108D01*
X99534020Y-95129274D01*
X99528476Y-95110997D01*
X99526000Y-95085860D01*
X99526000Y-94652140D01*
X99528476Y-94627003D01*
X99534020Y-94608726D01*
X99543018Y-94591892D01*
X99555132Y-94577132D01*
X99569892Y-94565018D01*
X99586726Y-94556020D01*
X99605003Y-94550476D01*
X99630140Y-94548000D01*
X101413860Y-94548000D01*
X101438997Y-94550476D01*
G37*
G36*
X106388997Y-94550476D02*
G01*
X106407274Y-94556020D01*
X106424108Y-94565018D01*
X106438868Y-94577132D01*
X106450982Y-94591892D01*
X106459980Y-94608726D01*
X106465524Y-94627003D01*
X106468000Y-94652140D01*
X106468000Y-95085860D01*
X106465524Y-95110997D01*
X106459980Y-95129274D01*
X106450982Y-95146108D01*
X106438868Y-95160868D01*
X106424108Y-95172982D01*
X106407274Y-95181980D01*
X106388997Y-95187524D01*
X106363860Y-95190000D01*
X104580140Y-95190000D01*
X104555003Y-95187524D01*
X104536726Y-95181980D01*
X104519892Y-95172982D01*
X104505132Y-95160868D01*
X104493018Y-95146108D01*
X104484020Y-95129274D01*
X104478476Y-95110997D01*
X104476000Y-95085860D01*
X104476000Y-94652140D01*
X104478476Y-94627003D01*
X104484020Y-94608726D01*
X104493018Y-94591892D01*
X104505132Y-94577132D01*
X104519892Y-94565018D01*
X104536726Y-94556020D01*
X104555003Y-94550476D01*
X104580140Y-94548000D01*
X106363860Y-94548000D01*
X106388997Y-94550476D01*
G37*
G36*
X95075069Y-94123157D02*
G01*
X95109754Y-94133679D01*
X95141724Y-94150767D01*
X95169741Y-94173759D01*
X95192733Y-94201776D01*
X95209821Y-94233746D01*
X95220343Y-94268431D01*
X95224500Y-94310640D01*
X95224500Y-94919360D01*
X95220343Y-94961569D01*
X95209821Y-94996254D01*
X95192733Y-95028224D01*
X95169741Y-95056241D01*
X95141724Y-95079233D01*
X95109754Y-95096321D01*
X95075069Y-95106843D01*
X95032860Y-95111000D01*
X94324140Y-95111000D01*
X94281931Y-95106843D01*
X94247246Y-95096321D01*
X94215276Y-95079233D01*
X94187259Y-95056241D01*
X94164267Y-95028224D01*
X94147179Y-94996254D01*
X94136657Y-94961569D01*
X94132500Y-94919360D01*
X94132500Y-94310640D01*
X94136657Y-94268431D01*
X94147179Y-94233746D01*
X94164267Y-94201776D01*
X94187259Y-94173759D01*
X94215276Y-94150767D01*
X94247246Y-94133679D01*
X94281931Y-94123157D01*
X94324140Y-94119000D01*
X95032860Y-94119000D01*
X95075069Y-94123157D01*
G37*
G36*
X93325069Y-94123157D02*
G01*
X93359754Y-94133679D01*
X93391724Y-94150767D01*
X93419741Y-94173759D01*
X93442733Y-94201776D01*
X93459821Y-94233746D01*
X93470343Y-94268431D01*
X93474500Y-94310640D01*
X93474500Y-94919360D01*
X93470343Y-94961569D01*
X93459821Y-94996254D01*
X93442733Y-95028224D01*
X93419741Y-95056241D01*
X93391724Y-95079233D01*
X93359754Y-95096321D01*
X93325069Y-95106843D01*
X93282860Y-95111000D01*
X92574140Y-95111000D01*
X92531931Y-95106843D01*
X92497246Y-95096321D01*
X92465276Y-95079233D01*
X92437259Y-95056241D01*
X92414267Y-95028224D01*
X92397179Y-94996254D01*
X92386657Y-94961569D01*
X92382500Y-94919360D01*
X92382500Y-94310640D01*
X92386657Y-94268431D01*
X92397179Y-94233746D01*
X92414267Y-94201776D01*
X92437259Y-94173759D01*
X92465276Y-94150767D01*
X92497246Y-94133679D01*
X92531931Y-94123157D01*
X92574140Y-94119000D01*
X93282860Y-94119000D01*
X93325069Y-94123157D01*
G37*
G36*
X75022569Y-93946157D02*
G01*
X75057254Y-93956679D01*
X75089224Y-93973767D01*
X75117241Y-93996759D01*
X75140233Y-94024776D01*
X75157321Y-94056746D01*
X75167843Y-94091431D01*
X75172000Y-94133640D01*
X75172000Y-94842360D01*
X75167843Y-94884569D01*
X75157321Y-94919254D01*
X75140233Y-94951224D01*
X75117241Y-94979241D01*
X75089224Y-95002233D01*
X75057254Y-95019321D01*
X75022569Y-95029843D01*
X74980360Y-95034000D01*
X74371640Y-95034000D01*
X74329431Y-95029843D01*
X74294746Y-95019321D01*
X74262776Y-95002233D01*
X74234759Y-94979241D01*
X74211767Y-94951224D01*
X74194679Y-94919254D01*
X74184157Y-94884569D01*
X74180000Y-94842360D01*
X74180000Y-94133640D01*
X74184157Y-94091431D01*
X74194679Y-94056746D01*
X74211767Y-94024776D01*
X74234759Y-93996759D01*
X74262776Y-93973767D01*
X74294746Y-93956679D01*
X74329431Y-93946157D01*
X74371640Y-93942000D01*
X74980360Y-93942000D01*
X75022569Y-93946157D01*
G37*
G36*
X91579500Y-94963500D02*
G01*
X90317500Y-94963500D01*
X90317500Y-94271500D01*
X91579500Y-94271500D01*
X91579500Y-94963500D01*
G37*
G36*
X88959500Y-94963500D02*
G01*
X87697500Y-94963500D01*
X87697500Y-94271500D01*
X88959500Y-94271500D01*
X88959500Y-94963500D01*
G37*
G36*
X106388997Y-93280476D02*
G01*
X106407274Y-93286020D01*
X106424108Y-93295018D01*
X106438868Y-93307132D01*
X106450982Y-93321892D01*
X106459980Y-93338726D01*
X106465524Y-93357003D01*
X106468000Y-93382140D01*
X106468000Y-93815860D01*
X106465524Y-93840997D01*
X106459980Y-93859274D01*
X106450982Y-93876108D01*
X106438868Y-93890868D01*
X106424108Y-93902982D01*
X106407274Y-93911980D01*
X106388997Y-93917524D01*
X106363860Y-93920000D01*
X104580140Y-93920000D01*
X104555003Y-93917524D01*
X104536726Y-93911980D01*
X104519892Y-93902982D01*
X104505132Y-93890868D01*
X104493018Y-93876108D01*
X104484020Y-93859274D01*
X104478476Y-93840997D01*
X104476000Y-93815860D01*
X104476000Y-93382140D01*
X104478476Y-93357003D01*
X104484020Y-93338726D01*
X104493018Y-93321892D01*
X104505132Y-93307132D01*
X104519892Y-93295018D01*
X104536726Y-93286020D01*
X104555003Y-93280476D01*
X104580140Y-93278000D01*
X106363860Y-93278000D01*
X106388997Y-93280476D01*
G37*
G36*
X101438997Y-93280476D02*
G01*
X101457274Y-93286020D01*
X101474108Y-93295018D01*
X101488868Y-93307132D01*
X101500982Y-93321892D01*
X101509980Y-93338726D01*
X101515524Y-93357003D01*
X101518000Y-93382140D01*
X101518000Y-93815860D01*
X101515524Y-93840997D01*
X101509980Y-93859274D01*
X101500982Y-93876108D01*
X101488868Y-93890868D01*
X101474108Y-93902982D01*
X101457274Y-93911980D01*
X101438997Y-93917524D01*
X101413860Y-93920000D01*
X99630140Y-93920000D01*
X99605003Y-93917524D01*
X99586726Y-93911980D01*
X99569892Y-93902982D01*
X99555132Y-93890868D01*
X99543018Y-93876108D01*
X99534020Y-93859274D01*
X99528476Y-93840997D01*
X99526000Y-93815860D01*
X99526000Y-93382140D01*
X99528476Y-93357003D01*
X99534020Y-93338726D01*
X99543018Y-93321892D01*
X99555132Y-93307132D01*
X99569892Y-93295018D01*
X99586726Y-93286020D01*
X99605003Y-93280476D01*
X99630140Y-93278000D01*
X101413860Y-93278000D01*
X101438997Y-93280476D01*
G37*
G36*
X78947500Y-93451000D02*
G01*
X76115500Y-93451000D01*
X76115500Y-92219000D01*
X78947500Y-92219000D01*
X78947500Y-93451000D01*
G37*
G36*
X85895569Y-92345157D02*
G01*
X85930254Y-92355679D01*
X85962224Y-92372767D01*
X85990241Y-92395759D01*
X86013233Y-92423776D01*
X86030321Y-92455746D01*
X86040843Y-92490431D01*
X86045000Y-92532640D01*
X86045000Y-93141360D01*
X86040843Y-93183569D01*
X86030321Y-93218254D01*
X86013233Y-93250224D01*
X85990241Y-93278241D01*
X85962224Y-93301233D01*
X85930254Y-93318321D01*
X85895569Y-93328843D01*
X85853360Y-93333000D01*
X85144640Y-93333000D01*
X85102431Y-93328843D01*
X85067746Y-93318321D01*
X85035776Y-93301233D01*
X85007759Y-93278241D01*
X84984767Y-93250224D01*
X84967679Y-93218254D01*
X84957157Y-93183569D01*
X84953000Y-93141360D01*
X84953000Y-92532640D01*
X84957157Y-92490431D01*
X84967679Y-92455746D01*
X84984767Y-92423776D01*
X85007759Y-92395759D01*
X85035776Y-92372767D01*
X85067746Y-92355679D01*
X85102431Y-92345157D01*
X85144640Y-92341000D01*
X85853360Y-92341000D01*
X85895569Y-92345157D01*
G37*
G36*
X87645569Y-92345157D02*
G01*
X87680254Y-92355679D01*
X87712224Y-92372767D01*
X87740241Y-92395759D01*
X87763233Y-92423776D01*
X87780321Y-92455746D01*
X87790843Y-92490431D01*
X87795000Y-92532640D01*
X87795000Y-93141360D01*
X87790843Y-93183569D01*
X87780321Y-93218254D01*
X87763233Y-93250224D01*
X87740241Y-93278241D01*
X87712224Y-93301233D01*
X87680254Y-93318321D01*
X87645569Y-93328843D01*
X87603360Y-93333000D01*
X86894640Y-93333000D01*
X86852431Y-93328843D01*
X86817746Y-93318321D01*
X86785776Y-93301233D01*
X86757759Y-93278241D01*
X86734767Y-93250224D01*
X86717679Y-93218254D01*
X86707157Y-93183569D01*
X86703000Y-93141360D01*
X86703000Y-92532640D01*
X86707157Y-92490431D01*
X86717679Y-92455746D01*
X86734767Y-92423776D01*
X86757759Y-92395759D01*
X86785776Y-92372767D01*
X86817746Y-92355679D01*
X86852431Y-92345157D01*
X86894640Y-92341000D01*
X87603360Y-92341000D01*
X87645569Y-92345157D01*
G37*
G36*
X75022569Y-92196157D02*
G01*
X75057254Y-92206679D01*
X75089224Y-92223767D01*
X75117241Y-92246759D01*
X75140233Y-92274776D01*
X75157321Y-92306746D01*
X75167843Y-92341431D01*
X75172000Y-92383640D01*
X75172000Y-93092360D01*
X75167843Y-93134569D01*
X75157321Y-93169254D01*
X75140233Y-93201224D01*
X75117241Y-93229241D01*
X75089224Y-93252233D01*
X75057254Y-93269321D01*
X75022569Y-93279843D01*
X74980360Y-93284000D01*
X74371640Y-93284000D01*
X74329431Y-93279843D01*
X74294746Y-93269321D01*
X74262776Y-93252233D01*
X74234759Y-93229241D01*
X74211767Y-93201224D01*
X74194679Y-93169254D01*
X74184157Y-93134569D01*
X74180000Y-93092360D01*
X74180000Y-92383640D01*
X74184157Y-92341431D01*
X74194679Y-92306746D01*
X74211767Y-92274776D01*
X74234759Y-92246759D01*
X74262776Y-92223767D01*
X74294746Y-92206679D01*
X74329431Y-92196157D01*
X74371640Y-92192000D01*
X74980360Y-92192000D01*
X75022569Y-92196157D01*
G37*
G36*
X102349569Y-91202157D02*
G01*
X102384254Y-91212679D01*
X102416224Y-91229767D01*
X102444241Y-91252759D01*
X102467233Y-91280776D01*
X102484321Y-91312746D01*
X102494843Y-91347431D01*
X102499000Y-91389640D01*
X102499000Y-91998360D01*
X102494843Y-92040569D01*
X102484321Y-92075254D01*
X102467233Y-92107224D01*
X102444241Y-92135241D01*
X102416224Y-92158233D01*
X102384254Y-92175321D01*
X102349569Y-92185843D01*
X102307360Y-92190000D01*
X101598640Y-92190000D01*
X101556431Y-92185843D01*
X101521746Y-92175321D01*
X101489776Y-92158233D01*
X101461759Y-92135241D01*
X101438767Y-92107224D01*
X101421679Y-92075254D01*
X101411157Y-92040569D01*
X101407000Y-91998360D01*
X101407000Y-91389640D01*
X101411157Y-91347431D01*
X101421679Y-91312746D01*
X101438767Y-91280776D01*
X101461759Y-91252759D01*
X101489776Y-91229767D01*
X101521746Y-91212679D01*
X101556431Y-91202157D01*
X101598640Y-91198000D01*
X102307360Y-91198000D01*
X102349569Y-91202157D01*
G37*
G36*
X100599569Y-91202157D02*
G01*
X100634254Y-91212679D01*
X100666224Y-91229767D01*
X100694241Y-91252759D01*
X100717233Y-91280776D01*
X100734321Y-91312746D01*
X100744843Y-91347431D01*
X100749000Y-91389640D01*
X100749000Y-91998360D01*
X100744843Y-92040569D01*
X100734321Y-92075254D01*
X100717233Y-92107224D01*
X100694241Y-92135241D01*
X100666224Y-92158233D01*
X100634254Y-92175321D01*
X100599569Y-92185843D01*
X100557360Y-92190000D01*
X99848640Y-92190000D01*
X99806431Y-92185843D01*
X99771746Y-92175321D01*
X99739776Y-92158233D01*
X99711759Y-92135241D01*
X99688767Y-92107224D01*
X99671679Y-92075254D01*
X99661157Y-92040569D01*
X99657000Y-91998360D01*
X99657000Y-91389640D01*
X99661157Y-91347431D01*
X99671679Y-91312746D01*
X99688767Y-91280776D01*
X99711759Y-91252759D01*
X99739776Y-91229767D01*
X99771746Y-91212679D01*
X99806431Y-91202157D01*
X99848640Y-91198000D01*
X100557360Y-91198000D01*
X100599569Y-91202157D01*
G37*
G36*
X57239000Y-90643000D02*
G01*
X52997000Y-90643000D01*
X52997000Y-89251000D01*
X57239000Y-89251000D01*
X57239000Y-90643000D01*
G37*
G36*
X85740569Y-89424157D02*
G01*
X85775254Y-89434679D01*
X85807224Y-89451767D01*
X85835241Y-89474759D01*
X85858233Y-89502776D01*
X85875321Y-89534746D01*
X85885843Y-89569431D01*
X85890000Y-89611640D01*
X85890000Y-90220360D01*
X85885843Y-90262569D01*
X85875321Y-90297254D01*
X85858233Y-90329224D01*
X85835241Y-90357241D01*
X85807224Y-90380233D01*
X85775254Y-90397321D01*
X85740569Y-90407843D01*
X85698360Y-90412000D01*
X84989640Y-90412000D01*
X84947431Y-90407843D01*
X84912746Y-90397321D01*
X84880776Y-90380233D01*
X84852759Y-90357241D01*
X84829767Y-90329224D01*
X84812679Y-90297254D01*
X84802157Y-90262569D01*
X84798000Y-90220360D01*
X84798000Y-89611640D01*
X84802157Y-89569431D01*
X84812679Y-89534746D01*
X84829767Y-89502776D01*
X84852759Y-89474759D01*
X84880776Y-89451767D01*
X84912746Y-89434679D01*
X84947431Y-89424157D01*
X84989640Y-89420000D01*
X85698360Y-89420000D01*
X85740569Y-89424157D01*
G37*
G36*
X87490569Y-89424157D02*
G01*
X87525254Y-89434679D01*
X87557224Y-89451767D01*
X87585241Y-89474759D01*
X87608233Y-89502776D01*
X87625321Y-89534746D01*
X87635843Y-89569431D01*
X87640000Y-89611640D01*
X87640000Y-90220360D01*
X87635843Y-90262569D01*
X87625321Y-90297254D01*
X87608233Y-90329224D01*
X87585241Y-90357241D01*
X87557224Y-90380233D01*
X87525254Y-90397321D01*
X87490569Y-90407843D01*
X87448360Y-90412000D01*
X86739640Y-90412000D01*
X86697431Y-90407843D01*
X86662746Y-90397321D01*
X86630776Y-90380233D01*
X86602759Y-90357241D01*
X86579767Y-90329224D01*
X86562679Y-90297254D01*
X86552157Y-90262569D01*
X86548000Y-90220360D01*
X86548000Y-89611640D01*
X86552157Y-89569431D01*
X86562679Y-89534746D01*
X86579767Y-89502776D01*
X86602759Y-89474759D01*
X86630776Y-89451767D01*
X86662746Y-89434679D01*
X86697431Y-89424157D01*
X86739640Y-89420000D01*
X87448360Y-89420000D01*
X87490569Y-89424157D01*
G37*
G36*
X81363000Y-90196000D02*
G01*
X80101000Y-90196000D01*
X80101000Y-89504000D01*
X81363000Y-89504000D01*
X81363000Y-90196000D01*
G37*
G36*
X83983000Y-90196000D02*
G01*
X82721000Y-90196000D01*
X82721000Y-89504000D01*
X83983000Y-89504000D01*
X83983000Y-90196000D01*
G37*
G36*
X73830569Y-89170157D02*
G01*
X73865254Y-89180679D01*
X73897224Y-89197767D01*
X73925241Y-89220759D01*
X73948233Y-89248776D01*
X73965321Y-89280746D01*
X73975843Y-89315431D01*
X73980000Y-89357640D01*
X73980000Y-89966360D01*
X73975843Y-90008569D01*
X73965321Y-90043254D01*
X73948233Y-90075224D01*
X73925241Y-90103241D01*
X73897224Y-90126233D01*
X73865254Y-90143321D01*
X73830569Y-90153843D01*
X73788360Y-90158000D01*
X73079640Y-90158000D01*
X73037431Y-90153843D01*
X73002746Y-90143321D01*
X72970776Y-90126233D01*
X72942759Y-90103241D01*
X72919767Y-90075224D01*
X72902679Y-90043254D01*
X72892157Y-90008569D01*
X72888000Y-89966360D01*
X72888000Y-89357640D01*
X72892157Y-89315431D01*
X72902679Y-89280746D01*
X72919767Y-89248776D01*
X72942759Y-89220759D01*
X72970776Y-89197767D01*
X73002746Y-89180679D01*
X73037431Y-89170157D01*
X73079640Y-89166000D01*
X73788360Y-89166000D01*
X73830569Y-89170157D01*
G37*
G36*
X75580569Y-89170157D02*
G01*
X75615254Y-89180679D01*
X75647224Y-89197767D01*
X75675241Y-89220759D01*
X75698233Y-89248776D01*
X75715321Y-89280746D01*
X75725843Y-89315431D01*
X75730000Y-89357640D01*
X75730000Y-89966360D01*
X75725843Y-90008569D01*
X75715321Y-90043254D01*
X75698233Y-90075224D01*
X75675241Y-90103241D01*
X75647224Y-90126233D01*
X75615254Y-90143321D01*
X75580569Y-90153843D01*
X75538360Y-90158000D01*
X74829640Y-90158000D01*
X74787431Y-90153843D01*
X74752746Y-90143321D01*
X74720776Y-90126233D01*
X74692759Y-90103241D01*
X74669767Y-90075224D01*
X74652679Y-90043254D01*
X74642157Y-90008569D01*
X74638000Y-89966360D01*
X74638000Y-89357640D01*
X74642157Y-89315431D01*
X74652679Y-89280746D01*
X74669767Y-89248776D01*
X74692759Y-89220759D01*
X74720776Y-89197767D01*
X74752746Y-89180679D01*
X74787431Y-89170157D01*
X74829640Y-89166000D01*
X75538360Y-89166000D01*
X75580569Y-89170157D01*
G37*
G36*
X79235569Y-88408157D02*
G01*
X79270254Y-88418679D01*
X79302224Y-88435767D01*
X79330241Y-88458759D01*
X79353233Y-88486776D01*
X79370321Y-88518746D01*
X79380843Y-88553431D01*
X79385000Y-88595640D01*
X79385000Y-89204360D01*
X79380843Y-89246569D01*
X79370321Y-89281254D01*
X79353233Y-89313224D01*
X79330241Y-89341241D01*
X79302224Y-89364233D01*
X79270254Y-89381321D01*
X79235569Y-89391843D01*
X79193360Y-89396000D01*
X78484640Y-89396000D01*
X78442431Y-89391843D01*
X78407746Y-89381321D01*
X78375776Y-89364233D01*
X78347759Y-89341241D01*
X78324767Y-89313224D01*
X78307679Y-89281254D01*
X78297157Y-89246569D01*
X78293000Y-89204360D01*
X78293000Y-88595640D01*
X78297157Y-88553431D01*
X78307679Y-88518746D01*
X78324767Y-88486776D01*
X78347759Y-88458759D01*
X78375776Y-88435767D01*
X78407746Y-88418679D01*
X78442431Y-88408157D01*
X78484640Y-88404000D01*
X79193360Y-88404000D01*
X79235569Y-88408157D01*
G37*
G36*
X77485569Y-88408157D02*
G01*
X77520254Y-88418679D01*
X77552224Y-88435767D01*
X77580241Y-88458759D01*
X77603233Y-88486776D01*
X77620321Y-88518746D01*
X77630843Y-88553431D01*
X77635000Y-88595640D01*
X77635000Y-89204360D01*
X77630843Y-89246569D01*
X77620321Y-89281254D01*
X77603233Y-89313224D01*
X77580241Y-89341241D01*
X77552224Y-89364233D01*
X77520254Y-89381321D01*
X77485569Y-89391843D01*
X77443360Y-89396000D01*
X76734640Y-89396000D01*
X76692431Y-89391843D01*
X76657746Y-89381321D01*
X76625776Y-89364233D01*
X76597759Y-89341241D01*
X76574767Y-89313224D01*
X76557679Y-89281254D01*
X76547157Y-89246569D01*
X76543000Y-89204360D01*
X76543000Y-88595640D01*
X76547157Y-88553431D01*
X76557679Y-88518746D01*
X76574767Y-88486776D01*
X76597759Y-88458759D01*
X76625776Y-88435767D01*
X76657746Y-88418679D01*
X76692431Y-88408157D01*
X76734640Y-88404000D01*
X77443360Y-88404000D01*
X77485569Y-88408157D01*
G37*
G36*
X81363000Y-89246000D02*
G01*
X80101000Y-89246000D01*
X80101000Y-88554000D01*
X81363000Y-88554000D01*
X81363000Y-89246000D01*
G37*
G36*
X87490569Y-87392157D02*
G01*
X87525254Y-87402679D01*
X87557224Y-87419767D01*
X87585241Y-87442759D01*
X87608233Y-87470776D01*
X87625321Y-87502746D01*
X87635843Y-87537431D01*
X87640000Y-87579640D01*
X87640000Y-88188360D01*
X87635843Y-88230569D01*
X87625321Y-88265254D01*
X87608233Y-88297224D01*
X87585241Y-88325241D01*
X87557224Y-88348233D01*
X87525254Y-88365321D01*
X87490569Y-88375843D01*
X87448360Y-88380000D01*
X86739640Y-88380000D01*
X86697431Y-88375843D01*
X86662746Y-88365321D01*
X86630776Y-88348233D01*
X86602759Y-88325241D01*
X86579767Y-88297224D01*
X86562679Y-88265254D01*
X86552157Y-88230569D01*
X86548000Y-88188360D01*
X86548000Y-87579640D01*
X86552157Y-87537431D01*
X86562679Y-87502746D01*
X86579767Y-87470776D01*
X86602759Y-87442759D01*
X86630776Y-87419767D01*
X86662746Y-87402679D01*
X86697431Y-87392157D01*
X86739640Y-87388000D01*
X87448360Y-87388000D01*
X87490569Y-87392157D01*
G37*
G36*
X85740569Y-87392157D02*
G01*
X85775254Y-87402679D01*
X85807224Y-87419767D01*
X85835241Y-87442759D01*
X85858233Y-87470776D01*
X85875321Y-87502746D01*
X85885843Y-87537431D01*
X85890000Y-87579640D01*
X85890000Y-88188360D01*
X85885843Y-88230569D01*
X85875321Y-88265254D01*
X85858233Y-88297224D01*
X85835241Y-88325241D01*
X85807224Y-88348233D01*
X85775254Y-88365321D01*
X85740569Y-88375843D01*
X85698360Y-88380000D01*
X84989640Y-88380000D01*
X84947431Y-88375843D01*
X84912746Y-88365321D01*
X84880776Y-88348233D01*
X84852759Y-88325241D01*
X84829767Y-88297224D01*
X84812679Y-88265254D01*
X84802157Y-88230569D01*
X84798000Y-88188360D01*
X84798000Y-87579640D01*
X84802157Y-87537431D01*
X84812679Y-87502746D01*
X84829767Y-87470776D01*
X84852759Y-87442759D01*
X84880776Y-87419767D01*
X84912746Y-87402679D01*
X84947431Y-87392157D01*
X84989640Y-87388000D01*
X85698360Y-87388000D01*
X85740569Y-87392157D01*
G37*
G36*
X83983000Y-88296000D02*
G01*
X82721000Y-88296000D01*
X82721000Y-87604000D01*
X83983000Y-87604000D01*
X83983000Y-88296000D01*
G37*
G36*
X81363000Y-88296000D02*
G01*
X80101000Y-88296000D01*
X80101000Y-87604000D01*
X81363000Y-87604000D01*
X81363000Y-88296000D01*
G37*
G36*
X56739000Y-87778000D02*
G01*
X53097000Y-87778000D01*
X53097000Y-86466000D01*
X56739000Y-86466000D01*
X56739000Y-87778000D01*
G37*
G36*
X73830569Y-86630157D02*
G01*
X73865254Y-86640679D01*
X73897224Y-86657767D01*
X73925241Y-86680759D01*
X73948233Y-86708776D01*
X73965321Y-86740746D01*
X73975843Y-86775431D01*
X73980000Y-86817640D01*
X73980000Y-87426360D01*
X73975843Y-87468569D01*
X73965321Y-87503254D01*
X73948233Y-87535224D01*
X73925241Y-87563241D01*
X73897224Y-87586233D01*
X73865254Y-87603321D01*
X73830569Y-87613843D01*
X73788360Y-87618000D01*
X73079640Y-87618000D01*
X73037431Y-87613843D01*
X73002746Y-87603321D01*
X72970776Y-87586233D01*
X72942759Y-87563241D01*
X72919767Y-87535224D01*
X72902679Y-87503254D01*
X72892157Y-87468569D01*
X72888000Y-87426360D01*
X72888000Y-86817640D01*
X72892157Y-86775431D01*
X72902679Y-86740746D01*
X72919767Y-86708776D01*
X72942759Y-86680759D01*
X72970776Y-86657767D01*
X73002746Y-86640679D01*
X73037431Y-86630157D01*
X73079640Y-86626000D01*
X73788360Y-86626000D01*
X73830569Y-86630157D01*
G37*
G36*
X75580569Y-86630157D02*
G01*
X75615254Y-86640679D01*
X75647224Y-86657767D01*
X75675241Y-86680759D01*
X75698233Y-86708776D01*
X75715321Y-86740746D01*
X75725843Y-86775431D01*
X75730000Y-86817640D01*
X75730000Y-87426360D01*
X75725843Y-87468569D01*
X75715321Y-87503254D01*
X75698233Y-87535224D01*
X75675241Y-87563241D01*
X75647224Y-87586233D01*
X75615254Y-87603321D01*
X75580569Y-87613843D01*
X75538360Y-87618000D01*
X74829640Y-87618000D01*
X74787431Y-87613843D01*
X74752746Y-87603321D01*
X74720776Y-87586233D01*
X74692759Y-87563241D01*
X74669767Y-87535224D01*
X74652679Y-87503254D01*
X74642157Y-87468569D01*
X74638000Y-87426360D01*
X74638000Y-86817640D01*
X74642157Y-86775431D01*
X74652679Y-86740746D01*
X74669767Y-86708776D01*
X74692759Y-86680759D01*
X74720776Y-86657767D01*
X74752746Y-86640679D01*
X74787431Y-86630157D01*
X74829640Y-86626000D01*
X75538360Y-86626000D01*
X75580569Y-86630157D01*
G37*
G36*
X100498918Y-84828284D02*
G01*
X100632482Y-84854851D01*
X100821204Y-84933022D01*
X100991049Y-85046509D01*
X101135491Y-85190951D01*
X101248978Y-85360796D01*
X101327149Y-85549518D01*
X101367000Y-85749864D01*
X101367000Y-85954136D01*
X101327149Y-86154482D01*
X101248978Y-86343204D01*
X101135491Y-86513049D01*
X100991049Y-86657491D01*
X100821204Y-86770978D01*
X100632482Y-86849149D01*
X100507547Y-86874000D01*
X100432137Y-86889000D01*
X100227863Y-86889000D01*
X100152453Y-86874000D01*
X100027518Y-86849149D01*
X99838796Y-86770978D01*
X99668951Y-86657491D01*
X99524509Y-86513049D01*
X99411022Y-86343204D01*
X99332851Y-86154482D01*
X99293000Y-85954136D01*
X99293000Y-85749864D01*
X99332851Y-85549518D01*
X99411022Y-85360796D01*
X99524509Y-85190951D01*
X99668951Y-85046509D01*
X99838796Y-84933022D01*
X100027518Y-84854851D01*
X100161082Y-84828284D01*
X100227863Y-84815000D01*
X100432137Y-84815000D01*
X100498918Y-84828284D01*
G37*
G36*
X81196569Y-85360157D02*
G01*
X81231254Y-85370679D01*
X81263224Y-85387767D01*
X81291241Y-85410759D01*
X81314233Y-85438776D01*
X81331321Y-85470746D01*
X81341843Y-85505431D01*
X81346000Y-85547640D01*
X81346000Y-86156360D01*
X81341843Y-86198569D01*
X81331321Y-86233254D01*
X81314233Y-86265224D01*
X81291241Y-86293241D01*
X81263224Y-86316233D01*
X81231254Y-86333321D01*
X81196569Y-86343843D01*
X81154360Y-86348000D01*
X80445640Y-86348000D01*
X80403431Y-86343843D01*
X80368746Y-86333321D01*
X80336776Y-86316233D01*
X80308759Y-86293241D01*
X80285767Y-86265224D01*
X80268679Y-86233254D01*
X80258157Y-86198569D01*
X80254000Y-86156360D01*
X80254000Y-85547640D01*
X80258157Y-85505431D01*
X80268679Y-85470746D01*
X80285767Y-85438776D01*
X80308759Y-85410759D01*
X80336776Y-85387767D01*
X80368746Y-85370679D01*
X80403431Y-85360157D01*
X80445640Y-85356000D01*
X81154360Y-85356000D01*
X81196569Y-85360157D01*
G37*
G36*
X82946569Y-85360157D02*
G01*
X82981254Y-85370679D01*
X83013224Y-85387767D01*
X83041241Y-85410759D01*
X83064233Y-85438776D01*
X83081321Y-85470746D01*
X83091843Y-85505431D01*
X83096000Y-85547640D01*
X83096000Y-86156360D01*
X83091843Y-86198569D01*
X83081321Y-86233254D01*
X83064233Y-86265224D01*
X83041241Y-86293241D01*
X83013224Y-86316233D01*
X82981254Y-86333321D01*
X82946569Y-86343843D01*
X82904360Y-86348000D01*
X82195640Y-86348000D01*
X82153431Y-86343843D01*
X82118746Y-86333321D01*
X82086776Y-86316233D01*
X82058759Y-86293241D01*
X82035767Y-86265224D01*
X82018679Y-86233254D01*
X82008157Y-86198569D01*
X82004000Y-86156360D01*
X82004000Y-85547640D01*
X82008157Y-85505431D01*
X82018679Y-85470746D01*
X82035767Y-85438776D01*
X82058759Y-85410759D01*
X82086776Y-85387767D01*
X82118746Y-85370679D01*
X82153431Y-85360157D01*
X82195640Y-85356000D01*
X82904360Y-85356000D01*
X82946569Y-85360157D01*
G37*
G36*
X74619000Y-84995000D02*
G01*
X71177000Y-84995000D01*
X71177000Y-83153000D01*
X74619000Y-83153000D01*
X74619000Y-84995000D01*
G37*
G36*
X57239000Y-84993000D02*
G01*
X52997000Y-84993000D01*
X52997000Y-83601000D01*
X57239000Y-83601000D01*
X57239000Y-84993000D01*
G37*
G36*
X85033000Y-84741000D02*
G01*
X81591000Y-84741000D01*
X81591000Y-82899000D01*
X85033000Y-82899000D01*
X85033000Y-84741000D01*
G37*
G36*
X95679545Y-81714371D02*
G01*
X95711438Y-81724046D01*
X95740832Y-81739758D01*
X95766598Y-81760902D01*
X95787742Y-81786668D01*
X95803454Y-81816062D01*
X95813129Y-81847955D01*
X95817000Y-81887263D01*
X95817000Y-84350737D01*
X95813129Y-84390045D01*
X95803454Y-84421938D01*
X95787742Y-84451332D01*
X95766598Y-84477098D01*
X95740832Y-84498242D01*
X95711438Y-84513954D01*
X95679545Y-84523629D01*
X95640237Y-84527500D01*
X94351763Y-84527500D01*
X94312455Y-84523629D01*
X94280562Y-84513954D01*
X94251168Y-84498242D01*
X94225402Y-84477098D01*
X94204258Y-84451332D01*
X94188546Y-84421938D01*
X94178871Y-84390045D01*
X94175000Y-84350737D01*
X94175000Y-81887263D01*
X94178871Y-81847955D01*
X94188546Y-81816062D01*
X94204258Y-81786668D01*
X94225402Y-81760902D01*
X94251168Y-81739758D01*
X94280562Y-81724046D01*
X94312455Y-81714371D01*
X94351763Y-81710500D01*
X95640237Y-81710500D01*
X95679545Y-81714371D01*
G37*
G36*
X100498918Y-82278284D02*
G01*
X100632482Y-82304851D01*
X100821204Y-82383022D01*
X100991049Y-82496509D01*
X101135491Y-82640951D01*
X101248978Y-82810796D01*
X101327149Y-82999518D01*
X101367000Y-83199864D01*
X101367000Y-83404136D01*
X101327149Y-83604482D01*
X101248978Y-83793204D01*
X101135491Y-83963049D01*
X100991049Y-84107491D01*
X100821204Y-84220978D01*
X100632482Y-84299149D01*
X100522674Y-84320991D01*
X100432137Y-84339000D01*
X100227863Y-84339000D01*
X100137326Y-84320991D01*
X100027518Y-84299149D01*
X99838796Y-84220978D01*
X99668951Y-84107491D01*
X99524509Y-83963049D01*
X99411022Y-83793204D01*
X99332851Y-83604482D01*
X99293000Y-83404136D01*
X99293000Y-83199864D01*
X99332851Y-82999518D01*
X99411022Y-82810796D01*
X99524509Y-82640951D01*
X99668951Y-82496509D01*
X99838796Y-82383022D01*
X100027518Y-82304851D01*
X100161082Y-82278284D01*
X100227863Y-82265000D01*
X100432137Y-82265000D01*
X100498918Y-82278284D01*
G37*
G36*
X76977569Y-83328157D02*
G01*
X77012254Y-83338679D01*
X77044224Y-83355767D01*
X77072241Y-83378759D01*
X77095233Y-83406776D01*
X77112321Y-83438746D01*
X77122843Y-83473431D01*
X77127000Y-83515640D01*
X77127000Y-84124360D01*
X77122843Y-84166569D01*
X77112321Y-84201254D01*
X77095233Y-84233224D01*
X77072241Y-84261241D01*
X77044224Y-84284233D01*
X77012254Y-84301321D01*
X76977569Y-84311843D01*
X76935360Y-84316000D01*
X76226640Y-84316000D01*
X76184431Y-84311843D01*
X76149746Y-84301321D01*
X76117776Y-84284233D01*
X76089759Y-84261241D01*
X76066767Y-84233224D01*
X76049679Y-84201254D01*
X76039157Y-84166569D01*
X76035000Y-84124360D01*
X76035000Y-83515640D01*
X76039157Y-83473431D01*
X76049679Y-83438746D01*
X76066767Y-83406776D01*
X76089759Y-83378759D01*
X76117776Y-83355767D01*
X76149746Y-83338679D01*
X76184431Y-83328157D01*
X76226640Y-83324000D01*
X76935360Y-83324000D01*
X76977569Y-83328157D01*
G37*
G36*
X78727569Y-83328157D02*
G01*
X78762254Y-83338679D01*
X78794224Y-83355767D01*
X78822241Y-83378759D01*
X78845233Y-83406776D01*
X78862321Y-83438746D01*
X78872843Y-83473431D01*
X78877000Y-83515640D01*
X78877000Y-84124360D01*
X78872843Y-84166569D01*
X78862321Y-84201254D01*
X78845233Y-84233224D01*
X78822241Y-84261241D01*
X78794224Y-84284233D01*
X78762254Y-84301321D01*
X78727569Y-84311843D01*
X78685360Y-84316000D01*
X77976640Y-84316000D01*
X77934431Y-84311843D01*
X77899746Y-84301321D01*
X77867776Y-84284233D01*
X77839759Y-84261241D01*
X77816767Y-84233224D01*
X77799679Y-84201254D01*
X77789157Y-84166569D01*
X77785000Y-84124360D01*
X77785000Y-83515640D01*
X77789157Y-83473431D01*
X77799679Y-83438746D01*
X77816767Y-83406776D01*
X77839759Y-83378759D01*
X77867776Y-83355767D01*
X77899746Y-83338679D01*
X77934431Y-83328157D01*
X77976640Y-83324000D01*
X78685360Y-83324000D01*
X78727569Y-83328157D01*
G37*
G36*
X88280569Y-83328157D02*
G01*
X88315254Y-83338679D01*
X88347224Y-83355767D01*
X88375241Y-83378759D01*
X88398233Y-83406776D01*
X88415321Y-83438746D01*
X88425843Y-83473431D01*
X88430000Y-83515640D01*
X88430000Y-84124360D01*
X88425843Y-84166569D01*
X88415321Y-84201254D01*
X88398233Y-84233224D01*
X88375241Y-84261241D01*
X88347224Y-84284233D01*
X88315254Y-84301321D01*
X88280569Y-84311843D01*
X88238360Y-84316000D01*
X87529640Y-84316000D01*
X87487431Y-84311843D01*
X87452746Y-84301321D01*
X87420776Y-84284233D01*
X87392759Y-84261241D01*
X87369767Y-84233224D01*
X87352679Y-84201254D01*
X87342157Y-84166569D01*
X87338000Y-84124360D01*
X87338000Y-83515640D01*
X87342157Y-83473431D01*
X87352679Y-83438746D01*
X87369767Y-83406776D01*
X87392759Y-83378759D01*
X87420776Y-83355767D01*
X87452746Y-83338679D01*
X87487431Y-83328157D01*
X87529640Y-83324000D01*
X88238360Y-83324000D01*
X88280569Y-83328157D01*
G37*
G36*
X90030569Y-83328157D02*
G01*
X90065254Y-83338679D01*
X90097224Y-83355767D01*
X90125241Y-83378759D01*
X90148233Y-83406776D01*
X90165321Y-83438746D01*
X90175843Y-83473431D01*
X90180000Y-83515640D01*
X90180000Y-84124360D01*
X90175843Y-84166569D01*
X90165321Y-84201254D01*
X90148233Y-84233224D01*
X90125241Y-84261241D01*
X90097224Y-84284233D01*
X90065254Y-84301321D01*
X90030569Y-84311843D01*
X89988360Y-84316000D01*
X89279640Y-84316000D01*
X89237431Y-84311843D01*
X89202746Y-84301321D01*
X89170776Y-84284233D01*
X89142759Y-84261241D01*
X89119767Y-84233224D01*
X89102679Y-84201254D01*
X89092157Y-84166569D01*
X89088000Y-84124360D01*
X89088000Y-83515640D01*
X89092157Y-83473431D01*
X89102679Y-83438746D01*
X89119767Y-83406776D01*
X89142759Y-83378759D01*
X89170776Y-83355767D01*
X89202746Y-83338679D01*
X89237431Y-83328157D01*
X89279640Y-83324000D01*
X89988360Y-83324000D01*
X90030569Y-83328157D01*
G37*
G36*
X107031000Y-84233000D02*
G01*
X103789000Y-84233000D01*
X103789000Y-82391000D01*
X107031000Y-82391000D01*
X107031000Y-84233000D01*
G37*
G36*
X91429000Y-82499000D02*
G01*
X90387000Y-82499000D01*
X90387000Y-79957000D01*
X91429000Y-79957000D01*
X91429000Y-82499000D01*
G37*
G36*
X90429000Y-79097001D02*
G01*
X90431402Y-79121387D01*
X90438515Y-79144836D01*
X90450066Y-79166447D01*
X90465611Y-79185389D01*
X90469512Y-79188591D01*
X90449994Y-79217868D01*
X90438465Y-79239491D01*
X90431376Y-79262947D01*
X90429000Y-79287205D01*
X90429000Y-79296281D01*
X90421635Y-79298515D01*
X90400024Y-79310066D01*
X90381082Y-79325611D01*
X90365465Y-79344662D01*
X89949994Y-79967868D01*
X89938465Y-79989491D01*
X89931376Y-80012947D01*
X89929000Y-80037205D01*
X89929000Y-82499000D01*
X88887000Y-82499000D01*
X88887000Y-80037205D01*
X88884598Y-80012819D01*
X88877485Y-79989370D01*
X88866006Y-79967868D01*
X88450535Y-79344662D01*
X88435010Y-79325704D01*
X88416084Y-79310139D01*
X88394486Y-79298565D01*
X88387000Y-79296286D01*
X88387000Y-79287205D01*
X88384598Y-79262819D01*
X88377485Y-79239370D01*
X88366006Y-79217868D01*
X88346488Y-79188591D01*
X88350389Y-79185389D01*
X88365934Y-79166447D01*
X88377485Y-79144836D01*
X88384598Y-79121387D01*
X88387000Y-79097001D01*
X88387000Y-75247000D01*
X90429000Y-75247000D01*
X90429000Y-79097001D01*
G37*
G36*
X88429000Y-82499000D02*
G01*
X87387000Y-82499000D01*
X87387000Y-79957000D01*
X88429000Y-79957000D01*
X88429000Y-82499000D01*
G37*
G36*
X82047000Y-79097001D02*
G01*
X82049402Y-79121387D01*
X82056515Y-79144836D01*
X82068066Y-79166447D01*
X82083611Y-79185389D01*
X82087512Y-79188591D01*
X82067994Y-79217868D01*
X82056465Y-79239491D01*
X82049376Y-79262947D01*
X82047000Y-79287205D01*
X82047000Y-79296281D01*
X82039635Y-79298515D01*
X82018024Y-79310066D01*
X81999082Y-79325611D01*
X81983465Y-79344662D01*
X81567994Y-79967868D01*
X81556465Y-79989491D01*
X81549376Y-80012947D01*
X81547000Y-80037205D01*
X81547000Y-82499000D01*
X80505000Y-82499000D01*
X80505000Y-80037205D01*
X80502598Y-80012819D01*
X80495485Y-79989370D01*
X80484006Y-79967868D01*
X80068535Y-79344662D01*
X80053010Y-79325704D01*
X80034084Y-79310139D01*
X80012486Y-79298565D01*
X80005000Y-79296286D01*
X80005000Y-79287205D01*
X80002598Y-79262819D01*
X79995485Y-79239370D01*
X79984006Y-79217868D01*
X79964488Y-79188591D01*
X79968389Y-79185389D01*
X79983934Y-79166447D01*
X79995485Y-79144836D01*
X80002598Y-79121387D01*
X80005000Y-79097001D01*
X80005000Y-75247000D01*
X82047000Y-75247000D01*
X82047000Y-79097001D01*
G37*
G36*
X83047000Y-82499000D02*
G01*
X82005000Y-82499000D01*
X82005000Y-79957000D01*
X83047000Y-79957000D01*
X83047000Y-82499000D01*
G37*
G36*
X80047000Y-82499000D02*
G01*
X79005000Y-82499000D01*
X79005000Y-79957000D01*
X80047000Y-79957000D01*
X80047000Y-82499000D01*
G37*
G36*
X101367000Y-81789000D02*
G01*
X99293000Y-81789000D01*
X99293000Y-79715000D01*
X101367000Y-79715000D01*
X101367000Y-81789000D01*
G37*
G36*
X95679545Y-77589371D02*
G01*
X95711438Y-77599046D01*
X95740832Y-77614758D01*
X95766598Y-77635902D01*
X95787742Y-77661668D01*
X95803454Y-77691062D01*
X95813129Y-77722955D01*
X95817000Y-77762263D01*
X95817000Y-80225737D01*
X95813129Y-80265045D01*
X95803454Y-80296938D01*
X95787742Y-80326332D01*
X95766598Y-80352098D01*
X95740832Y-80373242D01*
X95711438Y-80388954D01*
X95679545Y-80398629D01*
X95640237Y-80402500D01*
X94351763Y-80402500D01*
X94312455Y-80398629D01*
X94280562Y-80388954D01*
X94251168Y-80373242D01*
X94225402Y-80352098D01*
X94204258Y-80326332D01*
X94188546Y-80296938D01*
X94178871Y-80265045D01*
X94175000Y-80225737D01*
X94175000Y-77762263D01*
X94178871Y-77722955D01*
X94188546Y-77691062D01*
X94204258Y-77661668D01*
X94225402Y-77635902D01*
X94251168Y-77614758D01*
X94280562Y-77599046D01*
X94312455Y-77589371D01*
X94351763Y-77585500D01*
X95640237Y-77585500D01*
X95679545Y-77589371D01*
G37*
G36*
X117109240Y-76031914D02*
G01*
X117141551Y-76041716D01*
X117171337Y-76057637D01*
X117197441Y-76079059D01*
X117218863Y-76105163D01*
X117234784Y-76134949D01*
X117244586Y-76167260D01*
X117248500Y-76207006D01*
X117248500Y-79240994D01*
X117244586Y-79280740D01*
X117234784Y-79313051D01*
X117218863Y-79342837D01*
X117197441Y-79368941D01*
X117171337Y-79390363D01*
X117141551Y-79406284D01*
X117109240Y-79416086D01*
X117069494Y-79420000D01*
X115860506Y-79420000D01*
X115820760Y-79416086D01*
X115788449Y-79406284D01*
X115758663Y-79390363D01*
X115732559Y-79368941D01*
X115711137Y-79342837D01*
X115695216Y-79313051D01*
X115685414Y-79280740D01*
X115681500Y-79240994D01*
X115681500Y-76207006D01*
X115685414Y-76167260D01*
X115695216Y-76134949D01*
X115711137Y-76105163D01*
X115732559Y-76079059D01*
X115758663Y-76057637D01*
X115788449Y-76041716D01*
X115820760Y-76031914D01*
X115860506Y-76028000D01*
X117069494Y-76028000D01*
X117109240Y-76031914D01*
G37*
G36*
X111134240Y-76031914D02*
G01*
X111166551Y-76041716D01*
X111196337Y-76057637D01*
X111222441Y-76079059D01*
X111243863Y-76105163D01*
X111259784Y-76134949D01*
X111269586Y-76167260D01*
X111273500Y-76207006D01*
X111273500Y-79240994D01*
X111269586Y-79280740D01*
X111259784Y-79313051D01*
X111243863Y-79342837D01*
X111222441Y-79368941D01*
X111196337Y-79390363D01*
X111166551Y-79406284D01*
X111134240Y-79416086D01*
X111094494Y-79420000D01*
X109885506Y-79420000D01*
X109845760Y-79416086D01*
X109813449Y-79406284D01*
X109783663Y-79390363D01*
X109757559Y-79368941D01*
X109736137Y-79342837D01*
X109720216Y-79313051D01*
X109710414Y-79280740D01*
X109706500Y-79240994D01*
X109706500Y-76207006D01*
X109710414Y-76167260D01*
X109720216Y-76134949D01*
X109736137Y-76105163D01*
X109757559Y-76079059D01*
X109783663Y-76057637D01*
X109813449Y-76041716D01*
X109845760Y-76031914D01*
X109885506Y-76028000D01*
X111094494Y-76028000D01*
X111134240Y-76031914D01*
G37*
G36*
X107031000Y-79233000D02*
G01*
X103789000Y-79233000D01*
X103789000Y-77391000D01*
X107031000Y-77391000D01*
X107031000Y-79233000D01*
G37*
G36*
X126381000Y-78197000D02*
G01*
X122139000Y-78197000D01*
X122139000Y-76805000D01*
X126381000Y-76805000D01*
X126381000Y-78197000D01*
G37*
G36*
X126281000Y-75332000D02*
G01*
X122639000Y-75332000D01*
X122639000Y-74020000D01*
X126281000Y-74020000D01*
X126281000Y-75332000D01*
G37*
G36*
X81460000Y-74181000D02*
G01*
X80418000Y-74181000D01*
X80418000Y-73139000D01*
X81460000Y-73139000D01*
X81460000Y-74181000D01*
G37*
G36*
X83960000Y-74181000D02*
G01*
X82918000Y-74181000D01*
X82918000Y-73139000D01*
X83960000Y-73139000D01*
X83960000Y-74181000D01*
G37*
G36*
X88181569Y-72660157D02*
G01*
X88216254Y-72670679D01*
X88248224Y-72687767D01*
X88276241Y-72710759D01*
X88299233Y-72738776D01*
X88316321Y-72770746D01*
X88326843Y-72805431D01*
X88331000Y-72847640D01*
X88331000Y-73456360D01*
X88326843Y-73498569D01*
X88316321Y-73533254D01*
X88299233Y-73565224D01*
X88276241Y-73593241D01*
X88248224Y-73616233D01*
X88216254Y-73633321D01*
X88181569Y-73643843D01*
X88139360Y-73648000D01*
X87430640Y-73648000D01*
X87388431Y-73643843D01*
X87353746Y-73633321D01*
X87321776Y-73616233D01*
X87293759Y-73593241D01*
X87270767Y-73565224D01*
X87253679Y-73533254D01*
X87243157Y-73498569D01*
X87239000Y-73456360D01*
X87239000Y-72847640D01*
X87243157Y-72805431D01*
X87253679Y-72770746D01*
X87270767Y-72738776D01*
X87293759Y-72710759D01*
X87321776Y-72687767D01*
X87353746Y-72670679D01*
X87388431Y-72660157D01*
X87430640Y-72656000D01*
X88139360Y-72656000D01*
X88181569Y-72660157D01*
G37*
G36*
X89931569Y-72660157D02*
G01*
X89966254Y-72670679D01*
X89998224Y-72687767D01*
X90026241Y-72710759D01*
X90049233Y-72738776D01*
X90066321Y-72770746D01*
X90076843Y-72805431D01*
X90081000Y-72847640D01*
X90081000Y-73456360D01*
X90076843Y-73498569D01*
X90066321Y-73533254D01*
X90049233Y-73565224D01*
X90026241Y-73593241D01*
X89998224Y-73616233D01*
X89966254Y-73633321D01*
X89931569Y-73643843D01*
X89889360Y-73648000D01*
X89180640Y-73648000D01*
X89138431Y-73643843D01*
X89103746Y-73633321D01*
X89071776Y-73616233D01*
X89043759Y-73593241D01*
X89020767Y-73565224D01*
X89003679Y-73533254D01*
X88993157Y-73498569D01*
X88989000Y-73456360D01*
X88989000Y-72847640D01*
X88993157Y-72805431D01*
X89003679Y-72770746D01*
X89020767Y-72738776D01*
X89043759Y-72710759D01*
X89071776Y-72687767D01*
X89103746Y-72670679D01*
X89138431Y-72660157D01*
X89180640Y-72656000D01*
X89889360Y-72656000D01*
X89931569Y-72660157D01*
G37*
G36*
X118053000Y-73057000D02*
G01*
X114611000Y-73057000D01*
X114611000Y-71215000D01*
X118053000Y-71215000D01*
X118053000Y-73057000D01*
G37*
G36*
X126381000Y-72547000D02*
G01*
X122139000Y-72547000D01*
X122139000Y-71155000D01*
X126381000Y-71155000D01*
X126381000Y-72547000D01*
G37*
G36*
X107031000Y-72215000D02*
G01*
X103789000Y-72215000D01*
X103789000Y-70373000D01*
X107031000Y-70373000D01*
X107031000Y-72215000D01*
G37*
G36*
X91429000Y-71831000D02*
G01*
X90387000Y-71831000D01*
X90387000Y-69289000D01*
X91429000Y-69289000D01*
X91429000Y-71831000D01*
G37*
G36*
X88429000Y-71831000D02*
G01*
X87387000Y-71831000D01*
X87387000Y-69289000D01*
X88429000Y-69289000D01*
X88429000Y-71831000D01*
G37*
G36*
X83047000Y-71831000D02*
G01*
X82005000Y-71831000D01*
X82005000Y-69289000D01*
X83047000Y-69289000D01*
X83047000Y-71831000D01*
G37*
G36*
X82047000Y-68429001D02*
G01*
X82049402Y-68453387D01*
X82056515Y-68476836D01*
X82068066Y-68498447D01*
X82083611Y-68517389D01*
X82087512Y-68520591D01*
X82067994Y-68549868D01*
X82056465Y-68571491D01*
X82049376Y-68594947D01*
X82047000Y-68619205D01*
X82047000Y-68628281D01*
X82039635Y-68630515D01*
X82018024Y-68642066D01*
X81999082Y-68657611D01*
X81983465Y-68676662D01*
X81567994Y-69299868D01*
X81556465Y-69321491D01*
X81549376Y-69344947D01*
X81547000Y-69369205D01*
X81547000Y-71831000D01*
X80505000Y-71831000D01*
X80505000Y-69369205D01*
X80502598Y-69344819D01*
X80495485Y-69321370D01*
X80484006Y-69299868D01*
X80068535Y-68676662D01*
X80053010Y-68657704D01*
X80034084Y-68642139D01*
X80012486Y-68630565D01*
X80005000Y-68628286D01*
X80005000Y-68619205D01*
X80002598Y-68594819D01*
X79995485Y-68571370D01*
X79984006Y-68549868D01*
X79964488Y-68520591D01*
X79968389Y-68517389D01*
X79983934Y-68498447D01*
X79995485Y-68476836D01*
X80002598Y-68453387D01*
X80005000Y-68429001D01*
X80005000Y-64579000D01*
X82047000Y-64579000D01*
X82047000Y-68429001D01*
G37*
G36*
X80047000Y-71831000D02*
G01*
X79005000Y-71831000D01*
X79005000Y-69289000D01*
X80047000Y-69289000D01*
X80047000Y-71831000D01*
G37*
G36*
X90429000Y-68429001D02*
G01*
X90431402Y-68453387D01*
X90438515Y-68476836D01*
X90450066Y-68498447D01*
X90465611Y-68517389D01*
X90469512Y-68520591D01*
X90449994Y-68549868D01*
X90438465Y-68571491D01*
X90431376Y-68594947D01*
X90429000Y-68619205D01*
X90429000Y-68628281D01*
X90421635Y-68630515D01*
X90400024Y-68642066D01*
X90381082Y-68657611D01*
X90365465Y-68676662D01*
X89949994Y-69299868D01*
X89938465Y-69321491D01*
X89931376Y-69344947D01*
X89929000Y-69369205D01*
X89929000Y-71831000D01*
X88887000Y-71831000D01*
X88887000Y-69369205D01*
X88884598Y-69344819D01*
X88877485Y-69321370D01*
X88866006Y-69299868D01*
X88450535Y-68676662D01*
X88435010Y-68657704D01*
X88416084Y-68642139D01*
X88394486Y-68630565D01*
X88387000Y-68628286D01*
X88387000Y-68619205D01*
X88384598Y-68594819D01*
X88377485Y-68571370D01*
X88366006Y-68549868D01*
X88346488Y-68520591D01*
X88350389Y-68517389D01*
X88365934Y-68498447D01*
X88377485Y-68476836D01*
X88384598Y-68453387D01*
X88387000Y-68429001D01*
X88387000Y-64579000D01*
X90429000Y-64579000D01*
X90429000Y-68429001D01*
G37*
G36*
X100498918Y-67683284D02*
G01*
X100632482Y-67709851D01*
X100821204Y-67788022D01*
X100991049Y-67901509D01*
X101135491Y-68045951D01*
X101248978Y-68215796D01*
X101327149Y-68404518D01*
X101349600Y-68517389D01*
X101365028Y-68594947D01*
X101367000Y-68604864D01*
X101367000Y-68809136D01*
X101327149Y-69009482D01*
X101248978Y-69198204D01*
X101135491Y-69368049D01*
X100991049Y-69512491D01*
X100821204Y-69625978D01*
X100632482Y-69704149D01*
X100504681Y-69729570D01*
X100432137Y-69744000D01*
X100227863Y-69744000D01*
X100155319Y-69729570D01*
X100027518Y-69704149D01*
X99838796Y-69625978D01*
X99668951Y-69512491D01*
X99524509Y-69368049D01*
X99411022Y-69198204D01*
X99332851Y-69009482D01*
X99293000Y-68809136D01*
X99293000Y-68604864D01*
X99294973Y-68594947D01*
X99310400Y-68517389D01*
X99332851Y-68404518D01*
X99411022Y-68215796D01*
X99524509Y-68045951D01*
X99668951Y-67901509D01*
X99838796Y-67788022D01*
X100027518Y-67709851D01*
X100161082Y-67683284D01*
X100227863Y-67670000D01*
X100432137Y-67670000D01*
X100498918Y-67683284D01*
G37*
G36*
X95933545Y-66921371D02*
G01*
X95965438Y-66931046D01*
X95994832Y-66946758D01*
X96020598Y-66967902D01*
X96041742Y-66993668D01*
X96057454Y-67023062D01*
X96067129Y-67054955D01*
X96071000Y-67094263D01*
X96071000Y-69557737D01*
X96067129Y-69597045D01*
X96057454Y-69628938D01*
X96041742Y-69658332D01*
X96020598Y-69684098D01*
X95994832Y-69705242D01*
X95965438Y-69720954D01*
X95933545Y-69730629D01*
X95894237Y-69734500D01*
X94605763Y-69734500D01*
X94566455Y-69730629D01*
X94534562Y-69720954D01*
X94505168Y-69705242D01*
X94479402Y-69684098D01*
X94458258Y-69658332D01*
X94442546Y-69628938D01*
X94432871Y-69597045D01*
X94429000Y-69557737D01*
X94429000Y-67094263D01*
X94432871Y-67054955D01*
X94442546Y-67023062D01*
X94458258Y-66993668D01*
X94479402Y-66967902D01*
X94505168Y-66946758D01*
X94534562Y-66931046D01*
X94566455Y-66921371D01*
X94605763Y-66917500D01*
X95894237Y-66917500D01*
X95933545Y-66921371D01*
G37*
G36*
X107031000Y-67215000D02*
G01*
X103789000Y-67215000D01*
X103789000Y-65373000D01*
X107031000Y-65373000D01*
X107031000Y-67215000D01*
G37*
G36*
X100498918Y-65133284D02*
G01*
X100632482Y-65159851D01*
X100821204Y-65238022D01*
X100991049Y-65351509D01*
X101135491Y-65495951D01*
X101248978Y-65665796D01*
X101327149Y-65854518D01*
X101367000Y-66054864D01*
X101367000Y-66259136D01*
X101327149Y-66459482D01*
X101248978Y-66648204D01*
X101135491Y-66818049D01*
X100991049Y-66962491D01*
X100821204Y-67075978D01*
X100632482Y-67154149D01*
X100498918Y-67180716D01*
X100432137Y-67194000D01*
X100227863Y-67194000D01*
X100161082Y-67180716D01*
X100027518Y-67154149D01*
X99838796Y-67075978D01*
X99668951Y-66962491D01*
X99524509Y-66818049D01*
X99411022Y-66648204D01*
X99332851Y-66459482D01*
X99293000Y-66259136D01*
X99293000Y-66054864D01*
X99332851Y-65854518D01*
X99411022Y-65665796D01*
X99524509Y-65495951D01*
X99668951Y-65351509D01*
X99838796Y-65238022D01*
X100027518Y-65159851D01*
X100161082Y-65133284D01*
X100227863Y-65120000D01*
X100432137Y-65120000D01*
X100498918Y-65133284D01*
G37*
G36*
X95933545Y-62796371D02*
G01*
X95965438Y-62806046D01*
X95994832Y-62821758D01*
X96020598Y-62842902D01*
X96041742Y-62868668D01*
X96057454Y-62898062D01*
X96067129Y-62929955D01*
X96071000Y-62969263D01*
X96071000Y-65432737D01*
X96067129Y-65472045D01*
X96057454Y-65503938D01*
X96041742Y-65533332D01*
X96020598Y-65559098D01*
X95994832Y-65580242D01*
X95965438Y-65595954D01*
X95933545Y-65605629D01*
X95894237Y-65609500D01*
X94605763Y-65609500D01*
X94566455Y-65605629D01*
X94534562Y-65595954D01*
X94505168Y-65580242D01*
X94479402Y-65559098D01*
X94458258Y-65533332D01*
X94442546Y-65503938D01*
X94432871Y-65472045D01*
X94429000Y-65432737D01*
X94429000Y-62969263D01*
X94432871Y-62929955D01*
X94442546Y-62898062D01*
X94458258Y-62868668D01*
X94479402Y-62842902D01*
X94505168Y-62821758D01*
X94534562Y-62806046D01*
X94566455Y-62796371D01*
X94605763Y-62792500D01*
X95894237Y-62792500D01*
X95933545Y-62796371D01*
G37*
G36*
X101367000Y-64644000D02*
G01*
X99293000Y-64644000D01*
X99293000Y-62570000D01*
X101367000Y-62570000D01*
X101367000Y-64644000D01*
G37*
G36*
X107385000Y-59595000D02*
G01*
X103943000Y-59595000D01*
X103943000Y-57753000D01*
X107385000Y-57753000D01*
X107385000Y-59595000D01*
G37*
G36*
X115999545Y-52758371D02*
G01*
X116031438Y-52768046D01*
X116060832Y-52783758D01*
X116086598Y-52804902D01*
X116107742Y-52830668D01*
X116123454Y-52860062D01*
X116133129Y-52891955D01*
X116137000Y-52931263D01*
X116137000Y-55394737D01*
X116133129Y-55434045D01*
X116123454Y-55465938D01*
X116107742Y-55495332D01*
X116086598Y-55521098D01*
X116060832Y-55542242D01*
X116031438Y-55557954D01*
X115999545Y-55567629D01*
X115960237Y-55571500D01*
X114671763Y-55571500D01*
X114632455Y-55567629D01*
X114600562Y-55557954D01*
X114571168Y-55542242D01*
X114545402Y-55521098D01*
X114524258Y-55495332D01*
X114508546Y-55465938D01*
X114498871Y-55434045D01*
X114495000Y-55394737D01*
X114495000Y-52931263D01*
X114498871Y-52891955D01*
X114508546Y-52860062D01*
X114524258Y-52830668D01*
X114545402Y-52804902D01*
X114571168Y-52783758D01*
X114600562Y-52768046D01*
X114632455Y-52758371D01*
X114671763Y-52754500D01*
X115960237Y-52754500D01*
X115999545Y-52758371D01*
G37*
G36*
X105226000Y-55245000D02*
G01*
X98784000Y-55245000D01*
X98784000Y-49403000D01*
X105226000Y-49403000D01*
X105226000Y-55245000D01*
G37*
G36*
X109426000Y-55225000D02*
G01*
X107184000Y-55225000D01*
X107184000Y-53983000D01*
X109426000Y-53983000D01*
X109426000Y-55225000D01*
G37*
G36*
X85773545Y-52250371D02*
G01*
X85805438Y-52260046D01*
X85834832Y-52275758D01*
X85860598Y-52296902D01*
X85881742Y-52322668D01*
X85897454Y-52352062D01*
X85907129Y-52383955D01*
X85911000Y-52423263D01*
X85911000Y-54886737D01*
X85907129Y-54926045D01*
X85897454Y-54957938D01*
X85881742Y-54987332D01*
X85860598Y-55013098D01*
X85834832Y-55034242D01*
X85805438Y-55049954D01*
X85773545Y-55059629D01*
X85734237Y-55063500D01*
X84445763Y-55063500D01*
X84406455Y-55059629D01*
X84374562Y-55049954D01*
X84345168Y-55034242D01*
X84319402Y-55013098D01*
X84298258Y-54987332D01*
X84282546Y-54957938D01*
X84272871Y-54926045D01*
X84269000Y-54886737D01*
X84269000Y-52423263D01*
X84272871Y-52383955D01*
X84282546Y-52352062D01*
X84298258Y-52322668D01*
X84319402Y-52296902D01*
X84345168Y-52275758D01*
X84374562Y-52260046D01*
X84406455Y-52250371D01*
X84445763Y-52246500D01*
X85734237Y-52246500D01*
X85773545Y-52250371D01*
G37*
G36*
X93393545Y-52250371D02*
G01*
X93425438Y-52260046D01*
X93454832Y-52275758D01*
X93480598Y-52296902D01*
X93501742Y-52322668D01*
X93517454Y-52352062D01*
X93527129Y-52383955D01*
X93531000Y-52423263D01*
X93531000Y-54886737D01*
X93527129Y-54926045D01*
X93517454Y-54957938D01*
X93501742Y-54987332D01*
X93480598Y-55013098D01*
X93454832Y-55034242D01*
X93425438Y-55049954D01*
X93393545Y-55059629D01*
X93354237Y-55063500D01*
X92065763Y-55063500D01*
X92026455Y-55059629D01*
X91994562Y-55049954D01*
X91965168Y-55034242D01*
X91939402Y-55013098D01*
X91918258Y-54987332D01*
X91902546Y-54957938D01*
X91892871Y-54926045D01*
X91889000Y-54886737D01*
X91889000Y-52423263D01*
X91892871Y-52383955D01*
X91902546Y-52352062D01*
X91918258Y-52322668D01*
X91939402Y-52296902D01*
X91965168Y-52275758D01*
X91994562Y-52260046D01*
X92026455Y-52250371D01*
X92065763Y-52246500D01*
X93354237Y-52246500D01*
X93393545Y-52250371D01*
G37*
G36*
X78153545Y-52250371D02*
G01*
X78185438Y-52260046D01*
X78214832Y-52275758D01*
X78240598Y-52296902D01*
X78261742Y-52322668D01*
X78277454Y-52352062D01*
X78287129Y-52383955D01*
X78291000Y-52423263D01*
X78291000Y-54886737D01*
X78287129Y-54926045D01*
X78277454Y-54957938D01*
X78261742Y-54987332D01*
X78240598Y-55013098D01*
X78214832Y-55034242D01*
X78185438Y-55049954D01*
X78153545Y-55059629D01*
X78114237Y-55063500D01*
X76825763Y-55063500D01*
X76786455Y-55059629D01*
X76754562Y-55049954D01*
X76725168Y-55034242D01*
X76699402Y-55013098D01*
X76678258Y-54987332D01*
X76662546Y-54957938D01*
X76652871Y-54926045D01*
X76649000Y-54886737D01*
X76649000Y-52423263D01*
X76652871Y-52383955D01*
X76662546Y-52352062D01*
X76678258Y-52322668D01*
X76699402Y-52296902D01*
X76725168Y-52275758D01*
X76754562Y-52260046D01*
X76786455Y-52250371D01*
X76825763Y-52246500D01*
X78114237Y-52246500D01*
X78153545Y-52250371D01*
G37*
G36*
X109426000Y-52945000D02*
G01*
X107184000Y-52945000D01*
X107184000Y-51703000D01*
X109426000Y-51703000D01*
X109426000Y-52945000D01*
G37*
G36*
X68483000Y-51867000D02*
G01*
X66441000Y-51867000D01*
X66441000Y-49225000D01*
X68483000Y-49225000D01*
X68483000Y-51867000D01*
G37*
G36*
X73752569Y-50738157D02*
G01*
X73787254Y-50748679D01*
X73819224Y-50765767D01*
X73847241Y-50788759D01*
X73870233Y-50816776D01*
X73887321Y-50848746D01*
X73897843Y-50883431D01*
X73902000Y-50925640D01*
X73902000Y-51634360D01*
X73897843Y-51676569D01*
X73887321Y-51711254D01*
X73870233Y-51743224D01*
X73847241Y-51771241D01*
X73819224Y-51794233D01*
X73787254Y-51811321D01*
X73752569Y-51821843D01*
X73710360Y-51826000D01*
X73101640Y-51826000D01*
X73059431Y-51821843D01*
X73024746Y-51811321D01*
X72992776Y-51794233D01*
X72964759Y-51771241D01*
X72941767Y-51743224D01*
X72924679Y-51711254D01*
X72914157Y-51676569D01*
X72910000Y-51634360D01*
X72910000Y-50925640D01*
X72914157Y-50883431D01*
X72924679Y-50848746D01*
X72941767Y-50816776D01*
X72964759Y-50788759D01*
X72992776Y-50765767D01*
X73024746Y-50748679D01*
X73059431Y-50738157D01*
X73101640Y-50734000D01*
X73710360Y-50734000D01*
X73752569Y-50738157D01*
G37*
G36*
X61509747Y-49861602D02*
G01*
X61673925Y-49911406D01*
X61673927Y-49911407D01*
X61673930Y-49911408D01*
X61825243Y-49992286D01*
X61825244Y-49992287D01*
X61825246Y-49992288D01*
X61888541Y-50044233D01*
X61957870Y-50101130D01*
X62066714Y-50233757D01*
X62147592Y-50385070D01*
X62147593Y-50385073D01*
X62147594Y-50385075D01*
X62197398Y-50549253D01*
X62214214Y-50720000D01*
X62197398Y-50890747D01*
X62147594Y-51054925D01*
X62147592Y-51054930D01*
X62075429Y-51189938D01*
X62066712Y-51206246D01*
X61957870Y-51338870D01*
X61825246Y-51447712D01*
X61825244Y-51447713D01*
X61825243Y-51447714D01*
X61673930Y-51528592D01*
X61673927Y-51528593D01*
X61673925Y-51528594D01*
X61509747Y-51578398D01*
X61381789Y-51591000D01*
X61046211Y-51591000D01*
X60918253Y-51578398D01*
X60754075Y-51528594D01*
X60754073Y-51528593D01*
X60754070Y-51528592D01*
X60602757Y-51447714D01*
X60602756Y-51447713D01*
X60602754Y-51447712D01*
X60470130Y-51338870D01*
X60361288Y-51206246D01*
X60352571Y-51189938D01*
X60280408Y-51054930D01*
X60280406Y-51054925D01*
X60230602Y-50890747D01*
X60213786Y-50720000D01*
X60230602Y-50549253D01*
X60280406Y-50385075D01*
X60280407Y-50385073D01*
X60280408Y-50385070D01*
X60361286Y-50233757D01*
X60470130Y-50101130D01*
X60539459Y-50044233D01*
X60602754Y-49992288D01*
X60602756Y-49992287D01*
X60602757Y-49992286D01*
X60754070Y-49911408D01*
X60754073Y-49911407D01*
X60754075Y-49911406D01*
X60918253Y-49861602D01*
X61046211Y-49849000D01*
X61381789Y-49849000D01*
X61509747Y-49861602D01*
G37*
G36*
X115999545Y-48633371D02*
G01*
X116031438Y-48643046D01*
X116060832Y-48658758D01*
X116086598Y-48679902D01*
X116107742Y-48705668D01*
X116123454Y-48735062D01*
X116133129Y-48766955D01*
X116137000Y-48806263D01*
X116137000Y-51269737D01*
X116133129Y-51309045D01*
X116123454Y-51340938D01*
X116107742Y-51370332D01*
X116086598Y-51396098D01*
X116060832Y-51417242D01*
X116031438Y-51432954D01*
X115999545Y-51442629D01*
X115960237Y-51446500D01*
X114671763Y-51446500D01*
X114632455Y-51442629D01*
X114600562Y-51432954D01*
X114571168Y-51417242D01*
X114545402Y-51396098D01*
X114524258Y-51370332D01*
X114508546Y-51340938D01*
X114498871Y-51309045D01*
X114495000Y-51269737D01*
X114495000Y-48806263D01*
X114498871Y-48766955D01*
X114508546Y-48735062D01*
X114524258Y-48705668D01*
X114545402Y-48679902D01*
X114571168Y-48658758D01*
X114600562Y-48643046D01*
X114632455Y-48633371D01*
X114671763Y-48629500D01*
X115960237Y-48629500D01*
X115999545Y-48633371D01*
G37*
G36*
X65283000Y-51367000D02*
G01*
X63241000Y-51367000D01*
X63241000Y-49725000D01*
X65283000Y-49725000D01*
X65283000Y-51367000D01*
G37*
G36*
X71683000Y-51367000D02*
G01*
X69641000Y-51367000D01*
X69641000Y-49725000D01*
X71683000Y-49725000D01*
X71683000Y-51367000D01*
G37*
G36*
X85773545Y-48125371D02*
G01*
X85805438Y-48135046D01*
X85834832Y-48150758D01*
X85860598Y-48171902D01*
X85881742Y-48197668D01*
X85897454Y-48227062D01*
X85907129Y-48258955D01*
X85911000Y-48298263D01*
X85911000Y-50761737D01*
X85907129Y-50801045D01*
X85897454Y-50832938D01*
X85881742Y-50862332D01*
X85860598Y-50888098D01*
X85834832Y-50909242D01*
X85805438Y-50924954D01*
X85773545Y-50934629D01*
X85734237Y-50938500D01*
X84445763Y-50938500D01*
X84406455Y-50934629D01*
X84374562Y-50924954D01*
X84345168Y-50909242D01*
X84319402Y-50888098D01*
X84298258Y-50862332D01*
X84282546Y-50832938D01*
X84272871Y-50801045D01*
X84269000Y-50761737D01*
X84269000Y-48298263D01*
X84272871Y-48258955D01*
X84282546Y-48227062D01*
X84298258Y-48197668D01*
X84319402Y-48171902D01*
X84345168Y-48150758D01*
X84374562Y-48135046D01*
X84406455Y-48125371D01*
X84445763Y-48121500D01*
X85734237Y-48121500D01*
X85773545Y-48125371D01*
G37*
G36*
X78153545Y-48125371D02*
G01*
X78185438Y-48135046D01*
X78214832Y-48150758D01*
X78240598Y-48171902D01*
X78261742Y-48197668D01*
X78277454Y-48227062D01*
X78287129Y-48258955D01*
X78291000Y-48298263D01*
X78291000Y-50761737D01*
X78287129Y-50801045D01*
X78277454Y-50832938D01*
X78261742Y-50862332D01*
X78240598Y-50888098D01*
X78214832Y-50909242D01*
X78185438Y-50924954D01*
X78153545Y-50934629D01*
X78114237Y-50938500D01*
X76825763Y-50938500D01*
X76786455Y-50934629D01*
X76754562Y-50924954D01*
X76725168Y-50909242D01*
X76699402Y-50888098D01*
X76678258Y-50862332D01*
X76662546Y-50832938D01*
X76652871Y-50801045D01*
X76649000Y-50761737D01*
X76649000Y-48298263D01*
X76652871Y-48258955D01*
X76662546Y-48227062D01*
X76678258Y-48197668D01*
X76699402Y-48171902D01*
X76725168Y-48150758D01*
X76754562Y-48135046D01*
X76786455Y-48125371D01*
X76825763Y-48121500D01*
X78114237Y-48121500D01*
X78153545Y-48125371D01*
G37*
G36*
X93393545Y-48125371D02*
G01*
X93425438Y-48135046D01*
X93454832Y-48150758D01*
X93480598Y-48171902D01*
X93501742Y-48197668D01*
X93517454Y-48227062D01*
X93527129Y-48258955D01*
X93531000Y-48298263D01*
X93531000Y-50761737D01*
X93527129Y-50801045D01*
X93517454Y-50832938D01*
X93501742Y-50862332D01*
X93480598Y-50888098D01*
X93454832Y-50909242D01*
X93425438Y-50924954D01*
X93393545Y-50934629D01*
X93354237Y-50938500D01*
X92065763Y-50938500D01*
X92026455Y-50934629D01*
X91994562Y-50924954D01*
X91965168Y-50909242D01*
X91939402Y-50888098D01*
X91918258Y-50862332D01*
X91902546Y-50832938D01*
X91892871Y-50801045D01*
X91889000Y-50761737D01*
X91889000Y-48298263D01*
X91892871Y-48258955D01*
X91902546Y-48227062D01*
X91918258Y-48197668D01*
X91939402Y-48171902D01*
X91965168Y-48150758D01*
X91994562Y-48135046D01*
X92026455Y-48125371D01*
X92065763Y-48121500D01*
X93354237Y-48121500D01*
X93393545Y-48125371D01*
G37*
G36*
X109426000Y-50665000D02*
G01*
X107184000Y-50665000D01*
X107184000Y-49423000D01*
X109426000Y-49423000D01*
X109426000Y-50665000D01*
G37*
G36*
X73752569Y-48988157D02*
G01*
X73787254Y-48998679D01*
X73819224Y-49015767D01*
X73847241Y-49038759D01*
X73870233Y-49066776D01*
X73887321Y-49098746D01*
X73897843Y-49133431D01*
X73902000Y-49175640D01*
X73902000Y-49884360D01*
X73897843Y-49926569D01*
X73887321Y-49961254D01*
X73870233Y-49993224D01*
X73847241Y-50021241D01*
X73819224Y-50044233D01*
X73787254Y-50061321D01*
X73752569Y-50071843D01*
X73710360Y-50076000D01*
X73101640Y-50076000D01*
X73059431Y-50071843D01*
X73024746Y-50061321D01*
X72992776Y-50044233D01*
X72964759Y-50021241D01*
X72941767Y-49993224D01*
X72924679Y-49961254D01*
X72914157Y-49926569D01*
X72910000Y-49884360D01*
X72910000Y-49175640D01*
X72914157Y-49133431D01*
X72924679Y-49098746D01*
X72941767Y-49066776D01*
X72964759Y-49038759D01*
X72992776Y-49015767D01*
X73024746Y-48998679D01*
X73059431Y-48988157D01*
X73101640Y-48984000D01*
X73710360Y-48984000D01*
X73752569Y-48988157D01*
G37*
G36*
X61509747Y-47361602D02*
G01*
X61673925Y-47411406D01*
X61673927Y-47411407D01*
X61673930Y-47411408D01*
X61825243Y-47492286D01*
X61825244Y-47492287D01*
X61825246Y-47492288D01*
X61957870Y-47601130D01*
X62066714Y-47733757D01*
X62147592Y-47885070D01*
X62147593Y-47885073D01*
X62147594Y-47885075D01*
X62197398Y-48049253D01*
X62214214Y-48220000D01*
X62197398Y-48390747D01*
X62147594Y-48554925D01*
X62147592Y-48554930D01*
X62080793Y-48679902D01*
X62066712Y-48706246D01*
X61957870Y-48838870D01*
X61825246Y-48947712D01*
X61825244Y-48947713D01*
X61825243Y-48947714D01*
X61673930Y-49028592D01*
X61673927Y-49028593D01*
X61673925Y-49028594D01*
X61509747Y-49078398D01*
X61381789Y-49091000D01*
X61046211Y-49091000D01*
X60918253Y-49078398D01*
X60754075Y-49028594D01*
X60754073Y-49028593D01*
X60754070Y-49028592D01*
X60602757Y-48947714D01*
X60602756Y-48947713D01*
X60602754Y-48947712D01*
X60470130Y-48838870D01*
X60361288Y-48706246D01*
X60347207Y-48679902D01*
X60280408Y-48554930D01*
X60280406Y-48554925D01*
X60230602Y-48390747D01*
X60213786Y-48220000D01*
X60230602Y-48049253D01*
X60280406Y-47885075D01*
X60280407Y-47885073D01*
X60280408Y-47885070D01*
X60361286Y-47733757D01*
X60470130Y-47601130D01*
X60602754Y-47492288D01*
X60602756Y-47492287D01*
X60602757Y-47492286D01*
X60754070Y-47411408D01*
X60754073Y-47411407D01*
X60754075Y-47411406D01*
X60918253Y-47361602D01*
X61046211Y-47349000D01*
X61381789Y-47349000D01*
X61509747Y-47361602D01*
G37*
G36*
X85773545Y-44630371D02*
G01*
X85805438Y-44640046D01*
X85834832Y-44655758D01*
X85860598Y-44676902D01*
X85881742Y-44702668D01*
X85897454Y-44732062D01*
X85907129Y-44763955D01*
X85911000Y-44803263D01*
X85911000Y-47266737D01*
X85907129Y-47306045D01*
X85897454Y-47337938D01*
X85881742Y-47367332D01*
X85860598Y-47393098D01*
X85834832Y-47414242D01*
X85805438Y-47429954D01*
X85773545Y-47439629D01*
X85734237Y-47443500D01*
X84445763Y-47443500D01*
X84406455Y-47439629D01*
X84374562Y-47429954D01*
X84345168Y-47414242D01*
X84319402Y-47393098D01*
X84298258Y-47367332D01*
X84282546Y-47337938D01*
X84272871Y-47306045D01*
X84269000Y-47266737D01*
X84269000Y-44803263D01*
X84272871Y-44763955D01*
X84282546Y-44732062D01*
X84298258Y-44702668D01*
X84319402Y-44676902D01*
X84345168Y-44655758D01*
X84374562Y-44640046D01*
X84406455Y-44630371D01*
X84445763Y-44626500D01*
X85734237Y-44626500D01*
X85773545Y-44630371D01*
G37*
G36*
X93393545Y-44630371D02*
G01*
X93425438Y-44640046D01*
X93454832Y-44655758D01*
X93480598Y-44676902D01*
X93501742Y-44702668D01*
X93517454Y-44732062D01*
X93527129Y-44763955D01*
X93531000Y-44803263D01*
X93531000Y-47266737D01*
X93527129Y-47306045D01*
X93517454Y-47337938D01*
X93501742Y-47367332D01*
X93480598Y-47393098D01*
X93454832Y-47414242D01*
X93425438Y-47429954D01*
X93393545Y-47439629D01*
X93354237Y-47443500D01*
X92065763Y-47443500D01*
X92026455Y-47439629D01*
X91994562Y-47429954D01*
X91965168Y-47414242D01*
X91939402Y-47393098D01*
X91918258Y-47367332D01*
X91902546Y-47337938D01*
X91892871Y-47306045D01*
X91889000Y-47266737D01*
X91889000Y-44803263D01*
X91892871Y-44763955D01*
X91902546Y-44732062D01*
X91918258Y-44702668D01*
X91939402Y-44676902D01*
X91965168Y-44655758D01*
X91994562Y-44640046D01*
X92026455Y-44630371D01*
X92065763Y-44626500D01*
X93354237Y-44626500D01*
X93393545Y-44630371D01*
G37*
G36*
X78153545Y-44630371D02*
G01*
X78185438Y-44640046D01*
X78214832Y-44655758D01*
X78240598Y-44676902D01*
X78261742Y-44702668D01*
X78277454Y-44732062D01*
X78287129Y-44763955D01*
X78291000Y-44803263D01*
X78291000Y-47266737D01*
X78287129Y-47306045D01*
X78277454Y-47337938D01*
X78261742Y-47367332D01*
X78240598Y-47393098D01*
X78214832Y-47414242D01*
X78185438Y-47429954D01*
X78153545Y-47439629D01*
X78114237Y-47443500D01*
X76825763Y-47443500D01*
X76786455Y-47439629D01*
X76754562Y-47429954D01*
X76725168Y-47414242D01*
X76699402Y-47393098D01*
X76678258Y-47367332D01*
X76662546Y-47337938D01*
X76652871Y-47306045D01*
X76649000Y-47266737D01*
X76649000Y-44803263D01*
X76652871Y-44763955D01*
X76662546Y-44732062D01*
X76678258Y-44702668D01*
X76699402Y-44676902D01*
X76725168Y-44655758D01*
X76754562Y-44640046D01*
X76786455Y-44630371D01*
X76825763Y-44626500D01*
X78114237Y-44626500D01*
X78153545Y-44630371D01*
G37*
G36*
X68433000Y-47041000D02*
G01*
X66391000Y-47041000D01*
X66391000Y-44399000D01*
X68433000Y-44399000D01*
X68433000Y-47041000D01*
G37*
G36*
X115999545Y-44061371D02*
G01*
X116031438Y-44071046D01*
X116060832Y-44086758D01*
X116086598Y-44107902D01*
X116107742Y-44133668D01*
X116123454Y-44163062D01*
X116133129Y-44194955D01*
X116137000Y-44234263D01*
X116137000Y-46697737D01*
X116133129Y-46737045D01*
X116123454Y-46768938D01*
X116107742Y-46798332D01*
X116086598Y-46824098D01*
X116060832Y-46845242D01*
X116031438Y-46860954D01*
X115999545Y-46870629D01*
X115960237Y-46874500D01*
X114671763Y-46874500D01*
X114632455Y-46870629D01*
X114600562Y-46860954D01*
X114571168Y-46845242D01*
X114545402Y-46824098D01*
X114524258Y-46798332D01*
X114508546Y-46768938D01*
X114498871Y-46737045D01*
X114495000Y-46697737D01*
X114495000Y-44234263D01*
X114498871Y-44194955D01*
X114508546Y-44163062D01*
X114524258Y-44133668D01*
X114545402Y-44107902D01*
X114571168Y-44086758D01*
X114600562Y-44071046D01*
X114632455Y-44061371D01*
X114671763Y-44057500D01*
X115960237Y-44057500D01*
X115999545Y-44061371D01*
G37*
G36*
X73752569Y-45658157D02*
G01*
X73787254Y-45668679D01*
X73819224Y-45685767D01*
X73847241Y-45708759D01*
X73870233Y-45736776D01*
X73887321Y-45768746D01*
X73897843Y-45803431D01*
X73902000Y-45845640D01*
X73902000Y-46554360D01*
X73897843Y-46596569D01*
X73887321Y-46631254D01*
X73870233Y-46663224D01*
X73847241Y-46691241D01*
X73819224Y-46714233D01*
X73787254Y-46731321D01*
X73752569Y-46741843D01*
X73710360Y-46746000D01*
X73101640Y-46746000D01*
X73059431Y-46741843D01*
X73024746Y-46731321D01*
X72992776Y-46714233D01*
X72964759Y-46691241D01*
X72941767Y-46663224D01*
X72924679Y-46631254D01*
X72914157Y-46596569D01*
X72910000Y-46554360D01*
X72910000Y-45845640D01*
X72914157Y-45803431D01*
X72924679Y-45768746D01*
X72941767Y-45736776D01*
X72964759Y-45708759D01*
X72992776Y-45685767D01*
X73024746Y-45668679D01*
X73059431Y-45658157D01*
X73101640Y-45654000D01*
X73710360Y-45654000D01*
X73752569Y-45658157D01*
G37*
G36*
X62074702Y-44852820D02*
G01*
X62106094Y-44862343D01*
X62135028Y-44877808D01*
X62160384Y-44898616D01*
X62181192Y-44923972D01*
X62196657Y-44952906D01*
X62206180Y-44984298D01*
X62210000Y-45023083D01*
X62210000Y-46416917D01*
X62206180Y-46455702D01*
X62196657Y-46487094D01*
X62181192Y-46516028D01*
X62160384Y-46541384D01*
X62135028Y-46562192D01*
X62106094Y-46577657D01*
X62074702Y-46587180D01*
X62035917Y-46591000D01*
X60392083Y-46591000D01*
X60353298Y-46587180D01*
X60321906Y-46577657D01*
X60292972Y-46562192D01*
X60267616Y-46541384D01*
X60246808Y-46516028D01*
X60231343Y-46487094D01*
X60221820Y-46455702D01*
X60218000Y-46416917D01*
X60218000Y-45023083D01*
X60221820Y-44984298D01*
X60231343Y-44952906D01*
X60246808Y-44923972D01*
X60267616Y-44898616D01*
X60292972Y-44877808D01*
X60321906Y-44862343D01*
X60353298Y-44852820D01*
X60392083Y-44849000D01*
X62035917Y-44849000D01*
X62074702Y-44852820D01*
G37*
G36*
X71633000Y-46541000D02*
G01*
X69591000Y-46541000D01*
X69591000Y-44899000D01*
X71633000Y-44899000D01*
X71633000Y-46541000D01*
G37*
G36*
X65233000Y-46541000D02*
G01*
X63191000Y-46541000D01*
X63191000Y-44899000D01*
X65233000Y-44899000D01*
X65233000Y-46541000D01*
G37*
G36*
X105075000Y-45847000D02*
G01*
X98633000Y-45847000D01*
X98633000Y-40005000D01*
X105075000Y-40005000D01*
X105075000Y-45847000D01*
G37*
G36*
X109275000Y-45827000D02*
G01*
X107033000Y-45827000D01*
X107033000Y-44585000D01*
X109275000Y-44585000D01*
X109275000Y-45827000D01*
G37*
G36*
X73752569Y-43908157D02*
G01*
X73787254Y-43918679D01*
X73819224Y-43935767D01*
X73847241Y-43958759D01*
X73870233Y-43986776D01*
X73887321Y-44018746D01*
X73897843Y-44053431D01*
X73902000Y-44095640D01*
X73902000Y-44804360D01*
X73897843Y-44846569D01*
X73887321Y-44881254D01*
X73870233Y-44913224D01*
X73847241Y-44941241D01*
X73819224Y-44964233D01*
X73787254Y-44981321D01*
X73752569Y-44991843D01*
X73710360Y-44996000D01*
X73101640Y-44996000D01*
X73059431Y-44991843D01*
X73024746Y-44981321D01*
X72992776Y-44964233D01*
X72964759Y-44941241D01*
X72941767Y-44913224D01*
X72924679Y-44881254D01*
X72914157Y-44846569D01*
X72910000Y-44804360D01*
X72910000Y-44095640D01*
X72914157Y-44053431D01*
X72924679Y-44018746D01*
X72941767Y-43986776D01*
X72964759Y-43958759D01*
X72992776Y-43935767D01*
X73024746Y-43918679D01*
X73059431Y-43908157D01*
X73101640Y-43904000D01*
X73710360Y-43904000D01*
X73752569Y-43908157D01*
G37*
G36*
X109275000Y-43547000D02*
G01*
X107033000Y-43547000D01*
X107033000Y-42305000D01*
X109275000Y-42305000D01*
X109275000Y-43547000D01*
G37*
G36*
X78153545Y-40505371D02*
G01*
X78185438Y-40515046D01*
X78214832Y-40530758D01*
X78240598Y-40551902D01*
X78261742Y-40577668D01*
X78277454Y-40607062D01*
X78287129Y-40638955D01*
X78291000Y-40678263D01*
X78291000Y-43141737D01*
X78287129Y-43181045D01*
X78277454Y-43212938D01*
X78261742Y-43242332D01*
X78240598Y-43268098D01*
X78214832Y-43289242D01*
X78185438Y-43304954D01*
X78153545Y-43314629D01*
X78114237Y-43318500D01*
X76825763Y-43318500D01*
X76786455Y-43314629D01*
X76754562Y-43304954D01*
X76725168Y-43289242D01*
X76699402Y-43268098D01*
X76678258Y-43242332D01*
X76662546Y-43212938D01*
X76652871Y-43181045D01*
X76649000Y-43141737D01*
X76649000Y-40678263D01*
X76652871Y-40638955D01*
X76662546Y-40607062D01*
X76678258Y-40577668D01*
X76699402Y-40551902D01*
X76725168Y-40530758D01*
X76754562Y-40515046D01*
X76786455Y-40505371D01*
X76825763Y-40501500D01*
X78114237Y-40501500D01*
X78153545Y-40505371D01*
G37*
G36*
X93393545Y-40505371D02*
G01*
X93425438Y-40515046D01*
X93454832Y-40530758D01*
X93480598Y-40551902D01*
X93501742Y-40577668D01*
X93517454Y-40607062D01*
X93527129Y-40638955D01*
X93531000Y-40678263D01*
X93531000Y-43141737D01*
X93527129Y-43181045D01*
X93517454Y-43212938D01*
X93501742Y-43242332D01*
X93480598Y-43268098D01*
X93454832Y-43289242D01*
X93425438Y-43304954D01*
X93393545Y-43314629D01*
X93354237Y-43318500D01*
X92065763Y-43318500D01*
X92026455Y-43314629D01*
X91994562Y-43304954D01*
X91965168Y-43289242D01*
X91939402Y-43268098D01*
X91918258Y-43242332D01*
X91902546Y-43212938D01*
X91892871Y-43181045D01*
X91889000Y-43141737D01*
X91889000Y-40678263D01*
X91892871Y-40638955D01*
X91902546Y-40607062D01*
X91918258Y-40577668D01*
X91939402Y-40551902D01*
X91965168Y-40530758D01*
X91994562Y-40515046D01*
X92026455Y-40505371D01*
X92065763Y-40501500D01*
X93354237Y-40501500D01*
X93393545Y-40505371D01*
G37*
G36*
X85773545Y-40505371D02*
G01*
X85805438Y-40515046D01*
X85834832Y-40530758D01*
X85860598Y-40551902D01*
X85881742Y-40577668D01*
X85897454Y-40607062D01*
X85907129Y-40638955D01*
X85911000Y-40678263D01*
X85911000Y-43141737D01*
X85907129Y-43181045D01*
X85897454Y-43212938D01*
X85881742Y-43242332D01*
X85860598Y-43268098D01*
X85834832Y-43289242D01*
X85805438Y-43304954D01*
X85773545Y-43314629D01*
X85734237Y-43318500D01*
X84445763Y-43318500D01*
X84406455Y-43314629D01*
X84374562Y-43304954D01*
X84345168Y-43289242D01*
X84319402Y-43268098D01*
X84298258Y-43242332D01*
X84282546Y-43212938D01*
X84272871Y-43181045D01*
X84269000Y-43141737D01*
X84269000Y-40678263D01*
X84272871Y-40638955D01*
X84282546Y-40607062D01*
X84298258Y-40577668D01*
X84319402Y-40551902D01*
X84345168Y-40530758D01*
X84374562Y-40515046D01*
X84406455Y-40505371D01*
X84445763Y-40501500D01*
X85734237Y-40501500D01*
X85773545Y-40505371D01*
G37*
G36*
X115999545Y-39936371D02*
G01*
X116031438Y-39946046D01*
X116060832Y-39961758D01*
X116086598Y-39982902D01*
X116107742Y-40008668D01*
X116123454Y-40038062D01*
X116133129Y-40069955D01*
X116137000Y-40109263D01*
X116137000Y-42572737D01*
X116133129Y-42612045D01*
X116123454Y-42643938D01*
X116107742Y-42673332D01*
X116086598Y-42699098D01*
X116060832Y-42720242D01*
X116031438Y-42735954D01*
X115999545Y-42745629D01*
X115960237Y-42749500D01*
X114671763Y-42749500D01*
X114632455Y-42745629D01*
X114600562Y-42735954D01*
X114571168Y-42720242D01*
X114545402Y-42699098D01*
X114524258Y-42673332D01*
X114508546Y-42643938D01*
X114498871Y-42612045D01*
X114495000Y-42572737D01*
X114495000Y-40109263D01*
X114498871Y-40069955D01*
X114508546Y-40038062D01*
X114524258Y-40008668D01*
X114545402Y-39982902D01*
X114571168Y-39961758D01*
X114600562Y-39946046D01*
X114632455Y-39936371D01*
X114671763Y-39932500D01*
X115960237Y-39932500D01*
X115999545Y-39936371D01*
G37*
G36*
X122548386Y-35702890D02*
G01*
X122859531Y-35764781D01*
X123445716Y-36007587D01*
X123973268Y-36360086D01*
X124421914Y-36808732D01*
X124774413Y-37336284D01*
X124972290Y-37814000D01*
X125017219Y-37922470D01*
X125141000Y-38544758D01*
X125141000Y-39179242D01*
X125129892Y-39235085D01*
X125017219Y-39801531D01*
X124774413Y-40387716D01*
X124421914Y-40915268D01*
X123973268Y-41363914D01*
X123445716Y-41716413D01*
X122859531Y-41959219D01*
X122548386Y-42021110D01*
X122237242Y-42083000D01*
X121602758Y-42083000D01*
X121291614Y-42021110D01*
X120980469Y-41959219D01*
X120394284Y-41716413D01*
X119866732Y-41363914D01*
X119418086Y-40915268D01*
X119065587Y-40387716D01*
X118822781Y-39801531D01*
X118710108Y-39235085D01*
X118699000Y-39179242D01*
X118699000Y-38544758D01*
X118822781Y-37922470D01*
X118867711Y-37814000D01*
X119065587Y-37336284D01*
X119418086Y-36808732D01*
X119866732Y-36360086D01*
X120394284Y-36007587D01*
X120980469Y-35764781D01*
X121291614Y-35702891D01*
X121602758Y-35641000D01*
X122237242Y-35641000D01*
X122548386Y-35702890D01*
G37*
G36*
X58413386Y-35702890D02*
G01*
X58724531Y-35764781D01*
X59310716Y-36007587D01*
X59838268Y-36360086D01*
X60286914Y-36808732D01*
X60639413Y-37336284D01*
X60837290Y-37814000D01*
X60882219Y-37922470D01*
X61006000Y-38544758D01*
X61006000Y-39179242D01*
X60994892Y-39235085D01*
X60882219Y-39801531D01*
X60639413Y-40387716D01*
X60286914Y-40915268D01*
X59838268Y-41363914D01*
X59310716Y-41716413D01*
X58724531Y-41959219D01*
X58413386Y-42021110D01*
X58102242Y-42083000D01*
X57467758Y-42083000D01*
X57156614Y-42021110D01*
X56845469Y-41959219D01*
X56259284Y-41716413D01*
X55731732Y-41363914D01*
X55283086Y-40915268D01*
X54930587Y-40387716D01*
X54687781Y-39801531D01*
X54575108Y-39235085D01*
X54564000Y-39179242D01*
X54564000Y-38544758D01*
X54687781Y-37922470D01*
X54732711Y-37814000D01*
X54930587Y-37336284D01*
X55283086Y-36808732D01*
X55731732Y-36360086D01*
X56259284Y-36007587D01*
X56845469Y-35764781D01*
X57156614Y-35702890D01*
X57467758Y-35641000D01*
X58102242Y-35641000D01*
X58413386Y-35702890D01*
G37*
G36*
X71317000Y-42069000D02*
G01*
X67875000Y-42069000D01*
X67875000Y-40227000D01*
X71317000Y-40227000D01*
X71317000Y-42069000D01*
G37*
G36*
X109275000Y-41267000D02*
G01*
X107033000Y-41267000D01*
X107033000Y-40025000D01*
X109275000Y-40025000D01*
X109275000Y-41267000D01*
G37*
G36*
X107131000Y-39656000D02*
G01*
X103689000Y-39656000D01*
X103689000Y-37814000D01*
X107131000Y-37814000D01*
X107131000Y-39656000D01*
G37*
M02*
