G04 #@! TF.GenerationSoftware,KiCad,Pcbnew,(5.1.5)-3*
G04 #@! TF.CreationDate,2020-02-06T00:19:04+09:00*
G04 #@! TF.ProjectId,GradientDriver,47726164-6965-46e7-9444-72697665722e,rev?*
G04 #@! TF.SameCoordinates,Original*
G04 #@! TF.FileFunction,Copper,L2,Inr*
G04 #@! TF.FilePolarity,Positive*
%FSLAX46Y46*%
G04 Gerber Fmt 4.6, Leading zero omitted, Abs format (unit mm)*
G04 Created by KiCad (PCBNEW (5.1.5)-3) date 2020-02-06 00:19:04*
%MOMM*%
%LPD*%
G04 APERTURE LIST*
%ADD10C,0.800000*%
%ADD11C,6.400000*%
%ADD12C,0.100000*%
%ADD13O,1.950000X1.700000*%
%ADD14C,2.032000*%
%ADD15R,2.032000X2.032000*%
%ADD16C,0.800000*%
%ADD17C,0.254000*%
G04 APERTURE END LIST*
D10*
X59482056Y-97997944D03*
X57785000Y-97295000D03*
X56087944Y-97997944D03*
X55385000Y-99695000D03*
X56087944Y-101392056D03*
X57785000Y-102095000D03*
X59482056Y-101392056D03*
X60185000Y-99695000D03*
D11*
X57785000Y-99695000D03*
D10*
X123617056Y-97997944D03*
X121920000Y-97295000D03*
X120222944Y-97997944D03*
X119520000Y-99695000D03*
X120222944Y-101392056D03*
X121920000Y-102095000D03*
X123617056Y-101392056D03*
X124320000Y-99695000D03*
D11*
X121920000Y-99695000D03*
D10*
X123617056Y-37164944D03*
X121920000Y-36462000D03*
X120222944Y-37164944D03*
X119520000Y-38862000D03*
X120222944Y-40559056D03*
X121920000Y-41262000D03*
X123617056Y-40559056D03*
X124320000Y-38862000D03*
D11*
X121920000Y-38862000D03*
D10*
X59482056Y-37164944D03*
X57785000Y-36462000D03*
X56087944Y-37164944D03*
X55385000Y-38862000D03*
X56087944Y-40559056D03*
X57785000Y-41262000D03*
X59482056Y-40559056D03*
X60185000Y-38862000D03*
D11*
X57785000Y-38862000D03*
G04 #@! TA.AperFunction,ViaPad*
D12*
G36*
X61963504Y-44871204D02*
G01*
X61987773Y-44874804D01*
X62011571Y-44880765D01*
X62034671Y-44889030D01*
X62056849Y-44899520D01*
X62077893Y-44912133D01*
X62097598Y-44926747D01*
X62115777Y-44943223D01*
X62132253Y-44961402D01*
X62146867Y-44981107D01*
X62159480Y-45002151D01*
X62169970Y-45024329D01*
X62178235Y-45047429D01*
X62184196Y-45071227D01*
X62187796Y-45095496D01*
X62189000Y-45120000D01*
X62189000Y-46320000D01*
X62187796Y-46344504D01*
X62184196Y-46368773D01*
X62178235Y-46392571D01*
X62169970Y-46415671D01*
X62159480Y-46437849D01*
X62146867Y-46458893D01*
X62132253Y-46478598D01*
X62115777Y-46496777D01*
X62097598Y-46513253D01*
X62077893Y-46527867D01*
X62056849Y-46540480D01*
X62034671Y-46550970D01*
X62011571Y-46559235D01*
X61987773Y-46565196D01*
X61963504Y-46568796D01*
X61939000Y-46570000D01*
X60489000Y-46570000D01*
X60464496Y-46568796D01*
X60440227Y-46565196D01*
X60416429Y-46559235D01*
X60393329Y-46550970D01*
X60371151Y-46540480D01*
X60350107Y-46527867D01*
X60330402Y-46513253D01*
X60312223Y-46496777D01*
X60295747Y-46478598D01*
X60281133Y-46458893D01*
X60268520Y-46437849D01*
X60258030Y-46415671D01*
X60249765Y-46392571D01*
X60243804Y-46368773D01*
X60240204Y-46344504D01*
X60239000Y-46320000D01*
X60239000Y-45120000D01*
X60240204Y-45095496D01*
X60243804Y-45071227D01*
X60249765Y-45047429D01*
X60258030Y-45024329D01*
X60268520Y-45002151D01*
X60281133Y-44981107D01*
X60295747Y-44961402D01*
X60312223Y-44943223D01*
X60330402Y-44926747D01*
X60350107Y-44912133D01*
X60371151Y-44899520D01*
X60393329Y-44889030D01*
X60416429Y-44880765D01*
X60440227Y-44874804D01*
X60464496Y-44871204D01*
X60489000Y-44870000D01*
X61939000Y-44870000D01*
X61963504Y-44871204D01*
G37*
G04 #@! TD.AperFunction*
D13*
X61214000Y-48220000D03*
X61214000Y-50720000D03*
D14*
X100330000Y-68707000D03*
X100330000Y-66157000D03*
D15*
X100330000Y-63607000D03*
X100330000Y-80752000D03*
D14*
X100330000Y-83302000D03*
X100330000Y-85852000D03*
D10*
X94996000Y-79756000D03*
X94996000Y-82194400D03*
X95250000Y-63246000D03*
X95250000Y-64160400D03*
X95250000Y-65125600D03*
X95250000Y-69240400D03*
X94996000Y-77978000D03*
X59182000Y-47498000D03*
X58166000Y-47498000D03*
X59182000Y-49022000D03*
X58166000Y-49022000D03*
X66294000Y-53340000D03*
X67437000Y-53340000D03*
X68580000Y-53340000D03*
X67437000Y-43180000D03*
X68453000Y-43180000D03*
X66294000Y-43180000D03*
X74422000Y-47244000D03*
X74422000Y-48260000D03*
X75438000Y-48260000D03*
X75438000Y-47244000D03*
X59182000Y-46482000D03*
X59182000Y-50038000D03*
X67437000Y-48133000D03*
X66294000Y-48133000D03*
X68580000Y-48133000D03*
X92075000Y-98806000D03*
X93345000Y-98806000D03*
X92075000Y-100076000D03*
X93345000Y-100076000D03*
X101600000Y-100965000D03*
X102870000Y-100965000D03*
X101600000Y-102235000D03*
X102870000Y-102235000D03*
X104775000Y-90805000D03*
X106045000Y-90805000D03*
X104775000Y-92075000D03*
X106045000Y-92075000D03*
X71755000Y-90424000D03*
X97155000Y-58420000D03*
X98425000Y-58420000D03*
X98425000Y-59690000D03*
X97155000Y-59690000D03*
X100330000Y-58420000D03*
X100330000Y-59690000D03*
X101600000Y-59690000D03*
X101600000Y-58420000D03*
X117475000Y-48895000D03*
X118745000Y-48895000D03*
X117475000Y-50165000D03*
X118745000Y-50165000D03*
X117475000Y-46355000D03*
X118745000Y-46355000D03*
X118745000Y-45085000D03*
X117475000Y-45085000D03*
X76200000Y-57150000D03*
X77470000Y-57150000D03*
X77470000Y-58420000D03*
X76200000Y-58420000D03*
X76200000Y-60325000D03*
X76200000Y-61595000D03*
X77470000Y-61595000D03*
X77470000Y-60325000D03*
X88265000Y-48260000D03*
X89535000Y-48260000D03*
X89535000Y-46990000D03*
X88265000Y-46990000D03*
X95885000Y-46990000D03*
X97155000Y-46990000D03*
X97155000Y-48260000D03*
X95885000Y-48260000D03*
X56515000Y-52705000D03*
X57785000Y-52705000D03*
X56515000Y-53975000D03*
X57785000Y-53975000D03*
X59690000Y-52705000D03*
X60960000Y-52705000D03*
X59690000Y-53975000D03*
X60960000Y-53975000D03*
X56515000Y-43815000D03*
X57785000Y-43815000D03*
X59690000Y-43815000D03*
X60960000Y-43815000D03*
X86868000Y-97028000D03*
X84328000Y-97028000D03*
X95250000Y-67462400D03*
X95250000Y-68376800D03*
X108458000Y-76454000D03*
X108458000Y-77724000D03*
X108458000Y-78994000D03*
X112268000Y-76454000D03*
X112268000Y-77724000D03*
X112268000Y-78994000D03*
X76708000Y-85344000D03*
X77724000Y-85344000D03*
X76708000Y-86360000D03*
X77724000Y-86360000D03*
X115316000Y-81788000D03*
X115316000Y-83312000D03*
X115316000Y-84836000D03*
X115316000Y-86360000D03*
X115316000Y-87884000D03*
X115316000Y-89408000D03*
X115316000Y-90932000D03*
X115316000Y-92456000D03*
X115316000Y-93980000D03*
X115316000Y-95504000D03*
X114300000Y-96520000D03*
X112268000Y-97028000D03*
X110744000Y-97028000D03*
X109728000Y-98044000D03*
X107696000Y-98552000D03*
X112268000Y-81788000D03*
X112268000Y-83312000D03*
X112268000Y-84836000D03*
X112268000Y-86360000D03*
X112268000Y-87884000D03*
X112268000Y-89408000D03*
X112268000Y-90932000D03*
X112268000Y-92456000D03*
X110744000Y-93472000D03*
X109728000Y-92456000D03*
X108204000Y-91948000D03*
X58420000Y-85852000D03*
X59944000Y-85852000D03*
X61468000Y-85852000D03*
X62992000Y-85852000D03*
X64516000Y-85852000D03*
X66040000Y-85852000D03*
X67564000Y-85852000D03*
X69088000Y-85852000D03*
X70612000Y-85852000D03*
X72136000Y-85852000D03*
X58420000Y-88392000D03*
X59944000Y-88392000D03*
X61468000Y-88392000D03*
X62992000Y-88392000D03*
X64516000Y-88392000D03*
X66040000Y-88392000D03*
X67564000Y-88392000D03*
X69088000Y-88392000D03*
X70612000Y-88392000D03*
X72136000Y-88392000D03*
X71755000Y-89408000D03*
X116840000Y-81280000D03*
X118364000Y-81280000D03*
X119888000Y-81280000D03*
X121412000Y-81280000D03*
X122936000Y-81280000D03*
X124460000Y-81280000D03*
X110744000Y-81788000D03*
X109220000Y-81788000D03*
X53975000Y-35052000D03*
X53975000Y-38735000D03*
X53975000Y-40640000D03*
X53975000Y-42545000D03*
X53975000Y-44450000D03*
X53975000Y-46355000D03*
X53975000Y-48260000D03*
X53975000Y-50165000D03*
X53975000Y-52070000D03*
X53975000Y-53975000D03*
X53975000Y-55880000D03*
X53975000Y-57785000D03*
X53975000Y-59690000D03*
X53975000Y-61595000D03*
X53975000Y-63500000D03*
X53975000Y-65405000D03*
X53975000Y-67945000D03*
X53975000Y-70485000D03*
X53975000Y-72390000D03*
X53975000Y-74295000D03*
X53975000Y-76200000D03*
X53975000Y-78105000D03*
X53975000Y-80010000D03*
X53975000Y-81915000D03*
X53975000Y-92075000D03*
X53975000Y-93980000D03*
X53975000Y-95885000D03*
X53975000Y-97790000D03*
X53975000Y-99695000D03*
X53975000Y-101600000D03*
X53975000Y-103505000D03*
X55880000Y-103505000D03*
X57785000Y-103505000D03*
X59690000Y-103505000D03*
X61595000Y-103505000D03*
X63500000Y-103505000D03*
X65405000Y-103505000D03*
X67310000Y-103505000D03*
X69215000Y-103505000D03*
X71120000Y-103505000D03*
X73025000Y-103505000D03*
X74930000Y-103505000D03*
X76835000Y-103505000D03*
X78740000Y-103505000D03*
X80645000Y-103505000D03*
X82550000Y-103505000D03*
X84455000Y-103505000D03*
X86360000Y-103505000D03*
X88265000Y-103505000D03*
X90170000Y-103505000D03*
X92075000Y-103505000D03*
X93980000Y-103505000D03*
X95885000Y-103505000D03*
X97790000Y-103505000D03*
X99695000Y-103505000D03*
X101600000Y-103505000D03*
X103505000Y-103505000D03*
X105410000Y-103505000D03*
X107315000Y-103505000D03*
X109220000Y-103505000D03*
X111125000Y-103505000D03*
X113030000Y-103505000D03*
X114935000Y-103505000D03*
X116840000Y-103505000D03*
X118745000Y-103505000D03*
X120650000Y-103505000D03*
X122555000Y-103505000D03*
X124460000Y-103505000D03*
X125730000Y-102235000D03*
X125730000Y-100330000D03*
X125730000Y-98425000D03*
X125730000Y-96520000D03*
X125730000Y-94615000D03*
X125730000Y-92710000D03*
X125730000Y-90805000D03*
X125730000Y-88900000D03*
X125730000Y-86995000D03*
X125730000Y-85090000D03*
X125730000Y-83185000D03*
X125730000Y-81280000D03*
X125730000Y-67310000D03*
X125730000Y-65405000D03*
X125730000Y-63500000D03*
X125730000Y-61595000D03*
X125730000Y-59690000D03*
X125730000Y-57785000D03*
X125730000Y-55880000D03*
X125730000Y-53975000D03*
X125730000Y-52070000D03*
X125730000Y-50165000D03*
X125730000Y-48260000D03*
X125730000Y-46355000D03*
X125730000Y-44450000D03*
X125730000Y-42545000D03*
X125730000Y-40640000D03*
X125730000Y-38735000D03*
X125730000Y-35052000D03*
X71120000Y-35052000D03*
X73025000Y-35052000D03*
X74930000Y-35052000D03*
X76835000Y-35052000D03*
X78740000Y-35052000D03*
X80645000Y-35052000D03*
X82550000Y-35052000D03*
X84455000Y-35052000D03*
X86360000Y-35052000D03*
X88265000Y-35052000D03*
X90170000Y-35052000D03*
X92075000Y-35052000D03*
X93980000Y-35052000D03*
X95885000Y-35052000D03*
X103505000Y-35052000D03*
X105410000Y-35052000D03*
X107315000Y-35052000D03*
X109220000Y-35052000D03*
X111125000Y-35052000D03*
X113030000Y-35052000D03*
X114935000Y-35052000D03*
X116840000Y-35052000D03*
X118745000Y-35052000D03*
X120650000Y-35052000D03*
X122555000Y-35052000D03*
X124460000Y-35052000D03*
X94996000Y-78867000D03*
X88265000Y-45974000D03*
X89535000Y-45974000D03*
X87249000Y-48260000D03*
X87249000Y-46990000D03*
X90551000Y-46990000D03*
X90551000Y-48260000D03*
X88265000Y-49403000D03*
X89535000Y-49403000D03*
X57785000Y-55880000D03*
X57785000Y-59690000D03*
X57785000Y-63500000D03*
X57785000Y-67945000D03*
X57785000Y-72390000D03*
X57785000Y-76200000D03*
X57785000Y-80010000D03*
X57785000Y-92075000D03*
X65405000Y-99695000D03*
X69215000Y-99695000D03*
X73025000Y-99695000D03*
X61595000Y-95885000D03*
X65405000Y-95885000D03*
X61595000Y-92075000D03*
X65405000Y-92075000D03*
X69215000Y-92075000D03*
X69215000Y-95885000D03*
X73025000Y-95885000D03*
X76835000Y-99695000D03*
X80645000Y-99695000D03*
X84455000Y-99695000D03*
X88265000Y-99695000D03*
X61595000Y-80010000D03*
X65405000Y-80010000D03*
X61595000Y-83820000D03*
X65405000Y-83820000D03*
X69215000Y-83820000D03*
X69215000Y-80010000D03*
X61595000Y-76200000D03*
X65405000Y-76200000D03*
X69215000Y-76200000D03*
X61595000Y-72390000D03*
X65405000Y-72390000D03*
X61595000Y-67945000D03*
X61595000Y-63500000D03*
X65405000Y-67945000D03*
X65405000Y-63500000D03*
X61595000Y-59690000D03*
X61595000Y-55880000D03*
X65405000Y-59690000D03*
X65405000Y-55880000D03*
X69215000Y-72390000D03*
X69215000Y-67945000D03*
X69215000Y-63500000D03*
X69215000Y-59690000D03*
X69215000Y-55880000D03*
X73025000Y-55880000D03*
X73025000Y-59690000D03*
X73025000Y-63500000D03*
X73025000Y-67945000D03*
X73025000Y-72390000D03*
X73025000Y-76200000D03*
X73025000Y-80010000D03*
X114935000Y-100330000D03*
X111125000Y-100330000D03*
X107315000Y-100330000D03*
X104140000Y-100330000D03*
X118745000Y-96520000D03*
X122555000Y-92710000D03*
X118745000Y-92710000D03*
X122555000Y-85090000D03*
X118745000Y-85090000D03*
X122555000Y-88900000D03*
X118745000Y-88900000D03*
X88900000Y-90932000D03*
X91186000Y-90932000D03*
X93472000Y-90932000D03*
X95631000Y-90932000D03*
X97536000Y-92456000D03*
X90424000Y-92964000D03*
X92583000Y-92964000D03*
X94742000Y-92964000D03*
X96266000Y-95758000D03*
X97028000Y-96520000D03*
X109220000Y-90932000D03*
X109220000Y-85090000D03*
X109220000Y-88900000D03*
X106045000Y-88900000D03*
X106045000Y-85090000D03*
X122555000Y-44450000D03*
X122555000Y-48260000D03*
X122555000Y-52070000D03*
X122555000Y-55880000D03*
X122555000Y-59690000D03*
X122555000Y-63500000D03*
X122555000Y-67310000D03*
X124460000Y-67310000D03*
X120650000Y-67310000D03*
X118745000Y-67310000D03*
X116840000Y-67310000D03*
X114935000Y-67310000D03*
X113030000Y-67310000D03*
X111125000Y-67310000D03*
X109220000Y-67310000D03*
X118745000Y-63500000D03*
X118745000Y-59690000D03*
X118745000Y-55880000D03*
X118745000Y-52070000D03*
X114935000Y-63500000D03*
X114935000Y-59690000D03*
X111125000Y-63500000D03*
X111125000Y-59690000D03*
X111125000Y-55880000D03*
X101600000Y-35052000D03*
X99695000Y-35052000D03*
X97790000Y-35052000D03*
X69215000Y-35052000D03*
X67310000Y-35052000D03*
X65405000Y-35052000D03*
X63500000Y-35052000D03*
X61595000Y-35052000D03*
X59690000Y-35052000D03*
X57785000Y-35052000D03*
X55880000Y-35052000D03*
X76454000Y-90678000D03*
X81534000Y-90932000D03*
X86106000Y-90932000D03*
X53975000Y-36830000D03*
X125730000Y-36830000D03*
X92710000Y-52832000D03*
X92710000Y-53848000D03*
X92710000Y-54864000D03*
X94361000Y-52832000D03*
X94361000Y-53848000D03*
X94361000Y-54864000D03*
X80264000Y-45783500D03*
X81280000Y-45783500D03*
X82296000Y-45783500D03*
X82550000Y-69596000D03*
X82550000Y-70612000D03*
X82550000Y-71628000D03*
X94996000Y-83185000D03*
X94996000Y-84074000D03*
X80264000Y-46926500D03*
X81280000Y-46926500D03*
X82296000Y-46926500D03*
X92964000Y-96012000D03*
X94234000Y-96012000D03*
X98298000Y-99314000D03*
X99314000Y-99314000D03*
X84836000Y-86614000D03*
X85852000Y-86614000D03*
X115316000Y-53086000D03*
X115316000Y-40386000D03*
X115316000Y-42418000D03*
X107950000Y-50038000D03*
X109220000Y-50038000D03*
X113985000Y-54163000D03*
X115316000Y-54163000D03*
X115316000Y-55118000D03*
X115316000Y-41341000D03*
X114107000Y-41341000D03*
X73660000Y-92202000D03*
X73660000Y-93218000D03*
X85090000Y-94234000D03*
X86106000Y-94234000D03*
X99822000Y-90424000D03*
X100838000Y-90424000D03*
X78232000Y-87757000D03*
X79248000Y-87757000D03*
X89408000Y-78486000D03*
X89408000Y-77470000D03*
X89408000Y-76454000D03*
X98552000Y-94742000D03*
X98552000Y-97536000D03*
D16*
X107950000Y-50038000D02*
X100330000Y-50038000D01*
D17*
G36*
X65561123Y-48524731D02*
G01*
X65651628Y-48660181D01*
X65766819Y-48775372D01*
X65902269Y-48865877D01*
X66052773Y-48928218D01*
X66212548Y-48960000D01*
X66375452Y-48960000D01*
X66535227Y-48928218D01*
X66685731Y-48865877D01*
X66821181Y-48775372D01*
X66865500Y-48731053D01*
X66909819Y-48775372D01*
X67045269Y-48865877D01*
X67195773Y-48928218D01*
X67355548Y-48960000D01*
X67518452Y-48960000D01*
X67678227Y-48928218D01*
X67828731Y-48865877D01*
X67964181Y-48775372D01*
X68008500Y-48731053D01*
X68052819Y-48775372D01*
X68188269Y-48865877D01*
X68338773Y-48928218D01*
X68498548Y-48960000D01*
X68661452Y-48960000D01*
X68821227Y-48928218D01*
X68971731Y-48865877D01*
X69107181Y-48775372D01*
X69222372Y-48660181D01*
X69312877Y-48524731D01*
X69369927Y-48387000D01*
X73604060Y-48387000D01*
X73626782Y-48501227D01*
X73689123Y-48651731D01*
X73779628Y-48787181D01*
X73894819Y-48902372D01*
X74030269Y-48992877D01*
X74180773Y-49055218D01*
X74340548Y-49087000D01*
X74503452Y-49087000D01*
X74663227Y-49055218D01*
X74813731Y-48992877D01*
X74930000Y-48915188D01*
X75046269Y-48992877D01*
X75196773Y-49055218D01*
X75356548Y-49087000D01*
X75519452Y-49087000D01*
X75679227Y-49055218D01*
X75829731Y-48992877D01*
X75965181Y-48902372D01*
X76080372Y-48787181D01*
X76170877Y-48651731D01*
X76233218Y-48501227D01*
X76255940Y-48387000D01*
X86431060Y-48387000D01*
X86453782Y-48501227D01*
X86516123Y-48651731D01*
X86606628Y-48787181D01*
X86721819Y-48902372D01*
X86857269Y-48992877D01*
X87007773Y-49055218D01*
X87167548Y-49087000D01*
X87330452Y-49087000D01*
X87490227Y-49055218D01*
X87518825Y-49043372D01*
X87469782Y-49161773D01*
X87438000Y-49321548D01*
X87438000Y-49484452D01*
X87469782Y-49644227D01*
X87532123Y-49794731D01*
X87622628Y-49930181D01*
X87737819Y-50045372D01*
X87873269Y-50135877D01*
X88023773Y-50198218D01*
X88183548Y-50230000D01*
X88346452Y-50230000D01*
X88506227Y-50198218D01*
X88656731Y-50135877D01*
X88792181Y-50045372D01*
X88900000Y-49937553D01*
X89007819Y-50045372D01*
X89143269Y-50135877D01*
X89293773Y-50198218D01*
X89453548Y-50230000D01*
X89616452Y-50230000D01*
X89776227Y-50198218D01*
X89926731Y-50135877D01*
X90062181Y-50045372D01*
X90177372Y-49930181D01*
X90267877Y-49794731D01*
X90330218Y-49644227D01*
X90362000Y-49484452D01*
X90362000Y-49321548D01*
X90330218Y-49161773D01*
X90281175Y-49043372D01*
X90309773Y-49055218D01*
X90469548Y-49087000D01*
X90632452Y-49087000D01*
X90792227Y-49055218D01*
X90942731Y-48992877D01*
X91078181Y-48902372D01*
X91193372Y-48787181D01*
X91283877Y-48651731D01*
X91346218Y-48501227D01*
X91368940Y-48387000D01*
X95067060Y-48387000D01*
X95089782Y-48501227D01*
X95152123Y-48651731D01*
X95242628Y-48787181D01*
X95357819Y-48902372D01*
X95493269Y-48992877D01*
X95643773Y-49055218D01*
X95803548Y-49087000D01*
X95966452Y-49087000D01*
X96126227Y-49055218D01*
X96276731Y-48992877D01*
X96412181Y-48902372D01*
X96520000Y-48794553D01*
X96627819Y-48902372D01*
X96763269Y-48992877D01*
X96913773Y-49055218D01*
X97073548Y-49087000D01*
X97236452Y-49087000D01*
X97396227Y-49055218D01*
X97546731Y-48992877D01*
X97682181Y-48902372D01*
X97797372Y-48787181D01*
X97887877Y-48651731D01*
X97950218Y-48501227D01*
X97972940Y-48387000D01*
X115951000Y-48387000D01*
X115951000Y-57912000D01*
X102255188Y-57912000D01*
X102242372Y-57892819D01*
X102127181Y-57777628D01*
X101991731Y-57687123D01*
X101841227Y-57624782D01*
X101681452Y-57593000D01*
X101518548Y-57593000D01*
X101358773Y-57624782D01*
X101208269Y-57687123D01*
X101072819Y-57777628D01*
X100965000Y-57885447D01*
X100857181Y-57777628D01*
X100721731Y-57687123D01*
X100571227Y-57624782D01*
X100411452Y-57593000D01*
X100248548Y-57593000D01*
X100088773Y-57624782D01*
X99938269Y-57687123D01*
X99802819Y-57777628D01*
X99687628Y-57892819D01*
X99674812Y-57912000D01*
X99080188Y-57912000D01*
X99067372Y-57892819D01*
X98952181Y-57777628D01*
X98816731Y-57687123D01*
X98666227Y-57624782D01*
X98506452Y-57593000D01*
X98343548Y-57593000D01*
X98183773Y-57624782D01*
X98033269Y-57687123D01*
X97897819Y-57777628D01*
X97790000Y-57885447D01*
X97682181Y-57777628D01*
X97546731Y-57687123D01*
X97396227Y-57624782D01*
X97236452Y-57593000D01*
X97073548Y-57593000D01*
X96913773Y-57624782D01*
X96763269Y-57687123D01*
X96627819Y-57777628D01*
X96512628Y-57892819D01*
X96499812Y-57912000D01*
X93980000Y-57912000D01*
X93955224Y-57914440D01*
X93931399Y-57921667D01*
X93909443Y-57933403D01*
X93892799Y-57946669D01*
X91606799Y-60105669D01*
X91590462Y-60124456D01*
X91578103Y-60146068D01*
X91570199Y-60169676D01*
X91567000Y-60198000D01*
X91567000Y-86360000D01*
X91569440Y-86384776D01*
X91576667Y-86408601D01*
X91588403Y-86430557D01*
X91604197Y-86449803D01*
X94017197Y-88862803D01*
X94036443Y-88878597D01*
X94058399Y-88890333D01*
X94082224Y-88897560D01*
X94107000Y-88900000D01*
X102048915Y-88900000D01*
X104013000Y-91232351D01*
X104013000Y-91753578D01*
X103979782Y-91833773D01*
X103948000Y-91993548D01*
X103948000Y-92156452D01*
X103979782Y-92316227D01*
X104013000Y-92396422D01*
X104013000Y-99512060D01*
X103898773Y-99534782D01*
X103748269Y-99597123D01*
X103612819Y-99687628D01*
X103497628Y-99802819D01*
X103407123Y-99938269D01*
X103344782Y-100088773D01*
X103313000Y-100248548D01*
X103313000Y-100266380D01*
X103261731Y-100232123D01*
X103111227Y-100169782D01*
X102951452Y-100138000D01*
X102788548Y-100138000D01*
X102628773Y-100169782D01*
X102478269Y-100232123D01*
X102342819Y-100322628D01*
X102235000Y-100430447D01*
X102127181Y-100322628D01*
X101991731Y-100232123D01*
X101841227Y-100169782D01*
X101681452Y-100138000D01*
X101518548Y-100138000D01*
X101358773Y-100169782D01*
X101208269Y-100232123D01*
X101072819Y-100322628D01*
X100957628Y-100437819D01*
X100867123Y-100573269D01*
X100804782Y-100723773D01*
X100773000Y-100883548D01*
X100773000Y-101046452D01*
X100804782Y-101206227D01*
X100810073Y-101219000D01*
X61079576Y-101219000D01*
X61272617Y-100752957D01*
X61412000Y-100052228D01*
X61412000Y-99613548D01*
X64578000Y-99613548D01*
X64578000Y-99776452D01*
X64609782Y-99936227D01*
X64672123Y-100086731D01*
X64762628Y-100222181D01*
X64877819Y-100337372D01*
X65013269Y-100427877D01*
X65163773Y-100490218D01*
X65323548Y-100522000D01*
X65486452Y-100522000D01*
X65646227Y-100490218D01*
X65796731Y-100427877D01*
X65932181Y-100337372D01*
X66047372Y-100222181D01*
X66137877Y-100086731D01*
X66200218Y-99936227D01*
X66232000Y-99776452D01*
X66232000Y-99613548D01*
X68388000Y-99613548D01*
X68388000Y-99776452D01*
X68419782Y-99936227D01*
X68482123Y-100086731D01*
X68572628Y-100222181D01*
X68687819Y-100337372D01*
X68823269Y-100427877D01*
X68973773Y-100490218D01*
X69133548Y-100522000D01*
X69296452Y-100522000D01*
X69456227Y-100490218D01*
X69606731Y-100427877D01*
X69742181Y-100337372D01*
X69857372Y-100222181D01*
X69947877Y-100086731D01*
X70010218Y-99936227D01*
X70042000Y-99776452D01*
X70042000Y-99613548D01*
X72198000Y-99613548D01*
X72198000Y-99776452D01*
X72229782Y-99936227D01*
X72292123Y-100086731D01*
X72382628Y-100222181D01*
X72497819Y-100337372D01*
X72633269Y-100427877D01*
X72783773Y-100490218D01*
X72943548Y-100522000D01*
X73106452Y-100522000D01*
X73266227Y-100490218D01*
X73416731Y-100427877D01*
X73552181Y-100337372D01*
X73667372Y-100222181D01*
X73757877Y-100086731D01*
X73820218Y-99936227D01*
X73852000Y-99776452D01*
X73852000Y-99613548D01*
X76008000Y-99613548D01*
X76008000Y-99776452D01*
X76039782Y-99936227D01*
X76102123Y-100086731D01*
X76192628Y-100222181D01*
X76307819Y-100337372D01*
X76443269Y-100427877D01*
X76593773Y-100490218D01*
X76753548Y-100522000D01*
X76916452Y-100522000D01*
X77076227Y-100490218D01*
X77226731Y-100427877D01*
X77362181Y-100337372D01*
X77477372Y-100222181D01*
X77567877Y-100086731D01*
X77630218Y-99936227D01*
X77662000Y-99776452D01*
X77662000Y-99613548D01*
X79818000Y-99613548D01*
X79818000Y-99776452D01*
X79849782Y-99936227D01*
X79912123Y-100086731D01*
X80002628Y-100222181D01*
X80117819Y-100337372D01*
X80253269Y-100427877D01*
X80403773Y-100490218D01*
X80563548Y-100522000D01*
X80726452Y-100522000D01*
X80886227Y-100490218D01*
X81036731Y-100427877D01*
X81172181Y-100337372D01*
X81287372Y-100222181D01*
X81377877Y-100086731D01*
X81440218Y-99936227D01*
X81472000Y-99776452D01*
X81472000Y-99613548D01*
X83628000Y-99613548D01*
X83628000Y-99776452D01*
X83659782Y-99936227D01*
X83722123Y-100086731D01*
X83812628Y-100222181D01*
X83927819Y-100337372D01*
X84063269Y-100427877D01*
X84213773Y-100490218D01*
X84373548Y-100522000D01*
X84536452Y-100522000D01*
X84696227Y-100490218D01*
X84846731Y-100427877D01*
X84982181Y-100337372D01*
X85097372Y-100222181D01*
X85187877Y-100086731D01*
X85250218Y-99936227D01*
X85282000Y-99776452D01*
X85282000Y-99613548D01*
X87438000Y-99613548D01*
X87438000Y-99776452D01*
X87469782Y-99936227D01*
X87532123Y-100086731D01*
X87622628Y-100222181D01*
X87737819Y-100337372D01*
X87873269Y-100427877D01*
X88023773Y-100490218D01*
X88183548Y-100522000D01*
X88346452Y-100522000D01*
X88506227Y-100490218D01*
X88656731Y-100427877D01*
X88792181Y-100337372D01*
X88907372Y-100222181D01*
X88997877Y-100086731D01*
X89060218Y-99936227D01*
X89092000Y-99776452D01*
X89092000Y-99613548D01*
X89060218Y-99453773D01*
X88997877Y-99303269D01*
X88907372Y-99167819D01*
X88792181Y-99052628D01*
X88656731Y-98962123D01*
X88506227Y-98899782D01*
X88346452Y-98868000D01*
X88183548Y-98868000D01*
X88023773Y-98899782D01*
X87873269Y-98962123D01*
X87737819Y-99052628D01*
X87622628Y-99167819D01*
X87532123Y-99303269D01*
X87469782Y-99453773D01*
X87438000Y-99613548D01*
X85282000Y-99613548D01*
X85250218Y-99453773D01*
X85187877Y-99303269D01*
X85097372Y-99167819D01*
X84982181Y-99052628D01*
X84846731Y-98962123D01*
X84696227Y-98899782D01*
X84536452Y-98868000D01*
X84373548Y-98868000D01*
X84213773Y-98899782D01*
X84063269Y-98962123D01*
X83927819Y-99052628D01*
X83812628Y-99167819D01*
X83722123Y-99303269D01*
X83659782Y-99453773D01*
X83628000Y-99613548D01*
X81472000Y-99613548D01*
X81440218Y-99453773D01*
X81377877Y-99303269D01*
X81287372Y-99167819D01*
X81172181Y-99052628D01*
X81036731Y-98962123D01*
X80886227Y-98899782D01*
X80726452Y-98868000D01*
X80563548Y-98868000D01*
X80403773Y-98899782D01*
X80253269Y-98962123D01*
X80117819Y-99052628D01*
X80002628Y-99167819D01*
X79912123Y-99303269D01*
X79849782Y-99453773D01*
X79818000Y-99613548D01*
X77662000Y-99613548D01*
X77630218Y-99453773D01*
X77567877Y-99303269D01*
X77477372Y-99167819D01*
X77362181Y-99052628D01*
X77226731Y-98962123D01*
X77076227Y-98899782D01*
X76916452Y-98868000D01*
X76753548Y-98868000D01*
X76593773Y-98899782D01*
X76443269Y-98962123D01*
X76307819Y-99052628D01*
X76192628Y-99167819D01*
X76102123Y-99303269D01*
X76039782Y-99453773D01*
X76008000Y-99613548D01*
X73852000Y-99613548D01*
X73820218Y-99453773D01*
X73757877Y-99303269D01*
X73667372Y-99167819D01*
X73552181Y-99052628D01*
X73416731Y-98962123D01*
X73266227Y-98899782D01*
X73106452Y-98868000D01*
X72943548Y-98868000D01*
X72783773Y-98899782D01*
X72633269Y-98962123D01*
X72497819Y-99052628D01*
X72382628Y-99167819D01*
X72292123Y-99303269D01*
X72229782Y-99453773D01*
X72198000Y-99613548D01*
X70042000Y-99613548D01*
X70010218Y-99453773D01*
X69947877Y-99303269D01*
X69857372Y-99167819D01*
X69742181Y-99052628D01*
X69606731Y-98962123D01*
X69456227Y-98899782D01*
X69296452Y-98868000D01*
X69133548Y-98868000D01*
X68973773Y-98899782D01*
X68823269Y-98962123D01*
X68687819Y-99052628D01*
X68572628Y-99167819D01*
X68482123Y-99303269D01*
X68419782Y-99453773D01*
X68388000Y-99613548D01*
X66232000Y-99613548D01*
X66200218Y-99453773D01*
X66137877Y-99303269D01*
X66047372Y-99167819D01*
X65932181Y-99052628D01*
X65796731Y-98962123D01*
X65646227Y-98899782D01*
X65486452Y-98868000D01*
X65323548Y-98868000D01*
X65163773Y-98899782D01*
X65013269Y-98962123D01*
X64877819Y-99052628D01*
X64762628Y-99167819D01*
X64672123Y-99303269D01*
X64609782Y-99453773D01*
X64578000Y-99613548D01*
X61412000Y-99613548D01*
X61412000Y-99337772D01*
X61290023Y-98724548D01*
X91248000Y-98724548D01*
X91248000Y-98887452D01*
X91279782Y-99047227D01*
X91342123Y-99197731D01*
X91432628Y-99333181D01*
X91540447Y-99441000D01*
X91432628Y-99548819D01*
X91342123Y-99684269D01*
X91279782Y-99834773D01*
X91248000Y-99994548D01*
X91248000Y-100157452D01*
X91279782Y-100317227D01*
X91342123Y-100467731D01*
X91432628Y-100603181D01*
X91547819Y-100718372D01*
X91683269Y-100808877D01*
X91833773Y-100871218D01*
X91993548Y-100903000D01*
X92156452Y-100903000D01*
X92316227Y-100871218D01*
X92466731Y-100808877D01*
X92602181Y-100718372D01*
X92710000Y-100610553D01*
X92817819Y-100718372D01*
X92953269Y-100808877D01*
X93103773Y-100871218D01*
X93263548Y-100903000D01*
X93426452Y-100903000D01*
X93586227Y-100871218D01*
X93736731Y-100808877D01*
X93872181Y-100718372D01*
X93987372Y-100603181D01*
X94077877Y-100467731D01*
X94140218Y-100317227D01*
X94172000Y-100157452D01*
X94172000Y-99994548D01*
X94140218Y-99834773D01*
X94077877Y-99684269D01*
X93987372Y-99548819D01*
X93879553Y-99441000D01*
X93987372Y-99333181D01*
X94077877Y-99197731D01*
X94140218Y-99047227D01*
X94172000Y-98887452D01*
X94172000Y-98724548D01*
X94140218Y-98564773D01*
X94077877Y-98414269D01*
X93987372Y-98278819D01*
X93872181Y-98163628D01*
X93736731Y-98073123D01*
X93586227Y-98010782D01*
X93426452Y-97979000D01*
X93263548Y-97979000D01*
X93103773Y-98010782D01*
X92953269Y-98073123D01*
X92817819Y-98163628D01*
X92710000Y-98271447D01*
X92602181Y-98163628D01*
X92466731Y-98073123D01*
X92316227Y-98010782D01*
X92156452Y-97979000D01*
X91993548Y-97979000D01*
X91833773Y-98010782D01*
X91683269Y-98073123D01*
X91547819Y-98163628D01*
X91432628Y-98278819D01*
X91342123Y-98414269D01*
X91279782Y-98564773D01*
X91248000Y-98724548D01*
X61290023Y-98724548D01*
X61272617Y-98637043D01*
X60999206Y-97976971D01*
X60602275Y-97382922D01*
X60325000Y-97105647D01*
X60325000Y-96946548D01*
X83501000Y-96946548D01*
X83501000Y-97109452D01*
X83532782Y-97269227D01*
X83595123Y-97419731D01*
X83685628Y-97555181D01*
X83800819Y-97670372D01*
X83936269Y-97760877D01*
X84086773Y-97823218D01*
X84246548Y-97855000D01*
X84409452Y-97855000D01*
X84569227Y-97823218D01*
X84719731Y-97760877D01*
X84855181Y-97670372D01*
X84970372Y-97555181D01*
X85060877Y-97419731D01*
X85123218Y-97269227D01*
X85155000Y-97109452D01*
X85155000Y-96946548D01*
X86041000Y-96946548D01*
X86041000Y-97109452D01*
X86072782Y-97269227D01*
X86135123Y-97419731D01*
X86225628Y-97555181D01*
X86340819Y-97670372D01*
X86476269Y-97760877D01*
X86626773Y-97823218D01*
X86786548Y-97855000D01*
X86949452Y-97855000D01*
X87109227Y-97823218D01*
X87259731Y-97760877D01*
X87395181Y-97670372D01*
X87510372Y-97555181D01*
X87577612Y-97454548D01*
X97725000Y-97454548D01*
X97725000Y-97617452D01*
X97756782Y-97777227D01*
X97819123Y-97927731D01*
X97909628Y-98063181D01*
X98024819Y-98178372D01*
X98160269Y-98268877D01*
X98310773Y-98331218D01*
X98470548Y-98363000D01*
X98633452Y-98363000D01*
X98793227Y-98331218D01*
X98943731Y-98268877D01*
X99079181Y-98178372D01*
X99194372Y-98063181D01*
X99284877Y-97927731D01*
X99347218Y-97777227D01*
X99379000Y-97617452D01*
X99379000Y-97454548D01*
X99347218Y-97294773D01*
X99284877Y-97144269D01*
X99194372Y-97008819D01*
X99079181Y-96893628D01*
X98943731Y-96803123D01*
X98793227Y-96740782D01*
X98633452Y-96709000D01*
X98470548Y-96709000D01*
X98310773Y-96740782D01*
X98160269Y-96803123D01*
X98024819Y-96893628D01*
X97909628Y-97008819D01*
X97819123Y-97144269D01*
X97756782Y-97294773D01*
X97725000Y-97454548D01*
X87577612Y-97454548D01*
X87600877Y-97419731D01*
X87663218Y-97269227D01*
X87695000Y-97109452D01*
X87695000Y-96946548D01*
X87663218Y-96786773D01*
X87600877Y-96636269D01*
X87510372Y-96500819D01*
X87395181Y-96385628D01*
X87259731Y-96295123D01*
X87109227Y-96232782D01*
X86949452Y-96201000D01*
X86786548Y-96201000D01*
X86626773Y-96232782D01*
X86476269Y-96295123D01*
X86340819Y-96385628D01*
X86225628Y-96500819D01*
X86135123Y-96636269D01*
X86072782Y-96786773D01*
X86041000Y-96946548D01*
X85155000Y-96946548D01*
X85123218Y-96786773D01*
X85060877Y-96636269D01*
X84970372Y-96500819D01*
X84855181Y-96385628D01*
X84719731Y-96295123D01*
X84569227Y-96232782D01*
X84409452Y-96201000D01*
X84246548Y-96201000D01*
X84086773Y-96232782D01*
X83936269Y-96295123D01*
X83800819Y-96385628D01*
X83685628Y-96500819D01*
X83595123Y-96636269D01*
X83532782Y-96786773D01*
X83501000Y-96946548D01*
X60325000Y-96946548D01*
X60325000Y-95803548D01*
X60768000Y-95803548D01*
X60768000Y-95966452D01*
X60799782Y-96126227D01*
X60862123Y-96276731D01*
X60952628Y-96412181D01*
X61067819Y-96527372D01*
X61203269Y-96617877D01*
X61353773Y-96680218D01*
X61513548Y-96712000D01*
X61676452Y-96712000D01*
X61836227Y-96680218D01*
X61986731Y-96617877D01*
X62122181Y-96527372D01*
X62237372Y-96412181D01*
X62327877Y-96276731D01*
X62390218Y-96126227D01*
X62422000Y-95966452D01*
X62422000Y-95803548D01*
X64578000Y-95803548D01*
X64578000Y-95966452D01*
X64609782Y-96126227D01*
X64672123Y-96276731D01*
X64762628Y-96412181D01*
X64877819Y-96527372D01*
X65013269Y-96617877D01*
X65163773Y-96680218D01*
X65323548Y-96712000D01*
X65486452Y-96712000D01*
X65646227Y-96680218D01*
X65796731Y-96617877D01*
X65932181Y-96527372D01*
X66047372Y-96412181D01*
X66137877Y-96276731D01*
X66200218Y-96126227D01*
X66232000Y-95966452D01*
X66232000Y-95803548D01*
X68388000Y-95803548D01*
X68388000Y-95966452D01*
X68419782Y-96126227D01*
X68482123Y-96276731D01*
X68572628Y-96412181D01*
X68687819Y-96527372D01*
X68823269Y-96617877D01*
X68973773Y-96680218D01*
X69133548Y-96712000D01*
X69296452Y-96712000D01*
X69456227Y-96680218D01*
X69606731Y-96617877D01*
X69742181Y-96527372D01*
X69857372Y-96412181D01*
X69947877Y-96276731D01*
X70010218Y-96126227D01*
X70042000Y-95966452D01*
X70042000Y-95803548D01*
X72198000Y-95803548D01*
X72198000Y-95966452D01*
X72229782Y-96126227D01*
X72292123Y-96276731D01*
X72382628Y-96412181D01*
X72497819Y-96527372D01*
X72633269Y-96617877D01*
X72783773Y-96680218D01*
X72943548Y-96712000D01*
X73106452Y-96712000D01*
X73266227Y-96680218D01*
X73416731Y-96617877D01*
X73552181Y-96527372D01*
X73667372Y-96412181D01*
X73757877Y-96276731D01*
X73820218Y-96126227D01*
X73852000Y-95966452D01*
X73852000Y-95803548D01*
X73826738Y-95676548D01*
X95439000Y-95676548D01*
X95439000Y-95839452D01*
X95470782Y-95999227D01*
X95533123Y-96149731D01*
X95623628Y-96285181D01*
X95738819Y-96400372D01*
X95874269Y-96490877D01*
X96024773Y-96553218D01*
X96184548Y-96585000D01*
X96201000Y-96585000D01*
X96201000Y-96601452D01*
X96232782Y-96761227D01*
X96295123Y-96911731D01*
X96385628Y-97047181D01*
X96500819Y-97162372D01*
X96636269Y-97252877D01*
X96786773Y-97315218D01*
X96946548Y-97347000D01*
X97109452Y-97347000D01*
X97269227Y-97315218D01*
X97419731Y-97252877D01*
X97555181Y-97162372D01*
X97670372Y-97047181D01*
X97760877Y-96911731D01*
X97823218Y-96761227D01*
X97855000Y-96601452D01*
X97855000Y-96438548D01*
X97823218Y-96278773D01*
X97760877Y-96128269D01*
X97670372Y-95992819D01*
X97555181Y-95877628D01*
X97419731Y-95787123D01*
X97269227Y-95724782D01*
X97109452Y-95693000D01*
X97093000Y-95693000D01*
X97093000Y-95676548D01*
X97061218Y-95516773D01*
X96998877Y-95366269D01*
X96908372Y-95230819D01*
X96793181Y-95115628D01*
X96657731Y-95025123D01*
X96507227Y-94962782D01*
X96347452Y-94931000D01*
X96184548Y-94931000D01*
X96024773Y-94962782D01*
X95874269Y-95025123D01*
X95738819Y-95115628D01*
X95623628Y-95230819D01*
X95533123Y-95366269D01*
X95470782Y-95516773D01*
X95439000Y-95676548D01*
X73826738Y-95676548D01*
X73820218Y-95643773D01*
X73757877Y-95493269D01*
X73667372Y-95357819D01*
X73552181Y-95242628D01*
X73416731Y-95152123D01*
X73266227Y-95089782D01*
X73106452Y-95058000D01*
X72943548Y-95058000D01*
X72783773Y-95089782D01*
X72633269Y-95152123D01*
X72497819Y-95242628D01*
X72382628Y-95357819D01*
X72292123Y-95493269D01*
X72229782Y-95643773D01*
X72198000Y-95803548D01*
X70042000Y-95803548D01*
X70010218Y-95643773D01*
X69947877Y-95493269D01*
X69857372Y-95357819D01*
X69742181Y-95242628D01*
X69606731Y-95152123D01*
X69456227Y-95089782D01*
X69296452Y-95058000D01*
X69133548Y-95058000D01*
X68973773Y-95089782D01*
X68823269Y-95152123D01*
X68687819Y-95242628D01*
X68572628Y-95357819D01*
X68482123Y-95493269D01*
X68419782Y-95643773D01*
X68388000Y-95803548D01*
X66232000Y-95803548D01*
X66200218Y-95643773D01*
X66137877Y-95493269D01*
X66047372Y-95357819D01*
X65932181Y-95242628D01*
X65796731Y-95152123D01*
X65646227Y-95089782D01*
X65486452Y-95058000D01*
X65323548Y-95058000D01*
X65163773Y-95089782D01*
X65013269Y-95152123D01*
X64877819Y-95242628D01*
X64762628Y-95357819D01*
X64672123Y-95493269D01*
X64609782Y-95643773D01*
X64578000Y-95803548D01*
X62422000Y-95803548D01*
X62390218Y-95643773D01*
X62327877Y-95493269D01*
X62237372Y-95357819D01*
X62122181Y-95242628D01*
X61986731Y-95152123D01*
X61836227Y-95089782D01*
X61676452Y-95058000D01*
X61513548Y-95058000D01*
X61353773Y-95089782D01*
X61203269Y-95152123D01*
X61067819Y-95242628D01*
X60952628Y-95357819D01*
X60862123Y-95493269D01*
X60799782Y-95643773D01*
X60768000Y-95803548D01*
X60325000Y-95803548D01*
X60325000Y-94152548D01*
X84263000Y-94152548D01*
X84263000Y-94315452D01*
X84294782Y-94475227D01*
X84357123Y-94625731D01*
X84447628Y-94761181D01*
X84562819Y-94876372D01*
X84698269Y-94966877D01*
X84848773Y-95029218D01*
X85008548Y-95061000D01*
X85171452Y-95061000D01*
X85331227Y-95029218D01*
X85481731Y-94966877D01*
X85598000Y-94889188D01*
X85714269Y-94966877D01*
X85864773Y-95029218D01*
X86024548Y-95061000D01*
X86187452Y-95061000D01*
X86347227Y-95029218D01*
X86497731Y-94966877D01*
X86633181Y-94876372D01*
X86748372Y-94761181D01*
X86815612Y-94660548D01*
X97725000Y-94660548D01*
X97725000Y-94823452D01*
X97756782Y-94983227D01*
X97819123Y-95133731D01*
X97909628Y-95269181D01*
X98024819Y-95384372D01*
X98160269Y-95474877D01*
X98310773Y-95537218D01*
X98470548Y-95569000D01*
X98633452Y-95569000D01*
X98793227Y-95537218D01*
X98943731Y-95474877D01*
X99079181Y-95384372D01*
X99194372Y-95269181D01*
X99284877Y-95133731D01*
X99347218Y-94983227D01*
X99379000Y-94823452D01*
X99379000Y-94660548D01*
X99347218Y-94500773D01*
X99284877Y-94350269D01*
X99194372Y-94214819D01*
X99079181Y-94099628D01*
X98943731Y-94009123D01*
X98793227Y-93946782D01*
X98633452Y-93915000D01*
X98470548Y-93915000D01*
X98310773Y-93946782D01*
X98160269Y-94009123D01*
X98024819Y-94099628D01*
X97909628Y-94214819D01*
X97819123Y-94350269D01*
X97756782Y-94500773D01*
X97725000Y-94660548D01*
X86815612Y-94660548D01*
X86838877Y-94625731D01*
X86901218Y-94475227D01*
X86933000Y-94315452D01*
X86933000Y-94152548D01*
X86901218Y-93992773D01*
X86838877Y-93842269D01*
X86748372Y-93706819D01*
X86633181Y-93591628D01*
X86497731Y-93501123D01*
X86347227Y-93438782D01*
X86187452Y-93407000D01*
X86024548Y-93407000D01*
X85864773Y-93438782D01*
X85714269Y-93501123D01*
X85598000Y-93578812D01*
X85481731Y-93501123D01*
X85331227Y-93438782D01*
X85171452Y-93407000D01*
X85008548Y-93407000D01*
X84848773Y-93438782D01*
X84698269Y-93501123D01*
X84562819Y-93591628D01*
X84447628Y-93706819D01*
X84357123Y-93842269D01*
X84294782Y-93992773D01*
X84263000Y-94152548D01*
X60325000Y-94152548D01*
X60325000Y-91993548D01*
X60768000Y-91993548D01*
X60768000Y-92156452D01*
X60799782Y-92316227D01*
X60862123Y-92466731D01*
X60952628Y-92602181D01*
X61067819Y-92717372D01*
X61203269Y-92807877D01*
X61353773Y-92870218D01*
X61513548Y-92902000D01*
X61676452Y-92902000D01*
X61836227Y-92870218D01*
X61986731Y-92807877D01*
X62122181Y-92717372D01*
X62237372Y-92602181D01*
X62327877Y-92466731D01*
X62390218Y-92316227D01*
X62422000Y-92156452D01*
X62422000Y-91993548D01*
X64578000Y-91993548D01*
X64578000Y-92156452D01*
X64609782Y-92316227D01*
X64672123Y-92466731D01*
X64762628Y-92602181D01*
X64877819Y-92717372D01*
X65013269Y-92807877D01*
X65163773Y-92870218D01*
X65323548Y-92902000D01*
X65486452Y-92902000D01*
X65646227Y-92870218D01*
X65796731Y-92807877D01*
X65932181Y-92717372D01*
X66047372Y-92602181D01*
X66137877Y-92466731D01*
X66200218Y-92316227D01*
X66232000Y-92156452D01*
X66232000Y-91993548D01*
X68388000Y-91993548D01*
X68388000Y-92156452D01*
X68419782Y-92316227D01*
X68482123Y-92466731D01*
X68572628Y-92602181D01*
X68687819Y-92717372D01*
X68823269Y-92807877D01*
X68973773Y-92870218D01*
X69133548Y-92902000D01*
X69296452Y-92902000D01*
X69456227Y-92870218D01*
X69606731Y-92807877D01*
X69742181Y-92717372D01*
X69857372Y-92602181D01*
X69947877Y-92466731D01*
X70010218Y-92316227D01*
X70042000Y-92156452D01*
X70042000Y-92120548D01*
X72833000Y-92120548D01*
X72833000Y-92283452D01*
X72864782Y-92443227D01*
X72927123Y-92593731D01*
X73004812Y-92710000D01*
X72927123Y-92826269D01*
X72864782Y-92976773D01*
X72833000Y-93136548D01*
X72833000Y-93299452D01*
X72864782Y-93459227D01*
X72927123Y-93609731D01*
X73017628Y-93745181D01*
X73132819Y-93860372D01*
X73268269Y-93950877D01*
X73418773Y-94013218D01*
X73578548Y-94045000D01*
X73741452Y-94045000D01*
X73901227Y-94013218D01*
X74051731Y-93950877D01*
X74187181Y-93860372D01*
X74302372Y-93745181D01*
X74392877Y-93609731D01*
X74455218Y-93459227D01*
X74487000Y-93299452D01*
X74487000Y-93136548D01*
X74455218Y-92976773D01*
X74416189Y-92882548D01*
X89597000Y-92882548D01*
X89597000Y-93045452D01*
X89628782Y-93205227D01*
X89691123Y-93355731D01*
X89781628Y-93491181D01*
X89896819Y-93606372D01*
X90032269Y-93696877D01*
X90182773Y-93759218D01*
X90342548Y-93791000D01*
X90505452Y-93791000D01*
X90665227Y-93759218D01*
X90815731Y-93696877D01*
X90951181Y-93606372D01*
X91066372Y-93491181D01*
X91156877Y-93355731D01*
X91219218Y-93205227D01*
X91251000Y-93045452D01*
X91251000Y-92882548D01*
X91756000Y-92882548D01*
X91756000Y-93045452D01*
X91787782Y-93205227D01*
X91850123Y-93355731D01*
X91940628Y-93491181D01*
X92055819Y-93606372D01*
X92191269Y-93696877D01*
X92341773Y-93759218D01*
X92501548Y-93791000D01*
X92664452Y-93791000D01*
X92824227Y-93759218D01*
X92974731Y-93696877D01*
X93110181Y-93606372D01*
X93225372Y-93491181D01*
X93315877Y-93355731D01*
X93378218Y-93205227D01*
X93410000Y-93045452D01*
X93410000Y-92882548D01*
X93915000Y-92882548D01*
X93915000Y-93045452D01*
X93946782Y-93205227D01*
X94009123Y-93355731D01*
X94099628Y-93491181D01*
X94214819Y-93606372D01*
X94350269Y-93696877D01*
X94500773Y-93759218D01*
X94660548Y-93791000D01*
X94823452Y-93791000D01*
X94983227Y-93759218D01*
X95133731Y-93696877D01*
X95269181Y-93606372D01*
X95384372Y-93491181D01*
X95474877Y-93355731D01*
X95537218Y-93205227D01*
X95569000Y-93045452D01*
X95569000Y-92882548D01*
X95537218Y-92722773D01*
X95474877Y-92572269D01*
X95384372Y-92436819D01*
X95322101Y-92374548D01*
X96709000Y-92374548D01*
X96709000Y-92537452D01*
X96740782Y-92697227D01*
X96803123Y-92847731D01*
X96893628Y-92983181D01*
X97008819Y-93098372D01*
X97144269Y-93188877D01*
X97294773Y-93251218D01*
X97454548Y-93283000D01*
X97617452Y-93283000D01*
X97777227Y-93251218D01*
X97927731Y-93188877D01*
X98063181Y-93098372D01*
X98178372Y-92983181D01*
X98268877Y-92847731D01*
X98331218Y-92697227D01*
X98363000Y-92537452D01*
X98363000Y-92374548D01*
X98331218Y-92214773D01*
X98268877Y-92064269D01*
X98178372Y-91928819D01*
X98063181Y-91813628D01*
X97927731Y-91723123D01*
X97777227Y-91660782D01*
X97617452Y-91629000D01*
X97454548Y-91629000D01*
X97294773Y-91660782D01*
X97144269Y-91723123D01*
X97008819Y-91813628D01*
X96893628Y-91928819D01*
X96803123Y-92064269D01*
X96740782Y-92214773D01*
X96709000Y-92374548D01*
X95322101Y-92374548D01*
X95269181Y-92321628D01*
X95133731Y-92231123D01*
X94983227Y-92168782D01*
X94823452Y-92137000D01*
X94660548Y-92137000D01*
X94500773Y-92168782D01*
X94350269Y-92231123D01*
X94214819Y-92321628D01*
X94099628Y-92436819D01*
X94009123Y-92572269D01*
X93946782Y-92722773D01*
X93915000Y-92882548D01*
X93410000Y-92882548D01*
X93378218Y-92722773D01*
X93315877Y-92572269D01*
X93225372Y-92436819D01*
X93110181Y-92321628D01*
X92974731Y-92231123D01*
X92824227Y-92168782D01*
X92664452Y-92137000D01*
X92501548Y-92137000D01*
X92341773Y-92168782D01*
X92191269Y-92231123D01*
X92055819Y-92321628D01*
X91940628Y-92436819D01*
X91850123Y-92572269D01*
X91787782Y-92722773D01*
X91756000Y-92882548D01*
X91251000Y-92882548D01*
X91219218Y-92722773D01*
X91156877Y-92572269D01*
X91066372Y-92436819D01*
X90951181Y-92321628D01*
X90815731Y-92231123D01*
X90665227Y-92168782D01*
X90505452Y-92137000D01*
X90342548Y-92137000D01*
X90182773Y-92168782D01*
X90032269Y-92231123D01*
X89896819Y-92321628D01*
X89781628Y-92436819D01*
X89691123Y-92572269D01*
X89628782Y-92722773D01*
X89597000Y-92882548D01*
X74416189Y-92882548D01*
X74392877Y-92826269D01*
X74315188Y-92710000D01*
X74392877Y-92593731D01*
X74455218Y-92443227D01*
X74487000Y-92283452D01*
X74487000Y-92120548D01*
X74455218Y-91960773D01*
X74392877Y-91810269D01*
X74302372Y-91674819D01*
X74187181Y-91559628D01*
X74051731Y-91469123D01*
X73901227Y-91406782D01*
X73741452Y-91375000D01*
X73578548Y-91375000D01*
X73418773Y-91406782D01*
X73268269Y-91469123D01*
X73132819Y-91559628D01*
X73017628Y-91674819D01*
X72927123Y-91810269D01*
X72864782Y-91960773D01*
X72833000Y-92120548D01*
X70042000Y-92120548D01*
X70042000Y-91993548D01*
X70010218Y-91833773D01*
X69947877Y-91683269D01*
X69857372Y-91547819D01*
X69742181Y-91432628D01*
X69606731Y-91342123D01*
X69456227Y-91279782D01*
X69296452Y-91248000D01*
X69133548Y-91248000D01*
X68973773Y-91279782D01*
X68823269Y-91342123D01*
X68687819Y-91432628D01*
X68572628Y-91547819D01*
X68482123Y-91683269D01*
X68419782Y-91833773D01*
X68388000Y-91993548D01*
X66232000Y-91993548D01*
X66200218Y-91833773D01*
X66137877Y-91683269D01*
X66047372Y-91547819D01*
X65932181Y-91432628D01*
X65796731Y-91342123D01*
X65646227Y-91279782D01*
X65486452Y-91248000D01*
X65323548Y-91248000D01*
X65163773Y-91279782D01*
X65013269Y-91342123D01*
X64877819Y-91432628D01*
X64762628Y-91547819D01*
X64672123Y-91683269D01*
X64609782Y-91833773D01*
X64578000Y-91993548D01*
X62422000Y-91993548D01*
X62390218Y-91833773D01*
X62327877Y-91683269D01*
X62237372Y-91547819D01*
X62122181Y-91432628D01*
X61986731Y-91342123D01*
X61836227Y-91279782D01*
X61676452Y-91248000D01*
X61513548Y-91248000D01*
X61353773Y-91279782D01*
X61203269Y-91342123D01*
X61067819Y-91432628D01*
X60952628Y-91547819D01*
X60862123Y-91683269D01*
X60799782Y-91833773D01*
X60768000Y-91993548D01*
X60325000Y-91993548D01*
X60325000Y-89129322D01*
X60335731Y-89124877D01*
X60471181Y-89034372D01*
X60586372Y-88919181D01*
X60676877Y-88783731D01*
X60706000Y-88713422D01*
X60735123Y-88783731D01*
X60825628Y-88919181D01*
X60940819Y-89034372D01*
X61076269Y-89124877D01*
X61226773Y-89187218D01*
X61386548Y-89219000D01*
X61549452Y-89219000D01*
X61709227Y-89187218D01*
X61859731Y-89124877D01*
X61995181Y-89034372D01*
X62110372Y-88919181D01*
X62200877Y-88783731D01*
X62230000Y-88713422D01*
X62259123Y-88783731D01*
X62349628Y-88919181D01*
X62464819Y-89034372D01*
X62600269Y-89124877D01*
X62750773Y-89187218D01*
X62910548Y-89219000D01*
X63073452Y-89219000D01*
X63233227Y-89187218D01*
X63383731Y-89124877D01*
X63519181Y-89034372D01*
X63634372Y-88919181D01*
X63724877Y-88783731D01*
X63754000Y-88713422D01*
X63783123Y-88783731D01*
X63873628Y-88919181D01*
X63988819Y-89034372D01*
X64124269Y-89124877D01*
X64274773Y-89187218D01*
X64434548Y-89219000D01*
X64597452Y-89219000D01*
X64757227Y-89187218D01*
X64907731Y-89124877D01*
X65043181Y-89034372D01*
X65158372Y-88919181D01*
X65248877Y-88783731D01*
X65278000Y-88713422D01*
X65307123Y-88783731D01*
X65397628Y-88919181D01*
X65512819Y-89034372D01*
X65648269Y-89124877D01*
X65798773Y-89187218D01*
X65958548Y-89219000D01*
X66121452Y-89219000D01*
X66281227Y-89187218D01*
X66431731Y-89124877D01*
X66567181Y-89034372D01*
X66682372Y-88919181D01*
X66772877Y-88783731D01*
X66802000Y-88713422D01*
X66831123Y-88783731D01*
X66921628Y-88919181D01*
X67036819Y-89034372D01*
X67172269Y-89124877D01*
X67322773Y-89187218D01*
X67482548Y-89219000D01*
X67645452Y-89219000D01*
X67805227Y-89187218D01*
X67955731Y-89124877D01*
X68091181Y-89034372D01*
X68206372Y-88919181D01*
X68296877Y-88783731D01*
X68326000Y-88713422D01*
X68355123Y-88783731D01*
X68445628Y-88919181D01*
X68560819Y-89034372D01*
X68696269Y-89124877D01*
X68846773Y-89187218D01*
X69006548Y-89219000D01*
X69169452Y-89219000D01*
X69329227Y-89187218D01*
X69479731Y-89124877D01*
X69615181Y-89034372D01*
X69730372Y-88919181D01*
X69820877Y-88783731D01*
X69850000Y-88713422D01*
X69879123Y-88783731D01*
X69969628Y-88919181D01*
X70084819Y-89034372D01*
X70220269Y-89124877D01*
X70370773Y-89187218D01*
X70530548Y-89219000D01*
X70693452Y-89219000D01*
X70853227Y-89187218D01*
X70971628Y-89138175D01*
X70959782Y-89166773D01*
X70928000Y-89326548D01*
X70928000Y-89489452D01*
X70959782Y-89649227D01*
X71022123Y-89799731D01*
X71099812Y-89916000D01*
X71022123Y-90032269D01*
X70959782Y-90182773D01*
X70928000Y-90342548D01*
X70928000Y-90505452D01*
X70959782Y-90665227D01*
X71022123Y-90815731D01*
X71112628Y-90951181D01*
X71227819Y-91066372D01*
X71363269Y-91156877D01*
X71513773Y-91219218D01*
X71673548Y-91251000D01*
X71836452Y-91251000D01*
X71996227Y-91219218D01*
X72146731Y-91156877D01*
X72282181Y-91066372D01*
X72397372Y-90951181D01*
X72487877Y-90815731D01*
X72550218Y-90665227D01*
X72563879Y-90596548D01*
X75627000Y-90596548D01*
X75627000Y-90759452D01*
X75658782Y-90919227D01*
X75721123Y-91069731D01*
X75811628Y-91205181D01*
X75926819Y-91320372D01*
X76062269Y-91410877D01*
X76212773Y-91473218D01*
X76372548Y-91505000D01*
X76535452Y-91505000D01*
X76695227Y-91473218D01*
X76845731Y-91410877D01*
X76981181Y-91320372D01*
X77096372Y-91205181D01*
X77186877Y-91069731D01*
X77249218Y-90919227D01*
X77262879Y-90850548D01*
X80707000Y-90850548D01*
X80707000Y-91013452D01*
X80738782Y-91173227D01*
X80801123Y-91323731D01*
X80891628Y-91459181D01*
X81006819Y-91574372D01*
X81142269Y-91664877D01*
X81292773Y-91727218D01*
X81452548Y-91759000D01*
X81615452Y-91759000D01*
X81775227Y-91727218D01*
X81925731Y-91664877D01*
X82061181Y-91574372D01*
X82176372Y-91459181D01*
X82266877Y-91323731D01*
X82329218Y-91173227D01*
X82361000Y-91013452D01*
X82361000Y-90850548D01*
X85279000Y-90850548D01*
X85279000Y-91013452D01*
X85310782Y-91173227D01*
X85373123Y-91323731D01*
X85463628Y-91459181D01*
X85578819Y-91574372D01*
X85714269Y-91664877D01*
X85864773Y-91727218D01*
X86024548Y-91759000D01*
X86187452Y-91759000D01*
X86347227Y-91727218D01*
X86497731Y-91664877D01*
X86633181Y-91574372D01*
X86748372Y-91459181D01*
X86838877Y-91323731D01*
X86901218Y-91173227D01*
X86933000Y-91013452D01*
X86933000Y-90850548D01*
X88073000Y-90850548D01*
X88073000Y-91013452D01*
X88104782Y-91173227D01*
X88167123Y-91323731D01*
X88257628Y-91459181D01*
X88372819Y-91574372D01*
X88508269Y-91664877D01*
X88658773Y-91727218D01*
X88818548Y-91759000D01*
X88981452Y-91759000D01*
X89141227Y-91727218D01*
X89291731Y-91664877D01*
X89427181Y-91574372D01*
X89542372Y-91459181D01*
X89632877Y-91323731D01*
X89695218Y-91173227D01*
X89727000Y-91013452D01*
X89727000Y-90850548D01*
X90359000Y-90850548D01*
X90359000Y-91013452D01*
X90390782Y-91173227D01*
X90453123Y-91323731D01*
X90543628Y-91459181D01*
X90658819Y-91574372D01*
X90794269Y-91664877D01*
X90944773Y-91727218D01*
X91104548Y-91759000D01*
X91267452Y-91759000D01*
X91427227Y-91727218D01*
X91577731Y-91664877D01*
X91713181Y-91574372D01*
X91828372Y-91459181D01*
X91918877Y-91323731D01*
X91981218Y-91173227D01*
X92013000Y-91013452D01*
X92013000Y-90850548D01*
X92645000Y-90850548D01*
X92645000Y-91013452D01*
X92676782Y-91173227D01*
X92739123Y-91323731D01*
X92829628Y-91459181D01*
X92944819Y-91574372D01*
X93080269Y-91664877D01*
X93230773Y-91727218D01*
X93390548Y-91759000D01*
X93553452Y-91759000D01*
X93713227Y-91727218D01*
X93863731Y-91664877D01*
X93999181Y-91574372D01*
X94114372Y-91459181D01*
X94204877Y-91323731D01*
X94267218Y-91173227D01*
X94299000Y-91013452D01*
X94299000Y-90850548D01*
X94804000Y-90850548D01*
X94804000Y-91013452D01*
X94835782Y-91173227D01*
X94898123Y-91323731D01*
X94988628Y-91459181D01*
X95103819Y-91574372D01*
X95239269Y-91664877D01*
X95389773Y-91727218D01*
X95549548Y-91759000D01*
X95712452Y-91759000D01*
X95872227Y-91727218D01*
X96022731Y-91664877D01*
X96158181Y-91574372D01*
X96273372Y-91459181D01*
X96363877Y-91323731D01*
X96426218Y-91173227D01*
X96458000Y-91013452D01*
X96458000Y-90850548D01*
X96426218Y-90690773D01*
X96363877Y-90540269D01*
X96273372Y-90404819D01*
X96211101Y-90342548D01*
X98995000Y-90342548D01*
X98995000Y-90505452D01*
X99026782Y-90665227D01*
X99089123Y-90815731D01*
X99179628Y-90951181D01*
X99294819Y-91066372D01*
X99430269Y-91156877D01*
X99580773Y-91219218D01*
X99740548Y-91251000D01*
X99903452Y-91251000D01*
X100063227Y-91219218D01*
X100213731Y-91156877D01*
X100330000Y-91079188D01*
X100446269Y-91156877D01*
X100596773Y-91219218D01*
X100756548Y-91251000D01*
X100919452Y-91251000D01*
X101079227Y-91219218D01*
X101229731Y-91156877D01*
X101365181Y-91066372D01*
X101480372Y-90951181D01*
X101570877Y-90815731D01*
X101633218Y-90665227D01*
X101665000Y-90505452D01*
X101665000Y-90342548D01*
X101633218Y-90182773D01*
X101570877Y-90032269D01*
X101480372Y-89896819D01*
X101365181Y-89781628D01*
X101229731Y-89691123D01*
X101079227Y-89628782D01*
X100919452Y-89597000D01*
X100756548Y-89597000D01*
X100596773Y-89628782D01*
X100446269Y-89691123D01*
X100330000Y-89768812D01*
X100213731Y-89691123D01*
X100063227Y-89628782D01*
X99903452Y-89597000D01*
X99740548Y-89597000D01*
X99580773Y-89628782D01*
X99430269Y-89691123D01*
X99294819Y-89781628D01*
X99179628Y-89896819D01*
X99089123Y-90032269D01*
X99026782Y-90182773D01*
X98995000Y-90342548D01*
X96211101Y-90342548D01*
X96158181Y-90289628D01*
X96022731Y-90199123D01*
X95872227Y-90136782D01*
X95712452Y-90105000D01*
X95549548Y-90105000D01*
X95389773Y-90136782D01*
X95239269Y-90199123D01*
X95103819Y-90289628D01*
X94988628Y-90404819D01*
X94898123Y-90540269D01*
X94835782Y-90690773D01*
X94804000Y-90850548D01*
X94299000Y-90850548D01*
X94267218Y-90690773D01*
X94204877Y-90540269D01*
X94114372Y-90404819D01*
X93999181Y-90289628D01*
X93863731Y-90199123D01*
X93713227Y-90136782D01*
X93553452Y-90105000D01*
X93390548Y-90105000D01*
X93230773Y-90136782D01*
X93080269Y-90199123D01*
X92944819Y-90289628D01*
X92829628Y-90404819D01*
X92739123Y-90540269D01*
X92676782Y-90690773D01*
X92645000Y-90850548D01*
X92013000Y-90850548D01*
X91981218Y-90690773D01*
X91918877Y-90540269D01*
X91828372Y-90404819D01*
X91713181Y-90289628D01*
X91577731Y-90199123D01*
X91427227Y-90136782D01*
X91267452Y-90105000D01*
X91104548Y-90105000D01*
X90944773Y-90136782D01*
X90794269Y-90199123D01*
X90658819Y-90289628D01*
X90543628Y-90404819D01*
X90453123Y-90540269D01*
X90390782Y-90690773D01*
X90359000Y-90850548D01*
X89727000Y-90850548D01*
X89695218Y-90690773D01*
X89632877Y-90540269D01*
X89542372Y-90404819D01*
X89427181Y-90289628D01*
X89291731Y-90199123D01*
X89141227Y-90136782D01*
X88981452Y-90105000D01*
X88818548Y-90105000D01*
X88658773Y-90136782D01*
X88508269Y-90199123D01*
X88372819Y-90289628D01*
X88257628Y-90404819D01*
X88167123Y-90540269D01*
X88104782Y-90690773D01*
X88073000Y-90850548D01*
X86933000Y-90850548D01*
X86901218Y-90690773D01*
X86838877Y-90540269D01*
X86748372Y-90404819D01*
X86633181Y-90289628D01*
X86497731Y-90199123D01*
X86347227Y-90136782D01*
X86187452Y-90105000D01*
X86024548Y-90105000D01*
X85864773Y-90136782D01*
X85714269Y-90199123D01*
X85578819Y-90289628D01*
X85463628Y-90404819D01*
X85373123Y-90540269D01*
X85310782Y-90690773D01*
X85279000Y-90850548D01*
X82361000Y-90850548D01*
X82329218Y-90690773D01*
X82266877Y-90540269D01*
X82176372Y-90404819D01*
X82061181Y-90289628D01*
X81925731Y-90199123D01*
X81775227Y-90136782D01*
X81615452Y-90105000D01*
X81452548Y-90105000D01*
X81292773Y-90136782D01*
X81142269Y-90199123D01*
X81006819Y-90289628D01*
X80891628Y-90404819D01*
X80801123Y-90540269D01*
X80738782Y-90690773D01*
X80707000Y-90850548D01*
X77262879Y-90850548D01*
X77281000Y-90759452D01*
X77281000Y-90596548D01*
X77249218Y-90436773D01*
X77186877Y-90286269D01*
X77096372Y-90150819D01*
X76981181Y-90035628D01*
X76845731Y-89945123D01*
X76695227Y-89882782D01*
X76535452Y-89851000D01*
X76372548Y-89851000D01*
X76212773Y-89882782D01*
X76062269Y-89945123D01*
X75926819Y-90035628D01*
X75811628Y-90150819D01*
X75721123Y-90286269D01*
X75658782Y-90436773D01*
X75627000Y-90596548D01*
X72563879Y-90596548D01*
X72582000Y-90505452D01*
X72582000Y-90342548D01*
X72550218Y-90182773D01*
X72487877Y-90032269D01*
X72410188Y-89916000D01*
X72487877Y-89799731D01*
X72550218Y-89649227D01*
X72582000Y-89489452D01*
X72582000Y-89326548D01*
X72550218Y-89166773D01*
X72531751Y-89122191D01*
X72663181Y-89034372D01*
X72778372Y-88919181D01*
X72868877Y-88783731D01*
X72931218Y-88633227D01*
X72963000Y-88473452D01*
X72963000Y-88310548D01*
X72931218Y-88150773D01*
X72868877Y-88000269D01*
X72778372Y-87864819D01*
X72663181Y-87749628D01*
X72527731Y-87659123D01*
X72377227Y-87596782D01*
X72217452Y-87565000D01*
X72054548Y-87565000D01*
X71894773Y-87596782D01*
X71744269Y-87659123D01*
X71608819Y-87749628D01*
X71493628Y-87864819D01*
X71403123Y-88000269D01*
X71374000Y-88070578D01*
X71344877Y-88000269D01*
X71254372Y-87864819D01*
X71139181Y-87749628D01*
X71003731Y-87659123D01*
X70853227Y-87596782D01*
X70693452Y-87565000D01*
X70530548Y-87565000D01*
X70370773Y-87596782D01*
X70220269Y-87659123D01*
X70084819Y-87749628D01*
X69969628Y-87864819D01*
X69879123Y-88000269D01*
X69850000Y-88070578D01*
X69820877Y-88000269D01*
X69730372Y-87864819D01*
X69615181Y-87749628D01*
X69479731Y-87659123D01*
X69329227Y-87596782D01*
X69169452Y-87565000D01*
X69006548Y-87565000D01*
X68846773Y-87596782D01*
X68696269Y-87659123D01*
X68560819Y-87749628D01*
X68445628Y-87864819D01*
X68355123Y-88000269D01*
X68326000Y-88070578D01*
X68296877Y-88000269D01*
X68206372Y-87864819D01*
X68091181Y-87749628D01*
X67955731Y-87659123D01*
X67805227Y-87596782D01*
X67645452Y-87565000D01*
X67482548Y-87565000D01*
X67322773Y-87596782D01*
X67172269Y-87659123D01*
X67036819Y-87749628D01*
X66921628Y-87864819D01*
X66831123Y-88000269D01*
X66802000Y-88070578D01*
X66772877Y-88000269D01*
X66682372Y-87864819D01*
X66567181Y-87749628D01*
X66431731Y-87659123D01*
X66281227Y-87596782D01*
X66121452Y-87565000D01*
X65958548Y-87565000D01*
X65798773Y-87596782D01*
X65648269Y-87659123D01*
X65512819Y-87749628D01*
X65397628Y-87864819D01*
X65307123Y-88000269D01*
X65278000Y-88070578D01*
X65248877Y-88000269D01*
X65158372Y-87864819D01*
X65043181Y-87749628D01*
X64907731Y-87659123D01*
X64757227Y-87596782D01*
X64597452Y-87565000D01*
X64434548Y-87565000D01*
X64274773Y-87596782D01*
X64124269Y-87659123D01*
X63988819Y-87749628D01*
X63873628Y-87864819D01*
X63783123Y-88000269D01*
X63754000Y-88070578D01*
X63724877Y-88000269D01*
X63634372Y-87864819D01*
X63519181Y-87749628D01*
X63383731Y-87659123D01*
X63233227Y-87596782D01*
X63073452Y-87565000D01*
X62910548Y-87565000D01*
X62750773Y-87596782D01*
X62600269Y-87659123D01*
X62464819Y-87749628D01*
X62349628Y-87864819D01*
X62259123Y-88000269D01*
X62230000Y-88070578D01*
X62200877Y-88000269D01*
X62110372Y-87864819D01*
X61995181Y-87749628D01*
X61859731Y-87659123D01*
X61709227Y-87596782D01*
X61549452Y-87565000D01*
X61386548Y-87565000D01*
X61226773Y-87596782D01*
X61076269Y-87659123D01*
X60940819Y-87749628D01*
X60825628Y-87864819D01*
X60735123Y-88000269D01*
X60706000Y-88070578D01*
X60676877Y-88000269D01*
X60586372Y-87864819D01*
X60471181Y-87749628D01*
X60335731Y-87659123D01*
X60325000Y-87654678D01*
X60325000Y-86589322D01*
X60335731Y-86584877D01*
X60471181Y-86494372D01*
X60586372Y-86379181D01*
X60676877Y-86243731D01*
X60706000Y-86173422D01*
X60735123Y-86243731D01*
X60825628Y-86379181D01*
X60940819Y-86494372D01*
X61076269Y-86584877D01*
X61226773Y-86647218D01*
X61386548Y-86679000D01*
X61549452Y-86679000D01*
X61709227Y-86647218D01*
X61859731Y-86584877D01*
X61995181Y-86494372D01*
X62110372Y-86379181D01*
X62200877Y-86243731D01*
X62230000Y-86173422D01*
X62259123Y-86243731D01*
X62349628Y-86379181D01*
X62464819Y-86494372D01*
X62600269Y-86584877D01*
X62750773Y-86647218D01*
X62910548Y-86679000D01*
X63073452Y-86679000D01*
X63233227Y-86647218D01*
X63383731Y-86584877D01*
X63519181Y-86494372D01*
X63634372Y-86379181D01*
X63724877Y-86243731D01*
X63754000Y-86173422D01*
X63783123Y-86243731D01*
X63873628Y-86379181D01*
X63988819Y-86494372D01*
X64124269Y-86584877D01*
X64274773Y-86647218D01*
X64434548Y-86679000D01*
X64597452Y-86679000D01*
X64757227Y-86647218D01*
X64907731Y-86584877D01*
X65043181Y-86494372D01*
X65158372Y-86379181D01*
X65248877Y-86243731D01*
X65278000Y-86173422D01*
X65307123Y-86243731D01*
X65397628Y-86379181D01*
X65512819Y-86494372D01*
X65648269Y-86584877D01*
X65798773Y-86647218D01*
X65958548Y-86679000D01*
X66121452Y-86679000D01*
X66281227Y-86647218D01*
X66431731Y-86584877D01*
X66567181Y-86494372D01*
X66682372Y-86379181D01*
X66772877Y-86243731D01*
X66802000Y-86173422D01*
X66831123Y-86243731D01*
X66921628Y-86379181D01*
X67036819Y-86494372D01*
X67172269Y-86584877D01*
X67322773Y-86647218D01*
X67482548Y-86679000D01*
X67645452Y-86679000D01*
X67805227Y-86647218D01*
X67955731Y-86584877D01*
X68091181Y-86494372D01*
X68206372Y-86379181D01*
X68296877Y-86243731D01*
X68326000Y-86173422D01*
X68355123Y-86243731D01*
X68445628Y-86379181D01*
X68560819Y-86494372D01*
X68696269Y-86584877D01*
X68846773Y-86647218D01*
X69006548Y-86679000D01*
X69169452Y-86679000D01*
X69329227Y-86647218D01*
X69479731Y-86584877D01*
X69615181Y-86494372D01*
X69730372Y-86379181D01*
X69820877Y-86243731D01*
X69850000Y-86173422D01*
X69879123Y-86243731D01*
X69969628Y-86379181D01*
X70084819Y-86494372D01*
X70220269Y-86584877D01*
X70370773Y-86647218D01*
X70530548Y-86679000D01*
X70693452Y-86679000D01*
X70853227Y-86647218D01*
X71003731Y-86584877D01*
X71139181Y-86494372D01*
X71254372Y-86379181D01*
X71344877Y-86243731D01*
X71374000Y-86173422D01*
X71403123Y-86243731D01*
X71493628Y-86379181D01*
X71608819Y-86494372D01*
X71744269Y-86584877D01*
X71894773Y-86647218D01*
X72054548Y-86679000D01*
X72217452Y-86679000D01*
X72377227Y-86647218D01*
X72527731Y-86584877D01*
X72663181Y-86494372D01*
X72778372Y-86379181D01*
X72868877Y-86243731D01*
X72931218Y-86093227D01*
X72963000Y-85933452D01*
X72963000Y-85770548D01*
X72931218Y-85610773D01*
X72868877Y-85460269D01*
X72778372Y-85324819D01*
X72716101Y-85262548D01*
X75881000Y-85262548D01*
X75881000Y-85425452D01*
X75912782Y-85585227D01*
X75975123Y-85735731D01*
X76052812Y-85852000D01*
X75975123Y-85968269D01*
X75912782Y-86118773D01*
X75881000Y-86278548D01*
X75881000Y-86441452D01*
X75912782Y-86601227D01*
X75975123Y-86751731D01*
X76065628Y-86887181D01*
X76180819Y-87002372D01*
X76316269Y-87092877D01*
X76466773Y-87155218D01*
X76626548Y-87187000D01*
X76789452Y-87187000D01*
X76949227Y-87155218D01*
X77099731Y-87092877D01*
X77216000Y-87015188D01*
X77332269Y-87092877D01*
X77482773Y-87155218D01*
X77634123Y-87185324D01*
X77589628Y-87229819D01*
X77499123Y-87365269D01*
X77436782Y-87515773D01*
X77405000Y-87675548D01*
X77405000Y-87838452D01*
X77436782Y-87998227D01*
X77499123Y-88148731D01*
X77589628Y-88284181D01*
X77704819Y-88399372D01*
X77840269Y-88489877D01*
X77990773Y-88552218D01*
X78150548Y-88584000D01*
X78313452Y-88584000D01*
X78473227Y-88552218D01*
X78623731Y-88489877D01*
X78740000Y-88412188D01*
X78856269Y-88489877D01*
X79006773Y-88552218D01*
X79166548Y-88584000D01*
X79329452Y-88584000D01*
X79489227Y-88552218D01*
X79639731Y-88489877D01*
X79775181Y-88399372D01*
X79890372Y-88284181D01*
X79980877Y-88148731D01*
X80043218Y-87998227D01*
X80075000Y-87838452D01*
X80075000Y-87675548D01*
X80043218Y-87515773D01*
X79980877Y-87365269D01*
X79890372Y-87229819D01*
X79775181Y-87114628D01*
X79639731Y-87024123D01*
X79489227Y-86961782D01*
X79329452Y-86930000D01*
X79166548Y-86930000D01*
X79006773Y-86961782D01*
X78856269Y-87024123D01*
X78740000Y-87101812D01*
X78623731Y-87024123D01*
X78473227Y-86961782D01*
X78321877Y-86931676D01*
X78366372Y-86887181D01*
X78456877Y-86751731D01*
X78519218Y-86601227D01*
X78551000Y-86441452D01*
X78551000Y-86278548D01*
X78519218Y-86118773D01*
X78456877Y-85968269D01*
X78379188Y-85852000D01*
X78456877Y-85735731D01*
X78519218Y-85585227D01*
X78551000Y-85425452D01*
X78551000Y-85262548D01*
X78519218Y-85102773D01*
X78456877Y-84952269D01*
X78366372Y-84816819D01*
X78251181Y-84701628D01*
X78115731Y-84611123D01*
X77965227Y-84548782D01*
X77805452Y-84517000D01*
X77642548Y-84517000D01*
X77482773Y-84548782D01*
X77332269Y-84611123D01*
X77216000Y-84688812D01*
X77099731Y-84611123D01*
X76949227Y-84548782D01*
X76789452Y-84517000D01*
X76626548Y-84517000D01*
X76466773Y-84548782D01*
X76316269Y-84611123D01*
X76180819Y-84701628D01*
X76065628Y-84816819D01*
X75975123Y-84952269D01*
X75912782Y-85102773D01*
X75881000Y-85262548D01*
X72716101Y-85262548D01*
X72663181Y-85209628D01*
X72527731Y-85119123D01*
X72377227Y-85056782D01*
X72217452Y-85025000D01*
X72054548Y-85025000D01*
X71894773Y-85056782D01*
X71744269Y-85119123D01*
X71608819Y-85209628D01*
X71493628Y-85324819D01*
X71403123Y-85460269D01*
X71374000Y-85530578D01*
X71344877Y-85460269D01*
X71254372Y-85324819D01*
X71139181Y-85209628D01*
X71003731Y-85119123D01*
X70853227Y-85056782D01*
X70693452Y-85025000D01*
X70530548Y-85025000D01*
X70370773Y-85056782D01*
X70220269Y-85119123D01*
X70084819Y-85209628D01*
X69969628Y-85324819D01*
X69879123Y-85460269D01*
X69850000Y-85530578D01*
X69820877Y-85460269D01*
X69730372Y-85324819D01*
X69615181Y-85209628D01*
X69479731Y-85119123D01*
X69329227Y-85056782D01*
X69169452Y-85025000D01*
X69006548Y-85025000D01*
X68846773Y-85056782D01*
X68696269Y-85119123D01*
X68560819Y-85209628D01*
X68445628Y-85324819D01*
X68355123Y-85460269D01*
X68326000Y-85530578D01*
X68296877Y-85460269D01*
X68206372Y-85324819D01*
X68091181Y-85209628D01*
X67955731Y-85119123D01*
X67805227Y-85056782D01*
X67645452Y-85025000D01*
X67482548Y-85025000D01*
X67322773Y-85056782D01*
X67172269Y-85119123D01*
X67036819Y-85209628D01*
X66921628Y-85324819D01*
X66831123Y-85460269D01*
X66802000Y-85530578D01*
X66772877Y-85460269D01*
X66682372Y-85324819D01*
X66567181Y-85209628D01*
X66431731Y-85119123D01*
X66281227Y-85056782D01*
X66121452Y-85025000D01*
X65958548Y-85025000D01*
X65798773Y-85056782D01*
X65648269Y-85119123D01*
X65512819Y-85209628D01*
X65397628Y-85324819D01*
X65307123Y-85460269D01*
X65278000Y-85530578D01*
X65248877Y-85460269D01*
X65158372Y-85324819D01*
X65043181Y-85209628D01*
X64907731Y-85119123D01*
X64757227Y-85056782D01*
X64597452Y-85025000D01*
X64434548Y-85025000D01*
X64274773Y-85056782D01*
X64124269Y-85119123D01*
X63988819Y-85209628D01*
X63873628Y-85324819D01*
X63783123Y-85460269D01*
X63754000Y-85530578D01*
X63724877Y-85460269D01*
X63634372Y-85324819D01*
X63519181Y-85209628D01*
X63383731Y-85119123D01*
X63233227Y-85056782D01*
X63073452Y-85025000D01*
X62910548Y-85025000D01*
X62750773Y-85056782D01*
X62600269Y-85119123D01*
X62464819Y-85209628D01*
X62349628Y-85324819D01*
X62259123Y-85460269D01*
X62230000Y-85530578D01*
X62200877Y-85460269D01*
X62110372Y-85324819D01*
X61995181Y-85209628D01*
X61859731Y-85119123D01*
X61709227Y-85056782D01*
X61549452Y-85025000D01*
X61386548Y-85025000D01*
X61226773Y-85056782D01*
X61076269Y-85119123D01*
X60940819Y-85209628D01*
X60825628Y-85324819D01*
X60735123Y-85460269D01*
X60706000Y-85530578D01*
X60676877Y-85460269D01*
X60586372Y-85324819D01*
X60471181Y-85209628D01*
X60335731Y-85119123D01*
X60325000Y-85114678D01*
X60325000Y-83738548D01*
X60768000Y-83738548D01*
X60768000Y-83901452D01*
X60799782Y-84061227D01*
X60862123Y-84211731D01*
X60952628Y-84347181D01*
X61067819Y-84462372D01*
X61203269Y-84552877D01*
X61353773Y-84615218D01*
X61513548Y-84647000D01*
X61676452Y-84647000D01*
X61836227Y-84615218D01*
X61986731Y-84552877D01*
X62122181Y-84462372D01*
X62237372Y-84347181D01*
X62327877Y-84211731D01*
X62390218Y-84061227D01*
X62422000Y-83901452D01*
X62422000Y-83738548D01*
X64578000Y-83738548D01*
X64578000Y-83901452D01*
X64609782Y-84061227D01*
X64672123Y-84211731D01*
X64762628Y-84347181D01*
X64877819Y-84462372D01*
X65013269Y-84552877D01*
X65163773Y-84615218D01*
X65323548Y-84647000D01*
X65486452Y-84647000D01*
X65646227Y-84615218D01*
X65796731Y-84552877D01*
X65932181Y-84462372D01*
X66047372Y-84347181D01*
X66137877Y-84211731D01*
X66200218Y-84061227D01*
X66232000Y-83901452D01*
X66232000Y-83738548D01*
X68388000Y-83738548D01*
X68388000Y-83901452D01*
X68419782Y-84061227D01*
X68482123Y-84211731D01*
X68572628Y-84347181D01*
X68687819Y-84462372D01*
X68823269Y-84552877D01*
X68973773Y-84615218D01*
X69133548Y-84647000D01*
X69296452Y-84647000D01*
X69456227Y-84615218D01*
X69606731Y-84552877D01*
X69742181Y-84462372D01*
X69857372Y-84347181D01*
X69947877Y-84211731D01*
X70010218Y-84061227D01*
X70042000Y-83901452D01*
X70042000Y-83738548D01*
X70010218Y-83578773D01*
X69947877Y-83428269D01*
X69857372Y-83292819D01*
X69742181Y-83177628D01*
X69606731Y-83087123D01*
X69456227Y-83024782D01*
X69296452Y-82993000D01*
X69133548Y-82993000D01*
X68973773Y-83024782D01*
X68823269Y-83087123D01*
X68687819Y-83177628D01*
X68572628Y-83292819D01*
X68482123Y-83428269D01*
X68419782Y-83578773D01*
X68388000Y-83738548D01*
X66232000Y-83738548D01*
X66200218Y-83578773D01*
X66137877Y-83428269D01*
X66047372Y-83292819D01*
X65932181Y-83177628D01*
X65796731Y-83087123D01*
X65646227Y-83024782D01*
X65486452Y-82993000D01*
X65323548Y-82993000D01*
X65163773Y-83024782D01*
X65013269Y-83087123D01*
X64877819Y-83177628D01*
X64762628Y-83292819D01*
X64672123Y-83428269D01*
X64609782Y-83578773D01*
X64578000Y-83738548D01*
X62422000Y-83738548D01*
X62390218Y-83578773D01*
X62327877Y-83428269D01*
X62237372Y-83292819D01*
X62122181Y-83177628D01*
X61986731Y-83087123D01*
X61836227Y-83024782D01*
X61676452Y-82993000D01*
X61513548Y-82993000D01*
X61353773Y-83024782D01*
X61203269Y-83087123D01*
X61067819Y-83177628D01*
X60952628Y-83292819D01*
X60862123Y-83428269D01*
X60799782Y-83578773D01*
X60768000Y-83738548D01*
X60325000Y-83738548D01*
X60325000Y-79928548D01*
X60768000Y-79928548D01*
X60768000Y-80091452D01*
X60799782Y-80251227D01*
X60862123Y-80401731D01*
X60952628Y-80537181D01*
X61067819Y-80652372D01*
X61203269Y-80742877D01*
X61353773Y-80805218D01*
X61513548Y-80837000D01*
X61676452Y-80837000D01*
X61836227Y-80805218D01*
X61986731Y-80742877D01*
X62122181Y-80652372D01*
X62237372Y-80537181D01*
X62327877Y-80401731D01*
X62390218Y-80251227D01*
X62422000Y-80091452D01*
X62422000Y-79928548D01*
X64578000Y-79928548D01*
X64578000Y-80091452D01*
X64609782Y-80251227D01*
X64672123Y-80401731D01*
X64762628Y-80537181D01*
X64877819Y-80652372D01*
X65013269Y-80742877D01*
X65163773Y-80805218D01*
X65323548Y-80837000D01*
X65486452Y-80837000D01*
X65646227Y-80805218D01*
X65796731Y-80742877D01*
X65932181Y-80652372D01*
X66047372Y-80537181D01*
X66137877Y-80401731D01*
X66200218Y-80251227D01*
X66232000Y-80091452D01*
X66232000Y-79928548D01*
X68388000Y-79928548D01*
X68388000Y-80091452D01*
X68419782Y-80251227D01*
X68482123Y-80401731D01*
X68572628Y-80537181D01*
X68687819Y-80652372D01*
X68823269Y-80742877D01*
X68973773Y-80805218D01*
X69133548Y-80837000D01*
X69296452Y-80837000D01*
X69456227Y-80805218D01*
X69606731Y-80742877D01*
X69742181Y-80652372D01*
X69857372Y-80537181D01*
X69947877Y-80401731D01*
X70010218Y-80251227D01*
X70042000Y-80091452D01*
X70042000Y-79928548D01*
X72198000Y-79928548D01*
X72198000Y-80091452D01*
X72229782Y-80251227D01*
X72292123Y-80401731D01*
X72382628Y-80537181D01*
X72497819Y-80652372D01*
X72633269Y-80742877D01*
X72783773Y-80805218D01*
X72943548Y-80837000D01*
X73106452Y-80837000D01*
X73266227Y-80805218D01*
X73416731Y-80742877D01*
X73552181Y-80652372D01*
X73667372Y-80537181D01*
X73757877Y-80401731D01*
X73820218Y-80251227D01*
X73852000Y-80091452D01*
X73852000Y-79928548D01*
X73820218Y-79768773D01*
X73757877Y-79618269D01*
X73667372Y-79482819D01*
X73552181Y-79367628D01*
X73416731Y-79277123D01*
X73266227Y-79214782D01*
X73106452Y-79183000D01*
X72943548Y-79183000D01*
X72783773Y-79214782D01*
X72633269Y-79277123D01*
X72497819Y-79367628D01*
X72382628Y-79482819D01*
X72292123Y-79618269D01*
X72229782Y-79768773D01*
X72198000Y-79928548D01*
X70042000Y-79928548D01*
X70010218Y-79768773D01*
X69947877Y-79618269D01*
X69857372Y-79482819D01*
X69742181Y-79367628D01*
X69606731Y-79277123D01*
X69456227Y-79214782D01*
X69296452Y-79183000D01*
X69133548Y-79183000D01*
X68973773Y-79214782D01*
X68823269Y-79277123D01*
X68687819Y-79367628D01*
X68572628Y-79482819D01*
X68482123Y-79618269D01*
X68419782Y-79768773D01*
X68388000Y-79928548D01*
X66232000Y-79928548D01*
X66200218Y-79768773D01*
X66137877Y-79618269D01*
X66047372Y-79482819D01*
X65932181Y-79367628D01*
X65796731Y-79277123D01*
X65646227Y-79214782D01*
X65486452Y-79183000D01*
X65323548Y-79183000D01*
X65163773Y-79214782D01*
X65013269Y-79277123D01*
X64877819Y-79367628D01*
X64762628Y-79482819D01*
X64672123Y-79618269D01*
X64609782Y-79768773D01*
X64578000Y-79928548D01*
X62422000Y-79928548D01*
X62390218Y-79768773D01*
X62327877Y-79618269D01*
X62237372Y-79482819D01*
X62122181Y-79367628D01*
X61986731Y-79277123D01*
X61836227Y-79214782D01*
X61676452Y-79183000D01*
X61513548Y-79183000D01*
X61353773Y-79214782D01*
X61203269Y-79277123D01*
X61067819Y-79367628D01*
X60952628Y-79482819D01*
X60862123Y-79618269D01*
X60799782Y-79768773D01*
X60768000Y-79928548D01*
X60325000Y-79928548D01*
X60325000Y-76118548D01*
X60768000Y-76118548D01*
X60768000Y-76281452D01*
X60799782Y-76441227D01*
X60862123Y-76591731D01*
X60952628Y-76727181D01*
X61067819Y-76842372D01*
X61203269Y-76932877D01*
X61353773Y-76995218D01*
X61513548Y-77027000D01*
X61676452Y-77027000D01*
X61836227Y-76995218D01*
X61986731Y-76932877D01*
X62122181Y-76842372D01*
X62237372Y-76727181D01*
X62327877Y-76591731D01*
X62390218Y-76441227D01*
X62422000Y-76281452D01*
X62422000Y-76118548D01*
X64578000Y-76118548D01*
X64578000Y-76281452D01*
X64609782Y-76441227D01*
X64672123Y-76591731D01*
X64762628Y-76727181D01*
X64877819Y-76842372D01*
X65013269Y-76932877D01*
X65163773Y-76995218D01*
X65323548Y-77027000D01*
X65486452Y-77027000D01*
X65646227Y-76995218D01*
X65796731Y-76932877D01*
X65932181Y-76842372D01*
X66047372Y-76727181D01*
X66137877Y-76591731D01*
X66200218Y-76441227D01*
X66232000Y-76281452D01*
X66232000Y-76118548D01*
X68388000Y-76118548D01*
X68388000Y-76281452D01*
X68419782Y-76441227D01*
X68482123Y-76591731D01*
X68572628Y-76727181D01*
X68687819Y-76842372D01*
X68823269Y-76932877D01*
X68973773Y-76995218D01*
X69133548Y-77027000D01*
X69296452Y-77027000D01*
X69456227Y-76995218D01*
X69606731Y-76932877D01*
X69742181Y-76842372D01*
X69857372Y-76727181D01*
X69947877Y-76591731D01*
X70010218Y-76441227D01*
X70042000Y-76281452D01*
X70042000Y-76118548D01*
X72198000Y-76118548D01*
X72198000Y-76281452D01*
X72229782Y-76441227D01*
X72292123Y-76591731D01*
X72382628Y-76727181D01*
X72497819Y-76842372D01*
X72633269Y-76932877D01*
X72783773Y-76995218D01*
X72943548Y-77027000D01*
X73106452Y-77027000D01*
X73266227Y-76995218D01*
X73416731Y-76932877D01*
X73552181Y-76842372D01*
X73667372Y-76727181D01*
X73757877Y-76591731D01*
X73820218Y-76441227D01*
X73833879Y-76372548D01*
X88581000Y-76372548D01*
X88581000Y-76535452D01*
X88612782Y-76695227D01*
X88675123Y-76845731D01*
X88752812Y-76962000D01*
X88675123Y-77078269D01*
X88612782Y-77228773D01*
X88581000Y-77388548D01*
X88581000Y-77551452D01*
X88612782Y-77711227D01*
X88675123Y-77861731D01*
X88752812Y-77978000D01*
X88675123Y-78094269D01*
X88612782Y-78244773D01*
X88581000Y-78404548D01*
X88581000Y-78567452D01*
X88612782Y-78727227D01*
X88675123Y-78877731D01*
X88765628Y-79013181D01*
X88880819Y-79128372D01*
X89016269Y-79218877D01*
X89166773Y-79281218D01*
X89326548Y-79313000D01*
X89489452Y-79313000D01*
X89649227Y-79281218D01*
X89799731Y-79218877D01*
X89935181Y-79128372D01*
X90050372Y-79013181D01*
X90140877Y-78877731D01*
X90203218Y-78727227D01*
X90235000Y-78567452D01*
X90235000Y-78404548D01*
X90203218Y-78244773D01*
X90140877Y-78094269D01*
X90063188Y-77978000D01*
X90140877Y-77861731D01*
X90203218Y-77711227D01*
X90235000Y-77551452D01*
X90235000Y-77388548D01*
X90203218Y-77228773D01*
X90140877Y-77078269D01*
X90063188Y-76962000D01*
X90140877Y-76845731D01*
X90203218Y-76695227D01*
X90235000Y-76535452D01*
X90235000Y-76372548D01*
X90203218Y-76212773D01*
X90140877Y-76062269D01*
X90050372Y-75926819D01*
X89935181Y-75811628D01*
X89799731Y-75721123D01*
X89649227Y-75658782D01*
X89489452Y-75627000D01*
X89326548Y-75627000D01*
X89166773Y-75658782D01*
X89016269Y-75721123D01*
X88880819Y-75811628D01*
X88765628Y-75926819D01*
X88675123Y-76062269D01*
X88612782Y-76212773D01*
X88581000Y-76372548D01*
X73833879Y-76372548D01*
X73852000Y-76281452D01*
X73852000Y-76118548D01*
X73820218Y-75958773D01*
X73757877Y-75808269D01*
X73667372Y-75672819D01*
X73552181Y-75557628D01*
X73416731Y-75467123D01*
X73266227Y-75404782D01*
X73106452Y-75373000D01*
X72943548Y-75373000D01*
X72783773Y-75404782D01*
X72633269Y-75467123D01*
X72497819Y-75557628D01*
X72382628Y-75672819D01*
X72292123Y-75808269D01*
X72229782Y-75958773D01*
X72198000Y-76118548D01*
X70042000Y-76118548D01*
X70010218Y-75958773D01*
X69947877Y-75808269D01*
X69857372Y-75672819D01*
X69742181Y-75557628D01*
X69606731Y-75467123D01*
X69456227Y-75404782D01*
X69296452Y-75373000D01*
X69133548Y-75373000D01*
X68973773Y-75404782D01*
X68823269Y-75467123D01*
X68687819Y-75557628D01*
X68572628Y-75672819D01*
X68482123Y-75808269D01*
X68419782Y-75958773D01*
X68388000Y-76118548D01*
X66232000Y-76118548D01*
X66200218Y-75958773D01*
X66137877Y-75808269D01*
X66047372Y-75672819D01*
X65932181Y-75557628D01*
X65796731Y-75467123D01*
X65646227Y-75404782D01*
X65486452Y-75373000D01*
X65323548Y-75373000D01*
X65163773Y-75404782D01*
X65013269Y-75467123D01*
X64877819Y-75557628D01*
X64762628Y-75672819D01*
X64672123Y-75808269D01*
X64609782Y-75958773D01*
X64578000Y-76118548D01*
X62422000Y-76118548D01*
X62390218Y-75958773D01*
X62327877Y-75808269D01*
X62237372Y-75672819D01*
X62122181Y-75557628D01*
X61986731Y-75467123D01*
X61836227Y-75404782D01*
X61676452Y-75373000D01*
X61513548Y-75373000D01*
X61353773Y-75404782D01*
X61203269Y-75467123D01*
X61067819Y-75557628D01*
X60952628Y-75672819D01*
X60862123Y-75808269D01*
X60799782Y-75958773D01*
X60768000Y-76118548D01*
X60325000Y-76118548D01*
X60325000Y-72308548D01*
X60768000Y-72308548D01*
X60768000Y-72471452D01*
X60799782Y-72631227D01*
X60862123Y-72781731D01*
X60952628Y-72917181D01*
X61067819Y-73032372D01*
X61203269Y-73122877D01*
X61353773Y-73185218D01*
X61513548Y-73217000D01*
X61676452Y-73217000D01*
X61836227Y-73185218D01*
X61986731Y-73122877D01*
X62122181Y-73032372D01*
X62237372Y-72917181D01*
X62327877Y-72781731D01*
X62390218Y-72631227D01*
X62422000Y-72471452D01*
X62422000Y-72308548D01*
X64578000Y-72308548D01*
X64578000Y-72471452D01*
X64609782Y-72631227D01*
X64672123Y-72781731D01*
X64762628Y-72917181D01*
X64877819Y-73032372D01*
X65013269Y-73122877D01*
X65163773Y-73185218D01*
X65323548Y-73217000D01*
X65486452Y-73217000D01*
X65646227Y-73185218D01*
X65796731Y-73122877D01*
X65932181Y-73032372D01*
X66047372Y-72917181D01*
X66137877Y-72781731D01*
X66200218Y-72631227D01*
X66232000Y-72471452D01*
X66232000Y-72308548D01*
X68388000Y-72308548D01*
X68388000Y-72471452D01*
X68419782Y-72631227D01*
X68482123Y-72781731D01*
X68572628Y-72917181D01*
X68687819Y-73032372D01*
X68823269Y-73122877D01*
X68973773Y-73185218D01*
X69133548Y-73217000D01*
X69296452Y-73217000D01*
X69456227Y-73185218D01*
X69606731Y-73122877D01*
X69742181Y-73032372D01*
X69857372Y-72917181D01*
X69947877Y-72781731D01*
X70010218Y-72631227D01*
X70042000Y-72471452D01*
X70042000Y-72308548D01*
X72198000Y-72308548D01*
X72198000Y-72471452D01*
X72229782Y-72631227D01*
X72292123Y-72781731D01*
X72382628Y-72917181D01*
X72497819Y-73032372D01*
X72633269Y-73122877D01*
X72783773Y-73185218D01*
X72943548Y-73217000D01*
X73106452Y-73217000D01*
X73266227Y-73185218D01*
X73416731Y-73122877D01*
X73552181Y-73032372D01*
X73667372Y-72917181D01*
X73757877Y-72781731D01*
X73820218Y-72631227D01*
X73852000Y-72471452D01*
X73852000Y-72308548D01*
X73820218Y-72148773D01*
X73757877Y-71998269D01*
X73667372Y-71862819D01*
X73552181Y-71747628D01*
X73416731Y-71657123D01*
X73266227Y-71594782D01*
X73106452Y-71563000D01*
X72943548Y-71563000D01*
X72783773Y-71594782D01*
X72633269Y-71657123D01*
X72497819Y-71747628D01*
X72382628Y-71862819D01*
X72292123Y-71998269D01*
X72229782Y-72148773D01*
X72198000Y-72308548D01*
X70042000Y-72308548D01*
X70010218Y-72148773D01*
X69947877Y-71998269D01*
X69857372Y-71862819D01*
X69742181Y-71747628D01*
X69606731Y-71657123D01*
X69456227Y-71594782D01*
X69296452Y-71563000D01*
X69133548Y-71563000D01*
X68973773Y-71594782D01*
X68823269Y-71657123D01*
X68687819Y-71747628D01*
X68572628Y-71862819D01*
X68482123Y-71998269D01*
X68419782Y-72148773D01*
X68388000Y-72308548D01*
X66232000Y-72308548D01*
X66200218Y-72148773D01*
X66137877Y-71998269D01*
X66047372Y-71862819D01*
X65932181Y-71747628D01*
X65796731Y-71657123D01*
X65646227Y-71594782D01*
X65486452Y-71563000D01*
X65323548Y-71563000D01*
X65163773Y-71594782D01*
X65013269Y-71657123D01*
X64877819Y-71747628D01*
X64762628Y-71862819D01*
X64672123Y-71998269D01*
X64609782Y-72148773D01*
X64578000Y-72308548D01*
X62422000Y-72308548D01*
X62390218Y-72148773D01*
X62327877Y-71998269D01*
X62237372Y-71862819D01*
X62122181Y-71747628D01*
X61986731Y-71657123D01*
X61836227Y-71594782D01*
X61676452Y-71563000D01*
X61513548Y-71563000D01*
X61353773Y-71594782D01*
X61203269Y-71657123D01*
X61067819Y-71747628D01*
X60952628Y-71862819D01*
X60862123Y-71998269D01*
X60799782Y-72148773D01*
X60768000Y-72308548D01*
X60325000Y-72308548D01*
X60325000Y-69514548D01*
X81723000Y-69514548D01*
X81723000Y-69677452D01*
X81754782Y-69837227D01*
X81817123Y-69987731D01*
X81894812Y-70104000D01*
X81817123Y-70220269D01*
X81754782Y-70370773D01*
X81723000Y-70530548D01*
X81723000Y-70693452D01*
X81754782Y-70853227D01*
X81817123Y-71003731D01*
X81894812Y-71120000D01*
X81817123Y-71236269D01*
X81754782Y-71386773D01*
X81723000Y-71546548D01*
X81723000Y-71709452D01*
X81754782Y-71869227D01*
X81817123Y-72019731D01*
X81907628Y-72155181D01*
X82022819Y-72270372D01*
X82158269Y-72360877D01*
X82308773Y-72423218D01*
X82468548Y-72455000D01*
X82631452Y-72455000D01*
X82791227Y-72423218D01*
X82941731Y-72360877D01*
X83077181Y-72270372D01*
X83192372Y-72155181D01*
X83282877Y-72019731D01*
X83345218Y-71869227D01*
X83377000Y-71709452D01*
X83377000Y-71546548D01*
X83345218Y-71386773D01*
X83282877Y-71236269D01*
X83205188Y-71120000D01*
X83282877Y-71003731D01*
X83345218Y-70853227D01*
X83377000Y-70693452D01*
X83377000Y-70530548D01*
X83345218Y-70370773D01*
X83282877Y-70220269D01*
X83205188Y-70104000D01*
X83282877Y-69987731D01*
X83345218Y-69837227D01*
X83377000Y-69677452D01*
X83377000Y-69514548D01*
X83345218Y-69354773D01*
X83282877Y-69204269D01*
X83192372Y-69068819D01*
X83077181Y-68953628D01*
X82941731Y-68863123D01*
X82791227Y-68800782D01*
X82631452Y-68769000D01*
X82468548Y-68769000D01*
X82308773Y-68800782D01*
X82158269Y-68863123D01*
X82022819Y-68953628D01*
X81907628Y-69068819D01*
X81817123Y-69204269D01*
X81754782Y-69354773D01*
X81723000Y-69514548D01*
X60325000Y-69514548D01*
X60325000Y-67863548D01*
X60768000Y-67863548D01*
X60768000Y-68026452D01*
X60799782Y-68186227D01*
X60862123Y-68336731D01*
X60952628Y-68472181D01*
X61067819Y-68587372D01*
X61203269Y-68677877D01*
X61353773Y-68740218D01*
X61513548Y-68772000D01*
X61676452Y-68772000D01*
X61836227Y-68740218D01*
X61986731Y-68677877D01*
X62122181Y-68587372D01*
X62237372Y-68472181D01*
X62327877Y-68336731D01*
X62390218Y-68186227D01*
X62422000Y-68026452D01*
X62422000Y-67863548D01*
X64578000Y-67863548D01*
X64578000Y-68026452D01*
X64609782Y-68186227D01*
X64672123Y-68336731D01*
X64762628Y-68472181D01*
X64877819Y-68587372D01*
X65013269Y-68677877D01*
X65163773Y-68740218D01*
X65323548Y-68772000D01*
X65486452Y-68772000D01*
X65646227Y-68740218D01*
X65796731Y-68677877D01*
X65932181Y-68587372D01*
X66047372Y-68472181D01*
X66137877Y-68336731D01*
X66200218Y-68186227D01*
X66232000Y-68026452D01*
X66232000Y-67863548D01*
X68388000Y-67863548D01*
X68388000Y-68026452D01*
X68419782Y-68186227D01*
X68482123Y-68336731D01*
X68572628Y-68472181D01*
X68687819Y-68587372D01*
X68823269Y-68677877D01*
X68973773Y-68740218D01*
X69133548Y-68772000D01*
X69296452Y-68772000D01*
X69456227Y-68740218D01*
X69606731Y-68677877D01*
X69742181Y-68587372D01*
X69857372Y-68472181D01*
X69947877Y-68336731D01*
X70010218Y-68186227D01*
X70042000Y-68026452D01*
X70042000Y-67863548D01*
X72198000Y-67863548D01*
X72198000Y-68026452D01*
X72229782Y-68186227D01*
X72292123Y-68336731D01*
X72382628Y-68472181D01*
X72497819Y-68587372D01*
X72633269Y-68677877D01*
X72783773Y-68740218D01*
X72943548Y-68772000D01*
X73106452Y-68772000D01*
X73266227Y-68740218D01*
X73416731Y-68677877D01*
X73552181Y-68587372D01*
X73667372Y-68472181D01*
X73757877Y-68336731D01*
X73820218Y-68186227D01*
X73852000Y-68026452D01*
X73852000Y-67863548D01*
X73820218Y-67703773D01*
X73757877Y-67553269D01*
X73667372Y-67417819D01*
X73552181Y-67302628D01*
X73416731Y-67212123D01*
X73266227Y-67149782D01*
X73106452Y-67118000D01*
X72943548Y-67118000D01*
X72783773Y-67149782D01*
X72633269Y-67212123D01*
X72497819Y-67302628D01*
X72382628Y-67417819D01*
X72292123Y-67553269D01*
X72229782Y-67703773D01*
X72198000Y-67863548D01*
X70042000Y-67863548D01*
X70010218Y-67703773D01*
X69947877Y-67553269D01*
X69857372Y-67417819D01*
X69742181Y-67302628D01*
X69606731Y-67212123D01*
X69456227Y-67149782D01*
X69296452Y-67118000D01*
X69133548Y-67118000D01*
X68973773Y-67149782D01*
X68823269Y-67212123D01*
X68687819Y-67302628D01*
X68572628Y-67417819D01*
X68482123Y-67553269D01*
X68419782Y-67703773D01*
X68388000Y-67863548D01*
X66232000Y-67863548D01*
X66200218Y-67703773D01*
X66137877Y-67553269D01*
X66047372Y-67417819D01*
X65932181Y-67302628D01*
X65796731Y-67212123D01*
X65646227Y-67149782D01*
X65486452Y-67118000D01*
X65323548Y-67118000D01*
X65163773Y-67149782D01*
X65013269Y-67212123D01*
X64877819Y-67302628D01*
X64762628Y-67417819D01*
X64672123Y-67553269D01*
X64609782Y-67703773D01*
X64578000Y-67863548D01*
X62422000Y-67863548D01*
X62390218Y-67703773D01*
X62327877Y-67553269D01*
X62237372Y-67417819D01*
X62122181Y-67302628D01*
X61986731Y-67212123D01*
X61836227Y-67149782D01*
X61676452Y-67118000D01*
X61513548Y-67118000D01*
X61353773Y-67149782D01*
X61203269Y-67212123D01*
X61067819Y-67302628D01*
X60952628Y-67417819D01*
X60862123Y-67553269D01*
X60799782Y-67703773D01*
X60768000Y-67863548D01*
X60325000Y-67863548D01*
X60325000Y-63418548D01*
X60768000Y-63418548D01*
X60768000Y-63581452D01*
X60799782Y-63741227D01*
X60862123Y-63891731D01*
X60952628Y-64027181D01*
X61067819Y-64142372D01*
X61203269Y-64232877D01*
X61353773Y-64295218D01*
X61513548Y-64327000D01*
X61676452Y-64327000D01*
X61836227Y-64295218D01*
X61986731Y-64232877D01*
X62122181Y-64142372D01*
X62237372Y-64027181D01*
X62327877Y-63891731D01*
X62390218Y-63741227D01*
X62422000Y-63581452D01*
X62422000Y-63418548D01*
X64578000Y-63418548D01*
X64578000Y-63581452D01*
X64609782Y-63741227D01*
X64672123Y-63891731D01*
X64762628Y-64027181D01*
X64877819Y-64142372D01*
X65013269Y-64232877D01*
X65163773Y-64295218D01*
X65323548Y-64327000D01*
X65486452Y-64327000D01*
X65646227Y-64295218D01*
X65796731Y-64232877D01*
X65932181Y-64142372D01*
X66047372Y-64027181D01*
X66137877Y-63891731D01*
X66200218Y-63741227D01*
X66232000Y-63581452D01*
X66232000Y-63418548D01*
X68388000Y-63418548D01*
X68388000Y-63581452D01*
X68419782Y-63741227D01*
X68482123Y-63891731D01*
X68572628Y-64027181D01*
X68687819Y-64142372D01*
X68823269Y-64232877D01*
X68973773Y-64295218D01*
X69133548Y-64327000D01*
X69296452Y-64327000D01*
X69456227Y-64295218D01*
X69606731Y-64232877D01*
X69742181Y-64142372D01*
X69857372Y-64027181D01*
X69947877Y-63891731D01*
X70010218Y-63741227D01*
X70042000Y-63581452D01*
X70042000Y-63418548D01*
X72198000Y-63418548D01*
X72198000Y-63581452D01*
X72229782Y-63741227D01*
X72292123Y-63891731D01*
X72382628Y-64027181D01*
X72497819Y-64142372D01*
X72633269Y-64232877D01*
X72783773Y-64295218D01*
X72943548Y-64327000D01*
X73106452Y-64327000D01*
X73266227Y-64295218D01*
X73416731Y-64232877D01*
X73552181Y-64142372D01*
X73667372Y-64027181D01*
X73757877Y-63891731D01*
X73820218Y-63741227D01*
X73852000Y-63581452D01*
X73852000Y-63418548D01*
X73820218Y-63258773D01*
X73757877Y-63108269D01*
X73667372Y-62972819D01*
X73552181Y-62857628D01*
X73416731Y-62767123D01*
X73266227Y-62704782D01*
X73106452Y-62673000D01*
X72943548Y-62673000D01*
X72783773Y-62704782D01*
X72633269Y-62767123D01*
X72497819Y-62857628D01*
X72382628Y-62972819D01*
X72292123Y-63108269D01*
X72229782Y-63258773D01*
X72198000Y-63418548D01*
X70042000Y-63418548D01*
X70010218Y-63258773D01*
X69947877Y-63108269D01*
X69857372Y-62972819D01*
X69742181Y-62857628D01*
X69606731Y-62767123D01*
X69456227Y-62704782D01*
X69296452Y-62673000D01*
X69133548Y-62673000D01*
X68973773Y-62704782D01*
X68823269Y-62767123D01*
X68687819Y-62857628D01*
X68572628Y-62972819D01*
X68482123Y-63108269D01*
X68419782Y-63258773D01*
X68388000Y-63418548D01*
X66232000Y-63418548D01*
X66200218Y-63258773D01*
X66137877Y-63108269D01*
X66047372Y-62972819D01*
X65932181Y-62857628D01*
X65796731Y-62767123D01*
X65646227Y-62704782D01*
X65486452Y-62673000D01*
X65323548Y-62673000D01*
X65163773Y-62704782D01*
X65013269Y-62767123D01*
X64877819Y-62857628D01*
X64762628Y-62972819D01*
X64672123Y-63108269D01*
X64609782Y-63258773D01*
X64578000Y-63418548D01*
X62422000Y-63418548D01*
X62390218Y-63258773D01*
X62327877Y-63108269D01*
X62237372Y-62972819D01*
X62122181Y-62857628D01*
X61986731Y-62767123D01*
X61836227Y-62704782D01*
X61676452Y-62673000D01*
X61513548Y-62673000D01*
X61353773Y-62704782D01*
X61203269Y-62767123D01*
X61067819Y-62857628D01*
X60952628Y-62972819D01*
X60862123Y-63108269D01*
X60799782Y-63258773D01*
X60768000Y-63418548D01*
X60325000Y-63418548D01*
X60325000Y-59608548D01*
X60768000Y-59608548D01*
X60768000Y-59771452D01*
X60799782Y-59931227D01*
X60862123Y-60081731D01*
X60952628Y-60217181D01*
X61067819Y-60332372D01*
X61203269Y-60422877D01*
X61353773Y-60485218D01*
X61513548Y-60517000D01*
X61676452Y-60517000D01*
X61836227Y-60485218D01*
X61986731Y-60422877D01*
X62122181Y-60332372D01*
X62237372Y-60217181D01*
X62327877Y-60081731D01*
X62390218Y-59931227D01*
X62422000Y-59771452D01*
X62422000Y-59608548D01*
X64578000Y-59608548D01*
X64578000Y-59771452D01*
X64609782Y-59931227D01*
X64672123Y-60081731D01*
X64762628Y-60217181D01*
X64877819Y-60332372D01*
X65013269Y-60422877D01*
X65163773Y-60485218D01*
X65323548Y-60517000D01*
X65486452Y-60517000D01*
X65646227Y-60485218D01*
X65796731Y-60422877D01*
X65932181Y-60332372D01*
X66047372Y-60217181D01*
X66137877Y-60081731D01*
X66200218Y-59931227D01*
X66232000Y-59771452D01*
X66232000Y-59608548D01*
X68388000Y-59608548D01*
X68388000Y-59771452D01*
X68419782Y-59931227D01*
X68482123Y-60081731D01*
X68572628Y-60217181D01*
X68687819Y-60332372D01*
X68823269Y-60422877D01*
X68973773Y-60485218D01*
X69133548Y-60517000D01*
X69296452Y-60517000D01*
X69456227Y-60485218D01*
X69606731Y-60422877D01*
X69742181Y-60332372D01*
X69857372Y-60217181D01*
X69947877Y-60081731D01*
X70010218Y-59931227D01*
X70042000Y-59771452D01*
X70042000Y-59608548D01*
X72198000Y-59608548D01*
X72198000Y-59771452D01*
X72229782Y-59931227D01*
X72292123Y-60081731D01*
X72382628Y-60217181D01*
X72497819Y-60332372D01*
X72633269Y-60422877D01*
X72783773Y-60485218D01*
X72943548Y-60517000D01*
X73106452Y-60517000D01*
X73266227Y-60485218D01*
X73416731Y-60422877D01*
X73552181Y-60332372D01*
X73641005Y-60243548D01*
X75373000Y-60243548D01*
X75373000Y-60406452D01*
X75404782Y-60566227D01*
X75467123Y-60716731D01*
X75557628Y-60852181D01*
X75665447Y-60960000D01*
X75557628Y-61067819D01*
X75467123Y-61203269D01*
X75404782Y-61353773D01*
X75373000Y-61513548D01*
X75373000Y-61676452D01*
X75404782Y-61836227D01*
X75467123Y-61986731D01*
X75557628Y-62122181D01*
X75672819Y-62237372D01*
X75808269Y-62327877D01*
X75958773Y-62390218D01*
X76118548Y-62422000D01*
X76281452Y-62422000D01*
X76441227Y-62390218D01*
X76591731Y-62327877D01*
X76727181Y-62237372D01*
X76835000Y-62129553D01*
X76942819Y-62237372D01*
X77078269Y-62327877D01*
X77228773Y-62390218D01*
X77388548Y-62422000D01*
X77551452Y-62422000D01*
X77711227Y-62390218D01*
X77861731Y-62327877D01*
X77997181Y-62237372D01*
X78112372Y-62122181D01*
X78202877Y-61986731D01*
X78265218Y-61836227D01*
X78297000Y-61676452D01*
X78297000Y-61513548D01*
X78265218Y-61353773D01*
X78202877Y-61203269D01*
X78112372Y-61067819D01*
X78004553Y-60960000D01*
X78112372Y-60852181D01*
X78202877Y-60716731D01*
X78265218Y-60566227D01*
X78297000Y-60406452D01*
X78297000Y-60243548D01*
X78265218Y-60083773D01*
X78202877Y-59933269D01*
X78112372Y-59797819D01*
X77997181Y-59682628D01*
X77861731Y-59592123D01*
X77711227Y-59529782D01*
X77551452Y-59498000D01*
X77388548Y-59498000D01*
X77228773Y-59529782D01*
X77078269Y-59592123D01*
X76942819Y-59682628D01*
X76835000Y-59790447D01*
X76727181Y-59682628D01*
X76591731Y-59592123D01*
X76441227Y-59529782D01*
X76281452Y-59498000D01*
X76118548Y-59498000D01*
X75958773Y-59529782D01*
X75808269Y-59592123D01*
X75672819Y-59682628D01*
X75557628Y-59797819D01*
X75467123Y-59933269D01*
X75404782Y-60083773D01*
X75373000Y-60243548D01*
X73641005Y-60243548D01*
X73667372Y-60217181D01*
X73757877Y-60081731D01*
X73820218Y-59931227D01*
X73852000Y-59771452D01*
X73852000Y-59608548D01*
X73820218Y-59448773D01*
X73757877Y-59298269D01*
X73667372Y-59162819D01*
X73552181Y-59047628D01*
X73416731Y-58957123D01*
X73266227Y-58894782D01*
X73106452Y-58863000D01*
X72943548Y-58863000D01*
X72783773Y-58894782D01*
X72633269Y-58957123D01*
X72497819Y-59047628D01*
X72382628Y-59162819D01*
X72292123Y-59298269D01*
X72229782Y-59448773D01*
X72198000Y-59608548D01*
X70042000Y-59608548D01*
X70010218Y-59448773D01*
X69947877Y-59298269D01*
X69857372Y-59162819D01*
X69742181Y-59047628D01*
X69606731Y-58957123D01*
X69456227Y-58894782D01*
X69296452Y-58863000D01*
X69133548Y-58863000D01*
X68973773Y-58894782D01*
X68823269Y-58957123D01*
X68687819Y-59047628D01*
X68572628Y-59162819D01*
X68482123Y-59298269D01*
X68419782Y-59448773D01*
X68388000Y-59608548D01*
X66232000Y-59608548D01*
X66200218Y-59448773D01*
X66137877Y-59298269D01*
X66047372Y-59162819D01*
X65932181Y-59047628D01*
X65796731Y-58957123D01*
X65646227Y-58894782D01*
X65486452Y-58863000D01*
X65323548Y-58863000D01*
X65163773Y-58894782D01*
X65013269Y-58957123D01*
X64877819Y-59047628D01*
X64762628Y-59162819D01*
X64672123Y-59298269D01*
X64609782Y-59448773D01*
X64578000Y-59608548D01*
X62422000Y-59608548D01*
X62390218Y-59448773D01*
X62327877Y-59298269D01*
X62237372Y-59162819D01*
X62122181Y-59047628D01*
X61986731Y-58957123D01*
X61836227Y-58894782D01*
X61676452Y-58863000D01*
X61513548Y-58863000D01*
X61353773Y-58894782D01*
X61203269Y-58957123D01*
X61067819Y-59047628D01*
X60952628Y-59162819D01*
X60862123Y-59298269D01*
X60799782Y-59448773D01*
X60768000Y-59608548D01*
X60325000Y-59608548D01*
X60325000Y-57068548D01*
X75373000Y-57068548D01*
X75373000Y-57231452D01*
X75404782Y-57391227D01*
X75467123Y-57541731D01*
X75557628Y-57677181D01*
X75665447Y-57785000D01*
X75557628Y-57892819D01*
X75467123Y-58028269D01*
X75404782Y-58178773D01*
X75373000Y-58338548D01*
X75373000Y-58501452D01*
X75404782Y-58661227D01*
X75467123Y-58811731D01*
X75557628Y-58947181D01*
X75672819Y-59062372D01*
X75808269Y-59152877D01*
X75958773Y-59215218D01*
X76118548Y-59247000D01*
X76281452Y-59247000D01*
X76441227Y-59215218D01*
X76591731Y-59152877D01*
X76727181Y-59062372D01*
X76835000Y-58954553D01*
X76942819Y-59062372D01*
X77078269Y-59152877D01*
X77228773Y-59215218D01*
X77388548Y-59247000D01*
X77551452Y-59247000D01*
X77711227Y-59215218D01*
X77861731Y-59152877D01*
X77997181Y-59062372D01*
X78112372Y-58947181D01*
X78202877Y-58811731D01*
X78265218Y-58661227D01*
X78297000Y-58501452D01*
X78297000Y-58338548D01*
X78265218Y-58178773D01*
X78202877Y-58028269D01*
X78112372Y-57892819D01*
X78004553Y-57785000D01*
X78112372Y-57677181D01*
X78202877Y-57541731D01*
X78265218Y-57391227D01*
X78297000Y-57231452D01*
X78297000Y-57068548D01*
X78265218Y-56908773D01*
X78202877Y-56758269D01*
X78112372Y-56622819D01*
X77997181Y-56507628D01*
X77861731Y-56417123D01*
X77711227Y-56354782D01*
X77551452Y-56323000D01*
X77388548Y-56323000D01*
X77228773Y-56354782D01*
X77078269Y-56417123D01*
X76942819Y-56507628D01*
X76835000Y-56615447D01*
X76727181Y-56507628D01*
X76591731Y-56417123D01*
X76441227Y-56354782D01*
X76281452Y-56323000D01*
X76118548Y-56323000D01*
X75958773Y-56354782D01*
X75808269Y-56417123D01*
X75672819Y-56507628D01*
X75557628Y-56622819D01*
X75467123Y-56758269D01*
X75404782Y-56908773D01*
X75373000Y-57068548D01*
X60325000Y-57068548D01*
X60325000Y-55798548D01*
X60768000Y-55798548D01*
X60768000Y-55961452D01*
X60799782Y-56121227D01*
X60862123Y-56271731D01*
X60952628Y-56407181D01*
X61067819Y-56522372D01*
X61203269Y-56612877D01*
X61353773Y-56675218D01*
X61513548Y-56707000D01*
X61676452Y-56707000D01*
X61836227Y-56675218D01*
X61986731Y-56612877D01*
X62122181Y-56522372D01*
X62237372Y-56407181D01*
X62327877Y-56271731D01*
X62390218Y-56121227D01*
X62422000Y-55961452D01*
X62422000Y-55798548D01*
X64578000Y-55798548D01*
X64578000Y-55961452D01*
X64609782Y-56121227D01*
X64672123Y-56271731D01*
X64762628Y-56407181D01*
X64877819Y-56522372D01*
X65013269Y-56612877D01*
X65163773Y-56675218D01*
X65323548Y-56707000D01*
X65486452Y-56707000D01*
X65646227Y-56675218D01*
X65796731Y-56612877D01*
X65932181Y-56522372D01*
X66047372Y-56407181D01*
X66137877Y-56271731D01*
X66200218Y-56121227D01*
X66232000Y-55961452D01*
X66232000Y-55798548D01*
X68388000Y-55798548D01*
X68388000Y-55961452D01*
X68419782Y-56121227D01*
X68482123Y-56271731D01*
X68572628Y-56407181D01*
X68687819Y-56522372D01*
X68823269Y-56612877D01*
X68973773Y-56675218D01*
X69133548Y-56707000D01*
X69296452Y-56707000D01*
X69456227Y-56675218D01*
X69606731Y-56612877D01*
X69742181Y-56522372D01*
X69857372Y-56407181D01*
X69947877Y-56271731D01*
X70010218Y-56121227D01*
X70042000Y-55961452D01*
X70042000Y-55798548D01*
X72198000Y-55798548D01*
X72198000Y-55961452D01*
X72229782Y-56121227D01*
X72292123Y-56271731D01*
X72382628Y-56407181D01*
X72497819Y-56522372D01*
X72633269Y-56612877D01*
X72783773Y-56675218D01*
X72943548Y-56707000D01*
X73106452Y-56707000D01*
X73266227Y-56675218D01*
X73416731Y-56612877D01*
X73552181Y-56522372D01*
X73667372Y-56407181D01*
X73757877Y-56271731D01*
X73820218Y-56121227D01*
X73852000Y-55961452D01*
X73852000Y-55798548D01*
X110298000Y-55798548D01*
X110298000Y-55961452D01*
X110329782Y-56121227D01*
X110392123Y-56271731D01*
X110482628Y-56407181D01*
X110597819Y-56522372D01*
X110733269Y-56612877D01*
X110883773Y-56675218D01*
X111043548Y-56707000D01*
X111206452Y-56707000D01*
X111366227Y-56675218D01*
X111516731Y-56612877D01*
X111652181Y-56522372D01*
X111767372Y-56407181D01*
X111857877Y-56271731D01*
X111920218Y-56121227D01*
X111952000Y-55961452D01*
X111952000Y-55798548D01*
X111920218Y-55638773D01*
X111857877Y-55488269D01*
X111767372Y-55352819D01*
X111652181Y-55237628D01*
X111516731Y-55147123D01*
X111366227Y-55084782D01*
X111206452Y-55053000D01*
X111043548Y-55053000D01*
X110883773Y-55084782D01*
X110733269Y-55147123D01*
X110597819Y-55237628D01*
X110482628Y-55352819D01*
X110392123Y-55488269D01*
X110329782Y-55638773D01*
X110298000Y-55798548D01*
X73852000Y-55798548D01*
X73820218Y-55638773D01*
X73757877Y-55488269D01*
X73667372Y-55352819D01*
X73552181Y-55237628D01*
X73416731Y-55147123D01*
X73266227Y-55084782D01*
X73106452Y-55053000D01*
X72943548Y-55053000D01*
X72783773Y-55084782D01*
X72633269Y-55147123D01*
X72497819Y-55237628D01*
X72382628Y-55352819D01*
X72292123Y-55488269D01*
X72229782Y-55638773D01*
X72198000Y-55798548D01*
X70042000Y-55798548D01*
X70010218Y-55638773D01*
X69947877Y-55488269D01*
X69857372Y-55352819D01*
X69742181Y-55237628D01*
X69606731Y-55147123D01*
X69456227Y-55084782D01*
X69296452Y-55053000D01*
X69133548Y-55053000D01*
X68973773Y-55084782D01*
X68823269Y-55147123D01*
X68687819Y-55237628D01*
X68572628Y-55352819D01*
X68482123Y-55488269D01*
X68419782Y-55638773D01*
X68388000Y-55798548D01*
X66232000Y-55798548D01*
X66200218Y-55638773D01*
X66137877Y-55488269D01*
X66047372Y-55352819D01*
X65932181Y-55237628D01*
X65796731Y-55147123D01*
X65646227Y-55084782D01*
X65486452Y-55053000D01*
X65323548Y-55053000D01*
X65163773Y-55084782D01*
X65013269Y-55147123D01*
X64877819Y-55237628D01*
X64762628Y-55352819D01*
X64672123Y-55488269D01*
X64609782Y-55638773D01*
X64578000Y-55798548D01*
X62422000Y-55798548D01*
X62390218Y-55638773D01*
X62327877Y-55488269D01*
X62237372Y-55352819D01*
X62122181Y-55237628D01*
X61986731Y-55147123D01*
X61836227Y-55084782D01*
X61676452Y-55053000D01*
X61513548Y-55053000D01*
X61353773Y-55084782D01*
X61203269Y-55147123D01*
X61067819Y-55237628D01*
X60952628Y-55352819D01*
X60862123Y-55488269D01*
X60799782Y-55638773D01*
X60768000Y-55798548D01*
X60325000Y-55798548D01*
X60325000Y-54509553D01*
X60432819Y-54617372D01*
X60568269Y-54707877D01*
X60718773Y-54770218D01*
X60878548Y-54802000D01*
X61041452Y-54802000D01*
X61201227Y-54770218D01*
X61351731Y-54707877D01*
X61487181Y-54617372D01*
X61602372Y-54502181D01*
X61692877Y-54366731D01*
X61755218Y-54216227D01*
X61787000Y-54056452D01*
X61787000Y-53893548D01*
X61755218Y-53733773D01*
X61692877Y-53583269D01*
X61602372Y-53447819D01*
X61494553Y-53340000D01*
X61576005Y-53258548D01*
X65467000Y-53258548D01*
X65467000Y-53421452D01*
X65498782Y-53581227D01*
X65561123Y-53731731D01*
X65651628Y-53867181D01*
X65766819Y-53982372D01*
X65902269Y-54072877D01*
X66052773Y-54135218D01*
X66212548Y-54167000D01*
X66375452Y-54167000D01*
X66535227Y-54135218D01*
X66685731Y-54072877D01*
X66821181Y-53982372D01*
X66865500Y-53938053D01*
X66909819Y-53982372D01*
X67045269Y-54072877D01*
X67195773Y-54135218D01*
X67355548Y-54167000D01*
X67518452Y-54167000D01*
X67678227Y-54135218D01*
X67828731Y-54072877D01*
X67964181Y-53982372D01*
X68008500Y-53938053D01*
X68052819Y-53982372D01*
X68188269Y-54072877D01*
X68338773Y-54135218D01*
X68498548Y-54167000D01*
X68661452Y-54167000D01*
X68821227Y-54135218D01*
X68971731Y-54072877D01*
X69107181Y-53982372D01*
X69222372Y-53867181D01*
X69312877Y-53731731D01*
X69375218Y-53581227D01*
X69407000Y-53421452D01*
X69407000Y-53258548D01*
X69375218Y-53098773D01*
X69312877Y-52948269D01*
X69222372Y-52812819D01*
X69160101Y-52750548D01*
X91883000Y-52750548D01*
X91883000Y-52913452D01*
X91914782Y-53073227D01*
X91977123Y-53223731D01*
X92054812Y-53340000D01*
X91977123Y-53456269D01*
X91914782Y-53606773D01*
X91883000Y-53766548D01*
X91883000Y-53929452D01*
X91914782Y-54089227D01*
X91977123Y-54239731D01*
X92054812Y-54356000D01*
X91977123Y-54472269D01*
X91914782Y-54622773D01*
X91883000Y-54782548D01*
X91883000Y-54945452D01*
X91914782Y-55105227D01*
X91977123Y-55255731D01*
X92067628Y-55391181D01*
X92182819Y-55506372D01*
X92318269Y-55596877D01*
X92468773Y-55659218D01*
X92628548Y-55691000D01*
X92791452Y-55691000D01*
X92951227Y-55659218D01*
X93101731Y-55596877D01*
X93237181Y-55506372D01*
X93352372Y-55391181D01*
X93442877Y-55255731D01*
X93505218Y-55105227D01*
X93535500Y-54952993D01*
X93565782Y-55105227D01*
X93628123Y-55255731D01*
X93718628Y-55391181D01*
X93833819Y-55506372D01*
X93969269Y-55596877D01*
X94119773Y-55659218D01*
X94279548Y-55691000D01*
X94442452Y-55691000D01*
X94602227Y-55659218D01*
X94752731Y-55596877D01*
X94888181Y-55506372D01*
X95003372Y-55391181D01*
X95093877Y-55255731D01*
X95156218Y-55105227D01*
X95188000Y-54945452D01*
X95188000Y-54782548D01*
X95156218Y-54622773D01*
X95093877Y-54472269D01*
X95016188Y-54356000D01*
X95093877Y-54239731D01*
X95156218Y-54089227D01*
X95188000Y-53929452D01*
X95188000Y-53766548D01*
X95156218Y-53606773D01*
X95093877Y-53456269D01*
X95016188Y-53340000D01*
X95093877Y-53223731D01*
X95156218Y-53073227D01*
X95188000Y-52913452D01*
X95188000Y-52750548D01*
X95156218Y-52590773D01*
X95093877Y-52440269D01*
X95003372Y-52304819D01*
X94888181Y-52189628D01*
X94752731Y-52099123D01*
X94602227Y-52036782D01*
X94442452Y-52005000D01*
X94279548Y-52005000D01*
X94119773Y-52036782D01*
X93969269Y-52099123D01*
X93833819Y-52189628D01*
X93718628Y-52304819D01*
X93628123Y-52440269D01*
X93565782Y-52590773D01*
X93535500Y-52743007D01*
X93505218Y-52590773D01*
X93442877Y-52440269D01*
X93352372Y-52304819D01*
X93237181Y-52189628D01*
X93101731Y-52099123D01*
X92951227Y-52036782D01*
X92791452Y-52005000D01*
X92628548Y-52005000D01*
X92468773Y-52036782D01*
X92318269Y-52099123D01*
X92182819Y-52189628D01*
X92067628Y-52304819D01*
X91977123Y-52440269D01*
X91914782Y-52590773D01*
X91883000Y-52750548D01*
X69160101Y-52750548D01*
X69107181Y-52697628D01*
X68971731Y-52607123D01*
X68821227Y-52544782D01*
X68661452Y-52513000D01*
X68498548Y-52513000D01*
X68338773Y-52544782D01*
X68188269Y-52607123D01*
X68052819Y-52697628D01*
X68008500Y-52741947D01*
X67964181Y-52697628D01*
X67828731Y-52607123D01*
X67678227Y-52544782D01*
X67518452Y-52513000D01*
X67355548Y-52513000D01*
X67195773Y-52544782D01*
X67045269Y-52607123D01*
X66909819Y-52697628D01*
X66865500Y-52741947D01*
X66821181Y-52697628D01*
X66685731Y-52607123D01*
X66535227Y-52544782D01*
X66375452Y-52513000D01*
X66212548Y-52513000D01*
X66052773Y-52544782D01*
X65902269Y-52607123D01*
X65766819Y-52697628D01*
X65651628Y-52812819D01*
X65561123Y-52948269D01*
X65498782Y-53098773D01*
X65467000Y-53258548D01*
X61576005Y-53258548D01*
X61602372Y-53232181D01*
X61692877Y-53096731D01*
X61755218Y-52946227D01*
X61787000Y-52786452D01*
X61787000Y-52623548D01*
X61755218Y-52463773D01*
X61692877Y-52313269D01*
X61602372Y-52177819D01*
X61487181Y-52062628D01*
X61388962Y-51997000D01*
X61401726Y-51997000D01*
X61589336Y-51978522D01*
X61830051Y-51905502D01*
X62051896Y-51786924D01*
X62246344Y-51627344D01*
X62405924Y-51432896D01*
X62524502Y-51211051D01*
X62597522Y-50970336D01*
X62622178Y-50720000D01*
X62597522Y-50469664D01*
X62524502Y-50228949D01*
X62405924Y-50007104D01*
X62246344Y-49812656D01*
X62051896Y-49653076D01*
X61830051Y-49534498D01*
X61617429Y-49470000D01*
X61830051Y-49405502D01*
X62051896Y-49286924D01*
X62246344Y-49127344D01*
X62405924Y-48932896D01*
X62524502Y-48711051D01*
X62597522Y-48470336D01*
X62605730Y-48387000D01*
X65504073Y-48387000D01*
X65561123Y-48524731D01*
G37*
X65561123Y-48524731D02*
X65651628Y-48660181D01*
X65766819Y-48775372D01*
X65902269Y-48865877D01*
X66052773Y-48928218D01*
X66212548Y-48960000D01*
X66375452Y-48960000D01*
X66535227Y-48928218D01*
X66685731Y-48865877D01*
X66821181Y-48775372D01*
X66865500Y-48731053D01*
X66909819Y-48775372D01*
X67045269Y-48865877D01*
X67195773Y-48928218D01*
X67355548Y-48960000D01*
X67518452Y-48960000D01*
X67678227Y-48928218D01*
X67828731Y-48865877D01*
X67964181Y-48775372D01*
X68008500Y-48731053D01*
X68052819Y-48775372D01*
X68188269Y-48865877D01*
X68338773Y-48928218D01*
X68498548Y-48960000D01*
X68661452Y-48960000D01*
X68821227Y-48928218D01*
X68971731Y-48865877D01*
X69107181Y-48775372D01*
X69222372Y-48660181D01*
X69312877Y-48524731D01*
X69369927Y-48387000D01*
X73604060Y-48387000D01*
X73626782Y-48501227D01*
X73689123Y-48651731D01*
X73779628Y-48787181D01*
X73894819Y-48902372D01*
X74030269Y-48992877D01*
X74180773Y-49055218D01*
X74340548Y-49087000D01*
X74503452Y-49087000D01*
X74663227Y-49055218D01*
X74813731Y-48992877D01*
X74930000Y-48915188D01*
X75046269Y-48992877D01*
X75196773Y-49055218D01*
X75356548Y-49087000D01*
X75519452Y-49087000D01*
X75679227Y-49055218D01*
X75829731Y-48992877D01*
X75965181Y-48902372D01*
X76080372Y-48787181D01*
X76170877Y-48651731D01*
X76233218Y-48501227D01*
X76255940Y-48387000D01*
X86431060Y-48387000D01*
X86453782Y-48501227D01*
X86516123Y-48651731D01*
X86606628Y-48787181D01*
X86721819Y-48902372D01*
X86857269Y-48992877D01*
X87007773Y-49055218D01*
X87167548Y-49087000D01*
X87330452Y-49087000D01*
X87490227Y-49055218D01*
X87518825Y-49043372D01*
X87469782Y-49161773D01*
X87438000Y-49321548D01*
X87438000Y-49484452D01*
X87469782Y-49644227D01*
X87532123Y-49794731D01*
X87622628Y-49930181D01*
X87737819Y-50045372D01*
X87873269Y-50135877D01*
X88023773Y-50198218D01*
X88183548Y-50230000D01*
X88346452Y-50230000D01*
X88506227Y-50198218D01*
X88656731Y-50135877D01*
X88792181Y-50045372D01*
X88900000Y-49937553D01*
X89007819Y-50045372D01*
X89143269Y-50135877D01*
X89293773Y-50198218D01*
X89453548Y-50230000D01*
X89616452Y-50230000D01*
X89776227Y-50198218D01*
X89926731Y-50135877D01*
X90062181Y-50045372D01*
X90177372Y-49930181D01*
X90267877Y-49794731D01*
X90330218Y-49644227D01*
X90362000Y-49484452D01*
X90362000Y-49321548D01*
X90330218Y-49161773D01*
X90281175Y-49043372D01*
X90309773Y-49055218D01*
X90469548Y-49087000D01*
X90632452Y-49087000D01*
X90792227Y-49055218D01*
X90942731Y-48992877D01*
X91078181Y-48902372D01*
X91193372Y-48787181D01*
X91283877Y-48651731D01*
X91346218Y-48501227D01*
X91368940Y-48387000D01*
X95067060Y-48387000D01*
X95089782Y-48501227D01*
X95152123Y-48651731D01*
X95242628Y-48787181D01*
X95357819Y-48902372D01*
X95493269Y-48992877D01*
X95643773Y-49055218D01*
X95803548Y-49087000D01*
X95966452Y-49087000D01*
X96126227Y-49055218D01*
X96276731Y-48992877D01*
X96412181Y-48902372D01*
X96520000Y-48794553D01*
X96627819Y-48902372D01*
X96763269Y-48992877D01*
X96913773Y-49055218D01*
X97073548Y-49087000D01*
X97236452Y-49087000D01*
X97396227Y-49055218D01*
X97546731Y-48992877D01*
X97682181Y-48902372D01*
X97797372Y-48787181D01*
X97887877Y-48651731D01*
X97950218Y-48501227D01*
X97972940Y-48387000D01*
X115951000Y-48387000D01*
X115951000Y-57912000D01*
X102255188Y-57912000D01*
X102242372Y-57892819D01*
X102127181Y-57777628D01*
X101991731Y-57687123D01*
X101841227Y-57624782D01*
X101681452Y-57593000D01*
X101518548Y-57593000D01*
X101358773Y-57624782D01*
X101208269Y-57687123D01*
X101072819Y-57777628D01*
X100965000Y-57885447D01*
X100857181Y-57777628D01*
X100721731Y-57687123D01*
X100571227Y-57624782D01*
X100411452Y-57593000D01*
X100248548Y-57593000D01*
X100088773Y-57624782D01*
X99938269Y-57687123D01*
X99802819Y-57777628D01*
X99687628Y-57892819D01*
X99674812Y-57912000D01*
X99080188Y-57912000D01*
X99067372Y-57892819D01*
X98952181Y-57777628D01*
X98816731Y-57687123D01*
X98666227Y-57624782D01*
X98506452Y-57593000D01*
X98343548Y-57593000D01*
X98183773Y-57624782D01*
X98033269Y-57687123D01*
X97897819Y-57777628D01*
X97790000Y-57885447D01*
X97682181Y-57777628D01*
X97546731Y-57687123D01*
X97396227Y-57624782D01*
X97236452Y-57593000D01*
X97073548Y-57593000D01*
X96913773Y-57624782D01*
X96763269Y-57687123D01*
X96627819Y-57777628D01*
X96512628Y-57892819D01*
X96499812Y-57912000D01*
X93980000Y-57912000D01*
X93955224Y-57914440D01*
X93931399Y-57921667D01*
X93909443Y-57933403D01*
X93892799Y-57946669D01*
X91606799Y-60105669D01*
X91590462Y-60124456D01*
X91578103Y-60146068D01*
X91570199Y-60169676D01*
X91567000Y-60198000D01*
X91567000Y-86360000D01*
X91569440Y-86384776D01*
X91576667Y-86408601D01*
X91588403Y-86430557D01*
X91604197Y-86449803D01*
X94017197Y-88862803D01*
X94036443Y-88878597D01*
X94058399Y-88890333D01*
X94082224Y-88897560D01*
X94107000Y-88900000D01*
X102048915Y-88900000D01*
X104013000Y-91232351D01*
X104013000Y-91753578D01*
X103979782Y-91833773D01*
X103948000Y-91993548D01*
X103948000Y-92156452D01*
X103979782Y-92316227D01*
X104013000Y-92396422D01*
X104013000Y-99512060D01*
X103898773Y-99534782D01*
X103748269Y-99597123D01*
X103612819Y-99687628D01*
X103497628Y-99802819D01*
X103407123Y-99938269D01*
X103344782Y-100088773D01*
X103313000Y-100248548D01*
X103313000Y-100266380D01*
X103261731Y-100232123D01*
X103111227Y-100169782D01*
X102951452Y-100138000D01*
X102788548Y-100138000D01*
X102628773Y-100169782D01*
X102478269Y-100232123D01*
X102342819Y-100322628D01*
X102235000Y-100430447D01*
X102127181Y-100322628D01*
X101991731Y-100232123D01*
X101841227Y-100169782D01*
X101681452Y-100138000D01*
X101518548Y-100138000D01*
X101358773Y-100169782D01*
X101208269Y-100232123D01*
X101072819Y-100322628D01*
X100957628Y-100437819D01*
X100867123Y-100573269D01*
X100804782Y-100723773D01*
X100773000Y-100883548D01*
X100773000Y-101046452D01*
X100804782Y-101206227D01*
X100810073Y-101219000D01*
X61079576Y-101219000D01*
X61272617Y-100752957D01*
X61412000Y-100052228D01*
X61412000Y-99613548D01*
X64578000Y-99613548D01*
X64578000Y-99776452D01*
X64609782Y-99936227D01*
X64672123Y-100086731D01*
X64762628Y-100222181D01*
X64877819Y-100337372D01*
X65013269Y-100427877D01*
X65163773Y-100490218D01*
X65323548Y-100522000D01*
X65486452Y-100522000D01*
X65646227Y-100490218D01*
X65796731Y-100427877D01*
X65932181Y-100337372D01*
X66047372Y-100222181D01*
X66137877Y-100086731D01*
X66200218Y-99936227D01*
X66232000Y-99776452D01*
X66232000Y-99613548D01*
X68388000Y-99613548D01*
X68388000Y-99776452D01*
X68419782Y-99936227D01*
X68482123Y-100086731D01*
X68572628Y-100222181D01*
X68687819Y-100337372D01*
X68823269Y-100427877D01*
X68973773Y-100490218D01*
X69133548Y-100522000D01*
X69296452Y-100522000D01*
X69456227Y-100490218D01*
X69606731Y-100427877D01*
X69742181Y-100337372D01*
X69857372Y-100222181D01*
X69947877Y-100086731D01*
X70010218Y-99936227D01*
X70042000Y-99776452D01*
X70042000Y-99613548D01*
X72198000Y-99613548D01*
X72198000Y-99776452D01*
X72229782Y-99936227D01*
X72292123Y-100086731D01*
X72382628Y-100222181D01*
X72497819Y-100337372D01*
X72633269Y-100427877D01*
X72783773Y-100490218D01*
X72943548Y-100522000D01*
X73106452Y-100522000D01*
X73266227Y-100490218D01*
X73416731Y-100427877D01*
X73552181Y-100337372D01*
X73667372Y-100222181D01*
X73757877Y-100086731D01*
X73820218Y-99936227D01*
X73852000Y-99776452D01*
X73852000Y-99613548D01*
X76008000Y-99613548D01*
X76008000Y-99776452D01*
X76039782Y-99936227D01*
X76102123Y-100086731D01*
X76192628Y-100222181D01*
X76307819Y-100337372D01*
X76443269Y-100427877D01*
X76593773Y-100490218D01*
X76753548Y-100522000D01*
X76916452Y-100522000D01*
X77076227Y-100490218D01*
X77226731Y-100427877D01*
X77362181Y-100337372D01*
X77477372Y-100222181D01*
X77567877Y-100086731D01*
X77630218Y-99936227D01*
X77662000Y-99776452D01*
X77662000Y-99613548D01*
X79818000Y-99613548D01*
X79818000Y-99776452D01*
X79849782Y-99936227D01*
X79912123Y-100086731D01*
X80002628Y-100222181D01*
X80117819Y-100337372D01*
X80253269Y-100427877D01*
X80403773Y-100490218D01*
X80563548Y-100522000D01*
X80726452Y-100522000D01*
X80886227Y-100490218D01*
X81036731Y-100427877D01*
X81172181Y-100337372D01*
X81287372Y-100222181D01*
X81377877Y-100086731D01*
X81440218Y-99936227D01*
X81472000Y-99776452D01*
X81472000Y-99613548D01*
X83628000Y-99613548D01*
X83628000Y-99776452D01*
X83659782Y-99936227D01*
X83722123Y-100086731D01*
X83812628Y-100222181D01*
X83927819Y-100337372D01*
X84063269Y-100427877D01*
X84213773Y-100490218D01*
X84373548Y-100522000D01*
X84536452Y-100522000D01*
X84696227Y-100490218D01*
X84846731Y-100427877D01*
X84982181Y-100337372D01*
X85097372Y-100222181D01*
X85187877Y-100086731D01*
X85250218Y-99936227D01*
X85282000Y-99776452D01*
X85282000Y-99613548D01*
X87438000Y-99613548D01*
X87438000Y-99776452D01*
X87469782Y-99936227D01*
X87532123Y-100086731D01*
X87622628Y-100222181D01*
X87737819Y-100337372D01*
X87873269Y-100427877D01*
X88023773Y-100490218D01*
X88183548Y-100522000D01*
X88346452Y-100522000D01*
X88506227Y-100490218D01*
X88656731Y-100427877D01*
X88792181Y-100337372D01*
X88907372Y-100222181D01*
X88997877Y-100086731D01*
X89060218Y-99936227D01*
X89092000Y-99776452D01*
X89092000Y-99613548D01*
X89060218Y-99453773D01*
X88997877Y-99303269D01*
X88907372Y-99167819D01*
X88792181Y-99052628D01*
X88656731Y-98962123D01*
X88506227Y-98899782D01*
X88346452Y-98868000D01*
X88183548Y-98868000D01*
X88023773Y-98899782D01*
X87873269Y-98962123D01*
X87737819Y-99052628D01*
X87622628Y-99167819D01*
X87532123Y-99303269D01*
X87469782Y-99453773D01*
X87438000Y-99613548D01*
X85282000Y-99613548D01*
X85250218Y-99453773D01*
X85187877Y-99303269D01*
X85097372Y-99167819D01*
X84982181Y-99052628D01*
X84846731Y-98962123D01*
X84696227Y-98899782D01*
X84536452Y-98868000D01*
X84373548Y-98868000D01*
X84213773Y-98899782D01*
X84063269Y-98962123D01*
X83927819Y-99052628D01*
X83812628Y-99167819D01*
X83722123Y-99303269D01*
X83659782Y-99453773D01*
X83628000Y-99613548D01*
X81472000Y-99613548D01*
X81440218Y-99453773D01*
X81377877Y-99303269D01*
X81287372Y-99167819D01*
X81172181Y-99052628D01*
X81036731Y-98962123D01*
X80886227Y-98899782D01*
X80726452Y-98868000D01*
X80563548Y-98868000D01*
X80403773Y-98899782D01*
X80253269Y-98962123D01*
X80117819Y-99052628D01*
X80002628Y-99167819D01*
X79912123Y-99303269D01*
X79849782Y-99453773D01*
X79818000Y-99613548D01*
X77662000Y-99613548D01*
X77630218Y-99453773D01*
X77567877Y-99303269D01*
X77477372Y-99167819D01*
X77362181Y-99052628D01*
X77226731Y-98962123D01*
X77076227Y-98899782D01*
X76916452Y-98868000D01*
X76753548Y-98868000D01*
X76593773Y-98899782D01*
X76443269Y-98962123D01*
X76307819Y-99052628D01*
X76192628Y-99167819D01*
X76102123Y-99303269D01*
X76039782Y-99453773D01*
X76008000Y-99613548D01*
X73852000Y-99613548D01*
X73820218Y-99453773D01*
X73757877Y-99303269D01*
X73667372Y-99167819D01*
X73552181Y-99052628D01*
X73416731Y-98962123D01*
X73266227Y-98899782D01*
X73106452Y-98868000D01*
X72943548Y-98868000D01*
X72783773Y-98899782D01*
X72633269Y-98962123D01*
X72497819Y-99052628D01*
X72382628Y-99167819D01*
X72292123Y-99303269D01*
X72229782Y-99453773D01*
X72198000Y-99613548D01*
X70042000Y-99613548D01*
X70010218Y-99453773D01*
X69947877Y-99303269D01*
X69857372Y-99167819D01*
X69742181Y-99052628D01*
X69606731Y-98962123D01*
X69456227Y-98899782D01*
X69296452Y-98868000D01*
X69133548Y-98868000D01*
X68973773Y-98899782D01*
X68823269Y-98962123D01*
X68687819Y-99052628D01*
X68572628Y-99167819D01*
X68482123Y-99303269D01*
X68419782Y-99453773D01*
X68388000Y-99613548D01*
X66232000Y-99613548D01*
X66200218Y-99453773D01*
X66137877Y-99303269D01*
X66047372Y-99167819D01*
X65932181Y-99052628D01*
X65796731Y-98962123D01*
X65646227Y-98899782D01*
X65486452Y-98868000D01*
X65323548Y-98868000D01*
X65163773Y-98899782D01*
X65013269Y-98962123D01*
X64877819Y-99052628D01*
X64762628Y-99167819D01*
X64672123Y-99303269D01*
X64609782Y-99453773D01*
X64578000Y-99613548D01*
X61412000Y-99613548D01*
X61412000Y-99337772D01*
X61290023Y-98724548D01*
X91248000Y-98724548D01*
X91248000Y-98887452D01*
X91279782Y-99047227D01*
X91342123Y-99197731D01*
X91432628Y-99333181D01*
X91540447Y-99441000D01*
X91432628Y-99548819D01*
X91342123Y-99684269D01*
X91279782Y-99834773D01*
X91248000Y-99994548D01*
X91248000Y-100157452D01*
X91279782Y-100317227D01*
X91342123Y-100467731D01*
X91432628Y-100603181D01*
X91547819Y-100718372D01*
X91683269Y-100808877D01*
X91833773Y-100871218D01*
X91993548Y-100903000D01*
X92156452Y-100903000D01*
X92316227Y-100871218D01*
X92466731Y-100808877D01*
X92602181Y-100718372D01*
X92710000Y-100610553D01*
X92817819Y-100718372D01*
X92953269Y-100808877D01*
X93103773Y-100871218D01*
X93263548Y-100903000D01*
X93426452Y-100903000D01*
X93586227Y-100871218D01*
X93736731Y-100808877D01*
X93872181Y-100718372D01*
X93987372Y-100603181D01*
X94077877Y-100467731D01*
X94140218Y-100317227D01*
X94172000Y-100157452D01*
X94172000Y-99994548D01*
X94140218Y-99834773D01*
X94077877Y-99684269D01*
X93987372Y-99548819D01*
X93879553Y-99441000D01*
X93987372Y-99333181D01*
X94077877Y-99197731D01*
X94140218Y-99047227D01*
X94172000Y-98887452D01*
X94172000Y-98724548D01*
X94140218Y-98564773D01*
X94077877Y-98414269D01*
X93987372Y-98278819D01*
X93872181Y-98163628D01*
X93736731Y-98073123D01*
X93586227Y-98010782D01*
X93426452Y-97979000D01*
X93263548Y-97979000D01*
X93103773Y-98010782D01*
X92953269Y-98073123D01*
X92817819Y-98163628D01*
X92710000Y-98271447D01*
X92602181Y-98163628D01*
X92466731Y-98073123D01*
X92316227Y-98010782D01*
X92156452Y-97979000D01*
X91993548Y-97979000D01*
X91833773Y-98010782D01*
X91683269Y-98073123D01*
X91547819Y-98163628D01*
X91432628Y-98278819D01*
X91342123Y-98414269D01*
X91279782Y-98564773D01*
X91248000Y-98724548D01*
X61290023Y-98724548D01*
X61272617Y-98637043D01*
X60999206Y-97976971D01*
X60602275Y-97382922D01*
X60325000Y-97105647D01*
X60325000Y-96946548D01*
X83501000Y-96946548D01*
X83501000Y-97109452D01*
X83532782Y-97269227D01*
X83595123Y-97419731D01*
X83685628Y-97555181D01*
X83800819Y-97670372D01*
X83936269Y-97760877D01*
X84086773Y-97823218D01*
X84246548Y-97855000D01*
X84409452Y-97855000D01*
X84569227Y-97823218D01*
X84719731Y-97760877D01*
X84855181Y-97670372D01*
X84970372Y-97555181D01*
X85060877Y-97419731D01*
X85123218Y-97269227D01*
X85155000Y-97109452D01*
X85155000Y-96946548D01*
X86041000Y-96946548D01*
X86041000Y-97109452D01*
X86072782Y-97269227D01*
X86135123Y-97419731D01*
X86225628Y-97555181D01*
X86340819Y-97670372D01*
X86476269Y-97760877D01*
X86626773Y-97823218D01*
X86786548Y-97855000D01*
X86949452Y-97855000D01*
X87109227Y-97823218D01*
X87259731Y-97760877D01*
X87395181Y-97670372D01*
X87510372Y-97555181D01*
X87577612Y-97454548D01*
X97725000Y-97454548D01*
X97725000Y-97617452D01*
X97756782Y-97777227D01*
X97819123Y-97927731D01*
X97909628Y-98063181D01*
X98024819Y-98178372D01*
X98160269Y-98268877D01*
X98310773Y-98331218D01*
X98470548Y-98363000D01*
X98633452Y-98363000D01*
X98793227Y-98331218D01*
X98943731Y-98268877D01*
X99079181Y-98178372D01*
X99194372Y-98063181D01*
X99284877Y-97927731D01*
X99347218Y-97777227D01*
X99379000Y-97617452D01*
X99379000Y-97454548D01*
X99347218Y-97294773D01*
X99284877Y-97144269D01*
X99194372Y-97008819D01*
X99079181Y-96893628D01*
X98943731Y-96803123D01*
X98793227Y-96740782D01*
X98633452Y-96709000D01*
X98470548Y-96709000D01*
X98310773Y-96740782D01*
X98160269Y-96803123D01*
X98024819Y-96893628D01*
X97909628Y-97008819D01*
X97819123Y-97144269D01*
X97756782Y-97294773D01*
X97725000Y-97454548D01*
X87577612Y-97454548D01*
X87600877Y-97419731D01*
X87663218Y-97269227D01*
X87695000Y-97109452D01*
X87695000Y-96946548D01*
X87663218Y-96786773D01*
X87600877Y-96636269D01*
X87510372Y-96500819D01*
X87395181Y-96385628D01*
X87259731Y-96295123D01*
X87109227Y-96232782D01*
X86949452Y-96201000D01*
X86786548Y-96201000D01*
X86626773Y-96232782D01*
X86476269Y-96295123D01*
X86340819Y-96385628D01*
X86225628Y-96500819D01*
X86135123Y-96636269D01*
X86072782Y-96786773D01*
X86041000Y-96946548D01*
X85155000Y-96946548D01*
X85123218Y-96786773D01*
X85060877Y-96636269D01*
X84970372Y-96500819D01*
X84855181Y-96385628D01*
X84719731Y-96295123D01*
X84569227Y-96232782D01*
X84409452Y-96201000D01*
X84246548Y-96201000D01*
X84086773Y-96232782D01*
X83936269Y-96295123D01*
X83800819Y-96385628D01*
X83685628Y-96500819D01*
X83595123Y-96636269D01*
X83532782Y-96786773D01*
X83501000Y-96946548D01*
X60325000Y-96946548D01*
X60325000Y-95803548D01*
X60768000Y-95803548D01*
X60768000Y-95966452D01*
X60799782Y-96126227D01*
X60862123Y-96276731D01*
X60952628Y-96412181D01*
X61067819Y-96527372D01*
X61203269Y-96617877D01*
X61353773Y-96680218D01*
X61513548Y-96712000D01*
X61676452Y-96712000D01*
X61836227Y-96680218D01*
X61986731Y-96617877D01*
X62122181Y-96527372D01*
X62237372Y-96412181D01*
X62327877Y-96276731D01*
X62390218Y-96126227D01*
X62422000Y-95966452D01*
X62422000Y-95803548D01*
X64578000Y-95803548D01*
X64578000Y-95966452D01*
X64609782Y-96126227D01*
X64672123Y-96276731D01*
X64762628Y-96412181D01*
X64877819Y-96527372D01*
X65013269Y-96617877D01*
X65163773Y-96680218D01*
X65323548Y-96712000D01*
X65486452Y-96712000D01*
X65646227Y-96680218D01*
X65796731Y-96617877D01*
X65932181Y-96527372D01*
X66047372Y-96412181D01*
X66137877Y-96276731D01*
X66200218Y-96126227D01*
X66232000Y-95966452D01*
X66232000Y-95803548D01*
X68388000Y-95803548D01*
X68388000Y-95966452D01*
X68419782Y-96126227D01*
X68482123Y-96276731D01*
X68572628Y-96412181D01*
X68687819Y-96527372D01*
X68823269Y-96617877D01*
X68973773Y-96680218D01*
X69133548Y-96712000D01*
X69296452Y-96712000D01*
X69456227Y-96680218D01*
X69606731Y-96617877D01*
X69742181Y-96527372D01*
X69857372Y-96412181D01*
X69947877Y-96276731D01*
X70010218Y-96126227D01*
X70042000Y-95966452D01*
X70042000Y-95803548D01*
X72198000Y-95803548D01*
X72198000Y-95966452D01*
X72229782Y-96126227D01*
X72292123Y-96276731D01*
X72382628Y-96412181D01*
X72497819Y-96527372D01*
X72633269Y-96617877D01*
X72783773Y-96680218D01*
X72943548Y-96712000D01*
X73106452Y-96712000D01*
X73266227Y-96680218D01*
X73416731Y-96617877D01*
X73552181Y-96527372D01*
X73667372Y-96412181D01*
X73757877Y-96276731D01*
X73820218Y-96126227D01*
X73852000Y-95966452D01*
X73852000Y-95803548D01*
X73826738Y-95676548D01*
X95439000Y-95676548D01*
X95439000Y-95839452D01*
X95470782Y-95999227D01*
X95533123Y-96149731D01*
X95623628Y-96285181D01*
X95738819Y-96400372D01*
X95874269Y-96490877D01*
X96024773Y-96553218D01*
X96184548Y-96585000D01*
X96201000Y-96585000D01*
X96201000Y-96601452D01*
X96232782Y-96761227D01*
X96295123Y-96911731D01*
X96385628Y-97047181D01*
X96500819Y-97162372D01*
X96636269Y-97252877D01*
X96786773Y-97315218D01*
X96946548Y-97347000D01*
X97109452Y-97347000D01*
X97269227Y-97315218D01*
X97419731Y-97252877D01*
X97555181Y-97162372D01*
X97670372Y-97047181D01*
X97760877Y-96911731D01*
X97823218Y-96761227D01*
X97855000Y-96601452D01*
X97855000Y-96438548D01*
X97823218Y-96278773D01*
X97760877Y-96128269D01*
X97670372Y-95992819D01*
X97555181Y-95877628D01*
X97419731Y-95787123D01*
X97269227Y-95724782D01*
X97109452Y-95693000D01*
X97093000Y-95693000D01*
X97093000Y-95676548D01*
X97061218Y-95516773D01*
X96998877Y-95366269D01*
X96908372Y-95230819D01*
X96793181Y-95115628D01*
X96657731Y-95025123D01*
X96507227Y-94962782D01*
X96347452Y-94931000D01*
X96184548Y-94931000D01*
X96024773Y-94962782D01*
X95874269Y-95025123D01*
X95738819Y-95115628D01*
X95623628Y-95230819D01*
X95533123Y-95366269D01*
X95470782Y-95516773D01*
X95439000Y-95676548D01*
X73826738Y-95676548D01*
X73820218Y-95643773D01*
X73757877Y-95493269D01*
X73667372Y-95357819D01*
X73552181Y-95242628D01*
X73416731Y-95152123D01*
X73266227Y-95089782D01*
X73106452Y-95058000D01*
X72943548Y-95058000D01*
X72783773Y-95089782D01*
X72633269Y-95152123D01*
X72497819Y-95242628D01*
X72382628Y-95357819D01*
X72292123Y-95493269D01*
X72229782Y-95643773D01*
X72198000Y-95803548D01*
X70042000Y-95803548D01*
X70010218Y-95643773D01*
X69947877Y-95493269D01*
X69857372Y-95357819D01*
X69742181Y-95242628D01*
X69606731Y-95152123D01*
X69456227Y-95089782D01*
X69296452Y-95058000D01*
X69133548Y-95058000D01*
X68973773Y-95089782D01*
X68823269Y-95152123D01*
X68687819Y-95242628D01*
X68572628Y-95357819D01*
X68482123Y-95493269D01*
X68419782Y-95643773D01*
X68388000Y-95803548D01*
X66232000Y-95803548D01*
X66200218Y-95643773D01*
X66137877Y-95493269D01*
X66047372Y-95357819D01*
X65932181Y-95242628D01*
X65796731Y-95152123D01*
X65646227Y-95089782D01*
X65486452Y-95058000D01*
X65323548Y-95058000D01*
X65163773Y-95089782D01*
X65013269Y-95152123D01*
X64877819Y-95242628D01*
X64762628Y-95357819D01*
X64672123Y-95493269D01*
X64609782Y-95643773D01*
X64578000Y-95803548D01*
X62422000Y-95803548D01*
X62390218Y-95643773D01*
X62327877Y-95493269D01*
X62237372Y-95357819D01*
X62122181Y-95242628D01*
X61986731Y-95152123D01*
X61836227Y-95089782D01*
X61676452Y-95058000D01*
X61513548Y-95058000D01*
X61353773Y-95089782D01*
X61203269Y-95152123D01*
X61067819Y-95242628D01*
X60952628Y-95357819D01*
X60862123Y-95493269D01*
X60799782Y-95643773D01*
X60768000Y-95803548D01*
X60325000Y-95803548D01*
X60325000Y-94152548D01*
X84263000Y-94152548D01*
X84263000Y-94315452D01*
X84294782Y-94475227D01*
X84357123Y-94625731D01*
X84447628Y-94761181D01*
X84562819Y-94876372D01*
X84698269Y-94966877D01*
X84848773Y-95029218D01*
X85008548Y-95061000D01*
X85171452Y-95061000D01*
X85331227Y-95029218D01*
X85481731Y-94966877D01*
X85598000Y-94889188D01*
X85714269Y-94966877D01*
X85864773Y-95029218D01*
X86024548Y-95061000D01*
X86187452Y-95061000D01*
X86347227Y-95029218D01*
X86497731Y-94966877D01*
X86633181Y-94876372D01*
X86748372Y-94761181D01*
X86815612Y-94660548D01*
X97725000Y-94660548D01*
X97725000Y-94823452D01*
X97756782Y-94983227D01*
X97819123Y-95133731D01*
X97909628Y-95269181D01*
X98024819Y-95384372D01*
X98160269Y-95474877D01*
X98310773Y-95537218D01*
X98470548Y-95569000D01*
X98633452Y-95569000D01*
X98793227Y-95537218D01*
X98943731Y-95474877D01*
X99079181Y-95384372D01*
X99194372Y-95269181D01*
X99284877Y-95133731D01*
X99347218Y-94983227D01*
X99379000Y-94823452D01*
X99379000Y-94660548D01*
X99347218Y-94500773D01*
X99284877Y-94350269D01*
X99194372Y-94214819D01*
X99079181Y-94099628D01*
X98943731Y-94009123D01*
X98793227Y-93946782D01*
X98633452Y-93915000D01*
X98470548Y-93915000D01*
X98310773Y-93946782D01*
X98160269Y-94009123D01*
X98024819Y-94099628D01*
X97909628Y-94214819D01*
X97819123Y-94350269D01*
X97756782Y-94500773D01*
X97725000Y-94660548D01*
X86815612Y-94660548D01*
X86838877Y-94625731D01*
X86901218Y-94475227D01*
X86933000Y-94315452D01*
X86933000Y-94152548D01*
X86901218Y-93992773D01*
X86838877Y-93842269D01*
X86748372Y-93706819D01*
X86633181Y-93591628D01*
X86497731Y-93501123D01*
X86347227Y-93438782D01*
X86187452Y-93407000D01*
X86024548Y-93407000D01*
X85864773Y-93438782D01*
X85714269Y-93501123D01*
X85598000Y-93578812D01*
X85481731Y-93501123D01*
X85331227Y-93438782D01*
X85171452Y-93407000D01*
X85008548Y-93407000D01*
X84848773Y-93438782D01*
X84698269Y-93501123D01*
X84562819Y-93591628D01*
X84447628Y-93706819D01*
X84357123Y-93842269D01*
X84294782Y-93992773D01*
X84263000Y-94152548D01*
X60325000Y-94152548D01*
X60325000Y-91993548D01*
X60768000Y-91993548D01*
X60768000Y-92156452D01*
X60799782Y-92316227D01*
X60862123Y-92466731D01*
X60952628Y-92602181D01*
X61067819Y-92717372D01*
X61203269Y-92807877D01*
X61353773Y-92870218D01*
X61513548Y-92902000D01*
X61676452Y-92902000D01*
X61836227Y-92870218D01*
X61986731Y-92807877D01*
X62122181Y-92717372D01*
X62237372Y-92602181D01*
X62327877Y-92466731D01*
X62390218Y-92316227D01*
X62422000Y-92156452D01*
X62422000Y-91993548D01*
X64578000Y-91993548D01*
X64578000Y-92156452D01*
X64609782Y-92316227D01*
X64672123Y-92466731D01*
X64762628Y-92602181D01*
X64877819Y-92717372D01*
X65013269Y-92807877D01*
X65163773Y-92870218D01*
X65323548Y-92902000D01*
X65486452Y-92902000D01*
X65646227Y-92870218D01*
X65796731Y-92807877D01*
X65932181Y-92717372D01*
X66047372Y-92602181D01*
X66137877Y-92466731D01*
X66200218Y-92316227D01*
X66232000Y-92156452D01*
X66232000Y-91993548D01*
X68388000Y-91993548D01*
X68388000Y-92156452D01*
X68419782Y-92316227D01*
X68482123Y-92466731D01*
X68572628Y-92602181D01*
X68687819Y-92717372D01*
X68823269Y-92807877D01*
X68973773Y-92870218D01*
X69133548Y-92902000D01*
X69296452Y-92902000D01*
X69456227Y-92870218D01*
X69606731Y-92807877D01*
X69742181Y-92717372D01*
X69857372Y-92602181D01*
X69947877Y-92466731D01*
X70010218Y-92316227D01*
X70042000Y-92156452D01*
X70042000Y-92120548D01*
X72833000Y-92120548D01*
X72833000Y-92283452D01*
X72864782Y-92443227D01*
X72927123Y-92593731D01*
X73004812Y-92710000D01*
X72927123Y-92826269D01*
X72864782Y-92976773D01*
X72833000Y-93136548D01*
X72833000Y-93299452D01*
X72864782Y-93459227D01*
X72927123Y-93609731D01*
X73017628Y-93745181D01*
X73132819Y-93860372D01*
X73268269Y-93950877D01*
X73418773Y-94013218D01*
X73578548Y-94045000D01*
X73741452Y-94045000D01*
X73901227Y-94013218D01*
X74051731Y-93950877D01*
X74187181Y-93860372D01*
X74302372Y-93745181D01*
X74392877Y-93609731D01*
X74455218Y-93459227D01*
X74487000Y-93299452D01*
X74487000Y-93136548D01*
X74455218Y-92976773D01*
X74416189Y-92882548D01*
X89597000Y-92882548D01*
X89597000Y-93045452D01*
X89628782Y-93205227D01*
X89691123Y-93355731D01*
X89781628Y-93491181D01*
X89896819Y-93606372D01*
X90032269Y-93696877D01*
X90182773Y-93759218D01*
X90342548Y-93791000D01*
X90505452Y-93791000D01*
X90665227Y-93759218D01*
X90815731Y-93696877D01*
X90951181Y-93606372D01*
X91066372Y-93491181D01*
X91156877Y-93355731D01*
X91219218Y-93205227D01*
X91251000Y-93045452D01*
X91251000Y-92882548D01*
X91756000Y-92882548D01*
X91756000Y-93045452D01*
X91787782Y-93205227D01*
X91850123Y-93355731D01*
X91940628Y-93491181D01*
X92055819Y-93606372D01*
X92191269Y-93696877D01*
X92341773Y-93759218D01*
X92501548Y-93791000D01*
X92664452Y-93791000D01*
X92824227Y-93759218D01*
X92974731Y-93696877D01*
X93110181Y-93606372D01*
X93225372Y-93491181D01*
X93315877Y-93355731D01*
X93378218Y-93205227D01*
X93410000Y-93045452D01*
X93410000Y-92882548D01*
X93915000Y-92882548D01*
X93915000Y-93045452D01*
X93946782Y-93205227D01*
X94009123Y-93355731D01*
X94099628Y-93491181D01*
X94214819Y-93606372D01*
X94350269Y-93696877D01*
X94500773Y-93759218D01*
X94660548Y-93791000D01*
X94823452Y-93791000D01*
X94983227Y-93759218D01*
X95133731Y-93696877D01*
X95269181Y-93606372D01*
X95384372Y-93491181D01*
X95474877Y-93355731D01*
X95537218Y-93205227D01*
X95569000Y-93045452D01*
X95569000Y-92882548D01*
X95537218Y-92722773D01*
X95474877Y-92572269D01*
X95384372Y-92436819D01*
X95322101Y-92374548D01*
X96709000Y-92374548D01*
X96709000Y-92537452D01*
X96740782Y-92697227D01*
X96803123Y-92847731D01*
X96893628Y-92983181D01*
X97008819Y-93098372D01*
X97144269Y-93188877D01*
X97294773Y-93251218D01*
X97454548Y-93283000D01*
X97617452Y-93283000D01*
X97777227Y-93251218D01*
X97927731Y-93188877D01*
X98063181Y-93098372D01*
X98178372Y-92983181D01*
X98268877Y-92847731D01*
X98331218Y-92697227D01*
X98363000Y-92537452D01*
X98363000Y-92374548D01*
X98331218Y-92214773D01*
X98268877Y-92064269D01*
X98178372Y-91928819D01*
X98063181Y-91813628D01*
X97927731Y-91723123D01*
X97777227Y-91660782D01*
X97617452Y-91629000D01*
X97454548Y-91629000D01*
X97294773Y-91660782D01*
X97144269Y-91723123D01*
X97008819Y-91813628D01*
X96893628Y-91928819D01*
X96803123Y-92064269D01*
X96740782Y-92214773D01*
X96709000Y-92374548D01*
X95322101Y-92374548D01*
X95269181Y-92321628D01*
X95133731Y-92231123D01*
X94983227Y-92168782D01*
X94823452Y-92137000D01*
X94660548Y-92137000D01*
X94500773Y-92168782D01*
X94350269Y-92231123D01*
X94214819Y-92321628D01*
X94099628Y-92436819D01*
X94009123Y-92572269D01*
X93946782Y-92722773D01*
X93915000Y-92882548D01*
X93410000Y-92882548D01*
X93378218Y-92722773D01*
X93315877Y-92572269D01*
X93225372Y-92436819D01*
X93110181Y-92321628D01*
X92974731Y-92231123D01*
X92824227Y-92168782D01*
X92664452Y-92137000D01*
X92501548Y-92137000D01*
X92341773Y-92168782D01*
X92191269Y-92231123D01*
X92055819Y-92321628D01*
X91940628Y-92436819D01*
X91850123Y-92572269D01*
X91787782Y-92722773D01*
X91756000Y-92882548D01*
X91251000Y-92882548D01*
X91219218Y-92722773D01*
X91156877Y-92572269D01*
X91066372Y-92436819D01*
X90951181Y-92321628D01*
X90815731Y-92231123D01*
X90665227Y-92168782D01*
X90505452Y-92137000D01*
X90342548Y-92137000D01*
X90182773Y-92168782D01*
X90032269Y-92231123D01*
X89896819Y-92321628D01*
X89781628Y-92436819D01*
X89691123Y-92572269D01*
X89628782Y-92722773D01*
X89597000Y-92882548D01*
X74416189Y-92882548D01*
X74392877Y-92826269D01*
X74315188Y-92710000D01*
X74392877Y-92593731D01*
X74455218Y-92443227D01*
X74487000Y-92283452D01*
X74487000Y-92120548D01*
X74455218Y-91960773D01*
X74392877Y-91810269D01*
X74302372Y-91674819D01*
X74187181Y-91559628D01*
X74051731Y-91469123D01*
X73901227Y-91406782D01*
X73741452Y-91375000D01*
X73578548Y-91375000D01*
X73418773Y-91406782D01*
X73268269Y-91469123D01*
X73132819Y-91559628D01*
X73017628Y-91674819D01*
X72927123Y-91810269D01*
X72864782Y-91960773D01*
X72833000Y-92120548D01*
X70042000Y-92120548D01*
X70042000Y-91993548D01*
X70010218Y-91833773D01*
X69947877Y-91683269D01*
X69857372Y-91547819D01*
X69742181Y-91432628D01*
X69606731Y-91342123D01*
X69456227Y-91279782D01*
X69296452Y-91248000D01*
X69133548Y-91248000D01*
X68973773Y-91279782D01*
X68823269Y-91342123D01*
X68687819Y-91432628D01*
X68572628Y-91547819D01*
X68482123Y-91683269D01*
X68419782Y-91833773D01*
X68388000Y-91993548D01*
X66232000Y-91993548D01*
X66200218Y-91833773D01*
X66137877Y-91683269D01*
X66047372Y-91547819D01*
X65932181Y-91432628D01*
X65796731Y-91342123D01*
X65646227Y-91279782D01*
X65486452Y-91248000D01*
X65323548Y-91248000D01*
X65163773Y-91279782D01*
X65013269Y-91342123D01*
X64877819Y-91432628D01*
X64762628Y-91547819D01*
X64672123Y-91683269D01*
X64609782Y-91833773D01*
X64578000Y-91993548D01*
X62422000Y-91993548D01*
X62390218Y-91833773D01*
X62327877Y-91683269D01*
X62237372Y-91547819D01*
X62122181Y-91432628D01*
X61986731Y-91342123D01*
X61836227Y-91279782D01*
X61676452Y-91248000D01*
X61513548Y-91248000D01*
X61353773Y-91279782D01*
X61203269Y-91342123D01*
X61067819Y-91432628D01*
X60952628Y-91547819D01*
X60862123Y-91683269D01*
X60799782Y-91833773D01*
X60768000Y-91993548D01*
X60325000Y-91993548D01*
X60325000Y-89129322D01*
X60335731Y-89124877D01*
X60471181Y-89034372D01*
X60586372Y-88919181D01*
X60676877Y-88783731D01*
X60706000Y-88713422D01*
X60735123Y-88783731D01*
X60825628Y-88919181D01*
X60940819Y-89034372D01*
X61076269Y-89124877D01*
X61226773Y-89187218D01*
X61386548Y-89219000D01*
X61549452Y-89219000D01*
X61709227Y-89187218D01*
X61859731Y-89124877D01*
X61995181Y-89034372D01*
X62110372Y-88919181D01*
X62200877Y-88783731D01*
X62230000Y-88713422D01*
X62259123Y-88783731D01*
X62349628Y-88919181D01*
X62464819Y-89034372D01*
X62600269Y-89124877D01*
X62750773Y-89187218D01*
X62910548Y-89219000D01*
X63073452Y-89219000D01*
X63233227Y-89187218D01*
X63383731Y-89124877D01*
X63519181Y-89034372D01*
X63634372Y-88919181D01*
X63724877Y-88783731D01*
X63754000Y-88713422D01*
X63783123Y-88783731D01*
X63873628Y-88919181D01*
X63988819Y-89034372D01*
X64124269Y-89124877D01*
X64274773Y-89187218D01*
X64434548Y-89219000D01*
X64597452Y-89219000D01*
X64757227Y-89187218D01*
X64907731Y-89124877D01*
X65043181Y-89034372D01*
X65158372Y-88919181D01*
X65248877Y-88783731D01*
X65278000Y-88713422D01*
X65307123Y-88783731D01*
X65397628Y-88919181D01*
X65512819Y-89034372D01*
X65648269Y-89124877D01*
X65798773Y-89187218D01*
X65958548Y-89219000D01*
X66121452Y-89219000D01*
X66281227Y-89187218D01*
X66431731Y-89124877D01*
X66567181Y-89034372D01*
X66682372Y-88919181D01*
X66772877Y-88783731D01*
X66802000Y-88713422D01*
X66831123Y-88783731D01*
X66921628Y-88919181D01*
X67036819Y-89034372D01*
X67172269Y-89124877D01*
X67322773Y-89187218D01*
X67482548Y-89219000D01*
X67645452Y-89219000D01*
X67805227Y-89187218D01*
X67955731Y-89124877D01*
X68091181Y-89034372D01*
X68206372Y-88919181D01*
X68296877Y-88783731D01*
X68326000Y-88713422D01*
X68355123Y-88783731D01*
X68445628Y-88919181D01*
X68560819Y-89034372D01*
X68696269Y-89124877D01*
X68846773Y-89187218D01*
X69006548Y-89219000D01*
X69169452Y-89219000D01*
X69329227Y-89187218D01*
X69479731Y-89124877D01*
X69615181Y-89034372D01*
X69730372Y-88919181D01*
X69820877Y-88783731D01*
X69850000Y-88713422D01*
X69879123Y-88783731D01*
X69969628Y-88919181D01*
X70084819Y-89034372D01*
X70220269Y-89124877D01*
X70370773Y-89187218D01*
X70530548Y-89219000D01*
X70693452Y-89219000D01*
X70853227Y-89187218D01*
X70971628Y-89138175D01*
X70959782Y-89166773D01*
X70928000Y-89326548D01*
X70928000Y-89489452D01*
X70959782Y-89649227D01*
X71022123Y-89799731D01*
X71099812Y-89916000D01*
X71022123Y-90032269D01*
X70959782Y-90182773D01*
X70928000Y-90342548D01*
X70928000Y-90505452D01*
X70959782Y-90665227D01*
X71022123Y-90815731D01*
X71112628Y-90951181D01*
X71227819Y-91066372D01*
X71363269Y-91156877D01*
X71513773Y-91219218D01*
X71673548Y-91251000D01*
X71836452Y-91251000D01*
X71996227Y-91219218D01*
X72146731Y-91156877D01*
X72282181Y-91066372D01*
X72397372Y-90951181D01*
X72487877Y-90815731D01*
X72550218Y-90665227D01*
X72563879Y-90596548D01*
X75627000Y-90596548D01*
X75627000Y-90759452D01*
X75658782Y-90919227D01*
X75721123Y-91069731D01*
X75811628Y-91205181D01*
X75926819Y-91320372D01*
X76062269Y-91410877D01*
X76212773Y-91473218D01*
X76372548Y-91505000D01*
X76535452Y-91505000D01*
X76695227Y-91473218D01*
X76845731Y-91410877D01*
X76981181Y-91320372D01*
X77096372Y-91205181D01*
X77186877Y-91069731D01*
X77249218Y-90919227D01*
X77262879Y-90850548D01*
X80707000Y-90850548D01*
X80707000Y-91013452D01*
X80738782Y-91173227D01*
X80801123Y-91323731D01*
X80891628Y-91459181D01*
X81006819Y-91574372D01*
X81142269Y-91664877D01*
X81292773Y-91727218D01*
X81452548Y-91759000D01*
X81615452Y-91759000D01*
X81775227Y-91727218D01*
X81925731Y-91664877D01*
X82061181Y-91574372D01*
X82176372Y-91459181D01*
X82266877Y-91323731D01*
X82329218Y-91173227D01*
X82361000Y-91013452D01*
X82361000Y-90850548D01*
X85279000Y-90850548D01*
X85279000Y-91013452D01*
X85310782Y-91173227D01*
X85373123Y-91323731D01*
X85463628Y-91459181D01*
X85578819Y-91574372D01*
X85714269Y-91664877D01*
X85864773Y-91727218D01*
X86024548Y-91759000D01*
X86187452Y-91759000D01*
X86347227Y-91727218D01*
X86497731Y-91664877D01*
X86633181Y-91574372D01*
X86748372Y-91459181D01*
X86838877Y-91323731D01*
X86901218Y-91173227D01*
X86933000Y-91013452D01*
X86933000Y-90850548D01*
X88073000Y-90850548D01*
X88073000Y-91013452D01*
X88104782Y-91173227D01*
X88167123Y-91323731D01*
X88257628Y-91459181D01*
X88372819Y-91574372D01*
X88508269Y-91664877D01*
X88658773Y-91727218D01*
X88818548Y-91759000D01*
X88981452Y-91759000D01*
X89141227Y-91727218D01*
X89291731Y-91664877D01*
X89427181Y-91574372D01*
X89542372Y-91459181D01*
X89632877Y-91323731D01*
X89695218Y-91173227D01*
X89727000Y-91013452D01*
X89727000Y-90850548D01*
X90359000Y-90850548D01*
X90359000Y-91013452D01*
X90390782Y-91173227D01*
X90453123Y-91323731D01*
X90543628Y-91459181D01*
X90658819Y-91574372D01*
X90794269Y-91664877D01*
X90944773Y-91727218D01*
X91104548Y-91759000D01*
X91267452Y-91759000D01*
X91427227Y-91727218D01*
X91577731Y-91664877D01*
X91713181Y-91574372D01*
X91828372Y-91459181D01*
X91918877Y-91323731D01*
X91981218Y-91173227D01*
X92013000Y-91013452D01*
X92013000Y-90850548D01*
X92645000Y-90850548D01*
X92645000Y-91013452D01*
X92676782Y-91173227D01*
X92739123Y-91323731D01*
X92829628Y-91459181D01*
X92944819Y-91574372D01*
X93080269Y-91664877D01*
X93230773Y-91727218D01*
X93390548Y-91759000D01*
X93553452Y-91759000D01*
X93713227Y-91727218D01*
X93863731Y-91664877D01*
X93999181Y-91574372D01*
X94114372Y-91459181D01*
X94204877Y-91323731D01*
X94267218Y-91173227D01*
X94299000Y-91013452D01*
X94299000Y-90850548D01*
X94804000Y-90850548D01*
X94804000Y-91013452D01*
X94835782Y-91173227D01*
X94898123Y-91323731D01*
X94988628Y-91459181D01*
X95103819Y-91574372D01*
X95239269Y-91664877D01*
X95389773Y-91727218D01*
X95549548Y-91759000D01*
X95712452Y-91759000D01*
X95872227Y-91727218D01*
X96022731Y-91664877D01*
X96158181Y-91574372D01*
X96273372Y-91459181D01*
X96363877Y-91323731D01*
X96426218Y-91173227D01*
X96458000Y-91013452D01*
X96458000Y-90850548D01*
X96426218Y-90690773D01*
X96363877Y-90540269D01*
X96273372Y-90404819D01*
X96211101Y-90342548D01*
X98995000Y-90342548D01*
X98995000Y-90505452D01*
X99026782Y-90665227D01*
X99089123Y-90815731D01*
X99179628Y-90951181D01*
X99294819Y-91066372D01*
X99430269Y-91156877D01*
X99580773Y-91219218D01*
X99740548Y-91251000D01*
X99903452Y-91251000D01*
X100063227Y-91219218D01*
X100213731Y-91156877D01*
X100330000Y-91079188D01*
X100446269Y-91156877D01*
X100596773Y-91219218D01*
X100756548Y-91251000D01*
X100919452Y-91251000D01*
X101079227Y-91219218D01*
X101229731Y-91156877D01*
X101365181Y-91066372D01*
X101480372Y-90951181D01*
X101570877Y-90815731D01*
X101633218Y-90665227D01*
X101665000Y-90505452D01*
X101665000Y-90342548D01*
X101633218Y-90182773D01*
X101570877Y-90032269D01*
X101480372Y-89896819D01*
X101365181Y-89781628D01*
X101229731Y-89691123D01*
X101079227Y-89628782D01*
X100919452Y-89597000D01*
X100756548Y-89597000D01*
X100596773Y-89628782D01*
X100446269Y-89691123D01*
X100330000Y-89768812D01*
X100213731Y-89691123D01*
X100063227Y-89628782D01*
X99903452Y-89597000D01*
X99740548Y-89597000D01*
X99580773Y-89628782D01*
X99430269Y-89691123D01*
X99294819Y-89781628D01*
X99179628Y-89896819D01*
X99089123Y-90032269D01*
X99026782Y-90182773D01*
X98995000Y-90342548D01*
X96211101Y-90342548D01*
X96158181Y-90289628D01*
X96022731Y-90199123D01*
X95872227Y-90136782D01*
X95712452Y-90105000D01*
X95549548Y-90105000D01*
X95389773Y-90136782D01*
X95239269Y-90199123D01*
X95103819Y-90289628D01*
X94988628Y-90404819D01*
X94898123Y-90540269D01*
X94835782Y-90690773D01*
X94804000Y-90850548D01*
X94299000Y-90850548D01*
X94267218Y-90690773D01*
X94204877Y-90540269D01*
X94114372Y-90404819D01*
X93999181Y-90289628D01*
X93863731Y-90199123D01*
X93713227Y-90136782D01*
X93553452Y-90105000D01*
X93390548Y-90105000D01*
X93230773Y-90136782D01*
X93080269Y-90199123D01*
X92944819Y-90289628D01*
X92829628Y-90404819D01*
X92739123Y-90540269D01*
X92676782Y-90690773D01*
X92645000Y-90850548D01*
X92013000Y-90850548D01*
X91981218Y-90690773D01*
X91918877Y-90540269D01*
X91828372Y-90404819D01*
X91713181Y-90289628D01*
X91577731Y-90199123D01*
X91427227Y-90136782D01*
X91267452Y-90105000D01*
X91104548Y-90105000D01*
X90944773Y-90136782D01*
X90794269Y-90199123D01*
X90658819Y-90289628D01*
X90543628Y-90404819D01*
X90453123Y-90540269D01*
X90390782Y-90690773D01*
X90359000Y-90850548D01*
X89727000Y-90850548D01*
X89695218Y-90690773D01*
X89632877Y-90540269D01*
X89542372Y-90404819D01*
X89427181Y-90289628D01*
X89291731Y-90199123D01*
X89141227Y-90136782D01*
X88981452Y-90105000D01*
X88818548Y-90105000D01*
X88658773Y-90136782D01*
X88508269Y-90199123D01*
X88372819Y-90289628D01*
X88257628Y-90404819D01*
X88167123Y-90540269D01*
X88104782Y-90690773D01*
X88073000Y-90850548D01*
X86933000Y-90850548D01*
X86901218Y-90690773D01*
X86838877Y-90540269D01*
X86748372Y-90404819D01*
X86633181Y-90289628D01*
X86497731Y-90199123D01*
X86347227Y-90136782D01*
X86187452Y-90105000D01*
X86024548Y-90105000D01*
X85864773Y-90136782D01*
X85714269Y-90199123D01*
X85578819Y-90289628D01*
X85463628Y-90404819D01*
X85373123Y-90540269D01*
X85310782Y-90690773D01*
X85279000Y-90850548D01*
X82361000Y-90850548D01*
X82329218Y-90690773D01*
X82266877Y-90540269D01*
X82176372Y-90404819D01*
X82061181Y-90289628D01*
X81925731Y-90199123D01*
X81775227Y-90136782D01*
X81615452Y-90105000D01*
X81452548Y-90105000D01*
X81292773Y-90136782D01*
X81142269Y-90199123D01*
X81006819Y-90289628D01*
X80891628Y-90404819D01*
X80801123Y-90540269D01*
X80738782Y-90690773D01*
X80707000Y-90850548D01*
X77262879Y-90850548D01*
X77281000Y-90759452D01*
X77281000Y-90596548D01*
X77249218Y-90436773D01*
X77186877Y-90286269D01*
X77096372Y-90150819D01*
X76981181Y-90035628D01*
X76845731Y-89945123D01*
X76695227Y-89882782D01*
X76535452Y-89851000D01*
X76372548Y-89851000D01*
X76212773Y-89882782D01*
X76062269Y-89945123D01*
X75926819Y-90035628D01*
X75811628Y-90150819D01*
X75721123Y-90286269D01*
X75658782Y-90436773D01*
X75627000Y-90596548D01*
X72563879Y-90596548D01*
X72582000Y-90505452D01*
X72582000Y-90342548D01*
X72550218Y-90182773D01*
X72487877Y-90032269D01*
X72410188Y-89916000D01*
X72487877Y-89799731D01*
X72550218Y-89649227D01*
X72582000Y-89489452D01*
X72582000Y-89326548D01*
X72550218Y-89166773D01*
X72531751Y-89122191D01*
X72663181Y-89034372D01*
X72778372Y-88919181D01*
X72868877Y-88783731D01*
X72931218Y-88633227D01*
X72963000Y-88473452D01*
X72963000Y-88310548D01*
X72931218Y-88150773D01*
X72868877Y-88000269D01*
X72778372Y-87864819D01*
X72663181Y-87749628D01*
X72527731Y-87659123D01*
X72377227Y-87596782D01*
X72217452Y-87565000D01*
X72054548Y-87565000D01*
X71894773Y-87596782D01*
X71744269Y-87659123D01*
X71608819Y-87749628D01*
X71493628Y-87864819D01*
X71403123Y-88000269D01*
X71374000Y-88070578D01*
X71344877Y-88000269D01*
X71254372Y-87864819D01*
X71139181Y-87749628D01*
X71003731Y-87659123D01*
X70853227Y-87596782D01*
X70693452Y-87565000D01*
X70530548Y-87565000D01*
X70370773Y-87596782D01*
X70220269Y-87659123D01*
X70084819Y-87749628D01*
X69969628Y-87864819D01*
X69879123Y-88000269D01*
X69850000Y-88070578D01*
X69820877Y-88000269D01*
X69730372Y-87864819D01*
X69615181Y-87749628D01*
X69479731Y-87659123D01*
X69329227Y-87596782D01*
X69169452Y-87565000D01*
X69006548Y-87565000D01*
X68846773Y-87596782D01*
X68696269Y-87659123D01*
X68560819Y-87749628D01*
X68445628Y-87864819D01*
X68355123Y-88000269D01*
X68326000Y-88070578D01*
X68296877Y-88000269D01*
X68206372Y-87864819D01*
X68091181Y-87749628D01*
X67955731Y-87659123D01*
X67805227Y-87596782D01*
X67645452Y-87565000D01*
X67482548Y-87565000D01*
X67322773Y-87596782D01*
X67172269Y-87659123D01*
X67036819Y-87749628D01*
X66921628Y-87864819D01*
X66831123Y-88000269D01*
X66802000Y-88070578D01*
X66772877Y-88000269D01*
X66682372Y-87864819D01*
X66567181Y-87749628D01*
X66431731Y-87659123D01*
X66281227Y-87596782D01*
X66121452Y-87565000D01*
X65958548Y-87565000D01*
X65798773Y-87596782D01*
X65648269Y-87659123D01*
X65512819Y-87749628D01*
X65397628Y-87864819D01*
X65307123Y-88000269D01*
X65278000Y-88070578D01*
X65248877Y-88000269D01*
X65158372Y-87864819D01*
X65043181Y-87749628D01*
X64907731Y-87659123D01*
X64757227Y-87596782D01*
X64597452Y-87565000D01*
X64434548Y-87565000D01*
X64274773Y-87596782D01*
X64124269Y-87659123D01*
X63988819Y-87749628D01*
X63873628Y-87864819D01*
X63783123Y-88000269D01*
X63754000Y-88070578D01*
X63724877Y-88000269D01*
X63634372Y-87864819D01*
X63519181Y-87749628D01*
X63383731Y-87659123D01*
X63233227Y-87596782D01*
X63073452Y-87565000D01*
X62910548Y-87565000D01*
X62750773Y-87596782D01*
X62600269Y-87659123D01*
X62464819Y-87749628D01*
X62349628Y-87864819D01*
X62259123Y-88000269D01*
X62230000Y-88070578D01*
X62200877Y-88000269D01*
X62110372Y-87864819D01*
X61995181Y-87749628D01*
X61859731Y-87659123D01*
X61709227Y-87596782D01*
X61549452Y-87565000D01*
X61386548Y-87565000D01*
X61226773Y-87596782D01*
X61076269Y-87659123D01*
X60940819Y-87749628D01*
X60825628Y-87864819D01*
X60735123Y-88000269D01*
X60706000Y-88070578D01*
X60676877Y-88000269D01*
X60586372Y-87864819D01*
X60471181Y-87749628D01*
X60335731Y-87659123D01*
X60325000Y-87654678D01*
X60325000Y-86589322D01*
X60335731Y-86584877D01*
X60471181Y-86494372D01*
X60586372Y-86379181D01*
X60676877Y-86243731D01*
X60706000Y-86173422D01*
X60735123Y-86243731D01*
X60825628Y-86379181D01*
X60940819Y-86494372D01*
X61076269Y-86584877D01*
X61226773Y-86647218D01*
X61386548Y-86679000D01*
X61549452Y-86679000D01*
X61709227Y-86647218D01*
X61859731Y-86584877D01*
X61995181Y-86494372D01*
X62110372Y-86379181D01*
X62200877Y-86243731D01*
X62230000Y-86173422D01*
X62259123Y-86243731D01*
X62349628Y-86379181D01*
X62464819Y-86494372D01*
X62600269Y-86584877D01*
X62750773Y-86647218D01*
X62910548Y-86679000D01*
X63073452Y-86679000D01*
X63233227Y-86647218D01*
X63383731Y-86584877D01*
X63519181Y-86494372D01*
X63634372Y-86379181D01*
X63724877Y-86243731D01*
X63754000Y-86173422D01*
X63783123Y-86243731D01*
X63873628Y-86379181D01*
X63988819Y-86494372D01*
X64124269Y-86584877D01*
X64274773Y-86647218D01*
X64434548Y-86679000D01*
X64597452Y-86679000D01*
X64757227Y-86647218D01*
X64907731Y-86584877D01*
X65043181Y-86494372D01*
X65158372Y-86379181D01*
X65248877Y-86243731D01*
X65278000Y-86173422D01*
X65307123Y-86243731D01*
X65397628Y-86379181D01*
X65512819Y-86494372D01*
X65648269Y-86584877D01*
X65798773Y-86647218D01*
X65958548Y-86679000D01*
X66121452Y-86679000D01*
X66281227Y-86647218D01*
X66431731Y-86584877D01*
X66567181Y-86494372D01*
X66682372Y-86379181D01*
X66772877Y-86243731D01*
X66802000Y-86173422D01*
X66831123Y-86243731D01*
X66921628Y-86379181D01*
X67036819Y-86494372D01*
X67172269Y-86584877D01*
X67322773Y-86647218D01*
X67482548Y-86679000D01*
X67645452Y-86679000D01*
X67805227Y-86647218D01*
X67955731Y-86584877D01*
X68091181Y-86494372D01*
X68206372Y-86379181D01*
X68296877Y-86243731D01*
X68326000Y-86173422D01*
X68355123Y-86243731D01*
X68445628Y-86379181D01*
X68560819Y-86494372D01*
X68696269Y-86584877D01*
X68846773Y-86647218D01*
X69006548Y-86679000D01*
X69169452Y-86679000D01*
X69329227Y-86647218D01*
X69479731Y-86584877D01*
X69615181Y-86494372D01*
X69730372Y-86379181D01*
X69820877Y-86243731D01*
X69850000Y-86173422D01*
X69879123Y-86243731D01*
X69969628Y-86379181D01*
X70084819Y-86494372D01*
X70220269Y-86584877D01*
X70370773Y-86647218D01*
X70530548Y-86679000D01*
X70693452Y-86679000D01*
X70853227Y-86647218D01*
X71003731Y-86584877D01*
X71139181Y-86494372D01*
X71254372Y-86379181D01*
X71344877Y-86243731D01*
X71374000Y-86173422D01*
X71403123Y-86243731D01*
X71493628Y-86379181D01*
X71608819Y-86494372D01*
X71744269Y-86584877D01*
X71894773Y-86647218D01*
X72054548Y-86679000D01*
X72217452Y-86679000D01*
X72377227Y-86647218D01*
X72527731Y-86584877D01*
X72663181Y-86494372D01*
X72778372Y-86379181D01*
X72868877Y-86243731D01*
X72931218Y-86093227D01*
X72963000Y-85933452D01*
X72963000Y-85770548D01*
X72931218Y-85610773D01*
X72868877Y-85460269D01*
X72778372Y-85324819D01*
X72716101Y-85262548D01*
X75881000Y-85262548D01*
X75881000Y-85425452D01*
X75912782Y-85585227D01*
X75975123Y-85735731D01*
X76052812Y-85852000D01*
X75975123Y-85968269D01*
X75912782Y-86118773D01*
X75881000Y-86278548D01*
X75881000Y-86441452D01*
X75912782Y-86601227D01*
X75975123Y-86751731D01*
X76065628Y-86887181D01*
X76180819Y-87002372D01*
X76316269Y-87092877D01*
X76466773Y-87155218D01*
X76626548Y-87187000D01*
X76789452Y-87187000D01*
X76949227Y-87155218D01*
X77099731Y-87092877D01*
X77216000Y-87015188D01*
X77332269Y-87092877D01*
X77482773Y-87155218D01*
X77634123Y-87185324D01*
X77589628Y-87229819D01*
X77499123Y-87365269D01*
X77436782Y-87515773D01*
X77405000Y-87675548D01*
X77405000Y-87838452D01*
X77436782Y-87998227D01*
X77499123Y-88148731D01*
X77589628Y-88284181D01*
X77704819Y-88399372D01*
X77840269Y-88489877D01*
X77990773Y-88552218D01*
X78150548Y-88584000D01*
X78313452Y-88584000D01*
X78473227Y-88552218D01*
X78623731Y-88489877D01*
X78740000Y-88412188D01*
X78856269Y-88489877D01*
X79006773Y-88552218D01*
X79166548Y-88584000D01*
X79329452Y-88584000D01*
X79489227Y-88552218D01*
X79639731Y-88489877D01*
X79775181Y-88399372D01*
X79890372Y-88284181D01*
X79980877Y-88148731D01*
X80043218Y-87998227D01*
X80075000Y-87838452D01*
X80075000Y-87675548D01*
X80043218Y-87515773D01*
X79980877Y-87365269D01*
X79890372Y-87229819D01*
X79775181Y-87114628D01*
X79639731Y-87024123D01*
X79489227Y-86961782D01*
X79329452Y-86930000D01*
X79166548Y-86930000D01*
X79006773Y-86961782D01*
X78856269Y-87024123D01*
X78740000Y-87101812D01*
X78623731Y-87024123D01*
X78473227Y-86961782D01*
X78321877Y-86931676D01*
X78366372Y-86887181D01*
X78456877Y-86751731D01*
X78519218Y-86601227D01*
X78551000Y-86441452D01*
X78551000Y-86278548D01*
X78519218Y-86118773D01*
X78456877Y-85968269D01*
X78379188Y-85852000D01*
X78456877Y-85735731D01*
X78519218Y-85585227D01*
X78551000Y-85425452D01*
X78551000Y-85262548D01*
X78519218Y-85102773D01*
X78456877Y-84952269D01*
X78366372Y-84816819D01*
X78251181Y-84701628D01*
X78115731Y-84611123D01*
X77965227Y-84548782D01*
X77805452Y-84517000D01*
X77642548Y-84517000D01*
X77482773Y-84548782D01*
X77332269Y-84611123D01*
X77216000Y-84688812D01*
X77099731Y-84611123D01*
X76949227Y-84548782D01*
X76789452Y-84517000D01*
X76626548Y-84517000D01*
X76466773Y-84548782D01*
X76316269Y-84611123D01*
X76180819Y-84701628D01*
X76065628Y-84816819D01*
X75975123Y-84952269D01*
X75912782Y-85102773D01*
X75881000Y-85262548D01*
X72716101Y-85262548D01*
X72663181Y-85209628D01*
X72527731Y-85119123D01*
X72377227Y-85056782D01*
X72217452Y-85025000D01*
X72054548Y-85025000D01*
X71894773Y-85056782D01*
X71744269Y-85119123D01*
X71608819Y-85209628D01*
X71493628Y-85324819D01*
X71403123Y-85460269D01*
X71374000Y-85530578D01*
X71344877Y-85460269D01*
X71254372Y-85324819D01*
X71139181Y-85209628D01*
X71003731Y-85119123D01*
X70853227Y-85056782D01*
X70693452Y-85025000D01*
X70530548Y-85025000D01*
X70370773Y-85056782D01*
X70220269Y-85119123D01*
X70084819Y-85209628D01*
X69969628Y-85324819D01*
X69879123Y-85460269D01*
X69850000Y-85530578D01*
X69820877Y-85460269D01*
X69730372Y-85324819D01*
X69615181Y-85209628D01*
X69479731Y-85119123D01*
X69329227Y-85056782D01*
X69169452Y-85025000D01*
X69006548Y-85025000D01*
X68846773Y-85056782D01*
X68696269Y-85119123D01*
X68560819Y-85209628D01*
X68445628Y-85324819D01*
X68355123Y-85460269D01*
X68326000Y-85530578D01*
X68296877Y-85460269D01*
X68206372Y-85324819D01*
X68091181Y-85209628D01*
X67955731Y-85119123D01*
X67805227Y-85056782D01*
X67645452Y-85025000D01*
X67482548Y-85025000D01*
X67322773Y-85056782D01*
X67172269Y-85119123D01*
X67036819Y-85209628D01*
X66921628Y-85324819D01*
X66831123Y-85460269D01*
X66802000Y-85530578D01*
X66772877Y-85460269D01*
X66682372Y-85324819D01*
X66567181Y-85209628D01*
X66431731Y-85119123D01*
X66281227Y-85056782D01*
X66121452Y-85025000D01*
X65958548Y-85025000D01*
X65798773Y-85056782D01*
X65648269Y-85119123D01*
X65512819Y-85209628D01*
X65397628Y-85324819D01*
X65307123Y-85460269D01*
X65278000Y-85530578D01*
X65248877Y-85460269D01*
X65158372Y-85324819D01*
X65043181Y-85209628D01*
X64907731Y-85119123D01*
X64757227Y-85056782D01*
X64597452Y-85025000D01*
X64434548Y-85025000D01*
X64274773Y-85056782D01*
X64124269Y-85119123D01*
X63988819Y-85209628D01*
X63873628Y-85324819D01*
X63783123Y-85460269D01*
X63754000Y-85530578D01*
X63724877Y-85460269D01*
X63634372Y-85324819D01*
X63519181Y-85209628D01*
X63383731Y-85119123D01*
X63233227Y-85056782D01*
X63073452Y-85025000D01*
X62910548Y-85025000D01*
X62750773Y-85056782D01*
X62600269Y-85119123D01*
X62464819Y-85209628D01*
X62349628Y-85324819D01*
X62259123Y-85460269D01*
X62230000Y-85530578D01*
X62200877Y-85460269D01*
X62110372Y-85324819D01*
X61995181Y-85209628D01*
X61859731Y-85119123D01*
X61709227Y-85056782D01*
X61549452Y-85025000D01*
X61386548Y-85025000D01*
X61226773Y-85056782D01*
X61076269Y-85119123D01*
X60940819Y-85209628D01*
X60825628Y-85324819D01*
X60735123Y-85460269D01*
X60706000Y-85530578D01*
X60676877Y-85460269D01*
X60586372Y-85324819D01*
X60471181Y-85209628D01*
X60335731Y-85119123D01*
X60325000Y-85114678D01*
X60325000Y-83738548D01*
X60768000Y-83738548D01*
X60768000Y-83901452D01*
X60799782Y-84061227D01*
X60862123Y-84211731D01*
X60952628Y-84347181D01*
X61067819Y-84462372D01*
X61203269Y-84552877D01*
X61353773Y-84615218D01*
X61513548Y-84647000D01*
X61676452Y-84647000D01*
X61836227Y-84615218D01*
X61986731Y-84552877D01*
X62122181Y-84462372D01*
X62237372Y-84347181D01*
X62327877Y-84211731D01*
X62390218Y-84061227D01*
X62422000Y-83901452D01*
X62422000Y-83738548D01*
X64578000Y-83738548D01*
X64578000Y-83901452D01*
X64609782Y-84061227D01*
X64672123Y-84211731D01*
X64762628Y-84347181D01*
X64877819Y-84462372D01*
X65013269Y-84552877D01*
X65163773Y-84615218D01*
X65323548Y-84647000D01*
X65486452Y-84647000D01*
X65646227Y-84615218D01*
X65796731Y-84552877D01*
X65932181Y-84462372D01*
X66047372Y-84347181D01*
X66137877Y-84211731D01*
X66200218Y-84061227D01*
X66232000Y-83901452D01*
X66232000Y-83738548D01*
X68388000Y-83738548D01*
X68388000Y-83901452D01*
X68419782Y-84061227D01*
X68482123Y-84211731D01*
X68572628Y-84347181D01*
X68687819Y-84462372D01*
X68823269Y-84552877D01*
X68973773Y-84615218D01*
X69133548Y-84647000D01*
X69296452Y-84647000D01*
X69456227Y-84615218D01*
X69606731Y-84552877D01*
X69742181Y-84462372D01*
X69857372Y-84347181D01*
X69947877Y-84211731D01*
X70010218Y-84061227D01*
X70042000Y-83901452D01*
X70042000Y-83738548D01*
X70010218Y-83578773D01*
X69947877Y-83428269D01*
X69857372Y-83292819D01*
X69742181Y-83177628D01*
X69606731Y-83087123D01*
X69456227Y-83024782D01*
X69296452Y-82993000D01*
X69133548Y-82993000D01*
X68973773Y-83024782D01*
X68823269Y-83087123D01*
X68687819Y-83177628D01*
X68572628Y-83292819D01*
X68482123Y-83428269D01*
X68419782Y-83578773D01*
X68388000Y-83738548D01*
X66232000Y-83738548D01*
X66200218Y-83578773D01*
X66137877Y-83428269D01*
X66047372Y-83292819D01*
X65932181Y-83177628D01*
X65796731Y-83087123D01*
X65646227Y-83024782D01*
X65486452Y-82993000D01*
X65323548Y-82993000D01*
X65163773Y-83024782D01*
X65013269Y-83087123D01*
X64877819Y-83177628D01*
X64762628Y-83292819D01*
X64672123Y-83428269D01*
X64609782Y-83578773D01*
X64578000Y-83738548D01*
X62422000Y-83738548D01*
X62390218Y-83578773D01*
X62327877Y-83428269D01*
X62237372Y-83292819D01*
X62122181Y-83177628D01*
X61986731Y-83087123D01*
X61836227Y-83024782D01*
X61676452Y-82993000D01*
X61513548Y-82993000D01*
X61353773Y-83024782D01*
X61203269Y-83087123D01*
X61067819Y-83177628D01*
X60952628Y-83292819D01*
X60862123Y-83428269D01*
X60799782Y-83578773D01*
X60768000Y-83738548D01*
X60325000Y-83738548D01*
X60325000Y-79928548D01*
X60768000Y-79928548D01*
X60768000Y-80091452D01*
X60799782Y-80251227D01*
X60862123Y-80401731D01*
X60952628Y-80537181D01*
X61067819Y-80652372D01*
X61203269Y-80742877D01*
X61353773Y-80805218D01*
X61513548Y-80837000D01*
X61676452Y-80837000D01*
X61836227Y-80805218D01*
X61986731Y-80742877D01*
X62122181Y-80652372D01*
X62237372Y-80537181D01*
X62327877Y-80401731D01*
X62390218Y-80251227D01*
X62422000Y-80091452D01*
X62422000Y-79928548D01*
X64578000Y-79928548D01*
X64578000Y-80091452D01*
X64609782Y-80251227D01*
X64672123Y-80401731D01*
X64762628Y-80537181D01*
X64877819Y-80652372D01*
X65013269Y-80742877D01*
X65163773Y-80805218D01*
X65323548Y-80837000D01*
X65486452Y-80837000D01*
X65646227Y-80805218D01*
X65796731Y-80742877D01*
X65932181Y-80652372D01*
X66047372Y-80537181D01*
X66137877Y-80401731D01*
X66200218Y-80251227D01*
X66232000Y-80091452D01*
X66232000Y-79928548D01*
X68388000Y-79928548D01*
X68388000Y-80091452D01*
X68419782Y-80251227D01*
X68482123Y-80401731D01*
X68572628Y-80537181D01*
X68687819Y-80652372D01*
X68823269Y-80742877D01*
X68973773Y-80805218D01*
X69133548Y-80837000D01*
X69296452Y-80837000D01*
X69456227Y-80805218D01*
X69606731Y-80742877D01*
X69742181Y-80652372D01*
X69857372Y-80537181D01*
X69947877Y-80401731D01*
X70010218Y-80251227D01*
X70042000Y-80091452D01*
X70042000Y-79928548D01*
X72198000Y-79928548D01*
X72198000Y-80091452D01*
X72229782Y-80251227D01*
X72292123Y-80401731D01*
X72382628Y-80537181D01*
X72497819Y-80652372D01*
X72633269Y-80742877D01*
X72783773Y-80805218D01*
X72943548Y-80837000D01*
X73106452Y-80837000D01*
X73266227Y-80805218D01*
X73416731Y-80742877D01*
X73552181Y-80652372D01*
X73667372Y-80537181D01*
X73757877Y-80401731D01*
X73820218Y-80251227D01*
X73852000Y-80091452D01*
X73852000Y-79928548D01*
X73820218Y-79768773D01*
X73757877Y-79618269D01*
X73667372Y-79482819D01*
X73552181Y-79367628D01*
X73416731Y-79277123D01*
X73266227Y-79214782D01*
X73106452Y-79183000D01*
X72943548Y-79183000D01*
X72783773Y-79214782D01*
X72633269Y-79277123D01*
X72497819Y-79367628D01*
X72382628Y-79482819D01*
X72292123Y-79618269D01*
X72229782Y-79768773D01*
X72198000Y-79928548D01*
X70042000Y-79928548D01*
X70010218Y-79768773D01*
X69947877Y-79618269D01*
X69857372Y-79482819D01*
X69742181Y-79367628D01*
X69606731Y-79277123D01*
X69456227Y-79214782D01*
X69296452Y-79183000D01*
X69133548Y-79183000D01*
X68973773Y-79214782D01*
X68823269Y-79277123D01*
X68687819Y-79367628D01*
X68572628Y-79482819D01*
X68482123Y-79618269D01*
X68419782Y-79768773D01*
X68388000Y-79928548D01*
X66232000Y-79928548D01*
X66200218Y-79768773D01*
X66137877Y-79618269D01*
X66047372Y-79482819D01*
X65932181Y-79367628D01*
X65796731Y-79277123D01*
X65646227Y-79214782D01*
X65486452Y-79183000D01*
X65323548Y-79183000D01*
X65163773Y-79214782D01*
X65013269Y-79277123D01*
X64877819Y-79367628D01*
X64762628Y-79482819D01*
X64672123Y-79618269D01*
X64609782Y-79768773D01*
X64578000Y-79928548D01*
X62422000Y-79928548D01*
X62390218Y-79768773D01*
X62327877Y-79618269D01*
X62237372Y-79482819D01*
X62122181Y-79367628D01*
X61986731Y-79277123D01*
X61836227Y-79214782D01*
X61676452Y-79183000D01*
X61513548Y-79183000D01*
X61353773Y-79214782D01*
X61203269Y-79277123D01*
X61067819Y-79367628D01*
X60952628Y-79482819D01*
X60862123Y-79618269D01*
X60799782Y-79768773D01*
X60768000Y-79928548D01*
X60325000Y-79928548D01*
X60325000Y-76118548D01*
X60768000Y-76118548D01*
X60768000Y-76281452D01*
X60799782Y-76441227D01*
X60862123Y-76591731D01*
X60952628Y-76727181D01*
X61067819Y-76842372D01*
X61203269Y-76932877D01*
X61353773Y-76995218D01*
X61513548Y-77027000D01*
X61676452Y-77027000D01*
X61836227Y-76995218D01*
X61986731Y-76932877D01*
X62122181Y-76842372D01*
X62237372Y-76727181D01*
X62327877Y-76591731D01*
X62390218Y-76441227D01*
X62422000Y-76281452D01*
X62422000Y-76118548D01*
X64578000Y-76118548D01*
X64578000Y-76281452D01*
X64609782Y-76441227D01*
X64672123Y-76591731D01*
X64762628Y-76727181D01*
X64877819Y-76842372D01*
X65013269Y-76932877D01*
X65163773Y-76995218D01*
X65323548Y-77027000D01*
X65486452Y-77027000D01*
X65646227Y-76995218D01*
X65796731Y-76932877D01*
X65932181Y-76842372D01*
X66047372Y-76727181D01*
X66137877Y-76591731D01*
X66200218Y-76441227D01*
X66232000Y-76281452D01*
X66232000Y-76118548D01*
X68388000Y-76118548D01*
X68388000Y-76281452D01*
X68419782Y-76441227D01*
X68482123Y-76591731D01*
X68572628Y-76727181D01*
X68687819Y-76842372D01*
X68823269Y-76932877D01*
X68973773Y-76995218D01*
X69133548Y-77027000D01*
X69296452Y-77027000D01*
X69456227Y-76995218D01*
X69606731Y-76932877D01*
X69742181Y-76842372D01*
X69857372Y-76727181D01*
X69947877Y-76591731D01*
X70010218Y-76441227D01*
X70042000Y-76281452D01*
X70042000Y-76118548D01*
X72198000Y-76118548D01*
X72198000Y-76281452D01*
X72229782Y-76441227D01*
X72292123Y-76591731D01*
X72382628Y-76727181D01*
X72497819Y-76842372D01*
X72633269Y-76932877D01*
X72783773Y-76995218D01*
X72943548Y-77027000D01*
X73106452Y-77027000D01*
X73266227Y-76995218D01*
X73416731Y-76932877D01*
X73552181Y-76842372D01*
X73667372Y-76727181D01*
X73757877Y-76591731D01*
X73820218Y-76441227D01*
X73833879Y-76372548D01*
X88581000Y-76372548D01*
X88581000Y-76535452D01*
X88612782Y-76695227D01*
X88675123Y-76845731D01*
X88752812Y-76962000D01*
X88675123Y-77078269D01*
X88612782Y-77228773D01*
X88581000Y-77388548D01*
X88581000Y-77551452D01*
X88612782Y-77711227D01*
X88675123Y-77861731D01*
X88752812Y-77978000D01*
X88675123Y-78094269D01*
X88612782Y-78244773D01*
X88581000Y-78404548D01*
X88581000Y-78567452D01*
X88612782Y-78727227D01*
X88675123Y-78877731D01*
X88765628Y-79013181D01*
X88880819Y-79128372D01*
X89016269Y-79218877D01*
X89166773Y-79281218D01*
X89326548Y-79313000D01*
X89489452Y-79313000D01*
X89649227Y-79281218D01*
X89799731Y-79218877D01*
X89935181Y-79128372D01*
X90050372Y-79013181D01*
X90140877Y-78877731D01*
X90203218Y-78727227D01*
X90235000Y-78567452D01*
X90235000Y-78404548D01*
X90203218Y-78244773D01*
X90140877Y-78094269D01*
X90063188Y-77978000D01*
X90140877Y-77861731D01*
X90203218Y-77711227D01*
X90235000Y-77551452D01*
X90235000Y-77388548D01*
X90203218Y-77228773D01*
X90140877Y-77078269D01*
X90063188Y-76962000D01*
X90140877Y-76845731D01*
X90203218Y-76695227D01*
X90235000Y-76535452D01*
X90235000Y-76372548D01*
X90203218Y-76212773D01*
X90140877Y-76062269D01*
X90050372Y-75926819D01*
X89935181Y-75811628D01*
X89799731Y-75721123D01*
X89649227Y-75658782D01*
X89489452Y-75627000D01*
X89326548Y-75627000D01*
X89166773Y-75658782D01*
X89016269Y-75721123D01*
X88880819Y-75811628D01*
X88765628Y-75926819D01*
X88675123Y-76062269D01*
X88612782Y-76212773D01*
X88581000Y-76372548D01*
X73833879Y-76372548D01*
X73852000Y-76281452D01*
X73852000Y-76118548D01*
X73820218Y-75958773D01*
X73757877Y-75808269D01*
X73667372Y-75672819D01*
X73552181Y-75557628D01*
X73416731Y-75467123D01*
X73266227Y-75404782D01*
X73106452Y-75373000D01*
X72943548Y-75373000D01*
X72783773Y-75404782D01*
X72633269Y-75467123D01*
X72497819Y-75557628D01*
X72382628Y-75672819D01*
X72292123Y-75808269D01*
X72229782Y-75958773D01*
X72198000Y-76118548D01*
X70042000Y-76118548D01*
X70010218Y-75958773D01*
X69947877Y-75808269D01*
X69857372Y-75672819D01*
X69742181Y-75557628D01*
X69606731Y-75467123D01*
X69456227Y-75404782D01*
X69296452Y-75373000D01*
X69133548Y-75373000D01*
X68973773Y-75404782D01*
X68823269Y-75467123D01*
X68687819Y-75557628D01*
X68572628Y-75672819D01*
X68482123Y-75808269D01*
X68419782Y-75958773D01*
X68388000Y-76118548D01*
X66232000Y-76118548D01*
X66200218Y-75958773D01*
X66137877Y-75808269D01*
X66047372Y-75672819D01*
X65932181Y-75557628D01*
X65796731Y-75467123D01*
X65646227Y-75404782D01*
X65486452Y-75373000D01*
X65323548Y-75373000D01*
X65163773Y-75404782D01*
X65013269Y-75467123D01*
X64877819Y-75557628D01*
X64762628Y-75672819D01*
X64672123Y-75808269D01*
X64609782Y-75958773D01*
X64578000Y-76118548D01*
X62422000Y-76118548D01*
X62390218Y-75958773D01*
X62327877Y-75808269D01*
X62237372Y-75672819D01*
X62122181Y-75557628D01*
X61986731Y-75467123D01*
X61836227Y-75404782D01*
X61676452Y-75373000D01*
X61513548Y-75373000D01*
X61353773Y-75404782D01*
X61203269Y-75467123D01*
X61067819Y-75557628D01*
X60952628Y-75672819D01*
X60862123Y-75808269D01*
X60799782Y-75958773D01*
X60768000Y-76118548D01*
X60325000Y-76118548D01*
X60325000Y-72308548D01*
X60768000Y-72308548D01*
X60768000Y-72471452D01*
X60799782Y-72631227D01*
X60862123Y-72781731D01*
X60952628Y-72917181D01*
X61067819Y-73032372D01*
X61203269Y-73122877D01*
X61353773Y-73185218D01*
X61513548Y-73217000D01*
X61676452Y-73217000D01*
X61836227Y-73185218D01*
X61986731Y-73122877D01*
X62122181Y-73032372D01*
X62237372Y-72917181D01*
X62327877Y-72781731D01*
X62390218Y-72631227D01*
X62422000Y-72471452D01*
X62422000Y-72308548D01*
X64578000Y-72308548D01*
X64578000Y-72471452D01*
X64609782Y-72631227D01*
X64672123Y-72781731D01*
X64762628Y-72917181D01*
X64877819Y-73032372D01*
X65013269Y-73122877D01*
X65163773Y-73185218D01*
X65323548Y-73217000D01*
X65486452Y-73217000D01*
X65646227Y-73185218D01*
X65796731Y-73122877D01*
X65932181Y-73032372D01*
X66047372Y-72917181D01*
X66137877Y-72781731D01*
X66200218Y-72631227D01*
X66232000Y-72471452D01*
X66232000Y-72308548D01*
X68388000Y-72308548D01*
X68388000Y-72471452D01*
X68419782Y-72631227D01*
X68482123Y-72781731D01*
X68572628Y-72917181D01*
X68687819Y-73032372D01*
X68823269Y-73122877D01*
X68973773Y-73185218D01*
X69133548Y-73217000D01*
X69296452Y-73217000D01*
X69456227Y-73185218D01*
X69606731Y-73122877D01*
X69742181Y-73032372D01*
X69857372Y-72917181D01*
X69947877Y-72781731D01*
X70010218Y-72631227D01*
X70042000Y-72471452D01*
X70042000Y-72308548D01*
X72198000Y-72308548D01*
X72198000Y-72471452D01*
X72229782Y-72631227D01*
X72292123Y-72781731D01*
X72382628Y-72917181D01*
X72497819Y-73032372D01*
X72633269Y-73122877D01*
X72783773Y-73185218D01*
X72943548Y-73217000D01*
X73106452Y-73217000D01*
X73266227Y-73185218D01*
X73416731Y-73122877D01*
X73552181Y-73032372D01*
X73667372Y-72917181D01*
X73757877Y-72781731D01*
X73820218Y-72631227D01*
X73852000Y-72471452D01*
X73852000Y-72308548D01*
X73820218Y-72148773D01*
X73757877Y-71998269D01*
X73667372Y-71862819D01*
X73552181Y-71747628D01*
X73416731Y-71657123D01*
X73266227Y-71594782D01*
X73106452Y-71563000D01*
X72943548Y-71563000D01*
X72783773Y-71594782D01*
X72633269Y-71657123D01*
X72497819Y-71747628D01*
X72382628Y-71862819D01*
X72292123Y-71998269D01*
X72229782Y-72148773D01*
X72198000Y-72308548D01*
X70042000Y-72308548D01*
X70010218Y-72148773D01*
X69947877Y-71998269D01*
X69857372Y-71862819D01*
X69742181Y-71747628D01*
X69606731Y-71657123D01*
X69456227Y-71594782D01*
X69296452Y-71563000D01*
X69133548Y-71563000D01*
X68973773Y-71594782D01*
X68823269Y-71657123D01*
X68687819Y-71747628D01*
X68572628Y-71862819D01*
X68482123Y-71998269D01*
X68419782Y-72148773D01*
X68388000Y-72308548D01*
X66232000Y-72308548D01*
X66200218Y-72148773D01*
X66137877Y-71998269D01*
X66047372Y-71862819D01*
X65932181Y-71747628D01*
X65796731Y-71657123D01*
X65646227Y-71594782D01*
X65486452Y-71563000D01*
X65323548Y-71563000D01*
X65163773Y-71594782D01*
X65013269Y-71657123D01*
X64877819Y-71747628D01*
X64762628Y-71862819D01*
X64672123Y-71998269D01*
X64609782Y-72148773D01*
X64578000Y-72308548D01*
X62422000Y-72308548D01*
X62390218Y-72148773D01*
X62327877Y-71998269D01*
X62237372Y-71862819D01*
X62122181Y-71747628D01*
X61986731Y-71657123D01*
X61836227Y-71594782D01*
X61676452Y-71563000D01*
X61513548Y-71563000D01*
X61353773Y-71594782D01*
X61203269Y-71657123D01*
X61067819Y-71747628D01*
X60952628Y-71862819D01*
X60862123Y-71998269D01*
X60799782Y-72148773D01*
X60768000Y-72308548D01*
X60325000Y-72308548D01*
X60325000Y-69514548D01*
X81723000Y-69514548D01*
X81723000Y-69677452D01*
X81754782Y-69837227D01*
X81817123Y-69987731D01*
X81894812Y-70104000D01*
X81817123Y-70220269D01*
X81754782Y-70370773D01*
X81723000Y-70530548D01*
X81723000Y-70693452D01*
X81754782Y-70853227D01*
X81817123Y-71003731D01*
X81894812Y-71120000D01*
X81817123Y-71236269D01*
X81754782Y-71386773D01*
X81723000Y-71546548D01*
X81723000Y-71709452D01*
X81754782Y-71869227D01*
X81817123Y-72019731D01*
X81907628Y-72155181D01*
X82022819Y-72270372D01*
X82158269Y-72360877D01*
X82308773Y-72423218D01*
X82468548Y-72455000D01*
X82631452Y-72455000D01*
X82791227Y-72423218D01*
X82941731Y-72360877D01*
X83077181Y-72270372D01*
X83192372Y-72155181D01*
X83282877Y-72019731D01*
X83345218Y-71869227D01*
X83377000Y-71709452D01*
X83377000Y-71546548D01*
X83345218Y-71386773D01*
X83282877Y-71236269D01*
X83205188Y-71120000D01*
X83282877Y-71003731D01*
X83345218Y-70853227D01*
X83377000Y-70693452D01*
X83377000Y-70530548D01*
X83345218Y-70370773D01*
X83282877Y-70220269D01*
X83205188Y-70104000D01*
X83282877Y-69987731D01*
X83345218Y-69837227D01*
X83377000Y-69677452D01*
X83377000Y-69514548D01*
X83345218Y-69354773D01*
X83282877Y-69204269D01*
X83192372Y-69068819D01*
X83077181Y-68953628D01*
X82941731Y-68863123D01*
X82791227Y-68800782D01*
X82631452Y-68769000D01*
X82468548Y-68769000D01*
X82308773Y-68800782D01*
X82158269Y-68863123D01*
X82022819Y-68953628D01*
X81907628Y-69068819D01*
X81817123Y-69204269D01*
X81754782Y-69354773D01*
X81723000Y-69514548D01*
X60325000Y-69514548D01*
X60325000Y-67863548D01*
X60768000Y-67863548D01*
X60768000Y-68026452D01*
X60799782Y-68186227D01*
X60862123Y-68336731D01*
X60952628Y-68472181D01*
X61067819Y-68587372D01*
X61203269Y-68677877D01*
X61353773Y-68740218D01*
X61513548Y-68772000D01*
X61676452Y-68772000D01*
X61836227Y-68740218D01*
X61986731Y-68677877D01*
X62122181Y-68587372D01*
X62237372Y-68472181D01*
X62327877Y-68336731D01*
X62390218Y-68186227D01*
X62422000Y-68026452D01*
X62422000Y-67863548D01*
X64578000Y-67863548D01*
X64578000Y-68026452D01*
X64609782Y-68186227D01*
X64672123Y-68336731D01*
X64762628Y-68472181D01*
X64877819Y-68587372D01*
X65013269Y-68677877D01*
X65163773Y-68740218D01*
X65323548Y-68772000D01*
X65486452Y-68772000D01*
X65646227Y-68740218D01*
X65796731Y-68677877D01*
X65932181Y-68587372D01*
X66047372Y-68472181D01*
X66137877Y-68336731D01*
X66200218Y-68186227D01*
X66232000Y-68026452D01*
X66232000Y-67863548D01*
X68388000Y-67863548D01*
X68388000Y-68026452D01*
X68419782Y-68186227D01*
X68482123Y-68336731D01*
X68572628Y-68472181D01*
X68687819Y-68587372D01*
X68823269Y-68677877D01*
X68973773Y-68740218D01*
X69133548Y-68772000D01*
X69296452Y-68772000D01*
X69456227Y-68740218D01*
X69606731Y-68677877D01*
X69742181Y-68587372D01*
X69857372Y-68472181D01*
X69947877Y-68336731D01*
X70010218Y-68186227D01*
X70042000Y-68026452D01*
X70042000Y-67863548D01*
X72198000Y-67863548D01*
X72198000Y-68026452D01*
X72229782Y-68186227D01*
X72292123Y-68336731D01*
X72382628Y-68472181D01*
X72497819Y-68587372D01*
X72633269Y-68677877D01*
X72783773Y-68740218D01*
X72943548Y-68772000D01*
X73106452Y-68772000D01*
X73266227Y-68740218D01*
X73416731Y-68677877D01*
X73552181Y-68587372D01*
X73667372Y-68472181D01*
X73757877Y-68336731D01*
X73820218Y-68186227D01*
X73852000Y-68026452D01*
X73852000Y-67863548D01*
X73820218Y-67703773D01*
X73757877Y-67553269D01*
X73667372Y-67417819D01*
X73552181Y-67302628D01*
X73416731Y-67212123D01*
X73266227Y-67149782D01*
X73106452Y-67118000D01*
X72943548Y-67118000D01*
X72783773Y-67149782D01*
X72633269Y-67212123D01*
X72497819Y-67302628D01*
X72382628Y-67417819D01*
X72292123Y-67553269D01*
X72229782Y-67703773D01*
X72198000Y-67863548D01*
X70042000Y-67863548D01*
X70010218Y-67703773D01*
X69947877Y-67553269D01*
X69857372Y-67417819D01*
X69742181Y-67302628D01*
X69606731Y-67212123D01*
X69456227Y-67149782D01*
X69296452Y-67118000D01*
X69133548Y-67118000D01*
X68973773Y-67149782D01*
X68823269Y-67212123D01*
X68687819Y-67302628D01*
X68572628Y-67417819D01*
X68482123Y-67553269D01*
X68419782Y-67703773D01*
X68388000Y-67863548D01*
X66232000Y-67863548D01*
X66200218Y-67703773D01*
X66137877Y-67553269D01*
X66047372Y-67417819D01*
X65932181Y-67302628D01*
X65796731Y-67212123D01*
X65646227Y-67149782D01*
X65486452Y-67118000D01*
X65323548Y-67118000D01*
X65163773Y-67149782D01*
X65013269Y-67212123D01*
X64877819Y-67302628D01*
X64762628Y-67417819D01*
X64672123Y-67553269D01*
X64609782Y-67703773D01*
X64578000Y-67863548D01*
X62422000Y-67863548D01*
X62390218Y-67703773D01*
X62327877Y-67553269D01*
X62237372Y-67417819D01*
X62122181Y-67302628D01*
X61986731Y-67212123D01*
X61836227Y-67149782D01*
X61676452Y-67118000D01*
X61513548Y-67118000D01*
X61353773Y-67149782D01*
X61203269Y-67212123D01*
X61067819Y-67302628D01*
X60952628Y-67417819D01*
X60862123Y-67553269D01*
X60799782Y-67703773D01*
X60768000Y-67863548D01*
X60325000Y-67863548D01*
X60325000Y-63418548D01*
X60768000Y-63418548D01*
X60768000Y-63581452D01*
X60799782Y-63741227D01*
X60862123Y-63891731D01*
X60952628Y-64027181D01*
X61067819Y-64142372D01*
X61203269Y-64232877D01*
X61353773Y-64295218D01*
X61513548Y-64327000D01*
X61676452Y-64327000D01*
X61836227Y-64295218D01*
X61986731Y-64232877D01*
X62122181Y-64142372D01*
X62237372Y-64027181D01*
X62327877Y-63891731D01*
X62390218Y-63741227D01*
X62422000Y-63581452D01*
X62422000Y-63418548D01*
X64578000Y-63418548D01*
X64578000Y-63581452D01*
X64609782Y-63741227D01*
X64672123Y-63891731D01*
X64762628Y-64027181D01*
X64877819Y-64142372D01*
X65013269Y-64232877D01*
X65163773Y-64295218D01*
X65323548Y-64327000D01*
X65486452Y-64327000D01*
X65646227Y-64295218D01*
X65796731Y-64232877D01*
X65932181Y-64142372D01*
X66047372Y-64027181D01*
X66137877Y-63891731D01*
X66200218Y-63741227D01*
X66232000Y-63581452D01*
X66232000Y-63418548D01*
X68388000Y-63418548D01*
X68388000Y-63581452D01*
X68419782Y-63741227D01*
X68482123Y-63891731D01*
X68572628Y-64027181D01*
X68687819Y-64142372D01*
X68823269Y-64232877D01*
X68973773Y-64295218D01*
X69133548Y-64327000D01*
X69296452Y-64327000D01*
X69456227Y-64295218D01*
X69606731Y-64232877D01*
X69742181Y-64142372D01*
X69857372Y-64027181D01*
X69947877Y-63891731D01*
X70010218Y-63741227D01*
X70042000Y-63581452D01*
X70042000Y-63418548D01*
X72198000Y-63418548D01*
X72198000Y-63581452D01*
X72229782Y-63741227D01*
X72292123Y-63891731D01*
X72382628Y-64027181D01*
X72497819Y-64142372D01*
X72633269Y-64232877D01*
X72783773Y-64295218D01*
X72943548Y-64327000D01*
X73106452Y-64327000D01*
X73266227Y-64295218D01*
X73416731Y-64232877D01*
X73552181Y-64142372D01*
X73667372Y-64027181D01*
X73757877Y-63891731D01*
X73820218Y-63741227D01*
X73852000Y-63581452D01*
X73852000Y-63418548D01*
X73820218Y-63258773D01*
X73757877Y-63108269D01*
X73667372Y-62972819D01*
X73552181Y-62857628D01*
X73416731Y-62767123D01*
X73266227Y-62704782D01*
X73106452Y-62673000D01*
X72943548Y-62673000D01*
X72783773Y-62704782D01*
X72633269Y-62767123D01*
X72497819Y-62857628D01*
X72382628Y-62972819D01*
X72292123Y-63108269D01*
X72229782Y-63258773D01*
X72198000Y-63418548D01*
X70042000Y-63418548D01*
X70010218Y-63258773D01*
X69947877Y-63108269D01*
X69857372Y-62972819D01*
X69742181Y-62857628D01*
X69606731Y-62767123D01*
X69456227Y-62704782D01*
X69296452Y-62673000D01*
X69133548Y-62673000D01*
X68973773Y-62704782D01*
X68823269Y-62767123D01*
X68687819Y-62857628D01*
X68572628Y-62972819D01*
X68482123Y-63108269D01*
X68419782Y-63258773D01*
X68388000Y-63418548D01*
X66232000Y-63418548D01*
X66200218Y-63258773D01*
X66137877Y-63108269D01*
X66047372Y-62972819D01*
X65932181Y-62857628D01*
X65796731Y-62767123D01*
X65646227Y-62704782D01*
X65486452Y-62673000D01*
X65323548Y-62673000D01*
X65163773Y-62704782D01*
X65013269Y-62767123D01*
X64877819Y-62857628D01*
X64762628Y-62972819D01*
X64672123Y-63108269D01*
X64609782Y-63258773D01*
X64578000Y-63418548D01*
X62422000Y-63418548D01*
X62390218Y-63258773D01*
X62327877Y-63108269D01*
X62237372Y-62972819D01*
X62122181Y-62857628D01*
X61986731Y-62767123D01*
X61836227Y-62704782D01*
X61676452Y-62673000D01*
X61513548Y-62673000D01*
X61353773Y-62704782D01*
X61203269Y-62767123D01*
X61067819Y-62857628D01*
X60952628Y-62972819D01*
X60862123Y-63108269D01*
X60799782Y-63258773D01*
X60768000Y-63418548D01*
X60325000Y-63418548D01*
X60325000Y-59608548D01*
X60768000Y-59608548D01*
X60768000Y-59771452D01*
X60799782Y-59931227D01*
X60862123Y-60081731D01*
X60952628Y-60217181D01*
X61067819Y-60332372D01*
X61203269Y-60422877D01*
X61353773Y-60485218D01*
X61513548Y-60517000D01*
X61676452Y-60517000D01*
X61836227Y-60485218D01*
X61986731Y-60422877D01*
X62122181Y-60332372D01*
X62237372Y-60217181D01*
X62327877Y-60081731D01*
X62390218Y-59931227D01*
X62422000Y-59771452D01*
X62422000Y-59608548D01*
X64578000Y-59608548D01*
X64578000Y-59771452D01*
X64609782Y-59931227D01*
X64672123Y-60081731D01*
X64762628Y-60217181D01*
X64877819Y-60332372D01*
X65013269Y-60422877D01*
X65163773Y-60485218D01*
X65323548Y-60517000D01*
X65486452Y-60517000D01*
X65646227Y-60485218D01*
X65796731Y-60422877D01*
X65932181Y-60332372D01*
X66047372Y-60217181D01*
X66137877Y-60081731D01*
X66200218Y-59931227D01*
X66232000Y-59771452D01*
X66232000Y-59608548D01*
X68388000Y-59608548D01*
X68388000Y-59771452D01*
X68419782Y-59931227D01*
X68482123Y-60081731D01*
X68572628Y-60217181D01*
X68687819Y-60332372D01*
X68823269Y-60422877D01*
X68973773Y-60485218D01*
X69133548Y-60517000D01*
X69296452Y-60517000D01*
X69456227Y-60485218D01*
X69606731Y-60422877D01*
X69742181Y-60332372D01*
X69857372Y-60217181D01*
X69947877Y-60081731D01*
X70010218Y-59931227D01*
X70042000Y-59771452D01*
X70042000Y-59608548D01*
X72198000Y-59608548D01*
X72198000Y-59771452D01*
X72229782Y-59931227D01*
X72292123Y-60081731D01*
X72382628Y-60217181D01*
X72497819Y-60332372D01*
X72633269Y-60422877D01*
X72783773Y-60485218D01*
X72943548Y-60517000D01*
X73106452Y-60517000D01*
X73266227Y-60485218D01*
X73416731Y-60422877D01*
X73552181Y-60332372D01*
X73641005Y-60243548D01*
X75373000Y-60243548D01*
X75373000Y-60406452D01*
X75404782Y-60566227D01*
X75467123Y-60716731D01*
X75557628Y-60852181D01*
X75665447Y-60960000D01*
X75557628Y-61067819D01*
X75467123Y-61203269D01*
X75404782Y-61353773D01*
X75373000Y-61513548D01*
X75373000Y-61676452D01*
X75404782Y-61836227D01*
X75467123Y-61986731D01*
X75557628Y-62122181D01*
X75672819Y-62237372D01*
X75808269Y-62327877D01*
X75958773Y-62390218D01*
X76118548Y-62422000D01*
X76281452Y-62422000D01*
X76441227Y-62390218D01*
X76591731Y-62327877D01*
X76727181Y-62237372D01*
X76835000Y-62129553D01*
X76942819Y-62237372D01*
X77078269Y-62327877D01*
X77228773Y-62390218D01*
X77388548Y-62422000D01*
X77551452Y-62422000D01*
X77711227Y-62390218D01*
X77861731Y-62327877D01*
X77997181Y-62237372D01*
X78112372Y-62122181D01*
X78202877Y-61986731D01*
X78265218Y-61836227D01*
X78297000Y-61676452D01*
X78297000Y-61513548D01*
X78265218Y-61353773D01*
X78202877Y-61203269D01*
X78112372Y-61067819D01*
X78004553Y-60960000D01*
X78112372Y-60852181D01*
X78202877Y-60716731D01*
X78265218Y-60566227D01*
X78297000Y-60406452D01*
X78297000Y-60243548D01*
X78265218Y-60083773D01*
X78202877Y-59933269D01*
X78112372Y-59797819D01*
X77997181Y-59682628D01*
X77861731Y-59592123D01*
X77711227Y-59529782D01*
X77551452Y-59498000D01*
X77388548Y-59498000D01*
X77228773Y-59529782D01*
X77078269Y-59592123D01*
X76942819Y-59682628D01*
X76835000Y-59790447D01*
X76727181Y-59682628D01*
X76591731Y-59592123D01*
X76441227Y-59529782D01*
X76281452Y-59498000D01*
X76118548Y-59498000D01*
X75958773Y-59529782D01*
X75808269Y-59592123D01*
X75672819Y-59682628D01*
X75557628Y-59797819D01*
X75467123Y-59933269D01*
X75404782Y-60083773D01*
X75373000Y-60243548D01*
X73641005Y-60243548D01*
X73667372Y-60217181D01*
X73757877Y-60081731D01*
X73820218Y-59931227D01*
X73852000Y-59771452D01*
X73852000Y-59608548D01*
X73820218Y-59448773D01*
X73757877Y-59298269D01*
X73667372Y-59162819D01*
X73552181Y-59047628D01*
X73416731Y-58957123D01*
X73266227Y-58894782D01*
X73106452Y-58863000D01*
X72943548Y-58863000D01*
X72783773Y-58894782D01*
X72633269Y-58957123D01*
X72497819Y-59047628D01*
X72382628Y-59162819D01*
X72292123Y-59298269D01*
X72229782Y-59448773D01*
X72198000Y-59608548D01*
X70042000Y-59608548D01*
X70010218Y-59448773D01*
X69947877Y-59298269D01*
X69857372Y-59162819D01*
X69742181Y-59047628D01*
X69606731Y-58957123D01*
X69456227Y-58894782D01*
X69296452Y-58863000D01*
X69133548Y-58863000D01*
X68973773Y-58894782D01*
X68823269Y-58957123D01*
X68687819Y-59047628D01*
X68572628Y-59162819D01*
X68482123Y-59298269D01*
X68419782Y-59448773D01*
X68388000Y-59608548D01*
X66232000Y-59608548D01*
X66200218Y-59448773D01*
X66137877Y-59298269D01*
X66047372Y-59162819D01*
X65932181Y-59047628D01*
X65796731Y-58957123D01*
X65646227Y-58894782D01*
X65486452Y-58863000D01*
X65323548Y-58863000D01*
X65163773Y-58894782D01*
X65013269Y-58957123D01*
X64877819Y-59047628D01*
X64762628Y-59162819D01*
X64672123Y-59298269D01*
X64609782Y-59448773D01*
X64578000Y-59608548D01*
X62422000Y-59608548D01*
X62390218Y-59448773D01*
X62327877Y-59298269D01*
X62237372Y-59162819D01*
X62122181Y-59047628D01*
X61986731Y-58957123D01*
X61836227Y-58894782D01*
X61676452Y-58863000D01*
X61513548Y-58863000D01*
X61353773Y-58894782D01*
X61203269Y-58957123D01*
X61067819Y-59047628D01*
X60952628Y-59162819D01*
X60862123Y-59298269D01*
X60799782Y-59448773D01*
X60768000Y-59608548D01*
X60325000Y-59608548D01*
X60325000Y-57068548D01*
X75373000Y-57068548D01*
X75373000Y-57231452D01*
X75404782Y-57391227D01*
X75467123Y-57541731D01*
X75557628Y-57677181D01*
X75665447Y-57785000D01*
X75557628Y-57892819D01*
X75467123Y-58028269D01*
X75404782Y-58178773D01*
X75373000Y-58338548D01*
X75373000Y-58501452D01*
X75404782Y-58661227D01*
X75467123Y-58811731D01*
X75557628Y-58947181D01*
X75672819Y-59062372D01*
X75808269Y-59152877D01*
X75958773Y-59215218D01*
X76118548Y-59247000D01*
X76281452Y-59247000D01*
X76441227Y-59215218D01*
X76591731Y-59152877D01*
X76727181Y-59062372D01*
X76835000Y-58954553D01*
X76942819Y-59062372D01*
X77078269Y-59152877D01*
X77228773Y-59215218D01*
X77388548Y-59247000D01*
X77551452Y-59247000D01*
X77711227Y-59215218D01*
X77861731Y-59152877D01*
X77997181Y-59062372D01*
X78112372Y-58947181D01*
X78202877Y-58811731D01*
X78265218Y-58661227D01*
X78297000Y-58501452D01*
X78297000Y-58338548D01*
X78265218Y-58178773D01*
X78202877Y-58028269D01*
X78112372Y-57892819D01*
X78004553Y-57785000D01*
X78112372Y-57677181D01*
X78202877Y-57541731D01*
X78265218Y-57391227D01*
X78297000Y-57231452D01*
X78297000Y-57068548D01*
X78265218Y-56908773D01*
X78202877Y-56758269D01*
X78112372Y-56622819D01*
X77997181Y-56507628D01*
X77861731Y-56417123D01*
X77711227Y-56354782D01*
X77551452Y-56323000D01*
X77388548Y-56323000D01*
X77228773Y-56354782D01*
X77078269Y-56417123D01*
X76942819Y-56507628D01*
X76835000Y-56615447D01*
X76727181Y-56507628D01*
X76591731Y-56417123D01*
X76441227Y-56354782D01*
X76281452Y-56323000D01*
X76118548Y-56323000D01*
X75958773Y-56354782D01*
X75808269Y-56417123D01*
X75672819Y-56507628D01*
X75557628Y-56622819D01*
X75467123Y-56758269D01*
X75404782Y-56908773D01*
X75373000Y-57068548D01*
X60325000Y-57068548D01*
X60325000Y-55798548D01*
X60768000Y-55798548D01*
X60768000Y-55961452D01*
X60799782Y-56121227D01*
X60862123Y-56271731D01*
X60952628Y-56407181D01*
X61067819Y-56522372D01*
X61203269Y-56612877D01*
X61353773Y-56675218D01*
X61513548Y-56707000D01*
X61676452Y-56707000D01*
X61836227Y-56675218D01*
X61986731Y-56612877D01*
X62122181Y-56522372D01*
X62237372Y-56407181D01*
X62327877Y-56271731D01*
X62390218Y-56121227D01*
X62422000Y-55961452D01*
X62422000Y-55798548D01*
X64578000Y-55798548D01*
X64578000Y-55961452D01*
X64609782Y-56121227D01*
X64672123Y-56271731D01*
X64762628Y-56407181D01*
X64877819Y-56522372D01*
X65013269Y-56612877D01*
X65163773Y-56675218D01*
X65323548Y-56707000D01*
X65486452Y-56707000D01*
X65646227Y-56675218D01*
X65796731Y-56612877D01*
X65932181Y-56522372D01*
X66047372Y-56407181D01*
X66137877Y-56271731D01*
X66200218Y-56121227D01*
X66232000Y-55961452D01*
X66232000Y-55798548D01*
X68388000Y-55798548D01*
X68388000Y-55961452D01*
X68419782Y-56121227D01*
X68482123Y-56271731D01*
X68572628Y-56407181D01*
X68687819Y-56522372D01*
X68823269Y-56612877D01*
X68973773Y-56675218D01*
X69133548Y-56707000D01*
X69296452Y-56707000D01*
X69456227Y-56675218D01*
X69606731Y-56612877D01*
X69742181Y-56522372D01*
X69857372Y-56407181D01*
X69947877Y-56271731D01*
X70010218Y-56121227D01*
X70042000Y-55961452D01*
X70042000Y-55798548D01*
X72198000Y-55798548D01*
X72198000Y-55961452D01*
X72229782Y-56121227D01*
X72292123Y-56271731D01*
X72382628Y-56407181D01*
X72497819Y-56522372D01*
X72633269Y-56612877D01*
X72783773Y-56675218D01*
X72943548Y-56707000D01*
X73106452Y-56707000D01*
X73266227Y-56675218D01*
X73416731Y-56612877D01*
X73552181Y-56522372D01*
X73667372Y-56407181D01*
X73757877Y-56271731D01*
X73820218Y-56121227D01*
X73852000Y-55961452D01*
X73852000Y-55798548D01*
X110298000Y-55798548D01*
X110298000Y-55961452D01*
X110329782Y-56121227D01*
X110392123Y-56271731D01*
X110482628Y-56407181D01*
X110597819Y-56522372D01*
X110733269Y-56612877D01*
X110883773Y-56675218D01*
X111043548Y-56707000D01*
X111206452Y-56707000D01*
X111366227Y-56675218D01*
X111516731Y-56612877D01*
X111652181Y-56522372D01*
X111767372Y-56407181D01*
X111857877Y-56271731D01*
X111920218Y-56121227D01*
X111952000Y-55961452D01*
X111952000Y-55798548D01*
X111920218Y-55638773D01*
X111857877Y-55488269D01*
X111767372Y-55352819D01*
X111652181Y-55237628D01*
X111516731Y-55147123D01*
X111366227Y-55084782D01*
X111206452Y-55053000D01*
X111043548Y-55053000D01*
X110883773Y-55084782D01*
X110733269Y-55147123D01*
X110597819Y-55237628D01*
X110482628Y-55352819D01*
X110392123Y-55488269D01*
X110329782Y-55638773D01*
X110298000Y-55798548D01*
X73852000Y-55798548D01*
X73820218Y-55638773D01*
X73757877Y-55488269D01*
X73667372Y-55352819D01*
X73552181Y-55237628D01*
X73416731Y-55147123D01*
X73266227Y-55084782D01*
X73106452Y-55053000D01*
X72943548Y-55053000D01*
X72783773Y-55084782D01*
X72633269Y-55147123D01*
X72497819Y-55237628D01*
X72382628Y-55352819D01*
X72292123Y-55488269D01*
X72229782Y-55638773D01*
X72198000Y-55798548D01*
X70042000Y-55798548D01*
X70010218Y-55638773D01*
X69947877Y-55488269D01*
X69857372Y-55352819D01*
X69742181Y-55237628D01*
X69606731Y-55147123D01*
X69456227Y-55084782D01*
X69296452Y-55053000D01*
X69133548Y-55053000D01*
X68973773Y-55084782D01*
X68823269Y-55147123D01*
X68687819Y-55237628D01*
X68572628Y-55352819D01*
X68482123Y-55488269D01*
X68419782Y-55638773D01*
X68388000Y-55798548D01*
X66232000Y-55798548D01*
X66200218Y-55638773D01*
X66137877Y-55488269D01*
X66047372Y-55352819D01*
X65932181Y-55237628D01*
X65796731Y-55147123D01*
X65646227Y-55084782D01*
X65486452Y-55053000D01*
X65323548Y-55053000D01*
X65163773Y-55084782D01*
X65013269Y-55147123D01*
X64877819Y-55237628D01*
X64762628Y-55352819D01*
X64672123Y-55488269D01*
X64609782Y-55638773D01*
X64578000Y-55798548D01*
X62422000Y-55798548D01*
X62390218Y-55638773D01*
X62327877Y-55488269D01*
X62237372Y-55352819D01*
X62122181Y-55237628D01*
X61986731Y-55147123D01*
X61836227Y-55084782D01*
X61676452Y-55053000D01*
X61513548Y-55053000D01*
X61353773Y-55084782D01*
X61203269Y-55147123D01*
X61067819Y-55237628D01*
X60952628Y-55352819D01*
X60862123Y-55488269D01*
X60799782Y-55638773D01*
X60768000Y-55798548D01*
X60325000Y-55798548D01*
X60325000Y-54509553D01*
X60432819Y-54617372D01*
X60568269Y-54707877D01*
X60718773Y-54770218D01*
X60878548Y-54802000D01*
X61041452Y-54802000D01*
X61201227Y-54770218D01*
X61351731Y-54707877D01*
X61487181Y-54617372D01*
X61602372Y-54502181D01*
X61692877Y-54366731D01*
X61755218Y-54216227D01*
X61787000Y-54056452D01*
X61787000Y-53893548D01*
X61755218Y-53733773D01*
X61692877Y-53583269D01*
X61602372Y-53447819D01*
X61494553Y-53340000D01*
X61576005Y-53258548D01*
X65467000Y-53258548D01*
X65467000Y-53421452D01*
X65498782Y-53581227D01*
X65561123Y-53731731D01*
X65651628Y-53867181D01*
X65766819Y-53982372D01*
X65902269Y-54072877D01*
X66052773Y-54135218D01*
X66212548Y-54167000D01*
X66375452Y-54167000D01*
X66535227Y-54135218D01*
X66685731Y-54072877D01*
X66821181Y-53982372D01*
X66865500Y-53938053D01*
X66909819Y-53982372D01*
X67045269Y-54072877D01*
X67195773Y-54135218D01*
X67355548Y-54167000D01*
X67518452Y-54167000D01*
X67678227Y-54135218D01*
X67828731Y-54072877D01*
X67964181Y-53982372D01*
X68008500Y-53938053D01*
X68052819Y-53982372D01*
X68188269Y-54072877D01*
X68338773Y-54135218D01*
X68498548Y-54167000D01*
X68661452Y-54167000D01*
X68821227Y-54135218D01*
X68971731Y-54072877D01*
X69107181Y-53982372D01*
X69222372Y-53867181D01*
X69312877Y-53731731D01*
X69375218Y-53581227D01*
X69407000Y-53421452D01*
X69407000Y-53258548D01*
X69375218Y-53098773D01*
X69312877Y-52948269D01*
X69222372Y-52812819D01*
X69160101Y-52750548D01*
X91883000Y-52750548D01*
X91883000Y-52913452D01*
X91914782Y-53073227D01*
X91977123Y-53223731D01*
X92054812Y-53340000D01*
X91977123Y-53456269D01*
X91914782Y-53606773D01*
X91883000Y-53766548D01*
X91883000Y-53929452D01*
X91914782Y-54089227D01*
X91977123Y-54239731D01*
X92054812Y-54356000D01*
X91977123Y-54472269D01*
X91914782Y-54622773D01*
X91883000Y-54782548D01*
X91883000Y-54945452D01*
X91914782Y-55105227D01*
X91977123Y-55255731D01*
X92067628Y-55391181D01*
X92182819Y-55506372D01*
X92318269Y-55596877D01*
X92468773Y-55659218D01*
X92628548Y-55691000D01*
X92791452Y-55691000D01*
X92951227Y-55659218D01*
X93101731Y-55596877D01*
X93237181Y-55506372D01*
X93352372Y-55391181D01*
X93442877Y-55255731D01*
X93505218Y-55105227D01*
X93535500Y-54952993D01*
X93565782Y-55105227D01*
X93628123Y-55255731D01*
X93718628Y-55391181D01*
X93833819Y-55506372D01*
X93969269Y-55596877D01*
X94119773Y-55659218D01*
X94279548Y-55691000D01*
X94442452Y-55691000D01*
X94602227Y-55659218D01*
X94752731Y-55596877D01*
X94888181Y-55506372D01*
X95003372Y-55391181D01*
X95093877Y-55255731D01*
X95156218Y-55105227D01*
X95188000Y-54945452D01*
X95188000Y-54782548D01*
X95156218Y-54622773D01*
X95093877Y-54472269D01*
X95016188Y-54356000D01*
X95093877Y-54239731D01*
X95156218Y-54089227D01*
X95188000Y-53929452D01*
X95188000Y-53766548D01*
X95156218Y-53606773D01*
X95093877Y-53456269D01*
X95016188Y-53340000D01*
X95093877Y-53223731D01*
X95156218Y-53073227D01*
X95188000Y-52913452D01*
X95188000Y-52750548D01*
X95156218Y-52590773D01*
X95093877Y-52440269D01*
X95003372Y-52304819D01*
X94888181Y-52189628D01*
X94752731Y-52099123D01*
X94602227Y-52036782D01*
X94442452Y-52005000D01*
X94279548Y-52005000D01*
X94119773Y-52036782D01*
X93969269Y-52099123D01*
X93833819Y-52189628D01*
X93718628Y-52304819D01*
X93628123Y-52440269D01*
X93565782Y-52590773D01*
X93535500Y-52743007D01*
X93505218Y-52590773D01*
X93442877Y-52440269D01*
X93352372Y-52304819D01*
X93237181Y-52189628D01*
X93101731Y-52099123D01*
X92951227Y-52036782D01*
X92791452Y-52005000D01*
X92628548Y-52005000D01*
X92468773Y-52036782D01*
X92318269Y-52099123D01*
X92182819Y-52189628D01*
X92067628Y-52304819D01*
X91977123Y-52440269D01*
X91914782Y-52590773D01*
X91883000Y-52750548D01*
X69160101Y-52750548D01*
X69107181Y-52697628D01*
X68971731Y-52607123D01*
X68821227Y-52544782D01*
X68661452Y-52513000D01*
X68498548Y-52513000D01*
X68338773Y-52544782D01*
X68188269Y-52607123D01*
X68052819Y-52697628D01*
X68008500Y-52741947D01*
X67964181Y-52697628D01*
X67828731Y-52607123D01*
X67678227Y-52544782D01*
X67518452Y-52513000D01*
X67355548Y-52513000D01*
X67195773Y-52544782D01*
X67045269Y-52607123D01*
X66909819Y-52697628D01*
X66865500Y-52741947D01*
X66821181Y-52697628D01*
X66685731Y-52607123D01*
X66535227Y-52544782D01*
X66375452Y-52513000D01*
X66212548Y-52513000D01*
X66052773Y-52544782D01*
X65902269Y-52607123D01*
X65766819Y-52697628D01*
X65651628Y-52812819D01*
X65561123Y-52948269D01*
X65498782Y-53098773D01*
X65467000Y-53258548D01*
X61576005Y-53258548D01*
X61602372Y-53232181D01*
X61692877Y-53096731D01*
X61755218Y-52946227D01*
X61787000Y-52786452D01*
X61787000Y-52623548D01*
X61755218Y-52463773D01*
X61692877Y-52313269D01*
X61602372Y-52177819D01*
X61487181Y-52062628D01*
X61388962Y-51997000D01*
X61401726Y-51997000D01*
X61589336Y-51978522D01*
X61830051Y-51905502D01*
X62051896Y-51786924D01*
X62246344Y-51627344D01*
X62405924Y-51432896D01*
X62524502Y-51211051D01*
X62597522Y-50970336D01*
X62622178Y-50720000D01*
X62597522Y-50469664D01*
X62524502Y-50228949D01*
X62405924Y-50007104D01*
X62246344Y-49812656D01*
X62051896Y-49653076D01*
X61830051Y-49534498D01*
X61617429Y-49470000D01*
X61830051Y-49405502D01*
X62051896Y-49286924D01*
X62246344Y-49127344D01*
X62405924Y-48932896D01*
X62524502Y-48711051D01*
X62597522Y-48470336D01*
X62605730Y-48387000D01*
X65504073Y-48387000D01*
X65561123Y-48524731D01*
M02*
