G04 #@! TF.GenerationSoftware,KiCad,Pcbnew,(5.1.5)-3*
G04 #@! TF.CreationDate,2020-02-06T00:19:04+09:00*
G04 #@! TF.ProjectId,GradientDriver,47726164-6965-46e7-9444-72697665722e,rev?*
G04 #@! TF.SameCoordinates,Original*
G04 #@! TF.FileFunction,Legend,Top*
G04 #@! TF.FilePolarity,Positive*
%FSLAX46Y46*%
G04 Gerber Fmt 4.6, Leading zero omitted, Abs format (unit mm)*
G04 Created by KiCad (PCBNEW (5.1.5)-3) date 2020-02-06 00:19:04*
%MOMM*%
%LPD*%
G04 APERTURE LIST*
%ADD10C,0.120000*%
%ADD11C,0.152400*%
%ADD12C,0.150000*%
G04 APERTURE END LIST*
D10*
X56828000Y-87962000D02*
X56828000Y-89072000D01*
X56828000Y-85172000D02*
X56828000Y-86282000D01*
X53118000Y-87962000D02*
X53118000Y-89072000D01*
X53118000Y-85172000D02*
X53118000Y-86282000D01*
X57378000Y-87122000D02*
X57878000Y-87372000D01*
X57878000Y-87372000D02*
X57878000Y-86872000D01*
X57878000Y-86872000D02*
X57378000Y-87122000D01*
X53504000Y-48220000D02*
X53504000Y-43160000D01*
X53504000Y-43160000D02*
X65224000Y-43160000D01*
X65224000Y-43160000D02*
X65224000Y-44580000D01*
X65224000Y-44580000D02*
X60724000Y-44580000D01*
X53504000Y-48220000D02*
X53504000Y-53280000D01*
X53504000Y-53280000D02*
X65224000Y-53280000D01*
X65224000Y-53280000D02*
X65224000Y-51860000D01*
X65224000Y-51860000D02*
X60724000Y-51860000D01*
X59614000Y-45470000D02*
X54114000Y-45470000D01*
X54114000Y-45470000D02*
X54114000Y-45970000D01*
X54114000Y-45970000D02*
X59614000Y-45970000D01*
X59614000Y-45970000D02*
X59614000Y-45470000D01*
X59614000Y-47970000D02*
X54114000Y-47970000D01*
X54114000Y-47970000D02*
X54114000Y-48470000D01*
X54114000Y-48470000D02*
X59614000Y-48470000D01*
X59614000Y-48470000D02*
X59614000Y-47970000D01*
X59614000Y-50470000D02*
X54114000Y-50470000D01*
X54114000Y-50470000D02*
X54114000Y-50970000D01*
X54114000Y-50970000D02*
X59614000Y-50970000D01*
X59614000Y-50970000D02*
X59614000Y-50470000D01*
X62714000Y-45720000D02*
X63314000Y-45420000D01*
X63314000Y-45420000D02*
X63314000Y-46020000D01*
X63314000Y-46020000D02*
X62714000Y-45720000D01*
X122550000Y-73836000D02*
X122550000Y-72726000D01*
X122550000Y-76626000D02*
X122550000Y-75516000D01*
X126260000Y-73836000D02*
X126260000Y-72726000D01*
X126260000Y-76626000D02*
X126260000Y-75516000D01*
X122000000Y-74676000D02*
X121500000Y-74426000D01*
X121500000Y-74426000D02*
X121500000Y-74926000D01*
X121500000Y-74926000D02*
X122000000Y-74676000D01*
X90518500Y-94057500D02*
X88088500Y-94057500D01*
X88758500Y-97127500D02*
X90518500Y-97127500D01*
X80289000Y-72810000D02*
X83439000Y-72810000D01*
X80289000Y-74510000D02*
X83439000Y-74510000D01*
X80289000Y-72810000D02*
X80289000Y-74510000D01*
X77661500Y-97080000D02*
X77661500Y-93670000D01*
X82221500Y-98670000D02*
X82221500Y-96210000D01*
X82221500Y-94540000D02*
X82221500Y-92080000D01*
X79167500Y-98670000D02*
X82221500Y-98670000D01*
X79167500Y-92080000D02*
X82221500Y-92080000D01*
X115529564Y-76014000D02*
X111425436Y-76014000D01*
X115529564Y-79434000D02*
X111425436Y-79434000D01*
X87008000Y-77468000D02*
X88208000Y-77468000D01*
X87008000Y-81468000D02*
X87008000Y-77468000D01*
X91808000Y-77468000D02*
X91808000Y-80168000D01*
X90608000Y-77468000D02*
X91808000Y-77468000D01*
X87008000Y-66800000D02*
X88208000Y-66800000D01*
X87008000Y-70800000D02*
X87008000Y-66800000D01*
X91808000Y-66800000D02*
X91808000Y-69500000D01*
X90608000Y-66800000D02*
X91808000Y-66800000D01*
X78626000Y-77468000D02*
X79826000Y-77468000D01*
X78626000Y-81468000D02*
X78626000Y-77468000D01*
X83426000Y-77468000D02*
X83426000Y-80168000D01*
X82226000Y-77468000D02*
X83426000Y-77468000D01*
X78626000Y-66800000D02*
X79826000Y-66800000D01*
X78626000Y-70800000D02*
X78626000Y-66800000D01*
X83426000Y-66800000D02*
X83426000Y-69500000D01*
X82226000Y-66800000D02*
X83426000Y-66800000D01*
X92236000Y-83816500D02*
X93936000Y-83816500D01*
X97756000Y-83816500D02*
X96056000Y-83816500D01*
X97756000Y-79360937D02*
X97756000Y-83816500D01*
X92236000Y-79360937D02*
X92236000Y-83816500D01*
X93300437Y-78296500D02*
X93936000Y-78296500D01*
X96691563Y-78296500D02*
X96056000Y-78296500D01*
X96691563Y-78296500D02*
X97756000Y-79360937D01*
X93300437Y-78296500D02*
X92236000Y-79360937D01*
X101188733Y-99697000D02*
X101531267Y-99697000D01*
X101188733Y-98677000D02*
X101531267Y-98677000D01*
X101249267Y-92204000D02*
X100906733Y-92204000D01*
X101249267Y-91184000D02*
X100906733Y-91184000D01*
X107313000Y-95788267D02*
X107313000Y-95445733D01*
X108333000Y-95788267D02*
X108333000Y-95445733D01*
X102997000Y-92944000D02*
X101047000Y-92944000D01*
X102997000Y-92944000D02*
X104947000Y-92944000D01*
X102997000Y-98064000D02*
X101047000Y-98064000D01*
X102997000Y-98064000D02*
X106447000Y-98064000D01*
X89374767Y-97978500D02*
X89032233Y-97978500D01*
X89374767Y-98998500D02*
X89032233Y-98998500D01*
X74137733Y-90172000D02*
X74480267Y-90172000D01*
X74137733Y-89152000D02*
X74480267Y-89152000D01*
X81503733Y-85342000D02*
X81846267Y-85342000D01*
X81503733Y-86362000D02*
X81846267Y-86362000D01*
X80230000Y-48832500D02*
X78530000Y-48832500D01*
X74710000Y-48832500D02*
X76410000Y-48832500D01*
X74710000Y-53288063D02*
X74710000Y-48832500D01*
X80230000Y-53288063D02*
X80230000Y-48832500D01*
X79165563Y-54352500D02*
X78530000Y-54352500D01*
X75774437Y-54352500D02*
X76410000Y-54352500D01*
X75774437Y-54352500D02*
X74710000Y-53288063D01*
X79165563Y-54352500D02*
X80230000Y-53288063D01*
X79165563Y-46732500D02*
X80230000Y-45668063D01*
X75774437Y-46732500D02*
X74710000Y-45668063D01*
X75774437Y-46732500D02*
X76410000Y-46732500D01*
X79165563Y-46732500D02*
X78530000Y-46732500D01*
X80230000Y-45668063D02*
X80230000Y-41212500D01*
X74710000Y-45668063D02*
X74710000Y-41212500D01*
X74710000Y-41212500D02*
X76410000Y-41212500D01*
X80230000Y-41212500D02*
X78530000Y-41212500D01*
X86785563Y-54352500D02*
X87850000Y-53288063D01*
X83394437Y-54352500D02*
X82330000Y-53288063D01*
X83394437Y-54352500D02*
X84030000Y-54352500D01*
X86785563Y-54352500D02*
X86150000Y-54352500D01*
X87850000Y-53288063D02*
X87850000Y-48832500D01*
X82330000Y-53288063D02*
X82330000Y-48832500D01*
X82330000Y-48832500D02*
X84030000Y-48832500D01*
X87850000Y-48832500D02*
X86150000Y-48832500D01*
X87850000Y-41212500D02*
X86150000Y-41212500D01*
X82330000Y-41212500D02*
X84030000Y-41212500D01*
X82330000Y-45668063D02*
X82330000Y-41212500D01*
X87850000Y-45668063D02*
X87850000Y-41212500D01*
X86785563Y-46732500D02*
X86150000Y-46732500D01*
X83394437Y-46732500D02*
X84030000Y-46732500D01*
X83394437Y-46732500D02*
X82330000Y-45668063D01*
X86785563Y-46732500D02*
X87850000Y-45668063D01*
X94405563Y-54352500D02*
X95470000Y-53288063D01*
X91014437Y-54352500D02*
X89950000Y-53288063D01*
X91014437Y-54352500D02*
X91650000Y-54352500D01*
X94405563Y-54352500D02*
X93770000Y-54352500D01*
X95470000Y-53288063D02*
X95470000Y-48832500D01*
X89950000Y-53288063D02*
X89950000Y-48832500D01*
X89950000Y-48832500D02*
X91650000Y-48832500D01*
X95470000Y-48832500D02*
X93770000Y-48832500D01*
X95470000Y-41212500D02*
X93770000Y-41212500D01*
X89950000Y-41212500D02*
X91650000Y-41212500D01*
X89950000Y-45668063D02*
X89950000Y-41212500D01*
X95470000Y-45668063D02*
X95470000Y-41212500D01*
X94405563Y-46732500D02*
X93770000Y-46732500D01*
X91014437Y-46732500D02*
X91650000Y-46732500D01*
X91014437Y-46732500D02*
X89950000Y-45668063D01*
X94405563Y-46732500D02*
X95470000Y-45668063D01*
X93554437Y-63503500D02*
X92490000Y-64567937D01*
X96945563Y-63503500D02*
X98010000Y-64567937D01*
X96945563Y-63503500D02*
X96310000Y-63503500D01*
X93554437Y-63503500D02*
X94190000Y-63503500D01*
X92490000Y-64567937D02*
X92490000Y-69023500D01*
X98010000Y-64567937D02*
X98010000Y-69023500D01*
X98010000Y-69023500D02*
X96310000Y-69023500D01*
X92490000Y-69023500D02*
X94190000Y-69023500D01*
X72896000Y-50576267D02*
X72896000Y-50233733D01*
X73916000Y-50576267D02*
X73916000Y-50233733D01*
X73916000Y-45496267D02*
X73916000Y-45153733D01*
X72896000Y-45496267D02*
X72896000Y-45153733D01*
X118076000Y-49340500D02*
X116376000Y-49340500D01*
X112556000Y-49340500D02*
X114256000Y-49340500D01*
X112556000Y-53796063D02*
X112556000Y-49340500D01*
X118076000Y-53796063D02*
X118076000Y-49340500D01*
X117011563Y-54860500D02*
X116376000Y-54860500D01*
X113620437Y-54860500D02*
X114256000Y-54860500D01*
X113620437Y-54860500D02*
X112556000Y-53796063D01*
X117011563Y-54860500D02*
X118076000Y-53796063D01*
X117011563Y-46163500D02*
X118076000Y-45099063D01*
X113620437Y-46163500D02*
X112556000Y-45099063D01*
X113620437Y-46163500D02*
X114256000Y-46163500D01*
X117011563Y-46163500D02*
X116376000Y-46163500D01*
X118076000Y-45099063D02*
X118076000Y-40643500D01*
X112556000Y-45099063D02*
X112556000Y-40643500D01*
X112556000Y-40643500D02*
X114256000Y-40643500D01*
X118076000Y-40643500D02*
X116376000Y-40643500D01*
X86047733Y-87374000D02*
X86390267Y-87374000D01*
X86047733Y-88394000D02*
X86390267Y-88394000D01*
X77792733Y-89410000D02*
X78135267Y-89410000D01*
X77792733Y-88390000D02*
X78135267Y-88390000D01*
X93632233Y-95125000D02*
X93974767Y-95125000D01*
X93632233Y-94105000D02*
X93974767Y-94105000D01*
X85088000Y-96324267D02*
X85088000Y-95981733D01*
X86108000Y-96324267D02*
X86108000Y-95981733D01*
X74480267Y-87632000D02*
X74137733Y-87632000D01*
X74480267Y-86612000D02*
X74137733Y-86612000D01*
X77284733Y-83310000D02*
X77627267Y-83310000D01*
X77284733Y-84330000D02*
X77627267Y-84330000D01*
X86545267Y-92327000D02*
X86202733Y-92327000D01*
X86545267Y-93347000D02*
X86202733Y-93347000D01*
X74166000Y-93784267D02*
X74166000Y-93441733D01*
X75186000Y-93784267D02*
X75186000Y-93441733D01*
X88831267Y-73662000D02*
X88488733Y-73662000D01*
X88831267Y-72642000D02*
X88488733Y-72642000D01*
X88587733Y-84330000D02*
X88930267Y-84330000D01*
X88587733Y-83310000D02*
X88930267Y-83310000D01*
X86390267Y-89406000D02*
X86047733Y-89406000D01*
X86390267Y-90426000D02*
X86047733Y-90426000D01*
X81162000Y-90460000D02*
X82922000Y-90460000D01*
X82922000Y-87390000D02*
X80492000Y-87390000D01*
D11*
X100533200Y-59045000D02*
G75*
G03X100533200Y-59045000I-203200J0D01*
G01*
X103517700Y-60823000D02*
X98666300Y-60823000D01*
X103517700Y-71491000D02*
X103517700Y-60823000D01*
X98666300Y-71491000D02*
X103517700Y-71491000D01*
X98666300Y-60823000D02*
X98666300Y-71491000D01*
X98666300Y-77968000D02*
X98666300Y-88636000D01*
X98666300Y-88636000D02*
X103517700Y-88636000D01*
X103517700Y-88636000D02*
X103517700Y-77968000D01*
X103517700Y-77968000D02*
X98666300Y-77968000D01*
X100533200Y-76190000D02*
G75*
G03X100533200Y-76190000I-203200J0D01*
G01*
D10*
X106575000Y-49144000D02*
X107675000Y-49144000D01*
X106575000Y-48874000D02*
X106575000Y-49144000D01*
X105075000Y-48874000D02*
X106575000Y-48874000D01*
X106575000Y-55504000D02*
X109405000Y-55504000D01*
X106575000Y-55774000D02*
X106575000Y-55504000D01*
X105075000Y-55774000D02*
X106575000Y-55774000D01*
X104924000Y-46376000D02*
X106424000Y-46376000D01*
X106424000Y-46376000D02*
X106424000Y-46106000D01*
X106424000Y-46106000D02*
X109254000Y-46106000D01*
X104924000Y-39476000D02*
X106424000Y-39476000D01*
X106424000Y-39476000D02*
X106424000Y-39746000D01*
X106424000Y-39746000D02*
X107524000Y-39746000D01*
D12*
X57023095Y-95947380D02*
X57023095Y-94947380D01*
X57023095Y-95423571D02*
X57594523Y-95423571D01*
X57594523Y-95947380D02*
X57594523Y-94947380D01*
X58499285Y-95280714D02*
X58499285Y-95947380D01*
X58261190Y-94899761D02*
X58023095Y-95614047D01*
X58642142Y-95614047D01*
X121158095Y-95947380D02*
X121158095Y-94947380D01*
X121158095Y-95423571D02*
X121729523Y-95423571D01*
X121729523Y-95947380D02*
X121729523Y-94947380D01*
X122110476Y-94947380D02*
X122729523Y-94947380D01*
X122396190Y-95328333D01*
X122539047Y-95328333D01*
X122634285Y-95375952D01*
X122681904Y-95423571D01*
X122729523Y-95518809D01*
X122729523Y-95756904D01*
X122681904Y-95852142D01*
X122634285Y-95899761D01*
X122539047Y-95947380D01*
X122253333Y-95947380D01*
X122158095Y-95899761D01*
X122110476Y-95852142D01*
X121158095Y-35114380D02*
X121158095Y-34114380D01*
X121158095Y-34590571D02*
X121729523Y-34590571D01*
X121729523Y-35114380D02*
X121729523Y-34114380D01*
X122158095Y-34209619D02*
X122205714Y-34162000D01*
X122300952Y-34114380D01*
X122539047Y-34114380D01*
X122634285Y-34162000D01*
X122681904Y-34209619D01*
X122729523Y-34304857D01*
X122729523Y-34400095D01*
X122681904Y-34542952D01*
X122110476Y-35114380D01*
X122729523Y-35114380D01*
X57023095Y-35114380D02*
X57023095Y-34114380D01*
X57023095Y-34590571D02*
X57594523Y-34590571D01*
X57594523Y-35114380D02*
X57594523Y-34114380D01*
X58594523Y-35114380D02*
X58023095Y-35114380D01*
X58308809Y-35114380D02*
X58308809Y-34114380D01*
X58213571Y-34257238D01*
X58118333Y-34352476D01*
X58023095Y-34400095D01*
X58070380Y-84788333D02*
X58784666Y-84788333D01*
X58927523Y-84835952D01*
X59022761Y-84931190D01*
X59070380Y-85074047D01*
X59070380Y-85169285D01*
X58165619Y-84359761D02*
X58118000Y-84312142D01*
X58070380Y-84216904D01*
X58070380Y-83978809D01*
X58118000Y-83883571D01*
X58165619Y-83835952D01*
X58260857Y-83788333D01*
X58356095Y-83788333D01*
X58498952Y-83835952D01*
X59070380Y-84407380D01*
X59070380Y-83788333D01*
X54697380Y-42497333D02*
X55411666Y-42497333D01*
X55554523Y-42544952D01*
X55649761Y-42640190D01*
X55697380Y-42783047D01*
X55697380Y-42878285D01*
X55697380Y-41497333D02*
X55697380Y-42068761D01*
X55697380Y-41783047D02*
X54697380Y-41783047D01*
X54840238Y-41878285D01*
X54935476Y-41973523D01*
X54983095Y-42068761D01*
X120212380Y-75009333D02*
X120926666Y-75009333D01*
X121069523Y-75056952D01*
X121164761Y-75152190D01*
X121212380Y-75295047D01*
X121212380Y-75390285D01*
X120212380Y-74628380D02*
X120212380Y-74009333D01*
X120593333Y-74342666D01*
X120593333Y-74199809D01*
X120640952Y-74104571D01*
X120688571Y-74056952D01*
X120783809Y-74009333D01*
X121021904Y-74009333D01*
X121117142Y-74056952D01*
X121164761Y-74104571D01*
X121212380Y-74199809D01*
X121212380Y-74485523D01*
X121164761Y-74580761D01*
X121117142Y-74628380D01*
X107450095Y-38187380D02*
X108021523Y-38187380D01*
X107735809Y-39187380D02*
X107735809Y-38187380D01*
X108354857Y-39187380D02*
X108354857Y-38187380D01*
X108735809Y-38187380D01*
X108831047Y-38235000D01*
X108878666Y-38282619D01*
X108926285Y-38377857D01*
X108926285Y-38520714D01*
X108878666Y-38615952D01*
X108831047Y-38663571D01*
X108735809Y-38711190D01*
X108354857Y-38711190D01*
X109259619Y-38187380D02*
X109926285Y-38187380D01*
X109497714Y-39187380D01*
X107958095Y-58126380D02*
X108529523Y-58126380D01*
X108243809Y-59126380D02*
X108243809Y-58126380D01*
X108862857Y-59126380D02*
X108862857Y-58126380D01*
X109243809Y-58126380D01*
X109339047Y-58174000D01*
X109386666Y-58221619D01*
X109434285Y-58316857D01*
X109434285Y-58459714D01*
X109386666Y-58554952D01*
X109339047Y-58602571D01*
X109243809Y-58650190D01*
X108862857Y-58650190D01*
X110291428Y-58126380D02*
X110100952Y-58126380D01*
X110005714Y-58174000D01*
X109958095Y-58221619D01*
X109862857Y-58364476D01*
X109815238Y-58554952D01*
X109815238Y-58935904D01*
X109862857Y-59031142D01*
X109910476Y-59078761D01*
X110005714Y-59126380D01*
X110196190Y-59126380D01*
X110291428Y-59078761D01*
X110339047Y-59031142D01*
X110386666Y-58935904D01*
X110386666Y-58697809D01*
X110339047Y-58602571D01*
X110291428Y-58554952D01*
X110196190Y-58507333D01*
X110005714Y-58507333D01*
X109910476Y-58554952D01*
X109862857Y-58602571D01*
X109815238Y-58697809D01*
X68334095Y-38060380D02*
X68905523Y-38060380D01*
X68619809Y-39060380D02*
X68619809Y-38060380D01*
X69238857Y-39060380D02*
X69238857Y-38060380D01*
X69619809Y-38060380D01*
X69715047Y-38108000D01*
X69762666Y-38155619D01*
X69810285Y-38250857D01*
X69810285Y-38393714D01*
X69762666Y-38488952D01*
X69715047Y-38536571D01*
X69619809Y-38584190D01*
X69238857Y-38584190D01*
X70715047Y-38060380D02*
X70238857Y-38060380D01*
X70191238Y-38536571D01*
X70238857Y-38488952D01*
X70334095Y-38441333D01*
X70572190Y-38441333D01*
X70667428Y-38488952D01*
X70715047Y-38536571D01*
X70762666Y-38631809D01*
X70762666Y-38869904D01*
X70715047Y-38965142D01*
X70667428Y-39012761D01*
X70572190Y-39060380D01*
X70334095Y-39060380D01*
X70238857Y-39012761D01*
X70191238Y-38965142D01*
X115070095Y-69048380D02*
X115641523Y-69048380D01*
X115355809Y-70048380D02*
X115355809Y-69048380D01*
X115974857Y-70048380D02*
X115974857Y-69048380D01*
X116355809Y-69048380D01*
X116451047Y-69096000D01*
X116498666Y-69143619D01*
X116546285Y-69238857D01*
X116546285Y-69381714D01*
X116498666Y-69476952D01*
X116451047Y-69524571D01*
X116355809Y-69572190D01*
X115974857Y-69572190D01*
X117403428Y-69381714D02*
X117403428Y-70048380D01*
X117165333Y-69000761D02*
X116927238Y-69715047D01*
X117546285Y-69715047D01*
X90813095Y-101179380D02*
X91384523Y-101179380D01*
X91098809Y-102179380D02*
X91098809Y-101179380D01*
X91717857Y-102179380D02*
X91717857Y-101179380D01*
X92098809Y-101179380D01*
X92194047Y-101227000D01*
X92241666Y-101274619D01*
X92289285Y-101369857D01*
X92289285Y-101512714D01*
X92241666Y-101607952D01*
X92194047Y-101655571D01*
X92098809Y-101703190D01*
X91717857Y-101703190D01*
X92622619Y-101179380D02*
X93241666Y-101179380D01*
X92908333Y-101560333D01*
X93051190Y-101560333D01*
X93146428Y-101607952D01*
X93194047Y-101655571D01*
X93241666Y-101750809D01*
X93241666Y-101988904D01*
X93194047Y-102084142D01*
X93146428Y-102131761D01*
X93051190Y-102179380D01*
X92765476Y-102179380D01*
X92670238Y-102131761D01*
X92622619Y-102084142D01*
X83574095Y-81748380D02*
X84145523Y-81748380D01*
X83859809Y-82748380D02*
X83859809Y-81748380D01*
X84478857Y-82748380D02*
X84478857Y-81748380D01*
X84859809Y-81748380D01*
X84955047Y-81796000D01*
X85002666Y-81843619D01*
X85050285Y-81938857D01*
X85050285Y-82081714D01*
X85002666Y-82176952D01*
X84955047Y-82224571D01*
X84859809Y-82272190D01*
X84478857Y-82272190D01*
X85431238Y-81843619D02*
X85478857Y-81796000D01*
X85574095Y-81748380D01*
X85812190Y-81748380D01*
X85907428Y-81796000D01*
X85955047Y-81843619D01*
X86002666Y-81938857D01*
X86002666Y-82034095D01*
X85955047Y-82176952D01*
X85383619Y-82748380D01*
X86002666Y-82748380D01*
X71636095Y-80986380D02*
X72207523Y-80986380D01*
X71921809Y-81986380D02*
X71921809Y-80986380D01*
X72540857Y-81986380D02*
X72540857Y-80986380D01*
X72921809Y-80986380D01*
X73017047Y-81034000D01*
X73064666Y-81081619D01*
X73112285Y-81176857D01*
X73112285Y-81319714D01*
X73064666Y-81414952D01*
X73017047Y-81462571D01*
X72921809Y-81510190D01*
X72540857Y-81510190D01*
X74064666Y-81986380D02*
X73493238Y-81986380D01*
X73778952Y-81986380D02*
X73778952Y-80986380D01*
X73683714Y-81129238D01*
X73588476Y-81224476D01*
X73493238Y-81272095D01*
X103576380Y-77096857D02*
X103100190Y-77430190D01*
X103576380Y-77668285D02*
X102576380Y-77668285D01*
X102576380Y-77287333D01*
X102624000Y-77192095D01*
X102671619Y-77144476D01*
X102766857Y-77096857D01*
X102909714Y-77096857D01*
X103004952Y-77144476D01*
X103052571Y-77192095D01*
X103100190Y-77287333D01*
X103100190Y-77668285D01*
X103576380Y-76144476D02*
X103576380Y-76715904D01*
X103576380Y-76430190D02*
X102576380Y-76430190D01*
X102719238Y-76525428D01*
X102814476Y-76620666D01*
X102862095Y-76715904D01*
X102576380Y-75811142D02*
X102576380Y-75192095D01*
X102957333Y-75525428D01*
X102957333Y-75382571D01*
X103004952Y-75287333D01*
X103052571Y-75239714D01*
X103147809Y-75192095D01*
X103385904Y-75192095D01*
X103481142Y-75239714D01*
X103528761Y-75287333D01*
X103576380Y-75382571D01*
X103576380Y-75668285D01*
X103528761Y-75763523D01*
X103481142Y-75811142D01*
X103576380Y-73794857D02*
X103100190Y-74128190D01*
X103576380Y-74366285D02*
X102576380Y-74366285D01*
X102576380Y-73985333D01*
X102624000Y-73890095D01*
X102671619Y-73842476D01*
X102766857Y-73794857D01*
X102909714Y-73794857D01*
X103004952Y-73842476D01*
X103052571Y-73890095D01*
X103100190Y-73985333D01*
X103100190Y-74366285D01*
X103576380Y-72842476D02*
X103576380Y-73413904D01*
X103576380Y-73128190D02*
X102576380Y-73128190D01*
X102719238Y-73223428D01*
X102814476Y-73318666D01*
X102862095Y-73413904D01*
X102671619Y-72461523D02*
X102624000Y-72413904D01*
X102576380Y-72318666D01*
X102576380Y-72080571D01*
X102624000Y-71985333D01*
X102671619Y-71937714D01*
X102766857Y-71890095D01*
X102862095Y-71890095D01*
X103004952Y-71937714D01*
X103576380Y-72509142D01*
X103576380Y-71890095D01*
X88138095Y-92569880D02*
X88138095Y-93379404D01*
X88185714Y-93474642D01*
X88233333Y-93522261D01*
X88328571Y-93569880D01*
X88519047Y-93569880D01*
X88614285Y-93522261D01*
X88661904Y-93474642D01*
X88709523Y-93379404D01*
X88709523Y-92569880D01*
X89138095Y-92665119D02*
X89185714Y-92617500D01*
X89280952Y-92569880D01*
X89519047Y-92569880D01*
X89614285Y-92617500D01*
X89661904Y-92665119D01*
X89709523Y-92760357D01*
X89709523Y-92855595D01*
X89661904Y-92998452D01*
X89090476Y-93569880D01*
X89709523Y-93569880D01*
X84351904Y-72080380D02*
X84351904Y-71080380D01*
X84590000Y-71080380D01*
X84732857Y-71128000D01*
X84828095Y-71223238D01*
X84875714Y-71318476D01*
X84923333Y-71508952D01*
X84923333Y-71651809D01*
X84875714Y-71842285D01*
X84828095Y-71937523D01*
X84732857Y-72032761D01*
X84590000Y-72080380D01*
X84351904Y-72080380D01*
X85875714Y-72080380D02*
X85304285Y-72080380D01*
X85590000Y-72080380D02*
X85590000Y-71080380D01*
X85494761Y-71223238D01*
X85399523Y-71318476D01*
X85304285Y-71366095D01*
X80430761Y-100020380D02*
X80097428Y-99544190D01*
X79859333Y-100020380D02*
X79859333Y-99020380D01*
X80240285Y-99020380D01*
X80335523Y-99068000D01*
X80383142Y-99115619D01*
X80430761Y-99210857D01*
X80430761Y-99353714D01*
X80383142Y-99448952D01*
X80335523Y-99496571D01*
X80240285Y-99544190D01*
X79859333Y-99544190D01*
X80716476Y-99020380D02*
X81049809Y-100020380D01*
X81383142Y-99020380D01*
X82240285Y-100020380D02*
X81668857Y-100020380D01*
X81954571Y-100020380D02*
X81954571Y-99020380D01*
X81859333Y-99163238D01*
X81764095Y-99258476D01*
X81668857Y-99306095D01*
X110101142Y-80843380D02*
X109767809Y-80367190D01*
X109529714Y-80843380D02*
X109529714Y-79843380D01*
X109910666Y-79843380D01*
X110005904Y-79891000D01*
X110053523Y-79938619D01*
X110101142Y-80033857D01*
X110101142Y-80176714D01*
X110053523Y-80271952D01*
X110005904Y-80319571D01*
X109910666Y-80367190D01*
X109529714Y-80367190D01*
X111053523Y-80843380D02*
X110482095Y-80843380D01*
X110767809Y-80843380D02*
X110767809Y-79843380D01*
X110672571Y-79986238D01*
X110577333Y-80081476D01*
X110482095Y-80129095D01*
X111958285Y-79843380D02*
X111482095Y-79843380D01*
X111434476Y-80319571D01*
X111482095Y-80271952D01*
X111577333Y-80224333D01*
X111815428Y-80224333D01*
X111910666Y-80271952D01*
X111958285Y-80319571D01*
X112005904Y-80414809D01*
X112005904Y-80652904D01*
X111958285Y-80748142D01*
X111910666Y-80795761D01*
X111815428Y-80843380D01*
X111577333Y-80843380D01*
X111482095Y-80795761D01*
X111434476Y-80748142D01*
X86560380Y-79440857D02*
X86084190Y-79774190D01*
X86560380Y-80012285D02*
X85560380Y-80012285D01*
X85560380Y-79631333D01*
X85608000Y-79536095D01*
X85655619Y-79488476D01*
X85750857Y-79440857D01*
X85893714Y-79440857D01*
X85988952Y-79488476D01*
X86036571Y-79536095D01*
X86084190Y-79631333D01*
X86084190Y-80012285D01*
X86560380Y-78488476D02*
X86560380Y-79059904D01*
X86560380Y-78774190D02*
X85560380Y-78774190D01*
X85703238Y-78869428D01*
X85798476Y-78964666D01*
X85846095Y-79059904D01*
X85560380Y-77869428D02*
X85560380Y-77774190D01*
X85608000Y-77678952D01*
X85655619Y-77631333D01*
X85750857Y-77583714D01*
X85941333Y-77536095D01*
X86179428Y-77536095D01*
X86369904Y-77583714D01*
X86465142Y-77631333D01*
X86512761Y-77678952D01*
X86560380Y-77774190D01*
X86560380Y-77869428D01*
X86512761Y-77964666D01*
X86465142Y-78012285D01*
X86369904Y-78059904D01*
X86179428Y-78107523D01*
X85941333Y-78107523D01*
X85750857Y-78059904D01*
X85655619Y-78012285D01*
X85608000Y-77964666D01*
X85560380Y-77869428D01*
X86560380Y-68296666D02*
X86084190Y-68630000D01*
X86560380Y-68868095D02*
X85560380Y-68868095D01*
X85560380Y-68487142D01*
X85608000Y-68391904D01*
X85655619Y-68344285D01*
X85750857Y-68296666D01*
X85893714Y-68296666D01*
X85988952Y-68344285D01*
X86036571Y-68391904D01*
X86084190Y-68487142D01*
X86084190Y-68868095D01*
X86560380Y-67820476D02*
X86560380Y-67630000D01*
X86512761Y-67534761D01*
X86465142Y-67487142D01*
X86322285Y-67391904D01*
X86131809Y-67344285D01*
X85750857Y-67344285D01*
X85655619Y-67391904D01*
X85608000Y-67439523D01*
X85560380Y-67534761D01*
X85560380Y-67725238D01*
X85608000Y-67820476D01*
X85655619Y-67868095D01*
X85750857Y-67915714D01*
X85988952Y-67915714D01*
X86084190Y-67868095D01*
X86131809Y-67820476D01*
X86179428Y-67725238D01*
X86179428Y-67534761D01*
X86131809Y-67439523D01*
X86084190Y-67391904D01*
X85988952Y-67344285D01*
X78178380Y-78964666D02*
X77702190Y-79298000D01*
X78178380Y-79536095D02*
X77178380Y-79536095D01*
X77178380Y-79155142D01*
X77226000Y-79059904D01*
X77273619Y-79012285D01*
X77368857Y-78964666D01*
X77511714Y-78964666D01*
X77606952Y-79012285D01*
X77654571Y-79059904D01*
X77702190Y-79155142D01*
X77702190Y-79536095D01*
X77178380Y-78107523D02*
X77178380Y-78298000D01*
X77226000Y-78393238D01*
X77273619Y-78440857D01*
X77416476Y-78536095D01*
X77606952Y-78583714D01*
X77987904Y-78583714D01*
X78083142Y-78536095D01*
X78130761Y-78488476D01*
X78178380Y-78393238D01*
X78178380Y-78202761D01*
X78130761Y-78107523D01*
X78083142Y-78059904D01*
X77987904Y-78012285D01*
X77749809Y-78012285D01*
X77654571Y-78059904D01*
X77606952Y-78107523D01*
X77559333Y-78202761D01*
X77559333Y-78393238D01*
X77606952Y-78488476D01*
X77654571Y-78536095D01*
X77749809Y-78583714D01*
X78178380Y-68296666D02*
X77702190Y-68630000D01*
X78178380Y-68868095D02*
X77178380Y-68868095D01*
X77178380Y-68487142D01*
X77226000Y-68391904D01*
X77273619Y-68344285D01*
X77368857Y-68296666D01*
X77511714Y-68296666D01*
X77606952Y-68344285D01*
X77654571Y-68391904D01*
X77702190Y-68487142D01*
X77702190Y-68868095D01*
X77178380Y-67391904D02*
X77178380Y-67868095D01*
X77654571Y-67915714D01*
X77606952Y-67868095D01*
X77559333Y-67772857D01*
X77559333Y-67534761D01*
X77606952Y-67439523D01*
X77654571Y-67391904D01*
X77749809Y-67344285D01*
X77987904Y-67344285D01*
X78083142Y-67391904D01*
X78130761Y-67439523D01*
X78178380Y-67534761D01*
X78178380Y-67772857D01*
X78130761Y-67868095D01*
X78083142Y-67915714D01*
X97258142Y-86113857D02*
X97305761Y-86161476D01*
X97353380Y-86304333D01*
X97353380Y-86399571D01*
X97305761Y-86542428D01*
X97210523Y-86637666D01*
X97115285Y-86685285D01*
X96924809Y-86732904D01*
X96781952Y-86732904D01*
X96591476Y-86685285D01*
X96496238Y-86637666D01*
X96401000Y-86542428D01*
X96353380Y-86399571D01*
X96353380Y-86304333D01*
X96401000Y-86161476D01*
X96448619Y-86113857D01*
X97353380Y-85161476D02*
X97353380Y-85732904D01*
X97353380Y-85447190D02*
X96353380Y-85447190D01*
X96496238Y-85542428D01*
X96591476Y-85637666D01*
X96639095Y-85732904D01*
X96353380Y-84542428D02*
X96353380Y-84447190D01*
X96401000Y-84351952D01*
X96448619Y-84304333D01*
X96543857Y-84256714D01*
X96734333Y-84209095D01*
X96972428Y-84209095D01*
X97162904Y-84256714D01*
X97258142Y-84304333D01*
X97305761Y-84351952D01*
X97353380Y-84447190D01*
X97353380Y-84542428D01*
X97305761Y-84637666D01*
X97258142Y-84685285D01*
X97162904Y-84732904D01*
X96972428Y-84780523D01*
X96734333Y-84780523D01*
X96543857Y-84732904D01*
X96448619Y-84685285D01*
X96401000Y-84637666D01*
X96353380Y-84542428D01*
X98798142Y-101068142D02*
X98750523Y-101115761D01*
X98607666Y-101163380D01*
X98512428Y-101163380D01*
X98369571Y-101115761D01*
X98274333Y-101020523D01*
X98226714Y-100925285D01*
X98179095Y-100734809D01*
X98179095Y-100591952D01*
X98226714Y-100401476D01*
X98274333Y-100306238D01*
X98369571Y-100211000D01*
X98512428Y-100163380D01*
X98607666Y-100163380D01*
X98750523Y-100211000D01*
X98798142Y-100258619D01*
X99750523Y-101163380D02*
X99179095Y-101163380D01*
X99464809Y-101163380D02*
X99464809Y-100163380D01*
X99369571Y-100306238D01*
X99274333Y-100401476D01*
X99179095Y-100449095D01*
X100226714Y-101163380D02*
X100417190Y-101163380D01*
X100512428Y-101115761D01*
X100560047Y-101068142D01*
X100655285Y-100925285D01*
X100702904Y-100734809D01*
X100702904Y-100353857D01*
X100655285Y-100258619D01*
X100607666Y-100211000D01*
X100512428Y-100163380D01*
X100321952Y-100163380D01*
X100226714Y-100211000D01*
X100179095Y-100258619D01*
X100131476Y-100353857D01*
X100131476Y-100591952D01*
X100179095Y-100687190D01*
X100226714Y-100734809D01*
X100321952Y-100782428D01*
X100512428Y-100782428D01*
X100607666Y-100734809D01*
X100655285Y-100687190D01*
X100702904Y-100591952D01*
X98909142Y-91828857D02*
X98956761Y-91876476D01*
X99004380Y-92019333D01*
X99004380Y-92114571D01*
X98956761Y-92257428D01*
X98861523Y-92352666D01*
X98766285Y-92400285D01*
X98575809Y-92447904D01*
X98432952Y-92447904D01*
X98242476Y-92400285D01*
X98147238Y-92352666D01*
X98052000Y-92257428D01*
X98004380Y-92114571D01*
X98004380Y-92019333D01*
X98052000Y-91876476D01*
X98099619Y-91828857D01*
X98099619Y-91447904D02*
X98052000Y-91400285D01*
X98004380Y-91305047D01*
X98004380Y-91066952D01*
X98052000Y-90971714D01*
X98099619Y-90924095D01*
X98194857Y-90876476D01*
X98290095Y-90876476D01*
X98432952Y-90924095D01*
X99004380Y-91495523D01*
X99004380Y-90876476D01*
X98004380Y-90257428D02*
X98004380Y-90162190D01*
X98052000Y-90066952D01*
X98099619Y-90019333D01*
X98194857Y-89971714D01*
X98385333Y-89924095D01*
X98623428Y-89924095D01*
X98813904Y-89971714D01*
X98909142Y-90019333D01*
X98956761Y-90066952D01*
X99004380Y-90162190D01*
X99004380Y-90257428D01*
X98956761Y-90352666D01*
X98909142Y-90400285D01*
X98813904Y-90447904D01*
X98623428Y-90495523D01*
X98385333Y-90495523D01*
X98194857Y-90447904D01*
X98099619Y-90400285D01*
X98052000Y-90352666D01*
X98004380Y-90257428D01*
X109672380Y-96146857D02*
X109196190Y-96480190D01*
X109672380Y-96718285D02*
X108672380Y-96718285D01*
X108672380Y-96337333D01*
X108720000Y-96242095D01*
X108767619Y-96194476D01*
X108862857Y-96146857D01*
X109005714Y-96146857D01*
X109100952Y-96194476D01*
X109148571Y-96242095D01*
X109196190Y-96337333D01*
X109196190Y-96718285D01*
X109672380Y-95194476D02*
X109672380Y-95765904D01*
X109672380Y-95480190D02*
X108672380Y-95480190D01*
X108815238Y-95575428D01*
X108910476Y-95670666D01*
X108958095Y-95765904D01*
X109005714Y-94337333D02*
X109672380Y-94337333D01*
X108624761Y-94575428D02*
X109339047Y-94813523D01*
X109339047Y-94194476D01*
X103632095Y-98385380D02*
X103632095Y-99194904D01*
X103679714Y-99290142D01*
X103727333Y-99337761D01*
X103822571Y-99385380D01*
X104013047Y-99385380D01*
X104108285Y-99337761D01*
X104155904Y-99290142D01*
X104203523Y-99194904D01*
X104203523Y-98385380D01*
X104584476Y-98385380D02*
X105251142Y-98385380D01*
X104822571Y-99385380D01*
X89527142Y-100179142D02*
X89479523Y-100226761D01*
X89336666Y-100274380D01*
X89241428Y-100274380D01*
X89098571Y-100226761D01*
X89003333Y-100131523D01*
X88955714Y-100036285D01*
X88908095Y-99845809D01*
X88908095Y-99702952D01*
X88955714Y-99512476D01*
X89003333Y-99417238D01*
X89098571Y-99322000D01*
X89241428Y-99274380D01*
X89336666Y-99274380D01*
X89479523Y-99322000D01*
X89527142Y-99369619D01*
X89908095Y-99369619D02*
X89955714Y-99322000D01*
X90050952Y-99274380D01*
X90289047Y-99274380D01*
X90384285Y-99322000D01*
X90431904Y-99369619D01*
X90479523Y-99464857D01*
X90479523Y-99560095D01*
X90431904Y-99702952D01*
X89860476Y-100274380D01*
X90479523Y-100274380D01*
X91431904Y-100274380D02*
X90860476Y-100274380D01*
X91146190Y-100274380D02*
X91146190Y-99274380D01*
X91050952Y-99417238D01*
X90955714Y-99512476D01*
X90860476Y-99560095D01*
X70000904Y-47172571D02*
X69667571Y-47172571D01*
X69667571Y-47696380D02*
X69667571Y-46696380D01*
X70143761Y-46696380D01*
X71000904Y-47696380D02*
X70524714Y-47696380D01*
X70524714Y-46696380D01*
X71286619Y-46791619D02*
X71334238Y-46744000D01*
X71429476Y-46696380D01*
X71667571Y-46696380D01*
X71762809Y-46744000D01*
X71810428Y-46791619D01*
X71858047Y-46886857D01*
X71858047Y-46982095D01*
X71810428Y-47124952D01*
X71239000Y-47696380D01*
X71858047Y-47696380D01*
X70000904Y-48696571D02*
X69667571Y-48696571D01*
X69667571Y-49220380D02*
X69667571Y-48220380D01*
X70143761Y-48220380D01*
X71000904Y-49220380D02*
X70524714Y-49220380D01*
X70524714Y-48220380D01*
X71858047Y-49220380D02*
X71286619Y-49220380D01*
X71572333Y-49220380D02*
X71572333Y-48220380D01*
X71477095Y-48363238D01*
X71381857Y-48458476D01*
X71286619Y-48506095D01*
X75017333Y-91289142D02*
X74969714Y-91336761D01*
X74826857Y-91384380D01*
X74731619Y-91384380D01*
X74588761Y-91336761D01*
X74493523Y-91241523D01*
X74445904Y-91146285D01*
X74398285Y-90955809D01*
X74398285Y-90812952D01*
X74445904Y-90622476D01*
X74493523Y-90527238D01*
X74588761Y-90432000D01*
X74731619Y-90384380D01*
X74826857Y-90384380D01*
X74969714Y-90432000D01*
X75017333Y-90479619D01*
X75969714Y-91384380D02*
X75398285Y-91384380D01*
X75684000Y-91384380D02*
X75684000Y-90384380D01*
X75588761Y-90527238D01*
X75493523Y-90622476D01*
X75398285Y-90670095D01*
X79081333Y-85701142D02*
X79033714Y-85748761D01*
X78890857Y-85796380D01*
X78795619Y-85796380D01*
X78652761Y-85748761D01*
X78557523Y-85653523D01*
X78509904Y-85558285D01*
X78462285Y-85367809D01*
X78462285Y-85224952D01*
X78509904Y-85034476D01*
X78557523Y-84939238D01*
X78652761Y-84844000D01*
X78795619Y-84796380D01*
X78890857Y-84796380D01*
X79033714Y-84844000D01*
X79081333Y-84891619D01*
X79462285Y-84891619D02*
X79509904Y-84844000D01*
X79605142Y-84796380D01*
X79843238Y-84796380D01*
X79938476Y-84844000D01*
X79986095Y-84891619D01*
X80033714Y-84986857D01*
X80033714Y-85082095D01*
X79986095Y-85224952D01*
X79414666Y-85796380D01*
X80033714Y-85796380D01*
X75541142Y-55792666D02*
X75588761Y-55840285D01*
X75636380Y-55983142D01*
X75636380Y-56078380D01*
X75588761Y-56221238D01*
X75493523Y-56316476D01*
X75398285Y-56364095D01*
X75207809Y-56411714D01*
X75064952Y-56411714D01*
X74874476Y-56364095D01*
X74779238Y-56316476D01*
X74684000Y-56221238D01*
X74636380Y-56078380D01*
X74636380Y-55983142D01*
X74684000Y-55840285D01*
X74731619Y-55792666D01*
X74636380Y-55459333D02*
X74636380Y-54840285D01*
X75017333Y-55173619D01*
X75017333Y-55030761D01*
X75064952Y-54935523D01*
X75112571Y-54887904D01*
X75207809Y-54840285D01*
X75445904Y-54840285D01*
X75541142Y-54887904D01*
X75588761Y-54935523D01*
X75636380Y-55030761D01*
X75636380Y-55316476D01*
X75588761Y-55411714D01*
X75541142Y-55459333D01*
X75414142Y-40171666D02*
X75461761Y-40219285D01*
X75509380Y-40362142D01*
X75509380Y-40457380D01*
X75461761Y-40600238D01*
X75366523Y-40695476D01*
X75271285Y-40743095D01*
X75080809Y-40790714D01*
X74937952Y-40790714D01*
X74747476Y-40743095D01*
X74652238Y-40695476D01*
X74557000Y-40600238D01*
X74509380Y-40457380D01*
X74509380Y-40362142D01*
X74557000Y-40219285D01*
X74604619Y-40171666D01*
X74842714Y-39314523D02*
X75509380Y-39314523D01*
X74461761Y-39552619D02*
X75176047Y-39790714D01*
X75176047Y-39171666D01*
X81747142Y-51759166D02*
X81794761Y-51806785D01*
X81842380Y-51949642D01*
X81842380Y-52044880D01*
X81794761Y-52187738D01*
X81699523Y-52282976D01*
X81604285Y-52330595D01*
X81413809Y-52378214D01*
X81270952Y-52378214D01*
X81080476Y-52330595D01*
X80985238Y-52282976D01*
X80890000Y-52187738D01*
X80842380Y-52044880D01*
X80842380Y-51949642D01*
X80890000Y-51806785D01*
X80937619Y-51759166D01*
X80842380Y-50854404D02*
X80842380Y-51330595D01*
X81318571Y-51378214D01*
X81270952Y-51330595D01*
X81223333Y-51235357D01*
X81223333Y-50997261D01*
X81270952Y-50902023D01*
X81318571Y-50854404D01*
X81413809Y-50806785D01*
X81651904Y-50806785D01*
X81747142Y-50854404D01*
X81794761Y-50902023D01*
X81842380Y-50997261D01*
X81842380Y-51235357D01*
X81794761Y-51330595D01*
X81747142Y-51378214D01*
X83415142Y-47855166D02*
X83462761Y-47902785D01*
X83510380Y-48045642D01*
X83510380Y-48140880D01*
X83462761Y-48283738D01*
X83367523Y-48378976D01*
X83272285Y-48426595D01*
X83081809Y-48474214D01*
X82938952Y-48474214D01*
X82748476Y-48426595D01*
X82653238Y-48378976D01*
X82558000Y-48283738D01*
X82510380Y-48140880D01*
X82510380Y-48045642D01*
X82558000Y-47902785D01*
X82605619Y-47855166D01*
X82510380Y-46998023D02*
X82510380Y-47188500D01*
X82558000Y-47283738D01*
X82605619Y-47331357D01*
X82748476Y-47426595D01*
X82938952Y-47474214D01*
X83319904Y-47474214D01*
X83415142Y-47426595D01*
X83462761Y-47378976D01*
X83510380Y-47283738D01*
X83510380Y-47093261D01*
X83462761Y-46998023D01*
X83415142Y-46950404D01*
X83319904Y-46902785D01*
X83081809Y-46902785D01*
X82986571Y-46950404D01*
X82938952Y-46998023D01*
X82891333Y-47093261D01*
X82891333Y-47283738D01*
X82938952Y-47378976D01*
X82986571Y-47426595D01*
X83081809Y-47474214D01*
X89367142Y-51759166D02*
X89414761Y-51806785D01*
X89462380Y-51949642D01*
X89462380Y-52044880D01*
X89414761Y-52187738D01*
X89319523Y-52282976D01*
X89224285Y-52330595D01*
X89033809Y-52378214D01*
X88890952Y-52378214D01*
X88700476Y-52330595D01*
X88605238Y-52282976D01*
X88510000Y-52187738D01*
X88462380Y-52044880D01*
X88462380Y-51949642D01*
X88510000Y-51806785D01*
X88557619Y-51759166D01*
X88462380Y-51425833D02*
X88462380Y-50759166D01*
X89462380Y-51187738D01*
X89367142Y-44139166D02*
X89414761Y-44186785D01*
X89462380Y-44329642D01*
X89462380Y-44424880D01*
X89414761Y-44567738D01*
X89319523Y-44662976D01*
X89224285Y-44710595D01*
X89033809Y-44758214D01*
X88890952Y-44758214D01*
X88700476Y-44710595D01*
X88605238Y-44662976D01*
X88510000Y-44567738D01*
X88462380Y-44424880D01*
X88462380Y-44329642D01*
X88510000Y-44186785D01*
X88557619Y-44139166D01*
X88890952Y-43567738D02*
X88843333Y-43662976D01*
X88795714Y-43710595D01*
X88700476Y-43758214D01*
X88652857Y-43758214D01*
X88557619Y-43710595D01*
X88510000Y-43662976D01*
X88462380Y-43567738D01*
X88462380Y-43377261D01*
X88510000Y-43282023D01*
X88557619Y-43234404D01*
X88652857Y-43186785D01*
X88700476Y-43186785D01*
X88795714Y-43234404D01*
X88843333Y-43282023D01*
X88890952Y-43377261D01*
X88890952Y-43567738D01*
X88938571Y-43662976D01*
X88986190Y-43710595D01*
X89081428Y-43758214D01*
X89271904Y-43758214D01*
X89367142Y-43710595D01*
X89414761Y-43662976D01*
X89462380Y-43567738D01*
X89462380Y-43377261D01*
X89414761Y-43282023D01*
X89367142Y-43234404D01*
X89271904Y-43186785D01*
X89081428Y-43186785D01*
X88986190Y-43234404D01*
X88938571Y-43282023D01*
X88890952Y-43377261D01*
X94083142Y-61827666D02*
X94130761Y-61875285D01*
X94178380Y-62018142D01*
X94178380Y-62113380D01*
X94130761Y-62256238D01*
X94035523Y-62351476D01*
X93940285Y-62399095D01*
X93749809Y-62446714D01*
X93606952Y-62446714D01*
X93416476Y-62399095D01*
X93321238Y-62351476D01*
X93226000Y-62256238D01*
X93178380Y-62113380D01*
X93178380Y-62018142D01*
X93226000Y-61875285D01*
X93273619Y-61827666D01*
X94178380Y-61351476D02*
X94178380Y-61161000D01*
X94130761Y-61065761D01*
X94083142Y-61018142D01*
X93940285Y-60922904D01*
X93749809Y-60875285D01*
X93368857Y-60875285D01*
X93273619Y-60922904D01*
X93226000Y-60970523D01*
X93178380Y-61065761D01*
X93178380Y-61256238D01*
X93226000Y-61351476D01*
X93273619Y-61399095D01*
X93368857Y-61446714D01*
X93606952Y-61446714D01*
X93702190Y-61399095D01*
X93749809Y-61351476D01*
X93797428Y-61256238D01*
X93797428Y-61065761D01*
X93749809Y-60970523D01*
X93702190Y-60922904D01*
X93606952Y-60875285D01*
X73763142Y-53982857D02*
X73810761Y-54030476D01*
X73858380Y-54173333D01*
X73858380Y-54268571D01*
X73810761Y-54411428D01*
X73715523Y-54506666D01*
X73620285Y-54554285D01*
X73429809Y-54601904D01*
X73286952Y-54601904D01*
X73096476Y-54554285D01*
X73001238Y-54506666D01*
X72906000Y-54411428D01*
X72858380Y-54268571D01*
X72858380Y-54173333D01*
X72906000Y-54030476D01*
X72953619Y-53982857D01*
X73858380Y-53030476D02*
X73858380Y-53601904D01*
X73858380Y-53316190D02*
X72858380Y-53316190D01*
X73001238Y-53411428D01*
X73096476Y-53506666D01*
X73144095Y-53601904D01*
X73858380Y-52078095D02*
X73858380Y-52649523D01*
X73858380Y-52363809D02*
X72858380Y-52363809D01*
X73001238Y-52459047D01*
X73096476Y-52554285D01*
X73144095Y-52649523D01*
X73890142Y-42806857D02*
X73937761Y-42854476D01*
X73985380Y-42997333D01*
X73985380Y-43092571D01*
X73937761Y-43235428D01*
X73842523Y-43330666D01*
X73747285Y-43378285D01*
X73556809Y-43425904D01*
X73413952Y-43425904D01*
X73223476Y-43378285D01*
X73128238Y-43330666D01*
X73033000Y-43235428D01*
X72985380Y-43092571D01*
X72985380Y-42997333D01*
X73033000Y-42854476D01*
X73080619Y-42806857D01*
X73985380Y-41854476D02*
X73985380Y-42425904D01*
X73985380Y-42140190D02*
X72985380Y-42140190D01*
X73128238Y-42235428D01*
X73223476Y-42330666D01*
X73271095Y-42425904D01*
X73080619Y-41473523D02*
X73033000Y-41425904D01*
X72985380Y-41330666D01*
X72985380Y-41092571D01*
X73033000Y-40997333D01*
X73080619Y-40949714D01*
X73175857Y-40902095D01*
X73271095Y-40902095D01*
X73413952Y-40949714D01*
X73985380Y-41521142D01*
X73985380Y-40902095D01*
X111973142Y-52743357D02*
X112020761Y-52790976D01*
X112068380Y-52933833D01*
X112068380Y-53029071D01*
X112020761Y-53171928D01*
X111925523Y-53267166D01*
X111830285Y-53314785D01*
X111639809Y-53362404D01*
X111496952Y-53362404D01*
X111306476Y-53314785D01*
X111211238Y-53267166D01*
X111116000Y-53171928D01*
X111068380Y-53029071D01*
X111068380Y-52933833D01*
X111116000Y-52790976D01*
X111163619Y-52743357D01*
X112068380Y-51790976D02*
X112068380Y-52362404D01*
X112068380Y-52076690D02*
X111068380Y-52076690D01*
X111211238Y-52171928D01*
X111306476Y-52267166D01*
X111354095Y-52362404D01*
X111068380Y-51457642D02*
X111068380Y-50838595D01*
X111449333Y-51171928D01*
X111449333Y-51029071D01*
X111496952Y-50933833D01*
X111544571Y-50886214D01*
X111639809Y-50838595D01*
X111877904Y-50838595D01*
X111973142Y-50886214D01*
X112020761Y-50933833D01*
X112068380Y-51029071D01*
X112068380Y-51314785D01*
X112020761Y-51410023D01*
X111973142Y-51457642D01*
X111973142Y-44046357D02*
X112020761Y-44093976D01*
X112068380Y-44236833D01*
X112068380Y-44332071D01*
X112020761Y-44474928D01*
X111925523Y-44570166D01*
X111830285Y-44617785D01*
X111639809Y-44665404D01*
X111496952Y-44665404D01*
X111306476Y-44617785D01*
X111211238Y-44570166D01*
X111116000Y-44474928D01*
X111068380Y-44332071D01*
X111068380Y-44236833D01*
X111116000Y-44093976D01*
X111163619Y-44046357D01*
X112068380Y-43093976D02*
X112068380Y-43665404D01*
X112068380Y-43379690D02*
X111068380Y-43379690D01*
X111211238Y-43474928D01*
X111306476Y-43570166D01*
X111354095Y-43665404D01*
X111401714Y-42236833D02*
X112068380Y-42236833D01*
X111020761Y-42474928D02*
X111735047Y-42713023D01*
X111735047Y-42093976D01*
X89019142Y-87987142D02*
X88971523Y-88034761D01*
X88828666Y-88082380D01*
X88733428Y-88082380D01*
X88590571Y-88034761D01*
X88495333Y-87939523D01*
X88447714Y-87844285D01*
X88400095Y-87653809D01*
X88400095Y-87510952D01*
X88447714Y-87320476D01*
X88495333Y-87225238D01*
X88590571Y-87130000D01*
X88733428Y-87082380D01*
X88828666Y-87082380D01*
X88971523Y-87130000D01*
X89019142Y-87177619D01*
X89971523Y-88082380D02*
X89400095Y-88082380D01*
X89685809Y-88082380D02*
X89685809Y-87082380D01*
X89590571Y-87225238D01*
X89495333Y-87320476D01*
X89400095Y-87368095D01*
X90876285Y-87082380D02*
X90400095Y-87082380D01*
X90352476Y-87558571D01*
X90400095Y-87510952D01*
X90495333Y-87463333D01*
X90733428Y-87463333D01*
X90828666Y-87510952D01*
X90876285Y-87558571D01*
X90923904Y-87653809D01*
X90923904Y-87891904D01*
X90876285Y-87987142D01*
X90828666Y-88034761D01*
X90733428Y-88082380D01*
X90495333Y-88082380D01*
X90400095Y-88034761D01*
X90352476Y-87987142D01*
X77335142Y-91035142D02*
X77287523Y-91082761D01*
X77144666Y-91130380D01*
X77049428Y-91130380D01*
X76906571Y-91082761D01*
X76811333Y-90987523D01*
X76763714Y-90892285D01*
X76716095Y-90701809D01*
X76716095Y-90558952D01*
X76763714Y-90368476D01*
X76811333Y-90273238D01*
X76906571Y-90178000D01*
X77049428Y-90130380D01*
X77144666Y-90130380D01*
X77287523Y-90178000D01*
X77335142Y-90225619D01*
X78287523Y-91130380D02*
X77716095Y-91130380D01*
X78001809Y-91130380D02*
X78001809Y-90130380D01*
X77906571Y-90273238D01*
X77811333Y-90368476D01*
X77716095Y-90416095D01*
X79144666Y-90130380D02*
X78954190Y-90130380D01*
X78858952Y-90178000D01*
X78811333Y-90225619D01*
X78716095Y-90368476D01*
X78668476Y-90558952D01*
X78668476Y-90939904D01*
X78716095Y-91035142D01*
X78763714Y-91082761D01*
X78858952Y-91130380D01*
X79049428Y-91130380D01*
X79144666Y-91082761D01*
X79192285Y-91035142D01*
X79239904Y-90939904D01*
X79239904Y-90701809D01*
X79192285Y-90606571D01*
X79144666Y-90558952D01*
X79049428Y-90511333D01*
X78858952Y-90511333D01*
X78763714Y-90558952D01*
X78716095Y-90606571D01*
X78668476Y-90701809D01*
X96131142Y-94845142D02*
X96083523Y-94892761D01*
X95940666Y-94940380D01*
X95845428Y-94940380D01*
X95702571Y-94892761D01*
X95607333Y-94797523D01*
X95559714Y-94702285D01*
X95512095Y-94511809D01*
X95512095Y-94368952D01*
X95559714Y-94178476D01*
X95607333Y-94083238D01*
X95702571Y-93988000D01*
X95845428Y-93940380D01*
X95940666Y-93940380D01*
X96083523Y-93988000D01*
X96131142Y-94035619D01*
X97083523Y-94940380D02*
X96512095Y-94940380D01*
X96797809Y-94940380D02*
X96797809Y-93940380D01*
X96702571Y-94083238D01*
X96607333Y-94178476D01*
X96512095Y-94226095D01*
X97416857Y-93940380D02*
X98083523Y-93940380D01*
X97654952Y-94940380D01*
X84955142Y-98909142D02*
X84907523Y-98956761D01*
X84764666Y-99004380D01*
X84669428Y-99004380D01*
X84526571Y-98956761D01*
X84431333Y-98861523D01*
X84383714Y-98766285D01*
X84336095Y-98575809D01*
X84336095Y-98432952D01*
X84383714Y-98242476D01*
X84431333Y-98147238D01*
X84526571Y-98052000D01*
X84669428Y-98004380D01*
X84764666Y-98004380D01*
X84907523Y-98052000D01*
X84955142Y-98099619D01*
X85907523Y-99004380D02*
X85336095Y-99004380D01*
X85621809Y-99004380D02*
X85621809Y-98004380D01*
X85526571Y-98147238D01*
X85431333Y-98242476D01*
X85336095Y-98290095D01*
X86478952Y-98432952D02*
X86383714Y-98385333D01*
X86336095Y-98337714D01*
X86288476Y-98242476D01*
X86288476Y-98194857D01*
X86336095Y-98099619D01*
X86383714Y-98052000D01*
X86478952Y-98004380D01*
X86669428Y-98004380D01*
X86764666Y-98052000D01*
X86812285Y-98099619D01*
X86859904Y-98194857D01*
X86859904Y-98242476D01*
X86812285Y-98337714D01*
X86764666Y-98385333D01*
X86669428Y-98432952D01*
X86478952Y-98432952D01*
X86383714Y-98480571D01*
X86336095Y-98528190D01*
X86288476Y-98623428D01*
X86288476Y-98813904D01*
X86336095Y-98909142D01*
X86383714Y-98956761D01*
X86478952Y-99004380D01*
X86669428Y-99004380D01*
X86764666Y-98956761D01*
X86812285Y-98909142D01*
X86859904Y-98813904D01*
X86859904Y-98623428D01*
X86812285Y-98528190D01*
X86764666Y-98480571D01*
X86669428Y-98432952D01*
X71588333Y-87701380D02*
X71255000Y-87225190D01*
X71016904Y-87701380D02*
X71016904Y-86701380D01*
X71397857Y-86701380D01*
X71493095Y-86749000D01*
X71540714Y-86796619D01*
X71588333Y-86891857D01*
X71588333Y-87034714D01*
X71540714Y-87129952D01*
X71493095Y-87177571D01*
X71397857Y-87225190D01*
X71016904Y-87225190D01*
X72540714Y-87701380D02*
X71969285Y-87701380D01*
X72255000Y-87701380D02*
X72255000Y-86701380D01*
X72159761Y-86844238D01*
X72064523Y-86939476D01*
X71969285Y-86987095D01*
X77049333Y-82748380D02*
X76716000Y-82272190D01*
X76477904Y-82748380D02*
X76477904Y-81748380D01*
X76858857Y-81748380D01*
X76954095Y-81796000D01*
X77001714Y-81843619D01*
X77049333Y-81938857D01*
X77049333Y-82081714D01*
X77001714Y-82176952D01*
X76954095Y-82224571D01*
X76858857Y-82272190D01*
X76477904Y-82272190D01*
X77430285Y-81843619D02*
X77477904Y-81796000D01*
X77573142Y-81748380D01*
X77811238Y-81748380D01*
X77906476Y-81796000D01*
X77954095Y-81843619D01*
X78001714Y-81938857D01*
X78001714Y-82034095D01*
X77954095Y-82176952D01*
X77382666Y-82748380D01*
X78001714Y-82748380D01*
X83399333Y-93416380D02*
X83066000Y-92940190D01*
X82827904Y-93416380D02*
X82827904Y-92416380D01*
X83208857Y-92416380D01*
X83304095Y-92464000D01*
X83351714Y-92511619D01*
X83399333Y-92606857D01*
X83399333Y-92749714D01*
X83351714Y-92844952D01*
X83304095Y-92892571D01*
X83208857Y-92940190D01*
X82827904Y-92940190D01*
X83732666Y-92416380D02*
X84351714Y-92416380D01*
X84018380Y-92797333D01*
X84161238Y-92797333D01*
X84256476Y-92844952D01*
X84304095Y-92892571D01*
X84351714Y-92987809D01*
X84351714Y-93225904D01*
X84304095Y-93321142D01*
X84256476Y-93368761D01*
X84161238Y-93416380D01*
X83875523Y-93416380D01*
X83780285Y-93368761D01*
X83732666Y-93321142D01*
X74509333Y-96464380D02*
X74176000Y-95988190D01*
X73937904Y-96464380D02*
X73937904Y-95464380D01*
X74318857Y-95464380D01*
X74414095Y-95512000D01*
X74461714Y-95559619D01*
X74509333Y-95654857D01*
X74509333Y-95797714D01*
X74461714Y-95892952D01*
X74414095Y-95940571D01*
X74318857Y-95988190D01*
X73937904Y-95988190D01*
X75366476Y-95797714D02*
X75366476Y-96464380D01*
X75128380Y-95416761D02*
X74890285Y-96131047D01*
X75509333Y-96131047D01*
X91047333Y-73731380D02*
X90714000Y-73255190D01*
X90475904Y-73731380D02*
X90475904Y-72731380D01*
X90856857Y-72731380D01*
X90952095Y-72779000D01*
X90999714Y-72826619D01*
X91047333Y-72921857D01*
X91047333Y-73064714D01*
X90999714Y-73159952D01*
X90952095Y-73207571D01*
X90856857Y-73255190D01*
X90475904Y-73255190D01*
X91380666Y-72731380D02*
X92047333Y-72731380D01*
X91618761Y-73731380D01*
X91245333Y-84272380D02*
X90912000Y-83796190D01*
X90673904Y-84272380D02*
X90673904Y-83272380D01*
X91054857Y-83272380D01*
X91150095Y-83320000D01*
X91197714Y-83367619D01*
X91245333Y-83462857D01*
X91245333Y-83605714D01*
X91197714Y-83700952D01*
X91150095Y-83748571D01*
X91054857Y-83796190D01*
X90673904Y-83796190D01*
X91816761Y-83700952D02*
X91721523Y-83653333D01*
X91673904Y-83605714D01*
X91626285Y-83510476D01*
X91626285Y-83462857D01*
X91673904Y-83367619D01*
X91721523Y-83320000D01*
X91816761Y-83272380D01*
X92007238Y-83272380D01*
X92102476Y-83320000D01*
X92150095Y-83367619D01*
X92197714Y-83462857D01*
X92197714Y-83510476D01*
X92150095Y-83605714D01*
X92102476Y-83653333D01*
X92007238Y-83700952D01*
X91816761Y-83700952D01*
X91721523Y-83748571D01*
X91673904Y-83796190D01*
X91626285Y-83891428D01*
X91626285Y-84081904D01*
X91673904Y-84177142D01*
X91721523Y-84224761D01*
X91816761Y-84272380D01*
X92007238Y-84272380D01*
X92102476Y-84224761D01*
X92150095Y-84177142D01*
X92197714Y-84081904D01*
X92197714Y-83891428D01*
X92150095Y-83796190D01*
X92102476Y-83748571D01*
X92007238Y-83700952D01*
X85463142Y-91638380D02*
X85129809Y-91162190D01*
X84891714Y-91638380D02*
X84891714Y-90638380D01*
X85272666Y-90638380D01*
X85367904Y-90686000D01*
X85415523Y-90733619D01*
X85463142Y-90828857D01*
X85463142Y-90971714D01*
X85415523Y-91066952D01*
X85367904Y-91114571D01*
X85272666Y-91162190D01*
X84891714Y-91162190D01*
X86415523Y-91638380D02*
X85844095Y-91638380D01*
X86129809Y-91638380D02*
X86129809Y-90638380D01*
X86034571Y-90781238D01*
X85939333Y-90876476D01*
X85844095Y-90924095D01*
X87367904Y-91638380D02*
X86796476Y-91638380D01*
X87082190Y-91638380D02*
X87082190Y-90638380D01*
X86986952Y-90781238D01*
X86891714Y-90876476D01*
X86796476Y-90924095D01*
X81280095Y-90765380D02*
X81280095Y-91574904D01*
X81327714Y-91670142D01*
X81375333Y-91717761D01*
X81470571Y-91765380D01*
X81661047Y-91765380D01*
X81756285Y-91717761D01*
X81803904Y-91670142D01*
X81851523Y-91574904D01*
X81851523Y-90765380D01*
X82851523Y-91765380D02*
X82280095Y-91765380D01*
X82565809Y-91765380D02*
X82565809Y-90765380D01*
X82470571Y-90908238D01*
X82375333Y-91003476D01*
X82280095Y-91051095D01*
X98639380Y-73532904D02*
X99448904Y-73532904D01*
X99544142Y-73485285D01*
X99591761Y-73437666D01*
X99639380Y-73342428D01*
X99639380Y-73151952D01*
X99591761Y-73056714D01*
X99544142Y-73009095D01*
X99448904Y-72961476D01*
X98639380Y-72961476D01*
X98639380Y-72580523D02*
X98639380Y-71961476D01*
X99020333Y-72294809D01*
X99020333Y-72151952D01*
X99067952Y-72056714D01*
X99115571Y-72009095D01*
X99210809Y-71961476D01*
X99448904Y-71961476D01*
X99544142Y-72009095D01*
X99591761Y-72056714D01*
X99639380Y-72151952D01*
X99639380Y-72437666D01*
X99591761Y-72532904D01*
X99544142Y-72580523D01*
X104922580Y-65174476D02*
X103922580Y-65174476D01*
X103922580Y-64936380D01*
X103970200Y-64793523D01*
X104065438Y-64698285D01*
X104160676Y-64650666D01*
X104351152Y-64603047D01*
X104494009Y-64603047D01*
X104684485Y-64650666D01*
X104779723Y-64698285D01*
X104874961Y-64793523D01*
X104922580Y-64936380D01*
X104922580Y-65174476D01*
X104255914Y-63745904D02*
X104922580Y-63745904D01*
X103874961Y-63984000D02*
X104589247Y-64222095D01*
X104589247Y-63603047D01*
X104255914Y-62793523D02*
X104922580Y-62793523D01*
X103874961Y-63031619D02*
X104589247Y-63269714D01*
X104589247Y-62650666D01*
X104922580Y-62269714D02*
X103922580Y-62269714D01*
X104398771Y-62269714D02*
X104398771Y-61698285D01*
X104922580Y-61698285D02*
X103922580Y-61698285D01*
X104922580Y-60698285D02*
X104922580Y-61269714D01*
X104922580Y-60984000D02*
X103922580Y-60984000D01*
X104065438Y-61079238D01*
X104160676Y-61174476D01*
X104208295Y-61269714D01*
X104922580Y-59745904D02*
X104922580Y-60317333D01*
X104922580Y-60031619D02*
X103922580Y-60031619D01*
X104065438Y-60126857D01*
X104160676Y-60222095D01*
X104208295Y-60317333D01*
X101306380Y-68707000D02*
X101544476Y-68707000D01*
X101449238Y-68945095D02*
X101544476Y-68707000D01*
X101449238Y-68468904D01*
X101734952Y-68849857D02*
X101544476Y-68707000D01*
X101734952Y-68564142D01*
X98639380Y-77342904D02*
X99448904Y-77342904D01*
X99544142Y-77295285D01*
X99591761Y-77247666D01*
X99639380Y-77152428D01*
X99639380Y-76961952D01*
X99591761Y-76866714D01*
X99544142Y-76819095D01*
X99448904Y-76771476D01*
X98639380Y-76771476D01*
X98972714Y-75866714D02*
X99639380Y-75866714D01*
X98591761Y-76104809D02*
X99306047Y-76342904D01*
X99306047Y-75723857D01*
X105227380Y-90193476D02*
X104227380Y-90193476D01*
X104227380Y-89955380D01*
X104275000Y-89812523D01*
X104370238Y-89717285D01*
X104465476Y-89669666D01*
X104655952Y-89622047D01*
X104798809Y-89622047D01*
X104989285Y-89669666D01*
X105084523Y-89717285D01*
X105179761Y-89812523D01*
X105227380Y-89955380D01*
X105227380Y-90193476D01*
X104560714Y-88764904D02*
X105227380Y-88764904D01*
X104179761Y-89003000D02*
X104894047Y-89241095D01*
X104894047Y-88622047D01*
X104560714Y-87812523D02*
X105227380Y-87812523D01*
X104179761Y-88050619D02*
X104894047Y-88288714D01*
X104894047Y-87669666D01*
X105227380Y-87288714D02*
X104227380Y-87288714D01*
X104703571Y-87288714D02*
X104703571Y-86717285D01*
X105227380Y-86717285D02*
X104227380Y-86717285D01*
X105227380Y-85717285D02*
X105227380Y-86288714D01*
X105227380Y-86003000D02*
X104227380Y-86003000D01*
X104370238Y-86098238D01*
X104465476Y-86193476D01*
X104513095Y-86288714D01*
X105227380Y-84764904D02*
X105227380Y-85336333D01*
X105227380Y-85050619D02*
X104227380Y-85050619D01*
X104370238Y-85145857D01*
X104465476Y-85241095D01*
X104513095Y-85336333D01*
X101306380Y-85852000D02*
X101544476Y-85852000D01*
X101449238Y-86090095D02*
X101544476Y-85852000D01*
X101449238Y-85613904D01*
X101734952Y-85994857D02*
X101544476Y-85852000D01*
X101734952Y-85709142D01*
X96774095Y-54062380D02*
X96774095Y-54871904D01*
X96821714Y-54967142D01*
X96869333Y-55014761D01*
X96964571Y-55062380D01*
X97155047Y-55062380D01*
X97250285Y-55014761D01*
X97297904Y-54967142D01*
X97345523Y-54871904D01*
X97345523Y-54062380D01*
X98297904Y-54062380D02*
X97821714Y-54062380D01*
X97774095Y-54538571D01*
X97821714Y-54490952D01*
X97916952Y-54443333D01*
X98155047Y-54443333D01*
X98250285Y-54490952D01*
X98297904Y-54538571D01*
X98345523Y-54633809D01*
X98345523Y-54871904D01*
X98297904Y-54967142D01*
X98250285Y-55014761D01*
X98155047Y-55062380D01*
X97916952Y-55062380D01*
X97821714Y-55014761D01*
X97774095Y-54967142D01*
X103192095Y-46878380D02*
X103192095Y-47687904D01*
X103239714Y-47783142D01*
X103287333Y-47830761D01*
X103382571Y-47878380D01*
X103573047Y-47878380D01*
X103668285Y-47830761D01*
X103715904Y-47783142D01*
X103763523Y-47687904D01*
X103763523Y-46878380D01*
X104668285Y-46878380D02*
X104477809Y-46878380D01*
X104382571Y-46926000D01*
X104334952Y-46973619D01*
X104239714Y-47116476D01*
X104192095Y-47306952D01*
X104192095Y-47687904D01*
X104239714Y-47783142D01*
X104287333Y-47830761D01*
X104382571Y-47878380D01*
X104573047Y-47878380D01*
X104668285Y-47830761D01*
X104715904Y-47783142D01*
X104763523Y-47687904D01*
X104763523Y-47449809D01*
X104715904Y-47354571D01*
X104668285Y-47306952D01*
X104573047Y-47259333D01*
X104382571Y-47259333D01*
X104287333Y-47306952D01*
X104239714Y-47354571D01*
X104192095Y-47449809D01*
M02*
