M48
; DRILL file {KiCad (5.1.5)-3} date 2020/02/06 0:19:06
; FORMAT={-:-/ absolute / inch / decimal}
; #@! TF.CreationDate,2020-02-06T00:19:06+09:00
; #@! TF.GenerationSoftware,Kicad,Pcbnew,(5.1.5)-3
FMAT,2
INCH
T1C0.0157
T2C0.0197
T3C0.0374
T4C0.0600
T5C0.1260
%
G90
G05
T1
X2.125Y-1.38
X2.125Y-1.45
X2.125Y-1.525
X2.125Y-1.6
X2.125Y-1.675
X2.125Y-1.75
X2.125Y-1.825
X2.125Y-1.9
X2.125Y-1.975
X2.125Y-2.05
X2.125Y-2.125
X2.125Y-2.2
X2.125Y-2.275
X2.125Y-2.35
X2.125Y-2.425
X2.125Y-2.5
X2.125Y-2.575
X2.125Y-2.675
X2.125Y-2.775
X2.125Y-2.85
X2.125Y-2.925
X2.125Y-3.0
X2.125Y-3.075
X2.125Y-3.15
X2.125Y-3.225
X2.125Y-3.625
X2.125Y-3.7
X2.125Y-3.775
X2.125Y-3.85
X2.125Y-3.925
X2.125Y-4.0
X2.125Y-4.075
X2.2Y-1.38
X2.2Y-4.075
X2.225Y-1.725
X2.225Y-2.075
X2.225Y-2.125
X2.275Y-1.38
X2.275Y-1.725
X2.275Y-2.075
X2.275Y-2.125
X2.275Y-2.2
X2.275Y-2.35
X2.275Y-2.5
X2.275Y-2.675
X2.275Y-2.85
X2.275Y-3.0
X2.275Y-3.15
X2.275Y-3.625
X2.275Y-4.075
X2.29Y-1.87
X2.29Y-1.93
X2.3Y-3.38
X2.3Y-3.48
X2.33Y-1.83
X2.33Y-1.87
X2.33Y-1.93
X2.33Y-1.97
X2.35Y-1.38
X2.35Y-1.725
X2.35Y-2.075
X2.35Y-2.125
X2.35Y-4.075
X2.36Y-3.38
X2.36Y-3.48
X2.4Y-1.725
X2.4Y-2.075
X2.4Y-2.125
X2.42Y-3.38
X2.42Y-3.48
X2.425Y-1.38
X2.425Y-2.2
X2.425Y-2.35
X2.425Y-2.5
X2.425Y-2.675
X2.425Y-2.85
X2.425Y-3.0
X2.425Y-3.15
X2.425Y-3.3
X2.425Y-3.625
X2.425Y-3.775
X2.425Y-4.075
X2.48Y-3.38
X2.48Y-3.48
X2.5Y-1.38
X2.5Y-4.075
X2.54Y-3.38
X2.54Y-3.48
X2.575Y-1.38
X2.575Y-2.2
X2.575Y-2.35
X2.575Y-2.5
X2.575Y-2.675
X2.575Y-2.85
X2.575Y-3.0
X2.575Y-3.15
X2.575Y-3.3
X2.575Y-3.625
X2.575Y-3.775
X2.575Y-3.925
X2.575Y-4.075
X2.6Y-3.38
X2.6Y-3.48
X2.61Y-1.7
X2.61Y-1.895
X2.61Y-2.1
X2.65Y-1.38
X2.65Y-4.075
X2.655Y-1.7
X2.655Y-1.895
X2.655Y-2.1
X2.66Y-3.38
X2.66Y-3.48
X2.695Y-1.7
X2.7Y-1.895
X2.7Y-2.1
X2.72Y-3.38
X2.72Y-3.48
X2.725Y-1.38
X2.725Y-2.2
X2.725Y-2.35
X2.725Y-2.5
X2.725Y-2.675
X2.725Y-2.85
X2.725Y-3.0
X2.725Y-3.15
X2.725Y-3.3
X2.725Y-3.625
X2.725Y-3.775
X2.725Y-3.925
X2.725Y-4.075
X2.78Y-3.38
X2.78Y-3.48
X2.8Y-1.38
X2.8Y-4.075
X2.825Y-3.52
X2.825Y-3.56
X2.84Y-3.38
X2.84Y-3.48
X2.875Y-1.38
X2.875Y-2.2
X2.875Y-2.35
X2.875Y-2.5
X2.875Y-2.675
X2.875Y-2.85
X2.875Y-3.0
X2.875Y-3.15
X2.875Y-3.775
X2.875Y-3.925
X2.875Y-4.075
X2.9Y-3.63
X2.9Y-3.67
X2.93Y-1.86
X2.93Y-1.9
X2.95Y-1.38
X2.95Y-4.075
X2.97Y-1.86
X2.97Y-1.9
X3.0Y-2.25
X3.0Y-2.3
X3.0Y-2.375
X3.0Y-2.425
X3.01Y-3.57
X3.02Y-3.36
X3.02Y-3.4
X3.025Y-1.38
X3.025Y-3.925
X3.025Y-4.075
X3.05Y-2.25
X3.05Y-2.3
X3.05Y-2.375
X3.05Y-2.425
X3.06Y-3.36
X3.06Y-3.4
X3.08Y-3.455
X3.1Y-1.38
X3.1Y-4.075
X3.12Y-3.455
X3.16Y-1.8025
X3.16Y-1.8475
X3.175Y-1.38
X3.175Y-3.925
X3.175Y-4.075
X3.2Y-1.8025
X3.2Y-1.8475
X3.21Y-3.58
X3.24Y-1.8025
X3.24Y-1.8475
X3.25Y-1.38
X3.25Y-2.74
X3.25Y-2.78
X3.25Y-2.82
X3.25Y-4.075
X3.32Y-3.82
X3.325Y-1.38
X3.325Y-3.925
X3.325Y-4.075
X3.34Y-3.41
X3.35Y-3.71
X3.38Y-3.41
X3.39Y-3.58
X3.39Y-3.71
X3.4Y-1.38
X3.4Y-4.075
X3.42Y-3.82
X3.435Y-1.85
X3.435Y-1.9
X3.475Y-1.38
X3.475Y-1.81
X3.475Y-1.85
X3.475Y-1.9
X3.475Y-1.945
X3.475Y-3.925
X3.475Y-4.075
X3.5Y-3.58
X3.52Y-3.01
X3.52Y-3.05
X3.52Y-3.09
X3.525Y-1.81
X3.525Y-1.85
X3.525Y-1.9
X3.525Y-1.945
X3.55Y-1.38
X3.55Y-4.075
X3.56Y-3.66
X3.565Y-1.85
X3.565Y-1.9
X3.59Y-3.58
X3.625Y-1.38
X3.625Y-3.89
X3.625Y-3.94
X3.625Y-4.075
X3.645Y-3.66
X3.65Y-2.08
X3.65Y-2.12
X3.65Y-2.16
X3.66Y-3.78
X3.675Y-3.89
X3.675Y-3.94
X3.68Y-3.58
X3.7Y-1.38
X3.7Y-4.075
X3.71Y-3.78
X3.715Y-2.08
X3.715Y-2.12
X3.715Y-2.16
X3.73Y-3.66
X3.74Y-3.07
X3.74Y-3.105
X3.74Y-3.14
X3.74Y-3.236
X3.74Y-3.275
X3.74Y-3.31
X3.75Y-2.49
X3.75Y-2.526
X3.75Y-2.564
X3.75Y-2.656
X3.75Y-2.692
X3.75Y-2.726
X3.765Y-3.58
X3.775Y-1.38
X3.775Y-1.85
X3.775Y-1.9
X3.775Y-4.075
X3.79Y-3.77
X3.82Y-3.8
X3.825Y-1.85
X3.825Y-1.9
X3.825Y-2.3
X3.825Y-2.35
X3.84Y-3.64
X3.85Y-1.38
X3.85Y-4.075
X3.87Y-3.91
X3.875Y-2.3
X3.875Y-2.35
X3.88Y-3.73
X3.88Y-3.84
X3.91Y-3.91
X3.925Y-1.38
X3.925Y-4.075
X3.93Y-3.56
X3.95Y-2.3
X3.95Y-2.35
X3.97Y-3.56
X4.0Y-1.38
X4.0Y-2.3
X4.0Y-2.35
X4.0Y-3.975
X4.0Y-4.025
X4.0Y-4.075
X4.05Y-3.975
X4.05Y-4.025
X4.075Y-1.38
X4.075Y-4.075
X4.1Y-3.95
X4.125Y-3.575
X4.125Y-3.625
X4.15Y-1.38
X4.15Y-4.075
X4.175Y-3.35
X4.175Y-3.5
X4.175Y-3.575
X4.175Y-3.625
X4.225Y-1.38
X4.225Y-3.95
X4.225Y-4.075
X4.24Y-3.88
X4.25Y-1.97
X4.26Y-3.62
X4.27Y-3.01
X4.27Y-3.06
X4.27Y-3.11
X4.3Y-1.38
X4.3Y-1.97
X4.3Y-2.65
X4.3Y-3.22
X4.3Y-3.35
X4.3Y-3.5
X4.3Y-3.58
X4.3Y-4.075
X4.32Y-3.64
X4.32Y-3.86
X4.36Y-3.22
X4.36Y-3.68
X4.36Y-3.82
X4.375Y-1.38
X4.375Y-2.2
X4.375Y-2.35
X4.375Y-2.5
X4.375Y-2.65
X4.375Y-3.95
X4.375Y-4.075
X4.42Y-3.01
X4.42Y-3.06
X4.42Y-3.11
X4.42Y-3.22
X4.42Y-3.28
X4.42Y-3.34
X4.42Y-3.4
X4.42Y-3.46
X4.42Y-3.52
X4.42Y-3.58
X4.42Y-3.64
X4.42Y-3.82
X4.45Y-1.38
X4.45Y-2.65
X4.45Y-4.075
X4.4876Y-2.1324
X4.4924Y-1.6276
X4.5Y-3.8
X4.525Y-1.38
X4.525Y-2.35
X4.525Y-2.5
X4.525Y-2.65
X4.525Y-3.95
X4.525Y-4.075
X4.54Y-1.59
X4.54Y-1.6276
X4.54Y-1.67
X4.54Y-2.09
X4.54Y-2.1324
X4.54Y-2.17
X4.54Y-3.22
X4.54Y-3.28
X4.54Y-3.34
X4.54Y-3.4
X4.54Y-3.46
X4.54Y-3.52
X4.54Y-3.58
X4.54Y-3.64
X4.54Y-3.7
X4.54Y-3.76
X4.6Y-1.38
X4.6Y-2.65
X4.6Y-3.2
X4.6Y-4.075
X4.625Y-1.775
X4.625Y-1.825
X4.625Y-1.925
X4.625Y-1.975
X4.66Y-3.2
X4.675Y-1.38
X4.675Y-1.775
X4.675Y-1.825
X4.675Y-1.925
X4.675Y-1.975
X4.675Y-2.05
X4.675Y-2.2
X4.675Y-2.35
X4.675Y-2.5
X4.675Y-2.65
X4.675Y-3.35
X4.675Y-3.5
X4.675Y-3.65
X4.675Y-3.8
X4.675Y-4.075
X4.72Y-3.2
X4.75Y-1.38
X4.75Y-2.65
X4.75Y-4.075
X4.78Y-3.2
X4.825Y-1.38
X4.825Y-1.75
X4.825Y-1.9
X4.825Y-2.05
X4.825Y-2.2
X4.825Y-2.35
X4.825Y-2.5
X4.825Y-2.65
X4.825Y-3.35
X4.825Y-3.5
X4.825Y-3.65
X4.825Y-4.075
X4.84Y-3.2
X4.9Y-1.38
X4.9Y-2.65
X4.9Y-3.2
X4.9Y-4.075
X4.95Y-1.38
X4.95Y-1.45
X4.95Y-1.525
X4.95Y-1.6
X4.95Y-1.675
X4.95Y-1.75
X4.95Y-1.825
X4.95Y-1.9
X4.95Y-1.975
X4.95Y-2.05
X4.95Y-2.125
X4.95Y-2.2
X4.95Y-2.275
X4.95Y-2.35
X4.95Y-2.425
X4.95Y-2.5
X4.95Y-2.575
X4.95Y-2.65
X4.95Y-3.2
X4.95Y-3.275
X4.95Y-3.35
X4.95Y-3.425
X4.95Y-3.5
X4.95Y-3.575
X4.95Y-3.65
X4.95Y-3.725
X4.95Y-3.8
X4.95Y-3.875
X4.95Y-3.95
X4.95Y-4.025
T2
X4.7055Y-3.925
X4.7332Y-3.8582
X4.7332Y-3.9918
X4.8Y-3.8305
X4.8Y-4.0195
X4.8668Y-3.8582
X4.8668Y-3.9918
X4.8945Y-3.925
X2.1805Y-3.925
X2.2082Y-3.8582
X2.2082Y-3.9918
X2.275Y-3.8305
X2.275Y-4.0195
X2.3418Y-3.8582
X2.3418Y-3.9918
X2.3695Y-3.925
X2.1805Y-1.53
X2.2082Y-1.4632
X2.2082Y-1.5968
X2.275Y-1.4355
X2.275Y-1.6245
X2.3418Y-1.4632
X2.3418Y-1.5968
X2.3695Y-1.53
X4.7055Y-1.53
X4.7332Y-1.4632
X4.7332Y-1.5968
X4.8Y-1.4355
X4.8Y-1.6245
X4.8668Y-1.4632
X4.8668Y-1.5968
X4.8945Y-1.53
T3
X2.41Y-1.8
X2.41Y-1.8984
X2.41Y-1.9969
T4
X3.95Y-3.1792
X3.95Y-3.2796
X3.95Y-3.38
X3.95Y-2.5042
X3.95Y-2.6046
X3.95Y-2.705
T5
X4.8Y-3.925
X2.275Y-3.925
X2.275Y-1.53
X4.8Y-1.53
T0
M30
