G04 #@! TF.GenerationSoftware,KiCad,Pcbnew,(5.1.5)-3*
G04 #@! TF.CreationDate,2020-04-14T23:54:33+09:00*
G04 #@! TF.ProjectId,Detector_rev2,44657465-6374-46f7-925f-726576322e6b,rev?*
G04 #@! TF.SameCoordinates,Original*
G04 #@! TF.FileFunction,Legend,Top*
G04 #@! TF.FilePolarity,Positive*
%FSLAX46Y46*%
G04 Gerber Fmt 4.6, Leading zero omitted, Abs format (unit mm)*
G04 Created by KiCad (PCBNEW (5.1.5)-3) date 2020-04-14 23:54:33*
%MOMM*%
%LPD*%
G04 APERTURE LIST*
%ADD10C,0.120000*%
%ADD11C,0.200000*%
%ADD12C,0.150000*%
%ADD13C,0.100000*%
G04 APERTURE END LIST*
D10*
X89208000Y-48557500D02*
X89208000Y-49977500D01*
X100928000Y-48557500D02*
X89208000Y-48557500D01*
X89208000Y-58677500D02*
X89208000Y-57257500D01*
X94818000Y-56367500D02*
X100318000Y-56367500D01*
X100318000Y-56367500D02*
X100318000Y-55867500D01*
X100318000Y-55867500D02*
X94818000Y-55867500D01*
X100928000Y-53617500D02*
X100928000Y-58677500D01*
X94818000Y-55867500D02*
X94818000Y-56367500D01*
X89208000Y-57257500D02*
X93708000Y-57257500D01*
X100928000Y-53617500D02*
X100928000Y-48557500D01*
X89208000Y-49977500D02*
X93708000Y-49977500D01*
X100928000Y-58677500D02*
X89208000Y-58677500D01*
X100318000Y-51367500D02*
X100318000Y-50867500D01*
X100318000Y-53867500D02*
X100318000Y-53367500D01*
X94818000Y-53367500D02*
X94818000Y-53867500D01*
X100318000Y-53367500D02*
X94818000Y-53367500D01*
X94818000Y-50867500D02*
X94818000Y-51367500D01*
X94818000Y-51367500D02*
X100318000Y-51367500D01*
X100318000Y-50867500D02*
X94818000Y-50867500D01*
X94818000Y-53867500D02*
X100318000Y-53867500D01*
X87100000Y-63122000D02*
X90700000Y-63122000D01*
X87100000Y-70482000D02*
X90700000Y-70482000D01*
X92580000Y-65002000D02*
X92580000Y-68602000D01*
X85220000Y-65002000D02*
X85220000Y-68602000D01*
X73196563Y-52132500D02*
X74261000Y-51068063D01*
X69805437Y-52132500D02*
X68741000Y-51068063D01*
X69805437Y-52132500D02*
X70441000Y-52132500D01*
X73196563Y-52132500D02*
X72561000Y-52132500D01*
X74261000Y-51068063D02*
X74261000Y-46612500D01*
X68741000Y-51068063D02*
X68741000Y-46612500D01*
X68741000Y-46612500D02*
X70441000Y-46612500D01*
X74261000Y-46612500D02*
X72561000Y-46612500D01*
X73196563Y-59686500D02*
X74261000Y-58622063D01*
X69805437Y-59686500D02*
X68741000Y-58622063D01*
X69805437Y-59686500D02*
X70441000Y-59686500D01*
X73196563Y-59686500D02*
X72561000Y-59686500D01*
X74261000Y-58622063D02*
X74261000Y-54166500D01*
X68741000Y-58622063D02*
X68741000Y-54166500D01*
X68741000Y-54166500D02*
X70441000Y-54166500D01*
X74261000Y-54166500D02*
X72561000Y-54166500D01*
X81705563Y-52066500D02*
X82770000Y-51002063D01*
X78314437Y-52066500D02*
X77250000Y-51002063D01*
X78314437Y-52066500D02*
X78950000Y-52066500D01*
X81705563Y-52066500D02*
X81070000Y-52066500D01*
X82770000Y-51002063D02*
X82770000Y-46546500D01*
X77250000Y-51002063D02*
X77250000Y-46546500D01*
X77250000Y-46546500D02*
X78950000Y-46546500D01*
X82770000Y-46546500D02*
X81070000Y-46546500D01*
X81705563Y-59686500D02*
X82770000Y-58622063D01*
X78314437Y-59686500D02*
X77250000Y-58622063D01*
X78314437Y-59686500D02*
X78950000Y-59686500D01*
X81705563Y-59686500D02*
X81070000Y-59686500D01*
X82770000Y-58622063D02*
X82770000Y-54166500D01*
X77250000Y-58622063D02*
X77250000Y-54166500D01*
X77250000Y-54166500D02*
X78950000Y-54166500D01*
X82770000Y-54166500D02*
X81070000Y-54166500D01*
D11*
X63246000Y-68726000D02*
G75*
G03X63246000Y-68726000I-100000J0D01*
G01*
D12*
X62746000Y-67526000D02*
X65646000Y-67526000D01*
X65646000Y-67526000D02*
X65646000Y-69126000D01*
X65646000Y-69126000D02*
X62746000Y-69126000D01*
X62746000Y-69126000D02*
X62746000Y-67526000D01*
D10*
X58997600Y-72081200D02*
X58997600Y-73481200D01*
X61317600Y-73481200D02*
X61317600Y-71581200D01*
X65216000Y-83459000D02*
X67166000Y-83459000D01*
X65216000Y-83459000D02*
X63266000Y-83459000D01*
X65216000Y-78339000D02*
X67166000Y-78339000D01*
X65216000Y-78339000D02*
X61766000Y-78339000D01*
X61470000Y-65720279D02*
X61470000Y-65394721D01*
X60450000Y-65720279D02*
X60450000Y-65394721D01*
X69915000Y-63480000D02*
X66465000Y-63480000D01*
X69915000Y-63480000D02*
X71865000Y-63480000D01*
X69915000Y-68600000D02*
X67965000Y-68600000D01*
X69915000Y-68600000D02*
X71865000Y-68600000D01*
X60450000Y-69149279D02*
X60450000Y-68823721D01*
X61470000Y-69149279D02*
X61470000Y-68823721D01*
X57402000Y-76134079D02*
X57402000Y-75808521D01*
X58422000Y-76134079D02*
X58422000Y-75808521D01*
X69530279Y-71118000D02*
X69204721Y-71118000D01*
X69530279Y-72138000D02*
X69204721Y-72138000D01*
X68006279Y-73150000D02*
X67680721Y-73150000D01*
X68006279Y-74170000D02*
X67680721Y-74170000D01*
X75690000Y-58049279D02*
X75690000Y-57723721D01*
X76710000Y-58049279D02*
X76710000Y-57723721D01*
X76710000Y-48422779D02*
X76710000Y-48097221D01*
X75690000Y-48422779D02*
X75690000Y-48097221D01*
X78742000Y-69784279D02*
X78742000Y-69458721D01*
X77722000Y-69784279D02*
X77722000Y-69458721D01*
X78742000Y-72832279D02*
X78742000Y-72506721D01*
X77722000Y-72832279D02*
X77722000Y-72506721D01*
X67655221Y-76452000D02*
X67980779Y-76452000D01*
X67655221Y-77472000D02*
X67980779Y-77472000D01*
X81028000Y-67426721D02*
X81028000Y-67752279D01*
X80008000Y-67426721D02*
X80008000Y-67752279D01*
X66800000Y-49464279D02*
X66800000Y-49138721D01*
X67820000Y-49464279D02*
X67820000Y-49138721D01*
X66800000Y-57338279D02*
X66800000Y-57012721D01*
X67820000Y-57338279D02*
X67820000Y-57012721D01*
X63688279Y-83818000D02*
X63362721Y-83818000D01*
X63688279Y-84838000D02*
X63362721Y-84838000D01*
X67934721Y-62228000D02*
X68260279Y-62228000D01*
X67934721Y-63248000D02*
X68260279Y-63248000D01*
X71947721Y-63248000D02*
X72273279Y-63248000D01*
X71947721Y-62228000D02*
X72273279Y-62228000D01*
X59692000Y-65720279D02*
X59692000Y-65394721D01*
X58672000Y-65720279D02*
X58672000Y-65394721D01*
X59692000Y-69149279D02*
X59692000Y-68823721D01*
X58672000Y-69149279D02*
X58672000Y-68823721D01*
X59946000Y-75808721D02*
X59946000Y-76134279D01*
X58926000Y-75808721D02*
X58926000Y-76134279D01*
X63756000Y-64835721D02*
X63756000Y-65161279D01*
X62736000Y-64835721D02*
X62736000Y-65161279D01*
X62863000Y-76291221D02*
X62863000Y-76616779D01*
X63883000Y-76291221D02*
X63883000Y-76616779D01*
X60450000Y-75808721D02*
X60450000Y-76134279D01*
X61470000Y-75808721D02*
X61470000Y-76134279D01*
X65534000Y-64835721D02*
X65534000Y-65161279D01*
X64514000Y-64835721D02*
X64514000Y-65161279D01*
X65788000Y-76291221D02*
X65788000Y-76616779D01*
X64768000Y-76291221D02*
X64768000Y-76616779D01*
X55878000Y-76134279D02*
X55878000Y-75808721D01*
X56898000Y-76134279D02*
X56898000Y-75808721D01*
X69530279Y-69340000D02*
X69204721Y-69340000D01*
X69530279Y-70360000D02*
X69204721Y-70360000D01*
X67312000Y-70474721D02*
X67312000Y-70800279D01*
X66292000Y-70474721D02*
X66292000Y-70800279D01*
X70982721Y-73150000D02*
X71308279Y-73150000D01*
X70982721Y-74170000D02*
X71308279Y-74170000D01*
X78166279Y-66292000D02*
X77840721Y-66292000D01*
X78166279Y-67312000D02*
X77840721Y-67312000D01*
X76138721Y-60708000D02*
X76464279Y-60708000D01*
X76138721Y-59688000D02*
X76464279Y-59688000D01*
X76316721Y-45337000D02*
X76642279Y-45337000D01*
X76316721Y-46357000D02*
X76642279Y-46357000D01*
X62850000Y-56395000D02*
X65904000Y-56395000D01*
X62850000Y-62985000D02*
X65904000Y-62985000D01*
X65904000Y-58855000D02*
X65904000Y-56395000D01*
X65904000Y-62985000D02*
X65904000Y-60525000D01*
X61344000Y-61395000D02*
X61344000Y-57985000D01*
X71574000Y-76584000D02*
X74984000Y-76584000D01*
X69984000Y-81144000D02*
X72444000Y-81144000D01*
X74114000Y-81144000D02*
X76574000Y-81144000D01*
X69984000Y-78090000D02*
X69984000Y-81144000D01*
X76574000Y-78090000D02*
X76574000Y-81144000D01*
D12*
X62751000Y-72993000D02*
X62751000Y-71393000D01*
X65651000Y-72993000D02*
X62751000Y-72993000D01*
X65651000Y-71393000D02*
X65651000Y-72993000D01*
X62751000Y-71393000D02*
X65651000Y-71393000D01*
D11*
X63251000Y-72593000D02*
G75*
G03X63251000Y-72593000I-100000J0D01*
G01*
D10*
X59217200Y-81360500D02*
X59217200Y-79860500D01*
X59217200Y-81360500D02*
X59217200Y-82860500D01*
X55997200Y-81360500D02*
X55997200Y-79860500D01*
X55997200Y-81360500D02*
X55997200Y-84285500D01*
D12*
X74144000Y-72836000D02*
X74369000Y-72836000D01*
X74144000Y-69486000D02*
X74444000Y-69486000D01*
X77494000Y-69486000D02*
X77194000Y-69486000D01*
X77494000Y-72836000D02*
X77194000Y-72836000D01*
X74144000Y-72836000D02*
X74144000Y-69486000D01*
X77494000Y-72836000D02*
X77494000Y-69486000D01*
X74369000Y-72836000D02*
X74369000Y-74061000D01*
X91106666Y-59142380D02*
X91106666Y-59856666D01*
X91059047Y-59999523D01*
X90963809Y-60094761D01*
X90820952Y-60142380D01*
X90725714Y-60142380D01*
X91535238Y-59237619D02*
X91582857Y-59190000D01*
X91678095Y-59142380D01*
X91916190Y-59142380D01*
X92011428Y-59190000D01*
X92059047Y-59237619D01*
X92106666Y-59332857D01*
X92106666Y-59428095D01*
X92059047Y-59570952D01*
X91487619Y-60142380D01*
X92106666Y-60142380D01*
X93345095Y-84653380D02*
X93345095Y-83653380D01*
X93345095Y-84129571D02*
X93916523Y-84129571D01*
X93916523Y-84653380D02*
X93916523Y-83653380D01*
X94297476Y-83653380D02*
X94916523Y-83653380D01*
X94583190Y-84034333D01*
X94726047Y-84034333D01*
X94821285Y-84081952D01*
X94868904Y-84129571D01*
X94916523Y-84224809D01*
X94916523Y-84462904D01*
X94868904Y-84558142D01*
X94821285Y-84605761D01*
X94726047Y-84653380D01*
X94440333Y-84653380D01*
X94345095Y-84605761D01*
X94297476Y-84558142D01*
X53006666Y-63015880D02*
X53006666Y-63730166D01*
X52959047Y-63873023D01*
X52863809Y-63968261D01*
X52720952Y-64015880D01*
X52625714Y-64015880D01*
X54006666Y-64015880D02*
X53435238Y-64015880D01*
X53720952Y-64015880D02*
X53720952Y-63015880D01*
X53625714Y-63158738D01*
X53530476Y-63253976D01*
X53435238Y-63301595D01*
X56070595Y-46299380D02*
X56070595Y-45299380D01*
X56070595Y-45775571D02*
X56642023Y-45775571D01*
X56642023Y-46299380D02*
X56642023Y-45299380D01*
X57546785Y-45632714D02*
X57546785Y-46299380D01*
X57308690Y-45251761D02*
X57070595Y-45966047D01*
X57689642Y-45966047D01*
X93218095Y-46362880D02*
X93218095Y-45362880D01*
X93218095Y-45839071D02*
X93789523Y-45839071D01*
X93789523Y-46362880D02*
X93789523Y-45362880D01*
X94218095Y-45458119D02*
X94265714Y-45410500D01*
X94360952Y-45362880D01*
X94599047Y-45362880D01*
X94694285Y-45410500D01*
X94741904Y-45458119D01*
X94789523Y-45553357D01*
X94789523Y-45648595D01*
X94741904Y-45791452D01*
X94170476Y-46362880D01*
X94789523Y-46362880D01*
X52070095Y-81207380D02*
X52070095Y-80207380D01*
X52070095Y-80683571D02*
X52641523Y-80683571D01*
X52641523Y-81207380D02*
X52641523Y-80207380D01*
X53641523Y-81207380D02*
X53070095Y-81207380D01*
X53355809Y-81207380D02*
X53355809Y-80207380D01*
X53260571Y-80350238D01*
X53165333Y-80445476D01*
X53070095Y-80493095D01*
X88566666Y-61504380D02*
X88566666Y-62218666D01*
X88519047Y-62361523D01*
X88423809Y-62456761D01*
X88280952Y-62504380D01*
X88185714Y-62504380D01*
X88947619Y-61504380D02*
X89566666Y-61504380D01*
X89233333Y-61885333D01*
X89376190Y-61885333D01*
X89471428Y-61932952D01*
X89519047Y-61980571D01*
X89566666Y-62075809D01*
X89566666Y-62313904D01*
X89519047Y-62409142D01*
X89471428Y-62456761D01*
X89376190Y-62504380D01*
X89090476Y-62504380D01*
X88995238Y-62456761D01*
X88947619Y-62409142D01*
X69191142Y-45791357D02*
X69238761Y-45838976D01*
X69286380Y-45981833D01*
X69286380Y-46077071D01*
X69238761Y-46219928D01*
X69143523Y-46315166D01*
X69048285Y-46362785D01*
X68857809Y-46410404D01*
X68714952Y-46410404D01*
X68524476Y-46362785D01*
X68429238Y-46315166D01*
X68334000Y-46219928D01*
X68286380Y-46077071D01*
X68286380Y-45981833D01*
X68334000Y-45838976D01*
X68381619Y-45791357D01*
X69286380Y-44838976D02*
X69286380Y-45410404D01*
X69286380Y-45124690D02*
X68286380Y-45124690D01*
X68429238Y-45219928D01*
X68524476Y-45315166D01*
X68572095Y-45410404D01*
X68381619Y-44458023D02*
X68334000Y-44410404D01*
X68286380Y-44315166D01*
X68286380Y-44077071D01*
X68334000Y-43981833D01*
X68381619Y-43934214D01*
X68476857Y-43886595D01*
X68572095Y-43886595D01*
X68714952Y-43934214D01*
X69286380Y-44505642D01*
X69286380Y-43886595D01*
X67730642Y-46997857D02*
X67778261Y-47045476D01*
X67825880Y-47188333D01*
X67825880Y-47283571D01*
X67778261Y-47426428D01*
X67683023Y-47521666D01*
X67587785Y-47569285D01*
X67397309Y-47616904D01*
X67254452Y-47616904D01*
X67063976Y-47569285D01*
X66968738Y-47521666D01*
X66873500Y-47426428D01*
X66825880Y-47283571D01*
X66825880Y-47188333D01*
X66873500Y-47045476D01*
X66921119Y-46997857D01*
X67825880Y-46045476D02*
X67825880Y-46616904D01*
X67825880Y-46331190D02*
X66825880Y-46331190D01*
X66968738Y-46426428D01*
X67063976Y-46521666D01*
X67111595Y-46616904D01*
X67825880Y-45093095D02*
X67825880Y-45664523D01*
X67825880Y-45378809D02*
X66825880Y-45378809D01*
X66968738Y-45474047D01*
X67063976Y-45569285D01*
X67111595Y-45664523D01*
X84050142Y-48521857D02*
X84097761Y-48569476D01*
X84145380Y-48712333D01*
X84145380Y-48807571D01*
X84097761Y-48950428D01*
X84002523Y-49045666D01*
X83907285Y-49093285D01*
X83716809Y-49140904D01*
X83573952Y-49140904D01*
X83383476Y-49093285D01*
X83288238Y-49045666D01*
X83193000Y-48950428D01*
X83145380Y-48807571D01*
X83145380Y-48712333D01*
X83193000Y-48569476D01*
X83240619Y-48521857D01*
X84145380Y-47569476D02*
X84145380Y-48140904D01*
X84145380Y-47855190D02*
X83145380Y-47855190D01*
X83288238Y-47950428D01*
X83383476Y-48045666D01*
X83431095Y-48140904D01*
X83145380Y-46950428D02*
X83145380Y-46855190D01*
X83193000Y-46759952D01*
X83240619Y-46712333D01*
X83335857Y-46664714D01*
X83526333Y-46617095D01*
X83764428Y-46617095D01*
X83954904Y-46664714D01*
X84050142Y-46712333D01*
X84097761Y-46759952D01*
X84145380Y-46855190D01*
X84145380Y-46950428D01*
X84097761Y-47045666D01*
X84050142Y-47093285D01*
X83954904Y-47140904D01*
X83764428Y-47188523D01*
X83526333Y-47188523D01*
X83335857Y-47140904D01*
X83240619Y-47093285D01*
X83193000Y-47045666D01*
X83145380Y-46950428D01*
X84050142Y-58459666D02*
X84097761Y-58507285D01*
X84145380Y-58650142D01*
X84145380Y-58745380D01*
X84097761Y-58888238D01*
X84002523Y-58983476D01*
X83907285Y-59031095D01*
X83716809Y-59078714D01*
X83573952Y-59078714D01*
X83383476Y-59031095D01*
X83288238Y-58983476D01*
X83193000Y-58888238D01*
X83145380Y-58745380D01*
X83145380Y-58650142D01*
X83193000Y-58507285D01*
X83240619Y-58459666D01*
X84145380Y-57983476D02*
X84145380Y-57793000D01*
X84097761Y-57697761D01*
X84050142Y-57650142D01*
X83907285Y-57554904D01*
X83716809Y-57507285D01*
X83335857Y-57507285D01*
X83240619Y-57554904D01*
X83193000Y-57602523D01*
X83145380Y-57697761D01*
X83145380Y-57888238D01*
X83193000Y-57983476D01*
X83240619Y-58031095D01*
X83335857Y-58078714D01*
X83573952Y-58078714D01*
X83669190Y-58031095D01*
X83716809Y-57983476D01*
X83764428Y-57888238D01*
X83764428Y-57697761D01*
X83716809Y-57602523D01*
X83669190Y-57554904D01*
X83573952Y-57507285D01*
D13*
X64340046Y-67926952D02*
X64340046Y-68250761D01*
X64363856Y-68288857D01*
X64387665Y-68307904D01*
X64435284Y-68326952D01*
X64530522Y-68326952D01*
X64578141Y-68307904D01*
X64601951Y-68288857D01*
X64625760Y-68250761D01*
X64625760Y-67926952D01*
X65125760Y-68326952D02*
X64840046Y-68326952D01*
X64982903Y-68326952D02*
X64982903Y-67926952D01*
X64935284Y-67984095D01*
X64887665Y-68022190D01*
X64840046Y-68041238D01*
D12*
X57745380Y-72262904D02*
X58554904Y-72262904D01*
X58650142Y-72215285D01*
X58697761Y-72167666D01*
X58745380Y-72072428D01*
X58745380Y-71881952D01*
X58697761Y-71786714D01*
X58650142Y-71739095D01*
X58554904Y-71691476D01*
X57745380Y-71691476D01*
X57745380Y-71310523D02*
X57745380Y-70643857D01*
X58745380Y-71072428D01*
X65405095Y-84034380D02*
X65405095Y-84843904D01*
X65452714Y-84939142D01*
X65500333Y-84986761D01*
X65595571Y-85034380D01*
X65786047Y-85034380D01*
X65881285Y-84986761D01*
X65928904Y-84939142D01*
X65976523Y-84843904D01*
X65976523Y-84034380D01*
X66881285Y-84367714D02*
X66881285Y-85034380D01*
X66643190Y-83986761D02*
X66405095Y-84701047D01*
X67024142Y-84701047D01*
X62460142Y-66841666D02*
X62507761Y-66889285D01*
X62555380Y-67032142D01*
X62555380Y-67127380D01*
X62507761Y-67270238D01*
X62412523Y-67365476D01*
X62317285Y-67413095D01*
X62126809Y-67460714D01*
X61983952Y-67460714D01*
X61793476Y-67413095D01*
X61698238Y-67365476D01*
X61603000Y-67270238D01*
X61555380Y-67127380D01*
X61555380Y-67032142D01*
X61603000Y-66889285D01*
X61650619Y-66841666D01*
X62555380Y-65889285D02*
X62555380Y-66460714D01*
X62555380Y-66175000D02*
X61555380Y-66175000D01*
X61698238Y-66270238D01*
X61793476Y-66365476D01*
X61841095Y-66460714D01*
X69215095Y-63714380D02*
X69215095Y-64523904D01*
X69262714Y-64619142D01*
X69310333Y-64666761D01*
X69405571Y-64714380D01*
X69596047Y-64714380D01*
X69691285Y-64666761D01*
X69738904Y-64619142D01*
X69786523Y-64523904D01*
X69786523Y-63714380D01*
X70167476Y-63714380D02*
X70786523Y-63714380D01*
X70453190Y-64095333D01*
X70596047Y-64095333D01*
X70691285Y-64142952D01*
X70738904Y-64190571D01*
X70786523Y-64285809D01*
X70786523Y-64523904D01*
X70738904Y-64619142D01*
X70691285Y-64666761D01*
X70596047Y-64714380D01*
X70310333Y-64714380D01*
X70215095Y-64666761D01*
X70167476Y-64619142D01*
X59904333Y-71223142D02*
X59856714Y-71270761D01*
X59713857Y-71318380D01*
X59618619Y-71318380D01*
X59475761Y-71270761D01*
X59380523Y-71175523D01*
X59332904Y-71080285D01*
X59285285Y-70889809D01*
X59285285Y-70746952D01*
X59332904Y-70556476D01*
X59380523Y-70461238D01*
X59475761Y-70366000D01*
X59618619Y-70318380D01*
X59713857Y-70318380D01*
X59856714Y-70366000D01*
X59904333Y-70413619D01*
X60285285Y-70413619D02*
X60332904Y-70366000D01*
X60428142Y-70318380D01*
X60666238Y-70318380D01*
X60761476Y-70366000D01*
X60809095Y-70413619D01*
X60856714Y-70508857D01*
X60856714Y-70604095D01*
X60809095Y-70746952D01*
X60237666Y-71318380D01*
X60856714Y-71318380D01*
X57253142Y-73953666D02*
X57300761Y-74001285D01*
X57348380Y-74144142D01*
X57348380Y-74239380D01*
X57300761Y-74382238D01*
X57205523Y-74477476D01*
X57110285Y-74525095D01*
X56919809Y-74572714D01*
X56776952Y-74572714D01*
X56586476Y-74525095D01*
X56491238Y-74477476D01*
X56396000Y-74382238D01*
X56348380Y-74239380D01*
X56348380Y-74144142D01*
X56396000Y-74001285D01*
X56443619Y-73953666D01*
X56348380Y-73620333D02*
X56348380Y-73001285D01*
X56729333Y-73334619D01*
X56729333Y-73191761D01*
X56776952Y-73096523D01*
X56824571Y-73048904D01*
X56919809Y-73001285D01*
X57157904Y-73001285D01*
X57253142Y-73048904D01*
X57300761Y-73096523D01*
X57348380Y-73191761D01*
X57348380Y-73477476D01*
X57300761Y-73572714D01*
X57253142Y-73620333D01*
X71461333Y-72112142D02*
X71413714Y-72159761D01*
X71270857Y-72207380D01*
X71175619Y-72207380D01*
X71032761Y-72159761D01*
X70937523Y-72064523D01*
X70889904Y-71969285D01*
X70842285Y-71778809D01*
X70842285Y-71635952D01*
X70889904Y-71445476D01*
X70937523Y-71350238D01*
X71032761Y-71255000D01*
X71175619Y-71207380D01*
X71270857Y-71207380D01*
X71413714Y-71255000D01*
X71461333Y-71302619D01*
X72318476Y-71540714D02*
X72318476Y-72207380D01*
X72080380Y-71159761D02*
X71842285Y-71874047D01*
X72461333Y-71874047D01*
X68667333Y-75287142D02*
X68619714Y-75334761D01*
X68476857Y-75382380D01*
X68381619Y-75382380D01*
X68238761Y-75334761D01*
X68143523Y-75239523D01*
X68095904Y-75144285D01*
X68048285Y-74953809D01*
X68048285Y-74810952D01*
X68095904Y-74620476D01*
X68143523Y-74525238D01*
X68238761Y-74430000D01*
X68381619Y-74382380D01*
X68476857Y-74382380D01*
X68619714Y-74430000D01*
X68667333Y-74477619D01*
X69572095Y-74382380D02*
X69095904Y-74382380D01*
X69048285Y-74858571D01*
X69095904Y-74810952D01*
X69191142Y-74763333D01*
X69429238Y-74763333D01*
X69524476Y-74810952D01*
X69572095Y-74858571D01*
X69619714Y-74953809D01*
X69619714Y-75191904D01*
X69572095Y-75287142D01*
X69524476Y-75334761D01*
X69429238Y-75382380D01*
X69191142Y-75382380D01*
X69095904Y-75334761D01*
X69048285Y-75287142D01*
X75414142Y-58078666D02*
X75461761Y-58126285D01*
X75509380Y-58269142D01*
X75509380Y-58364380D01*
X75461761Y-58507238D01*
X75366523Y-58602476D01*
X75271285Y-58650095D01*
X75080809Y-58697714D01*
X74937952Y-58697714D01*
X74747476Y-58650095D01*
X74652238Y-58602476D01*
X74557000Y-58507238D01*
X74509380Y-58364380D01*
X74509380Y-58269142D01*
X74557000Y-58126285D01*
X74604619Y-58078666D01*
X74509380Y-57221523D02*
X74509380Y-57412000D01*
X74557000Y-57507238D01*
X74604619Y-57554857D01*
X74747476Y-57650095D01*
X74937952Y-57697714D01*
X75318904Y-57697714D01*
X75414142Y-57650095D01*
X75461761Y-57602476D01*
X75509380Y-57507238D01*
X75509380Y-57316761D01*
X75461761Y-57221523D01*
X75414142Y-57173904D01*
X75318904Y-57126285D01*
X75080809Y-57126285D01*
X74985571Y-57173904D01*
X74937952Y-57221523D01*
X74890333Y-57316761D01*
X74890333Y-57507238D01*
X74937952Y-57602476D01*
X74985571Y-57650095D01*
X75080809Y-57697714D01*
X75414142Y-48426666D02*
X75461761Y-48474285D01*
X75509380Y-48617142D01*
X75509380Y-48712380D01*
X75461761Y-48855238D01*
X75366523Y-48950476D01*
X75271285Y-48998095D01*
X75080809Y-49045714D01*
X74937952Y-49045714D01*
X74747476Y-48998095D01*
X74652238Y-48950476D01*
X74557000Y-48855238D01*
X74509380Y-48712380D01*
X74509380Y-48617142D01*
X74557000Y-48474285D01*
X74604619Y-48426666D01*
X74509380Y-48093333D02*
X74509380Y-47426666D01*
X75509380Y-47855238D01*
X81637142Y-70873857D02*
X81684761Y-70921476D01*
X81732380Y-71064333D01*
X81732380Y-71159571D01*
X81684761Y-71302428D01*
X81589523Y-71397666D01*
X81494285Y-71445285D01*
X81303809Y-71492904D01*
X81160952Y-71492904D01*
X80970476Y-71445285D01*
X80875238Y-71397666D01*
X80780000Y-71302428D01*
X80732380Y-71159571D01*
X80732380Y-71064333D01*
X80780000Y-70921476D01*
X80827619Y-70873857D01*
X81732380Y-69921476D02*
X81732380Y-70492904D01*
X81732380Y-70207190D02*
X80732380Y-70207190D01*
X80875238Y-70302428D01*
X80970476Y-70397666D01*
X81018095Y-70492904D01*
X80732380Y-69588142D02*
X80732380Y-68969095D01*
X81113333Y-69302428D01*
X81113333Y-69159571D01*
X81160952Y-69064333D01*
X81208571Y-69016714D01*
X81303809Y-68969095D01*
X81541904Y-68969095D01*
X81637142Y-69016714D01*
X81684761Y-69064333D01*
X81732380Y-69159571D01*
X81732380Y-69445285D01*
X81684761Y-69540523D01*
X81637142Y-69588142D01*
X81637142Y-73667857D02*
X81684761Y-73715476D01*
X81732380Y-73858333D01*
X81732380Y-73953571D01*
X81684761Y-74096428D01*
X81589523Y-74191666D01*
X81494285Y-74239285D01*
X81303809Y-74286904D01*
X81160952Y-74286904D01*
X80970476Y-74239285D01*
X80875238Y-74191666D01*
X80780000Y-74096428D01*
X80732380Y-73953571D01*
X80732380Y-73858333D01*
X80780000Y-73715476D01*
X80827619Y-73667857D01*
X81732380Y-72715476D02*
X81732380Y-73286904D01*
X81732380Y-73001190D02*
X80732380Y-73001190D01*
X80875238Y-73096428D01*
X80970476Y-73191666D01*
X81018095Y-73286904D01*
X81065714Y-71858333D02*
X81732380Y-71858333D01*
X80684761Y-72096428D02*
X81399047Y-72334523D01*
X81399047Y-71715476D01*
X69588142Y-79605142D02*
X69540523Y-79652761D01*
X69397666Y-79700380D01*
X69302428Y-79700380D01*
X69159571Y-79652761D01*
X69064333Y-79557523D01*
X69016714Y-79462285D01*
X68969095Y-79271809D01*
X68969095Y-79128952D01*
X69016714Y-78938476D01*
X69064333Y-78843238D01*
X69159571Y-78748000D01*
X69302428Y-78700380D01*
X69397666Y-78700380D01*
X69540523Y-78748000D01*
X69588142Y-78795619D01*
X70540523Y-79700380D02*
X69969095Y-79700380D01*
X70254809Y-79700380D02*
X70254809Y-78700380D01*
X70159571Y-78843238D01*
X70064333Y-78938476D01*
X69969095Y-78986095D01*
X71445285Y-78700380D02*
X70969095Y-78700380D01*
X70921476Y-79176571D01*
X70969095Y-79128952D01*
X71064333Y-79081333D01*
X71302428Y-79081333D01*
X71397666Y-79128952D01*
X71445285Y-79176571D01*
X71492904Y-79271809D01*
X71492904Y-79509904D01*
X71445285Y-79605142D01*
X71397666Y-79652761D01*
X71302428Y-79700380D01*
X71064333Y-79700380D01*
X70969095Y-79652761D01*
X70921476Y-79605142D01*
X82272142Y-67952857D02*
X82319761Y-68000476D01*
X82367380Y-68143333D01*
X82367380Y-68238571D01*
X82319761Y-68381428D01*
X82224523Y-68476666D01*
X82129285Y-68524285D01*
X81938809Y-68571904D01*
X81795952Y-68571904D01*
X81605476Y-68524285D01*
X81510238Y-68476666D01*
X81415000Y-68381428D01*
X81367380Y-68238571D01*
X81367380Y-68143333D01*
X81415000Y-68000476D01*
X81462619Y-67952857D01*
X82367380Y-67000476D02*
X82367380Y-67571904D01*
X82367380Y-67286190D02*
X81367380Y-67286190D01*
X81510238Y-67381428D01*
X81605476Y-67476666D01*
X81653095Y-67571904D01*
X81367380Y-66667142D02*
X81367380Y-66000476D01*
X82367380Y-66429047D01*
X66016142Y-50045857D02*
X66063761Y-50093476D01*
X66111380Y-50236333D01*
X66111380Y-50331571D01*
X66063761Y-50474428D01*
X65968523Y-50569666D01*
X65873285Y-50617285D01*
X65682809Y-50664904D01*
X65539952Y-50664904D01*
X65349476Y-50617285D01*
X65254238Y-50569666D01*
X65159000Y-50474428D01*
X65111380Y-50331571D01*
X65111380Y-50236333D01*
X65159000Y-50093476D01*
X65206619Y-50045857D01*
X66111380Y-49093476D02*
X66111380Y-49664904D01*
X66111380Y-49379190D02*
X65111380Y-49379190D01*
X65254238Y-49474428D01*
X65349476Y-49569666D01*
X65397095Y-49664904D01*
X66111380Y-48617285D02*
X66111380Y-48426809D01*
X66063761Y-48331571D01*
X66016142Y-48283952D01*
X65873285Y-48188714D01*
X65682809Y-48141095D01*
X65301857Y-48141095D01*
X65206619Y-48188714D01*
X65159000Y-48236333D01*
X65111380Y-48331571D01*
X65111380Y-48522047D01*
X65159000Y-48617285D01*
X65206619Y-48664904D01*
X65301857Y-48712523D01*
X65539952Y-48712523D01*
X65635190Y-48664904D01*
X65682809Y-48617285D01*
X65730428Y-48522047D01*
X65730428Y-48331571D01*
X65682809Y-48236333D01*
X65635190Y-48188714D01*
X65539952Y-48141095D01*
X66714642Y-54998857D02*
X66762261Y-55046476D01*
X66809880Y-55189333D01*
X66809880Y-55284571D01*
X66762261Y-55427428D01*
X66667023Y-55522666D01*
X66571785Y-55570285D01*
X66381309Y-55617904D01*
X66238452Y-55617904D01*
X66047976Y-55570285D01*
X65952738Y-55522666D01*
X65857500Y-55427428D01*
X65809880Y-55284571D01*
X65809880Y-55189333D01*
X65857500Y-55046476D01*
X65905119Y-54998857D01*
X65905119Y-54617904D02*
X65857500Y-54570285D01*
X65809880Y-54475047D01*
X65809880Y-54236952D01*
X65857500Y-54141714D01*
X65905119Y-54094095D01*
X66000357Y-54046476D01*
X66095595Y-54046476D01*
X66238452Y-54094095D01*
X66809880Y-54665523D01*
X66809880Y-54046476D01*
X65809880Y-53427428D02*
X65809880Y-53332190D01*
X65857500Y-53236952D01*
X65905119Y-53189333D01*
X66000357Y-53141714D01*
X66190833Y-53094095D01*
X66428928Y-53094095D01*
X66619404Y-53141714D01*
X66714642Y-53189333D01*
X66762261Y-53236952D01*
X66809880Y-53332190D01*
X66809880Y-53427428D01*
X66762261Y-53522666D01*
X66714642Y-53570285D01*
X66619404Y-53617904D01*
X66428928Y-53665523D01*
X66190833Y-53665523D01*
X66000357Y-53617904D01*
X65905119Y-53570285D01*
X65857500Y-53522666D01*
X65809880Y-53427428D01*
X60190142Y-84812142D02*
X60142523Y-84859761D01*
X59999666Y-84907380D01*
X59904428Y-84907380D01*
X59761571Y-84859761D01*
X59666333Y-84764523D01*
X59618714Y-84669285D01*
X59571095Y-84478809D01*
X59571095Y-84335952D01*
X59618714Y-84145476D01*
X59666333Y-84050238D01*
X59761571Y-83955000D01*
X59904428Y-83907380D01*
X59999666Y-83907380D01*
X60142523Y-83955000D01*
X60190142Y-84002619D01*
X60571095Y-84002619D02*
X60618714Y-83955000D01*
X60713952Y-83907380D01*
X60952047Y-83907380D01*
X61047285Y-83955000D01*
X61094904Y-84002619D01*
X61142523Y-84097857D01*
X61142523Y-84193095D01*
X61094904Y-84335952D01*
X60523476Y-84907380D01*
X61142523Y-84907380D01*
X62094904Y-84907380D02*
X61523476Y-84907380D01*
X61809190Y-84907380D02*
X61809190Y-83907380D01*
X61713952Y-84050238D01*
X61618714Y-84145476D01*
X61523476Y-84193095D01*
X68254642Y-60618642D02*
X68207023Y-60666261D01*
X68064166Y-60713880D01*
X67968928Y-60713880D01*
X67826071Y-60666261D01*
X67730833Y-60571023D01*
X67683214Y-60475785D01*
X67635595Y-60285309D01*
X67635595Y-60142452D01*
X67683214Y-59951976D01*
X67730833Y-59856738D01*
X67826071Y-59761500D01*
X67968928Y-59713880D01*
X68064166Y-59713880D01*
X68207023Y-59761500D01*
X68254642Y-59809119D01*
X68635595Y-59809119D02*
X68683214Y-59761500D01*
X68778452Y-59713880D01*
X69016547Y-59713880D01*
X69111785Y-59761500D01*
X69159404Y-59809119D01*
X69207023Y-59904357D01*
X69207023Y-59999595D01*
X69159404Y-60142452D01*
X68587976Y-60713880D01*
X69207023Y-60713880D01*
X69540357Y-59713880D02*
X70159404Y-59713880D01*
X69826071Y-60094833D01*
X69968928Y-60094833D01*
X70064166Y-60142452D01*
X70111785Y-60190071D01*
X70159404Y-60285309D01*
X70159404Y-60523404D01*
X70111785Y-60618642D01*
X70064166Y-60666261D01*
X69968928Y-60713880D01*
X69683214Y-60713880D01*
X69587976Y-60666261D01*
X69540357Y-60618642D01*
X73080642Y-61190142D02*
X73033023Y-61237761D01*
X72890166Y-61285380D01*
X72794928Y-61285380D01*
X72652071Y-61237761D01*
X72556833Y-61142523D01*
X72509214Y-61047285D01*
X72461595Y-60856809D01*
X72461595Y-60713952D01*
X72509214Y-60523476D01*
X72556833Y-60428238D01*
X72652071Y-60333000D01*
X72794928Y-60285380D01*
X72890166Y-60285380D01*
X73033023Y-60333000D01*
X73080642Y-60380619D01*
X73461595Y-60380619D02*
X73509214Y-60333000D01*
X73604452Y-60285380D01*
X73842547Y-60285380D01*
X73937785Y-60333000D01*
X73985404Y-60380619D01*
X74033023Y-60475857D01*
X74033023Y-60571095D01*
X73985404Y-60713952D01*
X73413976Y-61285380D01*
X74033023Y-61285380D01*
X74890166Y-60618714D02*
X74890166Y-61285380D01*
X74652071Y-60237761D02*
X74413976Y-60952047D01*
X75033023Y-60952047D01*
X86891904Y-58475571D02*
X86558571Y-58475571D01*
X86558571Y-58999380D02*
X86558571Y-57999380D01*
X87034761Y-57999380D01*
X87891904Y-58999380D02*
X87415714Y-58999380D01*
X87415714Y-57999380D01*
X88749047Y-58999380D02*
X88177619Y-58999380D01*
X88463333Y-58999380D02*
X88463333Y-57999380D01*
X88368095Y-58142238D01*
X88272857Y-58237476D01*
X88177619Y-58285095D01*
X86891904Y-48569571D02*
X86558571Y-48569571D01*
X86558571Y-49093380D02*
X86558571Y-48093380D01*
X87034761Y-48093380D01*
X87891904Y-49093380D02*
X87415714Y-49093380D01*
X87415714Y-48093380D01*
X88177619Y-48188619D02*
X88225238Y-48141000D01*
X88320476Y-48093380D01*
X88558571Y-48093380D01*
X88653809Y-48141000D01*
X88701428Y-48188619D01*
X88749047Y-48283857D01*
X88749047Y-48379095D01*
X88701428Y-48521952D01*
X88130000Y-49093380D01*
X88749047Y-49093380D01*
X58364380Y-64682666D02*
X57888190Y-65016000D01*
X58364380Y-65254095D02*
X57364380Y-65254095D01*
X57364380Y-64873142D01*
X57412000Y-64777904D01*
X57459619Y-64730285D01*
X57554857Y-64682666D01*
X57697714Y-64682666D01*
X57792952Y-64730285D01*
X57840571Y-64777904D01*
X57888190Y-64873142D01*
X57888190Y-65254095D01*
X58364380Y-63730285D02*
X58364380Y-64301714D01*
X58364380Y-64016000D02*
X57364380Y-64016000D01*
X57507238Y-64111238D01*
X57602476Y-64206476D01*
X57650095Y-64301714D01*
X58237380Y-69254666D02*
X57761190Y-69588000D01*
X58237380Y-69826095D02*
X57237380Y-69826095D01*
X57237380Y-69445142D01*
X57285000Y-69349904D01*
X57332619Y-69302285D01*
X57427857Y-69254666D01*
X57570714Y-69254666D01*
X57665952Y-69302285D01*
X57713571Y-69349904D01*
X57761190Y-69445142D01*
X57761190Y-69826095D01*
X57332619Y-68873714D02*
X57285000Y-68826095D01*
X57237380Y-68730857D01*
X57237380Y-68492761D01*
X57285000Y-68397523D01*
X57332619Y-68349904D01*
X57427857Y-68302285D01*
X57523095Y-68302285D01*
X57665952Y-68349904D01*
X58237380Y-68921333D01*
X58237380Y-68302285D01*
X58999380Y-73953666D02*
X58523190Y-74287000D01*
X58999380Y-74525095D02*
X57999380Y-74525095D01*
X57999380Y-74144142D01*
X58047000Y-74048904D01*
X58094619Y-74001285D01*
X58189857Y-73953666D01*
X58332714Y-73953666D01*
X58427952Y-74001285D01*
X58475571Y-74048904D01*
X58523190Y-74144142D01*
X58523190Y-74525095D01*
X57999380Y-73620333D02*
X57999380Y-73001285D01*
X58380333Y-73334619D01*
X58380333Y-73191761D01*
X58427952Y-73096523D01*
X58475571Y-73048904D01*
X58570809Y-73001285D01*
X58808904Y-73001285D01*
X58904142Y-73048904D01*
X58951761Y-73096523D01*
X58999380Y-73191761D01*
X58999380Y-73477476D01*
X58951761Y-73572714D01*
X58904142Y-73620333D01*
X62682380Y-64174666D02*
X62206190Y-64508000D01*
X62682380Y-64746095D02*
X61682380Y-64746095D01*
X61682380Y-64365142D01*
X61730000Y-64269904D01*
X61777619Y-64222285D01*
X61872857Y-64174666D01*
X62015714Y-64174666D01*
X62110952Y-64222285D01*
X62158571Y-64269904D01*
X62206190Y-64365142D01*
X62206190Y-64746095D01*
X62015714Y-63317523D02*
X62682380Y-63317523D01*
X61634761Y-63555619D02*
X62349047Y-63793714D01*
X62349047Y-63174666D01*
X62682380Y-76620666D02*
X62206190Y-76954000D01*
X62682380Y-77192095D02*
X61682380Y-77192095D01*
X61682380Y-76811142D01*
X61730000Y-76715904D01*
X61777619Y-76668285D01*
X61872857Y-76620666D01*
X62015714Y-76620666D01*
X62110952Y-76668285D01*
X62158571Y-76715904D01*
X62206190Y-76811142D01*
X62206190Y-77192095D01*
X61682380Y-75715904D02*
X61682380Y-76192095D01*
X62158571Y-76239714D01*
X62110952Y-76192095D01*
X62063333Y-76096857D01*
X62063333Y-75858761D01*
X62110952Y-75763523D01*
X62158571Y-75715904D01*
X62253809Y-75668285D01*
X62491904Y-75668285D01*
X62587142Y-75715904D01*
X62634761Y-75763523D01*
X62682380Y-75858761D01*
X62682380Y-76096857D01*
X62634761Y-76192095D01*
X62587142Y-76239714D01*
X62301380Y-73826666D02*
X61825190Y-74160000D01*
X62301380Y-74398095D02*
X61301380Y-74398095D01*
X61301380Y-74017142D01*
X61349000Y-73921904D01*
X61396619Y-73874285D01*
X61491857Y-73826666D01*
X61634714Y-73826666D01*
X61729952Y-73874285D01*
X61777571Y-73921904D01*
X61825190Y-74017142D01*
X61825190Y-74398095D01*
X61301380Y-72969523D02*
X61301380Y-73160000D01*
X61349000Y-73255238D01*
X61396619Y-73302857D01*
X61539476Y-73398095D01*
X61729952Y-73445714D01*
X62110904Y-73445714D01*
X62206142Y-73398095D01*
X62253761Y-73350476D01*
X62301380Y-73255238D01*
X62301380Y-73064761D01*
X62253761Y-72969523D01*
X62206142Y-72921904D01*
X62110904Y-72874285D01*
X61872809Y-72874285D01*
X61777571Y-72921904D01*
X61729952Y-72969523D01*
X61682333Y-73064761D01*
X61682333Y-73255238D01*
X61729952Y-73350476D01*
X61777571Y-73398095D01*
X61872809Y-73445714D01*
X64730333Y-62809380D02*
X64397000Y-62333190D01*
X64158904Y-62809380D02*
X64158904Y-61809380D01*
X64539857Y-61809380D01*
X64635095Y-61857000D01*
X64682714Y-61904619D01*
X64730333Y-61999857D01*
X64730333Y-62142714D01*
X64682714Y-62237952D01*
X64635095Y-62285571D01*
X64539857Y-62333190D01*
X64158904Y-62333190D01*
X65063666Y-61809380D02*
X65730333Y-61809380D01*
X65301761Y-62809380D01*
X63714333Y-75128380D02*
X63381000Y-74652190D01*
X63142904Y-75128380D02*
X63142904Y-74128380D01*
X63523857Y-74128380D01*
X63619095Y-74176000D01*
X63666714Y-74223619D01*
X63714333Y-74318857D01*
X63714333Y-74461714D01*
X63666714Y-74556952D01*
X63619095Y-74604571D01*
X63523857Y-74652190D01*
X63142904Y-74652190D01*
X64285761Y-74556952D02*
X64190523Y-74509333D01*
X64142904Y-74461714D01*
X64095285Y-74366476D01*
X64095285Y-74318857D01*
X64142904Y-74223619D01*
X64190523Y-74176000D01*
X64285761Y-74128380D01*
X64476238Y-74128380D01*
X64571476Y-74176000D01*
X64619095Y-74223619D01*
X64666714Y-74318857D01*
X64666714Y-74366476D01*
X64619095Y-74461714D01*
X64571476Y-74509333D01*
X64476238Y-74556952D01*
X64285761Y-74556952D01*
X64190523Y-74604571D01*
X64142904Y-74652190D01*
X64095285Y-74747428D01*
X64095285Y-74937904D01*
X64142904Y-75033142D01*
X64190523Y-75080761D01*
X64285761Y-75128380D01*
X64476238Y-75128380D01*
X64571476Y-75080761D01*
X64619095Y-75033142D01*
X64666714Y-74937904D01*
X64666714Y-74747428D01*
X64619095Y-74652190D01*
X64571476Y-74604571D01*
X64476238Y-74556952D01*
X55824380Y-73826666D02*
X55348190Y-74160000D01*
X55824380Y-74398095D02*
X54824380Y-74398095D01*
X54824380Y-74017142D01*
X54872000Y-73921904D01*
X54919619Y-73874285D01*
X55014857Y-73826666D01*
X55157714Y-73826666D01*
X55252952Y-73874285D01*
X55300571Y-73921904D01*
X55348190Y-74017142D01*
X55348190Y-74398095D01*
X55824380Y-73350476D02*
X55824380Y-73160000D01*
X55776761Y-73064761D01*
X55729142Y-73017142D01*
X55586285Y-72921904D01*
X55395809Y-72874285D01*
X55014857Y-72874285D01*
X54919619Y-72921904D01*
X54872000Y-72969523D01*
X54824380Y-73064761D01*
X54824380Y-73255238D01*
X54872000Y-73350476D01*
X54919619Y-73398095D01*
X55014857Y-73445714D01*
X55252952Y-73445714D01*
X55348190Y-73398095D01*
X55395809Y-73350476D01*
X55443428Y-73255238D01*
X55443428Y-73064761D01*
X55395809Y-72969523D01*
X55348190Y-72921904D01*
X55252952Y-72874285D01*
X71493142Y-70429380D02*
X71159809Y-69953190D01*
X70921714Y-70429380D02*
X70921714Y-69429380D01*
X71302666Y-69429380D01*
X71397904Y-69477000D01*
X71445523Y-69524619D01*
X71493142Y-69619857D01*
X71493142Y-69762714D01*
X71445523Y-69857952D01*
X71397904Y-69905571D01*
X71302666Y-69953190D01*
X70921714Y-69953190D01*
X72445523Y-70429380D02*
X71874095Y-70429380D01*
X72159809Y-70429380D02*
X72159809Y-69429380D01*
X72064571Y-69572238D01*
X71969333Y-69667476D01*
X71874095Y-69715095D01*
X73064571Y-69429380D02*
X73159809Y-69429380D01*
X73255047Y-69477000D01*
X73302666Y-69524619D01*
X73350285Y-69619857D01*
X73397904Y-69810333D01*
X73397904Y-70048428D01*
X73350285Y-70238904D01*
X73302666Y-70334142D01*
X73255047Y-70381761D01*
X73159809Y-70429380D01*
X73064571Y-70429380D01*
X72969333Y-70381761D01*
X72921714Y-70334142D01*
X72874095Y-70238904D01*
X72826476Y-70048428D01*
X72826476Y-69810333D01*
X72874095Y-69619857D01*
X72921714Y-69524619D01*
X72969333Y-69477000D01*
X73064571Y-69429380D01*
X66413142Y-72969380D02*
X66079809Y-72493190D01*
X65841714Y-72969380D02*
X65841714Y-71969380D01*
X66222666Y-71969380D01*
X66317904Y-72017000D01*
X66365523Y-72064619D01*
X66413142Y-72159857D01*
X66413142Y-72302714D01*
X66365523Y-72397952D01*
X66317904Y-72445571D01*
X66222666Y-72493190D01*
X65841714Y-72493190D01*
X67365523Y-72969380D02*
X66794095Y-72969380D01*
X67079809Y-72969380D02*
X67079809Y-71969380D01*
X66984571Y-72112238D01*
X66889333Y-72207476D01*
X66794095Y-72255095D01*
X68317904Y-72969380D02*
X67746476Y-72969380D01*
X68032190Y-72969380D02*
X68032190Y-71969380D01*
X67936952Y-72112238D01*
X67841714Y-72207476D01*
X67746476Y-72255095D01*
X72509142Y-75382380D02*
X72175809Y-74906190D01*
X71937714Y-75382380D02*
X71937714Y-74382380D01*
X72318666Y-74382380D01*
X72413904Y-74430000D01*
X72461523Y-74477619D01*
X72509142Y-74572857D01*
X72509142Y-74715714D01*
X72461523Y-74810952D01*
X72413904Y-74858571D01*
X72318666Y-74906190D01*
X71937714Y-74906190D01*
X73461523Y-75382380D02*
X72890095Y-75382380D01*
X73175809Y-75382380D02*
X73175809Y-74382380D01*
X73080571Y-74525238D01*
X72985333Y-74620476D01*
X72890095Y-74668095D01*
X73842476Y-74477619D02*
X73890095Y-74430000D01*
X73985333Y-74382380D01*
X74223428Y-74382380D01*
X74318666Y-74430000D01*
X74366285Y-74477619D01*
X74413904Y-74572857D01*
X74413904Y-74668095D01*
X74366285Y-74810952D01*
X73794857Y-75382380D01*
X74413904Y-75382380D01*
X74541142Y-67381380D02*
X74207809Y-66905190D01*
X73969714Y-67381380D02*
X73969714Y-66381380D01*
X74350666Y-66381380D01*
X74445904Y-66429000D01*
X74493523Y-66476619D01*
X74541142Y-66571857D01*
X74541142Y-66714714D01*
X74493523Y-66809952D01*
X74445904Y-66857571D01*
X74350666Y-66905190D01*
X73969714Y-66905190D01*
X75493523Y-67381380D02*
X74922095Y-67381380D01*
X75207809Y-67381380D02*
X75207809Y-66381380D01*
X75112571Y-66524238D01*
X75017333Y-66619476D01*
X74922095Y-66667095D01*
X75826857Y-66381380D02*
X76445904Y-66381380D01*
X76112571Y-66762333D01*
X76255428Y-66762333D01*
X76350666Y-66809952D01*
X76398285Y-66857571D01*
X76445904Y-66952809D01*
X76445904Y-67190904D01*
X76398285Y-67286142D01*
X76350666Y-67333761D01*
X76255428Y-67381380D01*
X75969714Y-67381380D01*
X75874476Y-67333761D01*
X75826857Y-67286142D01*
X78224142Y-61920380D02*
X77890809Y-61444190D01*
X77652714Y-61920380D02*
X77652714Y-60920380D01*
X78033666Y-60920380D01*
X78128904Y-60968000D01*
X78176523Y-61015619D01*
X78224142Y-61110857D01*
X78224142Y-61253714D01*
X78176523Y-61348952D01*
X78128904Y-61396571D01*
X78033666Y-61444190D01*
X77652714Y-61444190D01*
X79176523Y-61920380D02*
X78605095Y-61920380D01*
X78890809Y-61920380D02*
X78890809Y-60920380D01*
X78795571Y-61063238D01*
X78700333Y-61158476D01*
X78605095Y-61206095D01*
X80033666Y-61253714D02*
X80033666Y-61920380D01*
X79795571Y-60872761D02*
X79557476Y-61587047D01*
X80176523Y-61587047D01*
X73144142Y-46299380D02*
X72810809Y-45823190D01*
X72572714Y-46299380D02*
X72572714Y-45299380D01*
X72953666Y-45299380D01*
X73048904Y-45347000D01*
X73096523Y-45394619D01*
X73144142Y-45489857D01*
X73144142Y-45632714D01*
X73096523Y-45727952D01*
X73048904Y-45775571D01*
X72953666Y-45823190D01*
X72572714Y-45823190D01*
X74096523Y-46299380D02*
X73525095Y-46299380D01*
X73810809Y-46299380D02*
X73810809Y-45299380D01*
X73715571Y-45442238D01*
X73620333Y-45537476D01*
X73525095Y-45585095D01*
X75001285Y-45299380D02*
X74525095Y-45299380D01*
X74477476Y-45775571D01*
X74525095Y-45727952D01*
X74620333Y-45680333D01*
X74858428Y-45680333D01*
X74953666Y-45727952D01*
X75001285Y-45775571D01*
X75048904Y-45870809D01*
X75048904Y-46108904D01*
X75001285Y-46204142D01*
X74953666Y-46251761D01*
X74858428Y-46299380D01*
X74620333Y-46299380D01*
X74525095Y-46251761D01*
X74477476Y-46204142D01*
X60936261Y-56141880D02*
X60602928Y-55665690D01*
X60364833Y-56141880D02*
X60364833Y-55141880D01*
X60745785Y-55141880D01*
X60841023Y-55189500D01*
X60888642Y-55237119D01*
X60936261Y-55332357D01*
X60936261Y-55475214D01*
X60888642Y-55570452D01*
X60841023Y-55618071D01*
X60745785Y-55665690D01*
X60364833Y-55665690D01*
X61221976Y-55141880D02*
X61555309Y-56141880D01*
X61888642Y-55141880D01*
X62745785Y-56141880D02*
X62174357Y-56141880D01*
X62460071Y-56141880D02*
X62460071Y-55141880D01*
X62364833Y-55284738D01*
X62269595Y-55379976D01*
X62174357Y-55427595D01*
X77700261Y-81668880D02*
X77366928Y-81192690D01*
X77128833Y-81668880D02*
X77128833Y-80668880D01*
X77509785Y-80668880D01*
X77605023Y-80716500D01*
X77652642Y-80764119D01*
X77700261Y-80859357D01*
X77700261Y-81002214D01*
X77652642Y-81097452D01*
X77605023Y-81145071D01*
X77509785Y-81192690D01*
X77128833Y-81192690D01*
X77985976Y-80668880D02*
X78319309Y-81668880D01*
X78652642Y-80668880D01*
X78938357Y-80764119D02*
X78985976Y-80716500D01*
X79081214Y-80668880D01*
X79319309Y-80668880D01*
X79414547Y-80716500D01*
X79462166Y-80764119D01*
X79509785Y-80859357D01*
X79509785Y-80954595D01*
X79462166Y-81097452D01*
X78890738Y-81668880D01*
X79509785Y-81668880D01*
X78875095Y-62444380D02*
X79446523Y-62444380D01*
X79160809Y-63444380D02*
X79160809Y-62444380D01*
X79779857Y-63444380D02*
X79779857Y-62444380D01*
X80160809Y-62444380D01*
X80256047Y-62492000D01*
X80303666Y-62539619D01*
X80351285Y-62634857D01*
X80351285Y-62777714D01*
X80303666Y-62872952D01*
X80256047Y-62920571D01*
X80160809Y-62968190D01*
X79779857Y-62968190D01*
X81303666Y-63444380D02*
X80732238Y-63444380D01*
X81017952Y-63444380D02*
X81017952Y-62444380D01*
X80922714Y-62587238D01*
X80827476Y-62682476D01*
X80732238Y-62730095D01*
X74239595Y-62952380D02*
X74811023Y-62952380D01*
X74525309Y-63952380D02*
X74525309Y-62952380D01*
X75144357Y-63952380D02*
X75144357Y-62952380D01*
X75525309Y-62952380D01*
X75620547Y-63000000D01*
X75668166Y-63047619D01*
X75715785Y-63142857D01*
X75715785Y-63285714D01*
X75668166Y-63380952D01*
X75620547Y-63428571D01*
X75525309Y-63476190D01*
X75144357Y-63476190D01*
X76096738Y-63047619D02*
X76144357Y-63000000D01*
X76239595Y-62952380D01*
X76477690Y-62952380D01*
X76572928Y-63000000D01*
X76620547Y-63047619D01*
X76668166Y-63142857D01*
X76668166Y-63238095D01*
X76620547Y-63380952D01*
X76049119Y-63952380D01*
X76668166Y-63952380D01*
X77605095Y-77684380D02*
X78176523Y-77684380D01*
X77890809Y-78684380D02*
X77890809Y-77684380D01*
X78509857Y-78684380D02*
X78509857Y-77684380D01*
X78890809Y-77684380D01*
X78986047Y-77732000D01*
X79033666Y-77779619D01*
X79081285Y-77874857D01*
X79081285Y-78017714D01*
X79033666Y-78112952D01*
X78986047Y-78160571D01*
X78890809Y-78208190D01*
X78509857Y-78208190D01*
X79414619Y-77684380D02*
X80033666Y-77684380D01*
X79700333Y-78065333D01*
X79843190Y-78065333D01*
X79938428Y-78112952D01*
X79986047Y-78160571D01*
X80033666Y-78255809D01*
X80033666Y-78493904D01*
X79986047Y-78589142D01*
X79938428Y-78636761D01*
X79843190Y-78684380D01*
X79557476Y-78684380D01*
X79462238Y-78636761D01*
X79414619Y-78589142D01*
D13*
X64140047Y-72043952D02*
X64140047Y-72367761D01*
X64163857Y-72405857D01*
X64187666Y-72424904D01*
X64235285Y-72443952D01*
X64330523Y-72443952D01*
X64378142Y-72424904D01*
X64401952Y-72405857D01*
X64425761Y-72367761D01*
X64425761Y-72043952D01*
X64640047Y-72082047D02*
X64663857Y-72063000D01*
X64711476Y-72043952D01*
X64830523Y-72043952D01*
X64878142Y-72063000D01*
X64901952Y-72082047D01*
X64925761Y-72120142D01*
X64925761Y-72158238D01*
X64901952Y-72215380D01*
X64616238Y-72443952D01*
X64925761Y-72443952D01*
D12*
X54697380Y-81851404D02*
X55506904Y-81851404D01*
X55602142Y-81803785D01*
X55649761Y-81756166D01*
X55697380Y-81660928D01*
X55697380Y-81470452D01*
X55649761Y-81375214D01*
X55602142Y-81327595D01*
X55506904Y-81279976D01*
X54697380Y-81279976D01*
X54697380Y-80327595D02*
X54697380Y-80803785D01*
X55173571Y-80851404D01*
X55125952Y-80803785D01*
X55078333Y-80708547D01*
X55078333Y-80470452D01*
X55125952Y-80375214D01*
X55173571Y-80327595D01*
X55268809Y-80279976D01*
X55506904Y-80279976D01*
X55602142Y-80327595D01*
X55649761Y-80375214D01*
X55697380Y-80470452D01*
X55697380Y-80708547D01*
X55649761Y-80803785D01*
X55602142Y-80851404D01*
X72985380Y-72389904D02*
X73794904Y-72389904D01*
X73890142Y-72342285D01*
X73937761Y-72294666D01*
X73985380Y-72199428D01*
X73985380Y-72008952D01*
X73937761Y-71913714D01*
X73890142Y-71866095D01*
X73794904Y-71818476D01*
X72985380Y-71818476D01*
X72985380Y-70913714D02*
X72985380Y-71104190D01*
X73033000Y-71199428D01*
X73080619Y-71247047D01*
X73223476Y-71342285D01*
X73413952Y-71389904D01*
X73794904Y-71389904D01*
X73890142Y-71342285D01*
X73937761Y-71294666D01*
X73985380Y-71199428D01*
X73985380Y-71008952D01*
X73937761Y-70913714D01*
X73890142Y-70866095D01*
X73794904Y-70818476D01*
X73556809Y-70818476D01*
X73461571Y-70866095D01*
X73413952Y-70913714D01*
X73366333Y-71008952D01*
X73366333Y-71199428D01*
X73413952Y-71294666D01*
X73461571Y-71342285D01*
X73556809Y-71389904D01*
M02*
