M48
; DRILL file {KiCad (5.1.5)-3} date 2020/04/14 23:54:20
; FORMAT={-:-/ absolute / inch / decimal}
; #@! TF.CreationDate,2020-04-14T23:54:20+09:00
; #@! TF.GenerationSoftware,Kicad,Pcbnew,(5.1.5)-3
FMAT,2
INCH
T1C0.0157
T2C0.0197
T3C0.0374
T4C0.0591
T5C0.0669
T6C0.1063
%
G90
G05
T1
X2.0Y-2.6675
X2.0Y-2.7075
X2.03Y-2.6875
X2.05Y-1.95
X2.05Y-2.05
X2.05Y-2.15
X2.05Y-2.25
X2.05Y-2.35
X2.05Y-2.45
X2.05Y-2.95
X2.05Y-3.05
X2.05Y-3.15
X2.0675Y-2.6875
X2.105Y-2.6875
X2.15Y-1.95
X2.15Y-2.05
X2.15Y-2.15
X2.15Y-2.25
X2.15Y-2.35
X2.15Y-2.45
X2.15Y-2.85
X2.15Y-2.95
X2.15Y-3.05
X2.15Y-3.15
X2.25Y-1.75
X2.25Y-1.85
X2.25Y-1.95
X2.25Y-2.05
X2.25Y-2.15
X2.25Y-2.25
X2.25Y-2.35
X2.25Y-2.45
X2.25Y-3.375
X2.35Y-1.75
X2.35Y-1.85
X2.35Y-1.95
X2.35Y-2.05
X2.35Y-2.15
X2.35Y-3.085
X2.35Y-3.375
X2.39Y-3.085
X2.445Y-2.68
X2.445Y-2.715
X2.45Y-1.75
X2.45Y-1.85
X2.45Y-1.95
X2.45Y-2.05
X2.45Y-2.15
X2.45Y-3.375
X2.525Y-2.56
X2.55Y-1.75
X2.55Y-1.85
X2.55Y-1.95
X2.55Y-2.05
X2.55Y-2.15
X2.55Y-3.375
X2.565Y-2.935
X2.57Y-3.041
X2.6Y-2.41
X2.6Y-2.56
X2.62Y-2.44
X2.62Y-2.975
X2.64Y-2.41
X2.65Y-1.75
X2.65Y-2.05
X2.65Y-2.15
X2.65Y-3.375
X2.655Y-2.975
X2.68Y-3.065
X2.695Y-2.41
X2.715Y-3.065
X2.73Y-2.41
X2.75Y-1.75
X2.75Y-3.375
X2.79Y-2.41
X2.815Y-1.825
X2.815Y-1.86
X2.815Y-1.895
X2.825Y-2.41
X2.85Y-1.75
X2.85Y-3.375
X2.9Y-1.93
X2.9Y-1.98
X2.9Y-2.03
X2.9Y-2.08
X2.9Y-2.13
X2.9Y-2.435
X2.915Y-2.465
X2.935Y-2.435
X2.94Y-1.98
X2.94Y-2.03
X2.94Y-2.08
X2.94Y-2.13
X2.95Y-1.75
X2.95Y-3.15
X2.95Y-3.25
X2.95Y-3.375
X2.955Y-2.465
X2.975Y-2.435
X2.995Y-2.465
X3.0Y-2.0
X3.0Y-2.05
X3.0Y-2.1
X3.0Y-2.15
X3.0Y-2.2
X3.015Y-2.435
X3.03Y-1.98
X3.03Y-2.03
X3.03Y-2.08
X3.03Y-2.13
X3.03Y-2.18
X3.035Y-2.465
X3.05Y-1.75
X3.05Y-3.15
X3.05Y-3.25
X3.05Y-3.375
X3.145Y-2.74
X3.145Y-2.775
X3.145Y-2.82
X3.145Y-2.855
X3.15Y-1.75
X3.15Y-1.825
X3.15Y-1.86
X3.15Y-1.895
X3.15Y-2.285
X3.15Y-2.3224
X3.15Y-2.36
X3.15Y-3.15
X3.15Y-3.25
X3.15Y-3.375
X3.21Y-1.98
X3.21Y-2.03
X3.21Y-2.08
X3.21Y-2.13
X3.21Y-2.18
X3.21Y-2.4
X3.21Y-2.44
X3.21Y-2.48
X3.23Y-2.68
X3.24Y-2.0
X3.24Y-2.05
X3.24Y-2.1
X3.24Y-2.15
X3.24Y-2.2
X3.24Y-2.38
X3.24Y-2.42
X3.24Y-2.46
X3.25Y-1.75
X3.25Y-2.85
X3.25Y-2.95
X3.25Y-3.05
X3.25Y-3.15
X3.25Y-3.25
X3.25Y-3.375
X3.28Y-2.58
X3.28Y-2.68
X3.29Y-2.11
X3.33Y-2.58
X3.33Y-2.68
X3.34Y-2.11
X3.35Y-1.75
X3.35Y-1.85
X3.35Y-2.35
X3.35Y-2.45
X3.35Y-2.85
X3.35Y-2.95
X3.35Y-3.05
X3.35Y-3.15
X3.35Y-3.25
X3.35Y-3.375
X3.39Y-2.11
X3.45Y-1.75
X3.45Y-1.85
X3.45Y-2.11
X3.45Y-2.35
X3.45Y-2.45
X3.45Y-2.85
X3.45Y-2.95
X3.45Y-3.05
X3.45Y-3.15
X3.45Y-3.25
X3.45Y-3.375
X3.52Y-2.11
X3.55Y-1.75
X3.55Y-1.85
X3.55Y-2.35
X3.55Y-2.45
X3.55Y-2.85
X3.55Y-2.95
X3.55Y-3.05
X3.55Y-3.15
X3.55Y-3.25
X3.55Y-3.375
X3.57Y-2.11
X3.65Y-1.75
X3.65Y-1.85
X3.65Y-2.35
X3.65Y-2.45
X3.65Y-2.85
X3.65Y-2.95
X3.65Y-3.05
X3.65Y-3.15
X3.65Y-3.25
X3.65Y-3.375
X3.75Y-1.75
X3.75Y-2.35
X3.75Y-2.45
X3.75Y-2.55
X3.75Y-2.65
X3.75Y-2.75
X3.75Y-2.85
X3.75Y-2.95
X3.75Y-3.05
X3.75Y-3.15
X3.85Y-1.95
X3.85Y-2.05
X3.85Y-2.15
X3.85Y-2.25
X3.85Y-2.35
X3.85Y-2.45
X3.85Y-2.55
X3.85Y-2.65
X3.85Y-2.75
X3.85Y-2.85
X3.85Y-2.95
X3.85Y-3.05
X3.85Y-3.15
X3.95Y-1.95
X3.95Y-2.05
X3.95Y-2.15
X3.95Y-2.25
X3.95Y-2.35
X3.95Y-2.45
X3.95Y-2.55
X3.95Y-2.65
X3.95Y-2.75
X3.95Y-2.85
X3.95Y-2.95
X3.95Y-3.05
X3.95Y-3.15
T2
X2.0003Y-3.325
X2.0236Y-3.2686
X2.0236Y-3.3814
X2.08Y-3.2453
X2.08Y-3.4047
X2.1364Y-3.2686
X2.1364Y-3.3814
X2.1597Y-3.325
X2.0003Y-1.8
X2.0236Y-1.7436
X2.0236Y-1.8564
X2.08Y-1.7203
X2.08Y-1.8797
X2.1364Y-1.7436
X2.1364Y-1.8564
X2.1597Y-1.8
X3.7903Y-3.325
X3.8136Y-3.2686
X3.8136Y-3.3814
X3.87Y-3.2453
X3.87Y-3.4047
X3.9264Y-3.2686
X3.9264Y-3.3814
X3.9497Y-3.325
X3.7903Y-1.8
X3.8136Y-1.7436
X3.8136Y-1.8564
X3.87Y-1.7203
X3.87Y-1.8797
X3.9264Y-1.7436
X3.9264Y-1.8564
X3.9497Y-1.8
T3
X3.67Y-2.0125
X3.67Y-2.1109
X3.67Y-2.2094
T4
X3.5Y-2.63
T5
X3.4Y-2.53
X3.4Y-2.73
X3.6Y-2.53
X3.6Y-2.73
T6
X2.08Y-1.8
X3.87Y-3.325
X3.87Y-1.8
X2.08Y-3.325
T0
M30
