G04 #@! TF.GenerationSoftware,KiCad,Pcbnew,(5.1.5)-3*
G04 #@! TF.CreationDate,2020-04-14T23:54:33+09:00*
G04 #@! TF.ProjectId,Detector_rev2,44657465-6374-46f7-925f-726576322e6b,rev?*
G04 #@! TF.SameCoordinates,Original*
G04 #@! TF.FileFunction,Soldermask,Bot*
G04 #@! TF.FilePolarity,Negative*
%FSLAX46Y46*%
G04 Gerber Fmt 4.6, Leading zero omitted, Abs format (unit mm)*
G04 Created by KiCad (PCBNEW (5.1.5)-3) date 2020-04-14 23:54:33*
%MOMM*%
%LPD*%
G04 APERTURE LIST*
%ADD10C,0.100000*%
G04 APERTURE END LIST*
D10*
G36*
X53368694Y-81756860D02*
G01*
X53634437Y-81809719D01*
X54135087Y-82017095D01*
X54322774Y-82142504D01*
X54556161Y-82298448D01*
X54585660Y-82318159D01*
X54968841Y-82701340D01*
X55269905Y-83151913D01*
X55477281Y-83652563D01*
X55477281Y-83652565D01*
X55583000Y-84184048D01*
X55583000Y-84725952D01*
X55547186Y-84906000D01*
X55477281Y-85257437D01*
X55269905Y-85758087D01*
X55213521Y-85842471D01*
X54968842Y-86208659D01*
X54585659Y-86591842D01*
X54473400Y-86666851D01*
X54135087Y-86892905D01*
X53634437Y-87100281D01*
X53368693Y-87153141D01*
X53102952Y-87206000D01*
X52561048Y-87206000D01*
X52295307Y-87153141D01*
X52029563Y-87100281D01*
X51528913Y-86892905D01*
X51190600Y-86666851D01*
X51078341Y-86591842D01*
X50695158Y-86208659D01*
X50450479Y-85842471D01*
X50394095Y-85758087D01*
X50186719Y-85257437D01*
X50116814Y-84906000D01*
X50081000Y-84725952D01*
X50081000Y-84184048D01*
X50186719Y-83652565D01*
X50186719Y-83652563D01*
X50394095Y-83151913D01*
X50695159Y-82701340D01*
X51078340Y-82318159D01*
X51107840Y-82298448D01*
X51341226Y-82142504D01*
X51528913Y-82017095D01*
X52029563Y-81809719D01*
X52295306Y-81756860D01*
X52561048Y-81704000D01*
X53102952Y-81704000D01*
X53368694Y-81756860D01*
G37*
G36*
X98834694Y-81756860D02*
G01*
X99100437Y-81809719D01*
X99601087Y-82017095D01*
X99788774Y-82142504D01*
X100022161Y-82298448D01*
X100051660Y-82318159D01*
X100434841Y-82701340D01*
X100735905Y-83151913D01*
X100943281Y-83652563D01*
X100943281Y-83652565D01*
X101049000Y-84184048D01*
X101049000Y-84725952D01*
X101013186Y-84906000D01*
X100943281Y-85257437D01*
X100735905Y-85758087D01*
X100679521Y-85842471D01*
X100434842Y-86208659D01*
X100051659Y-86591842D01*
X99939400Y-86666851D01*
X99601087Y-86892905D01*
X99100437Y-87100281D01*
X98834694Y-87153140D01*
X98568952Y-87206000D01*
X98027048Y-87206000D01*
X97761307Y-87153141D01*
X97495563Y-87100281D01*
X96994913Y-86892905D01*
X96656600Y-86666851D01*
X96544341Y-86591842D01*
X96161158Y-86208659D01*
X95916479Y-85842471D01*
X95860095Y-85758087D01*
X95652719Y-85257437D01*
X95582814Y-84906000D01*
X95547000Y-84725952D01*
X95547000Y-84184048D01*
X95652719Y-83652565D01*
X95652719Y-83652563D01*
X95860095Y-83151913D01*
X96161159Y-82701340D01*
X96544340Y-82318159D01*
X96573840Y-82298448D01*
X96807226Y-82142504D01*
X96994913Y-82017095D01*
X97495563Y-81809719D01*
X97761306Y-81756860D01*
X98027048Y-81704000D01*
X98568952Y-81704000D01*
X98834694Y-81756860D01*
G37*
G36*
X86703024Y-68211192D02*
G01*
X86703026Y-68211193D01*
X86703027Y-68211193D01*
X86917045Y-68299842D01*
X87109656Y-68428540D01*
X87273460Y-68592344D01*
X87402158Y-68784955D01*
X87490808Y-68998976D01*
X87536000Y-69226172D01*
X87536000Y-69457828D01*
X87490808Y-69685024D01*
X87402158Y-69899045D01*
X87273460Y-70091656D01*
X87109656Y-70255460D01*
X86917045Y-70384158D01*
X86703027Y-70472807D01*
X86703026Y-70472807D01*
X86703024Y-70472808D01*
X86475828Y-70518000D01*
X86244172Y-70518000D01*
X86016976Y-70472808D01*
X86016974Y-70472807D01*
X86016973Y-70472807D01*
X85802955Y-70384158D01*
X85610344Y-70255460D01*
X85446540Y-70091656D01*
X85317842Y-69899045D01*
X85229192Y-69685024D01*
X85184000Y-69457828D01*
X85184000Y-69226172D01*
X85229192Y-68998976D01*
X85317842Y-68784955D01*
X85446540Y-68592344D01*
X85610344Y-68428540D01*
X85802955Y-68299842D01*
X86016973Y-68211193D01*
X86016974Y-68211193D01*
X86016976Y-68211192D01*
X86244172Y-68166000D01*
X86475828Y-68166000D01*
X86703024Y-68211192D01*
G37*
G36*
X91783024Y-68211192D02*
G01*
X91783026Y-68211193D01*
X91783027Y-68211193D01*
X91997045Y-68299842D01*
X92189656Y-68428540D01*
X92353460Y-68592344D01*
X92482158Y-68784955D01*
X92570808Y-68998976D01*
X92616000Y-69226172D01*
X92616000Y-69457828D01*
X92570808Y-69685024D01*
X92482158Y-69899045D01*
X92353460Y-70091656D01*
X92189656Y-70255460D01*
X91997045Y-70384158D01*
X91783027Y-70472807D01*
X91783026Y-70472807D01*
X91783024Y-70472808D01*
X91555828Y-70518000D01*
X91324172Y-70518000D01*
X91096976Y-70472808D01*
X91096974Y-70472807D01*
X91096973Y-70472807D01*
X90882955Y-70384158D01*
X90690344Y-70255460D01*
X90526540Y-70091656D01*
X90397842Y-69899045D01*
X90309192Y-69685024D01*
X90264000Y-69457828D01*
X90264000Y-69226172D01*
X90309192Y-68998976D01*
X90397842Y-68784955D01*
X90526540Y-68592344D01*
X90690344Y-68428540D01*
X90882955Y-68299842D01*
X91096973Y-68211193D01*
X91096974Y-68211193D01*
X91096976Y-68211192D01*
X91324172Y-68166000D01*
X91555828Y-68166000D01*
X91783024Y-68211192D01*
G37*
G36*
X89213855Y-65767349D02*
G01*
X89213857Y-65767350D01*
X89213858Y-65767350D01*
X89286192Y-65797312D01*
X89409678Y-65848461D01*
X89585909Y-65966215D01*
X89735785Y-66116091D01*
X89853539Y-66292322D01*
X89934651Y-66488145D01*
X89976000Y-66696021D01*
X89976000Y-66907979D01*
X89934651Y-67115855D01*
X89853539Y-67311678D01*
X89735785Y-67487909D01*
X89585909Y-67637785D01*
X89409678Y-67755539D01*
X89286192Y-67806688D01*
X89213858Y-67836650D01*
X89213857Y-67836650D01*
X89213855Y-67836651D01*
X89005979Y-67878000D01*
X88794021Y-67878000D01*
X88586145Y-67836651D01*
X88586143Y-67836650D01*
X88586142Y-67836650D01*
X88513808Y-67806688D01*
X88390322Y-67755539D01*
X88214091Y-67637785D01*
X88064215Y-67487909D01*
X87946461Y-67311678D01*
X87865349Y-67115855D01*
X87824000Y-66907979D01*
X87824000Y-66696021D01*
X87865349Y-66488145D01*
X87946461Y-66292322D01*
X88064215Y-66116091D01*
X88214091Y-65966215D01*
X88390322Y-65848461D01*
X88513808Y-65797312D01*
X88586142Y-65767350D01*
X88586143Y-65767350D01*
X88586145Y-65767349D01*
X88794021Y-65726000D01*
X89005979Y-65726000D01*
X89213855Y-65767349D01*
G37*
G36*
X91783024Y-63131192D02*
G01*
X91783026Y-63131193D01*
X91783027Y-63131193D01*
X91997045Y-63219842D01*
X92189656Y-63348540D01*
X92353460Y-63512344D01*
X92482158Y-63704955D01*
X92570808Y-63918976D01*
X92616000Y-64146172D01*
X92616000Y-64377828D01*
X92570808Y-64605024D01*
X92482158Y-64819045D01*
X92353460Y-65011656D01*
X92189656Y-65175460D01*
X91997045Y-65304158D01*
X91783027Y-65392807D01*
X91783026Y-65392807D01*
X91783024Y-65392808D01*
X91555828Y-65438000D01*
X91324172Y-65438000D01*
X91096976Y-65392808D01*
X91096974Y-65392807D01*
X91096973Y-65392807D01*
X90882955Y-65304158D01*
X90690344Y-65175460D01*
X90526540Y-65011656D01*
X90397842Y-64819045D01*
X90309192Y-64605024D01*
X90264000Y-64377828D01*
X90264000Y-64146172D01*
X90309192Y-63918976D01*
X90397842Y-63704955D01*
X90526540Y-63512344D01*
X90690344Y-63348540D01*
X90882955Y-63219842D01*
X91096973Y-63131193D01*
X91096974Y-63131193D01*
X91096976Y-63131192D01*
X91324172Y-63086000D01*
X91555828Y-63086000D01*
X91783024Y-63131192D01*
G37*
G36*
X86703024Y-63131192D02*
G01*
X86703026Y-63131193D01*
X86703027Y-63131193D01*
X86917045Y-63219842D01*
X87109656Y-63348540D01*
X87273460Y-63512344D01*
X87402158Y-63704955D01*
X87490808Y-63918976D01*
X87536000Y-64146172D01*
X87536000Y-64377828D01*
X87490808Y-64605024D01*
X87402158Y-64819045D01*
X87273460Y-65011656D01*
X87109656Y-65175460D01*
X86917045Y-65304158D01*
X86703027Y-65392807D01*
X86703026Y-65392807D01*
X86703024Y-65392808D01*
X86475828Y-65438000D01*
X86244172Y-65438000D01*
X86016976Y-65392808D01*
X86016974Y-65392807D01*
X86016973Y-65392807D01*
X85802955Y-65304158D01*
X85610344Y-65175460D01*
X85446540Y-65011656D01*
X85317842Y-64819045D01*
X85229192Y-64605024D01*
X85184000Y-64377828D01*
X85184000Y-64146172D01*
X85229192Y-63918976D01*
X85317842Y-63704955D01*
X85446540Y-63512344D01*
X85610344Y-63348540D01*
X85802955Y-63219842D01*
X86016973Y-63131193D01*
X86016974Y-63131193D01*
X86016976Y-63131192D01*
X86244172Y-63086000D01*
X86475828Y-63086000D01*
X86703024Y-63131192D01*
G37*
G36*
X94030982Y-55221588D02*
G01*
X94080630Y-55236649D01*
X94126379Y-55261101D01*
X94166484Y-55294016D01*
X94199399Y-55334121D01*
X94223851Y-55379870D01*
X94238912Y-55429518D01*
X94244000Y-55481177D01*
X94244000Y-56753823D01*
X94238912Y-56805482D01*
X94223851Y-56855130D01*
X94199399Y-56900879D01*
X94166484Y-56940984D01*
X94126379Y-56973899D01*
X94080630Y-56998351D01*
X94030982Y-57013412D01*
X93979323Y-57018500D01*
X92456677Y-57018500D01*
X92405018Y-57013412D01*
X92355370Y-56998351D01*
X92309621Y-56973899D01*
X92269516Y-56940984D01*
X92236601Y-56900879D01*
X92212149Y-56855130D01*
X92197088Y-56805482D01*
X92192000Y-56753823D01*
X92192000Y-55481177D01*
X92197088Y-55429518D01*
X92212149Y-55379870D01*
X92236601Y-55334121D01*
X92269516Y-55294016D01*
X92309621Y-55261101D01*
X92355370Y-55236649D01*
X92405018Y-55221588D01*
X92456677Y-55216500D01*
X93979323Y-55216500D01*
X94030982Y-55221588D01*
G37*
G36*
X93519627Y-52729537D02*
G01*
X93689466Y-52781057D01*
X93767728Y-52822889D01*
X93845988Y-52864720D01*
X93845989Y-52864721D01*
X93845991Y-52864722D01*
X93983185Y-52977315D01*
X94095778Y-53114509D01*
X94179443Y-53271034D01*
X94230963Y-53440873D01*
X94248359Y-53617500D01*
X94230963Y-53794127D01*
X94179443Y-53963966D01*
X94095778Y-54120491D01*
X93983185Y-54257685D01*
X93845991Y-54370278D01*
X93845989Y-54370279D01*
X93845988Y-54370280D01*
X93767729Y-54412110D01*
X93689466Y-54453943D01*
X93519627Y-54505463D01*
X93387258Y-54518500D01*
X93048742Y-54518500D01*
X92916373Y-54505463D01*
X92746534Y-54453943D01*
X92668271Y-54412110D01*
X92590012Y-54370280D01*
X92590011Y-54370279D01*
X92590009Y-54370278D01*
X92452815Y-54257685D01*
X92340222Y-54120491D01*
X92256557Y-53963966D01*
X92205037Y-53794127D01*
X92187641Y-53617500D01*
X92205037Y-53440873D01*
X92256557Y-53271034D01*
X92340222Y-53114509D01*
X92452815Y-52977315D01*
X92590009Y-52864722D01*
X92590011Y-52864721D01*
X92590012Y-52864720D01*
X92668272Y-52822889D01*
X92746534Y-52781057D01*
X92916373Y-52729537D01*
X93048742Y-52716500D01*
X93387258Y-52716500D01*
X93519627Y-52729537D01*
G37*
G36*
X93519627Y-50229537D02*
G01*
X93689466Y-50281057D01*
X93767729Y-50322890D01*
X93845988Y-50364720D01*
X93845989Y-50364721D01*
X93845991Y-50364722D01*
X93983185Y-50477315D01*
X94095778Y-50614509D01*
X94179443Y-50771034D01*
X94230963Y-50940873D01*
X94248359Y-51117500D01*
X94230963Y-51294127D01*
X94179443Y-51463966D01*
X94095778Y-51620491D01*
X93983185Y-51757685D01*
X93845991Y-51870278D01*
X93845989Y-51870279D01*
X93845988Y-51870280D01*
X93767728Y-51912111D01*
X93689466Y-51953943D01*
X93519627Y-52005463D01*
X93387258Y-52018500D01*
X93048742Y-52018500D01*
X92916373Y-52005463D01*
X92746534Y-51953943D01*
X92668272Y-51912111D01*
X92590012Y-51870280D01*
X92590011Y-51870279D01*
X92590009Y-51870278D01*
X92452815Y-51757685D01*
X92340222Y-51620491D01*
X92256557Y-51463966D01*
X92205037Y-51294127D01*
X92187641Y-51117500D01*
X92205037Y-50940873D01*
X92256557Y-50771034D01*
X92340222Y-50614509D01*
X92452815Y-50477315D01*
X92590009Y-50364722D01*
X92590011Y-50364721D01*
X92590012Y-50364720D01*
X92668272Y-50322889D01*
X92746534Y-50281057D01*
X92916373Y-50229537D01*
X93048742Y-50216500D01*
X93387258Y-50216500D01*
X93519627Y-50229537D01*
G37*
G36*
X53368694Y-43021860D02*
G01*
X53634437Y-43074719D01*
X54135087Y-43282095D01*
X54322774Y-43407504D01*
X54556161Y-43563448D01*
X54585660Y-43583159D01*
X54968841Y-43966340D01*
X55269905Y-44416913D01*
X55477281Y-44917563D01*
X55477281Y-44917565D01*
X55583000Y-45449048D01*
X55583000Y-45990952D01*
X55547186Y-46171000D01*
X55477281Y-46522437D01*
X55269905Y-47023087D01*
X55213521Y-47107471D01*
X54968842Y-47473659D01*
X54585659Y-47856842D01*
X54473400Y-47931851D01*
X54135087Y-48157905D01*
X53634437Y-48365281D01*
X53368694Y-48418140D01*
X53102952Y-48471000D01*
X52561048Y-48471000D01*
X52295307Y-48418141D01*
X52029563Y-48365281D01*
X51528913Y-48157905D01*
X51190600Y-47931851D01*
X51078341Y-47856842D01*
X50695158Y-47473659D01*
X50450479Y-47107471D01*
X50394095Y-47023087D01*
X50186719Y-46522437D01*
X50116814Y-46171000D01*
X50081000Y-45990952D01*
X50081000Y-45449048D01*
X50186719Y-44917565D01*
X50186719Y-44917563D01*
X50394095Y-44416913D01*
X50695159Y-43966340D01*
X51078340Y-43583159D01*
X51107840Y-43563448D01*
X51341226Y-43407504D01*
X51528913Y-43282095D01*
X52029563Y-43074719D01*
X52295306Y-43021860D01*
X52561048Y-42969000D01*
X53102952Y-42969000D01*
X53368694Y-43021860D01*
G37*
G36*
X98834694Y-43021860D02*
G01*
X99100437Y-43074719D01*
X99601087Y-43282095D01*
X99788774Y-43407504D01*
X100022161Y-43563448D01*
X100051660Y-43583159D01*
X100434841Y-43966340D01*
X100735905Y-44416913D01*
X100943281Y-44917563D01*
X100943281Y-44917565D01*
X101049000Y-45449048D01*
X101049000Y-45990952D01*
X101013186Y-46171000D01*
X100943281Y-46522437D01*
X100735905Y-47023087D01*
X100679521Y-47107471D01*
X100434842Y-47473659D01*
X100051659Y-47856842D01*
X99939400Y-47931851D01*
X99601087Y-48157905D01*
X99100437Y-48365281D01*
X98834694Y-48418140D01*
X98568952Y-48471000D01*
X98027048Y-48471000D01*
X97761307Y-48418141D01*
X97495563Y-48365281D01*
X96994913Y-48157905D01*
X96656600Y-47931851D01*
X96544341Y-47856842D01*
X96161158Y-47473659D01*
X95916479Y-47107471D01*
X95860095Y-47023087D01*
X95652719Y-46522437D01*
X95582814Y-46171000D01*
X95547000Y-45990952D01*
X95547000Y-45449048D01*
X95652719Y-44917565D01*
X95652719Y-44917563D01*
X95860095Y-44416913D01*
X96161159Y-43966340D01*
X96544340Y-43583159D01*
X96573840Y-43563448D01*
X96807226Y-43407504D01*
X96994913Y-43282095D01*
X97495563Y-43074719D01*
X97761306Y-43021860D01*
X98027048Y-42969000D01*
X98568952Y-42969000D01*
X98834694Y-43021860D01*
G37*
M02*
