G04 #@! TF.GenerationSoftware,KiCad,Pcbnew,(5.1.5)-3*
G04 #@! TF.CreationDate,2020-04-14T23:54:33+09:00*
G04 #@! TF.ProjectId,Detector_rev2,44657465-6374-46f7-925f-726576322e6b,rev?*
G04 #@! TF.SameCoordinates,Original*
G04 #@! TF.FileFunction,Paste,Top*
G04 #@! TF.FilePolarity,Positive*
%FSLAX46Y46*%
G04 Gerber Fmt 4.6, Leading zero omitted, Abs format (unit mm)*
G04 Created by KiCad (PCBNEW (5.1.5)-3) date 2020-04-14 23:54:33*
%MOMM*%
%LPD*%
G04 APERTURE LIST*
%ADD10C,0.100000*%
%ADD11R,0.550000X0.800000*%
%ADD12R,0.400000X0.650000*%
%ADD13R,2.000000X2.600000*%
%ADD14R,2.000000X1.600000*%
%ADD15R,2.790000X1.190000*%
%ADD16R,1.190000X2.790000*%
%ADD17R,3.400000X1.800000*%
%ADD18R,0.300000X1.400000*%
G04 APERTURE END LIST*
D10*
G36*
X50308000Y-71714500D02*
G01*
X50308000Y-69890500D01*
X53832000Y-70190500D01*
X53832000Y-71414500D01*
X50308000Y-71714500D01*
G37*
G36*
X50308000Y-69174500D02*
G01*
X50308000Y-67350500D01*
X53832000Y-67650500D01*
X53832000Y-68874500D01*
X50308000Y-69174500D01*
G37*
G36*
X50308000Y-66634500D02*
G01*
X50308000Y-64810500D01*
X53832000Y-65110500D01*
X53832000Y-66334500D01*
X50308000Y-66634500D01*
G37*
G36*
X72075504Y-45923704D02*
G01*
X72099773Y-45927304D01*
X72123571Y-45933265D01*
X72146671Y-45941530D01*
X72168849Y-45952020D01*
X72189893Y-45964633D01*
X72209598Y-45979247D01*
X72227777Y-45995723D01*
X72244253Y-46013902D01*
X72258867Y-46033607D01*
X72271480Y-46054651D01*
X72281970Y-46076829D01*
X72290235Y-46099929D01*
X72296196Y-46123727D01*
X72299796Y-46147996D01*
X72301000Y-46172500D01*
X72301000Y-48447500D01*
X72299796Y-48472004D01*
X72296196Y-48496273D01*
X72290235Y-48520071D01*
X72281970Y-48543171D01*
X72271480Y-48565349D01*
X72258867Y-48586393D01*
X72244253Y-48606098D01*
X72227777Y-48624277D01*
X72209598Y-48640753D01*
X72189893Y-48655367D01*
X72168849Y-48667980D01*
X72146671Y-48678470D01*
X72123571Y-48686735D01*
X72099773Y-48692696D01*
X72075504Y-48696296D01*
X72051000Y-48697500D01*
X70951000Y-48697500D01*
X70926496Y-48696296D01*
X70902227Y-48692696D01*
X70878429Y-48686735D01*
X70855329Y-48678470D01*
X70833151Y-48667980D01*
X70812107Y-48655367D01*
X70792402Y-48640753D01*
X70774223Y-48624277D01*
X70757747Y-48606098D01*
X70743133Y-48586393D01*
X70730520Y-48565349D01*
X70720030Y-48543171D01*
X70711765Y-48520071D01*
X70705804Y-48496273D01*
X70702204Y-48472004D01*
X70701000Y-48447500D01*
X70701000Y-46172500D01*
X70702204Y-46147996D01*
X70705804Y-46123727D01*
X70711765Y-46099929D01*
X70720030Y-46076829D01*
X70730520Y-46054651D01*
X70743133Y-46033607D01*
X70757747Y-46013902D01*
X70774223Y-45995723D01*
X70792402Y-45979247D01*
X70812107Y-45964633D01*
X70833151Y-45952020D01*
X70855329Y-45941530D01*
X70878429Y-45933265D01*
X70902227Y-45927304D01*
X70926496Y-45923704D01*
X70951000Y-45922500D01*
X72051000Y-45922500D01*
X72075504Y-45923704D01*
G37*
G36*
X72075504Y-50048704D02*
G01*
X72099773Y-50052304D01*
X72123571Y-50058265D01*
X72146671Y-50066530D01*
X72168849Y-50077020D01*
X72189893Y-50089633D01*
X72209598Y-50104247D01*
X72227777Y-50120723D01*
X72244253Y-50138902D01*
X72258867Y-50158607D01*
X72271480Y-50179651D01*
X72281970Y-50201829D01*
X72290235Y-50224929D01*
X72296196Y-50248727D01*
X72299796Y-50272996D01*
X72301000Y-50297500D01*
X72301000Y-52572500D01*
X72299796Y-52597004D01*
X72296196Y-52621273D01*
X72290235Y-52645071D01*
X72281970Y-52668171D01*
X72271480Y-52690349D01*
X72258867Y-52711393D01*
X72244253Y-52731098D01*
X72227777Y-52749277D01*
X72209598Y-52765753D01*
X72189893Y-52780367D01*
X72168849Y-52792980D01*
X72146671Y-52803470D01*
X72123571Y-52811735D01*
X72099773Y-52817696D01*
X72075504Y-52821296D01*
X72051000Y-52822500D01*
X70951000Y-52822500D01*
X70926496Y-52821296D01*
X70902227Y-52817696D01*
X70878429Y-52811735D01*
X70855329Y-52803470D01*
X70833151Y-52792980D01*
X70812107Y-52780367D01*
X70792402Y-52765753D01*
X70774223Y-52749277D01*
X70757747Y-52731098D01*
X70743133Y-52711393D01*
X70730520Y-52690349D01*
X70720030Y-52668171D01*
X70711765Y-52645071D01*
X70705804Y-52621273D01*
X70702204Y-52597004D01*
X70701000Y-52572500D01*
X70701000Y-50297500D01*
X70702204Y-50272996D01*
X70705804Y-50248727D01*
X70711765Y-50224929D01*
X70720030Y-50201829D01*
X70730520Y-50179651D01*
X70743133Y-50158607D01*
X70757747Y-50138902D01*
X70774223Y-50120723D01*
X70792402Y-50104247D01*
X70812107Y-50089633D01*
X70833151Y-50077020D01*
X70855329Y-50066530D01*
X70878429Y-50058265D01*
X70902227Y-50052304D01*
X70926496Y-50048704D01*
X70951000Y-50047500D01*
X72051000Y-50047500D01*
X72075504Y-50048704D01*
G37*
G36*
X72075504Y-53477704D02*
G01*
X72099773Y-53481304D01*
X72123571Y-53487265D01*
X72146671Y-53495530D01*
X72168849Y-53506020D01*
X72189893Y-53518633D01*
X72209598Y-53533247D01*
X72227777Y-53549723D01*
X72244253Y-53567902D01*
X72258867Y-53587607D01*
X72271480Y-53608651D01*
X72281970Y-53630829D01*
X72290235Y-53653929D01*
X72296196Y-53677727D01*
X72299796Y-53701996D01*
X72301000Y-53726500D01*
X72301000Y-56001500D01*
X72299796Y-56026004D01*
X72296196Y-56050273D01*
X72290235Y-56074071D01*
X72281970Y-56097171D01*
X72271480Y-56119349D01*
X72258867Y-56140393D01*
X72244253Y-56160098D01*
X72227777Y-56178277D01*
X72209598Y-56194753D01*
X72189893Y-56209367D01*
X72168849Y-56221980D01*
X72146671Y-56232470D01*
X72123571Y-56240735D01*
X72099773Y-56246696D01*
X72075504Y-56250296D01*
X72051000Y-56251500D01*
X70951000Y-56251500D01*
X70926496Y-56250296D01*
X70902227Y-56246696D01*
X70878429Y-56240735D01*
X70855329Y-56232470D01*
X70833151Y-56221980D01*
X70812107Y-56209367D01*
X70792402Y-56194753D01*
X70774223Y-56178277D01*
X70757747Y-56160098D01*
X70743133Y-56140393D01*
X70730520Y-56119349D01*
X70720030Y-56097171D01*
X70711765Y-56074071D01*
X70705804Y-56050273D01*
X70702204Y-56026004D01*
X70701000Y-56001500D01*
X70701000Y-53726500D01*
X70702204Y-53701996D01*
X70705804Y-53677727D01*
X70711765Y-53653929D01*
X70720030Y-53630829D01*
X70730520Y-53608651D01*
X70743133Y-53587607D01*
X70757747Y-53567902D01*
X70774223Y-53549723D01*
X70792402Y-53533247D01*
X70812107Y-53518633D01*
X70833151Y-53506020D01*
X70855329Y-53495530D01*
X70878429Y-53487265D01*
X70902227Y-53481304D01*
X70926496Y-53477704D01*
X70951000Y-53476500D01*
X72051000Y-53476500D01*
X72075504Y-53477704D01*
G37*
G36*
X72075504Y-57602704D02*
G01*
X72099773Y-57606304D01*
X72123571Y-57612265D01*
X72146671Y-57620530D01*
X72168849Y-57631020D01*
X72189893Y-57643633D01*
X72209598Y-57658247D01*
X72227777Y-57674723D01*
X72244253Y-57692902D01*
X72258867Y-57712607D01*
X72271480Y-57733651D01*
X72281970Y-57755829D01*
X72290235Y-57778929D01*
X72296196Y-57802727D01*
X72299796Y-57826996D01*
X72301000Y-57851500D01*
X72301000Y-60126500D01*
X72299796Y-60151004D01*
X72296196Y-60175273D01*
X72290235Y-60199071D01*
X72281970Y-60222171D01*
X72271480Y-60244349D01*
X72258867Y-60265393D01*
X72244253Y-60285098D01*
X72227777Y-60303277D01*
X72209598Y-60319753D01*
X72189893Y-60334367D01*
X72168849Y-60346980D01*
X72146671Y-60357470D01*
X72123571Y-60365735D01*
X72099773Y-60371696D01*
X72075504Y-60375296D01*
X72051000Y-60376500D01*
X70951000Y-60376500D01*
X70926496Y-60375296D01*
X70902227Y-60371696D01*
X70878429Y-60365735D01*
X70855329Y-60357470D01*
X70833151Y-60346980D01*
X70812107Y-60334367D01*
X70792402Y-60319753D01*
X70774223Y-60303277D01*
X70757747Y-60285098D01*
X70743133Y-60265393D01*
X70730520Y-60244349D01*
X70720030Y-60222171D01*
X70711765Y-60199071D01*
X70705804Y-60175273D01*
X70702204Y-60151004D01*
X70701000Y-60126500D01*
X70701000Y-57851500D01*
X70702204Y-57826996D01*
X70705804Y-57802727D01*
X70711765Y-57778929D01*
X70720030Y-57755829D01*
X70730520Y-57733651D01*
X70743133Y-57712607D01*
X70757747Y-57692902D01*
X70774223Y-57674723D01*
X70792402Y-57658247D01*
X70812107Y-57643633D01*
X70833151Y-57631020D01*
X70855329Y-57620530D01*
X70878429Y-57612265D01*
X70902227Y-57606304D01*
X70926496Y-57602704D01*
X70951000Y-57601500D01*
X72051000Y-57601500D01*
X72075504Y-57602704D01*
G37*
G36*
X80584504Y-45857704D02*
G01*
X80608773Y-45861304D01*
X80632571Y-45867265D01*
X80655671Y-45875530D01*
X80677849Y-45886020D01*
X80698893Y-45898633D01*
X80718598Y-45913247D01*
X80736777Y-45929723D01*
X80753253Y-45947902D01*
X80767867Y-45967607D01*
X80780480Y-45988651D01*
X80790970Y-46010829D01*
X80799235Y-46033929D01*
X80805196Y-46057727D01*
X80808796Y-46081996D01*
X80810000Y-46106500D01*
X80810000Y-48381500D01*
X80808796Y-48406004D01*
X80805196Y-48430273D01*
X80799235Y-48454071D01*
X80790970Y-48477171D01*
X80780480Y-48499349D01*
X80767867Y-48520393D01*
X80753253Y-48540098D01*
X80736777Y-48558277D01*
X80718598Y-48574753D01*
X80698893Y-48589367D01*
X80677849Y-48601980D01*
X80655671Y-48612470D01*
X80632571Y-48620735D01*
X80608773Y-48626696D01*
X80584504Y-48630296D01*
X80560000Y-48631500D01*
X79460000Y-48631500D01*
X79435496Y-48630296D01*
X79411227Y-48626696D01*
X79387429Y-48620735D01*
X79364329Y-48612470D01*
X79342151Y-48601980D01*
X79321107Y-48589367D01*
X79301402Y-48574753D01*
X79283223Y-48558277D01*
X79266747Y-48540098D01*
X79252133Y-48520393D01*
X79239520Y-48499349D01*
X79229030Y-48477171D01*
X79220765Y-48454071D01*
X79214804Y-48430273D01*
X79211204Y-48406004D01*
X79210000Y-48381500D01*
X79210000Y-46106500D01*
X79211204Y-46081996D01*
X79214804Y-46057727D01*
X79220765Y-46033929D01*
X79229030Y-46010829D01*
X79239520Y-45988651D01*
X79252133Y-45967607D01*
X79266747Y-45947902D01*
X79283223Y-45929723D01*
X79301402Y-45913247D01*
X79321107Y-45898633D01*
X79342151Y-45886020D01*
X79364329Y-45875530D01*
X79387429Y-45867265D01*
X79411227Y-45861304D01*
X79435496Y-45857704D01*
X79460000Y-45856500D01*
X80560000Y-45856500D01*
X80584504Y-45857704D01*
G37*
G36*
X80584504Y-49982704D02*
G01*
X80608773Y-49986304D01*
X80632571Y-49992265D01*
X80655671Y-50000530D01*
X80677849Y-50011020D01*
X80698893Y-50023633D01*
X80718598Y-50038247D01*
X80736777Y-50054723D01*
X80753253Y-50072902D01*
X80767867Y-50092607D01*
X80780480Y-50113651D01*
X80790970Y-50135829D01*
X80799235Y-50158929D01*
X80805196Y-50182727D01*
X80808796Y-50206996D01*
X80810000Y-50231500D01*
X80810000Y-52506500D01*
X80808796Y-52531004D01*
X80805196Y-52555273D01*
X80799235Y-52579071D01*
X80790970Y-52602171D01*
X80780480Y-52624349D01*
X80767867Y-52645393D01*
X80753253Y-52665098D01*
X80736777Y-52683277D01*
X80718598Y-52699753D01*
X80698893Y-52714367D01*
X80677849Y-52726980D01*
X80655671Y-52737470D01*
X80632571Y-52745735D01*
X80608773Y-52751696D01*
X80584504Y-52755296D01*
X80560000Y-52756500D01*
X79460000Y-52756500D01*
X79435496Y-52755296D01*
X79411227Y-52751696D01*
X79387429Y-52745735D01*
X79364329Y-52737470D01*
X79342151Y-52726980D01*
X79321107Y-52714367D01*
X79301402Y-52699753D01*
X79283223Y-52683277D01*
X79266747Y-52665098D01*
X79252133Y-52645393D01*
X79239520Y-52624349D01*
X79229030Y-52602171D01*
X79220765Y-52579071D01*
X79214804Y-52555273D01*
X79211204Y-52531004D01*
X79210000Y-52506500D01*
X79210000Y-50231500D01*
X79211204Y-50206996D01*
X79214804Y-50182727D01*
X79220765Y-50158929D01*
X79229030Y-50135829D01*
X79239520Y-50113651D01*
X79252133Y-50092607D01*
X79266747Y-50072902D01*
X79283223Y-50054723D01*
X79301402Y-50038247D01*
X79321107Y-50023633D01*
X79342151Y-50011020D01*
X79364329Y-50000530D01*
X79387429Y-49992265D01*
X79411227Y-49986304D01*
X79435496Y-49982704D01*
X79460000Y-49981500D01*
X80560000Y-49981500D01*
X80584504Y-49982704D01*
G37*
G36*
X80584504Y-53477704D02*
G01*
X80608773Y-53481304D01*
X80632571Y-53487265D01*
X80655671Y-53495530D01*
X80677849Y-53506020D01*
X80698893Y-53518633D01*
X80718598Y-53533247D01*
X80736777Y-53549723D01*
X80753253Y-53567902D01*
X80767867Y-53587607D01*
X80780480Y-53608651D01*
X80790970Y-53630829D01*
X80799235Y-53653929D01*
X80805196Y-53677727D01*
X80808796Y-53701996D01*
X80810000Y-53726500D01*
X80810000Y-56001500D01*
X80808796Y-56026004D01*
X80805196Y-56050273D01*
X80799235Y-56074071D01*
X80790970Y-56097171D01*
X80780480Y-56119349D01*
X80767867Y-56140393D01*
X80753253Y-56160098D01*
X80736777Y-56178277D01*
X80718598Y-56194753D01*
X80698893Y-56209367D01*
X80677849Y-56221980D01*
X80655671Y-56232470D01*
X80632571Y-56240735D01*
X80608773Y-56246696D01*
X80584504Y-56250296D01*
X80560000Y-56251500D01*
X79460000Y-56251500D01*
X79435496Y-56250296D01*
X79411227Y-56246696D01*
X79387429Y-56240735D01*
X79364329Y-56232470D01*
X79342151Y-56221980D01*
X79321107Y-56209367D01*
X79301402Y-56194753D01*
X79283223Y-56178277D01*
X79266747Y-56160098D01*
X79252133Y-56140393D01*
X79239520Y-56119349D01*
X79229030Y-56097171D01*
X79220765Y-56074071D01*
X79214804Y-56050273D01*
X79211204Y-56026004D01*
X79210000Y-56001500D01*
X79210000Y-53726500D01*
X79211204Y-53701996D01*
X79214804Y-53677727D01*
X79220765Y-53653929D01*
X79229030Y-53630829D01*
X79239520Y-53608651D01*
X79252133Y-53587607D01*
X79266747Y-53567902D01*
X79283223Y-53549723D01*
X79301402Y-53533247D01*
X79321107Y-53518633D01*
X79342151Y-53506020D01*
X79364329Y-53495530D01*
X79387429Y-53487265D01*
X79411227Y-53481304D01*
X79435496Y-53477704D01*
X79460000Y-53476500D01*
X80560000Y-53476500D01*
X80584504Y-53477704D01*
G37*
G36*
X80584504Y-57602704D02*
G01*
X80608773Y-57606304D01*
X80632571Y-57612265D01*
X80655671Y-57620530D01*
X80677849Y-57631020D01*
X80698893Y-57643633D01*
X80718598Y-57658247D01*
X80736777Y-57674723D01*
X80753253Y-57692902D01*
X80767867Y-57712607D01*
X80780480Y-57733651D01*
X80790970Y-57755829D01*
X80799235Y-57778929D01*
X80805196Y-57802727D01*
X80808796Y-57826996D01*
X80810000Y-57851500D01*
X80810000Y-60126500D01*
X80808796Y-60151004D01*
X80805196Y-60175273D01*
X80799235Y-60199071D01*
X80790970Y-60222171D01*
X80780480Y-60244349D01*
X80767867Y-60265393D01*
X80753253Y-60285098D01*
X80736777Y-60303277D01*
X80718598Y-60319753D01*
X80698893Y-60334367D01*
X80677849Y-60346980D01*
X80655671Y-60357470D01*
X80632571Y-60365735D01*
X80608773Y-60371696D01*
X80584504Y-60375296D01*
X80560000Y-60376500D01*
X79460000Y-60376500D01*
X79435496Y-60375296D01*
X79411227Y-60371696D01*
X79387429Y-60365735D01*
X79364329Y-60357470D01*
X79342151Y-60346980D01*
X79321107Y-60334367D01*
X79301402Y-60319753D01*
X79283223Y-60303277D01*
X79266747Y-60285098D01*
X79252133Y-60265393D01*
X79239520Y-60244349D01*
X79229030Y-60222171D01*
X79220765Y-60199071D01*
X79214804Y-60175273D01*
X79211204Y-60151004D01*
X79210000Y-60126500D01*
X79210000Y-57851500D01*
X79211204Y-57826996D01*
X79214804Y-57802727D01*
X79220765Y-57778929D01*
X79229030Y-57755829D01*
X79239520Y-57733651D01*
X79252133Y-57712607D01*
X79266747Y-57692902D01*
X79283223Y-57674723D01*
X79301402Y-57658247D01*
X79321107Y-57643633D01*
X79342151Y-57631020D01*
X79364329Y-57620530D01*
X79387429Y-57612265D01*
X79411227Y-57606304D01*
X79435496Y-57602704D01*
X79460000Y-57601500D01*
X80560000Y-57601500D01*
X80584504Y-57602704D01*
G37*
D11*
X63246000Y-67126000D03*
X65146000Y-67126000D03*
X65146000Y-69526000D03*
X64196000Y-69526000D03*
X63246000Y-69526000D03*
D12*
X60807600Y-73731200D03*
X59507600Y-73731200D03*
X60157600Y-71831200D03*
X60157600Y-73731200D03*
X59507600Y-71831200D03*
X60807600Y-71831200D03*
D10*
G36*
X63580703Y-78694722D02*
G01*
X63595264Y-78696882D01*
X63609543Y-78700459D01*
X63623403Y-78705418D01*
X63636710Y-78711712D01*
X63649336Y-78719280D01*
X63661159Y-78728048D01*
X63672066Y-78737934D01*
X63681952Y-78748841D01*
X63690720Y-78760664D01*
X63698288Y-78773290D01*
X63704582Y-78786597D01*
X63709541Y-78800457D01*
X63713118Y-78814736D01*
X63715278Y-78829297D01*
X63716000Y-78844000D01*
X63716000Y-79144000D01*
X63715278Y-79158703D01*
X63713118Y-79173264D01*
X63709541Y-79187543D01*
X63704582Y-79201403D01*
X63698288Y-79214710D01*
X63690720Y-79227336D01*
X63681952Y-79239159D01*
X63672066Y-79250066D01*
X63661159Y-79259952D01*
X63649336Y-79268720D01*
X63636710Y-79276288D01*
X63623403Y-79282582D01*
X63609543Y-79287541D01*
X63595264Y-79291118D01*
X63580703Y-79293278D01*
X63566000Y-79294000D01*
X61916000Y-79294000D01*
X61901297Y-79293278D01*
X61886736Y-79291118D01*
X61872457Y-79287541D01*
X61858597Y-79282582D01*
X61845290Y-79276288D01*
X61832664Y-79268720D01*
X61820841Y-79259952D01*
X61809934Y-79250066D01*
X61800048Y-79239159D01*
X61791280Y-79227336D01*
X61783712Y-79214710D01*
X61777418Y-79201403D01*
X61772459Y-79187543D01*
X61768882Y-79173264D01*
X61766722Y-79158703D01*
X61766000Y-79144000D01*
X61766000Y-78844000D01*
X61766722Y-78829297D01*
X61768882Y-78814736D01*
X61772459Y-78800457D01*
X61777418Y-78786597D01*
X61783712Y-78773290D01*
X61791280Y-78760664D01*
X61800048Y-78748841D01*
X61809934Y-78737934D01*
X61820841Y-78728048D01*
X61832664Y-78719280D01*
X61845290Y-78711712D01*
X61858597Y-78705418D01*
X61872457Y-78700459D01*
X61886736Y-78696882D01*
X61901297Y-78694722D01*
X61916000Y-78694000D01*
X63566000Y-78694000D01*
X63580703Y-78694722D01*
G37*
G36*
X63580703Y-79964722D02*
G01*
X63595264Y-79966882D01*
X63609543Y-79970459D01*
X63623403Y-79975418D01*
X63636710Y-79981712D01*
X63649336Y-79989280D01*
X63661159Y-79998048D01*
X63672066Y-80007934D01*
X63681952Y-80018841D01*
X63690720Y-80030664D01*
X63698288Y-80043290D01*
X63704582Y-80056597D01*
X63709541Y-80070457D01*
X63713118Y-80084736D01*
X63715278Y-80099297D01*
X63716000Y-80114000D01*
X63716000Y-80414000D01*
X63715278Y-80428703D01*
X63713118Y-80443264D01*
X63709541Y-80457543D01*
X63704582Y-80471403D01*
X63698288Y-80484710D01*
X63690720Y-80497336D01*
X63681952Y-80509159D01*
X63672066Y-80520066D01*
X63661159Y-80529952D01*
X63649336Y-80538720D01*
X63636710Y-80546288D01*
X63623403Y-80552582D01*
X63609543Y-80557541D01*
X63595264Y-80561118D01*
X63580703Y-80563278D01*
X63566000Y-80564000D01*
X61916000Y-80564000D01*
X61901297Y-80563278D01*
X61886736Y-80561118D01*
X61872457Y-80557541D01*
X61858597Y-80552582D01*
X61845290Y-80546288D01*
X61832664Y-80538720D01*
X61820841Y-80529952D01*
X61809934Y-80520066D01*
X61800048Y-80509159D01*
X61791280Y-80497336D01*
X61783712Y-80484710D01*
X61777418Y-80471403D01*
X61772459Y-80457543D01*
X61768882Y-80443264D01*
X61766722Y-80428703D01*
X61766000Y-80414000D01*
X61766000Y-80114000D01*
X61766722Y-80099297D01*
X61768882Y-80084736D01*
X61772459Y-80070457D01*
X61777418Y-80056597D01*
X61783712Y-80043290D01*
X61791280Y-80030664D01*
X61800048Y-80018841D01*
X61809934Y-80007934D01*
X61820841Y-79998048D01*
X61832664Y-79989280D01*
X61845290Y-79981712D01*
X61858597Y-79975418D01*
X61872457Y-79970459D01*
X61886736Y-79966882D01*
X61901297Y-79964722D01*
X61916000Y-79964000D01*
X63566000Y-79964000D01*
X63580703Y-79964722D01*
G37*
G36*
X63580703Y-81234722D02*
G01*
X63595264Y-81236882D01*
X63609543Y-81240459D01*
X63623403Y-81245418D01*
X63636710Y-81251712D01*
X63649336Y-81259280D01*
X63661159Y-81268048D01*
X63672066Y-81277934D01*
X63681952Y-81288841D01*
X63690720Y-81300664D01*
X63698288Y-81313290D01*
X63704582Y-81326597D01*
X63709541Y-81340457D01*
X63713118Y-81354736D01*
X63715278Y-81369297D01*
X63716000Y-81384000D01*
X63716000Y-81684000D01*
X63715278Y-81698703D01*
X63713118Y-81713264D01*
X63709541Y-81727543D01*
X63704582Y-81741403D01*
X63698288Y-81754710D01*
X63690720Y-81767336D01*
X63681952Y-81779159D01*
X63672066Y-81790066D01*
X63661159Y-81799952D01*
X63649336Y-81808720D01*
X63636710Y-81816288D01*
X63623403Y-81822582D01*
X63609543Y-81827541D01*
X63595264Y-81831118D01*
X63580703Y-81833278D01*
X63566000Y-81834000D01*
X61916000Y-81834000D01*
X61901297Y-81833278D01*
X61886736Y-81831118D01*
X61872457Y-81827541D01*
X61858597Y-81822582D01*
X61845290Y-81816288D01*
X61832664Y-81808720D01*
X61820841Y-81799952D01*
X61809934Y-81790066D01*
X61800048Y-81779159D01*
X61791280Y-81767336D01*
X61783712Y-81754710D01*
X61777418Y-81741403D01*
X61772459Y-81727543D01*
X61768882Y-81713264D01*
X61766722Y-81698703D01*
X61766000Y-81684000D01*
X61766000Y-81384000D01*
X61766722Y-81369297D01*
X61768882Y-81354736D01*
X61772459Y-81340457D01*
X61777418Y-81326597D01*
X61783712Y-81313290D01*
X61791280Y-81300664D01*
X61800048Y-81288841D01*
X61809934Y-81277934D01*
X61820841Y-81268048D01*
X61832664Y-81259280D01*
X61845290Y-81251712D01*
X61858597Y-81245418D01*
X61872457Y-81240459D01*
X61886736Y-81236882D01*
X61901297Y-81234722D01*
X61916000Y-81234000D01*
X63566000Y-81234000D01*
X63580703Y-81234722D01*
G37*
G36*
X63580703Y-82504722D02*
G01*
X63595264Y-82506882D01*
X63609543Y-82510459D01*
X63623403Y-82515418D01*
X63636710Y-82521712D01*
X63649336Y-82529280D01*
X63661159Y-82538048D01*
X63672066Y-82547934D01*
X63681952Y-82558841D01*
X63690720Y-82570664D01*
X63698288Y-82583290D01*
X63704582Y-82596597D01*
X63709541Y-82610457D01*
X63713118Y-82624736D01*
X63715278Y-82639297D01*
X63716000Y-82654000D01*
X63716000Y-82954000D01*
X63715278Y-82968703D01*
X63713118Y-82983264D01*
X63709541Y-82997543D01*
X63704582Y-83011403D01*
X63698288Y-83024710D01*
X63690720Y-83037336D01*
X63681952Y-83049159D01*
X63672066Y-83060066D01*
X63661159Y-83069952D01*
X63649336Y-83078720D01*
X63636710Y-83086288D01*
X63623403Y-83092582D01*
X63609543Y-83097541D01*
X63595264Y-83101118D01*
X63580703Y-83103278D01*
X63566000Y-83104000D01*
X61916000Y-83104000D01*
X61901297Y-83103278D01*
X61886736Y-83101118D01*
X61872457Y-83097541D01*
X61858597Y-83092582D01*
X61845290Y-83086288D01*
X61832664Y-83078720D01*
X61820841Y-83069952D01*
X61809934Y-83060066D01*
X61800048Y-83049159D01*
X61791280Y-83037336D01*
X61783712Y-83024710D01*
X61777418Y-83011403D01*
X61772459Y-82997543D01*
X61768882Y-82983264D01*
X61766722Y-82968703D01*
X61766000Y-82954000D01*
X61766000Y-82654000D01*
X61766722Y-82639297D01*
X61768882Y-82624736D01*
X61772459Y-82610457D01*
X61777418Y-82596597D01*
X61783712Y-82583290D01*
X61791280Y-82570664D01*
X61800048Y-82558841D01*
X61809934Y-82547934D01*
X61820841Y-82538048D01*
X61832664Y-82529280D01*
X61845290Y-82521712D01*
X61858597Y-82515418D01*
X61872457Y-82510459D01*
X61886736Y-82506882D01*
X61901297Y-82504722D01*
X61916000Y-82504000D01*
X63566000Y-82504000D01*
X63580703Y-82504722D01*
G37*
G36*
X68530703Y-82504722D02*
G01*
X68545264Y-82506882D01*
X68559543Y-82510459D01*
X68573403Y-82515418D01*
X68586710Y-82521712D01*
X68599336Y-82529280D01*
X68611159Y-82538048D01*
X68622066Y-82547934D01*
X68631952Y-82558841D01*
X68640720Y-82570664D01*
X68648288Y-82583290D01*
X68654582Y-82596597D01*
X68659541Y-82610457D01*
X68663118Y-82624736D01*
X68665278Y-82639297D01*
X68666000Y-82654000D01*
X68666000Y-82954000D01*
X68665278Y-82968703D01*
X68663118Y-82983264D01*
X68659541Y-82997543D01*
X68654582Y-83011403D01*
X68648288Y-83024710D01*
X68640720Y-83037336D01*
X68631952Y-83049159D01*
X68622066Y-83060066D01*
X68611159Y-83069952D01*
X68599336Y-83078720D01*
X68586710Y-83086288D01*
X68573403Y-83092582D01*
X68559543Y-83097541D01*
X68545264Y-83101118D01*
X68530703Y-83103278D01*
X68516000Y-83104000D01*
X66866000Y-83104000D01*
X66851297Y-83103278D01*
X66836736Y-83101118D01*
X66822457Y-83097541D01*
X66808597Y-83092582D01*
X66795290Y-83086288D01*
X66782664Y-83078720D01*
X66770841Y-83069952D01*
X66759934Y-83060066D01*
X66750048Y-83049159D01*
X66741280Y-83037336D01*
X66733712Y-83024710D01*
X66727418Y-83011403D01*
X66722459Y-82997543D01*
X66718882Y-82983264D01*
X66716722Y-82968703D01*
X66716000Y-82954000D01*
X66716000Y-82654000D01*
X66716722Y-82639297D01*
X66718882Y-82624736D01*
X66722459Y-82610457D01*
X66727418Y-82596597D01*
X66733712Y-82583290D01*
X66741280Y-82570664D01*
X66750048Y-82558841D01*
X66759934Y-82547934D01*
X66770841Y-82538048D01*
X66782664Y-82529280D01*
X66795290Y-82521712D01*
X66808597Y-82515418D01*
X66822457Y-82510459D01*
X66836736Y-82506882D01*
X66851297Y-82504722D01*
X66866000Y-82504000D01*
X68516000Y-82504000D01*
X68530703Y-82504722D01*
G37*
G36*
X68530703Y-81234722D02*
G01*
X68545264Y-81236882D01*
X68559543Y-81240459D01*
X68573403Y-81245418D01*
X68586710Y-81251712D01*
X68599336Y-81259280D01*
X68611159Y-81268048D01*
X68622066Y-81277934D01*
X68631952Y-81288841D01*
X68640720Y-81300664D01*
X68648288Y-81313290D01*
X68654582Y-81326597D01*
X68659541Y-81340457D01*
X68663118Y-81354736D01*
X68665278Y-81369297D01*
X68666000Y-81384000D01*
X68666000Y-81684000D01*
X68665278Y-81698703D01*
X68663118Y-81713264D01*
X68659541Y-81727543D01*
X68654582Y-81741403D01*
X68648288Y-81754710D01*
X68640720Y-81767336D01*
X68631952Y-81779159D01*
X68622066Y-81790066D01*
X68611159Y-81799952D01*
X68599336Y-81808720D01*
X68586710Y-81816288D01*
X68573403Y-81822582D01*
X68559543Y-81827541D01*
X68545264Y-81831118D01*
X68530703Y-81833278D01*
X68516000Y-81834000D01*
X66866000Y-81834000D01*
X66851297Y-81833278D01*
X66836736Y-81831118D01*
X66822457Y-81827541D01*
X66808597Y-81822582D01*
X66795290Y-81816288D01*
X66782664Y-81808720D01*
X66770841Y-81799952D01*
X66759934Y-81790066D01*
X66750048Y-81779159D01*
X66741280Y-81767336D01*
X66733712Y-81754710D01*
X66727418Y-81741403D01*
X66722459Y-81727543D01*
X66718882Y-81713264D01*
X66716722Y-81698703D01*
X66716000Y-81684000D01*
X66716000Y-81384000D01*
X66716722Y-81369297D01*
X66718882Y-81354736D01*
X66722459Y-81340457D01*
X66727418Y-81326597D01*
X66733712Y-81313290D01*
X66741280Y-81300664D01*
X66750048Y-81288841D01*
X66759934Y-81277934D01*
X66770841Y-81268048D01*
X66782664Y-81259280D01*
X66795290Y-81251712D01*
X66808597Y-81245418D01*
X66822457Y-81240459D01*
X66836736Y-81236882D01*
X66851297Y-81234722D01*
X66866000Y-81234000D01*
X68516000Y-81234000D01*
X68530703Y-81234722D01*
G37*
G36*
X68530703Y-79964722D02*
G01*
X68545264Y-79966882D01*
X68559543Y-79970459D01*
X68573403Y-79975418D01*
X68586710Y-79981712D01*
X68599336Y-79989280D01*
X68611159Y-79998048D01*
X68622066Y-80007934D01*
X68631952Y-80018841D01*
X68640720Y-80030664D01*
X68648288Y-80043290D01*
X68654582Y-80056597D01*
X68659541Y-80070457D01*
X68663118Y-80084736D01*
X68665278Y-80099297D01*
X68666000Y-80114000D01*
X68666000Y-80414000D01*
X68665278Y-80428703D01*
X68663118Y-80443264D01*
X68659541Y-80457543D01*
X68654582Y-80471403D01*
X68648288Y-80484710D01*
X68640720Y-80497336D01*
X68631952Y-80509159D01*
X68622066Y-80520066D01*
X68611159Y-80529952D01*
X68599336Y-80538720D01*
X68586710Y-80546288D01*
X68573403Y-80552582D01*
X68559543Y-80557541D01*
X68545264Y-80561118D01*
X68530703Y-80563278D01*
X68516000Y-80564000D01*
X66866000Y-80564000D01*
X66851297Y-80563278D01*
X66836736Y-80561118D01*
X66822457Y-80557541D01*
X66808597Y-80552582D01*
X66795290Y-80546288D01*
X66782664Y-80538720D01*
X66770841Y-80529952D01*
X66759934Y-80520066D01*
X66750048Y-80509159D01*
X66741280Y-80497336D01*
X66733712Y-80484710D01*
X66727418Y-80471403D01*
X66722459Y-80457543D01*
X66718882Y-80443264D01*
X66716722Y-80428703D01*
X66716000Y-80414000D01*
X66716000Y-80114000D01*
X66716722Y-80099297D01*
X66718882Y-80084736D01*
X66722459Y-80070457D01*
X66727418Y-80056597D01*
X66733712Y-80043290D01*
X66741280Y-80030664D01*
X66750048Y-80018841D01*
X66759934Y-80007934D01*
X66770841Y-79998048D01*
X66782664Y-79989280D01*
X66795290Y-79981712D01*
X66808597Y-79975418D01*
X66822457Y-79970459D01*
X66836736Y-79966882D01*
X66851297Y-79964722D01*
X66866000Y-79964000D01*
X68516000Y-79964000D01*
X68530703Y-79964722D01*
G37*
G36*
X68530703Y-78694722D02*
G01*
X68545264Y-78696882D01*
X68559543Y-78700459D01*
X68573403Y-78705418D01*
X68586710Y-78711712D01*
X68599336Y-78719280D01*
X68611159Y-78728048D01*
X68622066Y-78737934D01*
X68631952Y-78748841D01*
X68640720Y-78760664D01*
X68648288Y-78773290D01*
X68654582Y-78786597D01*
X68659541Y-78800457D01*
X68663118Y-78814736D01*
X68665278Y-78829297D01*
X68666000Y-78844000D01*
X68666000Y-79144000D01*
X68665278Y-79158703D01*
X68663118Y-79173264D01*
X68659541Y-79187543D01*
X68654582Y-79201403D01*
X68648288Y-79214710D01*
X68640720Y-79227336D01*
X68631952Y-79239159D01*
X68622066Y-79250066D01*
X68611159Y-79259952D01*
X68599336Y-79268720D01*
X68586710Y-79276288D01*
X68573403Y-79282582D01*
X68559543Y-79287541D01*
X68545264Y-79291118D01*
X68530703Y-79293278D01*
X68516000Y-79294000D01*
X66866000Y-79294000D01*
X66851297Y-79293278D01*
X66836736Y-79291118D01*
X66822457Y-79287541D01*
X66808597Y-79282582D01*
X66795290Y-79276288D01*
X66782664Y-79268720D01*
X66770841Y-79259952D01*
X66759934Y-79250066D01*
X66750048Y-79239159D01*
X66741280Y-79227336D01*
X66733712Y-79214710D01*
X66727418Y-79201403D01*
X66722459Y-79187543D01*
X66718882Y-79173264D01*
X66716722Y-79158703D01*
X66716000Y-79144000D01*
X66716000Y-78844000D01*
X66716722Y-78829297D01*
X66718882Y-78814736D01*
X66722459Y-78800457D01*
X66727418Y-78786597D01*
X66733712Y-78773290D01*
X66741280Y-78760664D01*
X66750048Y-78748841D01*
X66759934Y-78737934D01*
X66770841Y-78728048D01*
X66782664Y-78719280D01*
X66795290Y-78711712D01*
X66808597Y-78705418D01*
X66822457Y-78700459D01*
X66836736Y-78696882D01*
X66851297Y-78694722D01*
X66866000Y-78694000D01*
X68516000Y-78694000D01*
X68530703Y-78694722D01*
G37*
G36*
X61237691Y-64333553D02*
G01*
X61258926Y-64336703D01*
X61279750Y-64341919D01*
X61299962Y-64349151D01*
X61319368Y-64358330D01*
X61337781Y-64369366D01*
X61355024Y-64382154D01*
X61370930Y-64396570D01*
X61385346Y-64412476D01*
X61398134Y-64429719D01*
X61409170Y-64448132D01*
X61418349Y-64467538D01*
X61425581Y-64487750D01*
X61430797Y-64508574D01*
X61433947Y-64529809D01*
X61435000Y-64551250D01*
X61435000Y-64988750D01*
X61433947Y-65010191D01*
X61430797Y-65031426D01*
X61425581Y-65052250D01*
X61418349Y-65072462D01*
X61409170Y-65091868D01*
X61398134Y-65110281D01*
X61385346Y-65127524D01*
X61370930Y-65143430D01*
X61355024Y-65157846D01*
X61337781Y-65170634D01*
X61319368Y-65181670D01*
X61299962Y-65190849D01*
X61279750Y-65198081D01*
X61258926Y-65203297D01*
X61237691Y-65206447D01*
X61216250Y-65207500D01*
X60703750Y-65207500D01*
X60682309Y-65206447D01*
X60661074Y-65203297D01*
X60640250Y-65198081D01*
X60620038Y-65190849D01*
X60600632Y-65181670D01*
X60582219Y-65170634D01*
X60564976Y-65157846D01*
X60549070Y-65143430D01*
X60534654Y-65127524D01*
X60521866Y-65110281D01*
X60510830Y-65091868D01*
X60501651Y-65072462D01*
X60494419Y-65052250D01*
X60489203Y-65031426D01*
X60486053Y-65010191D01*
X60485000Y-64988750D01*
X60485000Y-64551250D01*
X60486053Y-64529809D01*
X60489203Y-64508574D01*
X60494419Y-64487750D01*
X60501651Y-64467538D01*
X60510830Y-64448132D01*
X60521866Y-64429719D01*
X60534654Y-64412476D01*
X60549070Y-64396570D01*
X60564976Y-64382154D01*
X60582219Y-64369366D01*
X60600632Y-64358330D01*
X60620038Y-64349151D01*
X60640250Y-64341919D01*
X60661074Y-64336703D01*
X60682309Y-64333553D01*
X60703750Y-64332500D01*
X61216250Y-64332500D01*
X61237691Y-64333553D01*
G37*
G36*
X61237691Y-65908553D02*
G01*
X61258926Y-65911703D01*
X61279750Y-65916919D01*
X61299962Y-65924151D01*
X61319368Y-65933330D01*
X61337781Y-65944366D01*
X61355024Y-65957154D01*
X61370930Y-65971570D01*
X61385346Y-65987476D01*
X61398134Y-66004719D01*
X61409170Y-66023132D01*
X61418349Y-66042538D01*
X61425581Y-66062750D01*
X61430797Y-66083574D01*
X61433947Y-66104809D01*
X61435000Y-66126250D01*
X61435000Y-66563750D01*
X61433947Y-66585191D01*
X61430797Y-66606426D01*
X61425581Y-66627250D01*
X61418349Y-66647462D01*
X61409170Y-66666868D01*
X61398134Y-66685281D01*
X61385346Y-66702524D01*
X61370930Y-66718430D01*
X61355024Y-66732846D01*
X61337781Y-66745634D01*
X61319368Y-66756670D01*
X61299962Y-66765849D01*
X61279750Y-66773081D01*
X61258926Y-66778297D01*
X61237691Y-66781447D01*
X61216250Y-66782500D01*
X60703750Y-66782500D01*
X60682309Y-66781447D01*
X60661074Y-66778297D01*
X60640250Y-66773081D01*
X60620038Y-66765849D01*
X60600632Y-66756670D01*
X60582219Y-66745634D01*
X60564976Y-66732846D01*
X60549070Y-66718430D01*
X60534654Y-66702524D01*
X60521866Y-66685281D01*
X60510830Y-66666868D01*
X60501651Y-66647462D01*
X60494419Y-66627250D01*
X60489203Y-66606426D01*
X60486053Y-66585191D01*
X60485000Y-66563750D01*
X60485000Y-66126250D01*
X60486053Y-66104809D01*
X60489203Y-66083574D01*
X60494419Y-66062750D01*
X60501651Y-66042538D01*
X60510830Y-66023132D01*
X60521866Y-66004719D01*
X60534654Y-65987476D01*
X60549070Y-65971570D01*
X60564976Y-65957154D01*
X60582219Y-65944366D01*
X60600632Y-65933330D01*
X60620038Y-65924151D01*
X60640250Y-65916919D01*
X60661074Y-65911703D01*
X60682309Y-65908553D01*
X60703750Y-65907500D01*
X61216250Y-65907500D01*
X61237691Y-65908553D01*
G37*
G36*
X73229703Y-63835722D02*
G01*
X73244264Y-63837882D01*
X73258543Y-63841459D01*
X73272403Y-63846418D01*
X73285710Y-63852712D01*
X73298336Y-63860280D01*
X73310159Y-63869048D01*
X73321066Y-63878934D01*
X73330952Y-63889841D01*
X73339720Y-63901664D01*
X73347288Y-63914290D01*
X73353582Y-63927597D01*
X73358541Y-63941457D01*
X73362118Y-63955736D01*
X73364278Y-63970297D01*
X73365000Y-63985000D01*
X73365000Y-64285000D01*
X73364278Y-64299703D01*
X73362118Y-64314264D01*
X73358541Y-64328543D01*
X73353582Y-64342403D01*
X73347288Y-64355710D01*
X73339720Y-64368336D01*
X73330952Y-64380159D01*
X73321066Y-64391066D01*
X73310159Y-64400952D01*
X73298336Y-64409720D01*
X73285710Y-64417288D01*
X73272403Y-64423582D01*
X73258543Y-64428541D01*
X73244264Y-64432118D01*
X73229703Y-64434278D01*
X73215000Y-64435000D01*
X71565000Y-64435000D01*
X71550297Y-64434278D01*
X71535736Y-64432118D01*
X71521457Y-64428541D01*
X71507597Y-64423582D01*
X71494290Y-64417288D01*
X71481664Y-64409720D01*
X71469841Y-64400952D01*
X71458934Y-64391066D01*
X71449048Y-64380159D01*
X71440280Y-64368336D01*
X71432712Y-64355710D01*
X71426418Y-64342403D01*
X71421459Y-64328543D01*
X71417882Y-64314264D01*
X71415722Y-64299703D01*
X71415000Y-64285000D01*
X71415000Y-63985000D01*
X71415722Y-63970297D01*
X71417882Y-63955736D01*
X71421459Y-63941457D01*
X71426418Y-63927597D01*
X71432712Y-63914290D01*
X71440280Y-63901664D01*
X71449048Y-63889841D01*
X71458934Y-63878934D01*
X71469841Y-63869048D01*
X71481664Y-63860280D01*
X71494290Y-63852712D01*
X71507597Y-63846418D01*
X71521457Y-63841459D01*
X71535736Y-63837882D01*
X71550297Y-63835722D01*
X71565000Y-63835000D01*
X73215000Y-63835000D01*
X73229703Y-63835722D01*
G37*
G36*
X73229703Y-65105722D02*
G01*
X73244264Y-65107882D01*
X73258543Y-65111459D01*
X73272403Y-65116418D01*
X73285710Y-65122712D01*
X73298336Y-65130280D01*
X73310159Y-65139048D01*
X73321066Y-65148934D01*
X73330952Y-65159841D01*
X73339720Y-65171664D01*
X73347288Y-65184290D01*
X73353582Y-65197597D01*
X73358541Y-65211457D01*
X73362118Y-65225736D01*
X73364278Y-65240297D01*
X73365000Y-65255000D01*
X73365000Y-65555000D01*
X73364278Y-65569703D01*
X73362118Y-65584264D01*
X73358541Y-65598543D01*
X73353582Y-65612403D01*
X73347288Y-65625710D01*
X73339720Y-65638336D01*
X73330952Y-65650159D01*
X73321066Y-65661066D01*
X73310159Y-65670952D01*
X73298336Y-65679720D01*
X73285710Y-65687288D01*
X73272403Y-65693582D01*
X73258543Y-65698541D01*
X73244264Y-65702118D01*
X73229703Y-65704278D01*
X73215000Y-65705000D01*
X71565000Y-65705000D01*
X71550297Y-65704278D01*
X71535736Y-65702118D01*
X71521457Y-65698541D01*
X71507597Y-65693582D01*
X71494290Y-65687288D01*
X71481664Y-65679720D01*
X71469841Y-65670952D01*
X71458934Y-65661066D01*
X71449048Y-65650159D01*
X71440280Y-65638336D01*
X71432712Y-65625710D01*
X71426418Y-65612403D01*
X71421459Y-65598543D01*
X71417882Y-65584264D01*
X71415722Y-65569703D01*
X71415000Y-65555000D01*
X71415000Y-65255000D01*
X71415722Y-65240297D01*
X71417882Y-65225736D01*
X71421459Y-65211457D01*
X71426418Y-65197597D01*
X71432712Y-65184290D01*
X71440280Y-65171664D01*
X71449048Y-65159841D01*
X71458934Y-65148934D01*
X71469841Y-65139048D01*
X71481664Y-65130280D01*
X71494290Y-65122712D01*
X71507597Y-65116418D01*
X71521457Y-65111459D01*
X71535736Y-65107882D01*
X71550297Y-65105722D01*
X71565000Y-65105000D01*
X73215000Y-65105000D01*
X73229703Y-65105722D01*
G37*
G36*
X73229703Y-66375722D02*
G01*
X73244264Y-66377882D01*
X73258543Y-66381459D01*
X73272403Y-66386418D01*
X73285710Y-66392712D01*
X73298336Y-66400280D01*
X73310159Y-66409048D01*
X73321066Y-66418934D01*
X73330952Y-66429841D01*
X73339720Y-66441664D01*
X73347288Y-66454290D01*
X73353582Y-66467597D01*
X73358541Y-66481457D01*
X73362118Y-66495736D01*
X73364278Y-66510297D01*
X73365000Y-66525000D01*
X73365000Y-66825000D01*
X73364278Y-66839703D01*
X73362118Y-66854264D01*
X73358541Y-66868543D01*
X73353582Y-66882403D01*
X73347288Y-66895710D01*
X73339720Y-66908336D01*
X73330952Y-66920159D01*
X73321066Y-66931066D01*
X73310159Y-66940952D01*
X73298336Y-66949720D01*
X73285710Y-66957288D01*
X73272403Y-66963582D01*
X73258543Y-66968541D01*
X73244264Y-66972118D01*
X73229703Y-66974278D01*
X73215000Y-66975000D01*
X71565000Y-66975000D01*
X71550297Y-66974278D01*
X71535736Y-66972118D01*
X71521457Y-66968541D01*
X71507597Y-66963582D01*
X71494290Y-66957288D01*
X71481664Y-66949720D01*
X71469841Y-66940952D01*
X71458934Y-66931066D01*
X71449048Y-66920159D01*
X71440280Y-66908336D01*
X71432712Y-66895710D01*
X71426418Y-66882403D01*
X71421459Y-66868543D01*
X71417882Y-66854264D01*
X71415722Y-66839703D01*
X71415000Y-66825000D01*
X71415000Y-66525000D01*
X71415722Y-66510297D01*
X71417882Y-66495736D01*
X71421459Y-66481457D01*
X71426418Y-66467597D01*
X71432712Y-66454290D01*
X71440280Y-66441664D01*
X71449048Y-66429841D01*
X71458934Y-66418934D01*
X71469841Y-66409048D01*
X71481664Y-66400280D01*
X71494290Y-66392712D01*
X71507597Y-66386418D01*
X71521457Y-66381459D01*
X71535736Y-66377882D01*
X71550297Y-66375722D01*
X71565000Y-66375000D01*
X73215000Y-66375000D01*
X73229703Y-66375722D01*
G37*
G36*
X73229703Y-67645722D02*
G01*
X73244264Y-67647882D01*
X73258543Y-67651459D01*
X73272403Y-67656418D01*
X73285710Y-67662712D01*
X73298336Y-67670280D01*
X73310159Y-67679048D01*
X73321066Y-67688934D01*
X73330952Y-67699841D01*
X73339720Y-67711664D01*
X73347288Y-67724290D01*
X73353582Y-67737597D01*
X73358541Y-67751457D01*
X73362118Y-67765736D01*
X73364278Y-67780297D01*
X73365000Y-67795000D01*
X73365000Y-68095000D01*
X73364278Y-68109703D01*
X73362118Y-68124264D01*
X73358541Y-68138543D01*
X73353582Y-68152403D01*
X73347288Y-68165710D01*
X73339720Y-68178336D01*
X73330952Y-68190159D01*
X73321066Y-68201066D01*
X73310159Y-68210952D01*
X73298336Y-68219720D01*
X73285710Y-68227288D01*
X73272403Y-68233582D01*
X73258543Y-68238541D01*
X73244264Y-68242118D01*
X73229703Y-68244278D01*
X73215000Y-68245000D01*
X71565000Y-68245000D01*
X71550297Y-68244278D01*
X71535736Y-68242118D01*
X71521457Y-68238541D01*
X71507597Y-68233582D01*
X71494290Y-68227288D01*
X71481664Y-68219720D01*
X71469841Y-68210952D01*
X71458934Y-68201066D01*
X71449048Y-68190159D01*
X71440280Y-68178336D01*
X71432712Y-68165710D01*
X71426418Y-68152403D01*
X71421459Y-68138543D01*
X71417882Y-68124264D01*
X71415722Y-68109703D01*
X71415000Y-68095000D01*
X71415000Y-67795000D01*
X71415722Y-67780297D01*
X71417882Y-67765736D01*
X71421459Y-67751457D01*
X71426418Y-67737597D01*
X71432712Y-67724290D01*
X71440280Y-67711664D01*
X71449048Y-67699841D01*
X71458934Y-67688934D01*
X71469841Y-67679048D01*
X71481664Y-67670280D01*
X71494290Y-67662712D01*
X71507597Y-67656418D01*
X71521457Y-67651459D01*
X71535736Y-67647882D01*
X71550297Y-67645722D01*
X71565000Y-67645000D01*
X73215000Y-67645000D01*
X73229703Y-67645722D01*
G37*
G36*
X68279703Y-67645722D02*
G01*
X68294264Y-67647882D01*
X68308543Y-67651459D01*
X68322403Y-67656418D01*
X68335710Y-67662712D01*
X68348336Y-67670280D01*
X68360159Y-67679048D01*
X68371066Y-67688934D01*
X68380952Y-67699841D01*
X68389720Y-67711664D01*
X68397288Y-67724290D01*
X68403582Y-67737597D01*
X68408541Y-67751457D01*
X68412118Y-67765736D01*
X68414278Y-67780297D01*
X68415000Y-67795000D01*
X68415000Y-68095000D01*
X68414278Y-68109703D01*
X68412118Y-68124264D01*
X68408541Y-68138543D01*
X68403582Y-68152403D01*
X68397288Y-68165710D01*
X68389720Y-68178336D01*
X68380952Y-68190159D01*
X68371066Y-68201066D01*
X68360159Y-68210952D01*
X68348336Y-68219720D01*
X68335710Y-68227288D01*
X68322403Y-68233582D01*
X68308543Y-68238541D01*
X68294264Y-68242118D01*
X68279703Y-68244278D01*
X68265000Y-68245000D01*
X66615000Y-68245000D01*
X66600297Y-68244278D01*
X66585736Y-68242118D01*
X66571457Y-68238541D01*
X66557597Y-68233582D01*
X66544290Y-68227288D01*
X66531664Y-68219720D01*
X66519841Y-68210952D01*
X66508934Y-68201066D01*
X66499048Y-68190159D01*
X66490280Y-68178336D01*
X66482712Y-68165710D01*
X66476418Y-68152403D01*
X66471459Y-68138543D01*
X66467882Y-68124264D01*
X66465722Y-68109703D01*
X66465000Y-68095000D01*
X66465000Y-67795000D01*
X66465722Y-67780297D01*
X66467882Y-67765736D01*
X66471459Y-67751457D01*
X66476418Y-67737597D01*
X66482712Y-67724290D01*
X66490280Y-67711664D01*
X66499048Y-67699841D01*
X66508934Y-67688934D01*
X66519841Y-67679048D01*
X66531664Y-67670280D01*
X66544290Y-67662712D01*
X66557597Y-67656418D01*
X66571457Y-67651459D01*
X66585736Y-67647882D01*
X66600297Y-67645722D01*
X66615000Y-67645000D01*
X68265000Y-67645000D01*
X68279703Y-67645722D01*
G37*
G36*
X68279703Y-66375722D02*
G01*
X68294264Y-66377882D01*
X68308543Y-66381459D01*
X68322403Y-66386418D01*
X68335710Y-66392712D01*
X68348336Y-66400280D01*
X68360159Y-66409048D01*
X68371066Y-66418934D01*
X68380952Y-66429841D01*
X68389720Y-66441664D01*
X68397288Y-66454290D01*
X68403582Y-66467597D01*
X68408541Y-66481457D01*
X68412118Y-66495736D01*
X68414278Y-66510297D01*
X68415000Y-66525000D01*
X68415000Y-66825000D01*
X68414278Y-66839703D01*
X68412118Y-66854264D01*
X68408541Y-66868543D01*
X68403582Y-66882403D01*
X68397288Y-66895710D01*
X68389720Y-66908336D01*
X68380952Y-66920159D01*
X68371066Y-66931066D01*
X68360159Y-66940952D01*
X68348336Y-66949720D01*
X68335710Y-66957288D01*
X68322403Y-66963582D01*
X68308543Y-66968541D01*
X68294264Y-66972118D01*
X68279703Y-66974278D01*
X68265000Y-66975000D01*
X66615000Y-66975000D01*
X66600297Y-66974278D01*
X66585736Y-66972118D01*
X66571457Y-66968541D01*
X66557597Y-66963582D01*
X66544290Y-66957288D01*
X66531664Y-66949720D01*
X66519841Y-66940952D01*
X66508934Y-66931066D01*
X66499048Y-66920159D01*
X66490280Y-66908336D01*
X66482712Y-66895710D01*
X66476418Y-66882403D01*
X66471459Y-66868543D01*
X66467882Y-66854264D01*
X66465722Y-66839703D01*
X66465000Y-66825000D01*
X66465000Y-66525000D01*
X66465722Y-66510297D01*
X66467882Y-66495736D01*
X66471459Y-66481457D01*
X66476418Y-66467597D01*
X66482712Y-66454290D01*
X66490280Y-66441664D01*
X66499048Y-66429841D01*
X66508934Y-66418934D01*
X66519841Y-66409048D01*
X66531664Y-66400280D01*
X66544290Y-66392712D01*
X66557597Y-66386418D01*
X66571457Y-66381459D01*
X66585736Y-66377882D01*
X66600297Y-66375722D01*
X66615000Y-66375000D01*
X68265000Y-66375000D01*
X68279703Y-66375722D01*
G37*
G36*
X68279703Y-65105722D02*
G01*
X68294264Y-65107882D01*
X68308543Y-65111459D01*
X68322403Y-65116418D01*
X68335710Y-65122712D01*
X68348336Y-65130280D01*
X68360159Y-65139048D01*
X68371066Y-65148934D01*
X68380952Y-65159841D01*
X68389720Y-65171664D01*
X68397288Y-65184290D01*
X68403582Y-65197597D01*
X68408541Y-65211457D01*
X68412118Y-65225736D01*
X68414278Y-65240297D01*
X68415000Y-65255000D01*
X68415000Y-65555000D01*
X68414278Y-65569703D01*
X68412118Y-65584264D01*
X68408541Y-65598543D01*
X68403582Y-65612403D01*
X68397288Y-65625710D01*
X68389720Y-65638336D01*
X68380952Y-65650159D01*
X68371066Y-65661066D01*
X68360159Y-65670952D01*
X68348336Y-65679720D01*
X68335710Y-65687288D01*
X68322403Y-65693582D01*
X68308543Y-65698541D01*
X68294264Y-65702118D01*
X68279703Y-65704278D01*
X68265000Y-65705000D01*
X66615000Y-65705000D01*
X66600297Y-65704278D01*
X66585736Y-65702118D01*
X66571457Y-65698541D01*
X66557597Y-65693582D01*
X66544290Y-65687288D01*
X66531664Y-65679720D01*
X66519841Y-65670952D01*
X66508934Y-65661066D01*
X66499048Y-65650159D01*
X66490280Y-65638336D01*
X66482712Y-65625710D01*
X66476418Y-65612403D01*
X66471459Y-65598543D01*
X66467882Y-65584264D01*
X66465722Y-65569703D01*
X66465000Y-65555000D01*
X66465000Y-65255000D01*
X66465722Y-65240297D01*
X66467882Y-65225736D01*
X66471459Y-65211457D01*
X66476418Y-65197597D01*
X66482712Y-65184290D01*
X66490280Y-65171664D01*
X66499048Y-65159841D01*
X66508934Y-65148934D01*
X66519841Y-65139048D01*
X66531664Y-65130280D01*
X66544290Y-65122712D01*
X66557597Y-65116418D01*
X66571457Y-65111459D01*
X66585736Y-65107882D01*
X66600297Y-65105722D01*
X66615000Y-65105000D01*
X68265000Y-65105000D01*
X68279703Y-65105722D01*
G37*
G36*
X68279703Y-63835722D02*
G01*
X68294264Y-63837882D01*
X68308543Y-63841459D01*
X68322403Y-63846418D01*
X68335710Y-63852712D01*
X68348336Y-63860280D01*
X68360159Y-63869048D01*
X68371066Y-63878934D01*
X68380952Y-63889841D01*
X68389720Y-63901664D01*
X68397288Y-63914290D01*
X68403582Y-63927597D01*
X68408541Y-63941457D01*
X68412118Y-63955736D01*
X68414278Y-63970297D01*
X68415000Y-63985000D01*
X68415000Y-64285000D01*
X68414278Y-64299703D01*
X68412118Y-64314264D01*
X68408541Y-64328543D01*
X68403582Y-64342403D01*
X68397288Y-64355710D01*
X68389720Y-64368336D01*
X68380952Y-64380159D01*
X68371066Y-64391066D01*
X68360159Y-64400952D01*
X68348336Y-64409720D01*
X68335710Y-64417288D01*
X68322403Y-64423582D01*
X68308543Y-64428541D01*
X68294264Y-64432118D01*
X68279703Y-64434278D01*
X68265000Y-64435000D01*
X66615000Y-64435000D01*
X66600297Y-64434278D01*
X66585736Y-64432118D01*
X66571457Y-64428541D01*
X66557597Y-64423582D01*
X66544290Y-64417288D01*
X66531664Y-64409720D01*
X66519841Y-64400952D01*
X66508934Y-64391066D01*
X66499048Y-64380159D01*
X66490280Y-64368336D01*
X66482712Y-64355710D01*
X66476418Y-64342403D01*
X66471459Y-64328543D01*
X66467882Y-64314264D01*
X66465722Y-64299703D01*
X66465000Y-64285000D01*
X66465000Y-63985000D01*
X66465722Y-63970297D01*
X66467882Y-63955736D01*
X66471459Y-63941457D01*
X66476418Y-63927597D01*
X66482712Y-63914290D01*
X66490280Y-63901664D01*
X66499048Y-63889841D01*
X66508934Y-63878934D01*
X66519841Y-63869048D01*
X66531664Y-63860280D01*
X66544290Y-63852712D01*
X66557597Y-63846418D01*
X66571457Y-63841459D01*
X66585736Y-63837882D01*
X66600297Y-63835722D01*
X66615000Y-63835000D01*
X68265000Y-63835000D01*
X68279703Y-63835722D01*
G37*
G36*
X61237691Y-69337553D02*
G01*
X61258926Y-69340703D01*
X61279750Y-69345919D01*
X61299962Y-69353151D01*
X61319368Y-69362330D01*
X61337781Y-69373366D01*
X61355024Y-69386154D01*
X61370930Y-69400570D01*
X61385346Y-69416476D01*
X61398134Y-69433719D01*
X61409170Y-69452132D01*
X61418349Y-69471538D01*
X61425581Y-69491750D01*
X61430797Y-69512574D01*
X61433947Y-69533809D01*
X61435000Y-69555250D01*
X61435000Y-69992750D01*
X61433947Y-70014191D01*
X61430797Y-70035426D01*
X61425581Y-70056250D01*
X61418349Y-70076462D01*
X61409170Y-70095868D01*
X61398134Y-70114281D01*
X61385346Y-70131524D01*
X61370930Y-70147430D01*
X61355024Y-70161846D01*
X61337781Y-70174634D01*
X61319368Y-70185670D01*
X61299962Y-70194849D01*
X61279750Y-70202081D01*
X61258926Y-70207297D01*
X61237691Y-70210447D01*
X61216250Y-70211500D01*
X60703750Y-70211500D01*
X60682309Y-70210447D01*
X60661074Y-70207297D01*
X60640250Y-70202081D01*
X60620038Y-70194849D01*
X60600632Y-70185670D01*
X60582219Y-70174634D01*
X60564976Y-70161846D01*
X60549070Y-70147430D01*
X60534654Y-70131524D01*
X60521866Y-70114281D01*
X60510830Y-70095868D01*
X60501651Y-70076462D01*
X60494419Y-70056250D01*
X60489203Y-70035426D01*
X60486053Y-70014191D01*
X60485000Y-69992750D01*
X60485000Y-69555250D01*
X60486053Y-69533809D01*
X60489203Y-69512574D01*
X60494419Y-69491750D01*
X60501651Y-69471538D01*
X60510830Y-69452132D01*
X60521866Y-69433719D01*
X60534654Y-69416476D01*
X60549070Y-69400570D01*
X60564976Y-69386154D01*
X60582219Y-69373366D01*
X60600632Y-69362330D01*
X60620038Y-69353151D01*
X60640250Y-69345919D01*
X60661074Y-69340703D01*
X60682309Y-69337553D01*
X60703750Y-69336500D01*
X61216250Y-69336500D01*
X61237691Y-69337553D01*
G37*
G36*
X61237691Y-67762553D02*
G01*
X61258926Y-67765703D01*
X61279750Y-67770919D01*
X61299962Y-67778151D01*
X61319368Y-67787330D01*
X61337781Y-67798366D01*
X61355024Y-67811154D01*
X61370930Y-67825570D01*
X61385346Y-67841476D01*
X61398134Y-67858719D01*
X61409170Y-67877132D01*
X61418349Y-67896538D01*
X61425581Y-67916750D01*
X61430797Y-67937574D01*
X61433947Y-67958809D01*
X61435000Y-67980250D01*
X61435000Y-68417750D01*
X61433947Y-68439191D01*
X61430797Y-68460426D01*
X61425581Y-68481250D01*
X61418349Y-68501462D01*
X61409170Y-68520868D01*
X61398134Y-68539281D01*
X61385346Y-68556524D01*
X61370930Y-68572430D01*
X61355024Y-68586846D01*
X61337781Y-68599634D01*
X61319368Y-68610670D01*
X61299962Y-68619849D01*
X61279750Y-68627081D01*
X61258926Y-68632297D01*
X61237691Y-68635447D01*
X61216250Y-68636500D01*
X60703750Y-68636500D01*
X60682309Y-68635447D01*
X60661074Y-68632297D01*
X60640250Y-68627081D01*
X60620038Y-68619849D01*
X60600632Y-68610670D01*
X60582219Y-68599634D01*
X60564976Y-68586846D01*
X60549070Y-68572430D01*
X60534654Y-68556524D01*
X60521866Y-68539281D01*
X60510830Y-68520868D01*
X60501651Y-68501462D01*
X60494419Y-68481250D01*
X60489203Y-68460426D01*
X60486053Y-68439191D01*
X60485000Y-68417750D01*
X60485000Y-67980250D01*
X60486053Y-67958809D01*
X60489203Y-67937574D01*
X60494419Y-67916750D01*
X60501651Y-67896538D01*
X60510830Y-67877132D01*
X60521866Y-67858719D01*
X60534654Y-67841476D01*
X60549070Y-67825570D01*
X60564976Y-67811154D01*
X60582219Y-67798366D01*
X60600632Y-67787330D01*
X60620038Y-67778151D01*
X60640250Y-67770919D01*
X60661074Y-67765703D01*
X60682309Y-67762553D01*
X60703750Y-67761500D01*
X61216250Y-67761500D01*
X61237691Y-67762553D01*
G37*
G36*
X58189691Y-76322353D02*
G01*
X58210926Y-76325503D01*
X58231750Y-76330719D01*
X58251962Y-76337951D01*
X58271368Y-76347130D01*
X58289781Y-76358166D01*
X58307024Y-76370954D01*
X58322930Y-76385370D01*
X58337346Y-76401276D01*
X58350134Y-76418519D01*
X58361170Y-76436932D01*
X58370349Y-76456338D01*
X58377581Y-76476550D01*
X58382797Y-76497374D01*
X58385947Y-76518609D01*
X58387000Y-76540050D01*
X58387000Y-76977550D01*
X58385947Y-76998991D01*
X58382797Y-77020226D01*
X58377581Y-77041050D01*
X58370349Y-77061262D01*
X58361170Y-77080668D01*
X58350134Y-77099081D01*
X58337346Y-77116324D01*
X58322930Y-77132230D01*
X58307024Y-77146646D01*
X58289781Y-77159434D01*
X58271368Y-77170470D01*
X58251962Y-77179649D01*
X58231750Y-77186881D01*
X58210926Y-77192097D01*
X58189691Y-77195247D01*
X58168250Y-77196300D01*
X57655750Y-77196300D01*
X57634309Y-77195247D01*
X57613074Y-77192097D01*
X57592250Y-77186881D01*
X57572038Y-77179649D01*
X57552632Y-77170470D01*
X57534219Y-77159434D01*
X57516976Y-77146646D01*
X57501070Y-77132230D01*
X57486654Y-77116324D01*
X57473866Y-77099081D01*
X57462830Y-77080668D01*
X57453651Y-77061262D01*
X57446419Y-77041050D01*
X57441203Y-77020226D01*
X57438053Y-76998991D01*
X57437000Y-76977550D01*
X57437000Y-76540050D01*
X57438053Y-76518609D01*
X57441203Y-76497374D01*
X57446419Y-76476550D01*
X57453651Y-76456338D01*
X57462830Y-76436932D01*
X57473866Y-76418519D01*
X57486654Y-76401276D01*
X57501070Y-76385370D01*
X57516976Y-76370954D01*
X57534219Y-76358166D01*
X57552632Y-76347130D01*
X57572038Y-76337951D01*
X57592250Y-76330719D01*
X57613074Y-76325503D01*
X57634309Y-76322353D01*
X57655750Y-76321300D01*
X58168250Y-76321300D01*
X58189691Y-76322353D01*
G37*
G36*
X58189691Y-74747353D02*
G01*
X58210926Y-74750503D01*
X58231750Y-74755719D01*
X58251962Y-74762951D01*
X58271368Y-74772130D01*
X58289781Y-74783166D01*
X58307024Y-74795954D01*
X58322930Y-74810370D01*
X58337346Y-74826276D01*
X58350134Y-74843519D01*
X58361170Y-74861932D01*
X58370349Y-74881338D01*
X58377581Y-74901550D01*
X58382797Y-74922374D01*
X58385947Y-74943609D01*
X58387000Y-74965050D01*
X58387000Y-75402550D01*
X58385947Y-75423991D01*
X58382797Y-75445226D01*
X58377581Y-75466050D01*
X58370349Y-75486262D01*
X58361170Y-75505668D01*
X58350134Y-75524081D01*
X58337346Y-75541324D01*
X58322930Y-75557230D01*
X58307024Y-75571646D01*
X58289781Y-75584434D01*
X58271368Y-75595470D01*
X58251962Y-75604649D01*
X58231750Y-75611881D01*
X58210926Y-75617097D01*
X58189691Y-75620247D01*
X58168250Y-75621300D01*
X57655750Y-75621300D01*
X57634309Y-75620247D01*
X57613074Y-75617097D01*
X57592250Y-75611881D01*
X57572038Y-75604649D01*
X57552632Y-75595470D01*
X57534219Y-75584434D01*
X57516976Y-75571646D01*
X57501070Y-75557230D01*
X57486654Y-75541324D01*
X57473866Y-75524081D01*
X57462830Y-75505668D01*
X57453651Y-75486262D01*
X57446419Y-75466050D01*
X57441203Y-75445226D01*
X57438053Y-75423991D01*
X57437000Y-75402550D01*
X57437000Y-74965050D01*
X57438053Y-74943609D01*
X57441203Y-74922374D01*
X57446419Y-74901550D01*
X57453651Y-74881338D01*
X57462830Y-74861932D01*
X57473866Y-74843519D01*
X57486654Y-74826276D01*
X57501070Y-74810370D01*
X57516976Y-74795954D01*
X57534219Y-74783166D01*
X57552632Y-74772130D01*
X57572038Y-74762951D01*
X57592250Y-74755719D01*
X57613074Y-74750503D01*
X57634309Y-74747353D01*
X57655750Y-74746300D01*
X58168250Y-74746300D01*
X58189691Y-74747353D01*
G37*
G36*
X68820191Y-71154053D02*
G01*
X68841426Y-71157203D01*
X68862250Y-71162419D01*
X68882462Y-71169651D01*
X68901868Y-71178830D01*
X68920281Y-71189866D01*
X68937524Y-71202654D01*
X68953430Y-71217070D01*
X68967846Y-71232976D01*
X68980634Y-71250219D01*
X68991670Y-71268632D01*
X69000849Y-71288038D01*
X69008081Y-71308250D01*
X69013297Y-71329074D01*
X69016447Y-71350309D01*
X69017500Y-71371750D01*
X69017500Y-71884250D01*
X69016447Y-71905691D01*
X69013297Y-71926926D01*
X69008081Y-71947750D01*
X69000849Y-71967962D01*
X68991670Y-71987368D01*
X68980634Y-72005781D01*
X68967846Y-72023024D01*
X68953430Y-72038930D01*
X68937524Y-72053346D01*
X68920281Y-72066134D01*
X68901868Y-72077170D01*
X68882462Y-72086349D01*
X68862250Y-72093581D01*
X68841426Y-72098797D01*
X68820191Y-72101947D01*
X68798750Y-72103000D01*
X68361250Y-72103000D01*
X68339809Y-72101947D01*
X68318574Y-72098797D01*
X68297750Y-72093581D01*
X68277538Y-72086349D01*
X68258132Y-72077170D01*
X68239719Y-72066134D01*
X68222476Y-72053346D01*
X68206570Y-72038930D01*
X68192154Y-72023024D01*
X68179366Y-72005781D01*
X68168330Y-71987368D01*
X68159151Y-71967962D01*
X68151919Y-71947750D01*
X68146703Y-71926926D01*
X68143553Y-71905691D01*
X68142500Y-71884250D01*
X68142500Y-71371750D01*
X68143553Y-71350309D01*
X68146703Y-71329074D01*
X68151919Y-71308250D01*
X68159151Y-71288038D01*
X68168330Y-71268632D01*
X68179366Y-71250219D01*
X68192154Y-71232976D01*
X68206570Y-71217070D01*
X68222476Y-71202654D01*
X68239719Y-71189866D01*
X68258132Y-71178830D01*
X68277538Y-71169651D01*
X68297750Y-71162419D01*
X68318574Y-71157203D01*
X68339809Y-71154053D01*
X68361250Y-71153000D01*
X68798750Y-71153000D01*
X68820191Y-71154053D01*
G37*
G36*
X70395191Y-71154053D02*
G01*
X70416426Y-71157203D01*
X70437250Y-71162419D01*
X70457462Y-71169651D01*
X70476868Y-71178830D01*
X70495281Y-71189866D01*
X70512524Y-71202654D01*
X70528430Y-71217070D01*
X70542846Y-71232976D01*
X70555634Y-71250219D01*
X70566670Y-71268632D01*
X70575849Y-71288038D01*
X70583081Y-71308250D01*
X70588297Y-71329074D01*
X70591447Y-71350309D01*
X70592500Y-71371750D01*
X70592500Y-71884250D01*
X70591447Y-71905691D01*
X70588297Y-71926926D01*
X70583081Y-71947750D01*
X70575849Y-71967962D01*
X70566670Y-71987368D01*
X70555634Y-72005781D01*
X70542846Y-72023024D01*
X70528430Y-72038930D01*
X70512524Y-72053346D01*
X70495281Y-72066134D01*
X70476868Y-72077170D01*
X70457462Y-72086349D01*
X70437250Y-72093581D01*
X70416426Y-72098797D01*
X70395191Y-72101947D01*
X70373750Y-72103000D01*
X69936250Y-72103000D01*
X69914809Y-72101947D01*
X69893574Y-72098797D01*
X69872750Y-72093581D01*
X69852538Y-72086349D01*
X69833132Y-72077170D01*
X69814719Y-72066134D01*
X69797476Y-72053346D01*
X69781570Y-72038930D01*
X69767154Y-72023024D01*
X69754366Y-72005781D01*
X69743330Y-71987368D01*
X69734151Y-71967962D01*
X69726919Y-71947750D01*
X69721703Y-71926926D01*
X69718553Y-71905691D01*
X69717500Y-71884250D01*
X69717500Y-71371750D01*
X69718553Y-71350309D01*
X69721703Y-71329074D01*
X69726919Y-71308250D01*
X69734151Y-71288038D01*
X69743330Y-71268632D01*
X69754366Y-71250219D01*
X69767154Y-71232976D01*
X69781570Y-71217070D01*
X69797476Y-71202654D01*
X69814719Y-71189866D01*
X69833132Y-71178830D01*
X69852538Y-71169651D01*
X69872750Y-71162419D01*
X69893574Y-71157203D01*
X69914809Y-71154053D01*
X69936250Y-71153000D01*
X70373750Y-71153000D01*
X70395191Y-71154053D01*
G37*
G36*
X67296191Y-73186053D02*
G01*
X67317426Y-73189203D01*
X67338250Y-73194419D01*
X67358462Y-73201651D01*
X67377868Y-73210830D01*
X67396281Y-73221866D01*
X67413524Y-73234654D01*
X67429430Y-73249070D01*
X67443846Y-73264976D01*
X67456634Y-73282219D01*
X67467670Y-73300632D01*
X67476849Y-73320038D01*
X67484081Y-73340250D01*
X67489297Y-73361074D01*
X67492447Y-73382309D01*
X67493500Y-73403750D01*
X67493500Y-73916250D01*
X67492447Y-73937691D01*
X67489297Y-73958926D01*
X67484081Y-73979750D01*
X67476849Y-73999962D01*
X67467670Y-74019368D01*
X67456634Y-74037781D01*
X67443846Y-74055024D01*
X67429430Y-74070930D01*
X67413524Y-74085346D01*
X67396281Y-74098134D01*
X67377868Y-74109170D01*
X67358462Y-74118349D01*
X67338250Y-74125581D01*
X67317426Y-74130797D01*
X67296191Y-74133947D01*
X67274750Y-74135000D01*
X66837250Y-74135000D01*
X66815809Y-74133947D01*
X66794574Y-74130797D01*
X66773750Y-74125581D01*
X66753538Y-74118349D01*
X66734132Y-74109170D01*
X66715719Y-74098134D01*
X66698476Y-74085346D01*
X66682570Y-74070930D01*
X66668154Y-74055024D01*
X66655366Y-74037781D01*
X66644330Y-74019368D01*
X66635151Y-73999962D01*
X66627919Y-73979750D01*
X66622703Y-73958926D01*
X66619553Y-73937691D01*
X66618500Y-73916250D01*
X66618500Y-73403750D01*
X66619553Y-73382309D01*
X66622703Y-73361074D01*
X66627919Y-73340250D01*
X66635151Y-73320038D01*
X66644330Y-73300632D01*
X66655366Y-73282219D01*
X66668154Y-73264976D01*
X66682570Y-73249070D01*
X66698476Y-73234654D01*
X66715719Y-73221866D01*
X66734132Y-73210830D01*
X66753538Y-73201651D01*
X66773750Y-73194419D01*
X66794574Y-73189203D01*
X66815809Y-73186053D01*
X66837250Y-73185000D01*
X67274750Y-73185000D01*
X67296191Y-73186053D01*
G37*
G36*
X68871191Y-73186053D02*
G01*
X68892426Y-73189203D01*
X68913250Y-73194419D01*
X68933462Y-73201651D01*
X68952868Y-73210830D01*
X68971281Y-73221866D01*
X68988524Y-73234654D01*
X69004430Y-73249070D01*
X69018846Y-73264976D01*
X69031634Y-73282219D01*
X69042670Y-73300632D01*
X69051849Y-73320038D01*
X69059081Y-73340250D01*
X69064297Y-73361074D01*
X69067447Y-73382309D01*
X69068500Y-73403750D01*
X69068500Y-73916250D01*
X69067447Y-73937691D01*
X69064297Y-73958926D01*
X69059081Y-73979750D01*
X69051849Y-73999962D01*
X69042670Y-74019368D01*
X69031634Y-74037781D01*
X69018846Y-74055024D01*
X69004430Y-74070930D01*
X68988524Y-74085346D01*
X68971281Y-74098134D01*
X68952868Y-74109170D01*
X68933462Y-74118349D01*
X68913250Y-74125581D01*
X68892426Y-74130797D01*
X68871191Y-74133947D01*
X68849750Y-74135000D01*
X68412250Y-74135000D01*
X68390809Y-74133947D01*
X68369574Y-74130797D01*
X68348750Y-74125581D01*
X68328538Y-74118349D01*
X68309132Y-74109170D01*
X68290719Y-74098134D01*
X68273476Y-74085346D01*
X68257570Y-74070930D01*
X68243154Y-74055024D01*
X68230366Y-74037781D01*
X68219330Y-74019368D01*
X68210151Y-73999962D01*
X68202919Y-73979750D01*
X68197703Y-73958926D01*
X68194553Y-73937691D01*
X68193500Y-73916250D01*
X68193500Y-73403750D01*
X68194553Y-73382309D01*
X68197703Y-73361074D01*
X68202919Y-73340250D01*
X68210151Y-73320038D01*
X68219330Y-73300632D01*
X68230366Y-73282219D01*
X68243154Y-73264976D01*
X68257570Y-73249070D01*
X68273476Y-73234654D01*
X68290719Y-73221866D01*
X68309132Y-73210830D01*
X68328538Y-73201651D01*
X68348750Y-73194419D01*
X68369574Y-73189203D01*
X68390809Y-73186053D01*
X68412250Y-73185000D01*
X68849750Y-73185000D01*
X68871191Y-73186053D01*
G37*
G36*
X76477691Y-58237553D02*
G01*
X76498926Y-58240703D01*
X76519750Y-58245919D01*
X76539962Y-58253151D01*
X76559368Y-58262330D01*
X76577781Y-58273366D01*
X76595024Y-58286154D01*
X76610930Y-58300570D01*
X76625346Y-58316476D01*
X76638134Y-58333719D01*
X76649170Y-58352132D01*
X76658349Y-58371538D01*
X76665581Y-58391750D01*
X76670797Y-58412574D01*
X76673947Y-58433809D01*
X76675000Y-58455250D01*
X76675000Y-58892750D01*
X76673947Y-58914191D01*
X76670797Y-58935426D01*
X76665581Y-58956250D01*
X76658349Y-58976462D01*
X76649170Y-58995868D01*
X76638134Y-59014281D01*
X76625346Y-59031524D01*
X76610930Y-59047430D01*
X76595024Y-59061846D01*
X76577781Y-59074634D01*
X76559368Y-59085670D01*
X76539962Y-59094849D01*
X76519750Y-59102081D01*
X76498926Y-59107297D01*
X76477691Y-59110447D01*
X76456250Y-59111500D01*
X75943750Y-59111500D01*
X75922309Y-59110447D01*
X75901074Y-59107297D01*
X75880250Y-59102081D01*
X75860038Y-59094849D01*
X75840632Y-59085670D01*
X75822219Y-59074634D01*
X75804976Y-59061846D01*
X75789070Y-59047430D01*
X75774654Y-59031524D01*
X75761866Y-59014281D01*
X75750830Y-58995868D01*
X75741651Y-58976462D01*
X75734419Y-58956250D01*
X75729203Y-58935426D01*
X75726053Y-58914191D01*
X75725000Y-58892750D01*
X75725000Y-58455250D01*
X75726053Y-58433809D01*
X75729203Y-58412574D01*
X75734419Y-58391750D01*
X75741651Y-58371538D01*
X75750830Y-58352132D01*
X75761866Y-58333719D01*
X75774654Y-58316476D01*
X75789070Y-58300570D01*
X75804976Y-58286154D01*
X75822219Y-58273366D01*
X75840632Y-58262330D01*
X75860038Y-58253151D01*
X75880250Y-58245919D01*
X75901074Y-58240703D01*
X75922309Y-58237553D01*
X75943750Y-58236500D01*
X76456250Y-58236500D01*
X76477691Y-58237553D01*
G37*
G36*
X76477691Y-56662553D02*
G01*
X76498926Y-56665703D01*
X76519750Y-56670919D01*
X76539962Y-56678151D01*
X76559368Y-56687330D01*
X76577781Y-56698366D01*
X76595024Y-56711154D01*
X76610930Y-56725570D01*
X76625346Y-56741476D01*
X76638134Y-56758719D01*
X76649170Y-56777132D01*
X76658349Y-56796538D01*
X76665581Y-56816750D01*
X76670797Y-56837574D01*
X76673947Y-56858809D01*
X76675000Y-56880250D01*
X76675000Y-57317750D01*
X76673947Y-57339191D01*
X76670797Y-57360426D01*
X76665581Y-57381250D01*
X76658349Y-57401462D01*
X76649170Y-57420868D01*
X76638134Y-57439281D01*
X76625346Y-57456524D01*
X76610930Y-57472430D01*
X76595024Y-57486846D01*
X76577781Y-57499634D01*
X76559368Y-57510670D01*
X76539962Y-57519849D01*
X76519750Y-57527081D01*
X76498926Y-57532297D01*
X76477691Y-57535447D01*
X76456250Y-57536500D01*
X75943750Y-57536500D01*
X75922309Y-57535447D01*
X75901074Y-57532297D01*
X75880250Y-57527081D01*
X75860038Y-57519849D01*
X75840632Y-57510670D01*
X75822219Y-57499634D01*
X75804976Y-57486846D01*
X75789070Y-57472430D01*
X75774654Y-57456524D01*
X75761866Y-57439281D01*
X75750830Y-57420868D01*
X75741651Y-57401462D01*
X75734419Y-57381250D01*
X75729203Y-57360426D01*
X75726053Y-57339191D01*
X75725000Y-57317750D01*
X75725000Y-56880250D01*
X75726053Y-56858809D01*
X75729203Y-56837574D01*
X75734419Y-56816750D01*
X75741651Y-56796538D01*
X75750830Y-56777132D01*
X75761866Y-56758719D01*
X75774654Y-56741476D01*
X75789070Y-56725570D01*
X75804976Y-56711154D01*
X75822219Y-56698366D01*
X75840632Y-56687330D01*
X75860038Y-56678151D01*
X75880250Y-56670919D01*
X75901074Y-56665703D01*
X75922309Y-56662553D01*
X75943750Y-56661500D01*
X76456250Y-56661500D01*
X76477691Y-56662553D01*
G37*
G36*
X76477691Y-47036053D02*
G01*
X76498926Y-47039203D01*
X76519750Y-47044419D01*
X76539962Y-47051651D01*
X76559368Y-47060830D01*
X76577781Y-47071866D01*
X76595024Y-47084654D01*
X76610930Y-47099070D01*
X76625346Y-47114976D01*
X76638134Y-47132219D01*
X76649170Y-47150632D01*
X76658349Y-47170038D01*
X76665581Y-47190250D01*
X76670797Y-47211074D01*
X76673947Y-47232309D01*
X76675000Y-47253750D01*
X76675000Y-47691250D01*
X76673947Y-47712691D01*
X76670797Y-47733926D01*
X76665581Y-47754750D01*
X76658349Y-47774962D01*
X76649170Y-47794368D01*
X76638134Y-47812781D01*
X76625346Y-47830024D01*
X76610930Y-47845930D01*
X76595024Y-47860346D01*
X76577781Y-47873134D01*
X76559368Y-47884170D01*
X76539962Y-47893349D01*
X76519750Y-47900581D01*
X76498926Y-47905797D01*
X76477691Y-47908947D01*
X76456250Y-47910000D01*
X75943750Y-47910000D01*
X75922309Y-47908947D01*
X75901074Y-47905797D01*
X75880250Y-47900581D01*
X75860038Y-47893349D01*
X75840632Y-47884170D01*
X75822219Y-47873134D01*
X75804976Y-47860346D01*
X75789070Y-47845930D01*
X75774654Y-47830024D01*
X75761866Y-47812781D01*
X75750830Y-47794368D01*
X75741651Y-47774962D01*
X75734419Y-47754750D01*
X75729203Y-47733926D01*
X75726053Y-47712691D01*
X75725000Y-47691250D01*
X75725000Y-47253750D01*
X75726053Y-47232309D01*
X75729203Y-47211074D01*
X75734419Y-47190250D01*
X75741651Y-47170038D01*
X75750830Y-47150632D01*
X75761866Y-47132219D01*
X75774654Y-47114976D01*
X75789070Y-47099070D01*
X75804976Y-47084654D01*
X75822219Y-47071866D01*
X75840632Y-47060830D01*
X75860038Y-47051651D01*
X75880250Y-47044419D01*
X75901074Y-47039203D01*
X75922309Y-47036053D01*
X75943750Y-47035000D01*
X76456250Y-47035000D01*
X76477691Y-47036053D01*
G37*
G36*
X76477691Y-48611053D02*
G01*
X76498926Y-48614203D01*
X76519750Y-48619419D01*
X76539962Y-48626651D01*
X76559368Y-48635830D01*
X76577781Y-48646866D01*
X76595024Y-48659654D01*
X76610930Y-48674070D01*
X76625346Y-48689976D01*
X76638134Y-48707219D01*
X76649170Y-48725632D01*
X76658349Y-48745038D01*
X76665581Y-48765250D01*
X76670797Y-48786074D01*
X76673947Y-48807309D01*
X76675000Y-48828750D01*
X76675000Y-49266250D01*
X76673947Y-49287691D01*
X76670797Y-49308926D01*
X76665581Y-49329750D01*
X76658349Y-49349962D01*
X76649170Y-49369368D01*
X76638134Y-49387781D01*
X76625346Y-49405024D01*
X76610930Y-49420930D01*
X76595024Y-49435346D01*
X76577781Y-49448134D01*
X76559368Y-49459170D01*
X76539962Y-49468349D01*
X76519750Y-49475581D01*
X76498926Y-49480797D01*
X76477691Y-49483947D01*
X76456250Y-49485000D01*
X75943750Y-49485000D01*
X75922309Y-49483947D01*
X75901074Y-49480797D01*
X75880250Y-49475581D01*
X75860038Y-49468349D01*
X75840632Y-49459170D01*
X75822219Y-49448134D01*
X75804976Y-49435346D01*
X75789070Y-49420930D01*
X75774654Y-49405024D01*
X75761866Y-49387781D01*
X75750830Y-49369368D01*
X75741651Y-49349962D01*
X75734419Y-49329750D01*
X75729203Y-49308926D01*
X75726053Y-49287691D01*
X75725000Y-49266250D01*
X75725000Y-48828750D01*
X75726053Y-48807309D01*
X75729203Y-48786074D01*
X75734419Y-48765250D01*
X75741651Y-48745038D01*
X75750830Y-48725632D01*
X75761866Y-48707219D01*
X75774654Y-48689976D01*
X75789070Y-48674070D01*
X75804976Y-48659654D01*
X75822219Y-48646866D01*
X75840632Y-48635830D01*
X75860038Y-48626651D01*
X75880250Y-48619419D01*
X75901074Y-48614203D01*
X75922309Y-48611053D01*
X75943750Y-48610000D01*
X76456250Y-48610000D01*
X76477691Y-48611053D01*
G37*
G36*
X78509691Y-68397553D02*
G01*
X78530926Y-68400703D01*
X78551750Y-68405919D01*
X78571962Y-68413151D01*
X78591368Y-68422330D01*
X78609781Y-68433366D01*
X78627024Y-68446154D01*
X78642930Y-68460570D01*
X78657346Y-68476476D01*
X78670134Y-68493719D01*
X78681170Y-68512132D01*
X78690349Y-68531538D01*
X78697581Y-68551750D01*
X78702797Y-68572574D01*
X78705947Y-68593809D01*
X78707000Y-68615250D01*
X78707000Y-69052750D01*
X78705947Y-69074191D01*
X78702797Y-69095426D01*
X78697581Y-69116250D01*
X78690349Y-69136462D01*
X78681170Y-69155868D01*
X78670134Y-69174281D01*
X78657346Y-69191524D01*
X78642930Y-69207430D01*
X78627024Y-69221846D01*
X78609781Y-69234634D01*
X78591368Y-69245670D01*
X78571962Y-69254849D01*
X78551750Y-69262081D01*
X78530926Y-69267297D01*
X78509691Y-69270447D01*
X78488250Y-69271500D01*
X77975750Y-69271500D01*
X77954309Y-69270447D01*
X77933074Y-69267297D01*
X77912250Y-69262081D01*
X77892038Y-69254849D01*
X77872632Y-69245670D01*
X77854219Y-69234634D01*
X77836976Y-69221846D01*
X77821070Y-69207430D01*
X77806654Y-69191524D01*
X77793866Y-69174281D01*
X77782830Y-69155868D01*
X77773651Y-69136462D01*
X77766419Y-69116250D01*
X77761203Y-69095426D01*
X77758053Y-69074191D01*
X77757000Y-69052750D01*
X77757000Y-68615250D01*
X77758053Y-68593809D01*
X77761203Y-68572574D01*
X77766419Y-68551750D01*
X77773651Y-68531538D01*
X77782830Y-68512132D01*
X77793866Y-68493719D01*
X77806654Y-68476476D01*
X77821070Y-68460570D01*
X77836976Y-68446154D01*
X77854219Y-68433366D01*
X77872632Y-68422330D01*
X77892038Y-68413151D01*
X77912250Y-68405919D01*
X77933074Y-68400703D01*
X77954309Y-68397553D01*
X77975750Y-68396500D01*
X78488250Y-68396500D01*
X78509691Y-68397553D01*
G37*
G36*
X78509691Y-69972553D02*
G01*
X78530926Y-69975703D01*
X78551750Y-69980919D01*
X78571962Y-69988151D01*
X78591368Y-69997330D01*
X78609781Y-70008366D01*
X78627024Y-70021154D01*
X78642930Y-70035570D01*
X78657346Y-70051476D01*
X78670134Y-70068719D01*
X78681170Y-70087132D01*
X78690349Y-70106538D01*
X78697581Y-70126750D01*
X78702797Y-70147574D01*
X78705947Y-70168809D01*
X78707000Y-70190250D01*
X78707000Y-70627750D01*
X78705947Y-70649191D01*
X78702797Y-70670426D01*
X78697581Y-70691250D01*
X78690349Y-70711462D01*
X78681170Y-70730868D01*
X78670134Y-70749281D01*
X78657346Y-70766524D01*
X78642930Y-70782430D01*
X78627024Y-70796846D01*
X78609781Y-70809634D01*
X78591368Y-70820670D01*
X78571962Y-70829849D01*
X78551750Y-70837081D01*
X78530926Y-70842297D01*
X78509691Y-70845447D01*
X78488250Y-70846500D01*
X77975750Y-70846500D01*
X77954309Y-70845447D01*
X77933074Y-70842297D01*
X77912250Y-70837081D01*
X77892038Y-70829849D01*
X77872632Y-70820670D01*
X77854219Y-70809634D01*
X77836976Y-70796846D01*
X77821070Y-70782430D01*
X77806654Y-70766524D01*
X77793866Y-70749281D01*
X77782830Y-70730868D01*
X77773651Y-70711462D01*
X77766419Y-70691250D01*
X77761203Y-70670426D01*
X77758053Y-70649191D01*
X77757000Y-70627750D01*
X77757000Y-70190250D01*
X77758053Y-70168809D01*
X77761203Y-70147574D01*
X77766419Y-70126750D01*
X77773651Y-70106538D01*
X77782830Y-70087132D01*
X77793866Y-70068719D01*
X77806654Y-70051476D01*
X77821070Y-70035570D01*
X77836976Y-70021154D01*
X77854219Y-70008366D01*
X77872632Y-69997330D01*
X77892038Y-69988151D01*
X77912250Y-69980919D01*
X77933074Y-69975703D01*
X77954309Y-69972553D01*
X77975750Y-69971500D01*
X78488250Y-69971500D01*
X78509691Y-69972553D01*
G37*
G36*
X78509691Y-71445553D02*
G01*
X78530926Y-71448703D01*
X78551750Y-71453919D01*
X78571962Y-71461151D01*
X78591368Y-71470330D01*
X78609781Y-71481366D01*
X78627024Y-71494154D01*
X78642930Y-71508570D01*
X78657346Y-71524476D01*
X78670134Y-71541719D01*
X78681170Y-71560132D01*
X78690349Y-71579538D01*
X78697581Y-71599750D01*
X78702797Y-71620574D01*
X78705947Y-71641809D01*
X78707000Y-71663250D01*
X78707000Y-72100750D01*
X78705947Y-72122191D01*
X78702797Y-72143426D01*
X78697581Y-72164250D01*
X78690349Y-72184462D01*
X78681170Y-72203868D01*
X78670134Y-72222281D01*
X78657346Y-72239524D01*
X78642930Y-72255430D01*
X78627024Y-72269846D01*
X78609781Y-72282634D01*
X78591368Y-72293670D01*
X78571962Y-72302849D01*
X78551750Y-72310081D01*
X78530926Y-72315297D01*
X78509691Y-72318447D01*
X78488250Y-72319500D01*
X77975750Y-72319500D01*
X77954309Y-72318447D01*
X77933074Y-72315297D01*
X77912250Y-72310081D01*
X77892038Y-72302849D01*
X77872632Y-72293670D01*
X77854219Y-72282634D01*
X77836976Y-72269846D01*
X77821070Y-72255430D01*
X77806654Y-72239524D01*
X77793866Y-72222281D01*
X77782830Y-72203868D01*
X77773651Y-72184462D01*
X77766419Y-72164250D01*
X77761203Y-72143426D01*
X77758053Y-72122191D01*
X77757000Y-72100750D01*
X77757000Y-71663250D01*
X77758053Y-71641809D01*
X77761203Y-71620574D01*
X77766419Y-71599750D01*
X77773651Y-71579538D01*
X77782830Y-71560132D01*
X77793866Y-71541719D01*
X77806654Y-71524476D01*
X77821070Y-71508570D01*
X77836976Y-71494154D01*
X77854219Y-71481366D01*
X77872632Y-71470330D01*
X77892038Y-71461151D01*
X77912250Y-71453919D01*
X77933074Y-71448703D01*
X77954309Y-71445553D01*
X77975750Y-71444500D01*
X78488250Y-71444500D01*
X78509691Y-71445553D01*
G37*
G36*
X78509691Y-73020553D02*
G01*
X78530926Y-73023703D01*
X78551750Y-73028919D01*
X78571962Y-73036151D01*
X78591368Y-73045330D01*
X78609781Y-73056366D01*
X78627024Y-73069154D01*
X78642930Y-73083570D01*
X78657346Y-73099476D01*
X78670134Y-73116719D01*
X78681170Y-73135132D01*
X78690349Y-73154538D01*
X78697581Y-73174750D01*
X78702797Y-73195574D01*
X78705947Y-73216809D01*
X78707000Y-73238250D01*
X78707000Y-73675750D01*
X78705947Y-73697191D01*
X78702797Y-73718426D01*
X78697581Y-73739250D01*
X78690349Y-73759462D01*
X78681170Y-73778868D01*
X78670134Y-73797281D01*
X78657346Y-73814524D01*
X78642930Y-73830430D01*
X78627024Y-73844846D01*
X78609781Y-73857634D01*
X78591368Y-73868670D01*
X78571962Y-73877849D01*
X78551750Y-73885081D01*
X78530926Y-73890297D01*
X78509691Y-73893447D01*
X78488250Y-73894500D01*
X77975750Y-73894500D01*
X77954309Y-73893447D01*
X77933074Y-73890297D01*
X77912250Y-73885081D01*
X77892038Y-73877849D01*
X77872632Y-73868670D01*
X77854219Y-73857634D01*
X77836976Y-73844846D01*
X77821070Y-73830430D01*
X77806654Y-73814524D01*
X77793866Y-73797281D01*
X77782830Y-73778868D01*
X77773651Y-73759462D01*
X77766419Y-73739250D01*
X77761203Y-73718426D01*
X77758053Y-73697191D01*
X77757000Y-73675750D01*
X77757000Y-73238250D01*
X77758053Y-73216809D01*
X77761203Y-73195574D01*
X77766419Y-73174750D01*
X77773651Y-73154538D01*
X77782830Y-73135132D01*
X77793866Y-73116719D01*
X77806654Y-73099476D01*
X77821070Y-73083570D01*
X77836976Y-73069154D01*
X77854219Y-73056366D01*
X77872632Y-73045330D01*
X77892038Y-73036151D01*
X77912250Y-73028919D01*
X77933074Y-73023703D01*
X77954309Y-73020553D01*
X77975750Y-73019500D01*
X78488250Y-73019500D01*
X78509691Y-73020553D01*
G37*
G36*
X67270691Y-76488053D02*
G01*
X67291926Y-76491203D01*
X67312750Y-76496419D01*
X67332962Y-76503651D01*
X67352368Y-76512830D01*
X67370781Y-76523866D01*
X67388024Y-76536654D01*
X67403930Y-76551070D01*
X67418346Y-76566976D01*
X67431134Y-76584219D01*
X67442170Y-76602632D01*
X67451349Y-76622038D01*
X67458581Y-76642250D01*
X67463797Y-76663074D01*
X67466947Y-76684309D01*
X67468000Y-76705750D01*
X67468000Y-77218250D01*
X67466947Y-77239691D01*
X67463797Y-77260926D01*
X67458581Y-77281750D01*
X67451349Y-77301962D01*
X67442170Y-77321368D01*
X67431134Y-77339781D01*
X67418346Y-77357024D01*
X67403930Y-77372930D01*
X67388024Y-77387346D01*
X67370781Y-77400134D01*
X67352368Y-77411170D01*
X67332962Y-77420349D01*
X67312750Y-77427581D01*
X67291926Y-77432797D01*
X67270691Y-77435947D01*
X67249250Y-77437000D01*
X66811750Y-77437000D01*
X66790309Y-77435947D01*
X66769074Y-77432797D01*
X66748250Y-77427581D01*
X66728038Y-77420349D01*
X66708632Y-77411170D01*
X66690219Y-77400134D01*
X66672976Y-77387346D01*
X66657070Y-77372930D01*
X66642654Y-77357024D01*
X66629866Y-77339781D01*
X66618830Y-77321368D01*
X66609651Y-77301962D01*
X66602419Y-77281750D01*
X66597203Y-77260926D01*
X66594053Y-77239691D01*
X66593000Y-77218250D01*
X66593000Y-76705750D01*
X66594053Y-76684309D01*
X66597203Y-76663074D01*
X66602419Y-76642250D01*
X66609651Y-76622038D01*
X66618830Y-76602632D01*
X66629866Y-76584219D01*
X66642654Y-76566976D01*
X66657070Y-76551070D01*
X66672976Y-76536654D01*
X66690219Y-76523866D01*
X66708632Y-76512830D01*
X66728038Y-76503651D01*
X66748250Y-76496419D01*
X66769074Y-76491203D01*
X66790309Y-76488053D01*
X66811750Y-76487000D01*
X67249250Y-76487000D01*
X67270691Y-76488053D01*
G37*
G36*
X68845691Y-76488053D02*
G01*
X68866926Y-76491203D01*
X68887750Y-76496419D01*
X68907962Y-76503651D01*
X68927368Y-76512830D01*
X68945781Y-76523866D01*
X68963024Y-76536654D01*
X68978930Y-76551070D01*
X68993346Y-76566976D01*
X69006134Y-76584219D01*
X69017170Y-76602632D01*
X69026349Y-76622038D01*
X69033581Y-76642250D01*
X69038797Y-76663074D01*
X69041947Y-76684309D01*
X69043000Y-76705750D01*
X69043000Y-77218250D01*
X69041947Y-77239691D01*
X69038797Y-77260926D01*
X69033581Y-77281750D01*
X69026349Y-77301962D01*
X69017170Y-77321368D01*
X69006134Y-77339781D01*
X68993346Y-77357024D01*
X68978930Y-77372930D01*
X68963024Y-77387346D01*
X68945781Y-77400134D01*
X68927368Y-77411170D01*
X68907962Y-77420349D01*
X68887750Y-77427581D01*
X68866926Y-77432797D01*
X68845691Y-77435947D01*
X68824250Y-77437000D01*
X68386750Y-77437000D01*
X68365309Y-77435947D01*
X68344074Y-77432797D01*
X68323250Y-77427581D01*
X68303038Y-77420349D01*
X68283632Y-77411170D01*
X68265219Y-77400134D01*
X68247976Y-77387346D01*
X68232070Y-77372930D01*
X68217654Y-77357024D01*
X68204866Y-77339781D01*
X68193830Y-77321368D01*
X68184651Y-77301962D01*
X68177419Y-77281750D01*
X68172203Y-77260926D01*
X68169053Y-77239691D01*
X68168000Y-77218250D01*
X68168000Y-76705750D01*
X68169053Y-76684309D01*
X68172203Y-76663074D01*
X68177419Y-76642250D01*
X68184651Y-76622038D01*
X68193830Y-76602632D01*
X68204866Y-76584219D01*
X68217654Y-76566976D01*
X68232070Y-76551070D01*
X68247976Y-76536654D01*
X68265219Y-76523866D01*
X68283632Y-76512830D01*
X68303038Y-76503651D01*
X68323250Y-76496419D01*
X68344074Y-76491203D01*
X68365309Y-76488053D01*
X68386750Y-76487000D01*
X68824250Y-76487000D01*
X68845691Y-76488053D01*
G37*
G36*
X80795691Y-66365553D02*
G01*
X80816926Y-66368703D01*
X80837750Y-66373919D01*
X80857962Y-66381151D01*
X80877368Y-66390330D01*
X80895781Y-66401366D01*
X80913024Y-66414154D01*
X80928930Y-66428570D01*
X80943346Y-66444476D01*
X80956134Y-66461719D01*
X80967170Y-66480132D01*
X80976349Y-66499538D01*
X80983581Y-66519750D01*
X80988797Y-66540574D01*
X80991947Y-66561809D01*
X80993000Y-66583250D01*
X80993000Y-67020750D01*
X80991947Y-67042191D01*
X80988797Y-67063426D01*
X80983581Y-67084250D01*
X80976349Y-67104462D01*
X80967170Y-67123868D01*
X80956134Y-67142281D01*
X80943346Y-67159524D01*
X80928930Y-67175430D01*
X80913024Y-67189846D01*
X80895781Y-67202634D01*
X80877368Y-67213670D01*
X80857962Y-67222849D01*
X80837750Y-67230081D01*
X80816926Y-67235297D01*
X80795691Y-67238447D01*
X80774250Y-67239500D01*
X80261750Y-67239500D01*
X80240309Y-67238447D01*
X80219074Y-67235297D01*
X80198250Y-67230081D01*
X80178038Y-67222849D01*
X80158632Y-67213670D01*
X80140219Y-67202634D01*
X80122976Y-67189846D01*
X80107070Y-67175430D01*
X80092654Y-67159524D01*
X80079866Y-67142281D01*
X80068830Y-67123868D01*
X80059651Y-67104462D01*
X80052419Y-67084250D01*
X80047203Y-67063426D01*
X80044053Y-67042191D01*
X80043000Y-67020750D01*
X80043000Y-66583250D01*
X80044053Y-66561809D01*
X80047203Y-66540574D01*
X80052419Y-66519750D01*
X80059651Y-66499538D01*
X80068830Y-66480132D01*
X80079866Y-66461719D01*
X80092654Y-66444476D01*
X80107070Y-66428570D01*
X80122976Y-66414154D01*
X80140219Y-66401366D01*
X80158632Y-66390330D01*
X80178038Y-66381151D01*
X80198250Y-66373919D01*
X80219074Y-66368703D01*
X80240309Y-66365553D01*
X80261750Y-66364500D01*
X80774250Y-66364500D01*
X80795691Y-66365553D01*
G37*
G36*
X80795691Y-67940553D02*
G01*
X80816926Y-67943703D01*
X80837750Y-67948919D01*
X80857962Y-67956151D01*
X80877368Y-67965330D01*
X80895781Y-67976366D01*
X80913024Y-67989154D01*
X80928930Y-68003570D01*
X80943346Y-68019476D01*
X80956134Y-68036719D01*
X80967170Y-68055132D01*
X80976349Y-68074538D01*
X80983581Y-68094750D01*
X80988797Y-68115574D01*
X80991947Y-68136809D01*
X80993000Y-68158250D01*
X80993000Y-68595750D01*
X80991947Y-68617191D01*
X80988797Y-68638426D01*
X80983581Y-68659250D01*
X80976349Y-68679462D01*
X80967170Y-68698868D01*
X80956134Y-68717281D01*
X80943346Y-68734524D01*
X80928930Y-68750430D01*
X80913024Y-68764846D01*
X80895781Y-68777634D01*
X80877368Y-68788670D01*
X80857962Y-68797849D01*
X80837750Y-68805081D01*
X80816926Y-68810297D01*
X80795691Y-68813447D01*
X80774250Y-68814500D01*
X80261750Y-68814500D01*
X80240309Y-68813447D01*
X80219074Y-68810297D01*
X80198250Y-68805081D01*
X80178038Y-68797849D01*
X80158632Y-68788670D01*
X80140219Y-68777634D01*
X80122976Y-68764846D01*
X80107070Y-68750430D01*
X80092654Y-68734524D01*
X80079866Y-68717281D01*
X80068830Y-68698868D01*
X80059651Y-68679462D01*
X80052419Y-68659250D01*
X80047203Y-68638426D01*
X80044053Y-68617191D01*
X80043000Y-68595750D01*
X80043000Y-68158250D01*
X80044053Y-68136809D01*
X80047203Y-68115574D01*
X80052419Y-68094750D01*
X80059651Y-68074538D01*
X80068830Y-68055132D01*
X80079866Y-68036719D01*
X80092654Y-68019476D01*
X80107070Y-68003570D01*
X80122976Y-67989154D01*
X80140219Y-67976366D01*
X80158632Y-67965330D01*
X80178038Y-67956151D01*
X80198250Y-67948919D01*
X80219074Y-67943703D01*
X80240309Y-67940553D01*
X80261750Y-67939500D01*
X80774250Y-67939500D01*
X80795691Y-67940553D01*
G37*
G36*
X67587691Y-49652553D02*
G01*
X67608926Y-49655703D01*
X67629750Y-49660919D01*
X67649962Y-49668151D01*
X67669368Y-49677330D01*
X67687781Y-49688366D01*
X67705024Y-49701154D01*
X67720930Y-49715570D01*
X67735346Y-49731476D01*
X67748134Y-49748719D01*
X67759170Y-49767132D01*
X67768349Y-49786538D01*
X67775581Y-49806750D01*
X67780797Y-49827574D01*
X67783947Y-49848809D01*
X67785000Y-49870250D01*
X67785000Y-50307750D01*
X67783947Y-50329191D01*
X67780797Y-50350426D01*
X67775581Y-50371250D01*
X67768349Y-50391462D01*
X67759170Y-50410868D01*
X67748134Y-50429281D01*
X67735346Y-50446524D01*
X67720930Y-50462430D01*
X67705024Y-50476846D01*
X67687781Y-50489634D01*
X67669368Y-50500670D01*
X67649962Y-50509849D01*
X67629750Y-50517081D01*
X67608926Y-50522297D01*
X67587691Y-50525447D01*
X67566250Y-50526500D01*
X67053750Y-50526500D01*
X67032309Y-50525447D01*
X67011074Y-50522297D01*
X66990250Y-50517081D01*
X66970038Y-50509849D01*
X66950632Y-50500670D01*
X66932219Y-50489634D01*
X66914976Y-50476846D01*
X66899070Y-50462430D01*
X66884654Y-50446524D01*
X66871866Y-50429281D01*
X66860830Y-50410868D01*
X66851651Y-50391462D01*
X66844419Y-50371250D01*
X66839203Y-50350426D01*
X66836053Y-50329191D01*
X66835000Y-50307750D01*
X66835000Y-49870250D01*
X66836053Y-49848809D01*
X66839203Y-49827574D01*
X66844419Y-49806750D01*
X66851651Y-49786538D01*
X66860830Y-49767132D01*
X66871866Y-49748719D01*
X66884654Y-49731476D01*
X66899070Y-49715570D01*
X66914976Y-49701154D01*
X66932219Y-49688366D01*
X66950632Y-49677330D01*
X66970038Y-49668151D01*
X66990250Y-49660919D01*
X67011074Y-49655703D01*
X67032309Y-49652553D01*
X67053750Y-49651500D01*
X67566250Y-49651500D01*
X67587691Y-49652553D01*
G37*
G36*
X67587691Y-48077553D02*
G01*
X67608926Y-48080703D01*
X67629750Y-48085919D01*
X67649962Y-48093151D01*
X67669368Y-48102330D01*
X67687781Y-48113366D01*
X67705024Y-48126154D01*
X67720930Y-48140570D01*
X67735346Y-48156476D01*
X67748134Y-48173719D01*
X67759170Y-48192132D01*
X67768349Y-48211538D01*
X67775581Y-48231750D01*
X67780797Y-48252574D01*
X67783947Y-48273809D01*
X67785000Y-48295250D01*
X67785000Y-48732750D01*
X67783947Y-48754191D01*
X67780797Y-48775426D01*
X67775581Y-48796250D01*
X67768349Y-48816462D01*
X67759170Y-48835868D01*
X67748134Y-48854281D01*
X67735346Y-48871524D01*
X67720930Y-48887430D01*
X67705024Y-48901846D01*
X67687781Y-48914634D01*
X67669368Y-48925670D01*
X67649962Y-48934849D01*
X67629750Y-48942081D01*
X67608926Y-48947297D01*
X67587691Y-48950447D01*
X67566250Y-48951500D01*
X67053750Y-48951500D01*
X67032309Y-48950447D01*
X67011074Y-48947297D01*
X66990250Y-48942081D01*
X66970038Y-48934849D01*
X66950632Y-48925670D01*
X66932219Y-48914634D01*
X66914976Y-48901846D01*
X66899070Y-48887430D01*
X66884654Y-48871524D01*
X66871866Y-48854281D01*
X66860830Y-48835868D01*
X66851651Y-48816462D01*
X66844419Y-48796250D01*
X66839203Y-48775426D01*
X66836053Y-48754191D01*
X66835000Y-48732750D01*
X66835000Y-48295250D01*
X66836053Y-48273809D01*
X66839203Y-48252574D01*
X66844419Y-48231750D01*
X66851651Y-48211538D01*
X66860830Y-48192132D01*
X66871866Y-48173719D01*
X66884654Y-48156476D01*
X66899070Y-48140570D01*
X66914976Y-48126154D01*
X66932219Y-48113366D01*
X66950632Y-48102330D01*
X66970038Y-48093151D01*
X66990250Y-48085919D01*
X67011074Y-48080703D01*
X67032309Y-48077553D01*
X67053750Y-48076500D01*
X67566250Y-48076500D01*
X67587691Y-48077553D01*
G37*
G36*
X67587691Y-57526553D02*
G01*
X67608926Y-57529703D01*
X67629750Y-57534919D01*
X67649962Y-57542151D01*
X67669368Y-57551330D01*
X67687781Y-57562366D01*
X67705024Y-57575154D01*
X67720930Y-57589570D01*
X67735346Y-57605476D01*
X67748134Y-57622719D01*
X67759170Y-57641132D01*
X67768349Y-57660538D01*
X67775581Y-57680750D01*
X67780797Y-57701574D01*
X67783947Y-57722809D01*
X67785000Y-57744250D01*
X67785000Y-58181750D01*
X67783947Y-58203191D01*
X67780797Y-58224426D01*
X67775581Y-58245250D01*
X67768349Y-58265462D01*
X67759170Y-58284868D01*
X67748134Y-58303281D01*
X67735346Y-58320524D01*
X67720930Y-58336430D01*
X67705024Y-58350846D01*
X67687781Y-58363634D01*
X67669368Y-58374670D01*
X67649962Y-58383849D01*
X67629750Y-58391081D01*
X67608926Y-58396297D01*
X67587691Y-58399447D01*
X67566250Y-58400500D01*
X67053750Y-58400500D01*
X67032309Y-58399447D01*
X67011074Y-58396297D01*
X66990250Y-58391081D01*
X66970038Y-58383849D01*
X66950632Y-58374670D01*
X66932219Y-58363634D01*
X66914976Y-58350846D01*
X66899070Y-58336430D01*
X66884654Y-58320524D01*
X66871866Y-58303281D01*
X66860830Y-58284868D01*
X66851651Y-58265462D01*
X66844419Y-58245250D01*
X66839203Y-58224426D01*
X66836053Y-58203191D01*
X66835000Y-58181750D01*
X66835000Y-57744250D01*
X66836053Y-57722809D01*
X66839203Y-57701574D01*
X66844419Y-57680750D01*
X66851651Y-57660538D01*
X66860830Y-57641132D01*
X66871866Y-57622719D01*
X66884654Y-57605476D01*
X66899070Y-57589570D01*
X66914976Y-57575154D01*
X66932219Y-57562366D01*
X66950632Y-57551330D01*
X66970038Y-57542151D01*
X66990250Y-57534919D01*
X67011074Y-57529703D01*
X67032309Y-57526553D01*
X67053750Y-57525500D01*
X67566250Y-57525500D01*
X67587691Y-57526553D01*
G37*
G36*
X67587691Y-55951553D02*
G01*
X67608926Y-55954703D01*
X67629750Y-55959919D01*
X67649962Y-55967151D01*
X67669368Y-55976330D01*
X67687781Y-55987366D01*
X67705024Y-56000154D01*
X67720930Y-56014570D01*
X67735346Y-56030476D01*
X67748134Y-56047719D01*
X67759170Y-56066132D01*
X67768349Y-56085538D01*
X67775581Y-56105750D01*
X67780797Y-56126574D01*
X67783947Y-56147809D01*
X67785000Y-56169250D01*
X67785000Y-56606750D01*
X67783947Y-56628191D01*
X67780797Y-56649426D01*
X67775581Y-56670250D01*
X67768349Y-56690462D01*
X67759170Y-56709868D01*
X67748134Y-56728281D01*
X67735346Y-56745524D01*
X67720930Y-56761430D01*
X67705024Y-56775846D01*
X67687781Y-56788634D01*
X67669368Y-56799670D01*
X67649962Y-56808849D01*
X67629750Y-56816081D01*
X67608926Y-56821297D01*
X67587691Y-56824447D01*
X67566250Y-56825500D01*
X67053750Y-56825500D01*
X67032309Y-56824447D01*
X67011074Y-56821297D01*
X66990250Y-56816081D01*
X66970038Y-56808849D01*
X66950632Y-56799670D01*
X66932219Y-56788634D01*
X66914976Y-56775846D01*
X66899070Y-56761430D01*
X66884654Y-56745524D01*
X66871866Y-56728281D01*
X66860830Y-56709868D01*
X66851651Y-56690462D01*
X66844419Y-56670250D01*
X66839203Y-56649426D01*
X66836053Y-56628191D01*
X66835000Y-56606750D01*
X66835000Y-56169250D01*
X66836053Y-56147809D01*
X66839203Y-56126574D01*
X66844419Y-56105750D01*
X66851651Y-56085538D01*
X66860830Y-56066132D01*
X66871866Y-56047719D01*
X66884654Y-56030476D01*
X66899070Y-56014570D01*
X66914976Y-56000154D01*
X66932219Y-55987366D01*
X66950632Y-55976330D01*
X66970038Y-55967151D01*
X66990250Y-55959919D01*
X67011074Y-55954703D01*
X67032309Y-55951553D01*
X67053750Y-55950500D01*
X67566250Y-55950500D01*
X67587691Y-55951553D01*
G37*
G36*
X62978191Y-83854053D02*
G01*
X62999426Y-83857203D01*
X63020250Y-83862419D01*
X63040462Y-83869651D01*
X63059868Y-83878830D01*
X63078281Y-83889866D01*
X63095524Y-83902654D01*
X63111430Y-83917070D01*
X63125846Y-83932976D01*
X63138634Y-83950219D01*
X63149670Y-83968632D01*
X63158849Y-83988038D01*
X63166081Y-84008250D01*
X63171297Y-84029074D01*
X63174447Y-84050309D01*
X63175500Y-84071750D01*
X63175500Y-84584250D01*
X63174447Y-84605691D01*
X63171297Y-84626926D01*
X63166081Y-84647750D01*
X63158849Y-84667962D01*
X63149670Y-84687368D01*
X63138634Y-84705781D01*
X63125846Y-84723024D01*
X63111430Y-84738930D01*
X63095524Y-84753346D01*
X63078281Y-84766134D01*
X63059868Y-84777170D01*
X63040462Y-84786349D01*
X63020250Y-84793581D01*
X62999426Y-84798797D01*
X62978191Y-84801947D01*
X62956750Y-84803000D01*
X62519250Y-84803000D01*
X62497809Y-84801947D01*
X62476574Y-84798797D01*
X62455750Y-84793581D01*
X62435538Y-84786349D01*
X62416132Y-84777170D01*
X62397719Y-84766134D01*
X62380476Y-84753346D01*
X62364570Y-84738930D01*
X62350154Y-84723024D01*
X62337366Y-84705781D01*
X62326330Y-84687368D01*
X62317151Y-84667962D01*
X62309919Y-84647750D01*
X62304703Y-84626926D01*
X62301553Y-84605691D01*
X62300500Y-84584250D01*
X62300500Y-84071750D01*
X62301553Y-84050309D01*
X62304703Y-84029074D01*
X62309919Y-84008250D01*
X62317151Y-83988038D01*
X62326330Y-83968632D01*
X62337366Y-83950219D01*
X62350154Y-83932976D01*
X62364570Y-83917070D01*
X62380476Y-83902654D01*
X62397719Y-83889866D01*
X62416132Y-83878830D01*
X62435538Y-83869651D01*
X62455750Y-83862419D01*
X62476574Y-83857203D01*
X62497809Y-83854053D01*
X62519250Y-83853000D01*
X62956750Y-83853000D01*
X62978191Y-83854053D01*
G37*
G36*
X64553191Y-83854053D02*
G01*
X64574426Y-83857203D01*
X64595250Y-83862419D01*
X64615462Y-83869651D01*
X64634868Y-83878830D01*
X64653281Y-83889866D01*
X64670524Y-83902654D01*
X64686430Y-83917070D01*
X64700846Y-83932976D01*
X64713634Y-83950219D01*
X64724670Y-83968632D01*
X64733849Y-83988038D01*
X64741081Y-84008250D01*
X64746297Y-84029074D01*
X64749447Y-84050309D01*
X64750500Y-84071750D01*
X64750500Y-84584250D01*
X64749447Y-84605691D01*
X64746297Y-84626926D01*
X64741081Y-84647750D01*
X64733849Y-84667962D01*
X64724670Y-84687368D01*
X64713634Y-84705781D01*
X64700846Y-84723024D01*
X64686430Y-84738930D01*
X64670524Y-84753346D01*
X64653281Y-84766134D01*
X64634868Y-84777170D01*
X64615462Y-84786349D01*
X64595250Y-84793581D01*
X64574426Y-84798797D01*
X64553191Y-84801947D01*
X64531750Y-84803000D01*
X64094250Y-84803000D01*
X64072809Y-84801947D01*
X64051574Y-84798797D01*
X64030750Y-84793581D01*
X64010538Y-84786349D01*
X63991132Y-84777170D01*
X63972719Y-84766134D01*
X63955476Y-84753346D01*
X63939570Y-84738930D01*
X63925154Y-84723024D01*
X63912366Y-84705781D01*
X63901330Y-84687368D01*
X63892151Y-84667962D01*
X63884919Y-84647750D01*
X63879703Y-84626926D01*
X63876553Y-84605691D01*
X63875500Y-84584250D01*
X63875500Y-84071750D01*
X63876553Y-84050309D01*
X63879703Y-84029074D01*
X63884919Y-84008250D01*
X63892151Y-83988038D01*
X63901330Y-83968632D01*
X63912366Y-83950219D01*
X63925154Y-83932976D01*
X63939570Y-83917070D01*
X63955476Y-83902654D01*
X63972719Y-83889866D01*
X63991132Y-83878830D01*
X64010538Y-83869651D01*
X64030750Y-83862419D01*
X64051574Y-83857203D01*
X64072809Y-83854053D01*
X64094250Y-83853000D01*
X64531750Y-83853000D01*
X64553191Y-83854053D01*
G37*
G36*
X67550191Y-62264053D02*
G01*
X67571426Y-62267203D01*
X67592250Y-62272419D01*
X67612462Y-62279651D01*
X67631868Y-62288830D01*
X67650281Y-62299866D01*
X67667524Y-62312654D01*
X67683430Y-62327070D01*
X67697846Y-62342976D01*
X67710634Y-62360219D01*
X67721670Y-62378632D01*
X67730849Y-62398038D01*
X67738081Y-62418250D01*
X67743297Y-62439074D01*
X67746447Y-62460309D01*
X67747500Y-62481750D01*
X67747500Y-62994250D01*
X67746447Y-63015691D01*
X67743297Y-63036926D01*
X67738081Y-63057750D01*
X67730849Y-63077962D01*
X67721670Y-63097368D01*
X67710634Y-63115781D01*
X67697846Y-63133024D01*
X67683430Y-63148930D01*
X67667524Y-63163346D01*
X67650281Y-63176134D01*
X67631868Y-63187170D01*
X67612462Y-63196349D01*
X67592250Y-63203581D01*
X67571426Y-63208797D01*
X67550191Y-63211947D01*
X67528750Y-63213000D01*
X67091250Y-63213000D01*
X67069809Y-63211947D01*
X67048574Y-63208797D01*
X67027750Y-63203581D01*
X67007538Y-63196349D01*
X66988132Y-63187170D01*
X66969719Y-63176134D01*
X66952476Y-63163346D01*
X66936570Y-63148930D01*
X66922154Y-63133024D01*
X66909366Y-63115781D01*
X66898330Y-63097368D01*
X66889151Y-63077962D01*
X66881919Y-63057750D01*
X66876703Y-63036926D01*
X66873553Y-63015691D01*
X66872500Y-62994250D01*
X66872500Y-62481750D01*
X66873553Y-62460309D01*
X66876703Y-62439074D01*
X66881919Y-62418250D01*
X66889151Y-62398038D01*
X66898330Y-62378632D01*
X66909366Y-62360219D01*
X66922154Y-62342976D01*
X66936570Y-62327070D01*
X66952476Y-62312654D01*
X66969719Y-62299866D01*
X66988132Y-62288830D01*
X67007538Y-62279651D01*
X67027750Y-62272419D01*
X67048574Y-62267203D01*
X67069809Y-62264053D01*
X67091250Y-62263000D01*
X67528750Y-62263000D01*
X67550191Y-62264053D01*
G37*
G36*
X69125191Y-62264053D02*
G01*
X69146426Y-62267203D01*
X69167250Y-62272419D01*
X69187462Y-62279651D01*
X69206868Y-62288830D01*
X69225281Y-62299866D01*
X69242524Y-62312654D01*
X69258430Y-62327070D01*
X69272846Y-62342976D01*
X69285634Y-62360219D01*
X69296670Y-62378632D01*
X69305849Y-62398038D01*
X69313081Y-62418250D01*
X69318297Y-62439074D01*
X69321447Y-62460309D01*
X69322500Y-62481750D01*
X69322500Y-62994250D01*
X69321447Y-63015691D01*
X69318297Y-63036926D01*
X69313081Y-63057750D01*
X69305849Y-63077962D01*
X69296670Y-63097368D01*
X69285634Y-63115781D01*
X69272846Y-63133024D01*
X69258430Y-63148930D01*
X69242524Y-63163346D01*
X69225281Y-63176134D01*
X69206868Y-63187170D01*
X69187462Y-63196349D01*
X69167250Y-63203581D01*
X69146426Y-63208797D01*
X69125191Y-63211947D01*
X69103750Y-63213000D01*
X68666250Y-63213000D01*
X68644809Y-63211947D01*
X68623574Y-63208797D01*
X68602750Y-63203581D01*
X68582538Y-63196349D01*
X68563132Y-63187170D01*
X68544719Y-63176134D01*
X68527476Y-63163346D01*
X68511570Y-63148930D01*
X68497154Y-63133024D01*
X68484366Y-63115781D01*
X68473330Y-63097368D01*
X68464151Y-63077962D01*
X68456919Y-63057750D01*
X68451703Y-63036926D01*
X68448553Y-63015691D01*
X68447500Y-62994250D01*
X68447500Y-62481750D01*
X68448553Y-62460309D01*
X68451703Y-62439074D01*
X68456919Y-62418250D01*
X68464151Y-62398038D01*
X68473330Y-62378632D01*
X68484366Y-62360219D01*
X68497154Y-62342976D01*
X68511570Y-62327070D01*
X68527476Y-62312654D01*
X68544719Y-62299866D01*
X68563132Y-62288830D01*
X68582538Y-62279651D01*
X68602750Y-62272419D01*
X68623574Y-62267203D01*
X68644809Y-62264053D01*
X68666250Y-62263000D01*
X69103750Y-62263000D01*
X69125191Y-62264053D01*
G37*
G36*
X73138191Y-62264053D02*
G01*
X73159426Y-62267203D01*
X73180250Y-62272419D01*
X73200462Y-62279651D01*
X73219868Y-62288830D01*
X73238281Y-62299866D01*
X73255524Y-62312654D01*
X73271430Y-62327070D01*
X73285846Y-62342976D01*
X73298634Y-62360219D01*
X73309670Y-62378632D01*
X73318849Y-62398038D01*
X73326081Y-62418250D01*
X73331297Y-62439074D01*
X73334447Y-62460309D01*
X73335500Y-62481750D01*
X73335500Y-62994250D01*
X73334447Y-63015691D01*
X73331297Y-63036926D01*
X73326081Y-63057750D01*
X73318849Y-63077962D01*
X73309670Y-63097368D01*
X73298634Y-63115781D01*
X73285846Y-63133024D01*
X73271430Y-63148930D01*
X73255524Y-63163346D01*
X73238281Y-63176134D01*
X73219868Y-63187170D01*
X73200462Y-63196349D01*
X73180250Y-63203581D01*
X73159426Y-63208797D01*
X73138191Y-63211947D01*
X73116750Y-63213000D01*
X72679250Y-63213000D01*
X72657809Y-63211947D01*
X72636574Y-63208797D01*
X72615750Y-63203581D01*
X72595538Y-63196349D01*
X72576132Y-63187170D01*
X72557719Y-63176134D01*
X72540476Y-63163346D01*
X72524570Y-63148930D01*
X72510154Y-63133024D01*
X72497366Y-63115781D01*
X72486330Y-63097368D01*
X72477151Y-63077962D01*
X72469919Y-63057750D01*
X72464703Y-63036926D01*
X72461553Y-63015691D01*
X72460500Y-62994250D01*
X72460500Y-62481750D01*
X72461553Y-62460309D01*
X72464703Y-62439074D01*
X72469919Y-62418250D01*
X72477151Y-62398038D01*
X72486330Y-62378632D01*
X72497366Y-62360219D01*
X72510154Y-62342976D01*
X72524570Y-62327070D01*
X72540476Y-62312654D01*
X72557719Y-62299866D01*
X72576132Y-62288830D01*
X72595538Y-62279651D01*
X72615750Y-62272419D01*
X72636574Y-62267203D01*
X72657809Y-62264053D01*
X72679250Y-62263000D01*
X73116750Y-62263000D01*
X73138191Y-62264053D01*
G37*
G36*
X71563191Y-62264053D02*
G01*
X71584426Y-62267203D01*
X71605250Y-62272419D01*
X71625462Y-62279651D01*
X71644868Y-62288830D01*
X71663281Y-62299866D01*
X71680524Y-62312654D01*
X71696430Y-62327070D01*
X71710846Y-62342976D01*
X71723634Y-62360219D01*
X71734670Y-62378632D01*
X71743849Y-62398038D01*
X71751081Y-62418250D01*
X71756297Y-62439074D01*
X71759447Y-62460309D01*
X71760500Y-62481750D01*
X71760500Y-62994250D01*
X71759447Y-63015691D01*
X71756297Y-63036926D01*
X71751081Y-63057750D01*
X71743849Y-63077962D01*
X71734670Y-63097368D01*
X71723634Y-63115781D01*
X71710846Y-63133024D01*
X71696430Y-63148930D01*
X71680524Y-63163346D01*
X71663281Y-63176134D01*
X71644868Y-63187170D01*
X71625462Y-63196349D01*
X71605250Y-63203581D01*
X71584426Y-63208797D01*
X71563191Y-63211947D01*
X71541750Y-63213000D01*
X71104250Y-63213000D01*
X71082809Y-63211947D01*
X71061574Y-63208797D01*
X71040750Y-63203581D01*
X71020538Y-63196349D01*
X71001132Y-63187170D01*
X70982719Y-63176134D01*
X70965476Y-63163346D01*
X70949570Y-63148930D01*
X70935154Y-63133024D01*
X70922366Y-63115781D01*
X70911330Y-63097368D01*
X70902151Y-63077962D01*
X70894919Y-63057750D01*
X70889703Y-63036926D01*
X70886553Y-63015691D01*
X70885500Y-62994250D01*
X70885500Y-62481750D01*
X70886553Y-62460309D01*
X70889703Y-62439074D01*
X70894919Y-62418250D01*
X70902151Y-62398038D01*
X70911330Y-62378632D01*
X70922366Y-62360219D01*
X70935154Y-62342976D01*
X70949570Y-62327070D01*
X70965476Y-62312654D01*
X70982719Y-62299866D01*
X71001132Y-62288830D01*
X71020538Y-62279651D01*
X71040750Y-62272419D01*
X71061574Y-62267203D01*
X71082809Y-62264053D01*
X71104250Y-62263000D01*
X71541750Y-62263000D01*
X71563191Y-62264053D01*
G37*
D13*
X87630000Y-56007000D03*
D14*
X84430000Y-56007000D03*
X90830000Y-56007000D03*
X84430000Y-51181000D03*
X90830000Y-51181000D03*
D13*
X87630000Y-51181000D03*
D10*
G36*
X59459691Y-64333553D02*
G01*
X59480926Y-64336703D01*
X59501750Y-64341919D01*
X59521962Y-64349151D01*
X59541368Y-64358330D01*
X59559781Y-64369366D01*
X59577024Y-64382154D01*
X59592930Y-64396570D01*
X59607346Y-64412476D01*
X59620134Y-64429719D01*
X59631170Y-64448132D01*
X59640349Y-64467538D01*
X59647581Y-64487750D01*
X59652797Y-64508574D01*
X59655947Y-64529809D01*
X59657000Y-64551250D01*
X59657000Y-64988750D01*
X59655947Y-65010191D01*
X59652797Y-65031426D01*
X59647581Y-65052250D01*
X59640349Y-65072462D01*
X59631170Y-65091868D01*
X59620134Y-65110281D01*
X59607346Y-65127524D01*
X59592930Y-65143430D01*
X59577024Y-65157846D01*
X59559781Y-65170634D01*
X59541368Y-65181670D01*
X59521962Y-65190849D01*
X59501750Y-65198081D01*
X59480926Y-65203297D01*
X59459691Y-65206447D01*
X59438250Y-65207500D01*
X58925750Y-65207500D01*
X58904309Y-65206447D01*
X58883074Y-65203297D01*
X58862250Y-65198081D01*
X58842038Y-65190849D01*
X58822632Y-65181670D01*
X58804219Y-65170634D01*
X58786976Y-65157846D01*
X58771070Y-65143430D01*
X58756654Y-65127524D01*
X58743866Y-65110281D01*
X58732830Y-65091868D01*
X58723651Y-65072462D01*
X58716419Y-65052250D01*
X58711203Y-65031426D01*
X58708053Y-65010191D01*
X58707000Y-64988750D01*
X58707000Y-64551250D01*
X58708053Y-64529809D01*
X58711203Y-64508574D01*
X58716419Y-64487750D01*
X58723651Y-64467538D01*
X58732830Y-64448132D01*
X58743866Y-64429719D01*
X58756654Y-64412476D01*
X58771070Y-64396570D01*
X58786976Y-64382154D01*
X58804219Y-64369366D01*
X58822632Y-64358330D01*
X58842038Y-64349151D01*
X58862250Y-64341919D01*
X58883074Y-64336703D01*
X58904309Y-64333553D01*
X58925750Y-64332500D01*
X59438250Y-64332500D01*
X59459691Y-64333553D01*
G37*
G36*
X59459691Y-65908553D02*
G01*
X59480926Y-65911703D01*
X59501750Y-65916919D01*
X59521962Y-65924151D01*
X59541368Y-65933330D01*
X59559781Y-65944366D01*
X59577024Y-65957154D01*
X59592930Y-65971570D01*
X59607346Y-65987476D01*
X59620134Y-66004719D01*
X59631170Y-66023132D01*
X59640349Y-66042538D01*
X59647581Y-66062750D01*
X59652797Y-66083574D01*
X59655947Y-66104809D01*
X59657000Y-66126250D01*
X59657000Y-66563750D01*
X59655947Y-66585191D01*
X59652797Y-66606426D01*
X59647581Y-66627250D01*
X59640349Y-66647462D01*
X59631170Y-66666868D01*
X59620134Y-66685281D01*
X59607346Y-66702524D01*
X59592930Y-66718430D01*
X59577024Y-66732846D01*
X59559781Y-66745634D01*
X59541368Y-66756670D01*
X59521962Y-66765849D01*
X59501750Y-66773081D01*
X59480926Y-66778297D01*
X59459691Y-66781447D01*
X59438250Y-66782500D01*
X58925750Y-66782500D01*
X58904309Y-66781447D01*
X58883074Y-66778297D01*
X58862250Y-66773081D01*
X58842038Y-66765849D01*
X58822632Y-66756670D01*
X58804219Y-66745634D01*
X58786976Y-66732846D01*
X58771070Y-66718430D01*
X58756654Y-66702524D01*
X58743866Y-66685281D01*
X58732830Y-66666868D01*
X58723651Y-66647462D01*
X58716419Y-66627250D01*
X58711203Y-66606426D01*
X58708053Y-66585191D01*
X58707000Y-66563750D01*
X58707000Y-66126250D01*
X58708053Y-66104809D01*
X58711203Y-66083574D01*
X58716419Y-66062750D01*
X58723651Y-66042538D01*
X58732830Y-66023132D01*
X58743866Y-66004719D01*
X58756654Y-65987476D01*
X58771070Y-65971570D01*
X58786976Y-65957154D01*
X58804219Y-65944366D01*
X58822632Y-65933330D01*
X58842038Y-65924151D01*
X58862250Y-65916919D01*
X58883074Y-65911703D01*
X58904309Y-65908553D01*
X58925750Y-65907500D01*
X59438250Y-65907500D01*
X59459691Y-65908553D01*
G37*
G36*
X59459691Y-67762553D02*
G01*
X59480926Y-67765703D01*
X59501750Y-67770919D01*
X59521962Y-67778151D01*
X59541368Y-67787330D01*
X59559781Y-67798366D01*
X59577024Y-67811154D01*
X59592930Y-67825570D01*
X59607346Y-67841476D01*
X59620134Y-67858719D01*
X59631170Y-67877132D01*
X59640349Y-67896538D01*
X59647581Y-67916750D01*
X59652797Y-67937574D01*
X59655947Y-67958809D01*
X59657000Y-67980250D01*
X59657000Y-68417750D01*
X59655947Y-68439191D01*
X59652797Y-68460426D01*
X59647581Y-68481250D01*
X59640349Y-68501462D01*
X59631170Y-68520868D01*
X59620134Y-68539281D01*
X59607346Y-68556524D01*
X59592930Y-68572430D01*
X59577024Y-68586846D01*
X59559781Y-68599634D01*
X59541368Y-68610670D01*
X59521962Y-68619849D01*
X59501750Y-68627081D01*
X59480926Y-68632297D01*
X59459691Y-68635447D01*
X59438250Y-68636500D01*
X58925750Y-68636500D01*
X58904309Y-68635447D01*
X58883074Y-68632297D01*
X58862250Y-68627081D01*
X58842038Y-68619849D01*
X58822632Y-68610670D01*
X58804219Y-68599634D01*
X58786976Y-68586846D01*
X58771070Y-68572430D01*
X58756654Y-68556524D01*
X58743866Y-68539281D01*
X58732830Y-68520868D01*
X58723651Y-68501462D01*
X58716419Y-68481250D01*
X58711203Y-68460426D01*
X58708053Y-68439191D01*
X58707000Y-68417750D01*
X58707000Y-67980250D01*
X58708053Y-67958809D01*
X58711203Y-67937574D01*
X58716419Y-67916750D01*
X58723651Y-67896538D01*
X58732830Y-67877132D01*
X58743866Y-67858719D01*
X58756654Y-67841476D01*
X58771070Y-67825570D01*
X58786976Y-67811154D01*
X58804219Y-67798366D01*
X58822632Y-67787330D01*
X58842038Y-67778151D01*
X58862250Y-67770919D01*
X58883074Y-67765703D01*
X58904309Y-67762553D01*
X58925750Y-67761500D01*
X59438250Y-67761500D01*
X59459691Y-67762553D01*
G37*
G36*
X59459691Y-69337553D02*
G01*
X59480926Y-69340703D01*
X59501750Y-69345919D01*
X59521962Y-69353151D01*
X59541368Y-69362330D01*
X59559781Y-69373366D01*
X59577024Y-69386154D01*
X59592930Y-69400570D01*
X59607346Y-69416476D01*
X59620134Y-69433719D01*
X59631170Y-69452132D01*
X59640349Y-69471538D01*
X59647581Y-69491750D01*
X59652797Y-69512574D01*
X59655947Y-69533809D01*
X59657000Y-69555250D01*
X59657000Y-69992750D01*
X59655947Y-70014191D01*
X59652797Y-70035426D01*
X59647581Y-70056250D01*
X59640349Y-70076462D01*
X59631170Y-70095868D01*
X59620134Y-70114281D01*
X59607346Y-70131524D01*
X59592930Y-70147430D01*
X59577024Y-70161846D01*
X59559781Y-70174634D01*
X59541368Y-70185670D01*
X59521962Y-70194849D01*
X59501750Y-70202081D01*
X59480926Y-70207297D01*
X59459691Y-70210447D01*
X59438250Y-70211500D01*
X58925750Y-70211500D01*
X58904309Y-70210447D01*
X58883074Y-70207297D01*
X58862250Y-70202081D01*
X58842038Y-70194849D01*
X58822632Y-70185670D01*
X58804219Y-70174634D01*
X58786976Y-70161846D01*
X58771070Y-70147430D01*
X58756654Y-70131524D01*
X58743866Y-70114281D01*
X58732830Y-70095868D01*
X58723651Y-70076462D01*
X58716419Y-70056250D01*
X58711203Y-70035426D01*
X58708053Y-70014191D01*
X58707000Y-69992750D01*
X58707000Y-69555250D01*
X58708053Y-69533809D01*
X58711203Y-69512574D01*
X58716419Y-69491750D01*
X58723651Y-69471538D01*
X58732830Y-69452132D01*
X58743866Y-69433719D01*
X58756654Y-69416476D01*
X58771070Y-69400570D01*
X58786976Y-69386154D01*
X58804219Y-69373366D01*
X58822632Y-69362330D01*
X58842038Y-69353151D01*
X58862250Y-69345919D01*
X58883074Y-69340703D01*
X58904309Y-69337553D01*
X58925750Y-69336500D01*
X59438250Y-69336500D01*
X59459691Y-69337553D01*
G37*
G36*
X59713691Y-74747553D02*
G01*
X59734926Y-74750703D01*
X59755750Y-74755919D01*
X59775962Y-74763151D01*
X59795368Y-74772330D01*
X59813781Y-74783366D01*
X59831024Y-74796154D01*
X59846930Y-74810570D01*
X59861346Y-74826476D01*
X59874134Y-74843719D01*
X59885170Y-74862132D01*
X59894349Y-74881538D01*
X59901581Y-74901750D01*
X59906797Y-74922574D01*
X59909947Y-74943809D01*
X59911000Y-74965250D01*
X59911000Y-75402750D01*
X59909947Y-75424191D01*
X59906797Y-75445426D01*
X59901581Y-75466250D01*
X59894349Y-75486462D01*
X59885170Y-75505868D01*
X59874134Y-75524281D01*
X59861346Y-75541524D01*
X59846930Y-75557430D01*
X59831024Y-75571846D01*
X59813781Y-75584634D01*
X59795368Y-75595670D01*
X59775962Y-75604849D01*
X59755750Y-75612081D01*
X59734926Y-75617297D01*
X59713691Y-75620447D01*
X59692250Y-75621500D01*
X59179750Y-75621500D01*
X59158309Y-75620447D01*
X59137074Y-75617297D01*
X59116250Y-75612081D01*
X59096038Y-75604849D01*
X59076632Y-75595670D01*
X59058219Y-75584634D01*
X59040976Y-75571846D01*
X59025070Y-75557430D01*
X59010654Y-75541524D01*
X58997866Y-75524281D01*
X58986830Y-75505868D01*
X58977651Y-75486462D01*
X58970419Y-75466250D01*
X58965203Y-75445426D01*
X58962053Y-75424191D01*
X58961000Y-75402750D01*
X58961000Y-74965250D01*
X58962053Y-74943809D01*
X58965203Y-74922574D01*
X58970419Y-74901750D01*
X58977651Y-74881538D01*
X58986830Y-74862132D01*
X58997866Y-74843719D01*
X59010654Y-74826476D01*
X59025070Y-74810570D01*
X59040976Y-74796154D01*
X59058219Y-74783366D01*
X59076632Y-74772330D01*
X59096038Y-74763151D01*
X59116250Y-74755919D01*
X59137074Y-74750703D01*
X59158309Y-74747553D01*
X59179750Y-74746500D01*
X59692250Y-74746500D01*
X59713691Y-74747553D01*
G37*
G36*
X59713691Y-76322553D02*
G01*
X59734926Y-76325703D01*
X59755750Y-76330919D01*
X59775962Y-76338151D01*
X59795368Y-76347330D01*
X59813781Y-76358366D01*
X59831024Y-76371154D01*
X59846930Y-76385570D01*
X59861346Y-76401476D01*
X59874134Y-76418719D01*
X59885170Y-76437132D01*
X59894349Y-76456538D01*
X59901581Y-76476750D01*
X59906797Y-76497574D01*
X59909947Y-76518809D01*
X59911000Y-76540250D01*
X59911000Y-76977750D01*
X59909947Y-76999191D01*
X59906797Y-77020426D01*
X59901581Y-77041250D01*
X59894349Y-77061462D01*
X59885170Y-77080868D01*
X59874134Y-77099281D01*
X59861346Y-77116524D01*
X59846930Y-77132430D01*
X59831024Y-77146846D01*
X59813781Y-77159634D01*
X59795368Y-77170670D01*
X59775962Y-77179849D01*
X59755750Y-77187081D01*
X59734926Y-77192297D01*
X59713691Y-77195447D01*
X59692250Y-77196500D01*
X59179750Y-77196500D01*
X59158309Y-77195447D01*
X59137074Y-77192297D01*
X59116250Y-77187081D01*
X59096038Y-77179849D01*
X59076632Y-77170670D01*
X59058219Y-77159634D01*
X59040976Y-77146846D01*
X59025070Y-77132430D01*
X59010654Y-77116524D01*
X58997866Y-77099281D01*
X58986830Y-77080868D01*
X58977651Y-77061462D01*
X58970419Y-77041250D01*
X58965203Y-77020426D01*
X58962053Y-76999191D01*
X58961000Y-76977750D01*
X58961000Y-76540250D01*
X58962053Y-76518809D01*
X58965203Y-76497574D01*
X58970419Y-76476750D01*
X58977651Y-76456538D01*
X58986830Y-76437132D01*
X58997866Y-76418719D01*
X59010654Y-76401476D01*
X59025070Y-76385570D01*
X59040976Y-76371154D01*
X59058219Y-76358366D01*
X59076632Y-76347330D01*
X59096038Y-76338151D01*
X59116250Y-76330919D01*
X59137074Y-76325703D01*
X59158309Y-76322553D01*
X59179750Y-76321500D01*
X59692250Y-76321500D01*
X59713691Y-76322553D01*
G37*
G36*
X63523691Y-63774553D02*
G01*
X63544926Y-63777703D01*
X63565750Y-63782919D01*
X63585962Y-63790151D01*
X63605368Y-63799330D01*
X63623781Y-63810366D01*
X63641024Y-63823154D01*
X63656930Y-63837570D01*
X63671346Y-63853476D01*
X63684134Y-63870719D01*
X63695170Y-63889132D01*
X63704349Y-63908538D01*
X63711581Y-63928750D01*
X63716797Y-63949574D01*
X63719947Y-63970809D01*
X63721000Y-63992250D01*
X63721000Y-64429750D01*
X63719947Y-64451191D01*
X63716797Y-64472426D01*
X63711581Y-64493250D01*
X63704349Y-64513462D01*
X63695170Y-64532868D01*
X63684134Y-64551281D01*
X63671346Y-64568524D01*
X63656930Y-64584430D01*
X63641024Y-64598846D01*
X63623781Y-64611634D01*
X63605368Y-64622670D01*
X63585962Y-64631849D01*
X63565750Y-64639081D01*
X63544926Y-64644297D01*
X63523691Y-64647447D01*
X63502250Y-64648500D01*
X62989750Y-64648500D01*
X62968309Y-64647447D01*
X62947074Y-64644297D01*
X62926250Y-64639081D01*
X62906038Y-64631849D01*
X62886632Y-64622670D01*
X62868219Y-64611634D01*
X62850976Y-64598846D01*
X62835070Y-64584430D01*
X62820654Y-64568524D01*
X62807866Y-64551281D01*
X62796830Y-64532868D01*
X62787651Y-64513462D01*
X62780419Y-64493250D01*
X62775203Y-64472426D01*
X62772053Y-64451191D01*
X62771000Y-64429750D01*
X62771000Y-63992250D01*
X62772053Y-63970809D01*
X62775203Y-63949574D01*
X62780419Y-63928750D01*
X62787651Y-63908538D01*
X62796830Y-63889132D01*
X62807866Y-63870719D01*
X62820654Y-63853476D01*
X62835070Y-63837570D01*
X62850976Y-63823154D01*
X62868219Y-63810366D01*
X62886632Y-63799330D01*
X62906038Y-63790151D01*
X62926250Y-63782919D01*
X62947074Y-63777703D01*
X62968309Y-63774553D01*
X62989750Y-63773500D01*
X63502250Y-63773500D01*
X63523691Y-63774553D01*
G37*
G36*
X63523691Y-65349553D02*
G01*
X63544926Y-65352703D01*
X63565750Y-65357919D01*
X63585962Y-65365151D01*
X63605368Y-65374330D01*
X63623781Y-65385366D01*
X63641024Y-65398154D01*
X63656930Y-65412570D01*
X63671346Y-65428476D01*
X63684134Y-65445719D01*
X63695170Y-65464132D01*
X63704349Y-65483538D01*
X63711581Y-65503750D01*
X63716797Y-65524574D01*
X63719947Y-65545809D01*
X63721000Y-65567250D01*
X63721000Y-66004750D01*
X63719947Y-66026191D01*
X63716797Y-66047426D01*
X63711581Y-66068250D01*
X63704349Y-66088462D01*
X63695170Y-66107868D01*
X63684134Y-66126281D01*
X63671346Y-66143524D01*
X63656930Y-66159430D01*
X63641024Y-66173846D01*
X63623781Y-66186634D01*
X63605368Y-66197670D01*
X63585962Y-66206849D01*
X63565750Y-66214081D01*
X63544926Y-66219297D01*
X63523691Y-66222447D01*
X63502250Y-66223500D01*
X62989750Y-66223500D01*
X62968309Y-66222447D01*
X62947074Y-66219297D01*
X62926250Y-66214081D01*
X62906038Y-66206849D01*
X62886632Y-66197670D01*
X62868219Y-66186634D01*
X62850976Y-66173846D01*
X62835070Y-66159430D01*
X62820654Y-66143524D01*
X62807866Y-66126281D01*
X62796830Y-66107868D01*
X62787651Y-66088462D01*
X62780419Y-66068250D01*
X62775203Y-66047426D01*
X62772053Y-66026191D01*
X62771000Y-66004750D01*
X62771000Y-65567250D01*
X62772053Y-65545809D01*
X62775203Y-65524574D01*
X62780419Y-65503750D01*
X62787651Y-65483538D01*
X62796830Y-65464132D01*
X62807866Y-65445719D01*
X62820654Y-65428476D01*
X62835070Y-65412570D01*
X62850976Y-65398154D01*
X62868219Y-65385366D01*
X62886632Y-65374330D01*
X62906038Y-65365151D01*
X62926250Y-65357919D01*
X62947074Y-65352703D01*
X62968309Y-65349553D01*
X62989750Y-65348500D01*
X63502250Y-65348500D01*
X63523691Y-65349553D01*
G37*
G36*
X63650691Y-76805053D02*
G01*
X63671926Y-76808203D01*
X63692750Y-76813419D01*
X63712962Y-76820651D01*
X63732368Y-76829830D01*
X63750781Y-76840866D01*
X63768024Y-76853654D01*
X63783930Y-76868070D01*
X63798346Y-76883976D01*
X63811134Y-76901219D01*
X63822170Y-76919632D01*
X63831349Y-76939038D01*
X63838581Y-76959250D01*
X63843797Y-76980074D01*
X63846947Y-77001309D01*
X63848000Y-77022750D01*
X63848000Y-77460250D01*
X63846947Y-77481691D01*
X63843797Y-77502926D01*
X63838581Y-77523750D01*
X63831349Y-77543962D01*
X63822170Y-77563368D01*
X63811134Y-77581781D01*
X63798346Y-77599024D01*
X63783930Y-77614930D01*
X63768024Y-77629346D01*
X63750781Y-77642134D01*
X63732368Y-77653170D01*
X63712962Y-77662349D01*
X63692750Y-77669581D01*
X63671926Y-77674797D01*
X63650691Y-77677947D01*
X63629250Y-77679000D01*
X63116750Y-77679000D01*
X63095309Y-77677947D01*
X63074074Y-77674797D01*
X63053250Y-77669581D01*
X63033038Y-77662349D01*
X63013632Y-77653170D01*
X62995219Y-77642134D01*
X62977976Y-77629346D01*
X62962070Y-77614930D01*
X62947654Y-77599024D01*
X62934866Y-77581781D01*
X62923830Y-77563368D01*
X62914651Y-77543962D01*
X62907419Y-77523750D01*
X62902203Y-77502926D01*
X62899053Y-77481691D01*
X62898000Y-77460250D01*
X62898000Y-77022750D01*
X62899053Y-77001309D01*
X62902203Y-76980074D01*
X62907419Y-76959250D01*
X62914651Y-76939038D01*
X62923830Y-76919632D01*
X62934866Y-76901219D01*
X62947654Y-76883976D01*
X62962070Y-76868070D01*
X62977976Y-76853654D01*
X62995219Y-76840866D01*
X63013632Y-76829830D01*
X63033038Y-76820651D01*
X63053250Y-76813419D01*
X63074074Y-76808203D01*
X63095309Y-76805053D01*
X63116750Y-76804000D01*
X63629250Y-76804000D01*
X63650691Y-76805053D01*
G37*
G36*
X63650691Y-75230053D02*
G01*
X63671926Y-75233203D01*
X63692750Y-75238419D01*
X63712962Y-75245651D01*
X63732368Y-75254830D01*
X63750781Y-75265866D01*
X63768024Y-75278654D01*
X63783930Y-75293070D01*
X63798346Y-75308976D01*
X63811134Y-75326219D01*
X63822170Y-75344632D01*
X63831349Y-75364038D01*
X63838581Y-75384250D01*
X63843797Y-75405074D01*
X63846947Y-75426309D01*
X63848000Y-75447750D01*
X63848000Y-75885250D01*
X63846947Y-75906691D01*
X63843797Y-75927926D01*
X63838581Y-75948750D01*
X63831349Y-75968962D01*
X63822170Y-75988368D01*
X63811134Y-76006781D01*
X63798346Y-76024024D01*
X63783930Y-76039930D01*
X63768024Y-76054346D01*
X63750781Y-76067134D01*
X63732368Y-76078170D01*
X63712962Y-76087349D01*
X63692750Y-76094581D01*
X63671926Y-76099797D01*
X63650691Y-76102947D01*
X63629250Y-76104000D01*
X63116750Y-76104000D01*
X63095309Y-76102947D01*
X63074074Y-76099797D01*
X63053250Y-76094581D01*
X63033038Y-76087349D01*
X63013632Y-76078170D01*
X62995219Y-76067134D01*
X62977976Y-76054346D01*
X62962070Y-76039930D01*
X62947654Y-76024024D01*
X62934866Y-76006781D01*
X62923830Y-75988368D01*
X62914651Y-75968962D01*
X62907419Y-75948750D01*
X62902203Y-75927926D01*
X62899053Y-75906691D01*
X62898000Y-75885250D01*
X62898000Y-75447750D01*
X62899053Y-75426309D01*
X62902203Y-75405074D01*
X62907419Y-75384250D01*
X62914651Y-75364038D01*
X62923830Y-75344632D01*
X62934866Y-75326219D01*
X62947654Y-75308976D01*
X62962070Y-75293070D01*
X62977976Y-75278654D01*
X62995219Y-75265866D01*
X63013632Y-75254830D01*
X63033038Y-75245651D01*
X63053250Y-75238419D01*
X63074074Y-75233203D01*
X63095309Y-75230053D01*
X63116750Y-75229000D01*
X63629250Y-75229000D01*
X63650691Y-75230053D01*
G37*
G36*
X61237691Y-76322553D02*
G01*
X61258926Y-76325703D01*
X61279750Y-76330919D01*
X61299962Y-76338151D01*
X61319368Y-76347330D01*
X61337781Y-76358366D01*
X61355024Y-76371154D01*
X61370930Y-76385570D01*
X61385346Y-76401476D01*
X61398134Y-76418719D01*
X61409170Y-76437132D01*
X61418349Y-76456538D01*
X61425581Y-76476750D01*
X61430797Y-76497574D01*
X61433947Y-76518809D01*
X61435000Y-76540250D01*
X61435000Y-76977750D01*
X61433947Y-76999191D01*
X61430797Y-77020426D01*
X61425581Y-77041250D01*
X61418349Y-77061462D01*
X61409170Y-77080868D01*
X61398134Y-77099281D01*
X61385346Y-77116524D01*
X61370930Y-77132430D01*
X61355024Y-77146846D01*
X61337781Y-77159634D01*
X61319368Y-77170670D01*
X61299962Y-77179849D01*
X61279750Y-77187081D01*
X61258926Y-77192297D01*
X61237691Y-77195447D01*
X61216250Y-77196500D01*
X60703750Y-77196500D01*
X60682309Y-77195447D01*
X60661074Y-77192297D01*
X60640250Y-77187081D01*
X60620038Y-77179849D01*
X60600632Y-77170670D01*
X60582219Y-77159634D01*
X60564976Y-77146846D01*
X60549070Y-77132430D01*
X60534654Y-77116524D01*
X60521866Y-77099281D01*
X60510830Y-77080868D01*
X60501651Y-77061462D01*
X60494419Y-77041250D01*
X60489203Y-77020426D01*
X60486053Y-76999191D01*
X60485000Y-76977750D01*
X60485000Y-76540250D01*
X60486053Y-76518809D01*
X60489203Y-76497574D01*
X60494419Y-76476750D01*
X60501651Y-76456538D01*
X60510830Y-76437132D01*
X60521866Y-76418719D01*
X60534654Y-76401476D01*
X60549070Y-76385570D01*
X60564976Y-76371154D01*
X60582219Y-76358366D01*
X60600632Y-76347330D01*
X60620038Y-76338151D01*
X60640250Y-76330919D01*
X60661074Y-76325703D01*
X60682309Y-76322553D01*
X60703750Y-76321500D01*
X61216250Y-76321500D01*
X61237691Y-76322553D01*
G37*
G36*
X61237691Y-74747553D02*
G01*
X61258926Y-74750703D01*
X61279750Y-74755919D01*
X61299962Y-74763151D01*
X61319368Y-74772330D01*
X61337781Y-74783366D01*
X61355024Y-74796154D01*
X61370930Y-74810570D01*
X61385346Y-74826476D01*
X61398134Y-74843719D01*
X61409170Y-74862132D01*
X61418349Y-74881538D01*
X61425581Y-74901750D01*
X61430797Y-74922574D01*
X61433947Y-74943809D01*
X61435000Y-74965250D01*
X61435000Y-75402750D01*
X61433947Y-75424191D01*
X61430797Y-75445426D01*
X61425581Y-75466250D01*
X61418349Y-75486462D01*
X61409170Y-75505868D01*
X61398134Y-75524281D01*
X61385346Y-75541524D01*
X61370930Y-75557430D01*
X61355024Y-75571846D01*
X61337781Y-75584634D01*
X61319368Y-75595670D01*
X61299962Y-75604849D01*
X61279750Y-75612081D01*
X61258926Y-75617297D01*
X61237691Y-75620447D01*
X61216250Y-75621500D01*
X60703750Y-75621500D01*
X60682309Y-75620447D01*
X60661074Y-75617297D01*
X60640250Y-75612081D01*
X60620038Y-75604849D01*
X60600632Y-75595670D01*
X60582219Y-75584634D01*
X60564976Y-75571846D01*
X60549070Y-75557430D01*
X60534654Y-75541524D01*
X60521866Y-75524281D01*
X60510830Y-75505868D01*
X60501651Y-75486462D01*
X60494419Y-75466250D01*
X60489203Y-75445426D01*
X60486053Y-75424191D01*
X60485000Y-75402750D01*
X60485000Y-74965250D01*
X60486053Y-74943809D01*
X60489203Y-74922574D01*
X60494419Y-74901750D01*
X60501651Y-74881538D01*
X60510830Y-74862132D01*
X60521866Y-74843719D01*
X60534654Y-74826476D01*
X60549070Y-74810570D01*
X60564976Y-74796154D01*
X60582219Y-74783366D01*
X60600632Y-74772330D01*
X60620038Y-74763151D01*
X60640250Y-74755919D01*
X60661074Y-74750703D01*
X60682309Y-74747553D01*
X60703750Y-74746500D01*
X61216250Y-74746500D01*
X61237691Y-74747553D01*
G37*
G36*
X65301691Y-63774553D02*
G01*
X65322926Y-63777703D01*
X65343750Y-63782919D01*
X65363962Y-63790151D01*
X65383368Y-63799330D01*
X65401781Y-63810366D01*
X65419024Y-63823154D01*
X65434930Y-63837570D01*
X65449346Y-63853476D01*
X65462134Y-63870719D01*
X65473170Y-63889132D01*
X65482349Y-63908538D01*
X65489581Y-63928750D01*
X65494797Y-63949574D01*
X65497947Y-63970809D01*
X65499000Y-63992250D01*
X65499000Y-64429750D01*
X65497947Y-64451191D01*
X65494797Y-64472426D01*
X65489581Y-64493250D01*
X65482349Y-64513462D01*
X65473170Y-64532868D01*
X65462134Y-64551281D01*
X65449346Y-64568524D01*
X65434930Y-64584430D01*
X65419024Y-64598846D01*
X65401781Y-64611634D01*
X65383368Y-64622670D01*
X65363962Y-64631849D01*
X65343750Y-64639081D01*
X65322926Y-64644297D01*
X65301691Y-64647447D01*
X65280250Y-64648500D01*
X64767750Y-64648500D01*
X64746309Y-64647447D01*
X64725074Y-64644297D01*
X64704250Y-64639081D01*
X64684038Y-64631849D01*
X64664632Y-64622670D01*
X64646219Y-64611634D01*
X64628976Y-64598846D01*
X64613070Y-64584430D01*
X64598654Y-64568524D01*
X64585866Y-64551281D01*
X64574830Y-64532868D01*
X64565651Y-64513462D01*
X64558419Y-64493250D01*
X64553203Y-64472426D01*
X64550053Y-64451191D01*
X64549000Y-64429750D01*
X64549000Y-63992250D01*
X64550053Y-63970809D01*
X64553203Y-63949574D01*
X64558419Y-63928750D01*
X64565651Y-63908538D01*
X64574830Y-63889132D01*
X64585866Y-63870719D01*
X64598654Y-63853476D01*
X64613070Y-63837570D01*
X64628976Y-63823154D01*
X64646219Y-63810366D01*
X64664632Y-63799330D01*
X64684038Y-63790151D01*
X64704250Y-63782919D01*
X64725074Y-63777703D01*
X64746309Y-63774553D01*
X64767750Y-63773500D01*
X65280250Y-63773500D01*
X65301691Y-63774553D01*
G37*
G36*
X65301691Y-65349553D02*
G01*
X65322926Y-65352703D01*
X65343750Y-65357919D01*
X65363962Y-65365151D01*
X65383368Y-65374330D01*
X65401781Y-65385366D01*
X65419024Y-65398154D01*
X65434930Y-65412570D01*
X65449346Y-65428476D01*
X65462134Y-65445719D01*
X65473170Y-65464132D01*
X65482349Y-65483538D01*
X65489581Y-65503750D01*
X65494797Y-65524574D01*
X65497947Y-65545809D01*
X65499000Y-65567250D01*
X65499000Y-66004750D01*
X65497947Y-66026191D01*
X65494797Y-66047426D01*
X65489581Y-66068250D01*
X65482349Y-66088462D01*
X65473170Y-66107868D01*
X65462134Y-66126281D01*
X65449346Y-66143524D01*
X65434930Y-66159430D01*
X65419024Y-66173846D01*
X65401781Y-66186634D01*
X65383368Y-66197670D01*
X65363962Y-66206849D01*
X65343750Y-66214081D01*
X65322926Y-66219297D01*
X65301691Y-66222447D01*
X65280250Y-66223500D01*
X64767750Y-66223500D01*
X64746309Y-66222447D01*
X64725074Y-66219297D01*
X64704250Y-66214081D01*
X64684038Y-66206849D01*
X64664632Y-66197670D01*
X64646219Y-66186634D01*
X64628976Y-66173846D01*
X64613070Y-66159430D01*
X64598654Y-66143524D01*
X64585866Y-66126281D01*
X64574830Y-66107868D01*
X64565651Y-66088462D01*
X64558419Y-66068250D01*
X64553203Y-66047426D01*
X64550053Y-66026191D01*
X64549000Y-66004750D01*
X64549000Y-65567250D01*
X64550053Y-65545809D01*
X64553203Y-65524574D01*
X64558419Y-65503750D01*
X64565651Y-65483538D01*
X64574830Y-65464132D01*
X64585866Y-65445719D01*
X64598654Y-65428476D01*
X64613070Y-65412570D01*
X64628976Y-65398154D01*
X64646219Y-65385366D01*
X64664632Y-65374330D01*
X64684038Y-65365151D01*
X64704250Y-65357919D01*
X64725074Y-65352703D01*
X64746309Y-65349553D01*
X64767750Y-65348500D01*
X65280250Y-65348500D01*
X65301691Y-65349553D01*
G37*
G36*
X65555691Y-75230053D02*
G01*
X65576926Y-75233203D01*
X65597750Y-75238419D01*
X65617962Y-75245651D01*
X65637368Y-75254830D01*
X65655781Y-75265866D01*
X65673024Y-75278654D01*
X65688930Y-75293070D01*
X65703346Y-75308976D01*
X65716134Y-75326219D01*
X65727170Y-75344632D01*
X65736349Y-75364038D01*
X65743581Y-75384250D01*
X65748797Y-75405074D01*
X65751947Y-75426309D01*
X65753000Y-75447750D01*
X65753000Y-75885250D01*
X65751947Y-75906691D01*
X65748797Y-75927926D01*
X65743581Y-75948750D01*
X65736349Y-75968962D01*
X65727170Y-75988368D01*
X65716134Y-76006781D01*
X65703346Y-76024024D01*
X65688930Y-76039930D01*
X65673024Y-76054346D01*
X65655781Y-76067134D01*
X65637368Y-76078170D01*
X65617962Y-76087349D01*
X65597750Y-76094581D01*
X65576926Y-76099797D01*
X65555691Y-76102947D01*
X65534250Y-76104000D01*
X65021750Y-76104000D01*
X65000309Y-76102947D01*
X64979074Y-76099797D01*
X64958250Y-76094581D01*
X64938038Y-76087349D01*
X64918632Y-76078170D01*
X64900219Y-76067134D01*
X64882976Y-76054346D01*
X64867070Y-76039930D01*
X64852654Y-76024024D01*
X64839866Y-76006781D01*
X64828830Y-75988368D01*
X64819651Y-75968962D01*
X64812419Y-75948750D01*
X64807203Y-75927926D01*
X64804053Y-75906691D01*
X64803000Y-75885250D01*
X64803000Y-75447750D01*
X64804053Y-75426309D01*
X64807203Y-75405074D01*
X64812419Y-75384250D01*
X64819651Y-75364038D01*
X64828830Y-75344632D01*
X64839866Y-75326219D01*
X64852654Y-75308976D01*
X64867070Y-75293070D01*
X64882976Y-75278654D01*
X64900219Y-75265866D01*
X64918632Y-75254830D01*
X64938038Y-75245651D01*
X64958250Y-75238419D01*
X64979074Y-75233203D01*
X65000309Y-75230053D01*
X65021750Y-75229000D01*
X65534250Y-75229000D01*
X65555691Y-75230053D01*
G37*
G36*
X65555691Y-76805053D02*
G01*
X65576926Y-76808203D01*
X65597750Y-76813419D01*
X65617962Y-76820651D01*
X65637368Y-76829830D01*
X65655781Y-76840866D01*
X65673024Y-76853654D01*
X65688930Y-76868070D01*
X65703346Y-76883976D01*
X65716134Y-76901219D01*
X65727170Y-76919632D01*
X65736349Y-76939038D01*
X65743581Y-76959250D01*
X65748797Y-76980074D01*
X65751947Y-77001309D01*
X65753000Y-77022750D01*
X65753000Y-77460250D01*
X65751947Y-77481691D01*
X65748797Y-77502926D01*
X65743581Y-77523750D01*
X65736349Y-77543962D01*
X65727170Y-77563368D01*
X65716134Y-77581781D01*
X65703346Y-77599024D01*
X65688930Y-77614930D01*
X65673024Y-77629346D01*
X65655781Y-77642134D01*
X65637368Y-77653170D01*
X65617962Y-77662349D01*
X65597750Y-77669581D01*
X65576926Y-77674797D01*
X65555691Y-77677947D01*
X65534250Y-77679000D01*
X65021750Y-77679000D01*
X65000309Y-77677947D01*
X64979074Y-77674797D01*
X64958250Y-77669581D01*
X64938038Y-77662349D01*
X64918632Y-77653170D01*
X64900219Y-77642134D01*
X64882976Y-77629346D01*
X64867070Y-77614930D01*
X64852654Y-77599024D01*
X64839866Y-77581781D01*
X64828830Y-77563368D01*
X64819651Y-77543962D01*
X64812419Y-77523750D01*
X64807203Y-77502926D01*
X64804053Y-77481691D01*
X64803000Y-77460250D01*
X64803000Y-77022750D01*
X64804053Y-77001309D01*
X64807203Y-76980074D01*
X64812419Y-76959250D01*
X64819651Y-76939038D01*
X64828830Y-76919632D01*
X64839866Y-76901219D01*
X64852654Y-76883976D01*
X64867070Y-76868070D01*
X64882976Y-76853654D01*
X64900219Y-76840866D01*
X64918632Y-76829830D01*
X64938038Y-76820651D01*
X64958250Y-76813419D01*
X64979074Y-76808203D01*
X65000309Y-76805053D01*
X65021750Y-76804000D01*
X65534250Y-76804000D01*
X65555691Y-76805053D01*
G37*
G36*
X56665691Y-76322553D02*
G01*
X56686926Y-76325703D01*
X56707750Y-76330919D01*
X56727962Y-76338151D01*
X56747368Y-76347330D01*
X56765781Y-76358366D01*
X56783024Y-76371154D01*
X56798930Y-76385570D01*
X56813346Y-76401476D01*
X56826134Y-76418719D01*
X56837170Y-76437132D01*
X56846349Y-76456538D01*
X56853581Y-76476750D01*
X56858797Y-76497574D01*
X56861947Y-76518809D01*
X56863000Y-76540250D01*
X56863000Y-76977750D01*
X56861947Y-76999191D01*
X56858797Y-77020426D01*
X56853581Y-77041250D01*
X56846349Y-77061462D01*
X56837170Y-77080868D01*
X56826134Y-77099281D01*
X56813346Y-77116524D01*
X56798930Y-77132430D01*
X56783024Y-77146846D01*
X56765781Y-77159634D01*
X56747368Y-77170670D01*
X56727962Y-77179849D01*
X56707750Y-77187081D01*
X56686926Y-77192297D01*
X56665691Y-77195447D01*
X56644250Y-77196500D01*
X56131750Y-77196500D01*
X56110309Y-77195447D01*
X56089074Y-77192297D01*
X56068250Y-77187081D01*
X56048038Y-77179849D01*
X56028632Y-77170670D01*
X56010219Y-77159634D01*
X55992976Y-77146846D01*
X55977070Y-77132430D01*
X55962654Y-77116524D01*
X55949866Y-77099281D01*
X55938830Y-77080868D01*
X55929651Y-77061462D01*
X55922419Y-77041250D01*
X55917203Y-77020426D01*
X55914053Y-76999191D01*
X55913000Y-76977750D01*
X55913000Y-76540250D01*
X55914053Y-76518809D01*
X55917203Y-76497574D01*
X55922419Y-76476750D01*
X55929651Y-76456538D01*
X55938830Y-76437132D01*
X55949866Y-76418719D01*
X55962654Y-76401476D01*
X55977070Y-76385570D01*
X55992976Y-76371154D01*
X56010219Y-76358366D01*
X56028632Y-76347330D01*
X56048038Y-76338151D01*
X56068250Y-76330919D01*
X56089074Y-76325703D01*
X56110309Y-76322553D01*
X56131750Y-76321500D01*
X56644250Y-76321500D01*
X56665691Y-76322553D01*
G37*
G36*
X56665691Y-74747553D02*
G01*
X56686926Y-74750703D01*
X56707750Y-74755919D01*
X56727962Y-74763151D01*
X56747368Y-74772330D01*
X56765781Y-74783366D01*
X56783024Y-74796154D01*
X56798930Y-74810570D01*
X56813346Y-74826476D01*
X56826134Y-74843719D01*
X56837170Y-74862132D01*
X56846349Y-74881538D01*
X56853581Y-74901750D01*
X56858797Y-74922574D01*
X56861947Y-74943809D01*
X56863000Y-74965250D01*
X56863000Y-75402750D01*
X56861947Y-75424191D01*
X56858797Y-75445426D01*
X56853581Y-75466250D01*
X56846349Y-75486462D01*
X56837170Y-75505868D01*
X56826134Y-75524281D01*
X56813346Y-75541524D01*
X56798930Y-75557430D01*
X56783024Y-75571846D01*
X56765781Y-75584634D01*
X56747368Y-75595670D01*
X56727962Y-75604849D01*
X56707750Y-75612081D01*
X56686926Y-75617297D01*
X56665691Y-75620447D01*
X56644250Y-75621500D01*
X56131750Y-75621500D01*
X56110309Y-75620447D01*
X56089074Y-75617297D01*
X56068250Y-75612081D01*
X56048038Y-75604849D01*
X56028632Y-75595670D01*
X56010219Y-75584634D01*
X55992976Y-75571846D01*
X55977070Y-75557430D01*
X55962654Y-75541524D01*
X55949866Y-75524281D01*
X55938830Y-75505868D01*
X55929651Y-75486462D01*
X55922419Y-75466250D01*
X55917203Y-75445426D01*
X55914053Y-75424191D01*
X55913000Y-75402750D01*
X55913000Y-74965250D01*
X55914053Y-74943809D01*
X55917203Y-74922574D01*
X55922419Y-74901750D01*
X55929651Y-74881538D01*
X55938830Y-74862132D01*
X55949866Y-74843719D01*
X55962654Y-74826476D01*
X55977070Y-74810570D01*
X55992976Y-74796154D01*
X56010219Y-74783366D01*
X56028632Y-74772330D01*
X56048038Y-74763151D01*
X56068250Y-74755919D01*
X56089074Y-74750703D01*
X56110309Y-74747553D01*
X56131750Y-74746500D01*
X56644250Y-74746500D01*
X56665691Y-74747553D01*
G37*
G36*
X68820191Y-69376053D02*
G01*
X68841426Y-69379203D01*
X68862250Y-69384419D01*
X68882462Y-69391651D01*
X68901868Y-69400830D01*
X68920281Y-69411866D01*
X68937524Y-69424654D01*
X68953430Y-69439070D01*
X68967846Y-69454976D01*
X68980634Y-69472219D01*
X68991670Y-69490632D01*
X69000849Y-69510038D01*
X69008081Y-69530250D01*
X69013297Y-69551074D01*
X69016447Y-69572309D01*
X69017500Y-69593750D01*
X69017500Y-70106250D01*
X69016447Y-70127691D01*
X69013297Y-70148926D01*
X69008081Y-70169750D01*
X69000849Y-70189962D01*
X68991670Y-70209368D01*
X68980634Y-70227781D01*
X68967846Y-70245024D01*
X68953430Y-70260930D01*
X68937524Y-70275346D01*
X68920281Y-70288134D01*
X68901868Y-70299170D01*
X68882462Y-70308349D01*
X68862250Y-70315581D01*
X68841426Y-70320797D01*
X68820191Y-70323947D01*
X68798750Y-70325000D01*
X68361250Y-70325000D01*
X68339809Y-70323947D01*
X68318574Y-70320797D01*
X68297750Y-70315581D01*
X68277538Y-70308349D01*
X68258132Y-70299170D01*
X68239719Y-70288134D01*
X68222476Y-70275346D01*
X68206570Y-70260930D01*
X68192154Y-70245024D01*
X68179366Y-70227781D01*
X68168330Y-70209368D01*
X68159151Y-70189962D01*
X68151919Y-70169750D01*
X68146703Y-70148926D01*
X68143553Y-70127691D01*
X68142500Y-70106250D01*
X68142500Y-69593750D01*
X68143553Y-69572309D01*
X68146703Y-69551074D01*
X68151919Y-69530250D01*
X68159151Y-69510038D01*
X68168330Y-69490632D01*
X68179366Y-69472219D01*
X68192154Y-69454976D01*
X68206570Y-69439070D01*
X68222476Y-69424654D01*
X68239719Y-69411866D01*
X68258132Y-69400830D01*
X68277538Y-69391651D01*
X68297750Y-69384419D01*
X68318574Y-69379203D01*
X68339809Y-69376053D01*
X68361250Y-69375000D01*
X68798750Y-69375000D01*
X68820191Y-69376053D01*
G37*
G36*
X70395191Y-69376053D02*
G01*
X70416426Y-69379203D01*
X70437250Y-69384419D01*
X70457462Y-69391651D01*
X70476868Y-69400830D01*
X70495281Y-69411866D01*
X70512524Y-69424654D01*
X70528430Y-69439070D01*
X70542846Y-69454976D01*
X70555634Y-69472219D01*
X70566670Y-69490632D01*
X70575849Y-69510038D01*
X70583081Y-69530250D01*
X70588297Y-69551074D01*
X70591447Y-69572309D01*
X70592500Y-69593750D01*
X70592500Y-70106250D01*
X70591447Y-70127691D01*
X70588297Y-70148926D01*
X70583081Y-70169750D01*
X70575849Y-70189962D01*
X70566670Y-70209368D01*
X70555634Y-70227781D01*
X70542846Y-70245024D01*
X70528430Y-70260930D01*
X70512524Y-70275346D01*
X70495281Y-70288134D01*
X70476868Y-70299170D01*
X70457462Y-70308349D01*
X70437250Y-70315581D01*
X70416426Y-70320797D01*
X70395191Y-70323947D01*
X70373750Y-70325000D01*
X69936250Y-70325000D01*
X69914809Y-70323947D01*
X69893574Y-70320797D01*
X69872750Y-70315581D01*
X69852538Y-70308349D01*
X69833132Y-70299170D01*
X69814719Y-70288134D01*
X69797476Y-70275346D01*
X69781570Y-70260930D01*
X69767154Y-70245024D01*
X69754366Y-70227781D01*
X69743330Y-70209368D01*
X69734151Y-70189962D01*
X69726919Y-70169750D01*
X69721703Y-70148926D01*
X69718553Y-70127691D01*
X69717500Y-70106250D01*
X69717500Y-69593750D01*
X69718553Y-69572309D01*
X69721703Y-69551074D01*
X69726919Y-69530250D01*
X69734151Y-69510038D01*
X69743330Y-69490632D01*
X69754366Y-69472219D01*
X69767154Y-69454976D01*
X69781570Y-69439070D01*
X69797476Y-69424654D01*
X69814719Y-69411866D01*
X69833132Y-69400830D01*
X69852538Y-69391651D01*
X69872750Y-69384419D01*
X69893574Y-69379203D01*
X69914809Y-69376053D01*
X69936250Y-69375000D01*
X70373750Y-69375000D01*
X70395191Y-69376053D01*
G37*
G36*
X67079691Y-69413553D02*
G01*
X67100926Y-69416703D01*
X67121750Y-69421919D01*
X67141962Y-69429151D01*
X67161368Y-69438330D01*
X67179781Y-69449366D01*
X67197024Y-69462154D01*
X67212930Y-69476570D01*
X67227346Y-69492476D01*
X67240134Y-69509719D01*
X67251170Y-69528132D01*
X67260349Y-69547538D01*
X67267581Y-69567750D01*
X67272797Y-69588574D01*
X67275947Y-69609809D01*
X67277000Y-69631250D01*
X67277000Y-70068750D01*
X67275947Y-70090191D01*
X67272797Y-70111426D01*
X67267581Y-70132250D01*
X67260349Y-70152462D01*
X67251170Y-70171868D01*
X67240134Y-70190281D01*
X67227346Y-70207524D01*
X67212930Y-70223430D01*
X67197024Y-70237846D01*
X67179781Y-70250634D01*
X67161368Y-70261670D01*
X67141962Y-70270849D01*
X67121750Y-70278081D01*
X67100926Y-70283297D01*
X67079691Y-70286447D01*
X67058250Y-70287500D01*
X66545750Y-70287500D01*
X66524309Y-70286447D01*
X66503074Y-70283297D01*
X66482250Y-70278081D01*
X66462038Y-70270849D01*
X66442632Y-70261670D01*
X66424219Y-70250634D01*
X66406976Y-70237846D01*
X66391070Y-70223430D01*
X66376654Y-70207524D01*
X66363866Y-70190281D01*
X66352830Y-70171868D01*
X66343651Y-70152462D01*
X66336419Y-70132250D01*
X66331203Y-70111426D01*
X66328053Y-70090191D01*
X66327000Y-70068750D01*
X66327000Y-69631250D01*
X66328053Y-69609809D01*
X66331203Y-69588574D01*
X66336419Y-69567750D01*
X66343651Y-69547538D01*
X66352830Y-69528132D01*
X66363866Y-69509719D01*
X66376654Y-69492476D01*
X66391070Y-69476570D01*
X66406976Y-69462154D01*
X66424219Y-69449366D01*
X66442632Y-69438330D01*
X66462038Y-69429151D01*
X66482250Y-69421919D01*
X66503074Y-69416703D01*
X66524309Y-69413553D01*
X66545750Y-69412500D01*
X67058250Y-69412500D01*
X67079691Y-69413553D01*
G37*
G36*
X67079691Y-70988553D02*
G01*
X67100926Y-70991703D01*
X67121750Y-70996919D01*
X67141962Y-71004151D01*
X67161368Y-71013330D01*
X67179781Y-71024366D01*
X67197024Y-71037154D01*
X67212930Y-71051570D01*
X67227346Y-71067476D01*
X67240134Y-71084719D01*
X67251170Y-71103132D01*
X67260349Y-71122538D01*
X67267581Y-71142750D01*
X67272797Y-71163574D01*
X67275947Y-71184809D01*
X67277000Y-71206250D01*
X67277000Y-71643750D01*
X67275947Y-71665191D01*
X67272797Y-71686426D01*
X67267581Y-71707250D01*
X67260349Y-71727462D01*
X67251170Y-71746868D01*
X67240134Y-71765281D01*
X67227346Y-71782524D01*
X67212930Y-71798430D01*
X67197024Y-71812846D01*
X67179781Y-71825634D01*
X67161368Y-71836670D01*
X67141962Y-71845849D01*
X67121750Y-71853081D01*
X67100926Y-71858297D01*
X67079691Y-71861447D01*
X67058250Y-71862500D01*
X66545750Y-71862500D01*
X66524309Y-71861447D01*
X66503074Y-71858297D01*
X66482250Y-71853081D01*
X66462038Y-71845849D01*
X66442632Y-71836670D01*
X66424219Y-71825634D01*
X66406976Y-71812846D01*
X66391070Y-71798430D01*
X66376654Y-71782524D01*
X66363866Y-71765281D01*
X66352830Y-71746868D01*
X66343651Y-71727462D01*
X66336419Y-71707250D01*
X66331203Y-71686426D01*
X66328053Y-71665191D01*
X66327000Y-71643750D01*
X66327000Y-71206250D01*
X66328053Y-71184809D01*
X66331203Y-71163574D01*
X66336419Y-71142750D01*
X66343651Y-71122538D01*
X66352830Y-71103132D01*
X66363866Y-71084719D01*
X66376654Y-71067476D01*
X66391070Y-71051570D01*
X66406976Y-71037154D01*
X66424219Y-71024366D01*
X66442632Y-71013330D01*
X66462038Y-71004151D01*
X66482250Y-70996919D01*
X66503074Y-70991703D01*
X66524309Y-70988553D01*
X66545750Y-70987500D01*
X67058250Y-70987500D01*
X67079691Y-70988553D01*
G37*
G36*
X70598191Y-73186053D02*
G01*
X70619426Y-73189203D01*
X70640250Y-73194419D01*
X70660462Y-73201651D01*
X70679868Y-73210830D01*
X70698281Y-73221866D01*
X70715524Y-73234654D01*
X70731430Y-73249070D01*
X70745846Y-73264976D01*
X70758634Y-73282219D01*
X70769670Y-73300632D01*
X70778849Y-73320038D01*
X70786081Y-73340250D01*
X70791297Y-73361074D01*
X70794447Y-73382309D01*
X70795500Y-73403750D01*
X70795500Y-73916250D01*
X70794447Y-73937691D01*
X70791297Y-73958926D01*
X70786081Y-73979750D01*
X70778849Y-73999962D01*
X70769670Y-74019368D01*
X70758634Y-74037781D01*
X70745846Y-74055024D01*
X70731430Y-74070930D01*
X70715524Y-74085346D01*
X70698281Y-74098134D01*
X70679868Y-74109170D01*
X70660462Y-74118349D01*
X70640250Y-74125581D01*
X70619426Y-74130797D01*
X70598191Y-74133947D01*
X70576750Y-74135000D01*
X70139250Y-74135000D01*
X70117809Y-74133947D01*
X70096574Y-74130797D01*
X70075750Y-74125581D01*
X70055538Y-74118349D01*
X70036132Y-74109170D01*
X70017719Y-74098134D01*
X70000476Y-74085346D01*
X69984570Y-74070930D01*
X69970154Y-74055024D01*
X69957366Y-74037781D01*
X69946330Y-74019368D01*
X69937151Y-73999962D01*
X69929919Y-73979750D01*
X69924703Y-73958926D01*
X69921553Y-73937691D01*
X69920500Y-73916250D01*
X69920500Y-73403750D01*
X69921553Y-73382309D01*
X69924703Y-73361074D01*
X69929919Y-73340250D01*
X69937151Y-73320038D01*
X69946330Y-73300632D01*
X69957366Y-73282219D01*
X69970154Y-73264976D01*
X69984570Y-73249070D01*
X70000476Y-73234654D01*
X70017719Y-73221866D01*
X70036132Y-73210830D01*
X70055538Y-73201651D01*
X70075750Y-73194419D01*
X70096574Y-73189203D01*
X70117809Y-73186053D01*
X70139250Y-73185000D01*
X70576750Y-73185000D01*
X70598191Y-73186053D01*
G37*
G36*
X72173191Y-73186053D02*
G01*
X72194426Y-73189203D01*
X72215250Y-73194419D01*
X72235462Y-73201651D01*
X72254868Y-73210830D01*
X72273281Y-73221866D01*
X72290524Y-73234654D01*
X72306430Y-73249070D01*
X72320846Y-73264976D01*
X72333634Y-73282219D01*
X72344670Y-73300632D01*
X72353849Y-73320038D01*
X72361081Y-73340250D01*
X72366297Y-73361074D01*
X72369447Y-73382309D01*
X72370500Y-73403750D01*
X72370500Y-73916250D01*
X72369447Y-73937691D01*
X72366297Y-73958926D01*
X72361081Y-73979750D01*
X72353849Y-73999962D01*
X72344670Y-74019368D01*
X72333634Y-74037781D01*
X72320846Y-74055024D01*
X72306430Y-74070930D01*
X72290524Y-74085346D01*
X72273281Y-74098134D01*
X72254868Y-74109170D01*
X72235462Y-74118349D01*
X72215250Y-74125581D01*
X72194426Y-74130797D01*
X72173191Y-74133947D01*
X72151750Y-74135000D01*
X71714250Y-74135000D01*
X71692809Y-74133947D01*
X71671574Y-74130797D01*
X71650750Y-74125581D01*
X71630538Y-74118349D01*
X71611132Y-74109170D01*
X71592719Y-74098134D01*
X71575476Y-74085346D01*
X71559570Y-74070930D01*
X71545154Y-74055024D01*
X71532366Y-74037781D01*
X71521330Y-74019368D01*
X71512151Y-73999962D01*
X71504919Y-73979750D01*
X71499703Y-73958926D01*
X71496553Y-73937691D01*
X71495500Y-73916250D01*
X71495500Y-73403750D01*
X71496553Y-73382309D01*
X71499703Y-73361074D01*
X71504919Y-73340250D01*
X71512151Y-73320038D01*
X71521330Y-73300632D01*
X71532366Y-73282219D01*
X71545154Y-73264976D01*
X71559570Y-73249070D01*
X71575476Y-73234654D01*
X71592719Y-73221866D01*
X71611132Y-73210830D01*
X71630538Y-73201651D01*
X71650750Y-73194419D01*
X71671574Y-73189203D01*
X71692809Y-73186053D01*
X71714250Y-73185000D01*
X72151750Y-73185000D01*
X72173191Y-73186053D01*
G37*
G36*
X77456191Y-66328053D02*
G01*
X77477426Y-66331203D01*
X77498250Y-66336419D01*
X77518462Y-66343651D01*
X77537868Y-66352830D01*
X77556281Y-66363866D01*
X77573524Y-66376654D01*
X77589430Y-66391070D01*
X77603846Y-66406976D01*
X77616634Y-66424219D01*
X77627670Y-66442632D01*
X77636849Y-66462038D01*
X77644081Y-66482250D01*
X77649297Y-66503074D01*
X77652447Y-66524309D01*
X77653500Y-66545750D01*
X77653500Y-67058250D01*
X77652447Y-67079691D01*
X77649297Y-67100926D01*
X77644081Y-67121750D01*
X77636849Y-67141962D01*
X77627670Y-67161368D01*
X77616634Y-67179781D01*
X77603846Y-67197024D01*
X77589430Y-67212930D01*
X77573524Y-67227346D01*
X77556281Y-67240134D01*
X77537868Y-67251170D01*
X77518462Y-67260349D01*
X77498250Y-67267581D01*
X77477426Y-67272797D01*
X77456191Y-67275947D01*
X77434750Y-67277000D01*
X76997250Y-67277000D01*
X76975809Y-67275947D01*
X76954574Y-67272797D01*
X76933750Y-67267581D01*
X76913538Y-67260349D01*
X76894132Y-67251170D01*
X76875719Y-67240134D01*
X76858476Y-67227346D01*
X76842570Y-67212930D01*
X76828154Y-67197024D01*
X76815366Y-67179781D01*
X76804330Y-67161368D01*
X76795151Y-67141962D01*
X76787919Y-67121750D01*
X76782703Y-67100926D01*
X76779553Y-67079691D01*
X76778500Y-67058250D01*
X76778500Y-66545750D01*
X76779553Y-66524309D01*
X76782703Y-66503074D01*
X76787919Y-66482250D01*
X76795151Y-66462038D01*
X76804330Y-66442632D01*
X76815366Y-66424219D01*
X76828154Y-66406976D01*
X76842570Y-66391070D01*
X76858476Y-66376654D01*
X76875719Y-66363866D01*
X76894132Y-66352830D01*
X76913538Y-66343651D01*
X76933750Y-66336419D01*
X76954574Y-66331203D01*
X76975809Y-66328053D01*
X76997250Y-66327000D01*
X77434750Y-66327000D01*
X77456191Y-66328053D01*
G37*
G36*
X79031191Y-66328053D02*
G01*
X79052426Y-66331203D01*
X79073250Y-66336419D01*
X79093462Y-66343651D01*
X79112868Y-66352830D01*
X79131281Y-66363866D01*
X79148524Y-66376654D01*
X79164430Y-66391070D01*
X79178846Y-66406976D01*
X79191634Y-66424219D01*
X79202670Y-66442632D01*
X79211849Y-66462038D01*
X79219081Y-66482250D01*
X79224297Y-66503074D01*
X79227447Y-66524309D01*
X79228500Y-66545750D01*
X79228500Y-67058250D01*
X79227447Y-67079691D01*
X79224297Y-67100926D01*
X79219081Y-67121750D01*
X79211849Y-67141962D01*
X79202670Y-67161368D01*
X79191634Y-67179781D01*
X79178846Y-67197024D01*
X79164430Y-67212930D01*
X79148524Y-67227346D01*
X79131281Y-67240134D01*
X79112868Y-67251170D01*
X79093462Y-67260349D01*
X79073250Y-67267581D01*
X79052426Y-67272797D01*
X79031191Y-67275947D01*
X79009750Y-67277000D01*
X78572250Y-67277000D01*
X78550809Y-67275947D01*
X78529574Y-67272797D01*
X78508750Y-67267581D01*
X78488538Y-67260349D01*
X78469132Y-67251170D01*
X78450719Y-67240134D01*
X78433476Y-67227346D01*
X78417570Y-67212930D01*
X78403154Y-67197024D01*
X78390366Y-67179781D01*
X78379330Y-67161368D01*
X78370151Y-67141962D01*
X78362919Y-67121750D01*
X78357703Y-67100926D01*
X78354553Y-67079691D01*
X78353500Y-67058250D01*
X78353500Y-66545750D01*
X78354553Y-66524309D01*
X78357703Y-66503074D01*
X78362919Y-66482250D01*
X78370151Y-66462038D01*
X78379330Y-66442632D01*
X78390366Y-66424219D01*
X78403154Y-66406976D01*
X78417570Y-66391070D01*
X78433476Y-66376654D01*
X78450719Y-66363866D01*
X78469132Y-66352830D01*
X78488538Y-66343651D01*
X78508750Y-66336419D01*
X78529574Y-66331203D01*
X78550809Y-66328053D01*
X78572250Y-66327000D01*
X79009750Y-66327000D01*
X79031191Y-66328053D01*
G37*
G36*
X77329191Y-59724053D02*
G01*
X77350426Y-59727203D01*
X77371250Y-59732419D01*
X77391462Y-59739651D01*
X77410868Y-59748830D01*
X77429281Y-59759866D01*
X77446524Y-59772654D01*
X77462430Y-59787070D01*
X77476846Y-59802976D01*
X77489634Y-59820219D01*
X77500670Y-59838632D01*
X77509849Y-59858038D01*
X77517081Y-59878250D01*
X77522297Y-59899074D01*
X77525447Y-59920309D01*
X77526500Y-59941750D01*
X77526500Y-60454250D01*
X77525447Y-60475691D01*
X77522297Y-60496926D01*
X77517081Y-60517750D01*
X77509849Y-60537962D01*
X77500670Y-60557368D01*
X77489634Y-60575781D01*
X77476846Y-60593024D01*
X77462430Y-60608930D01*
X77446524Y-60623346D01*
X77429281Y-60636134D01*
X77410868Y-60647170D01*
X77391462Y-60656349D01*
X77371250Y-60663581D01*
X77350426Y-60668797D01*
X77329191Y-60671947D01*
X77307750Y-60673000D01*
X76870250Y-60673000D01*
X76848809Y-60671947D01*
X76827574Y-60668797D01*
X76806750Y-60663581D01*
X76786538Y-60656349D01*
X76767132Y-60647170D01*
X76748719Y-60636134D01*
X76731476Y-60623346D01*
X76715570Y-60608930D01*
X76701154Y-60593024D01*
X76688366Y-60575781D01*
X76677330Y-60557368D01*
X76668151Y-60537962D01*
X76660919Y-60517750D01*
X76655703Y-60496926D01*
X76652553Y-60475691D01*
X76651500Y-60454250D01*
X76651500Y-59941750D01*
X76652553Y-59920309D01*
X76655703Y-59899074D01*
X76660919Y-59878250D01*
X76668151Y-59858038D01*
X76677330Y-59838632D01*
X76688366Y-59820219D01*
X76701154Y-59802976D01*
X76715570Y-59787070D01*
X76731476Y-59772654D01*
X76748719Y-59759866D01*
X76767132Y-59748830D01*
X76786538Y-59739651D01*
X76806750Y-59732419D01*
X76827574Y-59727203D01*
X76848809Y-59724053D01*
X76870250Y-59723000D01*
X77307750Y-59723000D01*
X77329191Y-59724053D01*
G37*
G36*
X75754191Y-59724053D02*
G01*
X75775426Y-59727203D01*
X75796250Y-59732419D01*
X75816462Y-59739651D01*
X75835868Y-59748830D01*
X75854281Y-59759866D01*
X75871524Y-59772654D01*
X75887430Y-59787070D01*
X75901846Y-59802976D01*
X75914634Y-59820219D01*
X75925670Y-59838632D01*
X75934849Y-59858038D01*
X75942081Y-59878250D01*
X75947297Y-59899074D01*
X75950447Y-59920309D01*
X75951500Y-59941750D01*
X75951500Y-60454250D01*
X75950447Y-60475691D01*
X75947297Y-60496926D01*
X75942081Y-60517750D01*
X75934849Y-60537962D01*
X75925670Y-60557368D01*
X75914634Y-60575781D01*
X75901846Y-60593024D01*
X75887430Y-60608930D01*
X75871524Y-60623346D01*
X75854281Y-60636134D01*
X75835868Y-60647170D01*
X75816462Y-60656349D01*
X75796250Y-60663581D01*
X75775426Y-60668797D01*
X75754191Y-60671947D01*
X75732750Y-60673000D01*
X75295250Y-60673000D01*
X75273809Y-60671947D01*
X75252574Y-60668797D01*
X75231750Y-60663581D01*
X75211538Y-60656349D01*
X75192132Y-60647170D01*
X75173719Y-60636134D01*
X75156476Y-60623346D01*
X75140570Y-60608930D01*
X75126154Y-60593024D01*
X75113366Y-60575781D01*
X75102330Y-60557368D01*
X75093151Y-60537962D01*
X75085919Y-60517750D01*
X75080703Y-60496926D01*
X75077553Y-60475691D01*
X75076500Y-60454250D01*
X75076500Y-59941750D01*
X75077553Y-59920309D01*
X75080703Y-59899074D01*
X75085919Y-59878250D01*
X75093151Y-59858038D01*
X75102330Y-59838632D01*
X75113366Y-59820219D01*
X75126154Y-59802976D01*
X75140570Y-59787070D01*
X75156476Y-59772654D01*
X75173719Y-59759866D01*
X75192132Y-59748830D01*
X75211538Y-59739651D01*
X75231750Y-59732419D01*
X75252574Y-59727203D01*
X75273809Y-59724053D01*
X75295250Y-59723000D01*
X75732750Y-59723000D01*
X75754191Y-59724053D01*
G37*
G36*
X75932191Y-45373053D02*
G01*
X75953426Y-45376203D01*
X75974250Y-45381419D01*
X75994462Y-45388651D01*
X76013868Y-45397830D01*
X76032281Y-45408866D01*
X76049524Y-45421654D01*
X76065430Y-45436070D01*
X76079846Y-45451976D01*
X76092634Y-45469219D01*
X76103670Y-45487632D01*
X76112849Y-45507038D01*
X76120081Y-45527250D01*
X76125297Y-45548074D01*
X76128447Y-45569309D01*
X76129500Y-45590750D01*
X76129500Y-46103250D01*
X76128447Y-46124691D01*
X76125297Y-46145926D01*
X76120081Y-46166750D01*
X76112849Y-46186962D01*
X76103670Y-46206368D01*
X76092634Y-46224781D01*
X76079846Y-46242024D01*
X76065430Y-46257930D01*
X76049524Y-46272346D01*
X76032281Y-46285134D01*
X76013868Y-46296170D01*
X75994462Y-46305349D01*
X75974250Y-46312581D01*
X75953426Y-46317797D01*
X75932191Y-46320947D01*
X75910750Y-46322000D01*
X75473250Y-46322000D01*
X75451809Y-46320947D01*
X75430574Y-46317797D01*
X75409750Y-46312581D01*
X75389538Y-46305349D01*
X75370132Y-46296170D01*
X75351719Y-46285134D01*
X75334476Y-46272346D01*
X75318570Y-46257930D01*
X75304154Y-46242024D01*
X75291366Y-46224781D01*
X75280330Y-46206368D01*
X75271151Y-46186962D01*
X75263919Y-46166750D01*
X75258703Y-46145926D01*
X75255553Y-46124691D01*
X75254500Y-46103250D01*
X75254500Y-45590750D01*
X75255553Y-45569309D01*
X75258703Y-45548074D01*
X75263919Y-45527250D01*
X75271151Y-45507038D01*
X75280330Y-45487632D01*
X75291366Y-45469219D01*
X75304154Y-45451976D01*
X75318570Y-45436070D01*
X75334476Y-45421654D01*
X75351719Y-45408866D01*
X75370132Y-45397830D01*
X75389538Y-45388651D01*
X75409750Y-45381419D01*
X75430574Y-45376203D01*
X75451809Y-45373053D01*
X75473250Y-45372000D01*
X75910750Y-45372000D01*
X75932191Y-45373053D01*
G37*
G36*
X77507191Y-45373053D02*
G01*
X77528426Y-45376203D01*
X77549250Y-45381419D01*
X77569462Y-45388651D01*
X77588868Y-45397830D01*
X77607281Y-45408866D01*
X77624524Y-45421654D01*
X77640430Y-45436070D01*
X77654846Y-45451976D01*
X77667634Y-45469219D01*
X77678670Y-45487632D01*
X77687849Y-45507038D01*
X77695081Y-45527250D01*
X77700297Y-45548074D01*
X77703447Y-45569309D01*
X77704500Y-45590750D01*
X77704500Y-46103250D01*
X77703447Y-46124691D01*
X77700297Y-46145926D01*
X77695081Y-46166750D01*
X77687849Y-46186962D01*
X77678670Y-46206368D01*
X77667634Y-46224781D01*
X77654846Y-46242024D01*
X77640430Y-46257930D01*
X77624524Y-46272346D01*
X77607281Y-46285134D01*
X77588868Y-46296170D01*
X77569462Y-46305349D01*
X77549250Y-46312581D01*
X77528426Y-46317797D01*
X77507191Y-46320947D01*
X77485750Y-46322000D01*
X77048250Y-46322000D01*
X77026809Y-46320947D01*
X77005574Y-46317797D01*
X76984750Y-46312581D01*
X76964538Y-46305349D01*
X76945132Y-46296170D01*
X76926719Y-46285134D01*
X76909476Y-46272346D01*
X76893570Y-46257930D01*
X76879154Y-46242024D01*
X76866366Y-46224781D01*
X76855330Y-46206368D01*
X76846151Y-46186962D01*
X76838919Y-46166750D01*
X76833703Y-46145926D01*
X76830553Y-46124691D01*
X76829500Y-46103250D01*
X76829500Y-45590750D01*
X76830553Y-45569309D01*
X76833703Y-45548074D01*
X76838919Y-45527250D01*
X76846151Y-45507038D01*
X76855330Y-45487632D01*
X76866366Y-45469219D01*
X76879154Y-45451976D01*
X76893570Y-45436070D01*
X76909476Y-45421654D01*
X76926719Y-45408866D01*
X76945132Y-45397830D01*
X76964538Y-45388651D01*
X76984750Y-45381419D01*
X77005574Y-45376203D01*
X77026809Y-45373053D01*
X77048250Y-45372000D01*
X77485750Y-45372000D01*
X77507191Y-45373053D01*
G37*
D15*
X61214000Y-62230000D03*
X66044000Y-59690000D03*
X61214000Y-57150000D03*
D16*
X75819000Y-76454000D03*
X73279000Y-81284000D03*
X70739000Y-76454000D03*
D17*
X80518000Y-64643000D03*
X75501500Y-65024000D03*
X78740000Y-76454000D03*
D11*
X63251000Y-73393000D03*
X64201000Y-73393000D03*
X65151000Y-73393000D03*
X65151000Y-70993000D03*
X63251000Y-70993000D03*
D10*
G36*
X56769452Y-82661102D02*
G01*
X56781586Y-82662902D01*
X56793486Y-82665882D01*
X56805035Y-82670015D01*
X56816125Y-82675260D01*
X56826646Y-82681566D01*
X56836499Y-82688874D01*
X56845588Y-82697112D01*
X56853826Y-82706201D01*
X56861134Y-82716054D01*
X56867440Y-82726575D01*
X56872685Y-82737665D01*
X56876818Y-82749214D01*
X56879798Y-82761114D01*
X56881598Y-82773248D01*
X56882200Y-82785500D01*
X56882200Y-84160500D01*
X56881598Y-84172752D01*
X56879798Y-84184886D01*
X56876818Y-84196786D01*
X56872685Y-84208335D01*
X56867440Y-84219425D01*
X56861134Y-84229946D01*
X56853826Y-84239799D01*
X56845588Y-84248888D01*
X56836499Y-84257126D01*
X56826646Y-84264434D01*
X56816125Y-84270740D01*
X56805035Y-84275985D01*
X56793486Y-84280118D01*
X56781586Y-84283098D01*
X56769452Y-84284898D01*
X56757200Y-84285500D01*
X56507200Y-84285500D01*
X56494948Y-84284898D01*
X56482814Y-84283098D01*
X56470914Y-84280118D01*
X56459365Y-84275985D01*
X56448275Y-84270740D01*
X56437754Y-84264434D01*
X56427901Y-84257126D01*
X56418812Y-84248888D01*
X56410574Y-84239799D01*
X56403266Y-84229946D01*
X56396960Y-84219425D01*
X56391715Y-84208335D01*
X56387582Y-84196786D01*
X56384602Y-84184886D01*
X56382802Y-84172752D01*
X56382200Y-84160500D01*
X56382200Y-82785500D01*
X56382802Y-82773248D01*
X56384602Y-82761114D01*
X56387582Y-82749214D01*
X56391715Y-82737665D01*
X56396960Y-82726575D01*
X56403266Y-82716054D01*
X56410574Y-82706201D01*
X56418812Y-82697112D01*
X56427901Y-82688874D01*
X56437754Y-82681566D01*
X56448275Y-82675260D01*
X56459365Y-82670015D01*
X56470914Y-82665882D01*
X56482814Y-82662902D01*
X56494948Y-82661102D01*
X56507200Y-82660500D01*
X56757200Y-82660500D01*
X56769452Y-82661102D01*
G37*
G36*
X57419452Y-82661102D02*
G01*
X57431586Y-82662902D01*
X57443486Y-82665882D01*
X57455035Y-82670015D01*
X57466125Y-82675260D01*
X57476646Y-82681566D01*
X57486499Y-82688874D01*
X57495588Y-82697112D01*
X57503826Y-82706201D01*
X57511134Y-82716054D01*
X57517440Y-82726575D01*
X57522685Y-82737665D01*
X57526818Y-82749214D01*
X57529798Y-82761114D01*
X57531598Y-82773248D01*
X57532200Y-82785500D01*
X57532200Y-84160500D01*
X57531598Y-84172752D01*
X57529798Y-84184886D01*
X57526818Y-84196786D01*
X57522685Y-84208335D01*
X57517440Y-84219425D01*
X57511134Y-84229946D01*
X57503826Y-84239799D01*
X57495588Y-84248888D01*
X57486499Y-84257126D01*
X57476646Y-84264434D01*
X57466125Y-84270740D01*
X57455035Y-84275985D01*
X57443486Y-84280118D01*
X57431586Y-84283098D01*
X57419452Y-84284898D01*
X57407200Y-84285500D01*
X57157200Y-84285500D01*
X57144948Y-84284898D01*
X57132814Y-84283098D01*
X57120914Y-84280118D01*
X57109365Y-84275985D01*
X57098275Y-84270740D01*
X57087754Y-84264434D01*
X57077901Y-84257126D01*
X57068812Y-84248888D01*
X57060574Y-84239799D01*
X57053266Y-84229946D01*
X57046960Y-84219425D01*
X57041715Y-84208335D01*
X57037582Y-84196786D01*
X57034602Y-84184886D01*
X57032802Y-84172752D01*
X57032200Y-84160500D01*
X57032200Y-82785500D01*
X57032802Y-82773248D01*
X57034602Y-82761114D01*
X57037582Y-82749214D01*
X57041715Y-82737665D01*
X57046960Y-82726575D01*
X57053266Y-82716054D01*
X57060574Y-82706201D01*
X57068812Y-82697112D01*
X57077901Y-82688874D01*
X57087754Y-82681566D01*
X57098275Y-82675260D01*
X57109365Y-82670015D01*
X57120914Y-82665882D01*
X57132814Y-82662902D01*
X57144948Y-82661102D01*
X57157200Y-82660500D01*
X57407200Y-82660500D01*
X57419452Y-82661102D01*
G37*
G36*
X58069452Y-82661102D02*
G01*
X58081586Y-82662902D01*
X58093486Y-82665882D01*
X58105035Y-82670015D01*
X58116125Y-82675260D01*
X58126646Y-82681566D01*
X58136499Y-82688874D01*
X58145588Y-82697112D01*
X58153826Y-82706201D01*
X58161134Y-82716054D01*
X58167440Y-82726575D01*
X58172685Y-82737665D01*
X58176818Y-82749214D01*
X58179798Y-82761114D01*
X58181598Y-82773248D01*
X58182200Y-82785500D01*
X58182200Y-84160500D01*
X58181598Y-84172752D01*
X58179798Y-84184886D01*
X58176818Y-84196786D01*
X58172685Y-84208335D01*
X58167440Y-84219425D01*
X58161134Y-84229946D01*
X58153826Y-84239799D01*
X58145588Y-84248888D01*
X58136499Y-84257126D01*
X58126646Y-84264434D01*
X58116125Y-84270740D01*
X58105035Y-84275985D01*
X58093486Y-84280118D01*
X58081586Y-84283098D01*
X58069452Y-84284898D01*
X58057200Y-84285500D01*
X57807200Y-84285500D01*
X57794948Y-84284898D01*
X57782814Y-84283098D01*
X57770914Y-84280118D01*
X57759365Y-84275985D01*
X57748275Y-84270740D01*
X57737754Y-84264434D01*
X57727901Y-84257126D01*
X57718812Y-84248888D01*
X57710574Y-84239799D01*
X57703266Y-84229946D01*
X57696960Y-84219425D01*
X57691715Y-84208335D01*
X57687582Y-84196786D01*
X57684602Y-84184886D01*
X57682802Y-84172752D01*
X57682200Y-84160500D01*
X57682200Y-82785500D01*
X57682802Y-82773248D01*
X57684602Y-82761114D01*
X57687582Y-82749214D01*
X57691715Y-82737665D01*
X57696960Y-82726575D01*
X57703266Y-82716054D01*
X57710574Y-82706201D01*
X57718812Y-82697112D01*
X57727901Y-82688874D01*
X57737754Y-82681566D01*
X57748275Y-82675260D01*
X57759365Y-82670015D01*
X57770914Y-82665882D01*
X57782814Y-82662902D01*
X57794948Y-82661102D01*
X57807200Y-82660500D01*
X58057200Y-82660500D01*
X58069452Y-82661102D01*
G37*
G36*
X58719452Y-82661102D02*
G01*
X58731586Y-82662902D01*
X58743486Y-82665882D01*
X58755035Y-82670015D01*
X58766125Y-82675260D01*
X58776646Y-82681566D01*
X58786499Y-82688874D01*
X58795588Y-82697112D01*
X58803826Y-82706201D01*
X58811134Y-82716054D01*
X58817440Y-82726575D01*
X58822685Y-82737665D01*
X58826818Y-82749214D01*
X58829798Y-82761114D01*
X58831598Y-82773248D01*
X58832200Y-82785500D01*
X58832200Y-84160500D01*
X58831598Y-84172752D01*
X58829798Y-84184886D01*
X58826818Y-84196786D01*
X58822685Y-84208335D01*
X58817440Y-84219425D01*
X58811134Y-84229946D01*
X58803826Y-84239799D01*
X58795588Y-84248888D01*
X58786499Y-84257126D01*
X58776646Y-84264434D01*
X58766125Y-84270740D01*
X58755035Y-84275985D01*
X58743486Y-84280118D01*
X58731586Y-84283098D01*
X58719452Y-84284898D01*
X58707200Y-84285500D01*
X58457200Y-84285500D01*
X58444948Y-84284898D01*
X58432814Y-84283098D01*
X58420914Y-84280118D01*
X58409365Y-84275985D01*
X58398275Y-84270740D01*
X58387754Y-84264434D01*
X58377901Y-84257126D01*
X58368812Y-84248888D01*
X58360574Y-84239799D01*
X58353266Y-84229946D01*
X58346960Y-84219425D01*
X58341715Y-84208335D01*
X58337582Y-84196786D01*
X58334602Y-84184886D01*
X58332802Y-84172752D01*
X58332200Y-84160500D01*
X58332200Y-82785500D01*
X58332802Y-82773248D01*
X58334602Y-82761114D01*
X58337582Y-82749214D01*
X58341715Y-82737665D01*
X58346960Y-82726575D01*
X58353266Y-82716054D01*
X58360574Y-82706201D01*
X58368812Y-82697112D01*
X58377901Y-82688874D01*
X58387754Y-82681566D01*
X58398275Y-82675260D01*
X58409365Y-82670015D01*
X58420914Y-82665882D01*
X58432814Y-82662902D01*
X58444948Y-82661102D01*
X58457200Y-82660500D01*
X58707200Y-82660500D01*
X58719452Y-82661102D01*
G37*
G36*
X58719452Y-78436102D02*
G01*
X58731586Y-78437902D01*
X58743486Y-78440882D01*
X58755035Y-78445015D01*
X58766125Y-78450260D01*
X58776646Y-78456566D01*
X58786499Y-78463874D01*
X58795588Y-78472112D01*
X58803826Y-78481201D01*
X58811134Y-78491054D01*
X58817440Y-78501575D01*
X58822685Y-78512665D01*
X58826818Y-78524214D01*
X58829798Y-78536114D01*
X58831598Y-78548248D01*
X58832200Y-78560500D01*
X58832200Y-79935500D01*
X58831598Y-79947752D01*
X58829798Y-79959886D01*
X58826818Y-79971786D01*
X58822685Y-79983335D01*
X58817440Y-79994425D01*
X58811134Y-80004946D01*
X58803826Y-80014799D01*
X58795588Y-80023888D01*
X58786499Y-80032126D01*
X58776646Y-80039434D01*
X58766125Y-80045740D01*
X58755035Y-80050985D01*
X58743486Y-80055118D01*
X58731586Y-80058098D01*
X58719452Y-80059898D01*
X58707200Y-80060500D01*
X58457200Y-80060500D01*
X58444948Y-80059898D01*
X58432814Y-80058098D01*
X58420914Y-80055118D01*
X58409365Y-80050985D01*
X58398275Y-80045740D01*
X58387754Y-80039434D01*
X58377901Y-80032126D01*
X58368812Y-80023888D01*
X58360574Y-80014799D01*
X58353266Y-80004946D01*
X58346960Y-79994425D01*
X58341715Y-79983335D01*
X58337582Y-79971786D01*
X58334602Y-79959886D01*
X58332802Y-79947752D01*
X58332200Y-79935500D01*
X58332200Y-78560500D01*
X58332802Y-78548248D01*
X58334602Y-78536114D01*
X58337582Y-78524214D01*
X58341715Y-78512665D01*
X58346960Y-78501575D01*
X58353266Y-78491054D01*
X58360574Y-78481201D01*
X58368812Y-78472112D01*
X58377901Y-78463874D01*
X58387754Y-78456566D01*
X58398275Y-78450260D01*
X58409365Y-78445015D01*
X58420914Y-78440882D01*
X58432814Y-78437902D01*
X58444948Y-78436102D01*
X58457200Y-78435500D01*
X58707200Y-78435500D01*
X58719452Y-78436102D01*
G37*
G36*
X58069452Y-78436102D02*
G01*
X58081586Y-78437902D01*
X58093486Y-78440882D01*
X58105035Y-78445015D01*
X58116125Y-78450260D01*
X58126646Y-78456566D01*
X58136499Y-78463874D01*
X58145588Y-78472112D01*
X58153826Y-78481201D01*
X58161134Y-78491054D01*
X58167440Y-78501575D01*
X58172685Y-78512665D01*
X58176818Y-78524214D01*
X58179798Y-78536114D01*
X58181598Y-78548248D01*
X58182200Y-78560500D01*
X58182200Y-79935500D01*
X58181598Y-79947752D01*
X58179798Y-79959886D01*
X58176818Y-79971786D01*
X58172685Y-79983335D01*
X58167440Y-79994425D01*
X58161134Y-80004946D01*
X58153826Y-80014799D01*
X58145588Y-80023888D01*
X58136499Y-80032126D01*
X58126646Y-80039434D01*
X58116125Y-80045740D01*
X58105035Y-80050985D01*
X58093486Y-80055118D01*
X58081586Y-80058098D01*
X58069452Y-80059898D01*
X58057200Y-80060500D01*
X57807200Y-80060500D01*
X57794948Y-80059898D01*
X57782814Y-80058098D01*
X57770914Y-80055118D01*
X57759365Y-80050985D01*
X57748275Y-80045740D01*
X57737754Y-80039434D01*
X57727901Y-80032126D01*
X57718812Y-80023888D01*
X57710574Y-80014799D01*
X57703266Y-80004946D01*
X57696960Y-79994425D01*
X57691715Y-79983335D01*
X57687582Y-79971786D01*
X57684602Y-79959886D01*
X57682802Y-79947752D01*
X57682200Y-79935500D01*
X57682200Y-78560500D01*
X57682802Y-78548248D01*
X57684602Y-78536114D01*
X57687582Y-78524214D01*
X57691715Y-78512665D01*
X57696960Y-78501575D01*
X57703266Y-78491054D01*
X57710574Y-78481201D01*
X57718812Y-78472112D01*
X57727901Y-78463874D01*
X57737754Y-78456566D01*
X57748275Y-78450260D01*
X57759365Y-78445015D01*
X57770914Y-78440882D01*
X57782814Y-78437902D01*
X57794948Y-78436102D01*
X57807200Y-78435500D01*
X58057200Y-78435500D01*
X58069452Y-78436102D01*
G37*
G36*
X57419452Y-78436102D02*
G01*
X57431586Y-78437902D01*
X57443486Y-78440882D01*
X57455035Y-78445015D01*
X57466125Y-78450260D01*
X57476646Y-78456566D01*
X57486499Y-78463874D01*
X57495588Y-78472112D01*
X57503826Y-78481201D01*
X57511134Y-78491054D01*
X57517440Y-78501575D01*
X57522685Y-78512665D01*
X57526818Y-78524214D01*
X57529798Y-78536114D01*
X57531598Y-78548248D01*
X57532200Y-78560500D01*
X57532200Y-79935500D01*
X57531598Y-79947752D01*
X57529798Y-79959886D01*
X57526818Y-79971786D01*
X57522685Y-79983335D01*
X57517440Y-79994425D01*
X57511134Y-80004946D01*
X57503826Y-80014799D01*
X57495588Y-80023888D01*
X57486499Y-80032126D01*
X57476646Y-80039434D01*
X57466125Y-80045740D01*
X57455035Y-80050985D01*
X57443486Y-80055118D01*
X57431586Y-80058098D01*
X57419452Y-80059898D01*
X57407200Y-80060500D01*
X57157200Y-80060500D01*
X57144948Y-80059898D01*
X57132814Y-80058098D01*
X57120914Y-80055118D01*
X57109365Y-80050985D01*
X57098275Y-80045740D01*
X57087754Y-80039434D01*
X57077901Y-80032126D01*
X57068812Y-80023888D01*
X57060574Y-80014799D01*
X57053266Y-80004946D01*
X57046960Y-79994425D01*
X57041715Y-79983335D01*
X57037582Y-79971786D01*
X57034602Y-79959886D01*
X57032802Y-79947752D01*
X57032200Y-79935500D01*
X57032200Y-78560500D01*
X57032802Y-78548248D01*
X57034602Y-78536114D01*
X57037582Y-78524214D01*
X57041715Y-78512665D01*
X57046960Y-78501575D01*
X57053266Y-78491054D01*
X57060574Y-78481201D01*
X57068812Y-78472112D01*
X57077901Y-78463874D01*
X57087754Y-78456566D01*
X57098275Y-78450260D01*
X57109365Y-78445015D01*
X57120914Y-78440882D01*
X57132814Y-78437902D01*
X57144948Y-78436102D01*
X57157200Y-78435500D01*
X57407200Y-78435500D01*
X57419452Y-78436102D01*
G37*
G36*
X56769452Y-78436102D02*
G01*
X56781586Y-78437902D01*
X56793486Y-78440882D01*
X56805035Y-78445015D01*
X56816125Y-78450260D01*
X56826646Y-78456566D01*
X56836499Y-78463874D01*
X56845588Y-78472112D01*
X56853826Y-78481201D01*
X56861134Y-78491054D01*
X56867440Y-78501575D01*
X56872685Y-78512665D01*
X56876818Y-78524214D01*
X56879798Y-78536114D01*
X56881598Y-78548248D01*
X56882200Y-78560500D01*
X56882200Y-79935500D01*
X56881598Y-79947752D01*
X56879798Y-79959886D01*
X56876818Y-79971786D01*
X56872685Y-79983335D01*
X56867440Y-79994425D01*
X56861134Y-80004946D01*
X56853826Y-80014799D01*
X56845588Y-80023888D01*
X56836499Y-80032126D01*
X56826646Y-80039434D01*
X56816125Y-80045740D01*
X56805035Y-80050985D01*
X56793486Y-80055118D01*
X56781586Y-80058098D01*
X56769452Y-80059898D01*
X56757200Y-80060500D01*
X56507200Y-80060500D01*
X56494948Y-80059898D01*
X56482814Y-80058098D01*
X56470914Y-80055118D01*
X56459365Y-80050985D01*
X56448275Y-80045740D01*
X56437754Y-80039434D01*
X56427901Y-80032126D01*
X56418812Y-80023888D01*
X56410574Y-80014799D01*
X56403266Y-80004946D01*
X56396960Y-79994425D01*
X56391715Y-79983335D01*
X56387582Y-79971786D01*
X56384602Y-79959886D01*
X56382802Y-79947752D01*
X56382200Y-79935500D01*
X56382200Y-78560500D01*
X56382802Y-78548248D01*
X56384602Y-78536114D01*
X56387582Y-78524214D01*
X56391715Y-78512665D01*
X56396960Y-78501575D01*
X56403266Y-78491054D01*
X56410574Y-78481201D01*
X56418812Y-78472112D01*
X56427901Y-78463874D01*
X56437754Y-78456566D01*
X56448275Y-78450260D01*
X56459365Y-78445015D01*
X56470914Y-78440882D01*
X56482814Y-78437902D01*
X56494948Y-78436102D01*
X56507200Y-78435500D01*
X56757200Y-78435500D01*
X56769452Y-78436102D01*
G37*
D18*
X74819000Y-73361000D03*
X75319000Y-73361000D03*
X75819000Y-73361000D03*
X76319000Y-73361000D03*
X76819000Y-73361000D03*
X76819000Y-68961000D03*
X76319000Y-68961000D03*
X75819000Y-68961000D03*
X75319000Y-68961000D03*
X74819000Y-68961000D03*
M02*
