G04 #@! TF.GenerationSoftware,KiCad,Pcbnew,(5.1.5)-3*
G04 #@! TF.CreationDate,2020-04-14T23:54:33+09:00*
G04 #@! TF.ProjectId,Detector_rev2,44657465-6374-46f7-925f-726576322e6b,rev?*
G04 #@! TF.SameCoordinates,Original*
G04 #@! TF.FileFunction,Copper,L2,Bot*
G04 #@! TF.FilePolarity,Positive*
%FSLAX46Y46*%
G04 Gerber Fmt 4.6, Leading zero omitted, Abs format (unit mm)*
G04 Created by KiCad (PCBNEW (5.1.5)-3) date 2020-04-14 23:54:33*
%MOMM*%
%LPD*%
G04 APERTURE LIST*
%ADD10O,1.950000X1.700000*%
%ADD11C,0.100000*%
%ADD12C,0.800000*%
%ADD13C,5.400000*%
%ADD14C,2.250000*%
%ADD15C,2.050000*%
%ADD16C,1.250000*%
%ADD17C,0.800000*%
%ADD18C,0.250000*%
%ADD19C,0.200000*%
G04 APERTURE END LIST*
D10*
X93218000Y-53617500D03*
G04 #@! TA.AperFunction,ComponentPad*
D11*
G36*
X93967504Y-55268704D02*
G01*
X93991773Y-55272304D01*
X94015571Y-55278265D01*
X94038671Y-55286530D01*
X94060849Y-55297020D01*
X94081893Y-55309633D01*
X94101598Y-55324247D01*
X94119777Y-55340723D01*
X94136253Y-55358902D01*
X94150867Y-55378607D01*
X94163480Y-55399651D01*
X94173970Y-55421829D01*
X94182235Y-55444929D01*
X94188196Y-55468727D01*
X94191796Y-55492996D01*
X94193000Y-55517500D01*
X94193000Y-56717500D01*
X94191796Y-56742004D01*
X94188196Y-56766273D01*
X94182235Y-56790071D01*
X94173970Y-56813171D01*
X94163480Y-56835349D01*
X94150867Y-56856393D01*
X94136253Y-56876098D01*
X94119777Y-56894277D01*
X94101598Y-56910753D01*
X94081893Y-56925367D01*
X94060849Y-56937980D01*
X94038671Y-56948470D01*
X94015571Y-56956735D01*
X93991773Y-56962696D01*
X93967504Y-56966296D01*
X93943000Y-56967500D01*
X92493000Y-56967500D01*
X92468496Y-56966296D01*
X92444227Y-56962696D01*
X92420429Y-56956735D01*
X92397329Y-56948470D01*
X92375151Y-56937980D01*
X92354107Y-56925367D01*
X92334402Y-56910753D01*
X92316223Y-56894277D01*
X92299747Y-56876098D01*
X92285133Y-56856393D01*
X92272520Y-56835349D01*
X92262030Y-56813171D01*
X92253765Y-56790071D01*
X92247804Y-56766273D01*
X92244204Y-56742004D01*
X92243000Y-56717500D01*
X92243000Y-55517500D01*
X92244204Y-55492996D01*
X92247804Y-55468727D01*
X92253765Y-55444929D01*
X92262030Y-55421829D01*
X92272520Y-55399651D01*
X92285133Y-55378607D01*
X92299747Y-55358902D01*
X92316223Y-55340723D01*
X92334402Y-55324247D01*
X92354107Y-55309633D01*
X92375151Y-55297020D01*
X92397329Y-55286530D01*
X92420429Y-55278265D01*
X92444227Y-55272304D01*
X92468496Y-55268704D01*
X92493000Y-55267500D01*
X93943000Y-55267500D01*
X93967504Y-55268704D01*
G37*
G04 #@! TD.AperFunction*
D10*
X93218000Y-51117500D03*
D12*
X99729891Y-83023109D03*
X98298000Y-82430000D03*
X96866109Y-83023109D03*
X96273000Y-84455000D03*
X96866109Y-85886891D03*
X98298000Y-86480000D03*
X99729891Y-85886891D03*
X100323000Y-84455000D03*
D13*
X98298000Y-84455000D03*
D12*
X54263891Y-44288109D03*
X52832000Y-43695000D03*
X51400109Y-44288109D03*
X50807000Y-45720000D03*
X51400109Y-47151891D03*
X52832000Y-47745000D03*
X54263891Y-47151891D03*
X54857000Y-45720000D03*
D13*
X52832000Y-45720000D03*
D12*
X99729891Y-44288109D03*
X98298000Y-43695000D03*
X96866109Y-44288109D03*
X96273000Y-45720000D03*
X96866109Y-47151891D03*
X98298000Y-47745000D03*
X99729891Y-47151891D03*
X100323000Y-45720000D03*
D13*
X98298000Y-45720000D03*
D12*
X54263891Y-83023109D03*
X52832000Y-82430000D03*
X51400109Y-83023109D03*
X50807000Y-84455000D03*
X51400109Y-85886891D03*
X52832000Y-86480000D03*
X54263891Y-85886891D03*
X54857000Y-84455000D03*
D13*
X52832000Y-84455000D03*
D14*
X86360000Y-69342000D03*
X86360000Y-64262000D03*
X91440000Y-64262000D03*
X91440000Y-69342000D03*
D15*
X88900000Y-66802000D03*
D12*
X82550000Y-74930000D03*
X82550000Y-72390000D03*
X53467000Y-68262500D03*
X52514500Y-68262500D03*
X51562000Y-68262500D03*
X50800000Y-68770500D03*
X50800000Y-67754500D03*
X66040000Y-61214000D03*
X67056000Y-61214000D03*
X66548000Y-61976000D03*
X74676000Y-51562000D03*
X74676000Y-52832000D03*
X74676000Y-54102000D03*
X76962000Y-51562000D03*
X76962000Y-52832000D03*
X76962000Y-54102000D03*
X73660000Y-52832000D03*
X73660000Y-54102000D03*
X73660000Y-51562000D03*
X73660000Y-50292000D03*
X73660000Y-49022000D03*
X74676000Y-50292000D03*
X76962000Y-50292000D03*
X76200000Y-50800000D03*
X76200000Y-52070000D03*
X76200000Y-53340000D03*
X76200000Y-54610000D03*
X76962000Y-55372000D03*
X76200000Y-55880000D03*
X81534000Y-50292000D03*
X81534000Y-51562000D03*
X81534000Y-52832000D03*
X81534000Y-54102000D03*
X81534000Y-55372000D03*
X82296000Y-50800000D03*
X82296000Y-52070000D03*
X82296000Y-53340000D03*
X82296000Y-54610000D03*
X82296000Y-55880000D03*
X74549000Y-61849000D03*
X75565000Y-61849000D03*
X76581000Y-61849000D03*
X74041000Y-62611000D03*
X75057000Y-62611000D03*
X76073000Y-62611000D03*
X77089000Y-62611000D03*
X81534000Y-60960000D03*
X81534000Y-61976000D03*
X81534000Y-62992000D03*
X82296000Y-60452000D03*
X82296000Y-61468000D03*
X82296000Y-62484000D03*
X62103000Y-68072000D03*
X62103000Y-68961000D03*
X68961000Y-77851000D03*
X68072000Y-77851000D03*
X57150000Y-44450000D03*
X59690000Y-44450000D03*
X62230000Y-44450000D03*
X64770000Y-44450000D03*
X67310000Y-44450000D03*
X69850000Y-44450000D03*
X77470000Y-44450000D03*
X80010000Y-44450000D03*
X82550000Y-44450000D03*
X85090000Y-44450000D03*
X87630000Y-44450000D03*
X90170000Y-44450000D03*
X92710000Y-44450000D03*
X95250000Y-44450000D03*
X100330000Y-49530000D03*
X100330000Y-52070000D03*
X100330000Y-54610000D03*
X100330000Y-57150000D03*
X100330000Y-59690000D03*
X100330000Y-62230000D03*
X100330000Y-64770000D03*
X100330000Y-67310000D03*
X100330000Y-69850000D03*
X100330000Y-72390000D03*
X100330000Y-74930000D03*
X100330000Y-77470000D03*
X100330000Y-80010000D03*
X92710000Y-85725000D03*
X90170000Y-85725000D03*
X87630000Y-85725000D03*
X85090000Y-85725000D03*
X82550000Y-85725000D03*
X80010000Y-85725000D03*
X77470000Y-85725000D03*
X74930000Y-85725000D03*
X72390000Y-85725000D03*
X69850000Y-85725000D03*
X67310000Y-85725000D03*
X64770000Y-85725000D03*
X62230000Y-85725000D03*
X59690000Y-85725000D03*
X57150000Y-85725000D03*
X52070000Y-49530000D03*
X52070000Y-52070000D03*
X52070000Y-54610000D03*
X52070000Y-57150000D03*
X52070000Y-59690000D03*
X52070000Y-62230000D03*
X52070000Y-74930000D03*
X52070000Y-77470000D03*
X52070000Y-80010000D03*
X57150000Y-46990000D03*
X54610000Y-49530000D03*
X57150000Y-49530000D03*
X59690000Y-46990000D03*
X62230000Y-46990000D03*
X64770000Y-46990000D03*
X64770000Y-49530000D03*
X62230000Y-49530000D03*
X59690000Y-49530000D03*
X54610000Y-52070000D03*
X57150000Y-52070000D03*
X59690000Y-52070000D03*
X62230000Y-52070000D03*
X64770000Y-52070000D03*
X64770000Y-54610000D03*
X62230000Y-54610000D03*
X59690000Y-54610000D03*
X57150000Y-54610000D03*
X54610000Y-54610000D03*
X54610000Y-57150000D03*
X57150000Y-57150000D03*
X57150000Y-59690000D03*
X54610000Y-59690000D03*
X57150000Y-62230000D03*
X54610000Y-72390000D03*
X54610000Y-74930000D03*
X54610000Y-77470000D03*
X54610000Y-80010000D03*
X92710000Y-82550000D03*
X90170000Y-82550000D03*
X87630000Y-82550000D03*
X85090000Y-82550000D03*
X82550000Y-82550000D03*
X80010000Y-82550000D03*
X77470000Y-82550000D03*
X74930000Y-82550000D03*
X74930000Y-80010000D03*
X77470000Y-80010000D03*
X80010000Y-80010000D03*
X82550000Y-80010000D03*
X85090000Y-80010000D03*
X87630000Y-80010000D03*
X90170000Y-80010000D03*
X92710000Y-80010000D03*
X95250000Y-80010000D03*
X97790000Y-80010000D03*
X97790000Y-77470000D03*
X95250000Y-77470000D03*
X92710000Y-77470000D03*
X90170000Y-77470000D03*
X87630000Y-77470000D03*
X85090000Y-77470000D03*
X82550000Y-77470000D03*
X85090000Y-74930000D03*
X87630000Y-74930000D03*
X90170000Y-74930000D03*
X92710000Y-74930000D03*
X95250000Y-74930000D03*
X97790000Y-74930000D03*
X97790000Y-72390000D03*
X95250000Y-72390000D03*
X92710000Y-72390000D03*
X90170000Y-72390000D03*
X87630000Y-72390000D03*
X85090000Y-72390000D03*
X97790000Y-69850000D03*
X97790000Y-67310000D03*
X97790000Y-64770000D03*
X97790000Y-62230000D03*
X97790000Y-59690000D03*
X97790000Y-57150000D03*
X97790000Y-54610000D03*
X97790000Y-52070000D03*
X97790000Y-49530000D03*
X92710000Y-46990000D03*
X90170000Y-46990000D03*
X87630000Y-46990000D03*
X85090000Y-46990000D03*
X83312000Y-65532000D03*
X84582000Y-65532000D03*
X83312000Y-68072000D03*
X84582000Y-68072000D03*
X82042000Y-68072000D03*
X95250000Y-69850000D03*
X95250000Y-67310000D03*
X95250000Y-64770000D03*
X95250000Y-62230000D03*
X95250000Y-59690000D03*
X92710000Y-59690000D03*
X90170000Y-59690000D03*
X87630000Y-59690000D03*
X85090000Y-59690000D03*
X85090000Y-62230000D03*
X87630000Y-62230000D03*
X90170000Y-62230000D03*
X92710000Y-62230000D03*
X90678000Y-53594000D03*
X89408000Y-53594000D03*
X87630000Y-53594000D03*
X86106000Y-53594000D03*
X84836000Y-53594000D03*
X83566000Y-53594000D03*
X67310000Y-52070000D03*
X67310000Y-54610000D03*
X72390000Y-44450000D03*
X74930000Y-44450000D03*
X54610000Y-62230000D03*
X73660000Y-61849000D03*
X68453000Y-61214000D03*
X71501000Y-46355000D03*
X71501000Y-47244000D03*
X71501000Y-48133000D03*
X59690000Y-78359000D03*
X60706000Y-78359000D03*
X69342000Y-61214000D03*
X80010000Y-59944000D03*
X80010000Y-58039000D03*
X79883000Y-69596000D03*
X79883000Y-70485000D03*
X80010000Y-58989000D03*
X80010000Y-46355000D03*
X79883000Y-72517000D03*
X79883000Y-71628000D03*
X80010000Y-47244000D03*
X80010000Y-48133000D03*
X71755000Y-61214000D03*
X70866000Y-61214000D03*
X66548000Y-75565000D03*
X67437000Y-75565000D03*
X66040000Y-65024000D03*
X64135000Y-65024000D03*
X65278000Y-77241500D03*
X65151000Y-74549000D03*
D16*
X68453000Y-61214000D02*
X69342000Y-61214000D01*
X71501000Y-46355000D02*
X71501000Y-51308000D01*
X69342000Y-53467000D02*
X69342000Y-61214000D01*
X71501000Y-51308000D02*
X69342000Y-53467000D01*
X60706000Y-78359000D02*
X59690000Y-78359000D01*
X62992000Y-76454000D02*
X62992000Y-73787000D01*
X69342000Y-67437000D02*
X69342000Y-61214000D01*
X62992000Y-73787000D02*
X69342000Y-67437000D01*
X59690000Y-78359000D02*
X61087000Y-78359000D01*
X61087000Y-78359000D02*
X62992000Y-76454000D01*
X69342000Y-61214000D02*
X69342000Y-61214000D01*
X79965001Y-70402999D02*
X79883000Y-70402999D01*
X80010000Y-58039000D02*
X80010000Y-70358000D01*
X80010000Y-70358000D02*
X79965001Y-70402999D01*
X79883000Y-72517000D02*
X79883000Y-71853009D01*
X78432990Y-47932010D02*
X78432990Y-51615010D01*
X80010000Y-46355000D02*
X78432990Y-47932010D01*
X79121000Y-72517000D02*
X79883000Y-72517000D01*
X78432990Y-71828990D02*
X79121000Y-72517000D01*
X78432990Y-51615010D02*
X78432990Y-52885010D01*
X78432990Y-52885010D02*
X78432990Y-54155010D01*
X78432990Y-54155010D02*
X78432990Y-71828990D01*
X80010000Y-46355000D02*
X80010000Y-48133000D01*
D17*
X66548000Y-75565000D02*
X66548000Y-75565000D01*
D16*
X70866000Y-61214000D02*
X71755000Y-61214000D01*
X71755000Y-71247000D02*
X67437000Y-75565000D01*
X71755000Y-61214000D02*
X71755000Y-71247000D01*
X67437000Y-75565000D02*
X66548000Y-75565000D01*
D17*
X64160400Y-65024000D02*
X64135000Y-65024000D01*
X66014600Y-64998600D02*
X66040000Y-65024000D01*
D18*
X64135000Y-65024000D02*
X66040000Y-65024000D01*
D16*
X65151000Y-74549000D02*
X65151000Y-74930000D01*
D17*
X65151000Y-74930000D02*
X65151000Y-77114500D01*
D16*
X65278000Y-77241500D02*
X65151000Y-77114500D01*
D19*
G36*
X51004885Y-42943191D02*
G01*
X50700593Y-43370804D01*
X52832000Y-45502211D01*
X54963407Y-43370804D01*
X54659115Y-42943191D01*
X54567401Y-42895000D01*
X96561044Y-42895000D01*
X96470885Y-42943191D01*
X96166593Y-43370804D01*
X98298000Y-45502211D01*
X100429407Y-43370804D01*
X100125115Y-42943191D01*
X100033401Y-42895000D01*
X101250000Y-42895000D01*
X101250000Y-44220643D01*
X101074809Y-43892885D01*
X100647196Y-43588593D01*
X98515789Y-45720000D01*
X100647196Y-47851407D01*
X101074809Y-47547115D01*
X101250000Y-47213702D01*
X101250001Y-82955645D01*
X101074809Y-82627885D01*
X100647196Y-82323593D01*
X98515789Y-84455000D01*
X100647196Y-86586407D01*
X101074809Y-86282115D01*
X101250001Y-85948700D01*
X101250001Y-87280000D01*
X100034956Y-87280000D01*
X100125115Y-87231809D01*
X100429407Y-86804196D01*
X98298000Y-84672789D01*
X96166593Y-86804196D01*
X96470885Y-87231809D01*
X96562599Y-87280000D01*
X54568956Y-87280000D01*
X54659115Y-87231809D01*
X54963407Y-86804196D01*
X52832000Y-84672789D01*
X50700593Y-86804196D01*
X51004885Y-87231809D01*
X51096599Y-87280000D01*
X49880000Y-87280000D01*
X49880000Y-85954357D01*
X50055191Y-86282115D01*
X50482804Y-86586407D01*
X52614211Y-84455000D01*
X53049789Y-84455000D01*
X55181196Y-86586407D01*
X55608809Y-86282115D01*
X55911906Y-85705279D01*
X56096644Y-85080395D01*
X56151626Y-84478523D01*
X94974076Y-84478523D01*
X95042533Y-85126536D01*
X95236096Y-85748742D01*
X95521191Y-86282115D01*
X95948804Y-86586407D01*
X98080211Y-84455000D01*
X95948804Y-82323593D01*
X95521191Y-82627885D01*
X95218094Y-83204721D01*
X95033356Y-83829605D01*
X94974076Y-84478523D01*
X56151626Y-84478523D01*
X56155924Y-84431477D01*
X56087467Y-83783464D01*
X55893904Y-83161258D01*
X55608809Y-82627885D01*
X55181196Y-82323593D01*
X53049789Y-84455000D01*
X52614211Y-84455000D01*
X50482804Y-82323593D01*
X50055191Y-82627885D01*
X49880000Y-82961298D01*
X49880000Y-82105804D01*
X50700593Y-82105804D01*
X52832000Y-84237211D01*
X54963407Y-82105804D01*
X96166593Y-82105804D01*
X98298000Y-84237211D01*
X100429407Y-82105804D01*
X100125115Y-81678191D01*
X99548279Y-81375094D01*
X98923395Y-81190356D01*
X98274477Y-81131076D01*
X97626464Y-81199533D01*
X97004258Y-81393096D01*
X96470885Y-81678191D01*
X96166593Y-82105804D01*
X54963407Y-82105804D01*
X54659115Y-81678191D01*
X54082279Y-81375094D01*
X53457395Y-81190356D01*
X52808477Y-81131076D01*
X52160464Y-81199533D01*
X51538258Y-81393096D01*
X51004885Y-81678191D01*
X50700593Y-82105804D01*
X49880000Y-82105804D01*
X49880000Y-78359000D01*
X58760525Y-78359000D01*
X58778385Y-78540332D01*
X58831277Y-78714695D01*
X58917170Y-78875389D01*
X59032762Y-79016238D01*
X59173611Y-79131830D01*
X59334305Y-79217723D01*
X59508668Y-79270615D01*
X59644565Y-79284000D01*
X61041573Y-79284000D01*
X61087000Y-79288474D01*
X61132427Y-79284000D01*
X61132435Y-79284000D01*
X61268332Y-79270615D01*
X61442695Y-79217723D01*
X61603389Y-79131830D01*
X61744238Y-79016238D01*
X61773203Y-78980944D01*
X63613950Y-77140198D01*
X63649238Y-77111238D01*
X63691150Y-77060169D01*
X63709903Y-77037318D01*
X63764830Y-76970389D01*
X63850723Y-76809695D01*
X63903615Y-76635332D01*
X63917000Y-76499435D01*
X63917000Y-76499434D01*
X63921475Y-76454000D01*
X63917000Y-76408566D01*
X63917000Y-74170147D01*
X69963950Y-68123198D01*
X69999238Y-68094238D01*
X70096110Y-67976200D01*
X70114830Y-67953389D01*
X70200723Y-67792695D01*
X70253615Y-67618332D01*
X70255152Y-67602729D01*
X70267000Y-67482435D01*
X70267000Y-67482428D01*
X70271474Y-67437001D01*
X70267000Y-67391574D01*
X70267000Y-61919033D01*
X70349611Y-61986830D01*
X70510305Y-62072723D01*
X70684668Y-62125615D01*
X70820565Y-62139000D01*
X70830000Y-62139000D01*
X70830001Y-70863851D01*
X67053853Y-74640000D01*
X66502565Y-74640000D01*
X66366668Y-74653385D01*
X66192305Y-74706277D01*
X66076000Y-74768444D01*
X66076000Y-74503565D01*
X66062615Y-74367668D01*
X66009723Y-74193305D01*
X65923830Y-74032611D01*
X65808238Y-73891762D01*
X65667388Y-73776170D01*
X65506694Y-73690277D01*
X65332331Y-73637385D01*
X65151000Y-73619525D01*
X64969668Y-73637385D01*
X64795305Y-73690277D01*
X64634611Y-73776170D01*
X64493762Y-73891762D01*
X64378170Y-74032612D01*
X64292277Y-74193306D01*
X64239385Y-74367669D01*
X64226000Y-74503566D01*
X64226000Y-74975435D01*
X64239385Y-75111332D01*
X64292277Y-75285695D01*
X64378170Y-75446389D01*
X64451000Y-75535132D01*
X64451001Y-76509367D01*
X64378170Y-76598112D01*
X64292277Y-76758806D01*
X64239385Y-76933169D01*
X64221526Y-77114500D01*
X64239385Y-77295831D01*
X64292277Y-77470194D01*
X64378170Y-77630888D01*
X64464799Y-77736446D01*
X64656054Y-77927701D01*
X64761612Y-78014330D01*
X64922306Y-78100223D01*
X65096669Y-78153115D01*
X65277999Y-78170974D01*
X65459331Y-78153115D01*
X65633694Y-78100223D01*
X65794387Y-78014330D01*
X65935237Y-77898737D01*
X66050830Y-77757887D01*
X66136723Y-77597194D01*
X66189615Y-77422831D01*
X66207474Y-77241499D01*
X66189615Y-77060169D01*
X66136723Y-76885806D01*
X66050830Y-76725112D01*
X65964201Y-76619554D01*
X65851000Y-76506353D01*
X65851000Y-76173788D01*
X65890762Y-76222238D01*
X66031611Y-76337830D01*
X66192305Y-76423723D01*
X66366668Y-76476615D01*
X66502565Y-76490000D01*
X67391573Y-76490000D01*
X67437000Y-76494474D01*
X67482427Y-76490000D01*
X67482435Y-76490000D01*
X67618332Y-76476615D01*
X67792695Y-76423723D01*
X67953389Y-76337830D01*
X68094238Y-76222238D01*
X68123203Y-76186944D01*
X72376949Y-71933199D01*
X72412238Y-71904238D01*
X72461756Y-71843901D01*
X72527830Y-71763389D01*
X72613723Y-71602695D01*
X72666615Y-71428332D01*
X72675648Y-71336620D01*
X72680000Y-71292435D01*
X72680000Y-71292428D01*
X72684474Y-71247001D01*
X72680000Y-71201574D01*
X72680000Y-61259435D01*
X72684475Y-61214000D01*
X72677685Y-61145056D01*
X72666615Y-61032668D01*
X72613723Y-60858305D01*
X72527830Y-60697611D01*
X72412238Y-60556762D01*
X72360132Y-60514000D01*
X72271389Y-60441170D01*
X72110695Y-60355277D01*
X71936332Y-60302385D01*
X71800435Y-60289000D01*
X71800434Y-60289000D01*
X71755000Y-60284525D01*
X71709565Y-60289000D01*
X70820565Y-60289000D01*
X70684668Y-60302385D01*
X70510305Y-60355277D01*
X70349611Y-60441170D01*
X70267000Y-60508967D01*
X70267000Y-53850147D01*
X72122949Y-51994199D01*
X72158238Y-51965238D01*
X72273830Y-51824389D01*
X72359723Y-51663695D01*
X72412615Y-51489332D01*
X72426000Y-51353435D01*
X72426000Y-51353428D01*
X72430474Y-51308001D01*
X72426000Y-51262574D01*
X72426000Y-47932010D01*
X77503516Y-47932010D01*
X77507990Y-47977437D01*
X77507991Y-51569566D01*
X77507990Y-51569576D01*
X77507991Y-52839567D01*
X77507990Y-52839576D01*
X77507991Y-54109567D01*
X77507990Y-54109576D01*
X77507991Y-71783553D01*
X77503516Y-71828990D01*
X77521375Y-72010321D01*
X77574267Y-72184684D01*
X77660160Y-72345378D01*
X77746789Y-72450936D01*
X77746792Y-72450939D01*
X77775753Y-72486228D01*
X77811041Y-72515189D01*
X78434801Y-73138949D01*
X78463762Y-73174238D01*
X78499051Y-73203199D01*
X78499053Y-73203201D01*
X78581193Y-73270611D01*
X78604611Y-73289830D01*
X78765305Y-73375723D01*
X78939668Y-73428615D01*
X79075565Y-73442000D01*
X79075572Y-73442000D01*
X79120999Y-73446474D01*
X79166426Y-73442000D01*
X79837565Y-73442000D01*
X79883000Y-73446475D01*
X79928434Y-73442000D01*
X79928435Y-73442000D01*
X80064332Y-73428615D01*
X80238695Y-73375723D01*
X80399389Y-73289830D01*
X80540238Y-73174238D01*
X80655830Y-73033389D01*
X80741723Y-72872695D01*
X80794615Y-72698332D01*
X80804121Y-72601820D01*
X80808000Y-72562435D01*
X80808000Y-72562434D01*
X80812475Y-72517000D01*
X80808000Y-72471565D01*
X80808000Y-71807574D01*
X80794615Y-71671677D01*
X80741723Y-71497314D01*
X80655830Y-71336620D01*
X80540238Y-71195771D01*
X80498664Y-71161652D01*
X80622239Y-71060237D01*
X80642523Y-71035522D01*
X80667238Y-71015238D01*
X80782830Y-70874389D01*
X80868723Y-70713695D01*
X80912472Y-70569472D01*
X85350317Y-70569472D01*
X85465038Y-70835809D01*
X85773663Y-70981704D01*
X86104820Y-71064586D01*
X86445783Y-71081271D01*
X86783449Y-71031115D01*
X87104843Y-70916049D01*
X87254962Y-70835809D01*
X87369683Y-70569472D01*
X90430317Y-70569472D01*
X90545038Y-70835809D01*
X90853663Y-70981704D01*
X91184820Y-71064586D01*
X91525783Y-71081271D01*
X91863449Y-71031115D01*
X92184843Y-70916049D01*
X92334962Y-70835809D01*
X92449683Y-70569472D01*
X91440000Y-69559789D01*
X90430317Y-70569472D01*
X87369683Y-70569472D01*
X86360000Y-69559789D01*
X85350317Y-70569472D01*
X80912472Y-70569472D01*
X80921615Y-70539332D01*
X80935000Y-70403435D01*
X80935000Y-70403427D01*
X80939474Y-70358001D01*
X80935000Y-70312574D01*
X80935000Y-69427783D01*
X84620729Y-69427783D01*
X84670885Y-69765449D01*
X84785951Y-70086843D01*
X84866191Y-70236962D01*
X85132528Y-70351683D01*
X86142211Y-69342000D01*
X86577789Y-69342000D01*
X87587472Y-70351683D01*
X87853809Y-70236962D01*
X87999704Y-69928337D01*
X88082586Y-69597180D01*
X88090875Y-69427783D01*
X89700729Y-69427783D01*
X89750885Y-69765449D01*
X89865951Y-70086843D01*
X89946191Y-70236962D01*
X90212528Y-70351683D01*
X91222211Y-69342000D01*
X91657789Y-69342000D01*
X92667472Y-70351683D01*
X92933809Y-70236962D01*
X93079704Y-69928337D01*
X93162586Y-69597180D01*
X93179271Y-69256217D01*
X93129115Y-68918551D01*
X93014049Y-68597157D01*
X92933809Y-68447038D01*
X92667472Y-68332317D01*
X91657789Y-69342000D01*
X91222211Y-69342000D01*
X90212528Y-68332317D01*
X89946191Y-68447038D01*
X89800296Y-68755663D01*
X89717414Y-69086820D01*
X89700729Y-69427783D01*
X88090875Y-69427783D01*
X88099271Y-69256217D01*
X88049115Y-68918551D01*
X87934049Y-68597157D01*
X87853809Y-68447038D01*
X87587472Y-68332317D01*
X86577789Y-69342000D01*
X86142211Y-69342000D01*
X85132528Y-68332317D01*
X84866191Y-68447038D01*
X84720296Y-68755663D01*
X84637414Y-69086820D01*
X84620729Y-69427783D01*
X80935000Y-69427783D01*
X80935000Y-68114528D01*
X85350317Y-68114528D01*
X86360000Y-69124211D01*
X87369683Y-68114528D01*
X87254962Y-67848191D01*
X86946337Y-67702296D01*
X86615180Y-67619414D01*
X86274217Y-67602729D01*
X85936551Y-67652885D01*
X85615157Y-67767951D01*
X85465038Y-67848191D01*
X85350317Y-68114528D01*
X80935000Y-68114528D01*
X80935000Y-66671499D01*
X87575000Y-66671499D01*
X87575000Y-66932501D01*
X87625919Y-67188488D01*
X87725800Y-67429623D01*
X87870805Y-67646638D01*
X88055362Y-67831195D01*
X88272377Y-67976200D01*
X88513512Y-68076081D01*
X88769499Y-68127000D01*
X89030501Y-68127000D01*
X89093201Y-68114528D01*
X90430317Y-68114528D01*
X91440000Y-69124211D01*
X92449683Y-68114528D01*
X92334962Y-67848191D01*
X92026337Y-67702296D01*
X91695180Y-67619414D01*
X91354217Y-67602729D01*
X91016551Y-67652885D01*
X90695157Y-67767951D01*
X90545038Y-67848191D01*
X90430317Y-68114528D01*
X89093201Y-68114528D01*
X89286488Y-68076081D01*
X89527623Y-67976200D01*
X89744638Y-67831195D01*
X89929195Y-67646638D01*
X90074200Y-67429623D01*
X90174081Y-67188488D01*
X90225000Y-66932501D01*
X90225000Y-66671499D01*
X90174081Y-66415512D01*
X90074200Y-66174377D01*
X89929195Y-65957362D01*
X89744638Y-65772805D01*
X89527623Y-65627800D01*
X89286488Y-65527919D01*
X89093202Y-65489472D01*
X90430317Y-65489472D01*
X90545038Y-65755809D01*
X90853663Y-65901704D01*
X91184820Y-65984586D01*
X91525783Y-66001271D01*
X91863449Y-65951115D01*
X92184843Y-65836049D01*
X92334962Y-65755809D01*
X92449683Y-65489472D01*
X91440000Y-64479789D01*
X90430317Y-65489472D01*
X89093202Y-65489472D01*
X89030501Y-65477000D01*
X88769499Y-65477000D01*
X88513512Y-65527919D01*
X88272377Y-65627800D01*
X88055362Y-65772805D01*
X87870805Y-65957362D01*
X87725800Y-66174377D01*
X87625919Y-66415512D01*
X87575000Y-66671499D01*
X80935000Y-66671499D01*
X80935000Y-65489472D01*
X85350317Y-65489472D01*
X85465038Y-65755809D01*
X85773663Y-65901704D01*
X86104820Y-65984586D01*
X86445783Y-66001271D01*
X86783449Y-65951115D01*
X87104843Y-65836049D01*
X87254962Y-65755809D01*
X87369683Y-65489472D01*
X86360000Y-64479789D01*
X85350317Y-65489472D01*
X80935000Y-65489472D01*
X80935000Y-64347783D01*
X84620729Y-64347783D01*
X84670885Y-64685449D01*
X84785951Y-65006843D01*
X84866191Y-65156962D01*
X85132528Y-65271683D01*
X86142211Y-64262000D01*
X86577789Y-64262000D01*
X87587472Y-65271683D01*
X87853809Y-65156962D01*
X87999704Y-64848337D01*
X88082586Y-64517180D01*
X88090875Y-64347783D01*
X89700729Y-64347783D01*
X89750885Y-64685449D01*
X89865951Y-65006843D01*
X89946191Y-65156962D01*
X90212528Y-65271683D01*
X91222211Y-64262000D01*
X91657789Y-64262000D01*
X92667472Y-65271683D01*
X92933809Y-65156962D01*
X93079704Y-64848337D01*
X93162586Y-64517180D01*
X93179271Y-64176217D01*
X93129115Y-63838551D01*
X93014049Y-63517157D01*
X92933809Y-63367038D01*
X92667472Y-63252317D01*
X91657789Y-64262000D01*
X91222211Y-64262000D01*
X90212528Y-63252317D01*
X89946191Y-63367038D01*
X89800296Y-63675663D01*
X89717414Y-64006820D01*
X89700729Y-64347783D01*
X88090875Y-64347783D01*
X88099271Y-64176217D01*
X88049115Y-63838551D01*
X87934049Y-63517157D01*
X87853809Y-63367038D01*
X87587472Y-63252317D01*
X86577789Y-64262000D01*
X86142211Y-64262000D01*
X85132528Y-63252317D01*
X84866191Y-63367038D01*
X84720296Y-63675663D01*
X84637414Y-64006820D01*
X84620729Y-64347783D01*
X80935000Y-64347783D01*
X80935000Y-63034528D01*
X85350317Y-63034528D01*
X86360000Y-64044211D01*
X87369683Y-63034528D01*
X90430317Y-63034528D01*
X91440000Y-64044211D01*
X92449683Y-63034528D01*
X92334962Y-62768191D01*
X92026337Y-62622296D01*
X91695180Y-62539414D01*
X91354217Y-62522729D01*
X91016551Y-62572885D01*
X90695157Y-62687951D01*
X90545038Y-62768191D01*
X90430317Y-63034528D01*
X87369683Y-63034528D01*
X87254962Y-62768191D01*
X86946337Y-62622296D01*
X86615180Y-62539414D01*
X86274217Y-62522729D01*
X85936551Y-62572885D01*
X85615157Y-62687951D01*
X85465038Y-62768191D01*
X85350317Y-63034528D01*
X80935000Y-63034528D01*
X80935000Y-57993565D01*
X80921615Y-57857668D01*
X80868723Y-57683305D01*
X80782830Y-57522611D01*
X80667238Y-57381762D01*
X80526388Y-57266170D01*
X80365694Y-57180277D01*
X80191331Y-57127385D01*
X80010000Y-57109525D01*
X79828668Y-57127385D01*
X79654305Y-57180277D01*
X79493611Y-57266170D01*
X79357990Y-57377471D01*
X79357990Y-53996410D01*
X91685097Y-53996410D01*
X91758178Y-54200928D01*
X91897647Y-54450129D01*
X92083053Y-54667332D01*
X92307271Y-54844191D01*
X92546268Y-54966049D01*
X92493000Y-54966049D01*
X92385417Y-54976645D01*
X92281969Y-55008026D01*
X92186630Y-55058985D01*
X92103065Y-55127565D01*
X92034485Y-55211130D01*
X91983526Y-55306469D01*
X91952145Y-55409917D01*
X91941549Y-55517500D01*
X91941549Y-56717500D01*
X91952145Y-56825083D01*
X91983526Y-56928531D01*
X92034485Y-57023870D01*
X92103065Y-57107435D01*
X92186630Y-57176015D01*
X92281969Y-57226974D01*
X92385417Y-57258355D01*
X92493000Y-57268951D01*
X93943000Y-57268951D01*
X94050583Y-57258355D01*
X94154031Y-57226974D01*
X94249370Y-57176015D01*
X94332935Y-57107435D01*
X94401515Y-57023870D01*
X94452474Y-56928531D01*
X94483855Y-56825083D01*
X94494451Y-56717500D01*
X94494451Y-55517500D01*
X94483855Y-55409917D01*
X94452474Y-55306469D01*
X94401515Y-55211130D01*
X94332935Y-55127565D01*
X94249370Y-55058985D01*
X94154031Y-55008026D01*
X94050583Y-54976645D01*
X93943000Y-54966049D01*
X93889732Y-54966049D01*
X94128729Y-54844191D01*
X94352947Y-54667332D01*
X94538353Y-54450129D01*
X94677822Y-54200928D01*
X94750903Y-53996410D01*
X94639889Y-53771500D01*
X93372000Y-53771500D01*
X93372000Y-53791500D01*
X93064000Y-53791500D01*
X93064000Y-53771500D01*
X91796111Y-53771500D01*
X91685097Y-53996410D01*
X79357990Y-53996410D01*
X79357990Y-53238590D01*
X91685097Y-53238590D01*
X91796111Y-53463500D01*
X93064000Y-53463500D01*
X93064000Y-53443500D01*
X93372000Y-53443500D01*
X93372000Y-53463500D01*
X94639889Y-53463500D01*
X94750903Y-53238590D01*
X94677822Y-53034072D01*
X94538353Y-52784871D01*
X94352947Y-52567668D01*
X94128729Y-52390809D01*
X93874316Y-52261091D01*
X93698420Y-52211431D01*
X93785215Y-52185102D01*
X93984997Y-52078316D01*
X94160107Y-51934607D01*
X94303816Y-51759497D01*
X94410602Y-51559715D01*
X94476360Y-51342939D01*
X94498564Y-51117500D01*
X94476360Y-50892061D01*
X94410602Y-50675285D01*
X94303816Y-50475503D01*
X94160107Y-50300393D01*
X93984997Y-50156684D01*
X93785215Y-50049898D01*
X93568439Y-49984140D01*
X93399492Y-49967500D01*
X93036508Y-49967500D01*
X92867561Y-49984140D01*
X92650785Y-50049898D01*
X92451003Y-50156684D01*
X92275893Y-50300393D01*
X92132184Y-50475503D01*
X92025398Y-50675285D01*
X91959640Y-50892061D01*
X91937436Y-51117500D01*
X91959640Y-51342939D01*
X92025398Y-51559715D01*
X92132184Y-51759497D01*
X92275893Y-51934607D01*
X92451003Y-52078316D01*
X92650785Y-52185102D01*
X92737580Y-52211431D01*
X92561684Y-52261091D01*
X92307271Y-52390809D01*
X92083053Y-52567668D01*
X91897647Y-52784871D01*
X91758178Y-53034072D01*
X91685097Y-53238590D01*
X79357990Y-53238590D01*
X79357990Y-48794528D01*
X79493612Y-48905830D01*
X79654306Y-48991723D01*
X79828669Y-49044615D01*
X80010000Y-49062475D01*
X80191332Y-49044615D01*
X80365695Y-48991723D01*
X80526389Y-48905830D01*
X80667238Y-48790238D01*
X80782830Y-48649389D01*
X80868723Y-48488695D01*
X80921615Y-48314332D01*
X80935000Y-48178435D01*
X80935000Y-48069196D01*
X96166593Y-48069196D01*
X96470885Y-48496809D01*
X97047721Y-48799906D01*
X97672605Y-48984644D01*
X98321523Y-49043924D01*
X98969536Y-48975467D01*
X99591742Y-48781904D01*
X100125115Y-48496809D01*
X100429407Y-48069196D01*
X98298000Y-45937789D01*
X96166593Y-48069196D01*
X80935000Y-48069196D01*
X80935000Y-46400427D01*
X80939474Y-46355000D01*
X80935000Y-46309573D01*
X80935000Y-46309565D01*
X80921615Y-46173668D01*
X80868723Y-45999305D01*
X80782830Y-45838611D01*
X80704794Y-45743523D01*
X94974076Y-45743523D01*
X95042533Y-46391536D01*
X95236096Y-47013742D01*
X95521191Y-47547115D01*
X95948804Y-47851407D01*
X98080211Y-45720000D01*
X95948804Y-43588593D01*
X95521191Y-43892885D01*
X95218094Y-44469721D01*
X95033356Y-45094605D01*
X94974076Y-45743523D01*
X80704794Y-45743523D01*
X80667238Y-45697762D01*
X80526388Y-45582170D01*
X80365694Y-45496277D01*
X80191331Y-45443385D01*
X80010000Y-45425525D01*
X79828668Y-45443385D01*
X79654305Y-45496277D01*
X79493611Y-45582170D01*
X79404868Y-45655000D01*
X79352762Y-45697762D01*
X79323802Y-45733050D01*
X77811046Y-47245807D01*
X77775752Y-47274772D01*
X77660160Y-47415622D01*
X77574267Y-47576316D01*
X77521375Y-47750679D01*
X77507990Y-47886576D01*
X77507990Y-47886583D01*
X77503516Y-47932010D01*
X72426000Y-47932010D01*
X72426000Y-46309565D01*
X72412615Y-46173668D01*
X72359723Y-45999305D01*
X72273830Y-45838611D01*
X72158238Y-45697762D01*
X72017388Y-45582170D01*
X71856694Y-45496277D01*
X71682331Y-45443385D01*
X71501000Y-45425525D01*
X71319668Y-45443385D01*
X71145305Y-45496277D01*
X70984611Y-45582170D01*
X70843762Y-45697762D01*
X70728170Y-45838612D01*
X70642277Y-45999306D01*
X70589385Y-46173669D01*
X70576000Y-46309566D01*
X70576001Y-50924851D01*
X68720056Y-52780797D01*
X68684762Y-52809762D01*
X68569170Y-52950612D01*
X68483277Y-53111306D01*
X68430385Y-53285669D01*
X68417000Y-53421566D01*
X68417000Y-53421573D01*
X68412526Y-53467000D01*
X68417000Y-53512427D01*
X68417001Y-60289000D01*
X68407565Y-60289000D01*
X68271668Y-60302385D01*
X68097305Y-60355277D01*
X67936611Y-60441170D01*
X67795762Y-60556762D01*
X67680170Y-60697611D01*
X67594277Y-60858305D01*
X67541385Y-61032668D01*
X67523525Y-61214000D01*
X67541385Y-61395332D01*
X67594277Y-61569695D01*
X67680170Y-61730389D01*
X67795762Y-61871238D01*
X67936611Y-61986830D01*
X68097305Y-62072723D01*
X68271668Y-62125615D01*
X68407565Y-62139000D01*
X68417001Y-62139000D01*
X68417000Y-67053852D01*
X62370052Y-73100801D01*
X62334763Y-73129762D01*
X62305802Y-73165051D01*
X62305799Y-73165054D01*
X62219170Y-73270612D01*
X62133277Y-73431306D01*
X62080385Y-73605669D01*
X62062526Y-73787000D01*
X62067001Y-73832436D01*
X62067000Y-76070852D01*
X60703853Y-77434000D01*
X59644565Y-77434000D01*
X59508668Y-77447385D01*
X59334305Y-77500277D01*
X59173611Y-77586170D01*
X59032762Y-77701762D01*
X58917170Y-77842611D01*
X58831277Y-78003305D01*
X58778385Y-78177668D01*
X58760525Y-78359000D01*
X49880000Y-78359000D01*
X49880000Y-65024000D01*
X63431613Y-65024000D01*
X63435000Y-65058390D01*
X63435000Y-65092944D01*
X63441741Y-65126831D01*
X63445128Y-65161224D01*
X63455161Y-65194298D01*
X63461901Y-65228182D01*
X63475122Y-65260100D01*
X63485155Y-65293175D01*
X63501446Y-65323654D01*
X63514668Y-65355574D01*
X63533865Y-65384304D01*
X63550155Y-65414781D01*
X63572076Y-65441492D01*
X63591274Y-65470224D01*
X63615709Y-65494659D01*
X63637630Y-65521370D01*
X63664341Y-65543291D01*
X63688776Y-65567726D01*
X63717508Y-65586924D01*
X63744219Y-65608845D01*
X63774696Y-65625135D01*
X63803426Y-65644332D01*
X63835346Y-65657554D01*
X63865825Y-65673845D01*
X63898900Y-65683878D01*
X63930818Y-65697099D01*
X63964702Y-65703839D01*
X63997776Y-65713872D01*
X64032169Y-65717259D01*
X64066056Y-65724000D01*
X64203944Y-65724000D01*
X64212921Y-65722214D01*
X64297624Y-65713872D01*
X64429575Y-65673845D01*
X64551181Y-65608845D01*
X64657770Y-65521370D01*
X64717162Y-65449000D01*
X65478683Y-65449000D01*
X65495308Y-65469257D01*
X65496272Y-65470221D01*
X65496274Y-65470224D01*
X65593776Y-65567726D01*
X65622510Y-65586925D01*
X65649219Y-65608845D01*
X65679695Y-65625135D01*
X65708426Y-65644332D01*
X65740349Y-65657555D01*
X65770826Y-65673845D01*
X65803895Y-65683876D01*
X65835818Y-65697099D01*
X65869712Y-65703841D01*
X65902777Y-65713871D01*
X65937161Y-65717258D01*
X65971056Y-65724000D01*
X66005612Y-65724000D01*
X66039999Y-65727387D01*
X66074386Y-65724000D01*
X66108944Y-65724000D01*
X66142840Y-65717258D01*
X66177223Y-65713871D01*
X66210288Y-65703841D01*
X66244182Y-65697099D01*
X66276105Y-65683876D01*
X66309174Y-65673845D01*
X66339651Y-65657555D01*
X66371574Y-65644332D01*
X66400305Y-65625135D01*
X66430781Y-65608845D01*
X66457489Y-65586926D01*
X66486224Y-65567726D01*
X66510666Y-65543284D01*
X66537369Y-65521369D01*
X66559284Y-65494666D01*
X66583726Y-65470224D01*
X66602926Y-65441489D01*
X66624845Y-65414781D01*
X66641135Y-65384305D01*
X66660332Y-65355574D01*
X66673555Y-65323651D01*
X66689845Y-65293174D01*
X66699876Y-65260105D01*
X66713099Y-65228182D01*
X66719841Y-65194288D01*
X66729871Y-65161223D01*
X66733258Y-65126840D01*
X66740000Y-65092944D01*
X66740000Y-65058386D01*
X66743387Y-65023999D01*
X66740000Y-64989612D01*
X66740000Y-64955056D01*
X66733258Y-64921161D01*
X66729871Y-64886777D01*
X66719841Y-64853712D01*
X66713099Y-64819818D01*
X66699876Y-64787895D01*
X66689845Y-64754826D01*
X66673555Y-64724349D01*
X66660332Y-64692426D01*
X66641135Y-64663695D01*
X66624845Y-64633219D01*
X66602925Y-64606510D01*
X66583726Y-64577776D01*
X66486224Y-64480274D01*
X66486221Y-64480272D01*
X66485257Y-64479308D01*
X66405381Y-64413755D01*
X66283774Y-64348755D01*
X66151823Y-64308729D01*
X66014600Y-64295213D01*
X65877377Y-64308729D01*
X65745426Y-64348755D01*
X65623819Y-64413755D01*
X65517231Y-64501231D01*
X65436993Y-64599000D01*
X64717162Y-64599000D01*
X64657770Y-64526630D01*
X64551181Y-64439155D01*
X64429575Y-64374155D01*
X64297624Y-64334128D01*
X64212921Y-64325786D01*
X64203944Y-64324000D01*
X64066056Y-64324000D01*
X64032169Y-64330741D01*
X63997776Y-64334128D01*
X63964702Y-64344161D01*
X63930818Y-64350901D01*
X63898900Y-64364122D01*
X63865825Y-64374155D01*
X63835346Y-64390446D01*
X63803426Y-64403668D01*
X63774696Y-64422865D01*
X63744219Y-64439155D01*
X63717508Y-64461076D01*
X63688776Y-64480274D01*
X63664341Y-64504709D01*
X63637630Y-64526630D01*
X63615709Y-64553341D01*
X63591274Y-64577776D01*
X63572076Y-64606508D01*
X63550155Y-64633219D01*
X63533865Y-64663696D01*
X63514668Y-64692426D01*
X63501446Y-64724346D01*
X63485155Y-64754825D01*
X63475122Y-64787900D01*
X63461901Y-64819818D01*
X63455161Y-64853702D01*
X63445128Y-64886776D01*
X63441741Y-64921169D01*
X63435000Y-64955056D01*
X63435000Y-64989610D01*
X63431613Y-65024000D01*
X49880000Y-65024000D01*
X49880000Y-48069196D01*
X50700593Y-48069196D01*
X51004885Y-48496809D01*
X51581721Y-48799906D01*
X52206605Y-48984644D01*
X52855523Y-49043924D01*
X53503536Y-48975467D01*
X54125742Y-48781904D01*
X54659115Y-48496809D01*
X54963407Y-48069196D01*
X52832000Y-45937789D01*
X50700593Y-48069196D01*
X49880000Y-48069196D01*
X49880000Y-47219357D01*
X50055191Y-47547115D01*
X50482804Y-47851407D01*
X52614211Y-45720000D01*
X53049789Y-45720000D01*
X55181196Y-47851407D01*
X55608809Y-47547115D01*
X55911906Y-46970279D01*
X56096644Y-46345395D01*
X56155924Y-45696477D01*
X56087467Y-45048464D01*
X55893904Y-44426258D01*
X55608809Y-43892885D01*
X55181196Y-43588593D01*
X53049789Y-45720000D01*
X52614211Y-45720000D01*
X50482804Y-43588593D01*
X50055191Y-43892885D01*
X49880000Y-44226298D01*
X49880000Y-42895000D01*
X51095044Y-42895000D01*
X51004885Y-42943191D01*
G37*
X51004885Y-42943191D02*
X50700593Y-43370804D01*
X52832000Y-45502211D01*
X54963407Y-43370804D01*
X54659115Y-42943191D01*
X54567401Y-42895000D01*
X96561044Y-42895000D01*
X96470885Y-42943191D01*
X96166593Y-43370804D01*
X98298000Y-45502211D01*
X100429407Y-43370804D01*
X100125115Y-42943191D01*
X100033401Y-42895000D01*
X101250000Y-42895000D01*
X101250000Y-44220643D01*
X101074809Y-43892885D01*
X100647196Y-43588593D01*
X98515789Y-45720000D01*
X100647196Y-47851407D01*
X101074809Y-47547115D01*
X101250000Y-47213702D01*
X101250001Y-82955645D01*
X101074809Y-82627885D01*
X100647196Y-82323593D01*
X98515789Y-84455000D01*
X100647196Y-86586407D01*
X101074809Y-86282115D01*
X101250001Y-85948700D01*
X101250001Y-87280000D01*
X100034956Y-87280000D01*
X100125115Y-87231809D01*
X100429407Y-86804196D01*
X98298000Y-84672789D01*
X96166593Y-86804196D01*
X96470885Y-87231809D01*
X96562599Y-87280000D01*
X54568956Y-87280000D01*
X54659115Y-87231809D01*
X54963407Y-86804196D01*
X52832000Y-84672789D01*
X50700593Y-86804196D01*
X51004885Y-87231809D01*
X51096599Y-87280000D01*
X49880000Y-87280000D01*
X49880000Y-85954357D01*
X50055191Y-86282115D01*
X50482804Y-86586407D01*
X52614211Y-84455000D01*
X53049789Y-84455000D01*
X55181196Y-86586407D01*
X55608809Y-86282115D01*
X55911906Y-85705279D01*
X56096644Y-85080395D01*
X56151626Y-84478523D01*
X94974076Y-84478523D01*
X95042533Y-85126536D01*
X95236096Y-85748742D01*
X95521191Y-86282115D01*
X95948804Y-86586407D01*
X98080211Y-84455000D01*
X95948804Y-82323593D01*
X95521191Y-82627885D01*
X95218094Y-83204721D01*
X95033356Y-83829605D01*
X94974076Y-84478523D01*
X56151626Y-84478523D01*
X56155924Y-84431477D01*
X56087467Y-83783464D01*
X55893904Y-83161258D01*
X55608809Y-82627885D01*
X55181196Y-82323593D01*
X53049789Y-84455000D01*
X52614211Y-84455000D01*
X50482804Y-82323593D01*
X50055191Y-82627885D01*
X49880000Y-82961298D01*
X49880000Y-82105804D01*
X50700593Y-82105804D01*
X52832000Y-84237211D01*
X54963407Y-82105804D01*
X96166593Y-82105804D01*
X98298000Y-84237211D01*
X100429407Y-82105804D01*
X100125115Y-81678191D01*
X99548279Y-81375094D01*
X98923395Y-81190356D01*
X98274477Y-81131076D01*
X97626464Y-81199533D01*
X97004258Y-81393096D01*
X96470885Y-81678191D01*
X96166593Y-82105804D01*
X54963407Y-82105804D01*
X54659115Y-81678191D01*
X54082279Y-81375094D01*
X53457395Y-81190356D01*
X52808477Y-81131076D01*
X52160464Y-81199533D01*
X51538258Y-81393096D01*
X51004885Y-81678191D01*
X50700593Y-82105804D01*
X49880000Y-82105804D01*
X49880000Y-78359000D01*
X58760525Y-78359000D01*
X58778385Y-78540332D01*
X58831277Y-78714695D01*
X58917170Y-78875389D01*
X59032762Y-79016238D01*
X59173611Y-79131830D01*
X59334305Y-79217723D01*
X59508668Y-79270615D01*
X59644565Y-79284000D01*
X61041573Y-79284000D01*
X61087000Y-79288474D01*
X61132427Y-79284000D01*
X61132435Y-79284000D01*
X61268332Y-79270615D01*
X61442695Y-79217723D01*
X61603389Y-79131830D01*
X61744238Y-79016238D01*
X61773203Y-78980944D01*
X63613950Y-77140198D01*
X63649238Y-77111238D01*
X63691150Y-77060169D01*
X63709903Y-77037318D01*
X63764830Y-76970389D01*
X63850723Y-76809695D01*
X63903615Y-76635332D01*
X63917000Y-76499435D01*
X63917000Y-76499434D01*
X63921475Y-76454000D01*
X63917000Y-76408566D01*
X63917000Y-74170147D01*
X69963950Y-68123198D01*
X69999238Y-68094238D01*
X70096110Y-67976200D01*
X70114830Y-67953389D01*
X70200723Y-67792695D01*
X70253615Y-67618332D01*
X70255152Y-67602729D01*
X70267000Y-67482435D01*
X70267000Y-67482428D01*
X70271474Y-67437001D01*
X70267000Y-67391574D01*
X70267000Y-61919033D01*
X70349611Y-61986830D01*
X70510305Y-62072723D01*
X70684668Y-62125615D01*
X70820565Y-62139000D01*
X70830000Y-62139000D01*
X70830001Y-70863851D01*
X67053853Y-74640000D01*
X66502565Y-74640000D01*
X66366668Y-74653385D01*
X66192305Y-74706277D01*
X66076000Y-74768444D01*
X66076000Y-74503565D01*
X66062615Y-74367668D01*
X66009723Y-74193305D01*
X65923830Y-74032611D01*
X65808238Y-73891762D01*
X65667388Y-73776170D01*
X65506694Y-73690277D01*
X65332331Y-73637385D01*
X65151000Y-73619525D01*
X64969668Y-73637385D01*
X64795305Y-73690277D01*
X64634611Y-73776170D01*
X64493762Y-73891762D01*
X64378170Y-74032612D01*
X64292277Y-74193306D01*
X64239385Y-74367669D01*
X64226000Y-74503566D01*
X64226000Y-74975435D01*
X64239385Y-75111332D01*
X64292277Y-75285695D01*
X64378170Y-75446389D01*
X64451000Y-75535132D01*
X64451001Y-76509367D01*
X64378170Y-76598112D01*
X64292277Y-76758806D01*
X64239385Y-76933169D01*
X64221526Y-77114500D01*
X64239385Y-77295831D01*
X64292277Y-77470194D01*
X64378170Y-77630888D01*
X64464799Y-77736446D01*
X64656054Y-77927701D01*
X64761612Y-78014330D01*
X64922306Y-78100223D01*
X65096669Y-78153115D01*
X65277999Y-78170974D01*
X65459331Y-78153115D01*
X65633694Y-78100223D01*
X65794387Y-78014330D01*
X65935237Y-77898737D01*
X66050830Y-77757887D01*
X66136723Y-77597194D01*
X66189615Y-77422831D01*
X66207474Y-77241499D01*
X66189615Y-77060169D01*
X66136723Y-76885806D01*
X66050830Y-76725112D01*
X65964201Y-76619554D01*
X65851000Y-76506353D01*
X65851000Y-76173788D01*
X65890762Y-76222238D01*
X66031611Y-76337830D01*
X66192305Y-76423723D01*
X66366668Y-76476615D01*
X66502565Y-76490000D01*
X67391573Y-76490000D01*
X67437000Y-76494474D01*
X67482427Y-76490000D01*
X67482435Y-76490000D01*
X67618332Y-76476615D01*
X67792695Y-76423723D01*
X67953389Y-76337830D01*
X68094238Y-76222238D01*
X68123203Y-76186944D01*
X72376949Y-71933199D01*
X72412238Y-71904238D01*
X72461756Y-71843901D01*
X72527830Y-71763389D01*
X72613723Y-71602695D01*
X72666615Y-71428332D01*
X72675648Y-71336620D01*
X72680000Y-71292435D01*
X72680000Y-71292428D01*
X72684474Y-71247001D01*
X72680000Y-71201574D01*
X72680000Y-61259435D01*
X72684475Y-61214000D01*
X72677685Y-61145056D01*
X72666615Y-61032668D01*
X72613723Y-60858305D01*
X72527830Y-60697611D01*
X72412238Y-60556762D01*
X72360132Y-60514000D01*
X72271389Y-60441170D01*
X72110695Y-60355277D01*
X71936332Y-60302385D01*
X71800435Y-60289000D01*
X71800434Y-60289000D01*
X71755000Y-60284525D01*
X71709565Y-60289000D01*
X70820565Y-60289000D01*
X70684668Y-60302385D01*
X70510305Y-60355277D01*
X70349611Y-60441170D01*
X70267000Y-60508967D01*
X70267000Y-53850147D01*
X72122949Y-51994199D01*
X72158238Y-51965238D01*
X72273830Y-51824389D01*
X72359723Y-51663695D01*
X72412615Y-51489332D01*
X72426000Y-51353435D01*
X72426000Y-51353428D01*
X72430474Y-51308001D01*
X72426000Y-51262574D01*
X72426000Y-47932010D01*
X77503516Y-47932010D01*
X77507990Y-47977437D01*
X77507991Y-51569566D01*
X77507990Y-51569576D01*
X77507991Y-52839567D01*
X77507990Y-52839576D01*
X77507991Y-54109567D01*
X77507990Y-54109576D01*
X77507991Y-71783553D01*
X77503516Y-71828990D01*
X77521375Y-72010321D01*
X77574267Y-72184684D01*
X77660160Y-72345378D01*
X77746789Y-72450936D01*
X77746792Y-72450939D01*
X77775753Y-72486228D01*
X77811041Y-72515189D01*
X78434801Y-73138949D01*
X78463762Y-73174238D01*
X78499051Y-73203199D01*
X78499053Y-73203201D01*
X78581193Y-73270611D01*
X78604611Y-73289830D01*
X78765305Y-73375723D01*
X78939668Y-73428615D01*
X79075565Y-73442000D01*
X79075572Y-73442000D01*
X79120999Y-73446474D01*
X79166426Y-73442000D01*
X79837565Y-73442000D01*
X79883000Y-73446475D01*
X79928434Y-73442000D01*
X79928435Y-73442000D01*
X80064332Y-73428615D01*
X80238695Y-73375723D01*
X80399389Y-73289830D01*
X80540238Y-73174238D01*
X80655830Y-73033389D01*
X80741723Y-72872695D01*
X80794615Y-72698332D01*
X80804121Y-72601820D01*
X80808000Y-72562435D01*
X80808000Y-72562434D01*
X80812475Y-72517000D01*
X80808000Y-72471565D01*
X80808000Y-71807574D01*
X80794615Y-71671677D01*
X80741723Y-71497314D01*
X80655830Y-71336620D01*
X80540238Y-71195771D01*
X80498664Y-71161652D01*
X80622239Y-71060237D01*
X80642523Y-71035522D01*
X80667238Y-71015238D01*
X80782830Y-70874389D01*
X80868723Y-70713695D01*
X80912472Y-70569472D01*
X85350317Y-70569472D01*
X85465038Y-70835809D01*
X85773663Y-70981704D01*
X86104820Y-71064586D01*
X86445783Y-71081271D01*
X86783449Y-71031115D01*
X87104843Y-70916049D01*
X87254962Y-70835809D01*
X87369683Y-70569472D01*
X90430317Y-70569472D01*
X90545038Y-70835809D01*
X90853663Y-70981704D01*
X91184820Y-71064586D01*
X91525783Y-71081271D01*
X91863449Y-71031115D01*
X92184843Y-70916049D01*
X92334962Y-70835809D01*
X92449683Y-70569472D01*
X91440000Y-69559789D01*
X90430317Y-70569472D01*
X87369683Y-70569472D01*
X86360000Y-69559789D01*
X85350317Y-70569472D01*
X80912472Y-70569472D01*
X80921615Y-70539332D01*
X80935000Y-70403435D01*
X80935000Y-70403427D01*
X80939474Y-70358001D01*
X80935000Y-70312574D01*
X80935000Y-69427783D01*
X84620729Y-69427783D01*
X84670885Y-69765449D01*
X84785951Y-70086843D01*
X84866191Y-70236962D01*
X85132528Y-70351683D01*
X86142211Y-69342000D01*
X86577789Y-69342000D01*
X87587472Y-70351683D01*
X87853809Y-70236962D01*
X87999704Y-69928337D01*
X88082586Y-69597180D01*
X88090875Y-69427783D01*
X89700729Y-69427783D01*
X89750885Y-69765449D01*
X89865951Y-70086843D01*
X89946191Y-70236962D01*
X90212528Y-70351683D01*
X91222211Y-69342000D01*
X91657789Y-69342000D01*
X92667472Y-70351683D01*
X92933809Y-70236962D01*
X93079704Y-69928337D01*
X93162586Y-69597180D01*
X93179271Y-69256217D01*
X93129115Y-68918551D01*
X93014049Y-68597157D01*
X92933809Y-68447038D01*
X92667472Y-68332317D01*
X91657789Y-69342000D01*
X91222211Y-69342000D01*
X90212528Y-68332317D01*
X89946191Y-68447038D01*
X89800296Y-68755663D01*
X89717414Y-69086820D01*
X89700729Y-69427783D01*
X88090875Y-69427783D01*
X88099271Y-69256217D01*
X88049115Y-68918551D01*
X87934049Y-68597157D01*
X87853809Y-68447038D01*
X87587472Y-68332317D01*
X86577789Y-69342000D01*
X86142211Y-69342000D01*
X85132528Y-68332317D01*
X84866191Y-68447038D01*
X84720296Y-68755663D01*
X84637414Y-69086820D01*
X84620729Y-69427783D01*
X80935000Y-69427783D01*
X80935000Y-68114528D01*
X85350317Y-68114528D01*
X86360000Y-69124211D01*
X87369683Y-68114528D01*
X87254962Y-67848191D01*
X86946337Y-67702296D01*
X86615180Y-67619414D01*
X86274217Y-67602729D01*
X85936551Y-67652885D01*
X85615157Y-67767951D01*
X85465038Y-67848191D01*
X85350317Y-68114528D01*
X80935000Y-68114528D01*
X80935000Y-66671499D01*
X87575000Y-66671499D01*
X87575000Y-66932501D01*
X87625919Y-67188488D01*
X87725800Y-67429623D01*
X87870805Y-67646638D01*
X88055362Y-67831195D01*
X88272377Y-67976200D01*
X88513512Y-68076081D01*
X88769499Y-68127000D01*
X89030501Y-68127000D01*
X89093201Y-68114528D01*
X90430317Y-68114528D01*
X91440000Y-69124211D01*
X92449683Y-68114528D01*
X92334962Y-67848191D01*
X92026337Y-67702296D01*
X91695180Y-67619414D01*
X91354217Y-67602729D01*
X91016551Y-67652885D01*
X90695157Y-67767951D01*
X90545038Y-67848191D01*
X90430317Y-68114528D01*
X89093201Y-68114528D01*
X89286488Y-68076081D01*
X89527623Y-67976200D01*
X89744638Y-67831195D01*
X89929195Y-67646638D01*
X90074200Y-67429623D01*
X90174081Y-67188488D01*
X90225000Y-66932501D01*
X90225000Y-66671499D01*
X90174081Y-66415512D01*
X90074200Y-66174377D01*
X89929195Y-65957362D01*
X89744638Y-65772805D01*
X89527623Y-65627800D01*
X89286488Y-65527919D01*
X89093202Y-65489472D01*
X90430317Y-65489472D01*
X90545038Y-65755809D01*
X90853663Y-65901704D01*
X91184820Y-65984586D01*
X91525783Y-66001271D01*
X91863449Y-65951115D01*
X92184843Y-65836049D01*
X92334962Y-65755809D01*
X92449683Y-65489472D01*
X91440000Y-64479789D01*
X90430317Y-65489472D01*
X89093202Y-65489472D01*
X89030501Y-65477000D01*
X88769499Y-65477000D01*
X88513512Y-65527919D01*
X88272377Y-65627800D01*
X88055362Y-65772805D01*
X87870805Y-65957362D01*
X87725800Y-66174377D01*
X87625919Y-66415512D01*
X87575000Y-66671499D01*
X80935000Y-66671499D01*
X80935000Y-65489472D01*
X85350317Y-65489472D01*
X85465038Y-65755809D01*
X85773663Y-65901704D01*
X86104820Y-65984586D01*
X86445783Y-66001271D01*
X86783449Y-65951115D01*
X87104843Y-65836049D01*
X87254962Y-65755809D01*
X87369683Y-65489472D01*
X86360000Y-64479789D01*
X85350317Y-65489472D01*
X80935000Y-65489472D01*
X80935000Y-64347783D01*
X84620729Y-64347783D01*
X84670885Y-64685449D01*
X84785951Y-65006843D01*
X84866191Y-65156962D01*
X85132528Y-65271683D01*
X86142211Y-64262000D01*
X86577789Y-64262000D01*
X87587472Y-65271683D01*
X87853809Y-65156962D01*
X87999704Y-64848337D01*
X88082586Y-64517180D01*
X88090875Y-64347783D01*
X89700729Y-64347783D01*
X89750885Y-64685449D01*
X89865951Y-65006843D01*
X89946191Y-65156962D01*
X90212528Y-65271683D01*
X91222211Y-64262000D01*
X91657789Y-64262000D01*
X92667472Y-65271683D01*
X92933809Y-65156962D01*
X93079704Y-64848337D01*
X93162586Y-64517180D01*
X93179271Y-64176217D01*
X93129115Y-63838551D01*
X93014049Y-63517157D01*
X92933809Y-63367038D01*
X92667472Y-63252317D01*
X91657789Y-64262000D01*
X91222211Y-64262000D01*
X90212528Y-63252317D01*
X89946191Y-63367038D01*
X89800296Y-63675663D01*
X89717414Y-64006820D01*
X89700729Y-64347783D01*
X88090875Y-64347783D01*
X88099271Y-64176217D01*
X88049115Y-63838551D01*
X87934049Y-63517157D01*
X87853809Y-63367038D01*
X87587472Y-63252317D01*
X86577789Y-64262000D01*
X86142211Y-64262000D01*
X85132528Y-63252317D01*
X84866191Y-63367038D01*
X84720296Y-63675663D01*
X84637414Y-64006820D01*
X84620729Y-64347783D01*
X80935000Y-64347783D01*
X80935000Y-63034528D01*
X85350317Y-63034528D01*
X86360000Y-64044211D01*
X87369683Y-63034528D01*
X90430317Y-63034528D01*
X91440000Y-64044211D01*
X92449683Y-63034528D01*
X92334962Y-62768191D01*
X92026337Y-62622296D01*
X91695180Y-62539414D01*
X91354217Y-62522729D01*
X91016551Y-62572885D01*
X90695157Y-62687951D01*
X90545038Y-62768191D01*
X90430317Y-63034528D01*
X87369683Y-63034528D01*
X87254962Y-62768191D01*
X86946337Y-62622296D01*
X86615180Y-62539414D01*
X86274217Y-62522729D01*
X85936551Y-62572885D01*
X85615157Y-62687951D01*
X85465038Y-62768191D01*
X85350317Y-63034528D01*
X80935000Y-63034528D01*
X80935000Y-57993565D01*
X80921615Y-57857668D01*
X80868723Y-57683305D01*
X80782830Y-57522611D01*
X80667238Y-57381762D01*
X80526388Y-57266170D01*
X80365694Y-57180277D01*
X80191331Y-57127385D01*
X80010000Y-57109525D01*
X79828668Y-57127385D01*
X79654305Y-57180277D01*
X79493611Y-57266170D01*
X79357990Y-57377471D01*
X79357990Y-53996410D01*
X91685097Y-53996410D01*
X91758178Y-54200928D01*
X91897647Y-54450129D01*
X92083053Y-54667332D01*
X92307271Y-54844191D01*
X92546268Y-54966049D01*
X92493000Y-54966049D01*
X92385417Y-54976645D01*
X92281969Y-55008026D01*
X92186630Y-55058985D01*
X92103065Y-55127565D01*
X92034485Y-55211130D01*
X91983526Y-55306469D01*
X91952145Y-55409917D01*
X91941549Y-55517500D01*
X91941549Y-56717500D01*
X91952145Y-56825083D01*
X91983526Y-56928531D01*
X92034485Y-57023870D01*
X92103065Y-57107435D01*
X92186630Y-57176015D01*
X92281969Y-57226974D01*
X92385417Y-57258355D01*
X92493000Y-57268951D01*
X93943000Y-57268951D01*
X94050583Y-57258355D01*
X94154031Y-57226974D01*
X94249370Y-57176015D01*
X94332935Y-57107435D01*
X94401515Y-57023870D01*
X94452474Y-56928531D01*
X94483855Y-56825083D01*
X94494451Y-56717500D01*
X94494451Y-55517500D01*
X94483855Y-55409917D01*
X94452474Y-55306469D01*
X94401515Y-55211130D01*
X94332935Y-55127565D01*
X94249370Y-55058985D01*
X94154031Y-55008026D01*
X94050583Y-54976645D01*
X93943000Y-54966049D01*
X93889732Y-54966049D01*
X94128729Y-54844191D01*
X94352947Y-54667332D01*
X94538353Y-54450129D01*
X94677822Y-54200928D01*
X94750903Y-53996410D01*
X94639889Y-53771500D01*
X93372000Y-53771500D01*
X93372000Y-53791500D01*
X93064000Y-53791500D01*
X93064000Y-53771500D01*
X91796111Y-53771500D01*
X91685097Y-53996410D01*
X79357990Y-53996410D01*
X79357990Y-53238590D01*
X91685097Y-53238590D01*
X91796111Y-53463500D01*
X93064000Y-53463500D01*
X93064000Y-53443500D01*
X93372000Y-53443500D01*
X93372000Y-53463500D01*
X94639889Y-53463500D01*
X94750903Y-53238590D01*
X94677822Y-53034072D01*
X94538353Y-52784871D01*
X94352947Y-52567668D01*
X94128729Y-52390809D01*
X93874316Y-52261091D01*
X93698420Y-52211431D01*
X93785215Y-52185102D01*
X93984997Y-52078316D01*
X94160107Y-51934607D01*
X94303816Y-51759497D01*
X94410602Y-51559715D01*
X94476360Y-51342939D01*
X94498564Y-51117500D01*
X94476360Y-50892061D01*
X94410602Y-50675285D01*
X94303816Y-50475503D01*
X94160107Y-50300393D01*
X93984997Y-50156684D01*
X93785215Y-50049898D01*
X93568439Y-49984140D01*
X93399492Y-49967500D01*
X93036508Y-49967500D01*
X92867561Y-49984140D01*
X92650785Y-50049898D01*
X92451003Y-50156684D01*
X92275893Y-50300393D01*
X92132184Y-50475503D01*
X92025398Y-50675285D01*
X91959640Y-50892061D01*
X91937436Y-51117500D01*
X91959640Y-51342939D01*
X92025398Y-51559715D01*
X92132184Y-51759497D01*
X92275893Y-51934607D01*
X92451003Y-52078316D01*
X92650785Y-52185102D01*
X92737580Y-52211431D01*
X92561684Y-52261091D01*
X92307271Y-52390809D01*
X92083053Y-52567668D01*
X91897647Y-52784871D01*
X91758178Y-53034072D01*
X91685097Y-53238590D01*
X79357990Y-53238590D01*
X79357990Y-48794528D01*
X79493612Y-48905830D01*
X79654306Y-48991723D01*
X79828669Y-49044615D01*
X80010000Y-49062475D01*
X80191332Y-49044615D01*
X80365695Y-48991723D01*
X80526389Y-48905830D01*
X80667238Y-48790238D01*
X80782830Y-48649389D01*
X80868723Y-48488695D01*
X80921615Y-48314332D01*
X80935000Y-48178435D01*
X80935000Y-48069196D01*
X96166593Y-48069196D01*
X96470885Y-48496809D01*
X97047721Y-48799906D01*
X97672605Y-48984644D01*
X98321523Y-49043924D01*
X98969536Y-48975467D01*
X99591742Y-48781904D01*
X100125115Y-48496809D01*
X100429407Y-48069196D01*
X98298000Y-45937789D01*
X96166593Y-48069196D01*
X80935000Y-48069196D01*
X80935000Y-46400427D01*
X80939474Y-46355000D01*
X80935000Y-46309573D01*
X80935000Y-46309565D01*
X80921615Y-46173668D01*
X80868723Y-45999305D01*
X80782830Y-45838611D01*
X80704794Y-45743523D01*
X94974076Y-45743523D01*
X95042533Y-46391536D01*
X95236096Y-47013742D01*
X95521191Y-47547115D01*
X95948804Y-47851407D01*
X98080211Y-45720000D01*
X95948804Y-43588593D01*
X95521191Y-43892885D01*
X95218094Y-44469721D01*
X95033356Y-45094605D01*
X94974076Y-45743523D01*
X80704794Y-45743523D01*
X80667238Y-45697762D01*
X80526388Y-45582170D01*
X80365694Y-45496277D01*
X80191331Y-45443385D01*
X80010000Y-45425525D01*
X79828668Y-45443385D01*
X79654305Y-45496277D01*
X79493611Y-45582170D01*
X79404868Y-45655000D01*
X79352762Y-45697762D01*
X79323802Y-45733050D01*
X77811046Y-47245807D01*
X77775752Y-47274772D01*
X77660160Y-47415622D01*
X77574267Y-47576316D01*
X77521375Y-47750679D01*
X77507990Y-47886576D01*
X77507990Y-47886583D01*
X77503516Y-47932010D01*
X72426000Y-47932010D01*
X72426000Y-46309565D01*
X72412615Y-46173668D01*
X72359723Y-45999305D01*
X72273830Y-45838611D01*
X72158238Y-45697762D01*
X72017388Y-45582170D01*
X71856694Y-45496277D01*
X71682331Y-45443385D01*
X71501000Y-45425525D01*
X71319668Y-45443385D01*
X71145305Y-45496277D01*
X70984611Y-45582170D01*
X70843762Y-45697762D01*
X70728170Y-45838612D01*
X70642277Y-45999306D01*
X70589385Y-46173669D01*
X70576000Y-46309566D01*
X70576001Y-50924851D01*
X68720056Y-52780797D01*
X68684762Y-52809762D01*
X68569170Y-52950612D01*
X68483277Y-53111306D01*
X68430385Y-53285669D01*
X68417000Y-53421566D01*
X68417000Y-53421573D01*
X68412526Y-53467000D01*
X68417000Y-53512427D01*
X68417001Y-60289000D01*
X68407565Y-60289000D01*
X68271668Y-60302385D01*
X68097305Y-60355277D01*
X67936611Y-60441170D01*
X67795762Y-60556762D01*
X67680170Y-60697611D01*
X67594277Y-60858305D01*
X67541385Y-61032668D01*
X67523525Y-61214000D01*
X67541385Y-61395332D01*
X67594277Y-61569695D01*
X67680170Y-61730389D01*
X67795762Y-61871238D01*
X67936611Y-61986830D01*
X68097305Y-62072723D01*
X68271668Y-62125615D01*
X68407565Y-62139000D01*
X68417001Y-62139000D01*
X68417000Y-67053852D01*
X62370052Y-73100801D01*
X62334763Y-73129762D01*
X62305802Y-73165051D01*
X62305799Y-73165054D01*
X62219170Y-73270612D01*
X62133277Y-73431306D01*
X62080385Y-73605669D01*
X62062526Y-73787000D01*
X62067001Y-73832436D01*
X62067000Y-76070852D01*
X60703853Y-77434000D01*
X59644565Y-77434000D01*
X59508668Y-77447385D01*
X59334305Y-77500277D01*
X59173611Y-77586170D01*
X59032762Y-77701762D01*
X58917170Y-77842611D01*
X58831277Y-78003305D01*
X58778385Y-78177668D01*
X58760525Y-78359000D01*
X49880000Y-78359000D01*
X49880000Y-65024000D01*
X63431613Y-65024000D01*
X63435000Y-65058390D01*
X63435000Y-65092944D01*
X63441741Y-65126831D01*
X63445128Y-65161224D01*
X63455161Y-65194298D01*
X63461901Y-65228182D01*
X63475122Y-65260100D01*
X63485155Y-65293175D01*
X63501446Y-65323654D01*
X63514668Y-65355574D01*
X63533865Y-65384304D01*
X63550155Y-65414781D01*
X63572076Y-65441492D01*
X63591274Y-65470224D01*
X63615709Y-65494659D01*
X63637630Y-65521370D01*
X63664341Y-65543291D01*
X63688776Y-65567726D01*
X63717508Y-65586924D01*
X63744219Y-65608845D01*
X63774696Y-65625135D01*
X63803426Y-65644332D01*
X63835346Y-65657554D01*
X63865825Y-65673845D01*
X63898900Y-65683878D01*
X63930818Y-65697099D01*
X63964702Y-65703839D01*
X63997776Y-65713872D01*
X64032169Y-65717259D01*
X64066056Y-65724000D01*
X64203944Y-65724000D01*
X64212921Y-65722214D01*
X64297624Y-65713872D01*
X64429575Y-65673845D01*
X64551181Y-65608845D01*
X64657770Y-65521370D01*
X64717162Y-65449000D01*
X65478683Y-65449000D01*
X65495308Y-65469257D01*
X65496272Y-65470221D01*
X65496274Y-65470224D01*
X65593776Y-65567726D01*
X65622510Y-65586925D01*
X65649219Y-65608845D01*
X65679695Y-65625135D01*
X65708426Y-65644332D01*
X65740349Y-65657555D01*
X65770826Y-65673845D01*
X65803895Y-65683876D01*
X65835818Y-65697099D01*
X65869712Y-65703841D01*
X65902777Y-65713871D01*
X65937161Y-65717258D01*
X65971056Y-65724000D01*
X66005612Y-65724000D01*
X66039999Y-65727387D01*
X66074386Y-65724000D01*
X66108944Y-65724000D01*
X66142840Y-65717258D01*
X66177223Y-65713871D01*
X66210288Y-65703841D01*
X66244182Y-65697099D01*
X66276105Y-65683876D01*
X66309174Y-65673845D01*
X66339651Y-65657555D01*
X66371574Y-65644332D01*
X66400305Y-65625135D01*
X66430781Y-65608845D01*
X66457489Y-65586926D01*
X66486224Y-65567726D01*
X66510666Y-65543284D01*
X66537369Y-65521369D01*
X66559284Y-65494666D01*
X66583726Y-65470224D01*
X66602926Y-65441489D01*
X66624845Y-65414781D01*
X66641135Y-65384305D01*
X66660332Y-65355574D01*
X66673555Y-65323651D01*
X66689845Y-65293174D01*
X66699876Y-65260105D01*
X66713099Y-65228182D01*
X66719841Y-65194288D01*
X66729871Y-65161223D01*
X66733258Y-65126840D01*
X66740000Y-65092944D01*
X66740000Y-65058386D01*
X66743387Y-65023999D01*
X66740000Y-64989612D01*
X66740000Y-64955056D01*
X66733258Y-64921161D01*
X66729871Y-64886777D01*
X66719841Y-64853712D01*
X66713099Y-64819818D01*
X66699876Y-64787895D01*
X66689845Y-64754826D01*
X66673555Y-64724349D01*
X66660332Y-64692426D01*
X66641135Y-64663695D01*
X66624845Y-64633219D01*
X66602925Y-64606510D01*
X66583726Y-64577776D01*
X66486224Y-64480274D01*
X66486221Y-64480272D01*
X66485257Y-64479308D01*
X66405381Y-64413755D01*
X66283774Y-64348755D01*
X66151823Y-64308729D01*
X66014600Y-64295213D01*
X65877377Y-64308729D01*
X65745426Y-64348755D01*
X65623819Y-64413755D01*
X65517231Y-64501231D01*
X65436993Y-64599000D01*
X64717162Y-64599000D01*
X64657770Y-64526630D01*
X64551181Y-64439155D01*
X64429575Y-64374155D01*
X64297624Y-64334128D01*
X64212921Y-64325786D01*
X64203944Y-64324000D01*
X64066056Y-64324000D01*
X64032169Y-64330741D01*
X63997776Y-64334128D01*
X63964702Y-64344161D01*
X63930818Y-64350901D01*
X63898900Y-64364122D01*
X63865825Y-64374155D01*
X63835346Y-64390446D01*
X63803426Y-64403668D01*
X63774696Y-64422865D01*
X63744219Y-64439155D01*
X63717508Y-64461076D01*
X63688776Y-64480274D01*
X63664341Y-64504709D01*
X63637630Y-64526630D01*
X63615709Y-64553341D01*
X63591274Y-64577776D01*
X63572076Y-64606508D01*
X63550155Y-64633219D01*
X63533865Y-64663696D01*
X63514668Y-64692426D01*
X63501446Y-64724346D01*
X63485155Y-64754825D01*
X63475122Y-64787900D01*
X63461901Y-64819818D01*
X63455161Y-64853702D01*
X63445128Y-64886776D01*
X63441741Y-64921169D01*
X63435000Y-64955056D01*
X63435000Y-64989610D01*
X63431613Y-65024000D01*
X49880000Y-65024000D01*
X49880000Y-48069196D01*
X50700593Y-48069196D01*
X51004885Y-48496809D01*
X51581721Y-48799906D01*
X52206605Y-48984644D01*
X52855523Y-49043924D01*
X53503536Y-48975467D01*
X54125742Y-48781904D01*
X54659115Y-48496809D01*
X54963407Y-48069196D01*
X52832000Y-45937789D01*
X50700593Y-48069196D01*
X49880000Y-48069196D01*
X49880000Y-47219357D01*
X50055191Y-47547115D01*
X50482804Y-47851407D01*
X52614211Y-45720000D01*
X53049789Y-45720000D01*
X55181196Y-47851407D01*
X55608809Y-47547115D01*
X55911906Y-46970279D01*
X56096644Y-46345395D01*
X56155924Y-45696477D01*
X56087467Y-45048464D01*
X55893904Y-44426258D01*
X55608809Y-43892885D01*
X55181196Y-43588593D01*
X53049789Y-45720000D01*
X52614211Y-45720000D01*
X50482804Y-43588593D01*
X50055191Y-43892885D01*
X49880000Y-44226298D01*
X49880000Y-42895000D01*
X51095044Y-42895000D01*
X51004885Y-42943191D01*
M02*
